<?xml version="1.0" encoding="UTF-8"?>
<svg id="Capa_2" data-name="Capa 2" xmlns="http://www.w3.org/2000/svg" viewBox="0 0 33.78 33.78">
  <defs>
    <style>
      .cls-1 {
        fill: #f9b700;
      }

      .cls-1, .cls-2, .cls-3, .cls-4 {
        stroke-width: 0px;
      }

      .cls-2 {
        fill: #ffe8bb;
      }

      .cls-3 {
        fill: #664100;
      }

      .cls-4 {
        fill: #fdca47;
      }
    </style>
  </defs>
  <g id="Capa_1-2" data-name="Capa 1">
    <g id="Pensive_Face" data-name="Pensive Face">
      <g id="circle">
        <circle class="cls-4" cx="16.89" cy="16.89" r="16.89"/>
        <path class="cls-2" d="M2.72,11.2c.14-1.25.59-2.44,1.22-3.53.63-1.09,1.45-2.08,2.41-2.91.96-.83,2.05-1.51,3.22-1.99,1.17-.47,2.41-.75,3.67-.71-1.09.62-2.11,1.2-3.08,1.84-.97.64-1.88,1.33-2.74,2.08-.86.75-1.67,1.56-2.44,2.43-.77.87-1.49,1.8-2.25,2.79Z"/>
        <path class="cls-1" d="M33.78,16.89c0,9.33-7.56,16.89-16.89,16.89-5.1,0-9.67-2.26-12.76-5.83,2.96,2.58,6.84,4.14,11.08,4.14,9.33,0,16.89-7.56,16.89-16.89,0-4.23-1.55-8.09-4.12-11.05,3.56,3.1,5.81,7.66,5.81,12.74Z"/>
      </g>
      <g>
        <path class="cls-3" d="M29.09,11.86c-.11-.3-.39-.53-.73-.55-3.05-.21-4.23-1.07-6.2-3.54-.29-.36-.81-.42-1.17-.13-.36.29-.41.82-.12,1.18,2.14,2.68,3.71,3.92,7.39,4.17.46.03.85-.32.88-.78,0-.12-.01-.24-.05-.34Z"/>
        <path class="cls-3" d="M4.69,11.86c.11-.3.39-.53.73-.55,3.05-.21,4.23-1.07,6.2-3.54.29-.36.81-.42,1.17-.13.36.29.41.82.12,1.18-2.14,2.68-3.71,3.92-7.39,4.17-.46.03-.85-.32-.88-.78,0-.12.01-.24.05-.34Z"/>
      </g>
      <g>
        <path class="cls-3" d="M25.68,17.12c.12-.41-.32-.76-.69-.55-.89.52-2.07.83-3.37.83s-2.48-.31-3.37-.83c-.37-.22-.81.14-.69.55.52,1.74,2.14,3.01,4.05,3.01s3.53-1.27,4.05-3.01Z"/>
        <path class="cls-3" d="M8.09,17.12c-.12-.41.32-.76.69-.55.89.52,2.07.83,3.37.83s2.48-.31,3.37-.83c.37-.22.81.14.69.55-.52,1.74-2.14,3.01-4.05,3.01s-3.53-1.27-4.05-3.01Z"/>
      </g>
      <path class="cls-3" d="M20.7,26.24h-7.62c-.47,0-.85-.38-.85-.85s.38-.85.85-.85h7.62c.47,0,.85.38.85.85s-.38.85-.85.85Z"/>
    </g>
  </g>
</svg>