<?xml version="1.0" encoding="UTF-8"?>
<svg id="Capa_2" data-name="Capa 2" xmlns="http://www.w3.org/2000/svg" viewBox="0 0 658.44 838.06">
  <defs>
    <style>
      .cls-1 {
        fill: #2b1845;
      }

      .cls-1, .cls-2, .cls-3, .cls-4, .cls-5, .cls-6, .cls-7, .cls-8, .cls-9 {
        stroke-width: 0px;
      }

      .cls-2 {
        fill: #4aa4a9;
      }

      .cls-10 {
        stroke-width: 2.42px;
      }

      .cls-10, .cls-11, .cls-12, .cls-13 {
        stroke: #373151;
      }

      .cls-10, .cls-12 {
        fill: #b390f1;
      }

      .cls-10, .cls-12, .cls-13 {
        stroke-linecap: round;
        stroke-linejoin: round;
      }

      .cls-3 {
        fill: #ff9e00;
      }

      .cls-14 {
        isolation: isolate;
      }

      .cls-4 {
        fill: #373151;
      }

      .cls-11 {
        fill: none;
        stroke-miterlimit: 10;
        stroke-width: 3.79px;
      }

      .cls-12 {
        stroke-width: 2.84px;
      }

      .cls-5 {
        fill: #fff;
      }

      .cls-6 {
        fill: #aaa3b5;
      }

      .cls-7 {
        fill: #7c8b8f;
      }

      .cls-8 {
        fill: #744339;
      }

      .cls-9 {
        fill: #6db546;
      }

      .cls-13 {
        fill: #296689;
        stroke-width: 3.44px;
      }
    </style>
  </defs>
  <g id="Capa_1-2" data-name="Capa 1">
    <g>
      <path class="cls-13" d="M39.31,11.77l-24.39,1.58c-3.7.24-7.14,2.02-9.4,4.95-1.96,2.54-3.8,5.95-3.8,9.78,0,8.16,86.21,795.23,86.21,795.23,0,0,1.66,13.52,11.86,13.01,10.2-.51,168.33-73.45,168.33-73.45L39.31,11.77Z"/>
      <g class="cls-14">
        <g>
          <path class="cls-2" d="M287.42,57.76h-.1s-1.51.11-1.51.11l6.98,74.69,1.5-.17c.11-.01.21-.06.3-.13s.17-.17.24-.29.12-.25.15-.4.05-.31.05-.48v-.15s-6.71-71.89-6.71-71.89c-.02-.18-.05-.34-.11-.49s-.12-.29-.2-.4-.17-.21-.27-.28-.21-.11-.32-.12"/>
          <path class="cls-4" d="M287.35,55.08s-.05,0-.07,0-.05,0-.07,0-.05,0-.07,0-.05,0-.07,0l-1.51.11.25,2.69,1.51-.11h.1c.11.01.22.05.32.12s.19.16.27.28.15.25.2.4.09.32.11.49l6.7,71.89v.15c.01.17,0,.33-.04.48s-.09.29-.15.4-.15.21-.24.29-.19.12-.3.13l-1.5.17.25,2.66,1.5-.17c.33-.04.63-.17.9-.38s.51-.5.71-.84.35-.75.45-1.2.15-.93.14-1.44c0-.04,0-.07,0-.11s0-.07,0-.11,0-.07,0-.11,0-.07,0-.11l-6.69-71.83c-.05-.52-.16-1.01-.31-1.46s-.36-.85-.6-1.2-.51-.62-.81-.83-.62-.33-.94-.36"/>
          <path class="cls-2" d="M295.3,142.23h-.09s-1.5.18-1.5.18l6.91,73.94,1.49-.23c.11-.02.21-.06.3-.14s.17-.17.24-.29.12-.26.15-.41.05-.31.05-.48v-.15s-6.65-71.17-6.65-71.17c-.02-.17-.05-.34-.11-.49s-.12-.28-.2-.39-.17-.2-.27-.27-.2-.1-.31-.11"/>
          <path class="cls-4" d="M295.24,139.56s-.05,0-.07,0-.05,0-.07,0-.05,0-.07,0-.05,0-.07,0l-1.5.17.25,2.67,1.5-.18h.09c.11,0,.21.04.31.1s.19.15.27.27.15.24.2.39.09.31.11.49l6.64,71.17v.15c.01.17,0,.33-.04.48s-.09.29-.15.41-.15.22-.24.29-.19.12-.3.14l-1.49.23.25,2.64,1.49-.24c.33-.05.63-.2.9-.42s.51-.52.7-.87.35-.76.45-1.21.15-.93.14-1.44c0-.03,0-.07,0-.11s0-.07,0-.11,0-.07,0-.11,0-.07,0-.11l-6.62-71.11c-.05-.52-.16-1-.31-1.44s-.36-.83-.59-1.16-.51-.6-.8-.79-.61-.3-.94-.32"/>
          <path class="cls-2" d="M306.33,260.44h-.09s-1.48.28-1.48.28l6.81,72.92,1.47-.32c.11-.02.21-.08.3-.16s.17-.18.23-.31.12-.26.15-.41.05-.31.05-.48v-.15s-6.55-70.18-6.55-70.18c-.02-.17-.05-.33-.1-.47s-.12-.27-.2-.38-.17-.19-.27-.25-.2-.09-.31-.09"/>
          <path class="cls-4" d="M306.27,257.81s-.05,0-.07,0-.05,0-.07,0-.05,0-.07,0-.05,0-.07.01l-1.48.26.24,2.62,1.48-.27h.09c.11,0,.21.02.31.08s.19.14.27.25.15.23.2.38.09.3.1.47l6.54,70.18v.15c.01.17,0,.33-.04.48s-.08.29-.15.41-.14.23-.23.31-.19.14-.3.16l-1.47.32.24,2.6,1.47-.33c.32-.07.62-.23.89-.47s.5-.54.69-.91.34-.78.44-1.23.15-.93.14-1.43c0-.03,0-.07,0-.1s0-.07,0-.11,0-.07,0-.11,0-.07-.01-.1l-6.53-70.12c-.05-.51-.15-.98-.31-1.41s-.35-.8-.59-1.12-.5-.56-.79-.73-.6-.26-.92-.26"/>
          <path class="cls-2" d="M213.37,38.91l56.94-3.44s.09,0,.13,0,.09,0,.13,0,.08,0,.13,0,.08,0,.13.01c.59.06,1.17.3,1.71.67s1.03.89,1.47,1.51.8,1.35,1.09,2.16.48,1.7.57,2.63l62.67,667.22c.09.93.05,1.86-.09,2.75-.14.89-.39,1.75-.72,2.53-.33.77-.75,1.46-1.24,2.02s-1.04.99-1.63,1.25l-215.4,92.45s-.1.04-.15.06-.1.04-.15.05-.1.03-.15.05-.1.03-.15.04c-.69.19-1.36.19-1.98.02s-1.2-.5-1.71-.97-.94-1.1-1.27-1.84c-.33-.74-.56-1.61-.67-2.57L31.99,58.1c-.12-1.13-.07-2.22.12-3.21.19-1,.53-1.91.98-2.68.45-.77,1.02-1.41,1.68-1.87s1.41-.73,2.22-.78l65.97-3.98c-.33-.17-.64-.41-.93-.69s-.55-.63-.78-1.02-.42-.81-.57-1.27-.26-.95-.31-1.46l-.03-.3c-.07-.69-.04-1.34.07-1.95s.31-1.15.58-1.62.6-.85.99-1.13.83-.44,1.31-.47l107.97-6.01s.06,0,.09,0,.06,0,.09,0,.06,0,.08,0,.06,0,.08,0c.4.04.78.19,1.14.44s.69.58.98.98.54.88.72,1.4.32,1.1.38,1.7l.03.28c.05.49.04.96,0,1.4s-.14.87-.27,1.25-.3.73-.5,1.03-.44.55-.7.75M115.14,33.24c-.48-.05-.94-.22-1.38-.5s-.84-.66-1.19-1.12-.65-1.01-.88-1.61-.39-1.27-.46-1.97c-.08-.75-.05-1.47.08-2.13.12-.66.34-1.26.63-1.77s.65-.93,1.07-1.22.9-.47,1.42-.5l85.03-4.22s.06,0,.09,0,.06,0,.09,0,.06,0,.09,0,.06,0,.09,0c.44.05.87.22,1.26.49s.77.64,1.09,1.09.59.97.81,1.55c.21.58.36,1.22.42,1.89.07.72.04,1.4-.07,2.03-.11.63-.31,1.2-.57,1.69s-.6.89-.98,1.17-.82.45-1.3.48l-84.93,4.66s-.07,0-.1,0-.07,0-.1,0-.07,0-.1,0-.07,0-.1,0M233.54,27.01c-.54-.06-1.06-.27-1.54-.6s-.93-.79-1.33-1.34-.73-1.2-.99-1.92-.44-1.51-.52-2.34c-.09-.89-.05-1.74.09-2.52s.38-1.49.71-2.09.73-1.1,1.21-1.45,1.01-.56,1.59-.59c.04,0,.08,0,.11,0s.08,0,.11,0,.08,0,.11,0,.08,0,.11.01c.53.06,1.05.27,1.54.61s.93.79,1.32,1.34.72,1.2.98,1.92.43,1.5.51,2.33c.08.88.05,1.73-.09,2.51s-.38,1.49-.7,2.09-.73,1.1-1.2,1.45-1,.56-1.58.6c-.04,0-.08,0-.11,0s-.08,0-.11,0-.08,0-.11,0-.08,0-.11-.01M271.31,3.81c-.07,0-.14-.02-.22-.02s-.14-.01-.22-.01-.14,0-.22,0-.15,0-.22,0L27.98,14.42c-.65.03-1.27.14-1.87.33s-1.17.46-1.7.79-1.04.74-1.5,1.2-.9.99-1.28,1.57c-.39.58-.73,1.22-1.03,1.9s-.55,1.4-.75,2.17-.35,1.56-.44,2.39c-.09.83-.12,1.69-.1,2.57,0,.13,0,.25.02.38s.01.25.02.38.02.25.03.38.02.26.04.38l86.08,789.99-1.41.61,1.41-.61c.09.82.23,1.6.43,2.33s.43,1.41.72,2.04.61,1.21.97,1.72.76.98,1.2,1.38c.43.4.89.74,1.38,1.02s1,.48,1.53.62,1.08.2,1.64.19,1.14-.1,1.72-.26c.08-.02.17-.05.25-.08s.17-.06.25-.08.17-.06.25-.09.17-.07.25-.1l222.66-97.23c.47-.21.93-.48,1.36-.8s.85-.71,1.23-1.14.75-.91,1.09-1.43.65-1.08.93-1.68c.28-.6.53-1.22.75-1.88s.4-1.33.54-2.02.25-1.4.32-2.12.09-1.45.08-2.18c0-.1,0-.21,0-.31s0-.21-.01-.31-.01-.21-.02-.31-.02-.21-.03-.31L279.49,15.76c-.07-.8-.19-1.57-.36-2.32s-.36-1.47-.6-2.16c-.24-.69-.52-1.34-.82-1.96s-.65-1.2-1.01-1.73c-.37-.53-.76-1.02-1.18-1.46s-.85-.82-1.31-1.14-.93-.59-1.41-.79-.98-.33-1.48-.4"/>
          <path class="cls-4" d="M271.22.05c-.09-.01-.19-.02-.28-.03s-.19-.01-.28-.02-.19,0-.28,0-.19,0-.28,0L27.52,10.18c-.84.04-1.66.18-2.44.43s-1.52.59-2.22,1.03-1.36.96-1.97,1.57-1.17,1.29-1.67,2.05c-.5.76-.95,1.58-1.34,2.47s-.72,1.83-.98,2.83-.45,2.04-.57,3.12c-.12,1.08-.16,2.21-.13,3.36,0,.16.01.33.02.49s.02.33.03.49.03.33.04.5.03.33.05.5l86.33,791.05,1.41-.61,1.41-.61L19.41,28.86c-.01-.13-.03-.26-.04-.38s-.02-.25-.03-.38-.02-.25-.02-.38-.01-.25-.02-.38c-.03-.88,0-1.74.1-2.57.09-.83.24-1.63.44-2.39s.45-1.49.75-2.17.64-1.31,1.03-1.9c.39-.58.82-1.11,1.28-1.57s.97-.87,1.5-1.2,1.1-.6,1.7-.79,1.22-.3,1.87-.33L270.44,3.77c.07,0,.15,0,.22,0s.14,0,.22,0,.14,0,.22.01.14.01.22.02c.5.06,1,.2,1.48.4s.96.46,1.41.79.89.71,1.31,1.14.81.92,1.18,1.46c.37.53.71,1.11,1.01,1.73s.58,1.27.82,1.96c.24.69.44,1.41.6,2.16s.28,1.52.36,2.32l65.49,700.05c0,.1.02.21.03.31s.01.21.02.31.01.21.01.31,0,.21,0,.31c.02.73,0,1.46-.08,2.18s-.17,1.43-.32,2.12-.33,1.37-.54,2.02-.47,1.28-.75,1.88c-.28.59-.59,1.16-.93,1.68s-.7,1-1.09,1.43-.8.81-1.23,1.14-.89.6-1.36.8l-222.66,97.23c-.08.04-.17.07-.25.1s-.17.06-.25.09-.17.06-.25.08-.17.05-.25.08c-.58.17-1.16.25-1.72.26s-1.11-.05-1.64-.19-1.04-.34-1.53-.62-.95-.61-1.38-1.02c-.43-.4-.83-.86-1.2-1.38s-.69-1.1-.97-1.72-.52-1.31-.72-2.04-.34-1.51-.43-2.33l-1.41.61-1.41.61c.12,1.07.3,2.08.56,3.03.25.95.57,1.84.94,2.66s.8,1.57,1.27,2.25,1,1.28,1.56,1.8c.56.52,1.17.97,1.8,1.32s1.3.62,2,.8,1.41.26,2.15.25,1.49-.13,2.25-.35c.11-.03.22-.06.33-.1s.22-.07.33-.11.22-.08.33-.13.22-.09.33-.14l222.57-97.61c.61-.27,1.2-.62,1.77-1.05s1.1-.93,1.61-1.49.98-1.19,1.42-1.87.84-1.41,1.21-2.18c.36-.77.69-1.59.97-2.44s.52-1.73.71-2.63.33-1.83.42-2.77.12-1.89.1-2.84c0-.13,0-.27-.01-.4s-.01-.27-.02-.41-.02-.27-.03-.41-.02-.27-.04-.4l-35.36-378.62-.24-2.6-6.81-72.92-.24-2.62-3.65-39.1-.25-2.64-6.91-73.94-.25-2.67-.42-4.52-.25-2.66-6.98-74.69-.25-2.69-3.69-39.54c-.1-1.03-.25-2.04-.46-3.02-.21-.98-.48-1.92-.79-2.81s-.67-1.76-1.07-2.56-.84-1.56-1.32-2.25c-.48-.7-.99-1.33-1.53-1.9-.54-.57-1.11-1.07-1.7-1.49-.59-.42-1.21-.77-1.84-1.03s-1.28-.44-1.94-.52"/>
          <path class="cls-1" d="M232.74,731.35s-.03,0-.05.01-.03,0-.05.01-.03.01-.05.02-.03.01-.05.02l-7.64,3.16c-.25.1-.49.28-.7.51s-.39.51-.53.82-.25.66-.31,1.02-.08.73-.04,1.1l1.13,11.22c.04.35.11.66.23.93s.26.5.43.67.37.3.58.37.44.07.67.01c.02,0,.03,0,.05-.01s.03-.01.05-.02.03-.01.05-.02.03-.01.05-.02l7.62-3.22c.25-.11.48-.28.69-.51s.38-.51.52-.82.25-.65.31-1.01.08-.73.04-1.1l-1.12-11.16c-.03-.34-.11-.66-.22-.92s-.26-.5-.43-.67-.37-.3-.58-.37-.44-.08-.67-.02M88.71,60.78c-.1.07-.19.15-.28.22s-.16.15-.23.23-.13.16-.18.24-.1.16-.14.25c-.04.08-.07.17-.1.26s-.05.18-.06.27-.02.19-.02.29,0,.2.01.3c.01.12.03.23.06.33s.06.2.1.29.09.18.14.25.11.15.18.21c.05.05.11.09.17.13s.12.07.18.1.13.05.2.07.14.03.21.03c.02,0,.04,0,.06,0s.04,0,.06,0,.04,0,.06,0,.04,0,.06,0c.1,0,.2-.02.29-.05s.18-.06.25-.1.15-.09.21-.14.12-.12.17-.19c.05-.07.09-.15.13-.23s.06-.17.08-.27.03-.2.03-.3,0-.22-.02-.34c0-.09-.02-.18-.05-.27s-.05-.17-.09-.26-.08-.16-.13-.24-.1-.16-.17-.23c-.06-.07-.13-.14-.2-.21s-.16-.14-.24-.2-.18-.13-.28-.19-.21-.12-.33-.18l-.15-.08M88.55,56.4s-.03,0-.05,0-.03,0-.05,0-.03,0-.05,0-.03,0-.05,0c-.08,0-.16.02-.23.04s-.14.05-.2.08-.12.07-.17.12-.1.1-.14.16c-.04.06-.08.12-.11.19s-.05.14-.07.22-.03.16-.03.25,0,.18.01.28c0,.06.02.12.03.18s.02.11.04.16.03.1.05.15.04.1.06.15c.02.05.05.09.08.13s.06.09.09.13.06.08.1.12.07.08.11.11c.04.04.08.07.13.11s.11.08.17.12.13.09.2.13.15.09.24.14c.09-.07.17-.14.25-.21s.14-.14.21-.21.12-.14.16-.21.09-.14.12-.21c.03-.07.06-.14.08-.22s.04-.15.05-.23.02-.16.02-.25,0-.17-.01-.26c-.01-.1-.03-.19-.05-.28s-.05-.17-.08-.24-.07-.15-.12-.21-.09-.12-.15-.18c-.04-.04-.09-.08-.14-.12s-.1-.06-.15-.09-.11-.04-.17-.06-.12-.03-.18-.03M242.04,48.68c-.08.07-.16.14-.24.21s-.14.14-.2.21-.11.15-.16.22-.09.15-.12.23c-.03.08-.06.16-.08.24s-.04.17-.05.25-.02.18-.02.27,0,.19.01.28c.01.11.03.21.05.31s.05.19.08.27.07.16.12.23.1.13.15.19c.05.05.09.09.14.12s.1.07.16.09.11.05.17.06.12.03.19.03c.02,0,.03,0,.05,0s.03,0,.05,0,.03,0,.05,0,.04,0,.05,0c.09,0,.17-.02.25-.04s.15-.05.22-.09.13-.08.18-.13.1-.11.15-.18c.04-.07.08-.14.11-.21s.05-.16.07-.25.03-.18.03-.28,0-.2-.01-.31c0-.09-.02-.17-.04-.25s-.04-.16-.08-.24-.07-.15-.11-.23-.09-.15-.14-.22c-.05-.07-.11-.13-.18-.2s-.13-.13-.21-.19-.16-.12-.24-.18-.18-.12-.28-.17l-.13-.07M254.99,47.39s0,0-.01,0,0,0-.01,0,0,0-.01,0,0,0-.01,0c-.04,0-.09.02-.12.04s-.07.05-.1.09-.05.09-.08.15-.04.13-.05.21c-.01.08-.02.16-.03.26s0,.21,0,.32,0,.25.01.38.02.29.03.44c.02.16.03.31.05.45s.04.27.06.38.04.23.07.32.05.18.08.26c.03.07.05.13.08.18s.06.1.09.14.07.07.1.09.07.03.11.04c0,0,0,0,.01,0s0,0,.01,0,0,0,.01,0,0,0,.01,0c.09,0,.16-.05.22-.13s.1-.2.13-.37.05-.36.05-.6-.01-.51-.05-.83c-.03-.3-.06-.56-.1-.78s-.09-.41-.15-.56-.12-.27-.19-.35-.15-.12-.23-.13M241.9,44.62s-.03,0-.04,0-.03,0-.04,0-.03,0-.04,0-.03,0-.04,0c-.07,0-.14.02-.2.03s-.12.04-.17.07-.1.07-.15.11-.09.09-.12.15c-.04.06-.07.12-.09.18s-.05.13-.06.21-.02.15-.03.23,0,.17,0,.26c0,.06.01.11.02.16s.02.1.03.15.03.1.04.14.03.09.05.14c.02.04.04.08.06.12s.05.08.07.12.05.08.08.11.06.07.09.1c.03.03.07.07.11.11s.09.07.14.11.11.08.17.12.13.09.21.13c.08-.06.15-.13.22-.19s.12-.12.18-.19.1-.13.14-.19.07-.13.1-.19c.03-.06.05-.13.07-.2s.03-.14.04-.22.02-.15.02-.23,0-.16-.01-.24c0-.09-.02-.18-.04-.26s-.04-.16-.07-.23-.06-.13-.1-.2-.08-.12-.13-.17c-.04-.04-.08-.08-.12-.11s-.09-.06-.13-.08-.09-.04-.14-.06-.1-.02-.15-.03M250.72,43.92s0,0-.01,0,0,0-.01,0,0,0-.01,0,0,0-.01,0c-.05,0-.09.02-.12.04s-.07.05-.1.09-.05.09-.08.15-.04.13-.05.21c-.01.08-.02.17-.03.27s0,.21,0,.33,0,.25.01.39.02.29.03.44c.02.16.03.31.05.45s.04.27.06.38.04.22.07.32.05.18.08.26c.03.07.05.13.08.18s.06.1.09.13.07.06.1.08.07.03.11.04c0,0,0,0,.01,0s0,0,.01,0,0,0,.01,0,0,0,.01,0c.09,0,.17-.05.23-.13s.11-.2.14-.36.05-.36.05-.59-.01-.51-.05-.83c-.03-.3-.06-.56-.11-.79s-.09-.42-.15-.57-.12-.27-.19-.35-.15-.13-.23-.13M145.21,786.73c-.13.04-.26.03-.38,0s-.23-.1-.33-.19-.18-.22-.24-.36-.11-.31-.13-.5c-.02-.2-.01-.41.02-.6s.09-.39.17-.56.18-.32.3-.45.25-.22.39-.28l14.26-6.01s.02,0,.03-.01.02,0,.03-.01.02,0,.03,0,.02,0,.03,0c.13-.03.26-.03.37,0s.23.1.32.19.18.22.24.36.11.31.12.5c.02.2.01.4-.02.59s-.09.38-.17.55-.18.32-.29.45-.25.22-.39.29l-14.25,6.03s-.02,0-.03.01-.02,0-.03,0-.02,0-.03,0-.02,0-.03,0M144.31,778.34c-.13.03-.26.03-.38,0s-.23-.1-.33-.2-.18-.22-.24-.36-.11-.31-.13-.5c-.02-.2-.01-.4.02-.6s.09-.38.17-.55.18-.32.3-.45.25-.22.39-.28l14.27-5.95s.02,0,.03-.01.02,0,.03-.01.02,0,.03,0,.02,0,.03,0c.13-.03.26-.03.37,0s.23.1.32.2.18.22.24.36.11.31.12.5c.02.2.01.4-.02.59s-.09.38-.17.55-.18.32-.29.44-.25.22-.39.28l-14.27,5.97s-.02,0-.03.01-.02,0-.03.01-.02,0-.03,0-.02,0-.03,0M143.42,769.94c-.13.03-.26.03-.38,0s-.23-.1-.33-.2-.18-.22-.24-.36-.11-.32-.13-.5c-.02-.2-.01-.4.02-.6s.09-.38.17-.55.18-.32.3-.45.25-.22.39-.29l14.28-5.9s.02,0,.03-.01.02,0,.03,0,.02,0,.03,0,.02,0,.03,0c.13-.03.26-.03.38,0s.23.1.32.2.18.22.24.36.11.31.13.5c.02.2.01.4-.02.6s-.09.38-.17.55-.18.32-.29.44-.25.22-.39.28l-14.28,5.92s-.02,0-.03.01-.02,0-.03.01-.02,0-.03,0-.02,0-.03,0M226.46,754.09c-.48.13-.94.11-1.38-.02s-.83-.39-1.18-.75-.65-.82-.88-1.37-.39-1.19-.46-1.89l-1.14-11.23c-.08-.76-.04-1.52.08-2.26s.34-1.44.63-2.08.66-1.21,1.08-1.67.9-.82,1.42-1.03l7.64-3.15s.07-.03.1-.04.07-.02.1-.04.07-.02.1-.03.07-.02.1-.03c.47-.12.93-.1,1.36.04s.83.4,1.17.76.64.83.87,1.38.39,1.18.46,1.89l1.12,11.15c.08.75.04,1.51-.08,2.24s-.34,1.43-.62,2.07-.65,1.2-1.06,1.67-.89.82-1.4,1.04l-7.62,3.23s-.07.03-.1.04-.07.03-.1.04-.07.02-.1.03-.07.02-.1.03M302.06,722.07c-.06.02-.12.02-.18.02s-.12-.01-.17-.04-.11-.05-.16-.09-.1-.09-.15-.15c-.09-.12-.16-.26-.2-.41s-.07-.33-.07-.51.02-.36.06-.53.11-.35.19-.5l5.48-9.84c.06-.1.11-.21.15-.31s.08-.21.1-.32.04-.21.05-.31,0-.2,0-.3c0-.09-.03-.19-.05-.27s-.06-.17-.11-.24-.1-.15-.15-.21-.13-.12-.2-.17l-6.87-4.69c-.11-.07-.2-.18-.27-.31s-.12-.28-.15-.45-.04-.34-.03-.53.05-.37.11-.55c.04-.12.09-.22.14-.32s.11-.18.18-.25.13-.13.21-.18.15-.08.22-.1c.04,0,.08-.02.12-.02s.08,0,.12,0,.08.02.12.04.08.04.11.06l6.87,4.7c.19.13.37.29.53.48s.3.4.42.63.22.49.29.76.13.56.16.87c.03.3.03.62.01.93s-.06.63-.13.94-.16.62-.27.92-.25.59-.4.87l-5.47,9.83c-.04.06-.07.12-.11.18s-.08.1-.13.15-.09.08-.13.11-.09.06-.14.08c0,0-.02,0-.02,0s-.02,0-.02,0-.02,0-.02,0-.02,0-.02,0M111.69,766.65l-.23-2.07,219.28-88.92.17,1.87-219.23,89.12M39.9,70.4l-.35-3.19,1.15-.08.35,3.2-1.15.08M42.49,70.22l-.65-6.07,1.15-.07.65,6.06-1.15.08M57.17,68.64c-.17-.01-.34-.07-.5-.17s-.3-.23-.43-.39-.24-.35-.32-.56-.14-.44-.17-.69c-.03-.26-.02-.52.03-.75s.12-.45.23-.63.24-.33.39-.44.33-.17.51-.18c.01,0,.03,0,.04,0s.03,0,.04,0,.03,0,.04,0,.03,0,.04,0c.17.01.34.07.5.17s.3.23.43.39.23.35.32.56.14.44.17.69c.03.26.02.52-.03.75s-.12.44-.23.62-.24.33-.39.44-.32.17-.51.19c-.01,0-.02,0-.04,0s-.02,0-.04,0-.02,0-.04,0-.02,0-.04,0M79.33,66.25s-.09-.01-.13-.02-.08-.03-.12-.05-.07-.04-.11-.07-.07-.06-.09-.1c-.04-.05-.07-.1-.1-.15s-.06-.11-.08-.18-.04-.13-.06-.21-.03-.15-.04-.24c0-.08-.01-.16-.01-.24s0-.14.01-.21.02-.13.04-.18.04-.11.06-.16c.03-.05.06-.09.09-.13s.07-.07.12-.09.09-.05.14-.06.11-.02.16-.03c.01,0,.02,0,.03,0s.02,0,.03,0,.02,0,.03,0,.02,0,.03,0c.04,0,.09.01.13.02s.08.03.12.05.07.04.1.07.06.06.09.1c.04.04.07.09.1.15s.05.11.08.18.04.13.06.2.03.15.04.23c0,.08.01.16.01.23s0,.14-.01.21-.02.13-.04.19-.04.11-.07.16c-.03.05-.06.09-.09.13s-.07.07-.11.1-.09.05-.14.06-.1.02-.16.03c0,0-.02,0-.03,0s-.02,0-.03,0-.02,0-.03,0-.02,0-.03,0M54.53,65.24s-.04,0-.06,0-.04-.01-.06-.02-.04-.02-.06-.03-.04-.02-.05-.04c-.06-.04-.11-.1-.15-.17s-.07-.14-.09-.22-.03-.16-.03-.24.02-.16.04-.23c.12-.33.27-.63.44-.9s.37-.5.59-.69.45-.34.7-.45.52-.18.79-.19c.03,0,.06,0,.09,0s.06,0,.09,0,.06,0,.09,0,.06,0,.09,0c.24.02.48.08.72.17s.47.22.69.37.43.35.63.57.38.47.55.74c.04.07.07.14.09.22s.03.16.03.24-.02.16-.04.23-.06.13-.11.19c-.02.02-.03.04-.05.05s-.04.03-.06.04-.04.02-.06.02-.04,0-.07.01c0,0,0,0-.01,0s0,0-.01,0,0,0-.01,0,0,0-.01,0c-.03,0-.07-.01-.1-.02s-.06-.03-.09-.05-.06-.05-.08-.08-.05-.06-.07-.1c-.12-.2-.26-.38-.4-.54s-.3-.3-.46-.41-.33-.21-.5-.27-.35-.11-.53-.12c-.02,0-.04,0-.06,0s-.04,0-.06,0-.04,0-.06,0-.04,0-.06,0c-.2.01-.39.06-.58.14s-.35.19-.51.33-.3.31-.43.5-.23.41-.32.65c-.02.04-.04.09-.06.12s-.05.07-.08.09-.06.05-.1.06-.07.02-.11.03c0,0,0,0,0,0s0,0,0,0,0,0,0,0,0,0,0,0M45.07,70.03l-1.04-9.7,1.15-.07,1.04,9.7-1.15.08M52.99,63.24s-.04,0-.06,0-.04,0-.06-.02-.04-.02-.05-.03-.04-.02-.05-.04c-.03-.02-.05-.05-.08-.07s-.05-.06-.07-.09-.04-.07-.05-.11-.03-.08-.04-.12c-.01-.04-.02-.08-.02-.12s0-.08,0-.12,0-.08.01-.12.02-.08.03-.11c.18-.49.39-.94.65-1.33s.55-.74.87-1.02.67-.51,1.04-.67.76-.26,1.17-.29c.04,0,.09,0,.13,0s.09,0,.13,0,.09,0,.13,0,.09,0,.13,0c.36.03.72.12,1.07.25s.69.32,1.02.56.64.51.93.84.56.69.81,1.1c.04.07.07.14.09.22s.03.16.03.24-.02.16-.04.23-.06.13-.11.18c-.02.02-.03.04-.05.05s-.04.03-.06.04-.04.02-.06.02-.04,0-.07,0c0,0,0,0-.01,0s0,0-.01,0,0,0-.01,0,0,0-.01,0c-.03,0-.06-.01-.1-.02s-.06-.03-.09-.05-.06-.05-.08-.08-.05-.06-.07-.1c-.2-.33-.42-.63-.66-.9s-.49-.49-.76-.68-.55-.34-.83-.45-.58-.18-.87-.2c-.04,0-.07,0-.11,0s-.07,0-.11,0-.07,0-.11,0-.07,0-.11,0c-.33.02-.65.1-.95.23s-.59.32-.85.55-.5.51-.71.83-.39.69-.53,1.09c-.02.04-.04.09-.06.12s-.05.07-.08.09-.06.05-.09.06-.07.02-.11.03c0,0,0,0-.01,0s0,0-.01,0,0,0-.01,0,0,0-.01,0M47.65,69.86l-1.47-13.71,1.15-.07,1.47,13.7-1.14.09M78.7,60.34s-.09-.01-.13-.02-.08-.03-.12-.05-.07-.05-.11-.08-.07-.06-.09-.1c-.04-.04-.07-.09-.1-.15s-.06-.11-.08-.18-.04-.13-.06-.21-.03-.15-.04-.24c-.02-.18-.02-.33,0-.46s.05-.24.1-.34.12-.16.21-.21.19-.08.31-.09c.01,0,.02,0,.03,0s.02,0,.03,0,.02,0,.03,0,.02,0,.03,0c.05,0,.09.01.13.02s.08.03.12.05.07.04.11.07.06.06.09.1c.04.04.07.09.1.15s.05.11.08.18.04.13.06.2.03.15.04.23c0,.08.01.16.01.24s0,.14-.01.21-.02.13-.04.18-.04.11-.07.16c-.03.05-.06.1-.09.14s-.07.07-.11.1-.09.05-.14.06-.1.03-.16.03c0,0-.02,0-.03,0s-.02,0-.03,0-.02,0-.03,0-.02,0-.03,0M51.85,61.05s-.04,0-.05,0-.04,0-.05-.02-.04-.02-.05-.03-.04-.02-.05-.04c-.03-.02-.05-.05-.08-.07s-.05-.06-.07-.09-.04-.07-.05-.11-.03-.08-.04-.12c-.01-.04-.02-.08-.02-.12s0-.08,0-.12,0-.08.01-.12.02-.08.03-.11c.22-.6.48-1.15.8-1.63s.67-.9,1.06-1.25.82-.62,1.27-.82.93-.32,1.43-.35c.05,0,.11,0,.16,0s.11,0,.16,0,.11,0,.16,0,.11,0,.16.01c.44.04.88.14,1.31.31s.84.39,1.24.68.78.63,1.14,1.02.69.84.99,1.34c.02.04.04.07.05.11s.03.08.04.12.02.08.02.12,0,.08,0,.12c0,.04,0,.08-.01.12s-.02.08-.03.11-.03.07-.05.1-.04.06-.06.08c-.02.02-.03.04-.05.05s-.04.03-.06.04-.04.02-.06.03-.04.01-.07.01c0,0,0,0,0,0s0,0,0,0,0,0,0,0,0,0,0,0c-.03,0-.07-.01-.1-.02s-.06-.03-.1-.05-.06-.05-.09-.08-.05-.06-.08-.1c-.26-.42-.54-.8-.84-1.14s-.63-.63-.97-.87-.69-.44-1.06-.58-.73-.23-1.11-.26c-.05,0-.09,0-.14,0s-.09,0-.14,0-.09,0-.14,0-.09,0-.14,0c-.42.03-.83.13-1.21.29s-.75.4-1.08.7-.64.65-.9,1.06-.49.87-.68,1.38c-.02.04-.03.09-.06.12s-.05.07-.08.09-.06.05-.1.06-.07.02-.11.03c0,0,0,0-.01,0s0,0-.01,0,0,0-.01,0,0,0-.01,0M66.82,58.93l-.75-1.04c.09-.13.18-.24.27-.35s.18-.21.27-.3.18-.17.27-.25.18-.14.27-.19c.09-.06.18-.11.27-.15s.19-.08.29-.11.2-.06.3-.08.21-.03.31-.04c.03,0,.06,0,.1,0s.06,0,.09,0,.06,0,.09,0,.06,0,.09,0c.13.01.25.03.37.06s.23.07.34.13.21.12.32.19.2.16.29.25c.11.12.22.25.31.39s.17.29.24.45.12.34.17.52.08.38.1.59c.01.12.02.23.03.34s0,.22,0,.33-.01.22-.02.32-.03.21-.05.32c-.02.11-.04.21-.06.32s-.06.22-.09.33-.07.22-.11.33-.09.22-.13.34c-.05.11-.11.23-.17.37s-.14.28-.23.43-.18.32-.28.5-.21.36-.33.56l-1.07,1.79v.07s3.43-.23,3.43-.23l.15,1.44-4.88.34-.13-1.24,1.58-2.77c.12-.21.22-.4.32-.57s.18-.34.26-.48.14-.28.2-.39.1-.22.14-.3.07-.17.1-.25.06-.17.08-.25.05-.16.06-.24.03-.15.05-.23c.01-.07.02-.15.03-.22s.01-.15.01-.23,0-.16,0-.24,0-.16-.02-.25c-.01-.12-.03-.22-.05-.33s-.05-.2-.09-.29-.07-.17-.12-.25-.09-.15-.15-.21c-.05-.05-.09-.1-.15-.14s-.1-.07-.16-.1-.11-.05-.17-.07-.12-.03-.19-.03c-.01,0-.03,0-.05,0s-.03,0-.05,0-.03,0-.05,0-.03,0-.05,0c-.07,0-.14.01-.21.03s-.13.03-.2.05-.13.05-.19.08-.12.07-.18.11c-.06.04-.12.09-.19.14s-.13.12-.2.19-.14.15-.21.23-.14.17-.22.27M72.94,59.69l-.69-1,1.86-2.49.96-.06,1.07,10.13-1.15.08-.7-6.55c-.02-.2-.04-.38-.06-.56s-.03-.34-.04-.5-.02-.3-.03-.43-.02-.26-.02-.37c-.02.03-.03.06-.05.09s-.04.06-.06.09-.04.07-.06.1-.04.07-.07.1c-.02.04-.06.09-.11.16s-.12.17-.2.28-.18.24-.28.4-.23.32-.37.51M81.41,59.12l-.69-.99,1.85-2.47.95-.06,1.06,10.1-1.14.08-.69-6.52c-.02-.2-.04-.38-.06-.56s-.03-.34-.04-.5-.02-.3-.03-.43-.02-.26-.02-.37c-.02.03-.03.06-.05.09s-.04.06-.06.09-.04.06-.06.1-.04.07-.07.1c-.02.04-.06.09-.11.16s-.12.17-.2.28-.17.24-.28.39-.23.32-.37.51M88.84,65.5c-.14-.01-.27-.03-.39-.06s-.24-.07-.36-.12-.22-.11-.32-.17-.2-.14-.29-.23c-.12-.11-.23-.23-.32-.37s-.18-.29-.25-.45-.13-.34-.18-.53-.08-.39-.1-.6c-.01-.14-.02-.28-.02-.41s0-.27.02-.39.04-.25.06-.38.06-.24.11-.36c.04-.12.1-.23.16-.34s.13-.22.21-.32.17-.21.27-.31.2-.2.32-.29c-.12-.08-.23-.17-.33-.26s-.2-.18-.29-.27-.17-.19-.24-.28-.14-.19-.19-.29c-.06-.1-.11-.2-.15-.31s-.09-.22-.12-.33-.07-.23-.09-.35-.04-.24-.06-.37c-.02-.18-.02-.36-.02-.52s.03-.32.07-.47.08-.29.15-.42.14-.26.23-.37c.09-.12.19-.22.3-.31s.22-.17.35-.23.26-.11.41-.15.3-.06.46-.07c.04,0,.07,0,.11,0s.07,0,.1,0,.07,0,.1,0,.07,0,.1,0c.12.01.24.03.35.06s.22.07.33.11.2.1.3.16.19.14.27.22c.11.1.21.21.29.34s.16.26.23.4.12.3.16.46.07.34.09.52c.03.26.03.51,0,.74s-.09.46-.17.67-.2.41-.35.6-.32.37-.52.54c.15.09.29.18.42.27s.25.19.36.29.21.2.3.3.17.2.24.31c.07.11.13.22.19.33s.1.23.15.35.08.24.11.37.05.26.07.39c.02.21.03.41.02.59s-.03.37-.07.54-.09.33-.15.48-.14.29-.24.42c-.09.13-.2.25-.32.35s-.24.19-.38.26-.29.13-.45.17-.33.07-.51.09c-.04,0-.09,0-.13,0s-.08,0-.13,0-.08,0-.12,0-.08,0-.12,0M255.24,52.18c-.09,0-.17-.03-.25-.06s-.16-.08-.23-.13-.14-.13-.21-.21-.13-.17-.19-.28c-.07-.12-.13-.26-.19-.41s-.11-.32-.16-.49-.09-.37-.12-.58-.06-.43-.09-.66c-.05-.49-.06-.91-.04-1.28s.07-.68.16-.93.21-.44.36-.57.34-.2.56-.22c.01,0,.03,0,.04,0s.03,0,.04,0,.03,0,.04,0,.03,0,.04,0c.09,0,.17.03.25.06s.16.08.23.14.15.13.21.21.13.17.19.28c.07.12.13.26.19.4s.11.31.16.49.09.37.12.57.06.43.08.66c.02.24.04.47.04.68s0,.41,0,.6-.03.35-.06.51-.06.3-.11.42c-.05.12-.1.23-.16.33s-.13.18-.21.24-.16.12-.25.16-.19.06-.3.07c-.01,0-.03,0-.04,0s-.03,0-.04,0-.03,0-.04,0-.03,0-.04,0M242.14,53.05c-.12-.01-.23-.03-.34-.06s-.21-.06-.31-.11-.19-.1-.28-.16-.17-.13-.25-.21c-.1-.1-.19-.22-.27-.35s-.15-.27-.21-.42-.11-.31-.15-.49-.07-.36-.09-.56c-.01-.13-.02-.26-.02-.38s0-.25.02-.37.03-.23.06-.35.06-.22.09-.33c.04-.11.08-.21.14-.31s.11-.2.18-.3.15-.19.23-.29.18-.18.28-.27c-.1-.08-.2-.16-.28-.24s-.17-.17-.24-.25-.14-.17-.21-.26-.12-.18-.17-.27-.09-.19-.13-.29-.07-.2-.1-.31-.06-.21-.08-.33-.04-.23-.05-.34c-.02-.17-.02-.33-.02-.49s.03-.3.06-.44.07-.27.13-.39.12-.24.2-.34c.08-.11.16-.2.25-.28s.19-.15.3-.21.22-.1.35-.14.26-.05.39-.06c.03,0,.06,0,.09,0s.06,0,.09,0,.06,0,.09,0,.06,0,.09,0c.1.01.21.03.3.06s.19.06.28.1.18.09.26.15.16.13.23.2c.09.1.18.2.25.32s.14.24.19.37.1.28.14.43.06.31.08.48c.02.24.02.47,0,.69s-.08.43-.15.62-.18.38-.3.56-.27.34-.45.49c.13.08.25.17.36.26s.21.18.31.27.18.18.26.28.15.19.21.29c.06.1.11.2.16.31s.09.21.13.32.07.23.09.34.04.24.05.36c.02.19.02.38.02.55s-.02.34-.06.5-.08.31-.13.45-.13.27-.21.39c-.08.12-.17.23-.27.32s-.21.17-.33.24-.25.12-.39.16-.29.06-.44.08c-.04,0-.07,0-.11,0s-.07,0-.11,0-.07,0-.11,0-.07,0-.1,0M245.6,48.31l-.47-.37-.21-4.57,3.15-.2.13,1.34-2.29.14.08,2.32s.05-.02.08-.03.05-.02.08-.03.06-.02.09-.03.06-.02.1-.03c.03-.01.07-.02.11-.03s.08-.02.12-.03.09-.01.13-.02.09,0,.14-.01c.03,0,.06,0,.08,0s.06,0,.08,0,.05,0,.08,0,.05,0,.08,0c.12.01.23.03.34.07s.21.08.31.13.19.12.28.19.18.16.26.26c.1.12.19.25.27.39s.15.3.21.46.11.34.15.53.07.39.09.61c.02.25.03.49.03.71s-.02.43-.05.63-.08.38-.14.55-.13.33-.22.48c-.09.15-.19.27-.3.39s-.24.21-.37.29-.29.14-.45.19-.33.08-.52.09c-.05,0-.1,0-.14,0s-.09,0-.14,0-.09,0-.14,0-.09,0-.13,0c-.11-.01-.21-.03-.31-.05s-.19-.05-.28-.08-.18-.07-.26-.12-.16-.09-.24-.15l-.13-1.36c.06.05.12.09.19.13s.13.08.2.11.14.06.21.09.15.05.22.08c.04.01.09.02.13.03s.08.02.13.03.08.01.12.02.08.01.12.01c.03,0,.06,0,.08,0s.05,0,.08,0,.05,0,.08,0,.05,0,.08,0c.11,0,.21-.02.31-.05s.18-.06.26-.1.15-.1.22-.16.12-.13.17-.21c.05-.08.09-.17.12-.26s.06-.2.08-.31.03-.23.03-.36,0-.27-.02-.41c-.02-.24-.07-.46-.13-.65s-.15-.35-.25-.48-.22-.23-.37-.31-.3-.12-.48-.14c-.02,0-.05,0-.08,0s-.05,0-.08,0-.05,0-.08,0-.05,0-.08,0c-.03,0-.07,0-.1.01s-.07.01-.11.02-.08.02-.12.03-.09.02-.14.04c-.05.01-.09.03-.13.04s-.09.03-.13.04-.08.03-.12.04-.07.03-.11.04M250.95,48.72c-.09,0-.17-.03-.25-.06s-.16-.08-.23-.14-.14-.13-.21-.21-.13-.18-.19-.28c-.07-.12-.13-.26-.19-.41s-.11-.32-.16-.5-.09-.37-.12-.58-.06-.43-.08-.66c-.05-.49-.06-.91-.04-1.28s.07-.68.16-.93.21-.44.36-.57.34-.2.56-.22c.02,0,.03,0,.04,0s.03,0,.04,0,.03,0,.04,0,.03,0,.04,0c.09,0,.17.03.25.06s.16.08.23.14.14.13.21.21.13.18.19.28c.07.12.13.26.19.41s.11.31.16.49.09.37.12.57.06.42.08.66c.02.25.04.48.04.69s0,.42,0,.6-.03.36-.06.51-.07.3-.11.42c-.04.13-.1.24-.16.33s-.13.18-.21.24-.16.12-.26.15-.2.06-.31.06c-.01,0-.03,0-.04,0s-.03,0-.04,0-.03,0-.04,0-.03,0-.04,0M251.37,52.33l2.45-9.52.8-.06-2.45,9.52-.8.05M266.32,41.02l2.49-.16.13,1.43,1.28-.08.62,6.52-1.27.08.13,1.43-2.48.17h0s-7.39.5-7.39.5l-.9-9.42,7.4-.47h0M270.82,35.49s-.08,0-.13-.01-.08,0-.13,0-.08,0-.13,0-.09,0-.13,0l-56.94,3.44c-.09.06-.18.12-.27.17s-.19.1-.29.13-.2.07-.3.09-.21.04-.32.04l-4.01.25c-.43.03-.83.18-1.18.44s-.65.63-.89,1.07-.42.97-.52,1.54c-.1.57-.13,1.2-.06,1.86.06.65.04,1.28-.07,1.85s-.28,1.1-.52,1.54-.54.81-.9,1.08-.75.42-1.18.45l-86.2,5.64s-.06,0-.09,0-.06,0-.09,0-.06,0-.09,0-.06,0-.09,0c-.43-.04-.86-.19-1.25-.44s-.76-.6-1.08-1.02-.59-.92-.8-1.46-.36-1.15-.42-1.79c-.07-.64-.21-1.24-.42-1.79s-.48-1.05-.8-1.47-.69-.77-1.08-1.02-.82-.41-1.26-.45c-.03,0-.06,0-.09,0s-.06,0-.09,0-.06,0-.09,0-.06,0-.09,0l-4.44.27s-.06,0-.09,0-.06,0-.09,0-.06,0-.09,0-.06,0-.09,0c-.09,0-.17-.02-.26-.04s-.17-.04-.26-.06-.17-.06-.25-.09-.17-.07-.25-.11l-65.97,3.98c-.81.05-1.56.33-2.22.78s-1.23,1.09-1.68,1.87c-.45.77-.79,1.68-.98,2.68-.19,1-.24,2.08-.12,3.21l81.03,747.42c.1.96.34,1.83.67,2.57.33.74.76,1.36,1.27,1.84s1.08.81,1.71.97,1.29.17,1.98-.02c.05-.01.1-.03.15-.04s.1-.03.15-.05.1-.04.15-.05.1-.04.15-.06l215.4-92.45c.6-.26,1.15-.69,1.63-1.25s.9-1.25,1.24-2.02c.33-.77.58-1.63.72-2.53.14-.89.18-1.83.09-2.75L275.65,42.46c-.09-.94-.28-1.82-.57-2.63s-.65-1.54-1.09-2.16-.93-1.13-1.47-1.51-1.11-.61-1.71-.67"/>
          <path class="cls-4" d="M199.83,18.21s-.06,0-.09,0-.06,0-.09,0-.06,0-.09,0-.06,0-.09,0l-85.03,4.22c-.52.03-.99.2-1.42.5s-.78.71-1.07,1.22-.5,1.11-.63,1.77c-.12.66-.15,1.38-.08,2.13.07.7.23,1.36.46,1.97s.53,1.15.88,1.61.75.85,1.19,1.12.9.45,1.38.5c.03,0,.07,0,.1,0s.07,0,.1,0,.07,0,.1,0,.07,0,.1,0l84.93-4.66c.48-.03.91-.19,1.3-.48s.72-.68.98-1.17.46-1.06.57-1.69c.11-.63.14-1.32.07-2.03-.07-.67-.21-1.31-.42-1.89-.21-.58-.48-1.1-.81-1.55s-.69-.82-1.09-1.09-.83-.44-1.26-.49"/>
          <path class="cls-4" d="M233.22,14.17s-.08,0-.11-.01-.08,0-.11,0-.08,0-.11,0-.08,0-.11,0c-.58.03-1.12.24-1.59.59s-.88.85-1.21,1.45-.57,1.31-.71,2.09-.17,1.63-.09,2.52c.08.83.26,1.62.52,2.34s.59,1.37.99,1.92.84,1.01,1.33,1.34,1.01.54,1.54.6c.04,0,.08,0,.11.01s.08,0,.11,0,.08,0,.11,0,.08,0,.11,0c.58-.03,1.11-.24,1.58-.6s.87-.85,1.2-1.45.56-1.31.7-2.09.17-1.63.09-2.51c-.08-.83-.26-1.62-.51-2.33s-.59-1.37-.98-1.92-.84-1.01-1.32-1.34-1-.55-1.54-.61"/>
          <path class="cls-2" d="M211.59,29.67s-.06,0-.08,0-.06,0-.08,0-.06,0-.09,0-.06,0-.09,0l-107.97,6.01c-.48.03-.92.19-1.31.47s-.72.66-.99,1.13-.47,1.02-.58,1.62-.14,1.26-.07,1.95l.03.3c.05.51.16,1,.31,1.46s.34.89.57,1.27.49.73.78,1.02.6.52.93.69c.08.04.16.08.25.11s.17.06.25.09.17.05.26.06.17.03.26.04c.03,0,.06,0,.09,0s.06,0,.09,0,.06,0,.09,0,.06,0,.09,0l4.44-.27s.06,0,.09,0,.06,0,.09,0,.06,0,.09,0,.06,0,.09,0c.44.04.86.2,1.26.45s.76.6,1.08,1.02.59.92.8,1.47.36,1.15.42,1.79c.07.64.21,1.24.42,1.79s.48,1.04.8,1.46.68.77,1.08,1.02.82.4,1.25.44c.03,0,.06,0,.09,0s.06,0,.09,0,.06,0,.09,0,.06,0,.09,0l86.2-5.64c.43-.03.83-.18,1.18-.45s.65-.63.9-1.08.42-.97.52-1.54.13-1.2.07-1.85c-.06-.65-.04-1.28.06-1.86.1-.57.28-1.1.52-1.54s.54-.81.89-1.07.75-.42,1.18-.44l4.01-.25c.11,0,.21-.02.32-.04s.2-.05.3-.09.19-.08.29-.13.18-.11.27-.17c.26-.19.5-.45.7-.75s.37-.65.5-1.03.22-.81.27-1.25.05-.92,0-1.4l-.03-.28c-.06-.61-.19-1.18-.38-1.7s-.44-1-.72-1.4-.62-.74-.98-.98-.74-.4-1.14-.44"/>
          <path class="cls-5" d="M226.39,751.22c-.23.06-.46.05-.67-.01s-.41-.19-.58-.37-.32-.4-.43-.67-.19-.58-.23-.93l-1.13-11.22c-.04-.37-.02-.74.04-1.1s.17-.71.31-1.02.32-.59.53-.82.44-.4.7-.51l7.64-3.16s.03-.01.05-.02.03-.01.05-.02.03-.01.05-.01.03,0,.05-.01c.23-.06.46-.05.67.02s.41.19.58.37.32.4.43.67.19.58.22.92l1.12,11.16c.04.37.02.74-.04,1.1s-.16.7-.31,1.01-.32.59-.52.82-.44.4-.69.51l-7.62,3.22s-.03.01-.05.02-.03.01-.05.02-.03.01-.05.02-.03,0-.05.01M232.67,728.49s-.07.02-.1.03-.07.02-.1.03-.07.02-.1.04-.07.03-.1.04l-7.64,3.15c-.52.21-1,.57-1.42,1.03s-.79,1.03-1.08,1.67-.51,1.35-.63,2.08-.16,1.5-.08,2.26l1.14,11.23c.07.71.23,1.34.46,1.89s.53,1.01.88,1.37.75.61,1.18.75.9.15,1.38.02c.03,0,.07-.02.1-.03s.07-.02.1-.03.07-.02.1-.04.07-.03.1-.04l7.62-3.23c.51-.22.99-.58,1.4-1.04s.78-1.03,1.06-1.67.5-1.34.62-2.07.15-1.49.08-2.24l-1.12-11.15c-.07-.7-.23-1.34-.46-1.89s-.52-1.01-.87-1.38-.74-.62-1.17-.76-.89-.16-1.36-.04"/>
          <path class="cls-5" d="M300.19,700.5c-.08.02-.15.05-.22.1s-.14.11-.21.18-.13.16-.18.25-.1.2-.14.32c-.06.18-.1.36-.11.55s0,.36.03.53.08.32.15.45.16.24.27.31l6.87,4.69c.07.05.14.11.2.17s.11.13.15.21.08.16.11.24.04.18.05.27c0,.1,0,.2,0,.3s-.03.21-.05.31-.06.21-.1.32-.09.21-.15.31l-5.48,9.84c-.09.15-.15.33-.19.5s-.06.36-.06.53.03.35.07.51.11.3.2.41c.05.06.09.11.15.15s.11.07.16.09.11.03.17.04.12,0,.18-.02c0,0,.02,0,.02,0s.02,0,.02,0,.02,0,.02,0,.02,0,.02,0c.05-.02.09-.04.14-.08s.09-.07.13-.11.09-.09.13-.15.08-.11.11-.18l5.47-9.83c.15-.28.29-.57.4-.87s.2-.61.27-.92.11-.63.13-.94.02-.63-.01-.93c-.03-.3-.08-.59-.16-.87s-.17-.53-.29-.76-.26-.45-.42-.63-.34-.35-.53-.48l-6.87-4.7s-.08-.05-.11-.06-.08-.03-.12-.04-.08-.01-.12,0-.08,0-.12.02"/>
          <path class="cls-5" d="M157.62,761.05s-.02,0-.03,0-.02,0-.03,0-.02,0-.03,0-.02,0-.03.01l-14.28,5.9c-.14.06-.28.16-.39.29s-.22.28-.3.45-.14.36-.17.55-.04.4-.02.6c.02.19.06.36.13.5s.15.27.24.36.21.16.33.2.25.04.38,0c0,0,.02,0,.03,0s.02,0,.03,0,.02,0,.03-.01.02,0,.03-.01l14.28-5.92c.14-.06.27-.15.39-.28s.21-.28.29-.44.14-.36.17-.55.04-.4.02-.6c-.02-.19-.06-.35-.13-.5s-.14-.27-.24-.36-.21-.16-.32-.2-.25-.04-.38,0"/>
          <path class="cls-5" d="M158.51,769.4s-.02,0-.03,0-.02,0-.03,0-.02,0-.03.01-.02,0-.03.01l-14.27,5.95c-.14.06-.28.16-.39.28s-.22.28-.3.45-.14.36-.17.55-.04.4-.02.6c.02.19.06.36.13.5s.15.27.24.36.21.16.33.2.25.04.38,0c0,0,.02,0,.03,0s.02,0,.03,0,.02,0,.03-.01.02,0,.03-.01l14.27-5.97c.14-.06.27-.16.39-.28s.21-.28.29-.44.14-.36.17-.55.04-.39.02-.59c-.02-.19-.06-.35-.12-.5s-.14-.27-.24-.36-.2-.16-.32-.2-.24-.04-.37,0"/>
          <path class="cls-5" d="M159.39,777.74s-.02,0-.03,0-.02,0-.03,0-.02,0-.03.01-.02,0-.03.01l-14.26,6.01c-.14.06-.28.16-.39.28s-.22.28-.3.45-.14.36-.17.56-.04.4-.02.6c.02.19.06.35.13.5s.15.27.24.36.21.16.33.19.25.04.38,0c0,0,.02,0,.03,0s.02,0,.03,0,.02,0,.03,0,.02,0,.03-.01l14.25-6.03c.14-.06.27-.16.39-.29s.21-.28.29-.45.14-.36.17-.55.04-.4.02-.59c-.02-.19-.06-.35-.12-.5s-.14-.27-.24-.36-.2-.16-.32-.19-.24-.04-.37,0"/>
          <polyline class="cls-7" points="330.74 675.67 111.46 764.58 111.69 766.65 330.92 677.54 330.74 675.67"/>
          <polyline class="cls-5" points="47.32 56.08 46.17 56.15 47.65 69.86 48.79 69.78 47.32 56.08"/>
          <polyline class="cls-5" points="45.17 60.26 44.03 60.33 45.07 70.03 46.21 69.96 45.17 60.26"/>
          <polyline class="cls-5" points="42.98 64.07 41.83 64.15 42.49 70.22 43.63 70.14 42.98 64.07"/>
          <polyline class="cls-5" points="40.7 67.12 39.55 67.21 39.9 70.4 41.05 70.32 40.7 67.12"/>
          <path class="cls-5" d="M56.61,56.07c-.05,0-.11,0-.16-.01s-.11,0-.16,0-.11,0-.16,0-.11,0-.16,0c-.5.03-.98.15-1.43.35s-.88.47-1.27.82-.75.76-1.06,1.25-.58,1.03-.8,1.63c-.01.04-.02.07-.03.11s-.01.08-.01.12,0,.08,0,.12.01.08.02.12c.01.04.02.08.04.12s.03.07.05.11.04.06.07.09.05.05.08.07c.02.01.03.03.05.04s.04.02.05.03.04.01.05.02.04,0,.05,0c0,0,0,0,.01,0s0,0,.01,0,0,0,.01,0,0,0,.01,0c.04,0,.07-.01.11-.03s.07-.04.1-.06.06-.06.08-.09.04-.08.06-.12c.18-.51.41-.97.68-1.38s.57-.76.9-1.06.7-.53,1.08-.7.79-.27,1.21-.29c.05,0,.09,0,.14,0s.09,0,.14,0,.09,0,.14,0,.09,0,.14,0c.37.03.75.12,1.11.26s.72.33,1.06.58.66.53.97.87.59.72.84,1.14c.02.04.05.07.08.1s.06.06.09.08.06.04.1.05.07.02.1.02c0,0,0,0,0,0s0,0,0,0,0,0,0,0,0,0,0,0c.02,0,.04,0,.07-.01s.04-.02.06-.03.04-.02.06-.04.04-.03.05-.05c.02-.02.04-.05.06-.08s.03-.06.05-.1.02-.07.03-.11.01-.08.01-.12c0-.04,0-.08,0-.12s-.01-.08-.02-.12-.02-.08-.04-.12-.03-.07-.05-.11c-.3-.5-.63-.95-.99-1.34s-.74-.74-1.14-1.02-.82-.51-1.24-.68-.87-.27-1.31-.31"/>
          <path class="cls-5" d="M56.81,58.98s-.09,0-.13,0-.09,0-.13,0-.09,0-.13,0-.09,0-.13,0c-.41.03-.8.12-1.17.29s-.72.39-1.04.67-.61.63-.87,1.02-.47.84-.65,1.33c-.01.04-.02.07-.03.11s-.01.08-.01.12,0,.08,0,.12.01.08.02.12c0,.04.02.08.04.12s.03.07.05.11.04.06.07.09.05.05.08.07c.02.01.03.03.05.04s.04.02.05.03.04.01.06.02.04,0,.06,0c0,0,0,0,.01,0s0,0,.01,0,0,0,.01,0,0,0,.01,0c.04,0,.07-.01.11-.03s.07-.04.09-.06.06-.06.08-.09.04-.08.06-.12c.14-.4.32-.77.53-1.09s.45-.6.71-.83.55-.42.85-.55.62-.21.95-.23c.04,0,.07,0,.11,0s.07,0,.11,0,.07,0,.11,0,.07,0,.11,0c.29.02.59.09.87.2s.56.26.83.45.52.42.76.68.46.56.66.9c.02.04.05.07.07.1s.06.06.08.08.06.04.09.05.06.02.1.02c0,0,0,0,.01,0s0,0,.01,0,0,0,.01,0,0,0,.01,0c.02,0,.04,0,.07,0s.04-.01.06-.02.04-.02.06-.04.04-.03.05-.05c.05-.05.08-.11.11-.18s.04-.15.04-.23,0-.16-.03-.24-.05-.15-.09-.22c-.25-.41-.52-.77-.81-1.1s-.6-.61-.93-.84-.67-.42-1.02-.56-.71-.22-1.07-.25"/>
          <path class="cls-5" d="M56.98,62.05s-.06,0-.09,0-.06,0-.09,0-.06,0-.09,0-.06,0-.09,0c-.28.02-.54.08-.79.19s-.49.26-.7.45-.41.42-.59.69-.32.57-.44.9c-.03.07-.04.15-.04.23s0,.16.03.24.05.15.09.22.09.12.15.17c.02.01.04.03.05.04s.04.02.06.03.04.01.06.02.04,0,.06,0c0,0,0,0,0,0s0,0,0,0,0,0,0,0,0,0,0,0c.04,0,.07-.01.11-.03s.07-.04.1-.06.06-.06.08-.09.04-.08.06-.12c.09-.24.19-.46.32-.65s.27-.36.43-.5.33-.25.51-.33.38-.13.58-.14c.02,0,.04,0,.06,0s.04,0,.06,0,.04,0,.06,0,.04,0,.06,0c.18.01.35.06.53.12s.34.16.5.27.32.25.46.41.28.34.4.54c.02.04.05.07.07.1s.05.05.08.08.06.04.09.05.06.02.1.02c0,0,0,0,.01,0s0,0,.01,0,0,0,.01,0,0,0,.01,0c.02,0,.04,0,.07-.01s.04-.01.06-.02.04-.02.06-.04.04-.03.05-.05c.05-.05.08-.12.11-.19s.04-.15.04-.23,0-.16-.03-.24-.05-.15-.09-.22c-.17-.28-.35-.52-.55-.74s-.41-.41-.63-.57-.45-.28-.69-.37-.48-.15-.72-.17"/>
          <path class="cls-5" d="M57.06,64.83s-.03,0-.04,0-.03,0-.04,0-.03,0-.04,0-.03,0-.04,0c-.19.01-.36.08-.51.18s-.28.26-.39.44-.18.39-.23.63-.06.49-.03.75c.03.25.08.48.17.69s.19.4.32.56.27.29.43.39.33.15.5.17c.01,0,.02,0,.04,0s.02,0,.04,0,.02,0,.04,0,.02,0,.04,0c.19-.01.36-.08.51-.19s.28-.26.39-.44.18-.39.23-.62.06-.49.03-.75c-.03-.24-.09-.48-.17-.69s-.19-.4-.32-.56-.27-.29-.43-.39-.32-.16-.5-.17"/>
          <polyline class="cls-6" points="268.81 40.86 266.32 41.02 267.21 50.4 269.69 50.23 269.56 48.81 270.83 48.72 270.22 42.21 268.94 42.29 268.81 40.86"/>
          <polyline class="cls-5" points="266.32 41.02 258.92 41.48 259.82 50.91 267.21 50.4 267.21 50.4 266.32 41.02 266.32 41.02"/>
          <path class="cls-5" d="M68.7,56.43s-.06,0-.09,0-.06,0-.09,0-.06,0-.09,0-.06,0-.1,0c-.11,0-.21.02-.31.04s-.2.04-.3.08-.19.07-.29.11-.19.09-.27.15c-.09.05-.18.12-.27.19s-.18.16-.27.25-.18.19-.27.3-.18.23-.27.35l.75,1.04c.07-.1.15-.19.22-.27s.14-.16.21-.23.13-.13.2-.19.13-.1.19-.14c.06-.04.12-.08.18-.11s.13-.06.19-.08.13-.04.2-.05.14-.02.21-.03c.02,0,.03,0,.05,0s.03,0,.05,0,.03,0,.05,0,.03,0,.05,0c.07,0,.13.02.19.03s.12.04.17.07.11.06.16.1.1.08.15.14c.06.06.11.13.15.21s.08.16.12.25.06.19.09.29.04.21.05.33c0,.08.01.17.02.25s0,.16,0,.24,0,.16-.01.23-.02.15-.03.22c-.01.07-.03.15-.05.23s-.04.16-.06.24-.05.16-.08.25-.06.17-.1.25-.08.19-.14.3-.12.25-.2.39-.16.31-.26.48-.2.37-.32.57l-1.58,2.77.13,1.24,4.88-.34-.15-1.44-3.42.23v-.07s1.06-1.79,1.06-1.79c.12-.2.23-.38.33-.56s.2-.34.28-.5.16-.3.23-.43.12-.26.17-.37c.05-.11.09-.23.13-.34s.08-.22.11-.33.06-.22.09-.33.05-.21.06-.32c.02-.1.03-.21.05-.32s.02-.22.02-.32,0-.22,0-.33-.01-.23-.03-.34c-.02-.21-.06-.41-.1-.59s-.1-.36-.17-.52-.15-.31-.24-.45-.19-.27-.31-.39c-.09-.09-.19-.18-.29-.25s-.21-.14-.32-.19-.22-.09-.34-.13-.24-.05-.37-.06"/>
          <path class="cls-5" d="M75.07,56.14l-.96.06-1.86,2.49.69,1c.14-.19.26-.36.37-.51s.2-.28.28-.4.15-.21.2-.28.09-.13.11-.16c.02-.04.05-.07.07-.1s.04-.07.06-.1.04-.06.06-.09.03-.06.05-.09c0,.11.01.24.02.37s.02.28.03.43.03.32.04.5.03.36.06.56l.7,6.55,1.15-.08-1.07-10.13"/>
          <path class="cls-5" d="M79.35,64.14s-.02,0-.03,0-.02,0-.03,0-.02,0-.03,0-.02,0-.03,0c-.06,0-.11.01-.16.03s-.1.03-.14.06-.08.06-.12.09-.06.08-.09.13c-.03.05-.05.1-.06.16s-.03.12-.04.18-.01.14-.01.21,0,.15.01.24c0,.08.02.16.04.24s.03.14.06.21.05.12.08.18.06.11.1.15c.03.04.06.07.09.1s.07.05.11.07.08.04.12.05.09.02.13.02c0,0,.02,0,.03,0s.02,0,.03,0,.02,0,.03,0,.02,0,.03,0c.06,0,.11-.01.16-.03s.1-.04.14-.06.08-.06.11-.1.06-.08.09-.13c.03-.05.05-.11.07-.16s.03-.12.04-.19.01-.14.01-.21,0-.15-.01-.23c0-.08-.02-.16-.04-.23s-.03-.14-.06-.2-.05-.12-.08-.18-.06-.1-.1-.15c-.03-.04-.06-.07-.09-.1s-.07-.05-.1-.07-.08-.04-.12-.05-.08-.02-.13-.02M78.72,58.23s-.02,0-.03,0-.02,0-.03,0-.02,0-.03,0-.02,0-.03,0c-.12,0-.22.04-.31.09s-.15.12-.21.21-.09.2-.1.34-.02.29,0,.46c0,.08.02.16.04.24s.03.14.06.21.05.12.08.18.06.1.1.15c.03.04.06.07.09.1s.07.06.11.08.08.04.12.05.09.02.13.02c0,0,.02,0,.03,0s.02,0,.03,0,.02,0,.03,0,.02,0,.03,0c.06,0,.11-.02.16-.03s.1-.04.14-.06.08-.06.11-.1.06-.08.09-.14c.03-.05.05-.1.07-.16s.03-.12.04-.18.01-.14.01-.21,0-.15-.01-.24c0-.08-.02-.16-.04-.23s-.03-.14-.06-.2-.05-.12-.08-.18-.06-.1-.1-.15c-.03-.04-.06-.07-.09-.1s-.07-.05-.11-.07-.08-.04-.12-.05-.09-.02-.13-.02"/>
          <path class="cls-5" d="M83.53,55.59l-.95.06-1.85,2.47.69.99c.14-.19.26-.36.37-.51s.2-.28.28-.39.15-.21.2-.28.09-.13.11-.16c.02-.04.05-.07.07-.1s.04-.07.06-.1.04-.06.06-.09.03-.06.05-.09c0,.11.01.24.02.37s.02.28.03.43.03.32.04.5.04.36.06.56l.69,6.52,1.14-.08-1.06-10.1"/>
          <path class="cls-5" d="M88.95,64.26c-.07,0-.15-.02-.21-.03s-.13-.04-.2-.07-.12-.06-.18-.1-.11-.08-.17-.13c-.07-.06-.13-.13-.18-.21s-.1-.16-.14-.25-.07-.19-.1-.29-.05-.22-.06-.33c-.01-.1-.01-.2-.01-.3s0-.19.02-.29.03-.18.06-.27.06-.17.1-.26c.04-.08.08-.17.14-.25s.12-.16.18-.24.15-.16.23-.23.18-.15.28-.22l.15.08c.12.06.22.12.33.18s.2.13.28.19.17.13.24.2.14.14.2.21c.06.08.12.15.17.23s.09.16.13.24.06.17.09.26.04.18.05.27c.01.12.02.23.02.34s-.01.21-.03.3-.05.18-.08.27-.08.16-.13.23c-.05.07-.1.14-.17.19s-.13.1-.21.14-.16.07-.25.1-.19.04-.29.05c-.02,0-.04,0-.06,0s-.04,0-.06,0-.04,0-.06,0-.04,0-.06,0M88.7,59.38c-.09-.05-.17-.1-.24-.14s-.14-.09-.2-.13-.12-.08-.17-.12-.09-.08-.13-.11c-.04-.04-.07-.07-.11-.11s-.07-.08-.1-.12-.06-.08-.09-.13-.05-.09-.08-.13c-.02-.05-.04-.1-.06-.15s-.03-.1-.05-.15-.03-.11-.04-.16-.02-.11-.03-.18c-.01-.1-.01-.19-.01-.28s.01-.17.03-.25.04-.15.07-.22.07-.13.11-.19c.04-.06.09-.11.14-.16s.11-.09.17-.12.13-.06.2-.08.15-.03.23-.04c.02,0,.03,0,.05,0s.03,0,.05,0,.03,0,.05,0,.03,0,.05,0c.06,0,.12.02.18.03s.11.03.17.06.1.05.15.09.1.07.14.12c.06.05.11.11.15.18s.08.13.12.21.06.16.08.24.04.18.05.28c0,.09.01.18.01.26s0,.17-.02.25-.03.16-.05.23-.05.15-.08.22c-.03.07-.07.14-.12.21s-.1.14-.16.21-.13.14-.21.21-.16.14-.25.21M88.65,55.16s-.07,0-.1,0-.07,0-.1,0-.07,0-.1,0-.07,0-.11,0c-.16.01-.32.03-.46.07s-.28.09-.41.15-.24.14-.35.23-.21.19-.3.31c-.09.12-.16.24-.23.37s-.11.27-.15.42-.06.31-.07.47,0,.34.02.52c.01.13.03.25.06.37s.05.24.09.35.08.22.12.33.1.21.15.31c.06.1.12.2.19.29s.15.19.24.28.18.18.29.27.21.17.33.26c-.12.09-.22.19-.32.29s-.19.2-.27.31-.15.21-.21.32-.12.22-.16.34c-.04.12-.08.23-.11.36s-.05.25-.06.38-.02.26-.02.39,0,.27.02.41c.02.21.06.41.1.6s.1.36.18.53.15.31.25.45.2.26.32.37c.09.09.19.16.29.23s.21.12.32.17.23.09.36.12.26.05.39.06c.04,0,.08,0,.12,0s.08,0,.12,0,.08,0,.13,0,.09,0,.13,0c.18-.01.35-.04.51-.09s.31-.1.45-.17.27-.16.38-.26.22-.22.32-.35c.09-.13.17-.27.24-.42s.12-.31.15-.48.06-.35.07-.54,0-.39-.02-.59c-.02-.13-.04-.27-.07-.39s-.06-.25-.11-.37-.09-.24-.15-.35-.12-.22-.19-.33c-.07-.1-.15-.21-.24-.31s-.19-.2-.3-.3-.23-.19-.36-.29-.27-.18-.42-.27c.2-.17.38-.35.52-.54s.26-.39.35-.6.15-.44.17-.67.03-.48,0-.74c-.02-.18-.05-.36-.09-.52s-.09-.32-.16-.46-.14-.28-.23-.4-.18-.24-.29-.34c-.09-.08-.18-.15-.27-.22s-.19-.12-.3-.16-.21-.08-.33-.11-.23-.05-.35-.06"/>
          <path class="cls-5" d="M242.24,51.91c-.06,0-.13-.02-.19-.03s-.12-.04-.17-.06-.11-.06-.16-.09-.1-.08-.14-.12c-.06-.06-.11-.12-.15-.19s-.08-.15-.12-.23-.06-.18-.08-.27-.04-.2-.05-.31c0-.1-.01-.19-.01-.28s0-.18.02-.27.03-.17.05-.25.05-.16.08-.24c.03-.08.07-.15.12-.23s.1-.15.16-.22.13-.14.2-.21.15-.14.24-.21l.13.07c.1.06.19.11.28.17s.17.12.24.18.15.12.21.19.12.13.18.2c.05.07.1.14.14.22s.08.15.11.23.06.16.08.24.03.17.04.25c.01.11.01.21.01.31s-.01.19-.03.28-.04.17-.07.25-.07.15-.11.21c-.04.07-.09.13-.15.18s-.12.1-.18.13-.14.07-.22.09-.16.04-.25.04c-.02,0-.04,0-.05,0s-.03,0-.05,0-.03,0-.05,0-.03,0-.05,0M242.02,47.38c-.07-.05-.14-.09-.21-.13s-.12-.08-.17-.12-.1-.08-.14-.11-.08-.07-.11-.11c-.03-.03-.06-.07-.09-.1s-.06-.07-.08-.11-.05-.08-.07-.12-.04-.08-.06-.12c-.02-.04-.04-.09-.05-.14s-.03-.09-.04-.14-.02-.1-.03-.15-.02-.11-.02-.16c0-.09-.01-.18,0-.26s.01-.16.03-.23.03-.14.06-.21.06-.12.09-.18c.04-.06.08-.1.12-.15s.09-.08.15-.11.11-.05.17-.07.13-.03.2-.03c.01,0,.03,0,.04,0s.03,0,.04,0,.03,0,.04,0,.03,0,.04,0c.05,0,.1.01.15.03s.1.03.14.06.09.05.13.08.08.07.12.11c.05.05.09.11.13.17s.07.13.1.2.05.14.07.23.03.17.04.26c0,.08.01.16.01.24s0,.16-.02.23-.03.15-.04.22-.04.14-.07.2c-.03.07-.06.13-.1.19s-.09.13-.14.19-.11.13-.18.19-.14.12-.22.19M241.99,43.47s-.06,0-.09,0-.06,0-.09,0-.06,0-.09,0-.06,0-.09,0c-.14,0-.27.03-.39.06s-.24.08-.35.14-.21.13-.3.21-.18.18-.25.28c-.08.11-.14.22-.2.34s-.1.25-.13.39-.05.28-.06.44,0,.32.02.49c.01.12.03.23.05.34s.05.22.08.33.06.21.1.31.08.2.13.29.1.18.17.27.13.18.21.26.16.17.24.25.18.16.28.24c-.1.09-.19.18-.28.27s-.16.19-.23.29-.13.2-.18.3-.1.21-.14.31c-.04.11-.07.22-.09.33s-.04.23-.06.35-.02.24-.02.37,0,.25.02.38c.02.2.05.38.09.56s.09.34.15.49.13.29.21.42.17.24.27.35c.08.08.16.15.25.21s.18.12.28.16.2.08.31.11.22.05.34.06c.03,0,.07,0,.1,0s.07,0,.11,0,.07,0,.11,0,.07,0,.11,0c.16-.01.31-.04.44-.08s.27-.09.39-.16.23-.15.33-.24.19-.2.27-.32c.08-.12.15-.25.21-.39s.1-.29.13-.45.05-.32.06-.5,0-.36-.02-.55c-.01-.12-.03-.25-.05-.36s-.05-.23-.09-.34-.08-.22-.13-.32-.1-.21-.16-.31c-.06-.1-.13-.19-.21-.29s-.16-.19-.26-.28-.2-.18-.31-.27-.23-.17-.36-.26c.17-.15.32-.32.45-.49s.22-.36.3-.56.13-.4.15-.62.03-.45,0-.69c-.02-.17-.04-.33-.08-.48s-.08-.29-.14-.43-.12-.26-.19-.37-.16-.22-.25-.32c-.07-.08-.15-.14-.23-.2s-.17-.11-.26-.15-.18-.08-.28-.1-.2-.05-.3-.06"/>
          <path class="cls-5" d="M248.07,43.17l-3.15.2.21,4.57.47.37s.07-.03.11-.04.08-.03.12-.04.08-.03.13-.04.09-.03.13-.04c.05-.01.09-.03.14-.04s.09-.02.12-.03.08-.01.11-.02.07,0,.1-.01c.03,0,.06,0,.08,0s.05,0,.08,0,.05,0,.08,0,.05,0,.08,0c.18.02.34.06.48.14s.26.18.37.31.18.29.25.48.11.4.13.65c.01.15.02.28.02.41s-.01.25-.03.36-.04.22-.08.31-.08.18-.12.26c-.05.08-.11.15-.17.21s-.14.11-.22.16-.17.08-.26.1-.2.04-.31.05c-.03,0-.05,0-.08,0s-.05,0-.08,0-.05,0-.08,0-.06,0-.08,0c-.04,0-.08,0-.12-.01s-.08-.01-.12-.02-.08-.02-.13-.03-.09-.02-.13-.03c-.08-.02-.15-.05-.22-.08s-.14-.06-.21-.09-.13-.07-.2-.11-.13-.08-.19-.13l.13,1.36c.07.06.15.11.24.15s.17.08.26.12.19.06.28.08.2.04.31.05c.04,0,.09,0,.13,0s.09,0,.14,0,.09,0,.14,0,.1,0,.14,0c.19-.01.36-.05.52-.09s.31-.11.45-.19.26-.18.37-.29.21-.24.3-.39c.09-.15.16-.31.22-.48s.11-.36.14-.55.05-.41.05-.63,0-.46-.03-.71c-.02-.21-.05-.42-.09-.61s-.09-.37-.15-.53-.13-.32-.21-.46-.17-.27-.27-.39c-.08-.1-.17-.18-.26-.26s-.19-.14-.28-.19-.2-.1-.31-.13-.22-.05-.34-.07c-.03,0-.05,0-.08,0s-.05,0-.08,0-.05,0-.08,0-.06,0-.08,0c-.05,0-.1,0-.14.01s-.09.01-.13.02-.08.02-.12.03-.07.02-.11.03c-.03,0-.07.02-.1.03s-.06.02-.09.03-.06.02-.08.03-.05.02-.08.03l-.08-2.32,2.29-.14-.13-1.34"/>
          <path class="cls-5" d="M255.25,51.14s-.08-.02-.11-.04-.07-.05-.1-.09-.06-.08-.09-.14-.06-.11-.08-.18c-.03-.08-.05-.16-.08-.26s-.05-.2-.07-.32-.04-.25-.06-.38-.04-.29-.05-.45c-.01-.16-.02-.3-.03-.44s-.01-.27-.01-.38,0-.23,0-.32.01-.18.03-.26c.01-.08.03-.15.05-.21s.05-.11.08-.15.06-.07.1-.09.08-.03.12-.04c0,0,0,0,.01,0s0,0,.01,0,0,0,.01,0,0,0,.01,0c.08,0,.16.05.23.13s.13.2.19.35.1.34.15.56.08.48.1.78c.03.32.05.59.05.83s-.02.44-.05.6-.07.28-.13.37-.13.13-.22.13c0,0,0,0-.01,0s0,0-.01,0,0,0-.01,0,0,0-.01,0M255,46.35s-.03,0-.04,0-.03,0-.04,0-.03,0-.04,0-.03,0-.04,0c-.22.01-.4.09-.56.22s-.27.32-.36.57-.14.56-.16.93,0,.79.04,1.28c.02.24.05.46.09.66s.07.4.12.58.1.34.16.49.12.29.19.41c.06.1.12.2.19.28s.14.15.21.21.15.1.23.13.16.05.25.06c.01,0,.03,0,.04,0s.03,0,.04,0,.03,0,.04,0,.03,0,.04,0c.11,0,.21-.03.3-.07s.18-.09.25-.16.15-.15.21-.24.11-.21.16-.33c.05-.13.08-.27.11-.42s.05-.33.06-.51.01-.38,0-.6-.02-.44-.04-.68c-.02-.23-.05-.46-.08-.66s-.07-.4-.12-.57-.1-.34-.16-.49-.12-.28-.19-.4c-.06-.11-.13-.2-.19-.28s-.14-.15-.21-.21-.15-.1-.23-.14-.17-.05-.25-.06M250.98,47.68s-.08-.02-.11-.04-.07-.05-.1-.08-.06-.08-.09-.13-.06-.11-.08-.18c-.03-.08-.05-.16-.08-.26s-.05-.2-.07-.32-.04-.24-.06-.38-.04-.29-.05-.45c-.02-.16-.03-.3-.03-.44s-.01-.27-.01-.39,0-.23,0-.33.01-.19.03-.27c.01-.08.03-.15.05-.21s.05-.11.08-.15.06-.07.1-.09.08-.03.12-.04c0,0,0,0,.01,0s0,0,.01,0,0,0,.01,0,0,0,.01,0c.08,0,.16.05.23.13s.13.2.19.35.11.34.15.57.08.49.11.79c.03.31.05.59.05.83s-.02.43-.05.59-.08.28-.14.36-.14.13-.23.13c0,0,0,0-.01,0s0,0-.01,0,0,0-.01,0,0,0-.01,0M250.74,42.88s-.03,0-.04,0-.03,0-.04,0-.03,0-.04,0-.03,0-.04,0c-.22.01-.41.09-.56.22s-.27.32-.36.57-.14.56-.16.93,0,.79.04,1.28c.02.24.05.46.08.66s.07.4.12.58.1.34.16.5.12.29.19.41c.06.11.12.2.19.28s.14.15.21.21.15.1.23.14.16.05.25.06c.01,0,.03,0,.04,0s.03,0,.04,0,.03,0,.04,0,.03,0,.04,0c.11,0,.21-.03.31-.06s.18-.09.26-.15.15-.15.21-.24.11-.21.16-.33c.05-.13.08-.27.11-.42s.05-.33.06-.51.01-.39,0-.6-.02-.44-.04-.69c-.02-.23-.05-.45-.08-.66s-.07-.4-.12-.57-.1-.34-.16-.49-.12-.28-.19-.41c-.06-.11-.12-.2-.19-.28s-.14-.15-.21-.21-.15-.1-.23-.14-.17-.05-.25-.06M254.62,42.75l-.8.06-2.45,9.52.8-.05,2.45-9.52"/>
        </g>
      </g>
      <g>
        <g>
          <path class="cls-8" d="M655.9,431.28c-1.28,3.36-4.66,5.4-7.95,6.83-7.39,3.22-15.43,4.7-23.44,5.63-54.51,6.36-110.05-8.42-161.87-24.23-1.36-.41-2.67.94-2.1,2.25.68,1.6,2.59,3.14,4.32,3.94,27.57,12.81,55.9,25.82,86.22,28.16,15.89,1.22,32.41-.46,47.34,5.13,6.86,2.57,14,8.01,12.74,15.73-.48,2.94-2.17,5.53-4.44,7.45-4.63,3.94-10.61,4.94-16.41,5.81-21.48,3.22-43.12,5.39-64.82,6.5-1.39.07-2.73.55-3.83,1.42-14.98,11.79-35.73,15.87-55.28,14.19-4.21-.36-8.38-.97-12.52-1.77-15.75-3.04-30.95-8.92-45.8-15.14-37.19-15.58-73.35-33.58-108.2-53.85-10.28-5.98-20.47-12.17-31.32-17.05-20.2-9.09-42.16-13.42-63.9-17.64-44.74-8.68-89.94-17.94-134.76-26.26-5.45-49.17-10.81-97.65-16.26-146.87,53.12,15.61,106.58,31.25,159.7,46.85,28.98,8.51,58.72,17.11,88.85,14.97,21.44-1.52,42.09-8.44,62.46-15.3,19.01-5,39.79-5.95,60.72-4.41,8.77.65,17.58,1.73,26.27,3.13,29.46,4.73,58.21,13.03,87.32,19.62,7.64,1.73,15.38,3.35,23.22,3.44,5.75.06,12.04-.55,16.72,2.79,6.54,4.68,6.21,15.14,1.47,21.63-4.42,6.05-11.41,9.5-18.3,12.56-.45.2-.37.86.12.94,25.9,4.45,50.2,12.46,72.92,23.71,6.81,3.38,14.42,8.43,13.78,16.4-.25,3.07-1.79,5.88-4.03,8-4.52,4.27-10.65,5.47-16.61,5.96-15.45,1.25-30.9-1.75-46.14-4.62-30.44-5.72-60.97-10.9-91.59-15.54-1.08-.16-2.28-.27-3.32-.03-.95.23-1.24,1.46-.46,2.06,15.68,12.12,34.82,19.21,54.3,22.98,20.01,3.86,39.42,9.44,59.79,9.74,9.87.15,20.19.81,30.98,2.36,9.77,1.41,18.06,3.91,22.68,12.63,1.61,3.04,2.64,6.68,1.42,9.89Z"/>
          <path class="cls-11" d="M78.01,239.77c45.11,13.24,90.4,26.5,135.44,39.73,28.98,8.51,58.72,17.11,88.85,14.97,21.44-1.52,42.09-8.44,62.46-15.3,19.01-5,39.79-5.95,60.72-4.41,8.77.65,17.58,1.73,26.27,3.13,29.46,4.73,58.21,13.03,87.32,19.62,7.64,1.73,15.38,3.35,23.22,3.44,5.75.06,12.04-.55,16.72,2.79,6.54,4.68,6.21,15.14,1.47,21.63-4.42,6.05-11.41,9.5-18.3,12.56-.45.2-.37.86.12.94,25.9,4.45,50.2,12.46,72.92,23.71,6.81,3.38,14.42,8.43,13.78,16.4-.25,3.07-1.79,5.88-4.03,8-4.52,4.27-10.65,5.47-16.61,5.96-15.45,1.25-30.9-1.75-46.14-4.62-30.44-5.72-60.97-10.9-91.59-15.54-1.08-.16-2.28-.27-3.32-.03-.95.23-1.24,1.46-.46,2.06,15.68,12.12,34.82,19.21,54.3,22.98,20.01,3.86,39.42,9.44,59.79,9.74,9.87.15,20.19.81,30.98,2.36,9.77,1.41,18.06,3.91,22.68,12.63,1.61,3.04,2.64,6.68,1.42,9.89-1.28,3.36-4.66,5.4-7.95,6.83-7.39,3.22-15.43,4.7-23.44,5.63-54.51,6.36-110.05-8.42-161.87-24.23-1.36-.41-2.67.94-2.1,2.25.68,1.6,2.59,3.14,4.32,3.94,27.57,12.81,55.9,25.82,86.22,28.16,15.89,1.22,32.41-.46,47.34,5.13,6.86,2.57,14,8.01,12.74,15.73-.48,2.94-2.17,5.53-4.44,7.45-4.63,3.94-10.61,4.94-16.41,5.81-21.48,3.22-43.12,5.39-64.82,6.5-1.39.07-2.73.55-3.83,1.42-14.98,11.79-35.73,15.87-55.28,14.19-4.21-.36-8.38-.97-12.52-1.77-15.75-3.04-30.95-8.92-45.8-15.14-37.19-15.58-73.35-33.58-108.2-53.85-10.28-5.98-20.47-12.17-31.32-17.05-20.2-9.09-42.16-13.42-63.9-17.64-33.77-6.55-67.8-13.43-101.73-19.99"/>
          <path class="cls-4" d="M553.51,339.42c-.21,0-.42-.04-.63-.11-39.45-12.84-80.25-26.11-122.32-28.93-1.22-.08-2.14-1.14-2.06-2.36.08-1.22,1.14-2.15,2.36-2.06,42.62,2.85,83.68,16.22,123.39,29.14,1.16.38,1.8,1.63,1.42,2.79-.31.95-1.2,1.55-2.16,1.53Z"/>
          <path class="cls-4" d="M509.06,494.97c-20.02-.48-38.94-8.06-57.27-15.41-8.23-3.3-16.73-6.71-25.19-9.4-1.16-.37-1.81-1.62-1.44-2.78.37-1.16,1.62-1.81,2.78-1.43,8.61,2.75,17.19,6.19,25.49,9.51,18.55,7.43,37.72,15.11,57.65,15.11,1.23-.02,2.21.99,2.21,2.21,0,1.22-.99,2.21-2.21,2.21-.68,0-1.35,0-2.02-.02Z"/>
          <path class="cls-4" d="M470.54,373.61c-1.02-.02-1.91-.75-2.12-1.79-.23-1.2.55-2.36,1.75-2.59,3.27-.64,6.6-.7,9.89-.21,1.21.18,2.04,1.31,1.86,2.52-.18,1.21-1.31,2.04-2.52,1.86-2.79-.42-5.61-.36-8.39.17-.16.03-.32.04-.48.04Z"/>
          <path class="cls-9" d="M278.98,294.23l-10.05-1.11h-.06c-.48-2.75-1.84-5.35-3.89-7.26-3.04-2.85-7.53-4.08-11.6-3.19-2.52.55-4.83,1.86-6.86,3.46-.84.67-1.65,1.39-2.4,2.16-3.47,3.49-6.06,7.85-8.37,12.23-14.43,27.36-20.88,58.88-18.35,89.71.53,6.42,1.44,12.84,3.38,18.99.03.13.08.27.12.41,1.38,4.26,3.33,8.46,6.56,11.57,3.23,3.1,7.94,4.93,12.28,3.8,4.25-1.09,7.15-4.56,9.23-8.56,3.03.95,6.02,1.98,8.99,3.09-2.35,6.91-6.09,12.98-12.22,15.95-8.46,4.1-19.13.67-25.71-6.04-5.98-6.09-9.19-14.32-11.25-22.65-.21-.84-.41-1.69-.6-2.53-8.17-36.8.02-76.1,18.1-109.18,1.84-3.37,3.8-6.71,6.07-9.81,1.79-2.47,3.78-4.79,6.03-6.86,5.09-4.65,11.77-7.91,18.67-7.65,6.68.26,13.07,3.92,17.01,9.31,3,4.09,4.63,9.1,4.88,14.17Z"/>
          <path class="cls-3" d="M200.1,324.01c-4.81,4.58-7.2,11.35-7.24,17.99-.07,11.57,9.43,22.44,20.91,23.92,11.48,1.48,23.42-6.61,26.3-17.82,1.35-5.27.86-10.94-1.11-16.01-3.58-9.23-10.99-14.15-21.42-14.39-6.03-.14-12.81,1.9-17.44,6.31Z"/>
          <g>
            <path class="cls-11" d="M220.67,312.73c2.54-6.17,5.42-12.19,8.61-18.02,1.84-3.37,3.8-6.71,6.07-9.81,1.79-2.47,3.78-4.79,6.03-6.86,5.09-4.65,11.77-7.91,18.67-7.65,6.68.26,13.07,3.92,17.01,9.31,1.94,2.65,3.31,5.68,4.1,8.87"/>
            <path class="cls-11" d="M257.63,426.53c-2.2,3.7-5.09,6.74-8.9,8.58-8.46,4.1-19.13.67-25.71-6.04-5.98-6.09-9.19-14.32-11.25-22.65-.21-.84-.41-1.69-.6-2.53-2.59-11.65-3.53-23.55-3.05-35.43"/>
            <path class="cls-11" d="M219.93,371.15c-.21,6.24-.07,12.49.44,18.72.53,6.42,1.44,12.84,3.38,18.99.03.13.08.27.12.41,1.38,4.26,3.33,8.46,6.56,11.57,3.23,3.1,7.94,4.93,12.28,3.8,3.07-.79,5.44-2.82,7.3-5.39"/>
            <path class="cls-11" d="M271.27,290.63c-.69-1.94-1.82-3.72-3.33-5.13-3.04-2.85-7.53-4.08-11.6-3.19-2.52.55-4.83,1.86-6.86,3.46-.84.67-1.65,1.39-2.4,2.16-3.47,3.49-6.06,7.85-8.37,12.23-2.78,5.27-5.26,10.68-7.44,16.22"/>
            <path class="cls-11" d="M203.06,323.66c-4.81,4.58-7.2,11.35-7.24,17.99-.07,11.57,9.43,22.44,20.91,23.92,11.48,1.48,23.42-6.61,26.3-17.82,1.35-5.27.86-10.94-1.11-16.01-3.58-9.23-10.99-14.15-21.42-14.39-6.03-.14-12.81,1.9-17.44,6.31Z"/>
          </g>
          <path class="cls-12" d="M535.5,296.96s-4.24,12.83,2.46,14.67c7.74,2.12,38.12-1.03,33.3-6.51l.33-1.96s-22.52,1.99-36.09-6.2Z"/>
          <path class="cls-4" d="M412.38,452.94c1.67,1.61,3.33,3.22,5,4.82.54.52,1.48.57,2.01,0s.57-1.46,0-2.01c-1.67-1.61-3.33-3.22-5-4.82-.54-.52-1.48-.57-2.01,0s-.57,1.46,0,2.01h0Z"/>
        </g>
        <path class="cls-12" d="M621.1,370.64s-1.82,17.37,2.1,18.03,22.19-.03,21.27-8.48-12.04-13.21-23.37-9.55Z"/>
        <path class="cls-10" d="M628.19,426.35s-1.71,12.59,2.21,13.09c3.92.5,22.19.12,21.21-6.01-.98-6.13-12.13-9.66-23.43-7.08Z"/>
        <path class="cls-10" d="M580.67,475.29s-8.71,11.87-3.38,12.28,32.13-4.57,30.07-12.2c-2.06-7.63-26.68-.08-26.68-.08Z"/>
      </g>
    </g>
  </g>
</svg>