<?xml version="1.0" encoding="UTF-8"?>
<svg id="Capa_2" data-name="Capa 2" xmlns="http://www.w3.org/2000/svg" viewBox="0 0 383.9 458.68">
  <defs>
    <style>
      .cls-1 {
        fill: #ccff9a;
      }

      .cls-1, .cls-2, .cls-3, .cls-4, .cls-5, .cls-6, .cls-7, .cls-8, .cls-9 {
        stroke-width: 0px;
      }

      .cls-2 {
        fill: #f9b700;
      }

      .cls-10 {
        fill: #063244;
        font-family: OpenSans, 'Open Sans';
        font-size: 18.55px;
      }

      .cls-3 {
        fill: #005e73;
        opacity: .9;
      }

      .cls-11 {
        font-family: OpenSans-Semibold, 'Open Sans';
        font-size: 13.22px;
        font-weight: 600;
      }

      .cls-11, .cls-7 {
        fill: #fff;
      }

      .cls-4 {
        fill: #ffe8bb;
      }

      .cls-5 {
        fill: #f49104;
      }

      .cls-6 {
        fill: #f49200;
      }

      .cls-8 {
        fill: #664100;
      }

      .cls-9 {
        fill: #fdca47;
      }
    </style>
  </defs>
  <g id="Capa_1-2" data-name="Capa 1">
    <g>
      <polygon class="cls-1" points="14.26 17.4 35.07 0 0 0 14.26 17.4"/>
      <polygon class="cls-7" points="361.81 152.01 339.09 133.01 377.39 133.01 361.81 152.01"/>
      <text class="cls-11" transform="translate(309.13 95.74)"><tspan x="0" y="0">7:41</tspan></text>
      <text class="cls-11" transform="translate(102.03 204.42)"><tspan x="0" y="0">7:56</tspan></text>
      <rect class="cls-1" x="14.52" y=".05" width="287.03" height="90.17" rx="20.57" ry="20.57"/>
      <text class="cls-10" transform="translate(41.18 38.38)"><tspan x="0" y="0">Cami, si me amás, </tspan><tspan x="0" y="22.26">pasame las fotos! </tspan></text>
      <polygon class="cls-1" points="14.26 275.69 35.07 258.29 0 258.29 14.26 275.69"/>
      <text class="cls-11" transform="translate(357.63 358.81)"><tspan x="0" y="0">7:57</tspan></text>
      <text class="cls-11" transform="translate(231.1 454.95)"><tspan x="0" y="0">8:04</tspan></text>
      <rect class="cls-1" x="14.52" y="258.34" width="326.37" height="101.49" rx="19.15" ry="19.15"/>
      <text class="cls-10" transform="translate(39.16 292.64)"><tspan x="0" y="0">Vos confiás en mí y me </tspan><tspan x="0" y="22.26">querés? Porque parece </tspan><tspan x="0" y="44.53">que no!</tspan></text>
      <rect class="cls-7" x="134.76" y="133.04" width="228" height="72.81" rx="25.89" ry="25.89"/>
      <g>
        <polygon class="cls-7" points="362.38 434.58 339.66 415.58 377.96 415.58 362.38 434.58"/>
        <rect class="cls-7" x="277.94" y="415.6" width="85.4" height="41.35" rx="9.51" ry="9.51"/>
      </g>
      <g id="_Pleading_Face" data-name=" Pleading Face">
        <g id="circle">
          <circle class="cls-9" cx="246.56" cy="45.98" r="29.35"/>
          <path class="cls-4" d="M221.93,36.1c.24-2.17,1.03-4.24,2.11-6.14,1.1-1.9,2.53-3.61,4.19-5.06,1.66-1.45,3.56-2.63,5.59-3.45,2.03-.81,4.19-1.31,6.37-1.24-1.89,1.08-3.67,2.08-5.35,3.2-1.68,1.11-3.27,2.31-4.76,3.61-1.5,1.3-2.9,2.7-4.24,4.22-1.35,1.51-2.58,3.13-3.91,4.85Z"/>
          <path class="cls-2" d="M275.91,45.98c0,16.21-13.14,29.35-29.35,29.35-8.86,0-16.8-3.93-22.18-10.13,5.15,4.49,11.89,7.2,19.25,7.2,16.21,0,29.35-13.14,29.35-29.35,0-7.34-2.7-14.06-7.16-19.21,6.18,5.38,10.09,13.3,10.09,22.14Z"/>
        </g>
        <g>
          <g>
            <path class="cls-7" d="M268.55,44.84c-1.96,4.04-6.73,5.54-10.94,5.36-2.05-.09-4.49-.43-6.07-1.85-1.87-1.69-2.65-4.32-2.93-6.75,0,0,0-.02,0-.03-.03-.26-.05-.53-.07-.79-.11-1.33-.1-2.72.03-4.1.2-2.14.71-4.26,1.61-6.12.64-1.33,2.04-2.15,3.52-2.06,3.47.2,7.85,2.32,11.06,5.29.76.7,1.45,1.45,2.04,2.23,2.07,2.72,3.04,5.84,1.76,8.82Z"/>
            <path class="cls-6" d="M266.79,36.03c-1.43,4.58-5.63,7.91-10.59,7.91-2.97,0-5.68-1.2-7.67-3.15-.11-1.33-.1-2.72.03-4.1.2-2.14.71-4.26,1.61-6.12.64-1.33,2.04-2.15,3.52-2.06,3.47.2,7.85,2.32,11.06,5.29.76.7,1.45,1.45,2.04,2.23Z"/>
            <path class="cls-8" d="M264.75,33.8c-.57,4.32-4.18,7.66-8.54,7.66-3.32,0-6.21-1.93-7.65-4.77.2-2.14.71-4.26,1.61-6.12.64-1.33,2.04-2.15,3.52-2.06,3.47.2,7.85,2.32,11.06,5.29Z"/>
            <circle class="cls-7" cx="252.14" cy="33.9" r="1.92"/>
          </g>
          <g>
            <path class="cls-7" d="M224.57,44.84c1.96,4.04,6.73,5.54,10.94,5.36,2.05-.09,4.49-.43,6.07-1.85,1.87-1.69,2.65-4.32,2.93-6.75,0,0,0-.02,0-.03.03-.26.05-.53.07-.79.11-1.33.1-2.72-.03-4.1-.2-2.14-.71-4.26-1.61-6.12-.64-1.33-2.04-2.15-3.52-2.06-3.47.2-7.85,2.32-11.06,5.29-.76.7-1.45,1.45-2.04,2.23-2.07,2.72-3.04,5.84-1.76,8.82Z"/>
            <path class="cls-6" d="M226.33,36.03c1.43,4.58,5.63,7.91,10.59,7.91,2.97,0,5.68-1.2,7.67-3.15.11-1.33.1-2.72-.03-4.1-.2-2.14-.71-4.26-1.61-6.12-.64-1.33-2.04-2.15-3.52-2.06-3.47.2-7.85,2.32-11.06,5.29-.76.7-1.45,1.45-2.04,2.23Z"/>
            <path class="cls-8" d="M228.37,33.8c.57,4.32,4.18,7.66,8.54,7.66,3.32,0,6.21-1.93,7.65-4.77-.2-2.14-.71-4.26-1.61-6.12-.64-1.33-2.04-2.15-3.52-2.06-3.47.2-7.85,2.32-11.06,5.29Z"/>
            <circle class="cls-7" cx="233.11" cy="33.9" r="1.92"/>
          </g>
        </g>
        <path class="cls-8" d="M251.4,60.6c-.18,0-.37-.03-.56-.1-2.91-1.06-5.71-1.07-8.57,0-.84.31-1.77-.11-2.08-.95-.31-.84.11-1.77.95-2.08,3.56-1.32,7.19-1.32,10.8,0,.84.31,1.27,1.23.96,2.07-.24.65-.86,1.06-1.52,1.06Z"/>
      </g>
      <text class="cls-10" transform="translate(149.55 178.27)"><tspan x="0" y="0">No me siento cómoda!</tspan></text>
      <circle class="cls-3" cx="298.59" cy="446.07" r="4.5"/>
      <circle class="cls-3" cx="316.67" cy="440.04" r="4.5"/>
      <circle class="cls-3" cx="333.42" cy="446.41" r="4.5"/>
      <g id="Thinking_Face" data-name="Thinking Face">
        <g id="circle-2" data-name="circle">
          <circle class="cls-9" cx="288.7" cy="312.92" r="29.71"/>
          <path class="cls-4" d="M263.78,302.91c.24-2.19,1.04-4.29,2.14-6.21,1.11-1.92,2.56-3.66,4.24-5.12,1.68-1.47,3.6-2.66,5.66-3.49,2.06-.82,4.25-1.32,6.45-1.25-1.91,1.09-3.71,2.1-5.41,3.24-1.7,1.12-3.31,2.34-4.82,3.65-1.52,1.32-2.94,2.74-4.29,4.27-1.36,1.53-2.61,3.17-3.96,4.91Z"/>
          <path class="cls-2" d="M318.41,312.92c0,16.41-13.3,29.71-29.71,29.71-8.97,0-17.01-3.97-22.46-10.26,5.21,4.54,12.03,7.28,19.49,7.28,16.41,0,29.71-13.3,29.71-29.71,0-7.43-2.73-14.23-7.25-19.44,6.26,5.45,10.21,13.47,10.21,22.42Z"/>
        </g>
        <g>
          <path class="cls-8" d="M308.58,299.11c-4.49-1.96-9.05-2.24-13.55-.84-.77.24-1.19,1.07-.92,1.83.26.74,1.08,1.1,1.83.87.76-.23,1.51-.4,2.26-.53.1-.02.19.06.19.16h0c0,.06-.03.11-.08.14-1.14.74-1.92,2.24-1.92,3.97,0,2.47,1.58,4.46,3.53,4.46s3.53-2,3.53-4.46c0-1.85-.89-3.44-2.17-4.12-.05-.03-.09-.08-.09-.15v-.04c0-.09.08-.17.17-.17,2.03.09,4.05.58,6.11,1.49.19.08.38.12.57.12.56,0,1.09-.33,1.32-.88.3-.73-.08-1.56-.8-1.87Z"/>
          <ellipse class="cls-8" cx="280.22" cy="302.76" rx="3.53" ry="4.46"/>
          <path class="cls-8" d="M286.8,294.35c-.19.01-.39-.01-.58-.08-4.02-1.44-7.83-1.42-11.63.06-.73.29-1.56-.08-1.84-.81-.29-.73.08-1.56.81-1.84,4.41-1.72,8.99-1.75,13.63-.09.74.26,1.13,1.08.86,1.82-.2.55-.7.9-1.24.94Z"/>
        </g>
        <path class="cls-8" d="M295.83,322.64c-.24,0-.49-.06-.71-.19-3.66-2.12-7.34-2.82-11.27-2.13-.77.13-1.51-.38-1.65-1.16-.13-.78.38-1.51,1.16-1.65,4.55-.79,8.99.04,13.19,2.48.68.39.91,1.27.52,1.95-.26.46-.74.71-1.23.71Z"/>
        <path class="cls-5" d="M289.79,330.31l9.34-2.31c1.23-.3,1.97-1.56,1.65-2.78s-1.52-1.91-2.71-1.63c0,0-18.24,4.27-18.24,4.27-.5.12-.95-.29-.86-.8.06-.33.28-.61.47-.88,2.48-3.48,1.81-10.52-3.08-11.55-.89-.19-1.72.4-1.9,1.28-.09.42-.04.86.03,1.29.47,3.05,1.17,6.35-1.92,8.28-4.72,3.15-5.79,7.61-4.03,13.08,1.44,4.49,6.03,7.58,10.68,7.54,2.82-.03,5.9-.67,8.55-1.63.58-.21,1.17-.48,1.59-.93.6-.64,1.12-2.23.06-2.69-.23-.1-1.01-.42-.4-.73.61-.3,1.37-.63,1.75-1.25.44-.71.23-1.79-.38-2.34-.21-.19-.47-.33-.68-.52-.07-.07-.15-.15-.15-.25,0-.07.04-.13.07-.18.53-.82,1.45-1.19,1.52-2.29.06-.96-.43-2.03-1.39-2.36-.23-.08-.29-.38-.11-.54.04-.03.08-.06.13-.07Z"/>
      </g>
    </g>
  </g>
</svg>