<?xml version="1.0" encoding="UTF-8"?>
<svg xmlns="http://www.w3.org/2000/svg" viewBox="0 0 1841.12 1021.39">
  <defs>
    <style>
      .cls-1 {
        fill: #fcee21;
      }

      .cls-1, .cls-2, .cls-3 {
        stroke-width: 0px;
      }

      .cls-4 {
        isolation: isolate;
      }

      .cls-2 {
        fill: #fff;
      }

      .cls-3 {
        fill: #93278f;
      }

      .cls-5 {
        mix-blend-mode: overlay;
      }
    </style>
  </defs>
  <g class="cls-4">
    <g id="Capa_2" data-name="Capa 2">
      <g id="Capa_1-2" data-name="Capa 1">
        <g class="cls-5">
          <rect class="cls-1" x="1790.34" y="310.95" width="21.38" height="57.6"/>
          <rect class="cls-3" x="1663.35" y="112.84" width="10.69" height="10.69"/>
          <rect class="cls-1" x="671.25" y="141.34" width="10.69" height="10.69"/>
          <rect class="cls-1" x="109.71" y="7.97" width="10.69" height="10.69"/>
          <rect class="cls-1" x="-133.61" y="884.81" width="270.19" height="2.96" transform="translate(887.77 884.81) rotate(90)"/>
          <rect class="cls-1" x="1270.06" y="137.84" width="4.97" height="4.97"/>
          <rect class="cls-1" x="219.97" y="403.43" width="4.97" height="4.97"/>
          <rect class="cls-2" x="428.28" y="241.51" width="4.97" height="4.97"/>
          <rect class="cls-1" x="1622.81" width="4.97" height="4.97"/>
          <rect class="cls-3" x="1192.65" y="82.92" width="4.97" height="4.97"/>
          <rect class="cls-3" x="276.66" y="239.03" width="4.97" height="4.97"/>
          <rect class="cls-3" x="1227.35" y="622.7" width="4.97" height="4.97"/>
          <rect class="cls-3" x="284.79" y="666.72" width="4.97" height="4.97"/>
          <rect class="cls-3" x="339.33" y="849.79" width="15.84" height="15.84" transform="translate(543.54 1761.99) rotate(-170.21)"/>
          <g>
            <g>
              <polygon class="cls-3" points="120.4 338.46 124.64 330.2 115.27 325.39 102.78 329.4 120.4 338.46"/>
              <polygon class="cls-3" points="110.98 300.61 98.49 304.62 93.55 314.24 83.94 309.3 71.45 313.31 81.24 318.34 105.96 310.4 110.98 300.61"/>
              <polygon class="cls-3" points="101.81 318.47 102.6 316.92 87.77 321.69 89.32 322.49 85.75 329.42 108.74 322.04 101.81 318.47"/>
              <polygon class="cls-3" points="105.28 291.4 101.85 298.09 111.97 294.84 105.28 291.4"/>
              <polygon class="cls-3" points="70.72 302.51 67.28 309.2 77.41 305.94 70.72 302.51"/>
              <polygon class="cls-3" points="77.59 345.32 85.84 349.56 94.89 331.94 82.4 335.95 77.59 345.32"/>
              <polygon class="cls-3" points="64.44 310.11 63.64 311.67 68.6 314.22 81.09 310.21 74.57 306.86 64.44 310.11"/>
              <polygon class="cls-3" points="99 299.01 95.65 305.53 108.14 301.52 110.69 296.56 109.13 295.75 99 299.01"/>
              <polygon class="cls-3" points="89.55 321.12 104.38 316.35 107.74 309.83 83.02 317.77 89.55 321.12"/>
              <polygon class="cls-3" points="82.42 330.49 79.07 337.02 91.56 333.01 94.23 327.8 99.44 330.47 111.94 326.46 105.41 323.11 82.42 330.49"/>
            </g>
            <g>
              <polygon class="cls-1" points="125.07 336.96 129.31 328.7 119.94 323.89 107.44 327.9 125.07 336.96"/>
              <polygon class="cls-1" points="115.65 299.11 103.16 303.12 98.22 312.74 88.61 307.8 76.11 311.81 85.91 316.84 110.62 308.9 115.65 299.11"/>
              <polygon class="cls-1" points="106.47 316.98 107.27 315.43 92.43 320.19 93.98 320.99 90.42 327.92 113.41 320.54 106.47 316.98"/>
              <polygon class="cls-1" points="109.95 289.9 106.51 296.59 116.64 293.34 109.95 289.9"/>
              <polygon class="cls-1" points="75.39 301.01 71.95 307.7 82.08 304.44 75.39 301.01"/>
              <polygon class="cls-1" points="82.25 343.82 90.51 348.06 99.56 330.44 87.07 334.45 82.25 343.82"/>
              <polygon class="cls-1" points="69.1 308.61 68.3 310.17 73.27 312.72 85.76 308.71 79.23 305.36 69.1 308.61"/>
              <polygon class="cls-1" points="103.67 297.51 100.31 304.04 112.8 300.02 115.36 295.06 113.79 294.25 103.67 297.51"/>
              <polygon class="cls-1" points="94.21 319.62 109.05 314.85 112.4 308.33 87.69 316.27 94.21 319.62"/>
              <polygon class="cls-1" points="87.09 329 83.73 335.52 96.22 331.51 98.9 326.3 104.11 328.98 116.6 324.96 110.07 321.61 87.09 329"/>
            </g>
            <g>
              <polygon class="cls-2" points="122.85 337.67 127.08 329.42 117.71 324.61 105.22 328.62 122.85 337.67"/>
              <polygon class="cls-2" points="113.43 299.82 100.94 303.83 96 313.45 86.38 308.51 73.89 312.52 83.68 317.55 108.4 309.61 113.43 299.82"/>
              <polygon class="cls-2" points="104.25 317.69 105.05 316.14 90.21 320.91 91.76 321.7 88.2 328.64 111.19 321.25 104.25 317.69"/>
              <polygon class="cls-2" points="107.73 290.62 104.29 297.31 114.42 294.05 107.73 290.62"/>
              <polygon class="cls-2" points="73.16 301.72 69.73 308.41 79.86 305.16 73.16 301.72"/>
              <polygon class="cls-2" points="80.03 344.54 88.28 348.78 97.34 331.15 84.84 335.17 80.03 344.54"/>
              <polygon class="cls-2" points="66.88 309.33 66.08 310.89 71.05 313.44 83.54 309.43 77.01 306.07 66.88 309.33"/>
              <polygon class="cls-2" points="101.44 298.22 98.09 304.75 110.58 300.74 113.13 295.77 111.57 294.97 101.44 298.22"/>
              <polygon class="cls-2" points="91.99 320.33 106.83 315.57 110.18 309.04 85.46 316.98 91.99 320.33"/>
              <polygon class="cls-2" points="84.86 329.71 81.51 336.24 94 332.22 96.68 327.01 101.89 329.69 114.38 325.68 107.85 322.32 84.86 329.71"/>
            </g>
          </g>
          <g>
            <g>
              <polygon class="cls-3" points="1377.02 712.13 1372.09 704.27 1363.16 709.86 1360.23 722.65 1377.02 712.13"/>
              <polygon class="cls-3" points="1339.67 700.88 1336.74 713.67 1342.48 722.83 1333.32 728.57 1330.39 741.36 1339.72 735.51 1345.52 710.21 1339.67 700.88"/>
              <polygon class="cls-3" points="1350.34 717.9 1349.42 716.43 1345.93 731.62 1347.41 730.69 1351.55 737.3 1356.95 713.76 1350.34 717.9"/>
              <polygon class="cls-3" points="1328.85 701.08 1332.84 707.46 1335.22 697.09 1328.85 701.08"/>
              <polygon class="cls-3" points="1320.73 736.47 1324.73 742.84 1327.11 732.47 1320.73 736.47"/>
              <polygon class="cls-3" points="1361.05 752.44 1368.91 747.51 1358.38 730.73 1355.45 743.51 1361.05 752.44"/>
              <polygon class="cls-3" points="1324.06 745.75 1324.99 747.24 1329.72 744.28 1332.65 731.49 1326.44 735.39 1324.06 745.75"/>
              <polygon class="cls-3" points="1332.17 710.37 1336.07 716.59 1339 703.8 1336.04 699.07 1334.55 700 1332.17 710.37"/>
              <polygon class="cls-3" points="1346.35 729.79 1349.83 714.6 1345.94 708.39 1340.13 733.69 1346.35 729.79"/>
              <polygon class="cls-3" points="1350.77 740.71 1354.67 746.93 1357.6 734.14 1354.49 729.18 1359.45 726.06 1362.38 713.28 1356.16 717.17 1350.77 740.71"/>
            </g>
            <g>
              <polygon class="cls-1" points="1378.11 707.35 1373.19 699.49 1364.26 705.09 1361.33 717.87 1378.11 707.35"/>
              <polygon class="cls-1" points="1340.77 696.11 1337.83 708.89 1343.58 718.05 1334.42 723.8 1331.49 736.58 1340.81 730.74 1346.61 705.43 1340.77 696.11"/>
              <polygon class="cls-1" points="1351.44 713.13 1350.51 711.65 1347.03 726.84 1348.51 725.91 1352.65 732.52 1358.04 708.98 1351.44 713.13"/>
              <polygon class="cls-1" points="1329.94 696.3 1333.94 702.68 1336.31 692.31 1329.94 696.3"/>
              <polygon class="cls-1" points="1321.83 731.69 1325.82 738.06 1328.2 727.69 1321.83 731.69"/>
              <polygon class="cls-1" points="1362.14 747.66 1370 742.73 1359.48 725.95 1356.54 738.74 1362.14 747.66"/>
              <polygon class="cls-1" points="1325.16 740.98 1326.09 742.46 1330.82 739.5 1333.75 726.71 1327.53 730.61 1325.16 740.98"/>
              <polygon class="cls-1" points="1333.27 705.59 1337.17 711.81 1340.1 699.02 1337.13 694.29 1335.65 695.22 1333.27 705.59"/>
              <polygon class="cls-1" points="1347.45 725.01 1350.93 709.82 1347.03 703.61 1341.23 728.91 1347.45 725.01"/>
              <polygon class="cls-1" points="1351.86 735.93 1355.76 742.15 1358.69 729.36 1355.58 724.4 1360.55 721.29 1363.48 708.5 1357.26 712.4 1351.86 735.93"/>
            </g>
            <g>
              <polygon class="cls-2" points="1377.59 709.62 1372.66 701.77 1363.74 707.36 1360.81 720.15 1377.59 709.62"/>
              <polygon class="cls-2" points="1340.24 698.38 1337.31 711.17 1343.05 720.33 1333.9 726.07 1330.96 738.86 1340.29 733.01 1346.09 707.71 1340.24 698.38"/>
              <polygon class="cls-2" points="1350.91 715.4 1349.99 713.92 1346.51 729.11 1347.98 728.19 1352.13 734.79 1357.52 711.26 1350.91 715.4"/>
              <polygon class="cls-2" points="1329.42 698.58 1333.41 704.95 1335.79 694.58 1329.42 698.58"/>
              <polygon class="cls-2" points="1321.31 733.97 1325.3 740.34 1327.68 729.97 1321.31 733.97"/>
              <polygon class="cls-2" points="1361.62 749.94 1369.48 745.01 1358.95 728.22 1356.02 741.01 1361.62 749.94"/>
              <polygon class="cls-2" points="1324.63 743.25 1325.57 744.74 1330.3 741.77 1333.23 728.99 1327.01 732.88 1324.63 743.25"/>
              <polygon class="cls-2" points="1332.75 707.87 1336.64 714.08 1339.58 701.3 1336.61 696.57 1335.12 697.5 1332.75 707.87"/>
              <polygon class="cls-2" points="1346.92 727.29 1350.41 712.1 1346.51 705.88 1340.71 731.19 1346.92 727.29"/>
              <polygon class="cls-2" points="1351.34 738.21 1355.24 744.43 1358.17 731.64 1355.06 726.67 1360.02 723.56 1362.96 710.77 1356.74 714.67 1351.34 738.21"/>
            </g>
          </g>
          <g>
            <g>
              <path class="cls-3" d="M1716.05,806.75l-5.43-3.01c-.12.26-.24.52-.38.77-.8,1.44-1.82,2.68-2.98,3.71l5.64,3.13c1.04-1.15,1.99-2.42,2.77-3.83.14-.25.25-.51.38-.77Z"/>
              <path class="cls-3" d="M1707.69,779.66c-4.33-2.4-9.16-3.06-13.68-2.21l22.8,12.64c-1.68-4.28-4.8-8.03-9.12-10.43Z"/>
              <path class="cls-3" d="M1711.89,799.56l5.68,3.15c.6-2.32.8-4.68.58-7l-7.46-4.14c1.14,2.47,1.58,5.24,1.2,7.98Z"/>
              <path class="cls-3" d="M1688.6,786.65c2.12-1.77,4.7-2.88,7.4-3.22l-7.46-4.14c-2.08,1.05-3.98,2.47-5.63,4.2l5.68,3.15Z"/>
              <path class="cls-3" d="M1685.72,789.93l-5.43-3.01c-.15.24-.31.47-.45.73-.78,1.41-1.36,2.89-1.78,4.38l5.64,3.13c.26-1.54.77-3.06,1.57-4.5.14-.25.3-.49.45-.73Z"/>
              <path class="cls-3" d="M1690.83,810.07c-3.92-2.17-6.41-5.93-7.13-10.03l-6.38-3.54c-.39,7.57,3.43,15.08,10.5,19,7.07,3.92,15.46,3.18,21.68-1.16l-6.38-3.54c-3.86,1.56-8.37,1.44-12.29-.73Z"/>
              <path class="cls-3" d="M1714.67,788.9l-22.8-12.64c-1.9.35-3.74.98-5.47,1.85l7.46,4.14c2.9-.36,5.93.14,8.68,1.66,2.75,1.52,4.78,3.83,6.01,6.48l7.46,4.14c-.18-1.93-.63-3.82-1.33-5.62Z"/>
              <path class="cls-3" d="M1713.23,800.3c-.2,1.42-.62,2.83-1.26,4.18l5.43,3.01c.66-1.31,1.16-2.67,1.52-4.04l-5.68-3.15Z"/>
              <path class="cls-3" d="M1681.64,787.67l5.43,3.01c.8-1.27,1.78-2.37,2.88-3.29l-5.68-3.15c-.98,1.03-1.86,2.17-2.62,3.43Z"/>
              <path class="cls-3" d="M1700.6,809.4l6.38,3.54c1.23-.86,2.37-1.86,3.41-2.99l-5.64-3.13c-1.24,1.1-2.64,1.97-4.14,2.58Z"/>
              <path class="cls-3" d="M1675.54,790.63c-.42,1.48-.66,2.98-.73,4.47l6.38,3.54c-.28-1.6-.28-3.25,0-4.88l-5.64-3.13Z"/>
            </g>
            <g>
              <path class="cls-1" d="M1719.58,808.7l-5.43-3.01c-.12.26-.24.52-.38.77-.8,1.44-1.82,2.68-2.98,3.71l5.64,3.13c1.04-1.15,1.99-2.42,2.77-3.83.14-.25.25-.51.38-.77Z"/>
              <path class="cls-1" d="M1711.22,781.62c-4.33-2.4-9.16-3.06-13.68-2.21l22.8,12.64c-1.68-4.28-4.8-8.03-9.12-10.43Z"/>
              <path class="cls-1" d="M1715.41,801.51l5.68,3.15c.6-2.32.8-4.68.58-7l-7.46-4.14c1.14,2.47,1.58,5.24,1.2,7.98Z"/>
              <path class="cls-1" d="M1692.12,788.6c2.12-1.77,4.7-2.88,7.4-3.22l-7.46-4.14c-2.08,1.05-3.98,2.47-5.63,4.2l5.68,3.15Z"/>
              <path class="cls-1" d="M1689.25,791.89l-5.43-3.01c-.15.24-.31.47-.45.73-.78,1.41-1.36,2.89-1.78,4.38l5.64,3.13c.26-1.54.77-3.06,1.57-4.5.14-.25.3-.49.45-.73Z"/>
              <path class="cls-1" d="M1694.36,812.02c-3.92-2.17-6.41-5.93-7.13-10.03l-6.38-3.54c-.39,7.57,3.43,15.08,10.5,19,7.07,3.92,15.46,3.18,21.68-1.16l-6.38-3.54c-3.86,1.56-8.37,1.44-12.29-.73Z"/>
              <path class="cls-1" d="M1718.19,790.85l-22.8-12.64c-1.9.35-3.74.98-5.47,1.85l7.46,4.14c2.9-.36,5.93.14,8.68,1.66,2.75,1.52,4.78,3.83,6.01,6.48l7.46,4.14c-.18-1.93-.63-3.82-1.33-5.62Z"/>
              <path class="cls-1" d="M1716.76,802.26c-.2,1.42-.62,2.83-1.26,4.18l5.43,3.01c.66-1.31,1.16-2.67,1.52-4.04l-5.68-3.15Z"/>
              <path class="cls-1" d="M1685.16,789.62l5.43,3.01c.8-1.27,1.78-2.37,2.88-3.29l-5.68-3.15c-.98,1.03-1.86,2.17-2.62,3.43Z"/>
              <path class="cls-1" d="M1704.13,811.36l6.38,3.54c1.23-.86,2.37-1.86,3.41-2.99l-5.64-3.13c-1.24,1.1-2.64,1.97-4.14,2.58Z"/>
              <path class="cls-1" d="M1679.06,792.58c-.42,1.48-.66,2.98-.73,4.47l6.38,3.54c-.28-1.6-.28-3.25,0-4.88l-5.64-3.13Z"/>
            </g>
            <g>
              <path class="cls-2" d="M1717.9,807.77l-5.43-3.01c-.12.26-.24.52-.38.77-.8,1.44-1.82,2.68-2.98,3.71l5.64,3.13c1.04-1.15,1.99-2.42,2.77-3.83.14-.25.25-.51.38-.77Z"/>
              <path class="cls-2" d="M1709.54,780.69c-4.33-2.4-9.16-3.06-13.68-2.21l22.8,12.64c-1.68-4.28-4.8-8.03-9.12-10.43Z"/>
              <path class="cls-2" d="M1713.73,800.58l5.68,3.15c.6-2.32.8-4.68.58-7l-7.46-4.14c1.14,2.47,1.58,5.24,1.2,7.98Z"/>
              <path class="cls-2" d="M1690.44,787.67c2.12-1.77,4.7-2.88,7.4-3.22l-7.46-4.14c-2.08,1.05-3.98,2.47-5.63,4.2l5.68,3.15Z"/>
              <path class="cls-2" d="M1687.57,790.95l-5.43-3.01c-.15.24-.31.47-.45.73-.78,1.41-1.36,2.89-1.78,4.38l5.64,3.13c.26-1.54.77-3.06,1.57-4.5.14-.25.3-.49.45-.73Z"/>
              <path class="cls-2" d="M1692.68,811.09c-3.92-2.17-6.41-5.93-7.13-10.03l-6.38-3.54c-.39,7.57,3.43,15.08,10.5,19,7.07,3.92,15.46,3.18,21.68-1.16l-6.38-3.54c-3.86,1.56-8.37,1.44-12.29-.73Z"/>
              <path class="cls-2" d="M1716.51,789.92l-22.8-12.64c-1.9.35-3.74.98-5.47,1.85l7.46,4.14c2.9-.36,5.93.14,8.68,1.66,2.75,1.52,4.78,3.83,6.01,6.48l7.46,4.14c-.18-1.93-.63-3.82-1.33-5.62Z"/>
              <path class="cls-2" d="M1715.08,801.33c-.2,1.42-.62,2.83-1.26,4.18l5.43,3.01c.66-1.31,1.16-2.67,1.52-4.04l-5.68-3.15Z"/>
              <path class="cls-2" d="M1683.48,788.69l5.43,3.01c.8-1.27,1.78-2.37,2.88-3.29l-5.68-3.15c-.98,1.03-1.86,2.17-2.62,3.43Z"/>
              <path class="cls-2" d="M1702.45,810.43l6.38,3.54c1.23-.86,2.37-1.86,3.41-2.99l-5.64-3.13c-1.24,1.1-2.64,1.97-4.14,2.58Z"/>
              <path class="cls-2" d="M1677.38,791.65c-.42,1.48-.66,2.98-.73,4.47l6.38,3.54c-.28-1.6-.28-3.25,0-4.88l-5.64-3.13Z"/>
            </g>
          </g>
          <g>
            <g>
              <path class="cls-3" d="M1245.04,107.55l-4.72-2.61c-.11.22-.21.45-.33.67-.69,1.25-1.58,2.32-2.59,3.23l4.9,2.72c.91-1,1.72-2.1,2.41-3.33.12-.22.22-.44.33-.67Z"/>
              <path class="cls-3" d="M1237.78,84.02c-3.76-2.08-7.95-2.66-11.88-1.92l19.8,10.98c-1.46-3.72-4.17-6.97-7.92-9.06Z"/>
              <path class="cls-3" d="M1241.42,101.3l4.94,2.74c.52-2.01.69-4.06.5-6.08l-6.48-3.59c.99,2.15,1.37,4.55,1.04,6.93Z"/>
              <path class="cls-3" d="M1221.2,90.09c1.84-1.54,4.08-2.5,6.43-2.79l-6.48-3.59c-1.81.91-3.46,2.14-4.89,3.65l4.94,2.74Z"/>
              <path class="cls-3" d="M1218.7,92.94l-4.72-2.61c-.13.21-.27.41-.39.63-.68,1.23-1.18,2.51-1.55,3.8l4.9,2.72c.23-1.34.67-2.66,1.36-3.91.12-.22.26-.42.39-.63Z"/>
              <path class="cls-3" d="M1223.14,110.43c-3.4-1.89-5.57-5.15-6.19-8.71l-5.54-3.07c-.34,6.58,2.98,13.1,9.12,16.5,6.14,3.4,13.42,2.76,18.82-1.01l-5.54-3.07c-3.35,1.36-7.27,1.25-10.67-.64Z"/>
              <path class="cls-3" d="M1243.84,92.04l-19.8-10.98c-1.65.31-3.25.85-4.75,1.6l6.48,3.59c2.52-.32,5.15.12,7.54,1.44s4.15,3.33,5.22,5.63l6.48,3.59c-.16-1.67-.54-3.32-1.16-4.88Z"/>
              <path class="cls-3" d="M1242.59,101.95c-.17,1.23-.53,2.46-1.1,3.63l4.72,2.61c.57-1.14,1.01-2.31,1.32-3.51l-4.94-2.74Z"/>
              <path class="cls-3" d="M1215.15,90.98l4.72,2.61c.7-1.1,1.54-2.05,2.5-2.85l-4.94-2.74c-.85.89-1.61,1.89-2.28,2.98Z"/>
              <path class="cls-3" d="M1231.62,109.85l5.54,3.07c1.07-.75,2.06-1.61,2.96-2.6l-4.9-2.72c-1.07.96-2.29,1.72-3.6,2.24Z"/>
              <path class="cls-3" d="M1209.85,93.55c-.36,1.28-.57,2.58-.64,3.89l5.54,3.07c-.24-1.39-.25-2.82,0-4.24l-4.9-2.72Z"/>
            </g>
            <g>
              <path class="cls-1" d="M1248.1,109.24l-4.72-2.61c-.11.22-.21.45-.33.67-.69,1.25-1.58,2.32-2.59,3.23l4.9,2.72c.91-1,1.72-2.1,2.41-3.33.12-.22.22-.45.33-.67Z"/>
              <path class="cls-1" d="M1240.84,85.72c-3.76-2.08-7.95-2.66-11.88-1.92l19.8,10.98c-1.46-3.72-4.17-6.97-7.92-9.06Z"/>
              <path class="cls-1" d="M1244.48,103l4.94,2.74c.52-2.01.69-4.06.5-6.08l-6.48-3.59c.99,2.15,1.37,4.55,1.04,6.93Z"/>
              <path class="cls-1" d="M1224.26,91.79c1.84-1.54,4.08-2.5,6.43-2.79l-6.48-3.59c-1.81.91-3.46,2.14-4.89,3.65l4.94,2.74Z"/>
              <path class="cls-1" d="M1221.76,94.64l-4.72-2.61c-.13.21-.27.41-.39.63-.68,1.23-1.18,2.51-1.55,3.8l4.9,2.72c.23-1.34.67-2.66,1.36-3.91.12-.22.26-.42.39-.63Z"/>
              <path class="cls-1" d="M1226.2,112.13c-3.4-1.89-5.57-5.15-6.19-8.71l-5.54-3.07c-.34,6.58,2.98,13.1,9.12,16.5,6.14,3.4,13.42,2.76,18.82-1.01l-5.54-3.07c-3.35,1.36-7.27,1.25-10.67-.64Z"/>
              <path class="cls-1" d="M1246.9,93.74l-19.8-10.98c-1.65.31-3.25.85-4.75,1.6l6.48,3.59c2.52-.32,5.15.12,7.54,1.44,2.38,1.32,4.15,3.33,5.22,5.63l6.48,3.59c-.16-1.67-.54-3.32-1.16-4.88Z"/>
              <path class="cls-1" d="M1245.65,103.65c-.17,1.23-.53,2.46-1.1,3.63l4.72,2.61c.57-1.14,1.01-2.31,1.32-3.51l-4.94-2.74Z"/>
              <path class="cls-1" d="M1218.21,92.67l4.72,2.61c.7-1.1,1.54-2.05,2.5-2.85l-4.94-2.74c-.85.89-1.61,1.89-2.28,2.98Z"/>
              <path class="cls-1" d="M1234.68,111.55l5.54,3.07c1.07-.75,2.06-1.61,2.96-2.6l-4.9-2.72c-1.07.96-2.29,1.72-3.6,2.24Z"/>
              <path class="cls-1" d="M1212.92,95.25c-.36,1.28-.57,2.58-.64,3.89l5.54,3.07c-.24-1.39-.25-2.82,0-4.24l-4.9-2.72Z"/>
            </g>
            <g>
              <path class="cls-2" d="M1246.64,108.44l-4.72-2.61c-.11.22-.21.45-.33.67-.69,1.25-1.58,2.32-2.59,3.23l4.9,2.72c.91-1,1.72-2.1,2.41-3.33.12-.22.22-.45.33-.67Z"/>
              <path class="cls-2" d="M1239.38,84.91c-3.76-2.08-7.95-2.66-11.88-1.92l19.8,10.98c-1.46-3.72-4.17-6.97-7.92-9.06Z"/>
              <path class="cls-2" d="M1243.02,102.19l4.94,2.74c.52-2.01.69-4.06.5-6.08l-6.48-3.59c.99,2.15,1.37,4.55,1.04,6.93Z"/>
              <path class="cls-2" d="M1222.8,90.98c1.84-1.54,4.08-2.5,6.43-2.79l-6.48-3.59c-1.81.91-3.46,2.14-4.89,3.65l4.94,2.74Z"/>
              <path class="cls-2" d="M1220.3,93.83l-4.72-2.61c-.13.21-.27.41-.39.63-.68,1.23-1.18,2.51-1.55,3.8l4.9,2.72c.23-1.34.67-2.66,1.36-3.91.12-.22.26-.42.39-.63Z"/>
              <path class="cls-2" d="M1224.74,111.32c-3.4-1.89-5.57-5.15-6.19-8.71l-5.54-3.07c-.34,6.58,2.98,13.1,9.12,16.5,6.14,3.4,13.42,2.76,18.82-1.01l-5.54-3.07c-3.35,1.36-7.27,1.25-10.67-.64Z"/>
              <path class="cls-2" d="M1245.44,92.93l-19.8-10.98c-1.65.31-3.25.85-4.75,1.6l6.48,3.59c2.52-.32,5.15.12,7.54,1.44s4.15,3.33,5.22,5.63l6.48,3.59c-.16-1.67-.54-3.32-1.16-4.88Z"/>
              <path class="cls-2" d="M1244.19,102.84c-.17,1.23-.53,2.46-1.1,3.63l4.72,2.61c.57-1.14,1.01-2.31,1.32-3.51l-4.94-2.74Z"/>
              <path class="cls-2" d="M1216.76,91.86l4.72,2.61c.7-1.1,1.54-2.05,2.5-2.85l-4.94-2.74c-.85.89-1.61,1.89-2.28,2.98Z"/>
              <path class="cls-2" d="M1233.22,110.74l5.54,3.07c1.07-.75,2.06-1.61,2.96-2.6l-4.9-2.72c-1.07.96-2.29,1.72-3.6,2.24Z"/>
              <path class="cls-2" d="M1211.46,94.44c-.36,1.28-.57,2.58-.64,3.89l5.54,3.07c-.24-1.39-.25-2.82,0-4.24l-4.9-2.72Z"/>
            </g>
          </g>
          <g>
            <g>
              <rect class="cls-3" x="1586.59" y="25.6" width="6" height="6.92" transform="translate(681.09 1333.77) rotate(-56.2)"/>
              <polygon class="cls-3" points="1610.15 58.59 1585.17 41.87 1588.23 37.31 1582.48 33.46 1575.57 43.77 1612.05 68.19 1618.95 57.88 1613.2 54.03 1610.15 58.59"/>
              <rect class="cls-3" x="1623.01" y="36.97" width="6.92" height="6.92" transform="translate(688 1369.46) rotate(-56.2)"/>
              <rect class="cls-3" x="1617.31" y="46.17" width="6" height="6.92" transform="translate(677.65 1368.44) rotate(-56.2)"/>
              <rect class="cls-3" x="1614.55" y="-.47" width="4.73" height="43.9" transform="translate(699.53 1353.12) rotate(-56.2)"/>
              <rect class="cls-3" x="1592.29" y="16.4" width="6.92" height="6.92" transform="translate(691.47 1334.81) rotate(-56.2)"/>
              <polygon class="cls-3" points="1595.15 9.75 1592.59 13.58 1598.34 17.43 1599.69 15.42 1624.66 32.14 1623.31 34.15 1629.06 38 1631.63 34.17 1595.15 9.75"/>
              <rect class="cls-3" x="1622.34" y="42.69" width="4.61" height="6.92" transform="translate(682.47 1370.5) rotate(-56.2)"/>
              <rect class="cls-3" x="1591.61" y="22.12" width="4.61" height="6.92" transform="translate(685.92 1335.84) rotate(-56.2)"/>
              <rect class="cls-3" x="1581.74" y="28.28" width="4.61" height="6.92" transform="translate(676.43 1330.37) rotate(-56.2)"/>
              <rect class="cls-3" x="1612.47" y="48.85" width="4.61" height="6.92" transform="translate(672.93 1365) rotate(-56.2)"/>
            </g>
            <g>
              <rect class="cls-1" x="1590.21" y="28.03" width="6" height="6.92" transform="translate(680.68 1337.85) rotate(-56.2)"/>
              <polygon class="cls-1" points="1613.77 61.02 1588.79 44.3 1591.85 39.74 1586.1 35.89 1579.19 46.2 1615.67 70.62 1622.57 60.31 1616.82 56.46 1613.77 61.02"/>
              <rect class="cls-1" x="1626.63" y="39.4" width="6.92" height="6.92" transform="translate(687.62 1373.56) rotate(-56.2)"/>
              <rect class="cls-1" x="1620.94" y="48.6" width="6" height="6.92" transform="translate(677.22 1372.51) rotate(-56.2)"/>
              <rect class="cls-1" x="1618.17" y="1.95" width="4.73" height="43.9" transform="translate(699.12 1357.21) rotate(-56.2)"/>
              <rect class="cls-1" x="1595.91" y="18.83" width="6.92" height="6.92" transform="translate(691.06 1338.89) rotate(-56.2)"/>
              <polygon class="cls-1" points="1598.78 12.17 1596.21 16.01 1601.96 19.86 1603.31 17.84 1628.28 34.57 1626.93 36.58 1632.68 40.43 1635.25 36.59 1598.78 12.17"/>
              <rect class="cls-1" x="1625.96" y="45.11" width="4.61" height="6.92" transform="translate(682.02 1374.56) rotate(-56.2)"/>
              <rect class="cls-1" x="1595.24" y="24.54" width="4.61" height="6.92" transform="translate(685.5 1339.91) rotate(-56.2)"/>
              <rect class="cls-1" x="1585.36" y="30.7" width="4.61" height="6.92" transform="translate(676 1334.44) rotate(-56.2)"/>
              <rect class="cls-1" x="1616.09" y="51.27" width="4.61" height="6.92" transform="translate(672.52 1369.09) rotate(-56.2)"/>
            </g>
            <g>
              <rect class="cls-2" x="1588.48" y="26.87" width="6" height="6.92" transform="translate(680.88 1335.91) rotate(-56.2)"/>
              <polygon class="cls-2" points="1612.05 59.86 1587.07 43.14 1590.12 38.58 1584.37 34.73 1577.47 45.04 1613.95 69.46 1620.85 59.15 1615.1 55.3 1612.05 59.86"/>
              <rect class="cls-2" x="1624.91" y="38.24" width="6.92" height="6.92" transform="translate(687.81 1371.62) rotate(-56.2)"/>
              <rect class="cls-2" x="1619.21" y="47.44" width="6" height="6.92" transform="translate(677.41 1370.57) rotate(-56.2)"/>
              <rect class="cls-2" x="1616.45" y=".8" width="4.73" height="43.9" transform="translate(699.32 1355.26) rotate(-56.2)"/>
              <rect class="cls-2" x="1594.18" y="17.67" width="6.92" height="6.92" transform="translate(691.25 1336.95) rotate(-56.2)"/>
              <polygon class="cls-2" points="1597.05 11.02 1594.48 14.85 1600.23 18.7 1601.58 16.69 1626.56 33.41 1625.21 35.42 1630.96 39.27 1633.53 35.44 1597.05 11.02"/>
              <rect class="cls-2" x="1624.24" y="43.96" width="4.61" height="6.92" transform="translate(682.22 1372.61) rotate(-56.2)"/>
              <rect class="cls-2" x="1593.51" y="23.39" width="4.61" height="6.92" transform="translate(685.69 1337.97) rotate(-56.2)"/>
              <rect class="cls-2" x="1583.64" y="29.55" width="4.61" height="6.92" transform="translate(676.19 1332.49) rotate(-56.2)"/>
              <rect class="cls-2" x="1614.36" y="50.12" width="4.61" height="6.92" transform="translate(672.72 1367.14) rotate(-56.2)"/>
            </g>
          </g>
          <g>
            <g>
              <rect class="cls-3" x="268.92" y="887.99" width="6.92" height="6" transform="translate(-209.04 93.31) rotate(-14.11)"/>
              <polygon class="cls-3" points="308.07 895.52 278.93 902.85 277.59 897.52 270.88 899.21 273.9 911.25 316.47 900.54 313.45 888.51 306.74 890.19 308.07 895.52"/>
              <rect class="cls-3" x="302.08" y="867.77" width="6.92" height="6.92" transform="translate(-203.23 100.8) rotate(-14.11)"/>
              <rect class="cls-3" x="304.78" y="878.97" width="6.92" height="6" transform="translate(-205.78 101.8) rotate(-14.12)"/>
              <rect class="cls-3" x="263.11" y="863.25" width="43.9" height="4.73" transform="translate(-202.47 95.64) rotate(-14.11)"/>
              <rect class="cls-3" x="266.22" y="876.79" width="6.92" height="6.92" transform="translate(-206.51 92.33) rotate(-14.11)"/>
              <polygon class="cls-3" points="261.77 873.91 262.9 878.38 269.61 876.7 269.02 874.35 298.17 867.02 298.76 869.37 305.47 867.68 304.34 863.21 261.77 873.91"/>
              <rect class="cls-3" x="305.1" y="874.11" width="6.92" height="4.61" transform="translate(-204.38 101.68) rotate(-14.11)"/>
              <rect class="cls-3" x="269.24" y="883.13" width="6.92" height="4.61" transform="translate(-207.68 93.23) rotate(-14.11)"/>
              <rect class="cls-3" x="267.19" y="894.58" width="6.92" height="4.61" transform="translate(-210.54 93.07) rotate(-14.11)"/>
              <rect class="cls-3" x="303.05" y="885.57" width="6.92" height="4.61" transform="translate(-207.26 101.55) rotate(-14.11)"/>
            </g>
            <g>
              <rect class="cls-1" x="273.14" y="886.92" width="6.92" height="6" transform="translate(-208.66 94.31) rotate(-14.11)"/>
              <polygon class="cls-1" points="312.3 894.45 283.15 901.78 281.81 896.46 275.1 898.15 278.13 910.18 320.7 899.48 317.67 887.44 310.96 889.13 312.3 894.45"/>
              <rect class="cls-1" x="306.3" y="866.71" width="6.92" height="6.92" transform="translate(-202.84 101.8) rotate(-14.11)"/>
              <rect class="cls-1" x="309" y="877.91" width="6.92" height="6" transform="translate(-205.4 102.8) rotate(-14.12)"/>
              <rect class="cls-1" x="267.34" y="862.19" width="43.9" height="4.73" transform="translate(-202.09 96.64) rotate(-14.11)"/>
              <rect class="cls-1" x="270.44" y="875.72" width="6.92" height="6.92" transform="translate(-206.12 93.33) rotate(-14.11)"/>
              <polygon class="cls-1" points="266 872.85 267.13 877.32 273.84 875.63 273.25 873.28 302.39 865.95 302.98 868.3 309.7 866.62 308.57 862.14 266 872.85"/>
              <rect class="cls-1" x="309.32" y="873.05" width="6.92" height="4.61" transform="translate(-203.99 102.68) rotate(-14.11)"/>
              <rect class="cls-1" x="273.46" y="882.06" width="6.92" height="4.61" transform="translate(-207.29 94.22) rotate(-14.11)"/>
              <rect class="cls-1" x="271.42" y="893.52" width="6.92" height="4.61" transform="translate(-210.15 94.07) rotate(-14.11)"/>
              <rect class="cls-1" x="307.28" y="884.5" width="6.92" height="4.61" transform="translate(-206.88 102.55) rotate(-14.11)"/>
            </g>
            <g>
              <rect class="cls-2" x="271.13" y="887.43" width="6.92" height="6" transform="translate(-208.84 93.84) rotate(-14.11)"/>
              <polygon class="cls-2" points="310.29 894.96 281.14 902.29 279.8 896.97 273.09 898.65 276.12 910.69 318.69 899.98 315.66 887.95 308.95 889.64 310.29 894.96"/>
              <rect class="cls-2" x="304.29" y="867.21" width="6.92" height="6.92" transform="translate(-203.02 101.33) rotate(-14.11)"/>
              <rect class="cls-2" x="306.99" y="878.41" width="6.92" height="6" transform="translate(-205.56 102.31) rotate(-14.11)"/>
              <rect class="cls-2" x="265.33" y="862.69" width="43.9" height="4.73" transform="translate(-202.27 96.17) rotate(-14.11)"/>
              <rect class="cls-2" x="268.43" y="876.23" width="6.92" height="6.92" transform="translate(-206.3 92.86) rotate(-14.11)"/>
              <polygon class="cls-2" points="263.99 873.35 265.11 877.83 271.82 876.14 271.23 873.79 300.38 866.46 300.97 868.81 307.68 867.12 306.56 862.65 263.99 873.35"/>
              <rect class="cls-2" x="307.31" y="873.55" width="6.92" height="4.61" transform="translate(-204.21 102.23) rotate(-14.11)"/>
              <rect class="cls-2" x="271.45" y="882.57" width="6.92" height="4.61" transform="translate(-207.48 93.75) rotate(-14.11)"/>
              <rect class="cls-2" x="269.4" y="894.03" width="6.92" height="4.61" transform="translate(-210.33 93.6) rotate(-14.11)"/>
              <rect class="cls-2" x="305.26" y="885.01" width="6.92" height="4.61" transform="translate(-207.06 102.07) rotate(-14.11)"/>
            </g>
          </g>
          <g>
            <g>
              <rect class="cls-3" x="334.84" y="20.2" width="5.15" height="5.94" transform="translate(105.17 269.03) rotate(-50.56)"/>
              <polygon class="cls-3" points="352.5 50.15 332.56 33.75 335.55 30.11 330.96 26.34 324.19 34.57 353.31 58.52 360.08 50.29 355.49 46.51 352.5 50.15"/>
              <rect class="cls-3" x="365.01" y="33.03" width="5.94" height="5.94" transform="translate(106.4 297.32) rotate(-50.56)"/>
              <rect class="cls-3" x="359.36" y="40.38" width="5.15" height="5.94" transform="translate(98.54 295.34) rotate(-50.56)"/>
              <rect class="cls-3" x="359.38" y=".14" width="4.06" height="37.7" transform="translate(117.15 286.05) rotate(-50.56)"/>
              <rect class="cls-3" x="340.48" y="12.86" width="5.94" height="5.94" transform="translate(113.05 271.02) rotate(-50.56)"/>
              <polygon class="cls-3" points="343.8 7.13 341.28 10.2 345.87 13.97 347.2 12.36 367.13 28.77 365.81 30.37 370.4 34.15 372.92 31.09 343.8 7.13"/>
              <rect class="cls-3" x="363.96" y="37.77" width="3.96" height="5.94" transform="translate(102 297.46) rotate(-50.56)"/>
              <rect class="cls-3" x="339.43" y="17.59" width="3.96" height="5.94" transform="translate(108.65 271.17) rotate(-50.56)"/>
              <rect class="cls-3" x="330.47" y="22.02" width="3.96" height="5.94" transform="translate(101.95 265.86) rotate(-50.56)"/>
              <rect class="cls-3" x="355" y="42.2" width="3.96" height="5.94" transform="translate(95.32 292.17) rotate(-50.56)"/>
            </g>
            <g>
              <rect class="cls-1" x="337.73" y="22.58" width="5.15" height="5.94" transform="translate(104.38 272.13) rotate(-50.56)"/>
              <polygon class="cls-1" points="355.39 52.53 335.45 36.13 338.44 32.49 333.85 28.71 327.08 36.95 356.2 60.9 362.97 52.67 358.38 48.89 355.39 52.53"/>
              <rect class="cls-1" x="367.9" y="35.41" width="5.94" height="5.94" transform="translate(105.62 300.42) rotate(-50.56)"/>
              <rect class="cls-1" x="362.26" y="42.76" width="5.15" height="5.94" transform="translate(97.75 298.43) rotate(-50.56)"/>
              <rect class="cls-1" x="362.27" y="2.52" width="4.06" height="37.7" transform="translate(116.37 289.14) rotate(-50.56)"/>
              <rect class="cls-1" x="343.37" y="15.24" width="5.94" height="5.94" transform="translate(112.26 274.12) rotate(-50.56)"/>
              <polygon class="cls-1" points="346.69 9.51 344.17 12.57 348.76 16.35 350.09 14.74 370.02 31.14 368.7 32.75 373.29 36.53 375.81 33.47 346.69 9.51"/>
              <rect class="cls-1" x="366.85" y="40.15" width="3.96" height="5.94" transform="translate(101.23 300.57) rotate(-50.56)"/>
              <rect class="cls-1" x="342.32" y="19.97" width="3.96" height="5.94" transform="translate(107.86 274.27) rotate(-50.56)"/>
              <rect class="cls-1" x="333.36" y="24.4" width="3.96" height="5.94" transform="translate(101.17 268.97) rotate(-50.56)"/>
              <rect class="cls-1" x="357.89" y="44.58" width="3.96" height="5.94" transform="translate(94.54 295.27) rotate(-50.56)"/>
            </g>
            <g>
              <rect class="cls-2" x="336.35" y="21.45" width="5.15" height="5.94" transform="translate(104.76 270.66) rotate(-50.56)"/>
              <polygon class="cls-2" points="354.01 51.4 334.07 35 337.07 31.36 332.48 27.58 325.71 35.81 354.82 59.77 361.6 51.53 357.01 47.76 354.01 51.4"/>
              <rect class="cls-2" x="366.52" y="34.28" width="5.94" height="5.94" transform="translate(106 298.95) rotate(-50.56)"/>
              <rect class="cls-2" x="360.88" y="41.62" width="5.15" height="5.94" transform="translate(98.12 296.96) rotate(-50.56)"/>
              <rect class="cls-2" x="360.9" y="1.39" width="4.06" height="37.7" transform="translate(116.74 287.67) rotate(-50.56)"/>
              <rect class="cls-2" x="342" y="14.1" width="5.94" height="5.94" transform="translate(112.63 272.64) rotate(-50.56)"/>
              <polygon class="cls-2" points="345.31 8.38 342.8 11.44 347.39 15.22 348.71 13.61 368.65 30.01 367.33 31.62 371.92 35.39 374.43 32.33 345.31 8.38"/>
              <rect class="cls-2" x="365.47" y="39.01" width="3.96" height="5.94" transform="translate(101.6 299.1) rotate(-50.56)"/>
              <rect class="cls-2" x="340.94" y="18.84" width="3.96" height="5.94" transform="translate(108.23 272.79) rotate(-50.56)"/>
              <rect class="cls-2" x="331.98" y="23.27" width="3.96" height="5.94" transform="translate(101.54 267.49) rotate(-50.56)"/>
              <rect class="cls-2" x="356.51" y="43.44" width="3.96" height="5.94" transform="translate(94.91 293.79) rotate(-50.56)"/>
            </g>
          </g>
          <rect class="cls-2" x="1785.89" y="298.77" width="21.38" height="57.6"/>
          <rect class="cls-3" x="1778.47" y="329.33" width="10.69" height="10.69"/>
          <rect class="cls-3" x="1830.43" y="382.93" width="10.69" height="10.69"/>
          <rect class="cls-2" x="1715" y="700.51" width="10.69" height="10.69"/>
          <rect class="cls-1" x="370.14" y="311.14" width="49.58" height="4.98"/>
          <rect class="cls-3" x="1258.14" y="601.57" width="49.58" height="4.98"/>
          <rect class="cls-3" x="26.01" y="642.7" width="4.97" height="4.97"/>
          <rect class="cls-3" x="56.81" y="621.57" width="49.58" height="4.98"/>
          <rect class="cls-1" x="1551.26" y="574.29" width="34.66" height="4.98"/>
          <rect class="cls-1" x="1565.92" y="712.27" width="49.58" height="4.98"/>
          <rect class="cls-3" x="1325.77" y="328.26" width="49.58" height="4.98"/>
          <rect class="cls-3" x="399.54" y="550.94" width="49.58" height="4.98"/>
          <rect class="cls-3" x="1378.02" y="902.83" width="49.58" height="4.98"/>
          <rect class="cls-1" x="1299.56" y="834.94" width="49.58" height="4.98"/>
          <rect class="cls-3" x="1155.22" y="403.25" width="28.4" height="4.98"/>
          <rect class="cls-1" x="1239.85" y="298.62" width="28.4" height="4.98"/>
          <rect class="cls-1" x="1623.19" y="712.27" width="11.58" height="4.98"/>
          <rect class="cls-1" x="353.26" y="311.14" width="11.58" height="4.98"/>
          <rect class="cls-1" x="1580.45" y="748.8" width="11.58" height="4.98"/>
          <rect class="cls-3" x="383.35" y="550.94" width="11.58" height="4.98"/>
          <rect class="cls-3" x="1309.5" y="842.96" width="11.58" height="4.98"/>
          <rect class="cls-3" x="1580.45" y="781.28" width="11.58" height="4.98"/>
          <rect class="cls-3" x="1324.2" y="793.07" width="11.58" height="4.98"/>
          <rect class="cls-3" x="406.52" y="614.85" width="11.58" height="4.98"/>
        </g>
      </g>
    </g>
  </g>
</svg>