<?xml version="1.0" encoding="utf-8"?>
<!-- Generator: Adobe Illustrator 26.3.0, SVG Export Plug-In . SVG Version: 6.00 Build 0)  -->
<svg version="1.1" id="Capa_1" xmlns="http://www.w3.org/2000/svg" xmlns:xlink="http://www.w3.org/1999/xlink" x="0px" y="0px"
	 viewBox="0 0 1125 2536" style="enable-background:new 0 0 1125 2536;" xml:space="preserve">
<style type="text/css">
	.st0{fill:#CCFF9A;}
	.st1{fill:#FF4C2F;}
	.st2{fill:#FBC01A;}
	.st3{fill:#C7C7C7;}
</style>
<g>
	<path class="st0" d="M450.3,126.1c0,0.3,0,0.6,0,0.9c0,101.7,50.5,184.1,112.8,184.1c62.3,0,112.8-82.4,112.8-184.1
		c0-0.3,0-0.6,0-0.9H720h3V126h-3h-51.1c0,0,0,0,0,0.1c0,0.2,0,0.3,0,0.5c0,57.1-47.4,103.4-105.9,103.4
		c-58.5,0-105.9-46.3-105.9-103.4c0-0.2,0-0.3,0-0.5c0,0,0,0,0-0.1H434h-33v0.1h33H450.3z"/>
	<path class="st0" d="M1043.3,126.1H723h-3h-44.2c0,0.3,0,0.6,0,0.9c0,101.7-50.5,184.1-112.8,184.1c-62.3,0-112.8-82.4-112.8-184.1
		c0-0.3,0-0.6,0-0.9H434h-33H80.7c-31.9,0-57.7,42.2-57.7,94.2v1980.6c0,52,25.8,94.2,57.7,94.2h962.6c31.9,0,57.7-42.2,57.7-94.2
		V220.2C1101,168.2,1075.2,126.1,1043.3,126.1z"/>
	<path class="st0" d="M457.1,126.6c0,57.1,47.4,103.4,105.9,103.4c58.5,0,105.9-46.3,105.9-103.4c0-0.2,0-0.3,0-0.5c0,0,0,0,0-0.1
		C668.5,69.1,621.3,23.1,563,23.1c-58.3,0-105.5,46-105.9,102.9c0,0,0,0,0,0.1C457.1,126.2,457.1,126.4,457.1,126.6z M514.4,100.4
		c0-1,0.7-2,1.7-2.3l7.4-2.4c1.3-0.4,2.7,0.3,3.1,1.5c0.4,1.3-0.3,2.6-1.6,3.1l-7.4,2.4c-0.2,0.1-0.5,0.1-0.8,0.1v0
		C515.5,102.8,514.4,101.8,514.4,100.4z M609.1,102.7l-7.4-2.4c-1.3-0.4-2-1.8-1.6-3.1c0.4-1.3,1.8-2,3.1-1.5l7.4,2.4
		c1.3,0.4,2,1.8,1.6,3.1c-0.3,1-1.3,1.7-2.3,1.7C609.6,102.8,609.4,102.8,609.1,102.7z M617.3,83.5c0,1.3-1.1,2.4-2.5,2.8H600
		c-1.4-0.4-2.5-1.4-2.5-2.8s1.1-2.4,2.5-1.5h14.8C616.2,81.1,617.3,82.2,617.3,83.5z M597.5,66.8l7.4-2.4c1.3-0.4,2.7,0.3,3.1,1.5
		s-0.3,2.6-1.6,3.1l-7.4,2.4c-0.2,0.1-0.5,0.1-0.8,0.1v0c-1.4,0-2.5-1.1-2.5-2.4C595.8,68,596.5,67.1,597.5,66.8z M563,62.4
		c14.2,0,26.4,10,28.8,23.8l6.9,39.9l1,5.7c4.2,1.1,7.4,4.8,7.4,9.3v4.9c0,2.7-2.2,4.8-4.9,4.8H524c-2.7,0-4.9-2.2-4.9-4.8v-4.8
		c0-4.5,3-8.2,7.2-9.3l1-5.7l6.9-39.9C536.6,72.5,548.7,62.4,563,62.4z M518.7,65.9c0.4-1.3,1.8-2,3.1-1.5l7.4,2.4
		c1.3,0.4,2,1.8,1.6,3.1c-0.3,1-1.3,1.7-2.3,1.7c-0.3,0-0.5,0-0.8-0.1l-7.4-2.4C519,68.5,518.3,67.1,518.7,65.9z M511.2,82H526
		c1.4-0.9,2.5,0.2,2.5,1.5s-1.1,2.4-2.5,2.8h-14.8c-1.4-0.4-2.5-1.4-2.5-2.8S509.8,81.1,511.2,82z"/>
	<path class="st1" d="M526.3,131.8c0.8-0.2,1.7-0.4,2.6-0.4h21v-2.1c0-1.3,0.6-2.4,1.5-3.2c0.8-0.7,1.8-1.1,2.9-1.1h0.5h14.9
		c1.1,0,2.1,0.4,2.9,1.1c0.9,0.8,1.5,1.9,1.5,3.2v2.1h23.1c0.9,0,1.7,0.1,2.5,0.3l-1-5.7l-6.9-39.9c-2.4-13.7-14.6-23.8-28.8-23.8
		c-14.3,0-26.4,10-28.8,23.8l-6.9,39.9L526.3,131.8z M563,100.4c4.1,0,7.4,3.2,7.4,7.2c0,4-3.3,7.2-7.4,7.2s-7.4-3.2-7.4-7.2
		C555.6,103.6,558.9,100.4,563,100.4z"/>
	<ellipse class="st2" cx="563" cy="107.6" rx="7.4" ry="7.2"/>
	<path class="st3" d="M574.1,131.4v-2.1c0-1.3-0.6-2.4-1.5-3.2c-0.8-0.7-1.8-1.1-2.9-1.1h-14.9h-0.5c-1.1,0-2.1,0.4-2.9,1.1
		c-0.9,0.8-1.5,1.9-1.5,3.2v2.1h-21c-0.9,0-1.8,0.1-2.6,0.4c-4.1,1.1-7.2,4.9-7.2,9.3v4.8c0,2.7,2.2,4.8,4.9,4.8h78.1
		c2.7,0,4.9-2.2,4.9-4.8v-4.9c0-4.5-3.1-8.3-7.4-9.3c-0.8-0.2-1.6-0.3-2.5-0.3H574.1z"/>
	<path class="st2" d="M511.2,86.3H526c1.4-0.4,2.5-1.4,2.5-2.8s-1.1-2.4-2.5-1.5h-14.8c-1.4-0.9-2.5,0.2-2.5,1.5
		S509.8,85.9,511.2,86.3z"/>
	<path class="st2" d="M597.6,83.5c0,1.3,1.1,2.4,2.5,2.8h14.8c1.4-0.4,2.5-1.4,2.5-2.8s-1.1-2.4-2.5-1.5H600
		C598.7,81.1,597.6,82.2,597.6,83.5z"/>
	<path class="st2" d="M520.3,68.9l7.4,2.4c0.3,0.1,0.5,0.1,0.8,0.1c1.1,0,2-0.7,2.3-1.7c0.4-1.3-0.3-2.6-1.6-3.1l-7.4-2.4
		c-1.3-0.4-2.7,0.3-3.1,1.5C518.3,67.1,519,68.5,520.3,68.9z"/>
	<path class="st2" d="M517.7,102.7l7.4-2.4c1.3-0.4,2-1.8,1.6-3.1c-0.4-1.3-1.8-2-3.1-1.5l-7.4,2.4c-1,0.3-1.7,1.2-1.7,2.3
		c0,1.3,1.1,2.4,2.5,2.4v0C517.2,102.8,517.5,102.8,517.7,102.7z"/>
	<path class="st2" d="M598.3,71.5L598.3,71.5c0.3,0,0.5,0,0.8-0.1l7.4-2.4c1.3-0.4,2-1.8,1.6-3.1s-1.8-2-3.1-1.5l-7.4,2.4
		c-1,0.3-1.7,1.2-1.7,2.3C595.8,70.4,596.9,71.5,598.3,71.5z"/>
	<path class="st2" d="M612.2,101.2c0.4-1.3-0.3-2.6-1.6-3.1l-7.4-2.4c-1.3-0.4-2.7,0.3-3.1,1.5c-0.4,1.3,0.3,2.6,1.6,3.1l7.4,2.4
		c0.3,0.1,0.5,0.1,0.8,0.1C611,102.8,611.9,102.2,612.2,101.2z"/>
</g>
</svg>
