<?xml version="1.0" encoding="utf-8"?>
<!-- Generator: Adobe Illustrator 26.3.0, SVG Export Plug-In . SVG Version: 6.00 Build 0)  -->
<svg version="1.1" id="Capa_1" xmlns="http://www.w3.org/2000/svg" xmlns:xlink="http://www.w3.org/1999/xlink" x="0px" y="0px"
	 viewBox="0 0 750 1334" style="enable-background:new 0 0 750 1334;" xml:space="preserve">
<style type="text/css">
	.st0{fill:none;}
	.st1{fill:#CCFF9A;}
	.st2{fill:#FF4C2F;}
	.st3{fill:#FBC01A;}
	.st4{fill:#C7C7C7;}
</style>
<g>
	<path class="st0" d="M359.3,33c3.8-2.9,8.7-4.6,14-4.6s10.2,1.7,14,4.6h0.8c-3.9-3.4-9.1-5.4-14.8-5.4s-11,2.1-14.8,5.4H359.3z"/>
	<path class="st0" d="M449.8,77c0.1-1.7,0.2-3.4,0.2-5.1c0,1.7-0.1,3.4-0.3,5.1H449.8z"/>
	<path class="st0" d="M340.9,31.3l5.4,1.7h0.2l-5.4-1.7c-1-0.3-1.3-1.3-1-2.1c0.3-0.7,1-1.1,1.9-1.1c-0.9-0.2-1.7,0.3-2,1.1
		C339.6,30.1,340.1,31.1,340.9,31.3z"/>
	<path class="st0" d="M295.3,77c-0.2-1.7-0.3-3.4-0.3-5.1c0,1.7,0.1,3.4,0.2,5.1H295.3z"/>
	<path class="st1" d="M372.5,164.2L372.5,164.2c3.7,0,7.4-0.3,11-0.9C379.9,163.9,376.2,164.2,372.5,164.2z"/>
	<path class="st1" d="M316.8,119.7c3.1,3,6.5,5.7,10.2,8.1C323.3,125.4,319.9,122.7,316.8,119.7z"/>
	<path class="st1" d="M310.2,112.7c1.3,1.7,2.8,3.3,4.3,4.8C313,115.9,311.6,114.3,310.2,112.7z"/>
	<path class="st1" d="M297.2,87.4c0.8,3.1,1.9,6.1,3.1,9C299.1,93.5,298,90.5,297.2,87.4z"/>
	<path class="st1" d="M295.5,81.1h0.3c-0.2-1.4-0.4-2.8-0.5-4.1h-0.1C295.2,78.4,295.4,79.8,295.5,81.1z"/>
	<path class="st1" d="M449.2,81.1h0.3c-1.4,14.6-5.6,28.2-11.8,40c6.3-11.8,10.4-25.4,11.8-40c0.1-1.4,0.3-2.8,0.3-4.1h-0.1
		C449.6,78.4,449.4,79.8,449.2,81.1z"/>
	<path class="st1" d="M411,40.2c-0.3,0-0.6,0-0.9,0.3h0C410.4,40.3,410.8,40.2,411,40.2z"/>
	<path class="st1" d="M400.5,52.7l5.5,1.7c0.3,0.1,0.5,0.1,0.6,0.1c0,0,0,0,0.1,0c-0.3,0-0.4-0.1-0.6-0.1l-5.3-1.7
		c-1-0.3-1.4-1.3-1.1-2.1c0.3-0.7,1-1.1,1.9-1.1c-0.9-0.2-1.7,0.3-2,1.1C399.2,51.5,399.9,52.5,400.5,52.7z"/>
	<path class="st1" d="M337.4,51.3l5.5-1.7c1-0.4,1.9,0.1,2.3,1c0.1,0.2,0.1,0.4,0.1,0.5c0-0.2,0-0.4-0.1-0.7c-0.3-0.8-1.3-1.3-2.3-1
		l-5.5,1.7c-0.8,0.1-1.3,0.8-1.3,1.5c0,0,0,0.1,0,0.1C336.1,52.2,336.6,51.6,337.4,51.3z"/>
	<path class="st1" d="M334.7,40.6c-0.9-0.8-1.7-0.1-1.7,0.8C333.1,40.6,333.8,39.9,334.7,40.6z"/>
	<path class="st1" d="M398.6,40.3c0.1,0,0.2-0.1,0.3-0.1C398.8,40.2,398.7,40.3,398.6,40.3z"/>
	<path class="st1" d="M399.8,43.4c-0.5-0.2-0.9-0.5-1.2-0.8C398.9,42.9,399.4,43.2,399.8,43.4L399.8,43.4z"/>
	<path class="st1" d="M334.7,43.4c-0.9-0.4-1.7-1.2-1.7-2C333.1,42.3,333.8,43,334.7,43.4z"/>
	<path class="st1" d="M346.5,33h-0.2l0.1,0c0.3,0.1,0.5,0.1,0.6,0.1c0,0,0.1,0,0.1,0C346.9,33.1,346.7,33,346.5,33L346.5,33z"/>
	<path class="st1" d="M372.5,52.9c2.8,0,5,1.8,5.4,4.2c-0.3-2.4-2.6-4.3-5.4-4.3c-2.8,0-5.1,1.9-5.4,4.3
		C367.5,54.7,369.7,52.9,372.5,52.9z"/>
	<path class="st1" d="M367,57.6C367,57.7,367,57.7,367,57.6c0,0,0-0.1,0-0.1C367,57.5,367,57.6,367,57.6z"/>
	<path class="st1" d="M438,33h-0.1c0,0.1,0.1,0.1,0.1,0.2V33z"/>
	<path class="st1" d="M395.8,74.1c1,0,2,0.1,2.8,0.4c2.6,0.9,4.6,3.2,4.6,5.8v3.2c0,1.7-1.6,3.2-3.6,3.2h-57.3c-0.5,0-1-0.1-1.4-0.3
		c0.6,1,1.8,1.7,3,1.7h57.3c1.9,0,3.6-1.5,3.6-3.4v-3.4c0-2.8-1.8-5.2-4.5-6.2l-0.1-0.8c-0.9-0.2-1.7-0.4-2.6-0.4H395.8z"/>
	<path class="st1" d="M378,57.5c0,0.1,0,0.1,0,0.2c0,0,0,0,0,0C378,57.6,378,57.5,378,57.5z"/>
	<path class="st1" d="M394.4,44.1l1,5.3l-1-5.6c-0.8-4.3-3.1-8-6.3-10.8h-0.8C391,35.8,393.5,39.6,394.4,44.1z"/>
	<path class="st1" d="M347.2,70.5l5-26.4c0.9-4.5,3.5-8.3,7.1-11.1h-0.9c-3.2,2.8-5.5,6.5-6.3,10.8l-5,27.3l-0.5,3.1h0L347.2,70.5z"
		/>
	<path class="st1" d="M380.6,72.9V74v0.1h1.6v-1.4c0-0.9-0.5-1.6-1.1-2.2c-0.5-0.4-1.3-0.7-2.1-0.7h-1.6c0.8,0,1.4,0.3,2.1,0.7
		C380.1,71.2,380.6,72.1,380.6,72.9z"/>
	<path class="st1" d="M437.7,121.1c-3.1,5.9-6.8,11.3-10.9,16.2C430.9,132.5,434.5,127,437.7,121.1z"/>
	<path class="st1" d="M418.9,145.5c2.8-2.5,5.4-5.3,7.9-8.2C424.3,140.3,421.7,143,418.9,145.5z"/>
	<path class="st1" d="M418.9,145.5c-2.8,2.5-5.7,4.8-8.7,6.9C413.2,150.4,416.1,148.1,418.9,145.5z"/>
	<path class="st1" d="M348.1,137.7c-3.3-1-6.5-2.2-9.5-3.5C341.6,135.6,344.8,136.7,348.1,137.7z"/>
	<path class="st1" d="M403.9,156.2c-6.4,3.5-13.3,5.9-20.4,7.1C390.7,162.1,397.5,159.6,403.9,156.2z"/>
	<path class="st1" d="M372.5,141.3L372.5,141.3c-3.7,0-7.2-0.2-10.8-0.7C365.3,141.1,368.8,141.3,372.5,141.3z"/>
	<path class="st1" d="M703.4,70H449.8c0,0.1,0,0.1,0,0.3s0,0.1,0,0.3c-0.1-13.7-4.4-26.5-11.8-37.4c0-0.1-0.1-0.1-0.1-0.2
		C424.2,13.2,400,0,372.5,0c-42.6,0-77.3,31.5-77.3,70.5c0-0.1,0-0.1,0-0.3c0-0.1,0-0.1,0-0.3H41.6C19.7,70,2,91.5,2,118.1v1011.8
		c0,26.6,17.7,48.1,39.6,48.1h661.7c21.9,0,39.6-21.5,39.6-48.1V118.1C743,91.5,725.3,70,703.4,70z M450,71.9c0,1.7-0.1,3.4-0.2,5.1
		c-0.1,1.4-0.2,2.8-0.3,4.1c-1.4,14.6-5.6,28.2-11.8,40c-3.1,5.9-6.8,11.3-10.9,16.2c-2.5,2.9-5.1,5.7-7.9,8.2s-5.7,4.8-8.7,6.9
		c3-2.1,6-4.4,8.7-6.9s5.4-5.3,7.9-8.2c4.1-4.9,7.8-10.3,10.9-16.2c6.3-11.8,10.4-25.4,11.8-40h-0.3c0.2-1.4,0.4-2.8,0.5-4.1
		C449.9,75.3,450,73.6,450,71.9z M334.7,40.6H345c0.9-0.8,1.7-0.1,1.7,0.8s-0.8,1.6-1.7,2h-10.3c-0.9-0.4-1.7-1.1-1.7-2
		S333.8,39.8,334.7,40.6z M336.1,52.7c0-0.7,0.5-1.4,1.3-1.5l5.5-1.7c1-0.3,1.9,0.1,2.3,1c0.1,0.2,0.1,0.4,0.1,0.7
		c0,0.7-0.5,1.3-1.2,1.6l-5.5,1.7c-0.2,0-0.5,0-0.6,0.1c-1,0-1.8-0.7-1.8-1.7C336.1,52.9,336.1,52.9,336.1,52.7
		C336.1,52.8,336.1,52.8,336.1,52.7z M399.6,50.6c0.3-0.8,1.1-1.3,2-1.1c0.1,0,0.3,0,0.4,0.1l5.5,1.7c1,0.3,1.4,1.3,1.1,2.1
		c-0.3,0.7-1,1.1-1.8,1.1c0,0-0.1,0-0.1,0c0,0,0,0-0.1,0c-0.2,0-0.3,0-0.6-0.1l-5.5-1.7C399.9,52.5,399.2,51.5,399.6,50.6z
		 M398.6,42.6c-0.3-0.3-0.5-0.7-0.5-1.2c0-0.5,0.2-0.9,0.5-1c0.1,0,0.2-0.1,0.3-0.1c0.3,0,0.6,0,0.9,0.3h10.3
		c0.3-0.3,0.7-0.4,0.9-0.3c0.4,0.1,0.7,0.6,0.7,1.1c0,0.9-0.8,1.6-1.7,2h0h-10.3h0C399.4,43.2,398.9,42.9,398.6,42.6z M383.5,163.3
		c-3.6,0.6-7.3,0.9-11,0.9l0,0C376.2,164.2,379.9,163.9,383.5,163.3c7.2-1.2,14-3.7,20.4-7.1C397.5,159.6,390.7,162.1,383.5,163.3z
		 M316.8,119.7c3.1,3,6.5,5.7,10.2,8.1C323.3,125.4,319.9,122.7,316.8,119.7z M372.5,141.3c-3.7,0-7.2-0.2-10.8-0.7
		C365.3,141.1,368.8,141.3,372.5,141.3L372.5,141.3z M338.6,134.2c3.1,1.4,6.3,2.6,9.5,3.5C344.8,136.7,341.6,135.6,338.6,134.2z
		 M314.5,117.5c-1.5-1.5-2.9-3.1-4.3-4.8C311.6,114.3,313,115.9,314.5,117.5z M300.3,96.4c-1.3-2.9-2.3-5.9-3.1-9
		C298,90.5,299.1,93.5,300.3,96.4z M397,29.8l5.5-1.7c1-0.4,1.9,0.1,2.3,1c0.3,0.8-0.2,1.8-1.1,2.1l-5.5,1.7
		c-0.3,0.1-0.5,0.1-0.6,0.1c-1,0-1.8-0.7-1.8-1.7C395.7,30.6,396.2,30.1,397,29.8z M373.2,27.6c5.7,0,11,2.1,14.8,5.4
		c3.2,2.8,5.5,6.5,6.3,10.8l1,5.6l4,21.1l0.8,4.1c-0.1,0-0.1,0-0.2,0l0.1,0.8c2.7,1,4.5,3.4,4.5,6.2v3.4c0,1.8-1.6,3.4-3.6,3.4
		h-57.3c-1.3,0-2.4-0.7-3-1.7c-1.2-0.5-2.1-1.6-2.1-2.9v-3.1c0-3.1,2.7-5.8,6.1-6.2c0.5-0.1,0.8-0.1,1.1-0.1h0.7l0.5-3.1l5-27.3
		c0.8-4.3,3.1-8,6.3-10.8C362.3,29.6,367.5,27.6,373.2,27.6z M340,29.2c0.3-0.8,1.1-1.3,2-1.1c0.1,0,0.3,0,0.4,0.1l5.5,1.7
		c1,0.3,1.4,1.3,1.1,2.1c-0.3,0.7-1,1.1-1.8,1.1c0,0,0,0-0.1,0c0,0-0.1,0-0.1,0c-0.2,0-0.3,0-0.6-0.1l-0.1,0l-5.4-1.7
		C340.1,31.1,339.6,30.1,340,29.2z M295.3,77c0.1,1.4,0.3,2.8,0.5,4.1h-0.3c-0.1-1.4-0.3-2.8-0.3-4.1c-0.1-1.7-0.2-3.4-0.2-5.1
		C295,73.6,295.1,75.3,295.3,77z"/>
	<path class="st2" d="M387.3,33c-3.8-2.9-8.7-4.6-14-4.6s-10.2,1.7-14,4.6c-3.6,2.8-6.2,6.6-7.1,11.1l-5,26.4l-0.6,3.7
		c0.2,0,0.5,0,0.8,0h15.5v-1.3c0-1,0.5-1.7,1.1-2.2c0.5-0.4,1.3-0.7,2.1-0.7h0.3h1.3h0.3h9.3h1.6c0.8,0,1.6,0.3,2.1,0.7
		c0.6,0.5,1.1,1.2,1.1,2.2v1.4h13.6h1.7c0.9,0,1.7,0.1,2.6,0.4c0.1,0,0.1,0,0.2,0l-0.8-4.1l-4-21.1l-1-5.3
		C393.5,39.6,391,35.8,387.3,33z M378,57.8c0,2.7-2.5,4.9-5.5,4.9s-5.5-2.2-5.5-4.9c0,0,0-0.1,0-0.1c0,0,0,0,0,0c0,0,0-0.1,0-0.1
		c0-0.1,0-0.3,0-0.4c0.3-2.4,2.6-4.3,5.4-4.3c2.8,0,5.1,1.9,5.4,4.3c0,0.1,0,0.3,0,0.4c0,0,0,0.1,0,0.1C378,57.7,378,57.7,378,57.8
		C378,57.7,378,57.7,378,57.8z"/>
	<path class="st3" d="M377.9,57.1c-0.4-2.4-2.7-4.2-5.4-4.2s-5,1.8-5.4,4.2c0,0.1,0,0.3,0,0.4c0,0.1,0,0.1,0,0.2c0,0,0,0.1,0,0.1
		c0,2.7,2.5,4.9,5.5,4.9s5.5-2.2,5.5-4.9c0,0,0-0.1,0-0.1c0-0.1,0-0.1,0-0.2C378,57.4,377.9,57.2,377.9,57.1z"/>
	<path class="st4" d="M399.5,86.7c2,0,3.6-1.5,3.6-3.2v-3.2c0-2.7-2-4.9-4.6-5.8c-0.8-0.3-1.8-0.4-2.8-0.4h-13.6h-1.6V74v-1.1
		c0-0.8-0.5-1.7-1.1-2.2c-0.6-0.4-1.3-0.7-2.1-0.7H368h-0.3h-1.3h-0.3c-0.8,0-1.6,0.3-2.1,0.7c-0.6,0.6-1.1,1.3-1.1,2.2v1.3h-15.5
		c-0.3,0-0.6,0-0.8,0h0h-0.7c-0.3,0-0.6,0-1.1,0.1c-3.4,0.4-6.1,3-6.1,6.2v3.1c0,1.3,0.9,2.4,2.1,2.9c0.4,0.2,0.9,0.3,1.4,0.3H399.5
		z"/>
	<path class="st3" d="M334.7,43.4H345c0.9-0.4,1.7-1.1,1.7-2s-0.8-1.6-1.7-0.8h-10.3c-0.9-0.7-1.7,0-1.7,0.8
		C333.1,42.2,333.8,43,334.7,43.4z"/>
	<path class="st3" d="M410.1,43.4L410.1,43.4c0.9-0.4,1.7-1.1,1.7-2c0-0.6-0.3-1.1-0.7-1.1c-0.3,0-0.6,0-0.9,0.3h0h-10.3
		c-0.3-0.3-0.7-0.4-0.9-0.3c-0.1,0-0.2,0-0.3,0.1c-0.3,0.2-0.5,0.6-0.5,1c0,0.5,0.2,0.9,0.5,1.2s0.7,0.6,1.2,0.8H410.1z"/>
	<path class="st3" d="M340.1,29.2c-0.3,0.8,0,1.8,1,2.1l5.4,1.7l0.1,0c0.1,0,0.3,0.1,0.6,0.1c0,0,0,0,0.1,0c0.8,0,1.4-0.4,1.8-1.1
		c0.3-0.8-0.2-1.8-1.1-2.1l-5.5-1.7c-0.1,0-0.3-0.1-0.4-0.1C341.2,28.1,340.4,28.5,340.1,29.2z"/>
	<path class="st3" d="M337.9,54.6c0.2-0.1,0.5-0.1,0.6-0.1l5.5-1.7c0.8-0.2,1.2-0.9,1.2-1.6c0-0.2,0-0.4-0.1-0.5
		c-0.3-0.8-1.3-1.4-2.3-1l-5.5,1.7c-0.8,0.3-1.3,0.8-1.3,1.5c0,0,0,0,0,0.1C336.1,53.9,336.9,54.6,337.9,54.6z"/>
	<path class="st3" d="M397.5,33c0.2,0,0.3,0,0.6-0.1l5.5-1.7c1-0.3,1.4-1.3,1.1-2.1c-0.3-0.8-1.3-1.4-2.3-1l-5.5,1.7
		c-0.8,0.3-1.3,0.8-1.3,1.5C395.7,32.3,396.5,33,397.5,33z"/>
	<path class="st3" d="M399.7,50.6c-0.3,0.8,0.2,1.8,1.1,2.1l5.3,1.7c0.1,0,0.3,0.1,0.6,0.1c0,0,0.1,0,0.1,0c0.8,0,1.4-0.4,1.8-1.1
		c0.3-0.8-0.2-1.8-1.1-2.1l-5.5-1.7c-0.1,0-0.3-0.1-0.4-0.1C400.8,49.5,400,49.9,399.7,50.6z"/>
</g>
</svg>
