<?xml version="1.0" encoding="utf-8"?>
<!-- Generator: Adobe Illustrator 26.3.0, SVG Export Plug-In . SVG Version: 6.00 Build 0)  -->
<svg version="1.1" id="Capa_1" xmlns="http://www.w3.org/2000/svg" xmlns:xlink="http://www.w3.org/1999/xlink" x="0px" y="0px"
	 viewBox="0 0 1125 2281" style="enable-background:new 0 0 1125 2281;" xml:space="preserve">
<style type="text/css">
	.st0{fill:#CCFF9A;}
	.st1{fill:#FF4C2F;}
	.st2{fill:#FBC01A;}
	.st3{fill:#C7C7C7;}
</style>
<g>
	<g>
		<path class="st0" d="M1043.6,107.7h-320h-3h-44.3c0,0,0,0,0,0c0.3,102.1-50.4,185-113,185s-113.3-82.9-113-185c0,0,0,0,0,0h-16
			h-33H80.9c-31.9,0-57.7,42.2-57.7,94.2v1980.6c0,52,25.8,94.2,57.7,94.2h962.6c31.9,0,57.7-42.2,57.7-94.2V201.8
			C1101.3,149.8,1075.4,107.7,1043.6,107.7z"/>
		<rect x="409.2" y="107.7" class="st0" width="305" height="224"/>
		<path class="st0" d="M457.2,108.4c0,57.2,47.4,103.5,106,103.5s106-46.3,106-103.5c0-0.2,0-0.3,0-0.5c0,0,0,0,0-0.1
			c-0.4-57-47.6-103-106-103s-105.6,46-106,103c0,0,0,0,0,0.1S457.2,108.2,457.2,108.4z M514.5,82.2c0-1,0.7-2,1.7-2.3l7.4-2.4
			c1.3-0.4,2.7,0.3,3.1,1.5c0.4,1.3-0.3,2.6-1.6,3.1l-7.4,2.4c-0.2,0.1-0.5,0.1-0.8,0.1l0,0C515.6,84.6,514.5,83.6,514.5,82.2z
			 M609.2,84.5l-7.4-2.4c-1.3-0.4-2-1.8-1.6-3.1c0.4-1.3,1.8-2,3.1-1.5l7.4,2.4c1.3,0.4,2,1.8,1.6,3.1c-0.3,1-1.3,1.7-2.3,1.7
			C609.7,84.6,609.5,84.6,609.2,84.5z M616.7,65.1c0,1.2-1,2.2-2.3,2.6h-13.8c-1.3-0.4-2.3-1.3-2.3-2.6c0-1.3,1-2.2,2.3-1.4h13.8
			C615.7,62.8,616.7,63.8,616.7,65.1z M597.6,48.6l7.4-2.4c1.3-0.4,2.7,0.3,3.1,1.5s-0.3,2.6-1.6,3.1l-7.4,2.4
			c-0.2,0.1-0.5,0.1-0.8,0.1l0,0c-1.4,0-2.5-1.1-2.5-2.4C595.9,49.8,596.6,48.9,597.6,48.6z M563.1,44.3c14.2,0,26.4,10,28.8,23.8
			l6.9,39.9l1,5.7c4.2,1.1,7.4,4.8,7.4,9.3v4.9c0,2.7-2.1,4.8-4.8,4.8h-78.3c-2.7,0-4.9-2.2-4.9-4.8v-4.8c0-4.5,3-8.2,7.2-9.3l1-5.7
			l6.9-39.9C536.7,54.4,548.8,44.3,563.1,44.3z M518.8,47.7c0.4-1.3,1.8-2,3.1-1.5l7.4,2.4c1.3,0.4,2,1.8,1.6,3.1
			c-0.3,1-1.3,1.7-2.3,1.7c-0.3,0-0.5,0-0.8-0.1l-7.4-2.4C519.1,50.3,518.4,48.9,518.8,47.7z M511.8,63.7h13.8
			c1.3-0.8,2.3,0.2,2.3,1.4s-1,2.2-2.3,2.6h-13.8c-1.3-0.4-2.3-1.3-2.3-2.6C509.5,63.8,510.5,62.8,511.8,63.7z"/>
		<path class="st1" d="M526.4,113.6c0.8-0.2,1.7-0.4,2.6-1h21.3v-1.5c-0.3-1.3,0.3-2.4,1.2-3.2c0.8-0.7,1.8-1.1,2.9-1.3h0.5h14.9
			c1.1,0.2,2.1,0.6,2.9,1.3c0.9,0.8,1.5,1.9,1.6,3.2v1.5h23c0.9,0.6,1.7,0.7,2.5,0.9l-1-5.7l-6.9-39.9
			c-2.4-13.7-14.6-23.8-28.8-23.8c-14.3,0-26.4,10-28.8,23.8l-6.9,39.9L526.4,113.6z M563.1,82.2c4.1,0,7.4,3.2,7.4,7.2
			s-3.3,7.2-7.4,7.2s-7.4-3.2-7.4-7.2S559,82.2,563.1,82.2z"/>
		<ellipse class="st2" cx="563.1" cy="89.4" rx="7.4" ry="7.2"/>
		<path class="st3" d="M574.2,112.7v-2c0-1.2-0.6-2.2-1.5-3c-0.8-0.7-1.8-1-2.9-1h-14.8h-0.5c-1.1,0-2.1,0.4-2.9,1
			c-0.9,0.8-1.5,1.8-1.5,3v2h-21.2c-0.9,0-1.8,0.1-2.6,0.4c-4.1,1.1-7.2,5.1-7.2,9.6v5c0,2.8,2.2,5,4.9,5h78.2c2.7,0,4.9-2.3,4.9-5
			v-5.1c0-4.7-3.1-8.6-7.4-9.6c-0.8-0.2-1.6-0.3-2.5-0.3H574.2z"/>
		<path class="st2" d="M511.8,67.7h13.8c1.3-0.4,2.3-1.3,2.3-2.6c0-1.3-1-2.2-2.3-1.4h-13.8c-1.3-0.8-2.3,0.2-2.3,1.4
			S510.5,67.3,511.8,67.7z"/>
		<path class="st2" d="M598.4,65.1c0,1.2,1,2.2,2.3,2.6h13.8c1.3-0.4,2.3-1.3,2.3-2.6c0-1.3-1-2.2-2.3-1.4h-13.9
			C599.4,62.8,598.4,63.8,598.4,65.1z"/>
		<path class="st2" d="M520.4,50.7l7.4,2.4c0.3,0.1,0.5,0.1,0.8,0.1c1.1,0,2-0.7,2.3-1.7c0.4-1.3-0.3-2.6-1.6-3.1l-7.4-2.4
			c-1.3-0.4-2.7,0.3-3.1,1.5C518.4,48.9,519.1,50.3,520.4,50.7z"/>
		<path class="st2" d="M517.8,84.5l7.4-2.4c1.3-0.4,2-1.8,1.6-3.1c-0.4-1.3-1.8-2-3.1-1.5l-7.4,2.4c-1,0.3-1.7,1.2-1.7,2.3
			c0,1.3,1.1,2.4,2.5,2.4l0,0C517.3,84.6,517.6,84.6,517.8,84.5z"/>
		<path class="st2" d="M598.4,53.3L598.4,53.3c0.3,0,0.5,0,0.8-0.1l7.4-2.4c1.3-0.4,2-1.8,1.6-3.1s-1.8-2-3.1-1.5l-7.4,2.4
			c-1,0.3-1.7,1.2-1.7,2.3C595.9,52.2,597,53.3,598.4,53.3z"/>
		<path class="st2" d="M612.3,83c0.4-1.3-0.3-2.6-1.6-3.1l-7.4-2.4c-1.3-0.4-2.7,0.3-3.1,1.5c-0.4,1.3,0.3,2.6,1.6,3.1l7.4,2.4
			c0.3,0.1,0.5,0.1,0.8,0.1C611.1,84.6,612,84,612.3,83z"/>
	</g>
</g>
</svg>
