<?xml version="1.0" encoding="UTF-8"?>
<svg id="Capa_2" data-name="Capa 2" xmlns="http://www.w3.org/2000/svg" viewBox="0 0 460.03 615.59">
  <defs>
    <style>
      .cls-1 {
        fill: #ccff9a;
      }

      .cls-2 {
        fill: #ff4c2f;
      }

      .cls-2, .cls-3, .cls-4 {
        stroke: #000;
        stroke-miterlimit: 10;
        stroke-width: .77px;
      }

      .cls-3 {
        fill: #fbc01a;
      }

      .cls-4 {
        fill: #c7c7c7;
      }
    </style>
  </defs>
  <g id="Capa_1-2" data-name="Capa 1-2">
    <rect class="cls-1" y="48.12" width="460.03" height="567.47" rx="24.62" ry="24.62"/>
    <circle class="cls-1" cx="230.01" cy="48.12" r="48.12"/>
    <g id="Capa_1-2-2" data-name="Capa 1-2">
      <path class="cls-2" d="M230.01,18.01h0c-6.48,0-12.01,4.67-13.09,11.06l-3.74,22.04h33.66l-3.74-22.04c-1.08-6.39-6.62-11.06-13.09-11.06Z"/>
      <path class="cls-4" d="M226.65,47.18h6.73c1.24,0,2.24,1,2.24,2.24v1.68h-11.22v-1.68c0-1.24,1-2.24,2.24-2.24Z"/>
      <circle class="cls-3" cx="230.01" cy="39.32" r="3.37"/>
      <path class="cls-4" d="M214.31,50.54h31.42c2.48,0,4.49,2.01,4.49,4.49v2.24c0,1.24-1,2.24-2.24,2.24h-35.9c-1.24,0-2.24-1-2.24-2.24v-2.24c0-2.48,2.01-4.49,4.49-4.49Z"/>
      <path class="cls-3" d="M206.45,26.98h6.73c.62,0,1.12,.5,1.12,1.12h0c0,.62-.5,1.12-1.12,1.12h-6.73c-.62,0-1.12-.5-1.12-1.12h0c0-.62,.5-1.12,1.12-1.12Z"/>
      <path class="cls-3" d="M246.84,26.98h6.73c.62,0,1.12,.5,1.12,1.12h0c0,.62-.5,1.12-1.12,1.12h-6.73c-.62,0-1.12-.5-1.12-1.12h0c0-.62,.5-1.12,1.12-1.12Z"/>
      <path class="cls-3" d="M214.31,22.49c-.12,0-.24-.02-.36-.06l-3.37-1.12c-.59-.19-.91-.83-.71-1.42s.83-.91,1.42-.71c0,0,0,0,0,0l3.37,1.12c.59,.2,.91,.83,.71,1.42-.15,.46-.58,.77-1.06,.77Z"/>
      <path class="cls-3" d="M208.7,37.08c-.62,0-1.12-.5-1.12-1.12,0-.48,.31-.91,.77-1.06l3.37-1.12c.59-.2,1.22,.12,1.42,.71,.2,.59-.12,1.22-.71,1.42,0,0,0,0,0,0l-3.37,1.12c-.11,.04-.23,.06-.36,.06Z"/>
      <path class="cls-3" d="M245.72,22.49c-.62,0-1.12-.5-1.12-1.12,0-.48,.31-.91,.77-1.06l3.37-1.12c.59-.2,1.22,.12,1.42,.71,.2,.59-.12,1.22-.71,1.42,0,0,0,0,0,0l-3.37,1.12c-.11,.04-.23,.06-.36,.06Z"/>
      <path class="cls-3" d="M251.33,37.08c-.12,0-.24-.02-.36-.06l-3.37-1.12c-.59-.19-.91-.83-.71-1.42s.83-.91,1.42-.71c0,0,0,0,0,0l3.37,1.12c.59,.2,.91,.83,.71,1.42-.15,.46-.58,.77-1.06,.77Z"/>
    </g>
  </g>
</svg>