<?xml version="1.0" encoding="UTF-8"?>
<svg id="Capa_2" data-name="Capa 2" xmlns="http://www.w3.org/2000/svg" viewBox="0 0 1740.6 877.8">
  <defs>
    <style>
      .cls-1 {
        fill: #d9830b;
      }

      .cls-2 {
        fill: #ad8384;
      }

      .cls-3 {
        fill: #2b2547;
      }

      .cls-4 {
        fill: none;
      }

      .cls-5 {
        fill: #723151;
      }
    </style>
  </defs>
  <polygon class="cls-3" points="394.1 878.2 48.7 877.8 55.3 767.4 369 737.2 394.1 878.2"/>
  <path class="cls-3" d="M64,338.4s-35.1,22.3-41.6,59c-6.5,36.7-14.4,161.6-14.4,161.6l72.9-2.2-16.9-218.4h0Z"/>
  <path class="cls-3" d="M238.2,278.3c-5.9-3.3-11.8-6.5-17.7-9.8-1.9-1-24.1-62.6-28.7-100.7-1.6-13.1,4.8-50.5-.6-62.4-5.5-12-14-22.8-25.3-29.4-7.7-4.5-16.5-6.9-25.4-8.2-27.9-4.2-58.2,2.3-79.2,21.1-10,8.9-18.1,21.6-16.2,34.9,2.5,17.2,5,34.4,7.4,51.6,2.6,17.9,5.2,35.8,10.6,53,3.6,11.2,8.7,22.6,18,29.8,8.3,6.4,19.1,8.9,29.6,8.8s14.3-1,24.5-3.4c.4,7.1,.9,14.8,1.3,22,.1,2.1,.2,4.3-.4,6.3-.6,1.8-1.8,3.3-3.1,4.7-3.5,3.8-7.7,7-12.4,9.4,6.3,17.1,21.6,33.2,39.8,35.1,10.9,1.1,21.9-2.4,31.6-7.5,21.5-11.4,38.2-32.3,46.2-55.3h0Z"/>
  <path class="cls-2" d="M114.2,189.6s33.8-9.2,34-3.1-31.7,34.1-32,22.8c-.3-11.4-2-19.7-2-19.7h0Z"/>
  <path class="cls-3" d="M184.2,184.2l-15.6,1-3.3-53.9c-6.3,.9-13.2,1-18.8-2.1-5.9-3.2-9.5-10.2-8.8-16.9-4.3,2.3-10,3.4-14.8,3.1-4.1-.3-8.1-2.3-10.7-5.5s-3.9-7.4-3.5-11.5c.9,4.4-1.1,8.4-3.8,12.1-2.6,3.7-6.5,6.4-10.8,8-2,.8-4.1,1.3-6.2,1.1-1.4-.2-2.7-.7-3.9-1.2-2.3-.9-4.5-1.8-6.5-3.2-2-1.4-3.7-3.4-4.2-5.8,.5,4.2-1.9,7.8-4.7,10.9-2.8,3.1-6.7,5.2-10.7,6.5-3.8,1.2-7.9,1.8-11.7,.6l2.5,22.5c-4.9,3.8-12.7,4.9-18.7,3.4s-11.4-5.1-15.4-9.8c-4.3-4.9-7.2-11-7.8-17.5-.5-6.5,1.6-13.2,6.3-17.8C2.3,100.8-3,86.7,1.7,74.5s17.6-20.5,30.7-20.4c-2.3-11.7,1.5-23.8,11.2-30.6,9.8-6.8,23.5-7.2,33.7-1C80.5,10.7,89.9,1.9,102,.3s25,5.3,30,16.4C136.8,5.7,149.3,0,161.1,2.6c11.7,2.5,20.9,14.1,20.7,26.1,9.6-6.7,23.2-4.9,31.9,2.9,8.7,7.7,11.2,21.6,5.7,31.9,6.1-2.9,13.3-.8,17.7,4.4s6,12.2,6.1,18.9c.1,3.2-.1,6.4-1.3,9.4-2.5,6.5-8.8,10.6-15.1,13.4,3.5,.9,4.8,3.3,6.5,6.6,1.7,3.3,2.2,7,1.9,10.7-.3,4.6-1.8,9.3-4.8,12.9-2.9,3.6-7.4,6.1-12,6.2,3.7,5.9,3.8,13.1,.7,19.4s-8.7,11.1-15.1,14.1c-6.3,2.8-12.8,4.3-19.8,4.7h0Z"/>
  <g>
    <ellipse class="cls-3" cx="191.74" cy="170.38" rx="24.7" ry="17.4" transform="translate(-23.34 310.14) rotate(-74.64)"/>
    <path class="cls-3" d="M202.7,165.3c.9-3.4-.6-7.2-3.5-9.1-2.9-1.9-7.1-1.7-9.8,.5-1.6,1.4-2.7,3.3-3.5,5.2-1.7,3.9-2.5,8.1-3.4,12.3,1.3-.6,2.7-1.2,4.2-1.2s3,.5,3.9,1.8,.8,3.1,.1,4.5-1.8,2.5-3,3.5c-2,1.7-4.2,3.3-6.8,3.5"/>
    <path class="cls-3" d="M204.7,183.5c-2.8,6.5-9.2,11.3-16.3,12.1-2.4,.2-5,0-6.9-1.5"/>
  </g>
  <path class="cls-3" d="M172,207.2s-.6,21.8-8.7,34.3c-8,12.6-28.2,22-28.2,22l.6,9.6s29.3-15.5,33.7-32.9c2.6-10.1,2.6-33,2.6-33h0Z"/>
  <path class="cls-3" d="M86.3,155.4c-1.1,17.2-1.5,34.4-.9,51.6,0,.4,0,.7,.3,1s.8,.4,1.3,.3c4.1-.1,8.2-.2,12.4-.4"/>
  <path class="cls-3" d="M76.4,211.7c3.7,5.5,9,9.9,15,12.4,2.2,.9,4.7,1.7,7.1,1.4,1.9-.2,3.7-1,5.3-1.9,5.7-3.2,10.2-8.6,12.4-14.9"/>
  <path class="cls-3" d="M115.9,173.8c1.6,3.7,4.5,6,6.6,5.1,2-.9,2.4-4.6,.8-8.3s-4.5-6-6.6-5.1-2.4,4.6-.8,8.3Z"/>
  <path class="cls-3" d="M64.5,176.9c1.6,3.7,4.5,6,6.6,5.1,2-.9,2.4-4.6,.8-8.3s-4.5-6-6.6-5.1c-2,.9-2.4,4.6-.8,8.3Z"/>
  <g>
    <path class="cls-3" d="M138.5,153.6c-2.7-5.2-7.1-9.4-12.4-11.9-5.3-2.5-11.3-3.2-17-1.9"/>
    <path class="cls-3" d="M53.8,158.7c2-5.4,5.9-10.2,10.8-13.3,4.9-3.1,10.9-4.5,16.7-4"/>
  </g>
  <path class="cls-3" d="M228.4,272.9s89.2,28.9,109.5,60.3,6.7,177.6,14.7,239.8,34.1,163.1,34.1,163.1c0,0-71.8,38.5-156.2,47.8s-175.1-16.6-175.1-16.6l12.9-346.8-4.3-82.1,68.9-41.9s2.8,29.2,32.6,26.5,62.9-50.1,62.9-50.1h0Z"/>
  <path class="cls-3" d="M115.7,307s12.2,41.9,50.6,39.5,83.7-65.9,83.7-65.9"/>
  <g>
    <polygon class="cls-3" points="53.9 433.5 131.2 428.8 92 310.3 14.7 315 53.9 433.5"/>
    <polygon class="cls-5" points="137.1 428.4 131.2 428.8 92 310.3 97.9 309.9 137.1 428.4"/>
    <path class="cls-3" d="M31.2,329.9l5.3-.3c3-.2,4.8-2.4,4-4.9h0c-.8-2.5-4-4.4-7-4.2l-5.4,.3c-3,.2-4.8,2.4-4,4.9h0c1,2.5,4.1,4.4,7.1,4.2Z"/>
    <path class="cls-3" d="M31.2,329.9l16.2-1c3-.2,4.8-2.4,4-4.9h0c-.8-2.5-4-4.4-7-4.2l-16.2,1c-3,.2-4.8,2.4-4,4.9h0c.9,2.5,4,4.4,7,4.2Z"/>
    <polygon class="cls-3" points="28.8 326.7 36.7 326.2 35.9 323.8 28 324.3 28.8 326.7"/>
  </g>
  <g>
    <path class="cls-3" d="M323,576.3c2.1,.9,39.9,24.3,39.9,24.3l-16.4-40.3-23.5,16h0Z"/>
    <path class="cls-3" d="M343.7,571.8c-21.4,32.4-47.5,61.7-77,87-58.8-56.5-101.5-127.9-142.7-198.2-9.7-2.2-19.4-4.3-29.1-6.5-5.6-1.2-12.2-3.5-13.3-9.1-1-5.2,3.5-10.3,2.5-15.5-.5-2.6-2.4-4.8-3.1-7.4-.6-2.4-.2-5,1.2-7,.8-1.1,1.8-2.2,2-3.5,.1-1.2-.6-2.4-1.2-3.5-2.9-5.8-1.5-14.8,4.7-16.5-5.7-5-11.5-10-17.2-15.1-1.2-1-2.4-2.1-3.8-2.8-1.7-.9-3.7-1.3-5.5-2-6-2.2-10.4-8.2-10.8-14.7,29.2,1.3,74.4,35.1,74.4,35.1l-6.7-20.9s33.4,25.5,41.6,70l107.1,116.2,15.7-50.2s21.7,13.2,34.8,27.8,26.4,36.8,26.4,36.8h0Z"/>
    <path class="cls-3" d="M35.8,445.4s-18.3-40-13.4-48,50.3-35.2,50.3-35.2l10,7.9-30.2,22.2,41.6-6.2-.7,55.7-24.1,4.9s6.8,114.8,1,151.3-25.1,53.6-25.1,53.6c0,0-35.6-28.6-29.2-77.8,6.5-49.3,19.8-128.4,19.8-128.4h0Z"/>
    <path class="cls-3" d="M328.4,322.6s44.5,29.2,58.5,83.4-23.9,194.6-23.9,194.6c0,0-35.8-51.7-55.6-68.2-19.8-16.5-27.5-16.5-27.5-16.5l48.5-193.3h0Z"/>
    <path class="cls-3" d="M294.9,591.9c-5.7-7.1-22.8-27-28-34.5"/>
    <line class="cls-4" x1="315.4" y1="374.5" x2="279.8" y2="515.8"/>
  </g>
  <path class="cls-3" d="M83.4,387.8s.5,3.7-.2,5.8c-.8,2.1-2.4,3.9-3.4,5.9-1.8,3.7-1.6,8.3,.7,11.7,.6,.9,1.3,1.7,1.3,2.8,0,1-.7,1.9-1.3,2.8-3.1,4.8-2.4,11.7,1.6,15.7,.5,.5,1.1,1,1.2,1.7s-.2,1.3-.6,1.9c-1.2,2.5-1.6,5.5-1.1,8.3"/>
  <g>
    <line class="cls-4" x1="82.5" y1="172.6" x2="97" y2="171.7"/>
    <line class="cls-4" x1="145.9" y1="168.7" x2="174.8" y2="166.9"/>
  </g>
  <path class="cls-3" d="M165.1,132c3.8,2.8,8.5,4.8,13.1,3.8,5.5-1.1,9.4-5.8,12.8-10.3"/>
  <path class="cls-3" d="M24.3,108c-1,3.8,.2,8.2,3.2,10.9,3,2.7,7.4,3.5,11.2,2,1,3.2,4.1,5.7,7.5,5.8"/>
  <path class="cls-3" d="M161.3,52.9c4.2-1.8,9.4-2,13.3,.4s6.2,7.6,4.5,11.9c4.4,.5,8.8,2.5,11.4,6.1,2.6,3.6,3.1,8.8,.6,12.5"/>
  <path class="cls-3" d="M56.9,74.9c-1-7.1,3.1-14.6,9.7-17.4s14.9-.8,19.3,4.8c2.6-5,9.9-6.9,14.6-3.7"/>
  <path class="cls-1" d="M218.9,270.7s-17.2,30.2-50.1,33.8c.1,0,43.3,2,50.1-33.8h0Z"/>
  <path class="cls-2" d="M181.4,148.3s15.6-28.2,29.5-7c0,0-14.5-25-29.5,7Z"/>
  <path class="cls-2" d="M186.6,201.5s-2.3,57.5-73.8,65.4c0,0,50.7-10.7,73.8-65.4h0Z"/>
  <path class="cls-2" d="M192.8,208.8l18.1,68.1,9.5-8.4-22.7-69.9s-8.7-3.9-4.9,10.2h0Z"/>
  <path class="cls-1" d="M230.2,276.9s1.2,39.8-72.3,43.6c0,0,27.8-2.8,46.8-.7s58,10.1,58,10.1c0,0,55.4-15.9,84.8,16.7s39.4,59.3,39.4,59.3c0,0-25.2-101.1-156.7-129h0Z"/>
  <path class="cls-1" d="M305.7,357s-32.4,55.9-38.9,64.2c-6.5,8.3-16.9,40.3-16.9,40.3,0,0,58.5,44.4,55.8,50.6-2.7,6.2-7.1-29.3-47.1-56,0,0,26.3,2.7,30.2,5.4l-22-17.2s37.4-88.7,76.8-87.4"/>
  <path class="cls-2" d="M156.4,441.3s-16.9-46.9-23.1-49.8l-13.7-15.5c-.2-1.2-.6-2.5-.6-2.5,0,0,8.8,2.2,15.5,14.2,6.8,12,26.5,48.5,27,53.6,.4,5.1-5.1,0-5.1,0h0Z"/>
</svg>