<?xml version="1.0" encoding="utf-8"?>
<!-- Generator: Adobe Illustrator 27.9.1, SVG Export Plug-In . SVG Version: 6.00 Build 0)  -->
<svg version="1.1" id="Capa_1" xmlns="http://www.w3.org/2000/svg" xmlns:xlink="http://www.w3.org/1999/xlink" x="0px" y="0px"
	 viewBox="0 0 751.4 1146" style="enable-background:new 0 0 751.4 1146;" xml:space="preserve">
<style type="text/css">
	.st0{fill:#FCEE21;}
	.st1{fill:#93278F;}
	.st2{fill:#FFFFFF;}
</style>
<rect x="647.2" y="435.5" class="st0" width="21.4" height="57.6"/>
<rect x="520.2" y="237.4" class="st1" width="10.7" height="10.7"/>
<rect x="126.9" y="262.4" class="st0" width="5" height="5"/>
<rect x="479.7" y="124.6" class="st0" width="5" height="5"/>
<rect x="49.5" y="207.5" class="st1" width="5" height="5"/>
<rect x="84.2" y="747.3" class="st1" width="5" height="5"/>
<polygon class="st1" points="233.9,836.7 229,828.9 220,834.5 217.1,847.2 "/>
<polygon class="st1" points="196.5,825.5 193.6,838.3 199.4,847.4 190.2,853.2 187.3,866 196.6,860.1 202.4,834.8 "/>
<polygon class="st1" points="207.2,842.5 206.3,841 202.8,856.2 204.3,855.3 208.4,861.9 213.8,838.4 "/>
<polygon class="st1" points="185.7,825.7 189.7,832 192.1,821.7 "/>
<polygon class="st1" points="177.6,861.1 181.6,867.4 184,857.1 "/>
<polygon class="st1" points="217.9,877 225.8,872.1 215.3,855.3 212.3,868.1 "/>
<polygon class="st1" points="180.9,870.3 181.9,871.8 186.6,868.9 189.5,856.1 183.3,860 "/>
<polygon class="st1" points="189,835 192.9,841.2 195.9,828.4 192.9,823.7 191.4,824.6 "/>
<polygon class="st1" points="203.2,854.4 206.7,839.2 202.8,833 197,858.3 "/>
<polygon class="st1" points="207.6,865.3 211.5,871.5 214.5,858.7 211.4,853.8 216.3,850.7 219.3,837.9 213,841.8 "/>
<polygon class="st0" points="235,831.9 230.1,824.1 221.1,829.7 218.2,842.5 "/>
<polygon class="st0" points="197.6,820.7 194.7,833.5 200.4,842.6 191.3,848.4 188.4,861.2 197.7,855.3 203.5,830 "/>
<polygon class="st0" points="208.3,837.7 207.4,836.2 203.9,851.4 205.4,850.5 209.5,857.1 214.9,833.6 "/>
<polygon class="st0" points="186.8,820.9 190.8,827.3 193.2,816.9 "/>
<polygon class="st0" points="178.7,856.3 182.7,862.7 185.1,852.3 "/>
<polygon class="st0" points="219,872.3 226.9,867.3 216.3,850.5 213.4,863.3 "/>
<polygon class="st0" points="182,865.6 183,867.1 187.7,864.1 190.6,851.3 184.4,855.2 "/>
<polygon class="st0" points="190.1,830.2 194,836.4 197,823.6 194,818.9 192.5,819.8 "/>
<polygon class="st0" points="204.3,849.6 207.8,834.4 203.9,828.2 198.1,853.5 "/>
<polygon class="st0" points="208.7,860.5 212.6,866.7 215.6,854 212.5,849 217.4,845.9 220.3,833.1 214.1,837 "/>
<polygon class="st2" points="234.5,834.2 229.5,826.4 220.6,832 217.7,844.7 "/>
<polygon class="st2" points="197.1,823 194.2,835.8 199.9,844.9 190.8,850.7 187.8,863.4 197.2,857.6 203,832.3 "/>
<polygon class="st2" points="207.8,840 206.9,838.5 203.4,853.7 204.9,852.8 209,859.4 214.4,835.8 "/>
<polygon class="st2" points="186.3,823.2 190.3,829.5 192.7,819.2 "/>
<polygon class="st2" points="178.2,858.6 182.2,864.9 184.6,854.6 "/>
<polygon class="st2" points="218.5,874.5 226.4,869.6 215.8,852.8 212.9,865.6 "/>
<polygon class="st2" points="181.5,867.8 182.4,869.3 187.2,866.4 190.1,853.6 183.9,857.5 "/>
<polygon class="st2" points="189.6,832.5 193.5,838.7 196.4,825.9 193.5,821.2 192,822.1 "/>
<polygon class="st2" points="203.8,851.9 207.3,836.7 203.4,830.5 197.6,855.8 "/>
<polygon class="st2" points="208.2,862.8 212.1,869 215,856.2 211.9,851.3 216.9,848.2 219.8,835.4 213.6,839.3 "/>
<path class="st1" d="M572.9,931.3l-5.4-3c-0.1,0.3-0.2,0.5-0.4,0.8c-0.8,1.4-1.8,2.7-3,3.7l5.6,3.1c1-1.1,2-2.4,2.8-3.8
	C572.7,931.9,572.8,931.6,572.9,931.3L572.9,931.3z"/>
<path class="st1" d="M564.6,904.3c-4.3-2.4-9.2-3.1-13.7-2.2l22.8,12.6C572,910.4,568.9,906.7,564.6,904.3L564.6,904.3z"/>
<path class="st1" d="M568.8,924.1l5.7,3.2c0.6-2.3,0.8-4.7,0.6-7l-7.5-4.1C568.7,918.6,569.1,921.4,568.8,924.1L568.8,924.1z"/>
<path class="st1" d="M545.5,911.2c2.1-1.8,4.7-2.9,7.4-3.2l-7.5-4.1c-2.1,1-4,2.5-5.6,4.2L545.5,911.2z"/>
<path class="st1" d="M542.6,914.5l-5.4-3c-0.1,0.2-0.3,0.5-0.5,0.7c-0.8,1.4-1.4,2.9-1.8,4.4l5.6,3.1c0.3-1.5,0.8-3.1,1.6-4.5
	C542.3,915,542.4,914.8,542.6,914.5L542.6,914.5z"/>
<path class="st1" d="M547.7,934.7c-3.9-2.2-6.4-5.9-7.1-10l-6.4-3.5c-0.4,7.6,3.4,15.1,10.5,19s15.5,3.2,21.7-1.2l-6.4-3.5
	C556.1,937,551.6,936.8,547.7,934.7z"/>
<path class="st1" d="M571.5,913.5l-22.8-12.6c-1.9,0.4-3.7,1-5.5,1.8l7.5,4.1c2.9-0.4,5.9,0.1,8.7,1.7c2.7,1.5,4.8,3.8,6,6.5
	l7.5,4.1C572.7,917.2,572.2,915.3,571.5,913.5L571.5,913.5z"/>
<path class="st1" d="M570.1,924.9c-0.2,1.4-0.6,2.8-1.3,4.2l5.4,3c0.7-1.3,1.2-2.7,1.5-4L570.1,924.9z"/>
<path class="st1" d="M538.5,912.3l5.4,3c0.8-1.3,1.8-2.4,2.9-3.3l-5.7-3.2C540.2,909.9,539.3,911,538.5,912.3L538.5,912.3z"/>
<path class="st1" d="M557.5,934l6.4,3.5c1.2-0.9,2.4-1.9,3.4-3l-5.6-3.1C560.4,932.5,559,933.4,557.5,934L557.5,934z"/>
<path class="st1" d="M532.4,915.2c-0.4,1.5-0.7,3-0.7,4.5l6.4,3.5c-0.3-1.6-0.3-3.3,0-4.9L532.4,915.2z"/>
<path class="st0" d="M576.4,933.3l-5.4-3c-0.1,0.3-0.2,0.5-0.4,0.8c-0.8,1.4-1.8,2.7-3,3.7l5.6,3.1c1-1.1,2-2.4,2.8-3.8
	C576.2,933.8,576.3,933.5,576.4,933.3L576.4,933.3z"/>
<path class="st0" d="M568.1,906.2c-4.3-2.4-9.2-3.1-13.7-2.2l22.8,12.6C575.5,912.4,572.4,908.6,568.1,906.2z"/>
<path class="st0" d="M572.3,926.1l5.7,3.2c0.6-2.3,0.8-4.7,0.6-7l-7.5-4.1C572.2,920.6,572.7,923.4,572.3,926.1L572.3,926.1z"/>
<path class="st0" d="M549,913.2c2.1-1.8,4.7-2.9,7.4-3.2l-7.5-4.1c-2.1,1-4,2.5-5.6,4.2L549,913.2z"/>
<path class="st0" d="M546.1,916.5l-5.4-3c-0.1,0.2-0.3,0.5-0.5,0.7c-0.8,1.4-1.4,2.9-1.8,4.4l5.6,3.1c0.3-1.5,0.8-3.1,1.6-4.5
	C545.8,916.9,546,916.7,546.1,916.5L546.1,916.5z"/>
<path class="st0" d="M551.2,936.6c-3.9-2.2-6.4-5.9-7.1-10l-6.4-3.5c-0.4,7.6,3.4,15.1,10.5,19s15.5,3.2,21.7-1.2l-6.4-3.5
	C559.7,938.9,555.1,938.8,551.2,936.6z"/>
<path class="st0" d="M575.1,915.4l-22.8-12.6c-1.9,0.4-3.7,1-5.5,1.8l7.5,4.1c2.9-0.4,5.9,0.1,8.7,1.7c2.7,1.5,4.8,3.8,6,6.5
	l7.5,4.1C576.2,919.1,575.8,917.2,575.1,915.4L575.1,915.4z"/>
<path class="st0" d="M573.6,926.8c-0.2,1.4-0.6,2.8-1.3,4.2l5.4,3c0.7-1.3,1.2-2.7,1.5-4L573.6,926.8z"/>
<path class="st0" d="M542,914.2l5.4,3c0.8-1.3,1.8-2.4,2.9-3.3l-5.7-3.2C543.7,911.8,542.8,913,542,914.2z"/>
<path class="st0" d="M561,935.9l6.4,3.5c1.2-0.9,2.4-1.9,3.4-3l-5.6-3.1C563.9,934.5,562.5,935.3,561,935.9z"/>
<path class="st0" d="M535.9,917.2c-0.4,1.5-0.7,3-0.7,4.5l6.4,3.5c-0.3-1.6-0.3-3.3,0-4.9L535.9,917.2z"/>
<path class="st2" d="M574.8,932.4l-5.4-3c-0.1,0.3-0.2,0.5-0.4,0.8c-0.8,1.4-1.8,2.7-3,3.7l5.6,3.1c1-1.1,2-2.4,2.8-3.8
	C574.5,932.9,574.6,932.6,574.8,932.4L574.8,932.4z"/>
<path class="st2" d="M566.4,905.3c-4.3-2.4-9.2-3.1-13.7-2.2l22.8,12.6C573.9,911.4,570.7,907.7,566.4,905.3L566.4,905.3z"/>
<path class="st2" d="M570.6,925.2l5.7,3.2c0.6-2.3,0.8-4.7,0.6-7l-7.5-4.1C570.6,919.7,571,922.4,570.6,925.2L570.6,925.2z"/>
<path class="st2" d="M547.3,912.3c2.1-1.8,4.7-2.9,7.4-3.2l-7.5-4.1c-2.1,1-4,2.5-5.6,4.2L547.3,912.3z"/>
<path class="st2" d="M544.4,915.5l-5.4-3c-0.1,0.2-0.3,0.5-0.5,0.7c-0.8,1.4-1.4,2.9-1.8,4.4l5.6,3.1c0.3-1.5,0.8-3.1,1.6-4.5
	C544.1,916,544.3,915.8,544.4,915.5L544.4,915.5z"/>
<path class="st2" d="M549.6,935.7c-3.9-2.2-6.4-5.9-7.1-10l-6.4-3.5c-0.4,7.6,3.4,15.1,10.5,19s15.5,3.2,21.7-1.2l-6.4-3.5
	C558,938,553.5,937.9,549.6,935.7z"/>
<path class="st2" d="M573.4,914.5l-22.8-12.6c-1.9,0.4-3.7,1-5.5,1.8l7.5,4.1c2.9-0.4,5.9,0.1,8.7,1.7c2.7,1.5,4.8,3.8,6,6.5
	l7.5,4.1C574.5,918.2,574.1,916.3,573.4,914.5L573.4,914.5z"/>
<path class="st2" d="M571.9,925.9c-0.2,1.4-0.6,2.8-1.3,4.2l5.4,3c0.7-1.3,1.2-2.7,1.5-4L571.9,925.9z"/>
<path class="st2" d="M540.4,913.3l5.4,3c0.8-1.3,1.8-2.4,2.9-3.3l-5.7-3.2C542,910.9,541.1,912,540.4,913.3L540.4,913.3z"/>
<path class="st2" d="M559.3,935l6.4,3.5c1.2-0.9,2.4-1.9,3.4-3l-5.6-3.1C562.2,933.5,560.8,934.4,559.3,935L559.3,935z"/>
<path class="st2" d="M534.3,916.2c-0.4,1.5-0.7,3-0.7,4.5l6.4,3.5c-0.3-1.6-0.3-3.3,0-4.9L534.3,916.2z"/>
<path class="st1" d="M101.9,232.1l-4.7-2.6c-0.1,0.2-0.2,0.4-0.3,0.7c-0.7,1.3-1.6,2.3-2.6,3.2l4.9,2.7c0.9-1,1.7-2.1,2.4-3.3
	C101.7,232.6,101.8,232.4,101.9,232.1z"/>
<path class="st1" d="M94.7,208.6c-3.8-2.1-8-2.7-11.9-1.9l19.8,11C101.1,214,98.4,210.7,94.7,208.6z"/>
<path class="st1" d="M98.3,225.9l4.9,2.7c0.5-2,0.7-4.1,0.5-6.1l-6.5-3.6C98.2,221.1,98.6,223.5,98.3,225.9z"/>
<path class="st1" d="M78.1,214.7c1.8-1.5,4.1-2.5,6.4-2.8l-6.5-3.6c-1.8,0.9-3.5,2.1-4.9,3.6L78.1,214.7z"/>
<path class="st1" d="M75.6,217.5l-4.7-2.6c-0.1,0.2-0.3,0.4-0.4,0.6c-0.7,1.2-1.2,2.5-1.5,3.8l4.9,2.7c0.2-1.3,0.7-2.7,1.4-3.9
	C75.3,217.9,75.4,217.7,75.6,217.5z"/>
<path class="st1" d="M80,235c-3.4-1.9-5.6-5.1-6.2-8.7l-5.5-3.1c-0.3,6.6,3,13.1,9.1,16.5c6.1,3.4,13.4,2.8,18.8-1l-5.5-3.1
	C87.3,237,83.4,236.9,80,235L80,235z"/>
<path class="st1" d="M100.7,216.6l-19.8-11c-1.6,0.3-3.2,0.8-4.8,1.6l6.5,3.6c2.5-0.3,5.2,0.1,7.5,1.4s4.2,3.3,5.2,5.6l6.5,3.6
	C101.7,219.8,101.3,218.2,100.7,216.6L100.7,216.6z"/>
<path class="st1" d="M99.5,226.5c-0.2,1.2-0.5,2.5-1.1,3.6l4.7,2.6c0.6-1.1,1-2.3,1.3-3.5L99.5,226.5z"/>
<path class="st1" d="M72,215.6l4.7,2.6c0.7-1.1,1.5-2.1,2.5-2.9l-4.9-2.7C73.5,213.5,72.7,214.5,72,215.6L72,215.6z"/>
<path class="st1" d="M88.5,234.4l5.5,3.1c1.1-0.7,2.1-1.6,3-2.6l-4.9-2.7C91,233.2,89.8,233.9,88.5,234.4L88.5,234.4z"/>
<path class="st1" d="M66.7,218.1c-0.4,1.3-0.6,2.6-0.6,3.9l5.5,3.1c-0.2-1.4-0.2-2.8,0-4.2L66.7,218.1z"/>
<path class="st0" d="M105,233.8l-4.7-2.6c-0.1,0.2-0.2,0.4-0.3,0.7c-0.7,1.3-1.6,2.3-2.6,3.2l4.9,2.7c0.9-1,1.7-2.1,2.4-3.3
	C104.8,234.3,104.9,234.1,105,233.8L105,233.8z"/>
<path class="st0" d="M97.7,210.3c-3.8-2.1-8-2.7-11.9-1.9l19.8,11C104.2,215.6,101.5,212.4,97.7,210.3z"/>
<path class="st0" d="M101.4,227.6l4.9,2.7c0.5-2,0.7-4.1,0.5-6.1l-6.5-3.6C101.3,222.8,101.7,225.2,101.4,227.6L101.4,227.6z"/>
<path class="st0" d="M81.1,216.4c1.8-1.5,4.1-2.5,6.4-2.8l-6.5-3.6c-1.8,0.9-3.5,2.1-4.9,3.6L81.1,216.4L81.1,216.4z"/>
<path class="st0" d="M78.6,219.2l-4.7-2.6c-0.1,0.2-0.3,0.4-0.4,0.6c-0.7,1.2-1.2,2.5-1.5,3.8l4.9,2.7c0.2-1.3,0.7-2.7,1.4-3.9
	C78.4,219.6,78.5,219.4,78.6,219.2L78.6,219.2z"/>
<path class="st0" d="M83.1,236.7c-3.4-1.9-5.6-5.1-6.2-8.7l-5.5-3.1c-0.3,6.6,3,13.1,9.1,16.5c6.1,3.4,13.4,2.8,18.8-1l-5.5-3.1
	C90.4,238.7,86.5,238.6,83.1,236.7L83.1,236.7z"/>
<path class="st0" d="M103.8,218.3l-19.8-11c-1.6,0.3-3.2,0.8-4.8,1.6l6.5,3.6c2.5-0.3,5.2,0.1,7.5,1.4s4.2,3.3,5.2,5.6l6.5,3.6
	C104.8,221.5,104.4,219.9,103.8,218.3L103.8,218.3z"/>
<path class="st0" d="M102.5,228.2c-0.2,1.2-0.5,2.5-1.1,3.6l4.7,2.6c0.6-1.1,1-2.3,1.3-3.5L102.5,228.2L102.5,228.2z"/>
<path class="st0" d="M75.1,217.3l4.7,2.6c0.7-1.1,1.5-2.1,2.5-2.9l-4.9-2.7C76.5,215.2,75.7,216.2,75.1,217.3L75.1,217.3z"/>
<path class="st0" d="M91.6,236.1l5.5,3.1c1.1-0.7,2.1-1.6,3-2.6l-4.9-2.7C94.1,234.9,92.9,235.6,91.6,236.1L91.6,236.1z"/>
<path class="st0" d="M69.8,219.8c-0.4,1.3-0.6,2.6-0.6,3.9l5.5,3.1c-0.2-1.4-0.2-2.8,0-4.2L69.8,219.8L69.8,219.8z"/>
<path class="st2" d="M103.5,233l-4.7-2.6c-0.1,0.2-0.2,0.4-0.3,0.7c-0.7,1.3-1.6,2.3-2.6,3.2l4.9,2.7c0.9-1,1.7-2.1,2.4-3.3
	C103.3,233.5,103.4,233.2,103.5,233L103.5,233z"/>
<path class="st2" d="M96.3,209.5c-3.8-2.1-8-2.7-11.9-1.9l19.8,11C102.7,214.8,100,211.6,96.3,209.5L96.3,209.5z"/>
<path class="st2" d="M99.9,226.8l4.9,2.7c0.5-2,0.7-4.1,0.5-6.1l-6.5-3.6C99.9,222,100.2,224.4,99.9,226.8z"/>
<path class="st2" d="M79.7,215.6c1.8-1.5,4.1-2.5,6.4-2.8l-6.5-3.6c-1.8,0.9-3.5,2.1-4.9,3.6L79.7,215.6z"/>
<path class="st2" d="M77.2,218.4l-4.7-2.6c-0.1,0.2-0.3,0.4-0.4,0.6c-0.7,1.2-1.2,2.5-1.5,3.8l4.9,2.7c0.2-1.3,0.7-2.7,1.4-3.9
	C76.9,218.8,77,218.6,77.2,218.4L77.2,218.4z"/>
<path class="st2" d="M81.6,235.9c-3.4-1.9-5.6-5.1-6.2-8.7l-5.5-3.1c-0.3,6.6,3,13.1,9.1,16.5c6.1,3.4,13.4,2.8,18.8-1l-5.5-3.1
	C88.9,237.9,85,237.8,81.6,235.9L81.6,235.9z"/>
<path class="st2" d="M102.3,217.5l-19.8-11c-1.6,0.3-3.2,0.8-4.8,1.6l6.5,3.6c2.5-0.3,5.2,0.1,7.5,1.4s4.2,3.3,5.2,5.6l6.5,3.6
	C103.3,220.7,102.9,219.1,102.3,217.5L102.3,217.5z"/>
<path class="st2" d="M101.1,227.4c-0.2,1.2-0.5,2.5-1.1,3.6l4.7,2.6c0.6-1.1,1-2.3,1.3-3.5L101.1,227.4z"/>
<path class="st2" d="M73.6,216.5l4.7,2.6c0.7-1.1,1.5-2.1,2.5-2.9l-4.9-2.7C75.1,214.4,74.3,215.4,73.6,216.5z"/>
<path class="st2" d="M90.1,235.3l5.5,3.1c1.1-0.7,2.1-1.6,3-2.6l-4.9-2.7C92.6,234,91.4,234.8,90.1,235.3z"/>
<path class="st2" d="M68.3,219c-0.4,1.3-0.6,2.6-0.6,3.9l5.5,3.1c-0.2-1.4-0.2-2.8,0-4.2L68.3,219L68.3,219z"/>
<rect x="443.5" y="150.2" transform="matrix(0.5563 -0.831 0.831 0.5563 70.3986 439.157)" class="st1" width="6" height="6.9"/>
<polygon class="st1" points="467,183.2 442,166.5 445.1,161.9 439.3,158.1 432.4,168.4 468.9,192.8 475.8,182.5 470.1,178.6 "/>
<rect x="479.9" y="161.6" transform="matrix(0.5563 -0.831 0.831 0.5563 77.3144 474.8509)" class="st1" width="6.9" height="6.9"/>
<rect x="474.2" y="170.8" transform="matrix(0.5563 -0.831 0.831 0.5563 66.9406 473.8202)" class="st1" width="6" height="6.9"/>
<rect x="471.4" y="124.1" transform="matrix(0.5563 -0.831 0.831 0.5563 88.8305 458.5013)" class="st1" width="4.7" height="43.9"/>
<rect x="449.2" y="141" transform="matrix(0.5563 -0.831 0.831 0.5563 80.7762 440.1929)" class="st1" width="6.9" height="6.9"/>
<polygon class="st1" points="452,134.3 449.5,138.2 455.2,142 456.6,140 481.5,156.7 480.2,158.7 485.9,162.6 488.5,158.8 "/>
<rect x="479.2" y="167.3" transform="matrix(0.5563 -0.831 0.831 0.5563 71.7598 475.8793)" class="st1" width="4.6" height="6.9"/>
<rect x="448.5" y="146.7" transform="matrix(0.5563 -0.831 0.831 0.5563 75.2193 441.218)" class="st1" width="4.6" height="6.9"/>
<rect x="438.6" y="152.9" transform="matrix(0.5563 -0.831 0.831 0.5563 65.7207 435.7466)" class="st1" width="4.6" height="6.9"/>
<rect x="469.3" y="173.4" transform="matrix(0.5563 -0.8309 0.8309 0.5563 62.2518 470.3948)" class="st1" width="4.6" height="6.9"/>
<rect x="447.1" y="152.6" transform="matrix(0.5563 -0.831 0.831 0.5563 69.9899 443.2408)" class="st0" width="6" height="6.9"/>
<polygon class="st0" points="470.6,185.6 445.7,168.9 448.7,164.3 443,160.5 436.1,170.8 472.5,195.2 479.4,184.9 473.7,181 "/>
<rect x="483.5" y="164" transform="matrix(0.5563 -0.831 0.831 0.5563 76.9108 478.9415)" class="st0" width="6.9" height="6.9"/>
<rect x="477.8" y="173.2" transform="matrix(0.5563 -0.831 0.831 0.5563 66.5282 477.899)" class="st0" width="6" height="6.9"/>
<rect x="475" y="126.5" transform="matrix(0.5563 -0.831 0.831 0.5563 88.4237 462.5873)" class="st0" width="4.7" height="43.9"/>
<rect x="452.8" y="143.4" transform="matrix(0.5563 -0.831 0.831 0.5563 80.3682 444.2776)" class="st0" width="6.9" height="6.9"/>
<polygon class="st0" points="455.6,136.8 453.1,140.6 458.8,144.4 460.2,142.4 485.2,159.2 483.8,161.2 489.6,165 492.1,161.2 "/>
<rect x="482.8" y="169.7" transform="matrix(0.5563 -0.8309 0.8309 0.5563 71.342 479.9508)" class="st0" width="4.6" height="6.9"/>
<rect x="452.1" y="149.1" transform="matrix(0.5563 -0.831 0.831 0.5563 74.8071 445.2974)" class="st0" width="4.6" height="6.9"/>
<rect x="442.2" y="155.3" transform="matrix(0.5563 -0.831 0.831 0.5563 65.3086 439.8259)" class="st0" width="4.6" height="6.9"/>
<rect x="473" y="175.9" transform="matrix(0.5563 -0.8309 0.8309 0.5563 61.8438 474.4794)" class="st0" width="4.6" height="6.9"/>
<rect x="445.4" y="151.5" transform="matrix(0.5563 -0.831 0.831 0.5563 70.185 441.2958)" class="st2" width="6" height="6.9"/>
<polygon class="st2" points="468.9,184.5 443.9,167.7 447,163.2 441.2,159.3 434.3,169.6 470.8,194.1 477.7,183.7 472,179.9 "/>
<rect x="481.8" y="162.8" transform="matrix(0.5563 -0.831 0.831 0.5563 77.1052 476.9955)" class="st2" width="6.9" height="6.9"/>
<rect x="476.1" y="172" transform="matrix(0.5563 -0.831 0.831 0.5563 66.7226 475.9531)" class="st2" width="6" height="6.9"/>
<rect x="473.3" y="125.4" transform="matrix(0.5563 -0.831 0.831 0.5563 88.618 460.6414)" class="st2" width="4.7" height="43.9"/>
<rect x="451.1" y="142.3" transform="matrix(0.5563 -0.831 0.831 0.5563 80.5626 442.3317)" class="st2" width="6.9" height="6.9"/>
<polygon class="st2" points="453.9,135.6 451.4,139.4 457.1,143.3 458.5,141.3 483.4,158 482.1,160 487.8,163.9 490.4,160 "/>
<rect x="481.1" y="168.5" transform="matrix(0.5563 -0.8309 0.8309 0.5563 71.5363 478.005)" class="st2" width="4.6" height="6.9"/>
<rect x="450.4" y="148" transform="matrix(0.5563 -0.831 0.831 0.5563 75.0015 443.3514)" class="st2" width="4.6" height="6.9"/>
<rect x="440.5" y="154.1" transform="matrix(0.5563 -0.831 0.831 0.5563 65.5031 437.88)" class="st2" width="4.6" height="6.9"/>
<rect x="471.2" y="174.7" transform="matrix(0.5563 -0.8309 0.8309 0.5563 62.0381 472.5336)" class="st2" width="4.6" height="6.9"/>
<rect x="642.8" y="423.4" class="st2" width="21.4" height="57.6"/>
<rect x="635.3" y="453.9" class="st1" width="10.7" height="10.7"/>
<rect x="687.3" y="507.5" class="st1" width="10.7" height="10.7"/>
<rect x="571.9" y="825.1" class="st2" width="10.7" height="10.7"/>
<rect x="115" y="726.2" class="st1" width="49.6" height="5"/>
<rect x="408.1" y="698.9" class="st0" width="34.7" height="5"/>
<rect x="422.8" y="836.9" class="st0" width="49.6" height="5"/>
<rect x="182.6" y="452.8" class="st1" width="49.6" height="5"/>
<rect x="234.9" y="1027.4" class="st1" width="49.6" height="5"/>
<rect x="156.4" y="959.5" class="st0" width="49.6" height="5"/>
<rect x="12.1" y="527.8" class="st1" width="28.4" height="5"/>
<rect x="96.7" y="423.2" class="st0" width="28.4" height="5"/>
<rect x="480.1" y="836.9" class="st0" width="11.6" height="5"/>
<rect x="437.3" y="873.4" class="st0" width="11.6" height="5"/>
<rect x="166.4" y="967.5" class="st1" width="11.6" height="5"/>
<rect x="437.3" y="905.9" class="st1" width="11.6" height="5"/>
<rect x="181.1" y="917.7" class="st1" width="11.6" height="5"/>
</svg>
