<?xml version="1.0" encoding="utf-8"?>
<!-- Generator: Adobe Illustrator 27.9.1, SVG Export Plug-In . SVG Version: 6.00 Build 0)  -->
<svg version="1.1" id="Capa_2_00000039121682498620927820000001421660050379119006_"
	 xmlns="http://www.w3.org/2000/svg" xmlns:xlink="http://www.w3.org/1999/xlink" x="0px" y="0px" viewBox="0 0 1612.9 792"
	 style="enable-background:new 0 0 1612.9 792;" xml:space="preserve">
<style type="text/css">
	.st0{fill:#4AA4A9;stroke:#373151;stroke-width:5.7164;stroke-linecap:round;stroke-linejoin:round;}
	.st1{fill:#4AA4A9;stroke:#373151;stroke-width:7.9097;stroke-linecap:round;stroke-linejoin:round;}
	.st2{fill:#373151;}
	.st3{clip-path:url(#SVGID_00000049904818651918478860000004531467092228936842_);}
	.st4{fill:#2D0533;}
	.st5{opacity:0.3;fill:#19021E;enable-background:new    ;}
	.st6{fill:#9D6447;}
	.st7{fill:#706619;}
	.st8{fill:#604600;}
	.st9{opacity:0.5;fill:#19021E;enable-background:new    ;}
	.st10{fill:#FFFFFF;}
	.st11{fill:#631A75;}
	.st12{fill:#21201E;}
	.st13{fill:#FFCE33;}
	.st14{fill:#FF3E51;}
	.st15{fill:#FF97A6;}
	.st16{fill:#FFF576;}
	.st17{fill:#B52338;}
	.st18{fill:#FF9C31;}
</style>
<g id="Capa_1-2">
	<path class="st0" d="M127.8,3.8h153.7c3.2,0,5.8,2.6,5.8,5.8v67.7c0,3.2-2.6,5.8-5.8,5.8H127.8c-3.2,0-5.8-2.6-5.8-5.8V9.6
		C122.1,6.4,124.7,3.8,127.8,3.8z"/>
	<path class="st0" d="M308.5,3.8h153.7c3.2,0,5.8,2.6,5.8,5.8v67.7c0,3.2-2.6,5.8-5.8,5.8H308.5c-3.2,0-5.8-2.6-5.8-5.8V9.6
		C302.8,6.4,305.3,3.8,308.5,3.8z"/>
	<path class="st0" d="M564.4,3.8h153.7c3.2,0,5.8,2.6,5.8,5.8v67.7c0,3.2-2.6,5.8-5.8,5.8H564.4c-3.2,0-5.8-2.6-5.8-5.8V9.6
		C558.7,6.4,561.3,3.8,564.4,3.8z"/>
	<path class="st1" d="M35.4,18.6h1543.1c16.6,0,30,13.4,30,30v707.8c0,16.6-13.4,30-30,30H35.4c-16.6,0-30-13.4-30-30V48.6
		C5.4,32,18.8,18.6,35.4,18.6z"/>
	<path class="st2" d="M91,43.4h1467.6c8.5,0,15.3,6.9,15.3,15.3v684.1c0,8.5-6.9,15.3-15.3,15.3H91c-8.5,0-15.3-6.9-15.3-15.3V58.8
		C75.7,50.3,82.5,43.4,91,43.4z"/>
	<path class="st2" d="M42.7,252.2L42.7,252.2c5.8,0,10.5,4.7,10.5,10.5v249.4c0,5.8-4.7,10.5-10.5,10.5h0c-5.8,0-10.5-4.7-10.5-10.5
		V262.8C32.2,256.9,36.9,252.2,42.7,252.2z"/>
	<circle class="st2" cx="40.5" cy="172.7" r="13.3"/>
	<rect x="607.2" y="652.8" class="st2" width="144.6" height="21.1"/>
	<rect x="682.4" y="673.8" class="st2" width="144.6" height="21.1"/>
	<rect x="779.9" y="663.3" class="st2" width="144.6" height="21.1"/>
	<rect x="617" y="694.9" class="st2" width="144.6" height="21.1"/>
	<g>
		<defs>
			<path id="SVGID_1_" d="M91.7,44.2h1467.6c8.5,0,15.3,6.9,15.3,15.3v684.1c0,8.5-6.9,15.3-15.3,15.3H91.7
				c-8.5,0-15.3-6.9-15.3-15.3V59.6C76.4,51.1,83.2,44.2,91.7,44.2z"/>
		</defs>
		<clipPath id="SVGID_00000106857194155989011030000017957518862059250326_">
			<use xlink:href="#SVGID_1_"  style="overflow:visible;"/>
		</clipPath>
		<g style="clip-path:url(#SVGID_00000106857194155989011030000017957518862059250326_);">
			<rect x="-68.2" y="-6.6" class="st4" width="1810.7" height="804.2"/>
			<rect x="-68.2" y="-6.6" class="st5" width="1810.7" height="498.3"/>
			<rect x="-68.2" y="-6.6" class="st5" width="1810.7" height="379.9"/>
			<rect x="-92.2" y="612.2" class="st6" width="1169.9" height="180.6"/>
			<path class="st7" d="M-64.1,562.7c0,0,1195.5,0,1195.5,0c1.1,31.9,2.1,63.8,3.3,95.7c-17.4-10-36.6-17.5-56.3-21.7
				c-27.5-5.8-48.8,0.6-75.3,7c-38.1,9.2-77.6,16.9-116.6,9.9c-27.7-5.1-52.5-19.8-81.3-20.5c-37.9-1-75.6,7.8-111.7,18.5
				c-35.1,10.3-69.8,23.4-106.6,25.9c-18.9,1.3-38.3-0.5-56.3-6.5c-19-6.3-34.1-19.1-52.2-27.2c-22.9-10.3-49.1-11.8-73.9-7.7
				s-48.5,13.3-71.3,23.8c-15.8,7.3-31.8,15.3-49,17.3c-36.6,4.3-64.6-19.3-96.4-32.6c-37.1-15.5-82.7-5.3-117.5,12.5
				c-65.5,33.6-134.2,11.2-137.4-3.2c-3.2-14.4-19.2-62.3-78.3-6.4v-87.9L-64.1,562.7L-64.1,562.7z"/>
			<path class="st8" d="M22,634.2L22,634.2c0.6,4.1-2.2,7.9-6.3,8.5l-20.3,3c-4.1,0.6-7.9-2.2-8.5-6.3l0,0c-0.6-4.1,2.2-7.9,6.3-8.5
				l20.3-3C17.6,627.3,21.4,630.2,22,634.2z"/>
			<path class="st8" d="M965,584.5l2.2-1.3c2.3-1.3,5.3-0.5,6.6,1.8l3.2,5.5c1.3,2.3,0.5,5.3-1.8,6.6l-2.2,1.3
				c-2.3,1.3-5.3,0.5-6.6-1.8l-3.2-5.5C961.9,588.8,962.7,585.8,965,584.5z"/>
			<path class="st8" d="M664.1,644.1L664.1,644.1c-1.1,4-5.2,6.3-9.2,5.2l-19.8-5.4c-4-1.1-6.3-5.2-5.2-9.2l0,0
				c1.1-4,5.2-6.3,9.2-5.2l19.8,5.4C662.8,636,665.1,640.1,664.1,644.1z"/>
			<path class="st8" d="M26.1,607.1L26.1,607.1c0.3,2.1-1.1,4-3.2,4.4L12.5,613c-2.1,0.3-4-1.1-4.4-3.2l0,0c-0.3-2.1,1.1-4,3.2-4.4
				l10.4-1.6C23.8,603.5,25.8,605,26.1,607.1z"/>
			<path class="st8" d="M892.3,612.6L892.3,612.6c0.3,2.1-1.1,4-3.2,4.4l-10.4,1.6c-2.1,0.3-4-1.1-4.4-3.2l0,0
				c-0.3-2.1,1.1-4,3.2-4.4l10.4-1.6C890,609.1,892,610.6,892.3,612.6z"/>
			<path class="st8" d="M280.4,658.8L280.4,658.8c0.3,2.1-1.1,4-3.2,4.4l-10.4,1.6c-2.1,0.3-4-1.1-4.4-3.2l0,0
				c-0.3-2.1,1.1-4,3.2-4.4l10.4-1.6C278.1,655.3,280,656.7,280.4,658.8z"/>
			<rect x="1070.4" y="612.2" class="st6" width="1169.9" height="180.6"/>
			<path class="st7" d="M1098.6,562.7c0,0,1195.5,0,1195.5,0c1.1,31.9,2.1,63.8,3.3,95.7c-17.4-10-36.6-17.5-56.3-21.7
				c-27.5-5.8-48.8,0.6-75.3,7c-38.1,9.2-77.6,16.9-116.6,9.9c-27.7-5.1-52.5-19.8-81.3-20.5c-37.9-1-75.6,7.8-111.7,18.5
				c-35.1,10.3-69.8,23.4-106.6,25.9c-18.9,1.3-38.3-0.5-56.3-6.5c-19-6.3-34.1-19.1-52.2-27.2c-22.9-10.3-49.1-11.8-73.9-7.7
				s-48.5,13.3-71.3,23.8c-15.8,7.3-31.8,15.3-49,17.3c-36.6,4.3-64.6-19.3-96.4-32.6c-37.1-15.5-82.7-5.3-117.5,12.5
				c-65.5,33.6-74.4,25.4-101.1,15.3c-13.8-5.2-40.9-25.5-64.6-35.6l-2.4-74.1L1098.6,562.7L1098.6,562.7z"/>
			<path class="st8" d="M1184.7,634.2L1184.7,634.2c0.6,4.1-2.2,7.9-6.3,8.5l-20.3,3c-4.1,0.6-7.9-2.2-8.5-6.3l0,0
				c-0.6-4.1,2.2-7.9,6.3-8.5l20.3-3C1180.3,627.3,1184.1,630.2,1184.7,634.2z"/>
			<path class="st8" d="M2127.7,584.5l2.2-1.3c2.3-1.3,5.3-0.5,6.6,1.8l3.2,5.5c1.3,2.3,0.5,5.3-1.8,6.6l-2.2,1.3
				c-2.3,1.3-5.3,0.5-6.6-1.8l-3.2-5.5C2124.6,588.8,2125.4,585.8,2127.7,584.5z"/>
			<path class="st8" d="M1826.7,644.1L1826.7,644.1c-1.1,4-5.2,6.3-9.2,5.2l-19.8-5.4c-4-1.1-6.3-5.2-5.2-9.2l0,0
				c1.1-4,5.2-6.3,9.2-5.2l19.8,5.4C1825.5,636,1827.8,640.1,1826.7,644.1z"/>
			<path class="st8" d="M1188.7,607.1L1188.7,607.1c0.3,2.1-1.1,4-3.2,4.4l-10.4,1.6c-2.1,0.3-4-1.1-4.4-3.2v0
				c-0.3-2.1,1.1-4,3.2-4.4l10.4-1.6C1186.5,603.5,1188.4,605,1188.7,607.1z"/>
			<path class="st8" d="M2055,612.6L2055,612.6c0.3,2.1-1.1,4-3.2,4.4l-10.4,1.6c-2.1,0.3-4-1.1-4.4-3.2l0,0c-0.3-2.1,1.1-4,3.2-4.4
				l10.4-1.6C2052.7,609.1,2054.7,610.6,2055,612.6z"/>
			<path class="st8" d="M1443,658.8L1443,658.8c0.3,2.1-1.1,4-3.2,4.4l-10.4,1.6c-2.1,0.3-4-1.1-4.4-3.2v0c-0.3-2.1,1.1-4,3.2-4.4
				l10.4-1.6C1440.8,655.3,1442.7,656.7,1443,658.8z"/>
			<rect x="-68.2" y="-6.6" class="st9" width="1810.7" height="252.1"/>
			<rect x="1097.2" y="328.4" class="st10" width="9" height="9"/>
			<rect x="1097.2" y="319.4" class="st11" width="9" height="9"/>
			<rect x="1088.3" y="328.4" class="st11" width="9" height="9"/>
			<rect x="1106.2" y="328.4" class="st11" width="9" height="9"/>
			<rect x="1097.2" y="337.3" class="st11" width="9" height="9"/>
			<rect x="329.6" y="403" class="st10" width="9" height="9"/>
			<rect x="329.6" y="394" class="st11" width="9" height="9"/>
			<rect x="320.6" y="403" class="st11" width="9" height="9"/>
			<rect x="338.6" y="403" class="st11" width="9" height="9"/>
			<rect x="329.6" y="412" class="st11" width="9" height="9"/>
			<rect x="363.4" y="111.4" class="st10" width="9" height="9"/>
			<rect x="363.4" y="102.5" class="st11" width="9" height="9"/>
			<rect x="354.4" y="111.4" class="st11" width="9" height="9"/>
			<rect x="372.3" y="111.4" class="st11" width="9" height="9"/>
			<rect x="363.4" y="120.4" class="st11" width="9" height="9"/>
			<rect x="974.1" y="344.5" class="st12" width="12" height="12"/>
			<rect x="974.1" y="332.6" class="st12" width="12" height="12"/>
			<rect x="974.1" y="320.6" class="st12" width="12" height="12"/>
			<rect x="962.1" y="356.5" class="st12" width="12" height="12"/>
			<rect x="962.1" y="344.5" class="st12" width="12" height="12"/>
			<rect x="962.1" y="332.6" class="st13" width="12" height="12"/>
			<rect x="962.1" y="320.6" class="st12" width="12" height="12"/>
			<rect x="962.1" y="308.6" class="st12" width="12" height="12"/>
			<rect x="962.1" y="296.6" class="st12" width="12" height="12"/>
			<rect x="950.1" y="416.4" class="st12" width="12" height="12"/>
			<rect x="950.1" y="404.5" class="st12" width="12" height="12"/>
			<rect x="950.1" y="392.5" class="st12" width="12" height="12"/>
			<rect x="950.1" y="380.5" class="st12" width="12" height="12"/>
			<rect x="950.1" y="356.5" class="st12" width="12" height="12"/>
			<rect x="950.1" y="344.5" class="st13" width="12" height="12"/>
			<rect x="950.1" y="332.6" class="st13" width="12" height="12"/>
			<rect x="950.1" y="320.6" class="st13" width="12" height="12"/>
			<rect x="950.1" y="308.6" class="st13" width="12" height="12"/>
			<rect x="950.1" y="296.6" class="st12" width="12" height="12"/>
			<rect x="950.1" y="284.6" class="st12" width="12" height="12"/>
			<rect x="950.1" y="272.6" class="st12" width="12" height="12"/>
			<rect x="938.2" y="560.2" class="st12" width="12" height="12"/>
			<rect x="938.2" y="548.3" class="st12" width="12" height="12"/>
			<rect x="938.2" y="536.3" class="st12" width="12" height="12"/>
			<rect x="938.2" y="524.3" class="st12" width="12" height="12"/>
			<rect x="938.2" y="512.3" class="st12" width="12" height="12"/>
			<rect x="938.2" y="500.3" class="st12" width="12" height="12"/>
			<rect x="938.2" y="488.3" class="st12" width="12" height="12"/>
			<rect x="938.2" y="476.4" class="st12" width="12" height="12"/>
			<rect x="938.2" y="464.4" class="st12" width="12" height="12"/>
			<rect x="938.2" y="452.4" class="st12" width="12" height="12"/>
			<rect x="938.2" y="440.4" class="st12" width="12" height="12"/>
			<rect x="938.2" y="428.4" class="st12" width="12" height="12"/>
			<rect x="938.2" y="416.4" class="st14" width="12" height="12"/>
			<rect x="938.2" y="404.5" class="st14" width="12" height="12"/>
			<rect x="938.2" y="392.5" class="st14" width="12" height="12"/>
			<rect x="938.2" y="380.5" class="st15" width="12" height="12"/>
			<rect x="938.2" y="368.5" class="st12" width="12" height="12"/>
			<rect x="938.2" y="356.5" class="st12" width="12" height="12"/>
			<rect x="938.2" y="344.5" class="st13" width="12" height="12"/>
			<rect x="938.2" y="332.6" class="st13" width="12" height="12"/>
			<rect x="938.2" y="320.6" class="st13" width="12" height="12"/>
			<rect x="938.2" y="308.6" class="st13" width="12" height="12"/>
			<rect x="938.2" y="296.6" class="st13" width="12" height="12"/>
			<rect x="938.2" y="284.6" class="st16" width="12" height="12"/>
			<rect x="938.2" y="272.6" class="st12" width="12" height="12"/>
			<rect x="926.2" y="560.2" class="st12" width="12" height="12"/>
			<rect x="926.2" y="548.3" class="st15" width="12" height="12"/>
			<rect x="926.2" y="536.3" class="st15" width="12" height="12"/>
			<rect x="926.2" y="524.3" class="st15" width="12" height="12"/>
			<rect x="926.2" y="512.3" class="st15" width="12" height="12"/>
			<rect x="926.2" y="500.3" class="st15" width="12" height="12"/>
			<rect x="926.2" y="488.3" class="st15" width="12" height="12"/>
			<rect x="926.2" y="476.4" class="st15" width="12" height="12"/>
			<rect x="926.2" y="464.4" class="st15" width="12" height="12"/>
			<rect x="926.2" y="452.4" class="st14" width="12" height="12"/>
			<rect x="926.2" y="440.4" class="st17" width="12" height="12"/>
			<rect x="926.2" y="428.4" class="st12" width="12" height="12"/>
			<rect x="926.2" y="416.4" class="st14" width="12" height="12"/>
			<rect x="926.2" y="404.5" class="st14" width="12" height="12"/>
			<rect x="926.2" y="392.5" class="st14" width="12" height="12"/>
			<rect x="926.2" y="380.5" class="st15" width="12" height="12"/>
			<rect x="926.2" y="368.5" class="st12" width="12" height="12"/>
			<rect x="926.2" y="356.5" class="st13" width="12" height="12"/>
			<rect x="926.2" y="344.5" class="st13" width="12" height="12"/>
			<rect x="926.2" y="332.6" class="st13" width="12" height="12"/>
			<rect x="926.2" y="320.6" class="st13" width="12" height="12"/>
			<rect x="926.2" y="308.6" class="st13" width="12" height="12"/>
			<rect x="926.2" y="296.6" class="st13" width="12" height="12"/>
			<rect x="926.2" y="284.6" class="st16" width="12" height="12"/>
			<rect x="926.2" y="272.6" class="st12" width="12" height="12"/>
			<rect x="926.2" y="260.7" class="st12" width="12" height="12"/>
			<rect x="914.2" y="560.2" class="st12" width="12" height="12"/>
			<rect x="914.2" y="548.3" class="st14" width="12" height="12"/>
			<rect x="914.2" y="536.3" class="st14" width="12" height="12"/>
			<rect x="914.2" y="524.3" class="st14" width="12" height="12"/>
			<rect x="914.2" y="512.3" class="st14" width="12" height="12"/>
			<rect x="914.2" y="500.3" class="st14" width="12" height="12"/>
			<rect x="914.2" y="488.3" class="st14" width="12" height="12"/>
			<rect x="914.2" y="476.4" class="st14" width="12" height="12"/>
			<rect x="914.2" y="464.4" class="st14" width="12" height="12"/>
			<rect x="914.2" y="452.4" class="st14" width="12" height="12"/>
			<rect x="914.2" y="440.4" class="st17" width="12" height="12"/>
			<rect x="914.2" y="428.4" class="st12" width="12" height="12"/>
			<rect x="914.2" y="416.4" class="st14" width="12" height="12"/>
			<rect x="914.2" y="404.5" class="st14" width="12" height="12"/>
			<rect x="914.2" y="392.5" class="st14" width="12" height="12"/>
			<rect x="914.2" y="380.5" class="st15" width="12" height="12"/>
			<rect x="914.2" y="368.5" class="st12" width="12" height="12"/>
			<rect x="914.2" y="356.5" class="st13" width="12" height="12"/>
			<rect x="914.2" y="344.5" class="st13" width="12" height="12"/>
			<rect x="914.2" y="332.6" class="st13" width="12" height="12"/>
			<rect x="914.2" y="320.6" class="st13" width="12" height="12"/>
			<rect x="914.2" y="308.6" class="st13" width="12" height="12"/>
			<rect x="914.2" y="296.6" class="st13" width="12" height="12"/>
			<rect x="914.2" y="284.6" class="st16" width="12" height="12"/>
			<rect x="914.2" y="272.6" class="st16" width="12" height="12"/>
			<rect x="914.2" y="260.7" class="st12" width="12" height="12"/>
			<rect x="902.2" y="560.2" class="st12" width="12" height="12"/>
			<rect x="902.2" y="548.3" class="st14" width="12" height="12"/>
			<rect x="902.2" y="536.3" class="st14" width="12" height="12"/>
			<rect x="902.2" y="524.3" class="st14" width="12" height="12"/>
			<rect x="902.2" y="512.3" class="st14" width="12" height="12"/>
			<rect x="902.2" y="500.3" class="st14" width="12" height="12"/>
			<rect x="902.2" y="488.3" class="st14" width="12" height="12"/>
			<rect x="902.2" y="476.4" class="st14" width="12" height="12"/>
			<rect x="902.2" y="464.4" class="st14" width="12" height="12"/>
			<rect x="902.2" y="452.4" class="st14" width="12" height="12"/>
			<rect x="902.2" y="440.4" class="st17" width="12" height="12"/>
			<rect x="902.2" y="428.4" class="st12" width="12" height="12"/>
			<rect x="902.2" y="416.4" class="st14" width="12" height="12"/>
			<rect x="902.2" y="404.5" class="st14" width="12" height="12"/>
			<rect x="902.2" y="392.5" class="st14" width="12" height="12"/>
			<rect x="902.2" y="380.5" class="st15" width="12" height="12"/>
			<rect x="902.2" y="368.5" class="st12" width="12" height="12"/>
			<rect x="902.2" y="356.5" class="st13" width="12" height="12"/>
			<rect x="902.2" y="344.5" class="st18" width="12" height="12"/>
			<rect x="902.2" y="332.6" class="st18" width="12" height="12"/>
			<rect x="902.2" y="320.6" class="st18" width="12" height="12"/>
			<rect x="902.2" y="308.6" class="st13" width="12" height="12"/>
			<rect x="902.2" y="296.6" class="st13" width="12" height="12"/>
			<rect x="902.2" y="284.6" class="st16" width="12" height="12"/>
			<rect x="902.2" y="272.6" class="st16" width="12" height="12"/>
			<rect x="902.2" y="260.7" class="st12" width="12" height="12"/>
			<rect x="890.2" y="560.2" class="st12" width="12" height="12"/>
			<rect x="890.2" y="548.3" class="st14" width="12" height="12"/>
			<rect x="890.2" y="536.3" class="st14" width="12" height="12"/>
			<rect x="890.2" y="524.3" class="st14" width="12" height="12"/>
			<rect x="890.2" y="512.3" class="st14" width="12" height="12"/>
			<rect x="890.2" y="500.3" class="st14" width="12" height="12"/>
			<rect x="890.2" y="488.3" class="st14" width="12" height="12"/>
			<rect x="890.2" y="476.4" class="st14" width="12" height="12"/>
			<rect x="890.2" y="464.4" class="st14" width="12" height="12"/>
			<rect x="890.2" y="452.4" class="st14" width="12" height="12"/>
			<rect x="890.2" y="440.4" class="st17" width="12" height="12"/>
			<rect x="890.2" y="428.4" class="st12" width="12" height="12"/>
			<rect x="890.2" y="416.4" class="st14" width="12" height="12"/>
			<rect x="890.2" y="404.5" class="st14" width="12" height="12"/>
			<rect x="890.2" y="392.5" class="st14" width="12" height="12"/>
			<rect x="890.2" y="380.5" class="st15" width="12" height="12"/>
			<rect x="890.2" y="368.5" class="st12" width="12" height="12"/>
			<rect x="890.2" y="356.5" class="st18" width="12" height="12"/>
			<rect x="890.2" y="344.5" class="st18" width="12" height="12"/>
			<rect x="890.2" y="332.6" class="st12" width="12" height="12"/>
			<rect x="890.2" y="320.6" class="st18" width="12" height="12"/>
			<rect x="890.2" y="308.6" class="st16" width="12" height="12"/>
			<rect x="890.2" y="296.6" class="st16" width="12" height="12"/>
			<rect x="890.2" y="284.6" class="st16" width="12" height="12"/>
			<rect x="890.2" y="272.6" class="st12" width="12" height="12"/>
			<rect x="878.2" y="560.2" class="st12" width="12" height="12"/>
			<rect x="878.2" y="548.3" class="st14" width="12" height="12"/>
			<rect x="878.2" y="536.3" class="st14" width="12" height="12"/>
			<rect x="878.2" y="524.3" class="st14" width="12" height="12"/>
			<rect x="878.2" y="512.3" class="st14" width="12" height="12"/>
			<rect x="878.2" y="500.3" class="st14" width="12" height="12"/>
			<rect x="878.2" y="488.3" class="st14" width="12" height="12"/>
			<rect x="878.2" y="476.4" class="st14" width="12" height="12"/>
			<rect x="878.2" y="464.4" class="st14" width="12" height="12"/>
			<rect x="878.2" y="452.4" class="st14" width="12" height="12"/>
			<rect x="878.2" y="440.4" class="st17" width="12" height="12"/>
			<rect x="878.2" y="428.4" class="st12" width="12" height="12"/>
			<rect x="878.2" y="416.4" class="st14" width="12" height="12"/>
			<rect x="878.2" y="404.5" class="st14" width="12" height="12"/>
			<rect x="878.2" y="392.5" class="st14" width="12" height="12"/>
			<rect x="878.2" y="380.5" class="st15" width="12" height="12"/>
			<rect x="878.2" y="368.5" class="st12" width="12" height="12"/>
			<rect x="878.2" y="356.5" class="st18" width="12" height="12"/>
			<rect x="878.2" y="344.5" class="st12" width="12" height="12"/>
			<rect x="878.2" y="332.6" class="st18" width="12" height="12"/>
			<rect x="878.2" y="320.6" class="st18" width="12" height="12"/>
			<rect x="878.2" y="308.6" class="st16" width="12" height="12"/>
			<rect x="878.2" y="296.6" class="st12" width="12" height="12"/>
			<rect x="878.2" y="284.6" class="st12" width="12" height="12"/>
			<rect x="878.2" y="272.6" class="st12" width="12" height="12"/>
			<rect x="866.3" y="560.2" class="st12" width="12" height="12"/>
			<rect x="866.3" y="548.3" class="st17" width="12" height="12"/>
			<rect x="866.3" y="536.3" class="st17" width="12" height="12"/>
			<rect x="866.3" y="524.3" class="st17" width="12" height="12"/>
			<rect x="866.3" y="512.3" class="st17" width="12" height="12"/>
			<rect x="866.3" y="500.3" class="st17" width="12" height="12"/>
			<rect x="866.3" y="488.3" class="st17" width="12" height="12"/>
			<rect x="866.3" y="476.4" class="st17" width="12" height="12"/>
			<rect x="866.3" y="464.4" class="st17" width="12" height="12"/>
			<rect x="866.3" y="452.4" class="st17" width="12" height="12"/>
			<rect x="866.3" y="440.4" class="st17" width="12" height="12"/>
			<rect x="866.3" y="428.4" class="st12" width="12" height="12"/>
			<rect x="866.3" y="416.4" class="st17" width="12" height="12"/>
			<rect x="866.3" y="404.5" class="st17" width="12" height="12"/>
			<rect x="866.3" y="392.5" class="st17" width="12" height="12"/>
			<rect x="866.3" y="380.5" class="st15" width="12" height="12"/>
			<rect x="866.3" y="368.5" class="st12" width="12" height="12"/>
			<rect x="866.3" y="356.5" class="st12" width="12" height="12"/>
			<rect x="866.3" y="344.5" class="st18" width="12" height="12"/>
			<rect x="866.3" y="332.6" class="st18" width="12" height="12"/>
			<rect x="866.3" y="320.6" class="st12" width="12" height="12"/>
			<rect x="866.3" y="308.6" class="st12" width="12" height="12"/>
			<rect x="866.3" y="296.6" class="st12" width="12" height="12"/>
			<rect x="854.3" y="560.2" class="st12" width="12" height="12"/>
			<rect x="854.3" y="548.3" class="st12" width="12" height="12"/>
			<rect x="854.3" y="536.3" class="st12" width="12" height="12"/>
			<rect x="854.3" y="524.3" class="st12" width="12" height="12"/>
			<rect x="854.3" y="512.3" class="st12" width="12" height="12"/>
			<rect x="854.3" y="500.3" class="st12" width="12" height="12"/>
			<rect x="854.3" y="488.3" class="st12" width="12" height="12"/>
			<rect x="854.3" y="476.4" class="st12" width="12" height="12"/>
			<rect x="854.3" y="464.4" class="st12" width="12" height="12"/>
			<rect x="854.3" y="452.4" class="st12" width="12" height="12"/>
			<rect x="854.3" y="440.4" class="st12" width="12" height="12"/>
			<rect x="854.3" y="428.4" class="st12" width="12" height="12"/>
			<rect x="854.3" y="416.4" class="st12" width="12" height="12"/>
			<rect x="854.3" y="404.5" class="st12" width="12" height="12"/>
			<rect x="854.3" y="392.5" class="st12" width="12" height="12"/>
			<rect x="854.3" y="380.5" class="st12" width="12" height="12"/>
			<rect x="854.3" y="368.5" class="st12" width="12" height="12"/>
			<rect x="854.3" y="356.5" class="st12" width="12" height="12"/>
			<rect x="854.3" y="344.5" class="st12" width="12" height="12"/>
			<rect x="854.3" y="332.6" class="st12" width="12" height="12"/>
			<rect x="854.3" y="320.6" class="st12" width="12" height="12"/>
			<rect x="842.3" y="560.2" class="st12" width="12" height="12"/>
			<rect x="842.3" y="548.3" class="st13" width="12" height="12"/>
			<rect x="842.3" y="536.3" class="st13" width="12" height="12"/>
			<rect x="842.3" y="524.3" class="st13" width="12" height="12"/>
			<rect x="842.3" y="512.3" class="st13" width="12" height="12"/>
			<rect x="842.3" y="500.3" class="st13" width="12" height="12"/>
			<rect x="842.3" y="488.3" class="st13" width="12" height="12"/>
			<rect x="842.3" y="476.4" class="st18" width="12" height="12"/>
			<rect x="842.3" y="464.4" class="st18" width="12" height="12"/>
			<rect x="842.3" y="452.4" class="st18" width="12" height="12"/>
			<rect x="842.3" y="440.4" class="st18" width="12" height="12"/>
			<rect x="842.3" y="428.4" class="st12" width="12" height="12"/>
			<rect x="842.3" y="416.4" class="st18" width="12" height="12"/>
			<rect x="842.3" y="404.5" class="st13" width="12" height="12"/>
			<rect x="842.3" y="392.5" class="st13" width="12" height="12"/>
			<rect x="842.3" y="380.5" class="st16" width="12" height="12"/>
			<rect x="842.3" y="368.5" class="st12" width="12" height="12"/>
			<rect x="842.3" y="356.5" class="st13" width="12" height="12"/>
			<rect x="842.3" y="344.5" class="st16" width="12" height="12"/>
			<rect x="842.3" y="332.6" class="st12" width="12" height="12"/>
			<rect x="830.3" y="560.2" class="st12" width="12" height="12"/>
			<rect x="830.3" y="548.3" class="st13" width="12" height="12"/>
			<rect x="830.3" y="536.3" class="st13" width="12" height="12"/>
			<rect x="830.3" y="524.3" class="st13" width="12" height="12"/>
			<rect x="830.3" y="512.3" class="st13" width="12" height="12"/>
			<rect x="830.3" y="500.3" class="st13" width="12" height="12"/>
			<rect x="830.3" y="488.3" class="st13" width="12" height="12"/>
			<rect x="830.3" y="476.4" class="st13" width="12" height="12"/>
			<rect x="830.3" y="464.4" class="st13" width="12" height="12"/>
			<rect x="830.3" y="452.4" class="st13" width="12" height="12"/>
			<rect x="830.3" y="440.4" class="st18" width="12" height="12"/>
			<rect x="830.3" y="428.4" class="st12" width="12" height="12"/>
			<rect x="830.3" y="416.4" class="st13" width="12" height="12"/>
			<rect x="830.3" y="404.5" class="st13" width="12" height="12"/>
			<rect x="830.3" y="392.5" class="st13" width="12" height="12"/>
			<rect x="830.3" y="380.5" class="st16" width="12" height="12"/>
			<rect x="830.3" y="368.5" class="st12" width="12" height="12"/>
			<rect x="830.3" y="356.5" class="st13" width="12" height="12"/>
			<rect x="830.3" y="344.5" class="st16" width="12" height="12"/>
			<rect x="830.3" y="332.6" class="st12" width="12" height="12"/>
			<rect x="818.3" y="560.2" class="st12" width="12" height="12"/>
			<rect x="818.3" y="548.3" class="st13" width="12" height="12"/>
			<rect x="818.3" y="536.3" class="st13" width="12" height="12"/>
			<rect x="818.3" y="524.3" class="st13" width="12" height="12"/>
			<rect x="818.3" y="512.3" class="st13" width="12" height="12"/>
			<rect x="818.3" y="500.3" class="st13" width="12" height="12"/>
			<rect x="818.3" y="488.3" class="st13" width="12" height="12"/>
			<rect x="818.3" y="476.4" class="st13" width="12" height="12"/>
			<rect x="818.3" y="464.4" class="st13" width="12" height="12"/>
			<rect x="818.3" y="452.4" class="st13" width="12" height="12"/>
			<rect x="818.3" y="440.4" class="st18" width="12" height="12"/>
			<rect x="818.3" y="428.4" class="st12" width="12" height="12"/>
			<rect x="818.3" y="416.4" class="st13" width="12" height="12"/>
			<rect x="818.3" y="404.5" class="st13" width="12" height="12"/>
			<rect x="818.3" y="392.5" class="st13" width="12" height="12"/>
			<rect x="818.3" y="380.5" class="st16" width="12" height="12"/>
			<rect x="818.3" y="368.5" class="st12" width="12" height="12"/>
			<rect x="818.3" y="356.5" class="st13" width="12" height="12"/>
			<rect x="818.3" y="344.5" class="st13" width="12" height="12"/>
			<rect x="818.3" y="332.6" class="st12" width="12" height="12"/>
			<rect x="806.3" y="560.2" class="st12" width="12" height="12"/>
			<rect x="806.3" y="548.3" class="st12" width="12" height="12"/>
			<rect x="806.3" y="536.3" class="st12" width="12" height="12"/>
			<rect x="806.3" y="524.3" class="st12" width="12" height="12"/>
			<rect x="806.3" y="512.3" class="st12" width="12" height="12"/>
			<rect x="806.3" y="500.3" class="st12" width="12" height="12"/>
			<rect x="806.3" y="488.3" class="st12" width="12" height="12"/>
			<rect x="806.3" y="476.4" class="st12" width="12" height="12"/>
			<rect x="806.3" y="464.4" class="st12" width="12" height="12"/>
			<rect x="806.3" y="452.4" class="st12" width="12" height="12"/>
			<rect x="806.3" y="440.4" class="st12" width="12" height="12"/>
			<rect x="806.3" y="428.4" class="st12" width="12" height="12"/>
			<rect x="806.3" y="416.4" class="st12" width="12" height="12"/>
			<rect x="806.3" y="404.5" class="st12" width="12" height="12"/>
			<rect x="806.3" y="392.5" class="st12" width="12" height="12"/>
			<rect x="806.3" y="380.5" class="st12" width="12" height="12"/>
			<rect x="806.3" y="368.5" class="st12" width="12" height="12"/>
			<rect x="806.3" y="356.5" class="st12" width="12" height="12"/>
			<rect x="806.3" y="344.5" class="st12" width="12" height="12"/>
			<rect x="806.3" y="332.6" class="st12" width="12" height="12"/>
			<rect x="794.4" y="560.2" class="st12" width="12" height="12"/>
			<rect x="794.4" y="548.3" class="st17" width="12" height="12"/>
			<rect x="794.4" y="536.3" class="st17" width="12" height="12"/>
			<rect x="794.4" y="524.3" class="st17" width="12" height="12"/>
			<rect x="794.4" y="512.3" class="st17" width="12" height="12"/>
			<rect x="794.4" y="500.3" class="st17" width="12" height="12"/>
			<rect x="794.4" y="488.3" class="st17" width="12" height="12"/>
			<rect x="794.4" y="476.4" class="st17" width="12" height="12"/>
			<rect x="794.4" y="464.4" class="st17" width="12" height="12"/>
			<rect x="794.4" y="452.4" class="st17" width="12" height="12"/>
			<rect x="794.4" y="440.4" class="st17" width="12" height="12"/>
			<rect x="794.4" y="428.4" class="st12" width="12" height="12"/>
			<rect x="794.4" y="416.4" class="st17" width="12" height="12"/>
			<rect x="794.4" y="404.5" class="st17" width="12" height="12"/>
			<rect x="794.4" y="392.5" class="st17" width="12" height="12"/>
			<rect x="794.4" y="380.5" class="st15" width="12" height="12"/>
			<rect x="794.4" y="368.5" class="st12" width="12" height="12"/>
			<rect x="794.4" y="356.5" class="st12" width="12" height="12"/>
			<rect x="794.4" y="344.5" class="st12" width="12" height="12"/>
			<rect x="794.4" y="332.6" class="st12" width="12" height="12"/>
			<rect x="794.4" y="320.6" class="st12" width="12" height="12"/>
			<rect x="782.4" y="560.2" class="st12" width="12" height="12"/>
			<rect x="782.4" y="548.3" class="st14" width="12" height="12"/>
			<rect x="782.4" y="536.3" class="st14" width="12" height="12"/>
			<rect x="782.4" y="524.3" class="st14" width="12" height="12"/>
			<rect x="782.4" y="512.3" class="st14" width="12" height="12"/>
			<rect x="782.4" y="500.3" class="st14" width="12" height="12"/>
			<rect x="782.4" y="488.3" class="st14" width="12" height="12"/>
			<rect x="782.4" y="476.4" class="st14" width="12" height="12"/>
			<rect x="782.4" y="464.4" class="st14" width="12" height="12"/>
			<rect x="782.4" y="452.4" class="st14" width="12" height="12"/>
			<rect x="782.4" y="440.4" class="st17" width="12" height="12"/>
			<rect x="782.4" y="428.4" class="st12" width="12" height="12"/>
			<rect x="782.4" y="416.4" class="st14" width="12" height="12"/>
			<rect x="782.4" y="404.5" class="st14" width="12" height="12"/>
			<rect x="782.4" y="392.5" class="st14" width="12" height="12"/>
			<rect x="782.4" y="380.5" class="st15" width="12" height="12"/>
			<rect x="782.4" y="368.5" class="st12" width="12" height="12"/>
			<rect x="782.4" y="356.5" class="st12" width="12" height="12"/>
			<rect x="782.4" y="344.5" class="st18" width="12" height="12"/>
			<rect x="782.4" y="332.6" class="st18" width="12" height="12"/>
			<rect x="782.4" y="320.6" class="st16" width="12" height="12"/>
			<rect x="782.4" y="308.6" class="st12" width="12" height="12"/>
			<rect x="782.4" y="296.6" class="st12" width="12" height="12"/>
			<rect x="770.4" y="560.2" class="st12" width="12" height="12"/>
			<rect x="770.4" y="548.3" class="st14" width="12" height="12"/>
			<rect x="770.4" y="536.3" class="st14" width="12" height="12"/>
			<rect x="770.4" y="524.3" class="st14" width="12" height="12"/>
			<rect x="770.4" y="512.3" class="st14" width="12" height="12"/>
			<rect x="770.4" y="500.3" class="st14" width="12" height="12"/>
			<rect x="770.4" y="488.3" class="st14" width="12" height="12"/>
			<rect x="770.4" y="476.4" class="st14" width="12" height="12"/>
			<rect x="770.4" y="464.4" class="st14" width="12" height="12"/>
			<rect x="770.4" y="452.4" class="st14" width="12" height="12"/>
			<rect x="770.4" y="440.4" class="st17" width="12" height="12"/>
			<rect x="770.4" y="428.4" class="st12" width="12" height="12"/>
			<rect x="770.4" y="416.4" class="st14" width="12" height="12"/>
			<rect x="770.4" y="404.5" class="st14" width="12" height="12"/>
			<rect x="770.4" y="392.5" class="st14" width="12" height="12"/>
			<rect x="770.4" y="380.5" class="st15" width="12" height="12"/>
			<rect x="770.4" y="368.5" class="st12" width="12" height="12"/>
			<rect x="770.4" y="356.5" class="st18" width="12" height="12"/>
			<rect x="770.4" y="344.5" class="st12" width="12" height="12"/>
			<rect x="770.4" y="332.6" class="st18" width="12" height="12"/>
			<rect x="770.4" y="320.6" class="st18" width="12" height="12"/>
			<rect x="770.4" y="308.6" class="st16" width="12" height="12"/>
			<rect x="770.4" y="296.6" class="st12" width="12" height="12"/>
			<rect x="770.4" y="284.6" class="st12" width="12" height="12"/>
			<rect x="758.4" y="560.2" class="st12" width="12" height="12"/>
			<rect x="758.4" y="548.3" class="st14" width="12" height="12"/>
			<rect x="758.4" y="536.3" class="st14" width="12" height="12"/>
			<rect x="758.4" y="524.3" class="st14" width="12" height="12"/>
			<rect x="758.4" y="512.3" class="st14" width="12" height="12"/>
			<rect x="758.4" y="500.3" class="st14" width="12" height="12"/>
			<rect x="758.4" y="488.3" class="st14" width="12" height="12"/>
			<rect x="758.4" y="476.4" class="st14" width="12" height="12"/>
			<rect x="758.4" y="464.4" class="st14" width="12" height="12"/>
			<rect x="758.4" y="452.4" class="st14" width="12" height="12"/>
			<rect x="758.4" y="440.4" class="st17" width="12" height="12"/>
			<rect x="758.4" y="428.4" class="st12" width="12" height="12"/>
			<rect x="758.4" y="416.4" class="st14" width="12" height="12"/>
			<rect x="758.4" y="404.5" class="st14" width="12" height="12"/>
			<rect x="758.4" y="392.5" class="st14" width="12" height="12"/>
			<rect x="758.4" y="380.5" class="st15" width="12" height="12"/>
			<rect x="758.4" y="368.5" class="st12" width="12" height="12"/>
			<rect x="758.4" y="356.5" class="st18" width="12" height="12"/>
			<rect x="758.4" y="344.5" class="st18" width="12" height="12"/>
			<rect x="758.4" y="332.6" class="st12" width="12" height="12"/>
			<rect x="758.4" y="320.6" class="st18" width="12" height="12"/>
			<rect x="758.4" y="308.6" class="st16" width="12" height="12"/>
			<rect x="758.4" y="296.6" class="st16" width="12" height="12"/>
			<rect x="758.4" y="284.6" class="st12" width="12" height="12"/>
			<rect x="746.4" y="560.2" class="st12" width="12" height="12"/>
			<rect x="746.4" y="548.3" class="st14" width="12" height="12"/>
			<rect x="746.4" y="536.3" class="st14" width="12" height="12"/>
			<rect x="746.4" y="524.3" class="st14" width="12" height="12"/>
			<rect x="746.4" y="512.3" class="st14" width="12" height="12"/>
			<rect x="746.4" y="500.3" class="st14" width="12" height="12"/>
			<rect x="746.4" y="488.3" class="st14" width="12" height="12"/>
			<rect x="746.4" y="476.4" class="st14" width="12" height="12"/>
			<rect x="746.4" y="464.4" class="st14" width="12" height="12"/>
			<rect x="746.4" y="452.4" class="st14" width="12" height="12"/>
			<rect x="746.4" y="440.4" class="st17" width="12" height="12"/>
			<rect x="746.4" y="428.4" class="st12" width="12" height="12"/>
			<rect x="746.4" y="416.4" class="st14" width="12" height="12"/>
			<rect x="746.4" y="404.5" class="st14" width="12" height="12"/>
			<rect x="746.4" y="392.5" class="st14" width="12" height="12"/>
			<rect x="746.4" y="380.5" class="st15" width="12" height="12"/>
			<rect x="746.4" y="368.5" class="st12" width="12" height="12"/>
			<rect x="746.4" y="356.5" class="st13" width="12" height="12"/>
			<rect x="746.4" y="344.5" class="st18" width="12" height="12"/>
			<rect x="746.4" y="332.6" class="st18" width="12" height="12"/>
			<rect x="746.4" y="320.6" class="st18" width="12" height="12"/>
			<rect x="746.4" y="308.6" class="st13" width="12" height="12"/>
			<rect x="746.4" y="296.6" class="st16" width="12" height="12"/>
			<rect x="746.4" y="284.6" class="st12" width="12" height="12"/>
			<rect x="734.4" y="560.2" class="st12" width="12" height="12"/>
			<rect x="734.4" y="548.3" class="st14" width="12" height="12"/>
			<rect x="734.4" y="536.3" class="st14" width="12" height="12"/>
			<rect x="734.4" y="524.3" class="st14" width="12" height="12"/>
			<rect x="734.4" y="512.3" class="st14" width="12" height="12"/>
			<rect x="734.4" y="500.3" class="st14" width="12" height="12"/>
			<rect x="734.4" y="488.3" class="st14" width="12" height="12"/>
			<rect x="734.4" y="476.4" class="st14" width="12" height="12"/>
			<rect x="734.4" y="464.4" class="st14" width="12" height="12"/>
			<rect x="734.4" y="452.4" class="st14" width="12" height="12"/>
			<rect x="734.4" y="440.4" class="st17" width="12" height="12"/>
			<rect x="734.4" y="428.4" class="st12" width="12" height="12"/>
			<rect x="734.4" y="416.4" class="st14" width="12" height="12"/>
			<rect x="734.4" y="404.5" class="st14" width="12" height="12"/>
			<rect x="734.4" y="392.5" class="st14" width="12" height="12"/>
			<rect x="734.4" y="380.5" class="st15" width="12" height="12"/>
			<rect x="734.4" y="368.5" class="st12" width="12" height="12"/>
			<rect x="734.4" y="356.5" class="st13" width="12" height="12"/>
			<rect x="734.4" y="344.5" class="st13" width="12" height="12"/>
			<rect x="734.4" y="332.6" class="st13" width="12" height="12"/>
			<rect x="734.4" y="320.6" class="st13" width="12" height="12"/>
			<rect x="734.4" y="308.6" class="st13" width="12" height="12"/>
			<rect x="734.4" y="296.6" class="st16" width="12" height="12"/>
			<rect x="734.4" y="284.6" class="st12" width="12" height="12"/>
			<rect x="722.5" y="560.2" class="st12" width="12" height="12"/>
			<rect x="722.5" y="548.3" class="st12" width="12" height="12"/>
			<rect x="722.5" y="536.3" class="st12" width="12" height="12"/>
			<rect x="722.5" y="524.3" class="st12" width="12" height="12"/>
			<rect x="722.5" y="512.3" class="st12" width="12" height="12"/>
			<rect x="722.5" y="500.3" class="st12" width="12" height="12"/>
			<rect x="722.5" y="488.3" class="st12" width="12" height="12"/>
			<rect x="722.5" y="476.4" class="st12" width="12" height="12"/>
			<rect x="722.5" y="464.4" class="st12" width="12" height="12"/>
			<rect x="722.5" y="452.4" class="st12" width="12" height="12"/>
			<rect x="722.5" y="440.4" class="st12" width="12" height="12"/>
			<rect x="722.5" y="428.4" class="st12" width="12" height="12"/>
			<rect x="722.5" y="416.4" class="st14" width="12" height="12"/>
			<rect x="722.5" y="404.5" class="st14" width="12" height="12"/>
			<rect x="722.5" y="392.5" class="st14" width="12" height="12"/>
			<rect x="722.5" y="380.5" class="st15" width="12" height="12"/>
			<rect x="722.5" y="368.5" class="st12" width="12" height="12"/>
			<rect x="722.5" y="356.5" class="st12" width="12" height="12"/>
			<rect x="722.5" y="344.5" class="st13" width="12" height="12"/>
			<rect x="722.5" y="332.6" class="st13" width="12" height="12"/>
			<rect x="722.5" y="320.6" class="st13" width="12" height="12"/>
			<rect x="722.5" y="308.6" class="st13" width="12" height="12"/>
			<rect x="722.5" y="296.6" class="st16" width="12" height="12"/>
			<rect x="722.5" y="284.6" class="st12" width="12" height="12"/>
			<rect x="710.5" y="416.4" class="st12" width="12" height="12"/>
			<rect x="710.5" y="404.5" class="st12" width="12" height="12"/>
			<rect x="710.5" y="392.5" class="st12" width="12" height="12"/>
			<rect x="710.5" y="380.5" class="st12" width="12" height="12"/>
			<rect x="710.5" y="356.5" class="st12" width="12" height="12"/>
			<rect x="710.5" y="344.5" class="st13" width="12" height="12"/>
			<rect x="710.5" y="332.6" class="st13" width="12" height="12"/>
			<rect x="710.5" y="320.6" class="st13" width="12" height="12"/>
			<rect x="710.5" y="308.6" class="st12" width="12" height="12"/>
			<rect x="710.5" y="296.6" class="st12" width="12" height="12"/>
			<rect x="698.5" y="356.5" class="st12" width="12" height="12"/>
			<rect x="698.5" y="344.5" class="st12" width="12" height="12"/>
			<rect x="698.5" y="332.6" class="st12" width="12" height="12"/>
			<rect x="698.5" y="320.6" class="st12" width="12" height="12"/>
			<rect x="698.5" y="308.6" class="st12" width="12" height="12"/>
		</g>
	</g>
</g>
</svg>
