<?xml version="1.0" encoding="utf-8"?>
<!-- Generator: Adobe Illustrator 27.9.1, SVG Export Plug-In . SVG Version: 6.00 Build 0)  -->
<svg version="1.1" id="Capa_1" xmlns="http://www.w3.org/2000/svg" xmlns:xlink="http://www.w3.org/1999/xlink" x="0px" y="0px"
	 viewBox="0 0 1857.8 928.5" style="enable-background:new 0 0 1857.8 928.5;" xml:space="preserve">
<style type="text/css">
	.st0{clip-path:url(#SVGID_00000083809549112803519250000008469492254068570777_);}
	.st1{fill:#63332C;}
	.st2{fill:#6E3B31;}
	.st3{fill:none;stroke:#373151;stroke-width:5.7436;stroke-linecap:round;stroke-linejoin:round;}
	.st4{fill:#744339;}
	.st5{fill:#B390F1;stroke:#373151;stroke-width:5.7436;stroke-linecap:round;stroke-linejoin:round;}
	.st6{opacity:0.2;enable-background:new    ;}
	.st7{opacity:0.2;fill:#606060;enable-background:new    ;}
	.st8{fill:none;stroke:#373151;stroke-width:7;stroke-linecap:round;stroke-linejoin:round;}
	.st9{fill:#544A00;stroke:#373151;stroke-width:4.4591;stroke-linecap:round;stroke-linejoin:round;}
	.st10{fill:#4AA4A9;stroke:#373151;stroke-width:3.6135;stroke-linecap:round;stroke-linejoin:round;}
	.st11{fill:#4AA4A9;stroke:#373151;stroke-width:5;stroke-linecap:round;stroke-linejoin:round;}
	.st12{fill:#373151;}
	.st13{clip-path:url(#SVGID_00000174604093148597743780000015277292470861698713_);}
	.st14{fill:#2B4579;}
	.st15{fill:#FFFFFF;}
	.st16{fill:#88B73E;stroke:#373151;stroke-width:4.4591;stroke-linecap:round;stroke-linejoin:round;}
	.st17{fill:#9F7C3E;stroke:#373151;stroke-width:4.4591;stroke-linecap:round;stroke-linejoin:round;}
	.st18{fill:none;stroke:#E2CC6F;stroke-width:4.4591;stroke-linecap:round;stroke-linejoin:round;}
	.st19{fill:#77633E;}
	.st20{fill:none;stroke:#373151;stroke-width:14;stroke-linecap:round;stroke-linejoin:round;}
</style>
<g>
	<g id="Capa_2_00000117666400189639290670000009060226496568105401_">
		<g id="Capa_1-2">
			<g>
				<g>
					<defs>
						<rect id="SVGID_1_" width="1862.6" height="928.4"/>
					</defs>
					<clipPath id="SVGID_00000036209771882774148140000005664151181841380765_">
						<use xlink:href="#SVGID_1_"  style="overflow:visible;"/>
					</clipPath>
					<g style="clip-path:url(#SVGID_00000036209771882774148140000005664151181841380765_);">
						<path class="st1" d="M1418.6,548l-52.8,13.8c0,0-8.6,16.9-10.5,24.6s33.5,41.7,24.3,66.2s-36.9,46.1-47.7,35.3
							s-58.6-87.7-58.5-109.3c0.1-21.5,1.6-124.6,15.4-144.6s58.8-56.9,105.6-29.2s59.1,32.3,62.2,53.9
							C1459.7,480.3,1418.6,548,1418.6,548L1418.6,548z"/>
						<path class="st2" d="M1542.8,314.1c0,0-236.1-103-252.4-92.3s-133.9,273.9-138.5,280.1s32.9,44.6,54.9,30.8
							s55.9-72.7,55.9-91.8s70.8-63.6,70.8-88.3s61.1,74.8,109.8,49.7C1492,377.2,1541.2,332.6,1542.8,314.1L1542.8,314.1z"/>
						<path class="st2" d="M1418.6,514.9c-7.5,1.5-55.9-46.9-55.9-46.9l-24.6,76.9c0,0,24.6,110.8-16.9,107.7s-49.4-32.3-47.8-36.9
							c1.6-4.6-9.2-80.1-9.2-80.1v-59.9c0,0,26.2-124.6,50.8-129.3c24.6-4.6,118.7,26.8,123.2,68
							C1442.8,455.7,1462.2,506.4,1418.6,514.9L1418.6,514.9z"/>
						<path class="st3" d="M1428.7,427.7c19.3,11.9,25.8,18.7,27.9,33.6c3.1,21.5-38,89.3-38,89.3l-52.8,13.8
							c0,0-8.6,16.9-10.5,24.6s33.5,41.7,24.3,66.2s-36.9,46.1-47.7,35.3c-3.7-3.7-11.7-15-20.6-29.3"/>
						<path class="st3" d="M1542.8,316.7c0,0-236.1-103-252.4-92.3s-133.9,273.9-138.5,280.1s32.9,44.6,54.9,30.8
							s55.9-72.7,55.9-91.8s70.8-63.6,70.8-88.3s61.1,74.8,109.8,49.7C1492,379.8,1541.2,335.2,1542.8,316.7L1542.8,316.7z"/>
						<path class="st3" d="M1418.6,517.5c-7.5,1.5-55.9-46.9-55.9-46.9l-24.6,76.9c0,0,24.6,110.8-16.9,107.7s-49.4-32.3-47.8-36.9
							s-9.2-80.1-9.2-80.1v-59.9c0,0,26.2-124.6,50.8-129.3c24.6-4.6,118.7,26.8,123.2,68S1462.2,509,1418.6,517.5L1418.6,517.5z"/>
						<path class="st4" d="M1608.2,260.2c0,0-99.9-1.5-124.6,50.8s-91.4,208.3-89,229.1s-8.9,164.5,95.5,258.5
							c0,0,44.3,114.8,106.7,130.9l187,1011c0,0,399.3-64.6,376.2-161.6S1811.3,835,1804.4,805s-76.2-443.2-96.9-466.3
							S1648,256.9,1608.2,260.2L1608.2,260.2z"/>
						<path class="st4" d="M1623.2,260.1l-139.6-126.8c0,0-122.3-77.3-127-77.3s-122.3-45-138.5-25.4s-16.2,35.8,8.1,47.3
							s113.1,56.6,117.7,60s84.2,61.2,87.7,69.2s51.9,158.1,139.6,121.2S1623.2,260.1,1623.2,260.1L1623.2,260.1z"/>
						<path class="st5" d="M1270.8,587.7c0,0,15.1-2.4,15.1,0s2.1,44.3,1.5,49.2c-1.2,8.9-8.9,14.5-11.1,11.9
							S1270.8,587.7,1270.8,587.7L1270.8,587.7z"/>
						<path class="st5" d="M1320.9,661.9c0,0,21.8,36.9,20.4,37.3c-1.3,0.4-8.4,1.8-12-3.1s-17.9-30.7-17.9-30.7
							S1310.2,653.9,1320.9,661.9L1320.9,661.9z"/>
						<path class="st6" d="M1155.3,495.2c14.9,8,63.1,27.3,63.1,27.3l22.2-27.3H1155.3z"/>
						<path class="st7" d="M1363.3,485.4l-101.1,9.8c0,0,70.2,44.4,75.6,44.9c5.3,0.4,61.9,20.5,61.9,20.5s-9.1-30.7-6.8-33.4
							s9-18.3,9-18.3l-39.2-38.3L1363.3,485.4L1363.3,485.4z"/>
						<path class="st8" d="M1412,88.6c11.8-1.4,89.6,61.2,89.6,61.2l115.9,110.3c34.1,9.1,65.6,44.1,84.4,72.7
							c19.3,29.2,20.6,66.4,27.4,99.7c8.3,41.2,16.6,82.4,24.9,123.6c16.7,83,33.4,165.9,50.1,248.9l329.4,892.7"/>
						<path class="st3" d="M1407.8,185.9l23.8,21.2c0,0,14.4,65.2,63.7,106.7"/>
						<path class="st3" d="M1433.1,209.1c0,0-1.3-19.8,10.7-29.2"/>
						<line class="st3" x1="1465.9" y1="281.5" x2="1407.8" y2="258"/>
						<path class="st3" d="M1553.1,396.2c0,0-28,26.5-13.8,54.6"/>
						<path class="st3" d="M1684.3,352.8c0,0,10.1,6,10.1,25.4"/>
						<path class="st3" d="M1490,798.7c0,0,33.5,100.3,102.8,129.8"/>
						<line class="st8" x1="1734.2" y1="1673.3" x2="1592.8" y2="893.1"/>
						<path class="st9" d="M-62.4,1044.8c0,0-9.5,19.2,121.4,8.5c0,0,231.3,4.1,218.8-18.4c0,0,5.5-17.7-17.9-20.5
							c-53.7-6.4-315.3,14.7-318.2,20.9S-65.9,1044-62.4,1044.8L-62.4,1044.8z"/>
						<path class="st1" d="M440.1,549.7l52.8,13.8c0,0,8.6,16.9,10.5,24.6s-33.5,41.7-24.3,66.2s36.9,46.1,47.7,35.3
							s58.6-87.7,58.5-109.3c-0.1-21.5-1.6-124.6-15.4-144.6s-58.8-56.9-105.6-29.2c-46.8,27.7-59.1,32.3-62.2,53.9
							S440.1,549.7,440.1,549.7L440.1,549.7z"/>
						<path class="st2" d="M316,315.8c0,0,236.1-103,252.4-92.3c16.3,10.6,133.9,273.9,138.5,280.1S674,548.2,652,534.4
							s-56-72.8-56-91.9s-70.8-63.6-70.8-88.3s-61.1,74.8-109.8,49.7C366.7,378.9,317.5,334.2,316,315.8L316,315.8z"/>
						<path class="st2" d="M440.1,516.6c7.5,1.5,55.9-46.9,55.9-46.9l24.6,76.9c0,0-24.6,110.8,16.9,107.7s49.4-32.3,47.8-36.9
							c-1.6-4.6,9.2-80.1,9.2-80.1v-59.9c0,0-26.2-124.6-50.8-129.3c-24.6-4.6-118.7,26.8-123.2,68S396.6,508.1,440.1,516.6
							L440.1,516.6z"/>
						<path class="st3" d="M430.1,429.4c-19.3,11.9-25.8,18.7-27.9,33.6c-3.1,21.5,38,89.3,38,89.3l52.8,13.8
							c0,0,8.6,16.9,10.5,24.6s-33.5,41.7-24.3,66.2s36.9,46.1,47.7,35.3c3.7-3.7,11.7-15,20.6-29.3"/>
						<path class="st3" d="M316,318.4c0,0,236.1-103,252.4-92.3c16.3,10.6,133.9,273.9,138.5,280.1S674,550.8,652,537
							s-56-72.8-56-91.9s-70.8-63.6-70.8-88.3s-61.1,74.8-109.8,49.7C366.7,381.5,317.5,336.9,316,318.4L316,318.4z"/>
						<path class="st3" d="M440.1,519.2c7.5,1.5,55.9-46.9,55.9-46.9l24.6,76.9c0,0-24.6,110.8,16.9,107.7s49.4-32.3,47.8-36.9
							c-1.6-4.6,9.2-80.1,9.2-80.1V480c0,0-26.2-124.6-50.8-129.3c-24.6-4.6-118.7,26.8-123.2,68C416,460,396.6,510.7,440.1,519.2
							L440.1,519.2z"/>
						<path class="st4" d="M250.6,261.9c0,0,99.9-1.5,124.6,50.8s91.4,208.3,89,229.1s8.9,164.5-95.5,258.5
							c0,0-44.3,114.8-106.7,130.9l-187,1011c0,0-399.3-64.6-376.2-161.6c23.1-96.9,348.5-944.1,355.5-974.1
							c6.9-30,76.2-443.2,96.9-466.3C172.1,317.3,210.8,258.6,250.6,261.9L250.6,261.9z"/>
						<path class="st4" d="M235.6,261.8L375.2,135c0,0,122.3-77.3,127-77.3s122.3-45,138.5-25.4s16.2,35.8-8.1,47.3
							s-113.1,56.6-117.7,60s-84.2,61.2-87.7,69.2s-52,158.1-139.7,121.2S235.6,261.8,235.6,261.8L235.6,261.8z"/>
						<path class="st5" d="M587.9,589.4c0,0-15.1-2.4-15.1,0s-2.1,44.3-1.5,49.2c1.2,8.9,8.9,14.5,11.1,11.9
							C584.7,647.7,587.9,589.4,587.9,589.4z"/>
						<path class="st5" d="M537.9,663.5c0,0-21.8,36.9-20.4,37.3s8.4,1.8,12-3.1c3.6-4.9,17.9-30.7,17.9-30.7
							S548.5,655.5,537.9,663.5z"/>
						<path class="st6" d="M703.4,496.9c-14.9,8-63.1,27.3-63.1,27.3l-22.2-27.3L703.4,496.9L703.4,496.9z"/>
						<path class="st7" d="M495.4,487.1l101.1,9.8c0,0-70.2,44.4-75.6,44.9c-5.3,0.4-61.9,20.5-61.9,20.5s9.1-30.7,6.8-33.4
							s-9-18.3-9-18.3l39.2-38.3L495.4,487.1L495.4,487.1z"/>
						<path class="st10" d="M528.4,2.3h97.2c2,0,3.6,1.6,3.6,3.6v42.8c0,2-1.6,3.6-3.6,3.6h-97.2c-2,0-3.6-1.6-3.6-3.6V5.9
							C524.7,3.9,526.4,2.3,528.4,2.3z"/>
						<path class="st10" d="M642.6,2.3h97.2c2,0,3.6,1.6,3.6,3.6v42.8c0,2-1.6,3.6-3.6,3.6h-97.2c-2,0-3.6-1.6-3.6-3.6V5.9
							C638.9,3.9,640.6,2.3,642.6,2.3z"/>
						<path class="st10" d="M804.4,2.3h97.2c2,0,3.6,1.6,3.6,3.6v42.8c0,2-1.6,3.6-3.6,3.6h-97.2c-2,0-3.6-1.6-3.6-3.6V5.9
							C800.7,3.9,802.3,2.3,804.4,2.3z"/>
						<path class="st11" d="M469.9,11.6h975.4c10.5,0,19,8.5,19,19V478c0,10.5-8.5,19-19,19H469.9c-10.5,0-19-8.5-19-19V30.5
							C451,20.1,459.4,11.6,469.9,11.6z"/>
						<path class="st12" d="M505.1,27.3h927.7c5.4,0,9.7,4.3,9.7,9.7v432.4c0,5.4-4.3,9.7-9.7,9.7H505.1c-5.4,0-9.7-4.3-9.7-9.7V37
							C495.4,31.6,499.7,27.3,505.1,27.3z"/>
						<path class="st12" d="M474.6,159.3L474.6,159.3c3.7,0,6.7,3,6.7,6.7v157.6c0,3.7-3,6.7-6.7,6.7l0,0c-3.7,0-6.7-3-6.7-6.7
							V165.9C467.9,162.3,470.9,159.3,474.6,159.3z"/>
						<circle class="st12" cx="473.2" cy="109" r="8.4"/>
						<g>
							<g>
								<defs>
									<path id="SVGID_00000160900624740112718230000000481683564502130837_" d="M505.1,27.3h927.7c5.4,0,9.7,4.3,9.7,9.7v432.4
										c0,5.4-4.3,9.7-9.7,9.7H505.1c-5.4,0-9.7-4.3-9.7-9.7V37C495.4,31.6,499.7,27.3,505.1,27.3z"/>
								</defs>
								<clipPath id="SVGID_00000031888929287325489310000004652616194282547881_">
									<use xlink:href="#SVGID_00000160900624740112718230000000481683564502130837_"  style="overflow:visible;"/>
								</clipPath>
								<g style="clip-path:url(#SVGID_00000031888929287325489310000004652616194282547881_);">
									<path class="st14" d="M668.9,121.7v21.2h-0.2c-0.1,0-0.1,0-0.2,0h-0.2c-0.1,0-0.1,0-0.2,0H668c-0.1,0-0.1,0-0.2,0h-0.3
										c-0.1,0-0.1,0-0.2,0H667c-0.1,0-0.1,0-0.2,0h-0.5c-0.1,0-0.1,0-0.2,0H666c-0.1,0-0.1,0-0.2,0h-0.5c-0.1,0-0.1,0-0.2,0h-0.6
										c-0.1,0-0.1,0-0.2,0h-0.5c-0.1,0-0.1,0-0.2,0H663c-0.1,0-0.1,0-0.2,0H662c-0.1,0-0.1,0-0.2,0H661c-0.1,0-0.1,0-0.2,0h-1.1
										c-0.1,0-0.1,0-0.2,0h-1.6c-0.1,0-0.1,0-0.2,0H656c-0.1,0-0.1,0-0.2,0h-7.2v62.7h-21.1v-40.9h-42v61.4h-20.6v-40.6h-21v40.2
										h-21v-40.3h-20.6V205h-13.9v1139H501v-40.4h20.6v20.5h104.9c0,0.1,0,0.1,0,0.2s0,0.1,0,0.2s0,0.1,0,0.2s0,0.1,0,0.2
										s0,0.1,0,0.2s0,0.1,0,0.2s0,0.1,0,0.2s0,0.1,0,0.2s0,0.1,0,0.2s0,0.1,0,0.2s0,0.1,0,0.2s0,0.1,0,0.2s0,0.1,0,0.2
										s0,0.1,0,0.2s0,0.1,0,0.2s0,0.1,0,0.2s0,0.1,0,0.2s0,0.1,0,0.2s0,0.1,0,0.2s0,0.1,0,0.2s0,0.1,0,0.2s0,0.1,0,0.2
										s0,0.1,0,0.2s0,0.1,0,0.2s0,0.1,0,0.2s0,0.1,0,0.2s0,0.1,0,0.2s0,0.1,0,0.2s0,0.1,0,0.2s0,0.1,0,0.2s0,0.1,0,0.2
										s0,0.1,0,0.2s0,0.1,0,0.2s0,0.1,0,0.2s0,0.1,0,0.2s0,0.1,0,0.2s0,0.1,0,0.2s0,0.1,0,0.2s0,0.1,0,0.2s0,0.1,0,0.2
										s0,0.1,0,0.2s0,0.1,0,0.2s0,0.1,0,0.2s0,0.1,0,0.2s0,0.1,0,0.2s0,0.1,0,0.2s0,0.1,0,0.2s0,0.1,0,0.2s0,0.1,0,0.2
										s0,0.1,0,0.2s0,0.1,0,0.2s0,0.1,0,0.2s0,0.1,0,0.2s0,0.1,0,0.2s0,0.1,0,0.2s0,0.1,0,0.2s0,0.1,0,0.2s0,0.1,0,0.2
										s0,0.1,0,0.2s0,0.1,0,0.2s0,0.1,0,0.2s0,0.1,0,0.2s0,0.1,0,0.2s0,0.1,0,0.2s0,0.1,0,0.2v0.2c0,0.1,0,0.1,0,0.2s0,0.1,0,0.2
										s0,0.1,0,0.2s0,0.1,0,0.2s0,0.1,0,0.2s0,0.1,0,0.2s0,0.1,0,0.2s0,0.1,0,0.2s0,0.1,0,0.2s0,0.1,0,0.2s0,0.1,0,0.2
										s0,0.1,0,0.2s0,0.1,0,0.2s0,0.1,0,0.2v0.2c0,0.1,0,0.1,0,0.2s0,0.1,0,0.2s0,0.1,0,0.2s0,0.1,0,0.2s0,0.1,0,0.2s0,0.1,0,0.2
										s0,0.1,0,0.2s0,0.1,0,0.2s0,0.1,0,0.2s0,0.1,0,0.2s0,0.1,0,0.2s0,0.1,0,0.2s0,0.1,0,0.2s0,0.1,0,0.2s0,0.1,0,0.2
										s0,0.1,0,0.2s0,0.1,0,0.2s0,0.1,0,0.2s0,0.1,0,0.2s0,0.1,0,0.2s0,0.1,0,0.2s0,0.1,0,0.2s0,0.1,0,0.2s0,0.1,0,0.2
										s0,0.1,0,0.2s0,0.1,0,0.2s0,0.1,0,0.2s0,0.1,0,0.2s0,0.1,0,0.2s0,0.1,0,0.2s0,0.1,0,0.2s0,0.1,0,0.2s0,0.1,0,0.2
										s0,0.1,0,0.2s0,0.1,0,0.2s0,0.1,0,0.2s0,0.1,0,0.2s0,0.1,0,0.2s0,0.1,0,0.2s0,0.1,0,0.2s0,0.1,0,0.2s0,0.1,0,0.2
										s0,0.1,0,0.2v0.2c0,0.1,0,0.1,0,0.2s0,0.1,0,0.2s0,0.1,0,0.2c0.1,0,0.1,0,0.2,0c0.1,0,0.1,0,0.2,0c0.1,0,0.1,0,0.2,0
										s0.1,0,0.2,0c0.1,0,0.1,0,0.2,0c0.1,0,0.1,0,0.2,0c0.1,0,0.1,0,0.2,0c0.1,0,0.1,0,0.2,0c0.1,0,0.1,0,0.2,0
										c0.1,0,0.1,0,0.2,0c0.1,0,0.1,0,0.2,0c0.1,0,0.1,0,0.2,0c0.1,0,0.1,0,0.2,0c0.1,0,0.1,0,0.2,0c0.1,0,0.1,0,0.2,0
										s0.1,0,0.2,0c0.1,0,0.1,0,0.2,0c0.1,0,0.1,0,0.2,0c0.1,0,0.1,0,0.2,0c0.1,0,0.1,0,0.2,0c0.1,0,0.1,0,0.2,0s0.1,0,0.2,0
										c0.1,0,0.1,0,0.2,0c0.1,0,0.1,0,0.2,0c0.1,0,0.1,0,0.2,0h0.2c0.1,0,0.1,0,0.2,0c0.1,0,0.1,0,0.2,0c0.1,0,0.1,0,0.2,0
										s0.1,0,0.2,0c0.1,0,0.1,0,0.2,0s0.1,0,0.2,0c0.1,0,0.1,0,0.2,0c0.1,0,0.1,0,0.2,0c0.1,0,0.1,0,0.2,0c0.1,0,0.1,0,0.2,0
										c0.1,0,0.1,0,0.2,0s0.1,0,0.2,0s0.1,0,0.2,0s0.1,0,0.2,0s0.1,0,0.2,0c0.1,0,0.1,0,0.2,0s0.1,0,0.2,0c0.1,0,0.1,0,0.2,0
										c0.1,0,0.1,0,0.2,0s0.1,0,0.2,0c0.1,0,0.1,0,0.2,0c0.1,0,0.1,0,0.2,0c0.1,0,0.1,0,0.2,0c0.1,0,0.1,0,0.2,0
										c0.1,0,0.1,0,0.2,0c0.1,0,0.1,0,0.2,0c0.1,0,0.1,0,0.2,0c0.1,0,0.1,0,0.2,0s0.1,0,0.2,0c0.1,0,0.1,0,0.2,0s0.1,0,0.2,0
										c0.1,0,0.1,0,0.2,0s0.1,0,0.2,0c0.1,0,0.1,0,0.2,0s0.1,0,0.2,0c0.1,0,0.1,0,0.2,0c0.1,0,0.1,0,0.2,0c0.1,0,0.1,0,0.2,0
										c0.1,0,0.1,0,0.2,0s0.1,0,0.2,0c0.1,0,0.1,0,0.2,0c0.1,0,0.1,0,0.2,0s0.1,0,0.2,0c0.1,0,0.1,0,0.2,0c0.1,0,0.1,0,0.2,0
										s0.1,0,0.2,0c0.1,0,0.1,0,0.2,0c0.1,0,0.1,0,0.2,0h0.2c0.1,0,0.1,0,0.2,0c0.1,0,0.1,0,0.2,0s0.1,0,0.2,0h0.2
										c0.1,0,0.1,0,0.2,0c0.1,0,0.1,0,0.2,0h0.2c0.1,0,0.1,0,0.2,0c0.1,0,0.1,0,0.2,0h0.2c0.1,0,0.1,0,0.2,0h0.2
										c0.1,0,0.1,0,0.2,0h0.2c0.1,0,0.1,0,0.2,0h0.3c0.1,0,0.1,0,0.2,0h0.3c0.1,0,0.1,0,0.2,0h0.3c0.1,0,0.1,0,0.2,0h0.7
										c0.1,0,0.1,0,0.2,0h1c0.1,0,0.1,0,0.2,0h3v-20.2h41.1c0-0.1,0-0.1,0-0.2s0-0.1,0-0.2s0-0.1,0-0.2s0-0.1,0-0.2s0-0.1,0-0.2
										s0-0.1,0-0.2s0-0.1,0-0.2s0-0.1,0-0.2s0-0.1,0-0.2s0-0.1,0-0.2s0-0.1,0-0.2s0-0.1,0-0.2s0-0.1,0-0.2s0-0.1,0-0.2
										s0-0.1,0-0.2s0-0.1,0-0.2s0-0.1,0-0.2s0-0.1,0-0.2s0-0.1,0-0.2s0-0.1,0-0.2s0-0.1,0-0.2s0-0.1,0-0.2s0-0.1,0-0.2
										s0-0.1,0-0.2s0-0.1,0-0.2s0-0.1,0-0.2s0-0.1,0-0.2s0-0.1,0-0.2s0-0.1,0-0.2s0-0.1,0-0.2s0-0.1,0-0.2s0-0.1,0-0.2
										s0-0.1,0-0.2s0-0.1,0-0.2s0-0.1,0-0.2v-0.2c0-0.1,0-0.1,0-0.2s0-0.1,0-0.2s0-0.1,0-0.2s0-0.1,0-0.2s0-0.1,0-0.2
										s0-0.1,0-0.2s0-0.1,0-0.2s0-0.1,0-0.2s0-0.1,0-0.2s0-0.1,0-0.2s0-0.1,0-0.2s0-0.1,0-0.2s0-0.1,0-0.2s0-0.1,0-0.2
										s0-0.1,0-0.2s0-0.1,0-0.2s0-0.1,0-0.2s0-0.1,0-0.2s0-0.1,0-0.2s0-0.1,0-0.2s0-0.1,0-0.2s0-0.1,0-0.2s0-0.1,0-0.2
										s0-0.1,0-0.2s0-0.1,0-0.2s0-0.1,0-0.2s0-0.1,0-0.2s0-0.1,0-0.2s0-0.1,0-0.2s0-0.1,0-0.2s0-0.1,0-0.2s0-0.1,0-0.2
										s0-0.1,0-0.2s0-0.1,0-0.2s0-0.1,0-0.2s0-0.1,0-0.2s0-0.1,0-0.2s0-0.1,0-0.2s0-0.1,0-0.2s0-0.1,0-0.2s0-0.1,0-0.2
										s0-0.1,0-0.2s0-0.1,0-0.2s0-0.1,0-0.2s0-0.1,0-0.2s0-0.1,0-0.2s0-0.1,0-0.2s0-0.1,0-0.2s0-0.1,0-0.2s0-0.1,0-0.2
										s0-0.1,0-0.2s0-0.1,0-0.2s0-0.1,0-0.2s0-0.1,0-0.2s0-0.1,0-0.2s0-0.1,0-0.2s0-0.1,0-0.2s0-0.1,0-0.2s0-0.1,0-0.2
										s0-0.1,0-0.2s0-0.1,0-0.2s0-0.1,0-0.2s0-0.1,0-0.2s0-0.1,0-0.2v-0.2v-0.2c0-0.1,0-0.1,0-0.2s0-0.1,0-0.2s0-0.1,0-0.2
										s0-0.1,0-0.2s0-0.1,0-0.2s0-0.1,0-0.2s0-0.1,0-0.2s0-0.1,0-0.2s0-0.1,0-0.2s0-0.1,0-0.2s0-0.1,0-0.2s0-0.1,0-0.2
										s0-0.1,0-0.2s0-0.1,0-0.2s0-0.1,0-0.2s0-0.1,0-0.2s0-0.1,0-0.2s0-0.1,0-0.2s0-0.1,0-0.2s0-0.1,0-0.2s0-0.1,0-0.2
										s0-0.1,0-0.2s0-0.1,0-0.2s0-0.1,0-0.2s0-0.1,0-0.2s0-0.1,0-0.2h20v-41.5h21v19.6H752v21.3h-20v21.2h20v20.6h41.8
										c0-0.1,0-0.2,0-0.3s0-0.2,0-0.3c0-0.1,0-0.2,0-0.3s0-0.2,0-0.3c0-0.1,0-0.2,0-0.3s0-0.2,0-0.3c0-0.1,0-0.2,0-0.3
										s0-0.2,0-0.3c0-0.1,0-0.2,0-0.3s0-0.2,0-0.3c0-0.1,0-0.2,0-0.3s0-0.2,0-0.3s0-0.2,0-0.3c0-0.1,0-0.2,0-0.3s0-0.2,0-0.3
										c0-0.1,0-0.2,0-0.3s0-0.2,0-0.3c0-0.1,0-0.2,0-0.3s0-0.2,0-0.3c0-0.1,0-0.2,0-0.3s0-0.2,0-0.3c0-0.1,0-0.2,0-0.3
										s0-0.2,0-0.3c0-0.1,0-0.2,0-0.3s0-0.2,0-0.3c0-0.1,0-0.2,0-0.3s0-0.2,0-0.3c0-0.1,0-0.2,0-0.3s0-0.2,0-0.3
										c0-0.1,0-0.2,0-0.3s0-0.2,0-0.3c0-0.1,0-0.2,0-0.3s0-0.2,0-0.3c0-0.1,0-0.2,0-0.3s0-0.2,0-0.3c0-0.1,0-0.2,0-0.3
										s0-0.2,0-0.3c0-0.1,0-0.2,0-0.3s0-0.2,0-0.3c0-0.1,0-0.2,0-0.3c0-0.1,0-0.2,0-0.3s0-0.2,0-0.3c0-0.1,0-0.2,0-0.3
										s0-0.2,0-0.3c0-0.1,0-0.2,0-0.3s0-0.2,0-0.3c0-0.1,0-0.2,0-0.3s0-0.2,0-0.3c0-0.1,0-0.2,0-0.3s0-0.2,0-0.3
										c0-0.1,0-0.2,0-0.3s0-0.2,0-0.3c0-0.1,0-0.2,0-0.3s0-0.2,0-0.3c0-0.1,0-0.2,0-0.3s0-0.2,0-0.3c0-0.1,0-0.2,0-0.3
										s0-0.2,0-0.3c0-0.1,0-0.2,0-0.3s0-0.2,0-0.3c0-0.1,0-0.2,0-0.3s0-0.2,0-0.3c0-0.1,0-0.2,0-0.3s0-0.2,0-0.3
										c0-0.1,0-0.2,0-0.3s0-0.2,0-0.3c0-0.1,0-0.2,0-0.3c0-0.1,0-0.2,0-0.3s0-0.2,0-0.3c0-0.1,0-0.2,0-0.3s0-0.2,0-0.3
										c0-0.1,0-0.2,0-0.3s0-0.2,0-0.3c0-0.1,0-0.2,0-0.3s0-0.2,0-0.3c0-0.1,0-0.2,0-0.3s0-0.2,0-0.3c0-0.1,0-0.2,0-0.3
										s0-0.2,0-0.3c0-0.1,0-0.2,0-0.3c0-0.1,0-0.2,0-0.3s0-0.2,0-0.3c0-0.1,0-0.2,0-0.3s0-0.2,0-0.3c0-0.1,0-0.2,0-0.3
										s0-0.2,0-0.3c0-0.1,0-0.2,0-0.3c0-0.1,0-0.2,0-0.3s0-0.2,0-0.3c0-0.1,0-0.2,0-0.3s0-0.2,0-0.3c0-0.1,0-0.2,0-0.3
										s0-0.2,0-0.3s0-0.2,0-0.3c0-0.1,0-0.2,0-0.3s0-0.2,0-0.3c0-0.1,0-0.2,0-0.3c0-0.1,0-0.2,0-0.3s0-0.2,0-0.3
										c0-0.1,0-0.2,0-0.3s0-0.2,0-0.3c0-0.1,0-0.2,0-0.3c0-0.1,0-0.2,0-0.3s0-0.2,0-0.3c0-0.1,0-0.2,0-0.3s0-0.2,0-0.3
										s0-0.2,0-0.3c0-0.1,0-0.2,0-0.3c0-0.1,0-0.2,0-0.3s0-0.2,0-0.3c0-0.1,0-0.2,0-0.3s0-0.2,0-0.3s0-0.2,0-0.3
										c0-0.1,0-0.2,0-0.3s0-0.2,0-0.3s0-0.2,0-0.3c0-0.1,0-0.2,0-0.3c0-0.1,0-0.2,0-0.3s0-0.2,0-0.3s0-0.2,0-0.3
										c0-0.1,0-0.2,0-0.3s0-0.2,0-0.3s0-0.2,0-0.3c0-0.1,0-0.2,0-0.3c0-0.1,0-0.2,0-0.3s0-0.2,0-0.3s0-0.2,0-0.3
										c0-0.1,0-0.2,0-0.3h20.6v20H836v-20h20.9v-20.9h20.5v41H898v-20h63.3v-42.4h20.3c0,0.1,0,0.2,0,0.3c0,0.1,0,0.2,0,0.3
										s0,0.2,0,0.3v0.3c0,0.1,0,0.2,0,0.3s0,0.2,0,0.3s0,0.2,0,0.3s0,0.2,0,0.3s0,0.2,0,0.3c0,0.1,0,0.2,0,0.3c0,0.1,0,0.2,0,0.3
										s0,0.2,0,0.3c0,0.1,0,0.2,0,0.3c0,0.1,0,0.2,0,0.3c0,0.1,0,0.2,0,0.3s0,0.2,0,0.3s0,0.2,0,0.3c0,0.1,0,0.2,0,0.3
										c0,0.1,0,0.2,0,0.3c0,0.1,0,0.2,0,0.3c0,0.1,0,0.2,0,0.3c0,0.1,0,0.2,0,0.3c0,0.1,0,0.2,0,0.3c0,0.1,0,0.2,0,0.3
										c0,0.1,0,0.2,0,0.3c0,0.1,0,0.2,0,0.3s0,0.2,0,0.3c0,0.1,0,0.2,0,0.3s0,0.2,0,0.3c0,0.1,0,0.2,0,0.3v0.3c0,0.1,0,0.2,0,0.3
										s0,0.2,0,0.3v0.3c0,0.1,0,0.2,0,0.3s0,0.2,0,0.3v0.3c0,0.1,0,0.2,0,0.3c0,0.1,0,0.2,0,0.3c0,0.1,0,0.2,0,0.3
										c0,0.1,0,0.2,0,0.3s0,0.2,0,0.3s0,0.2,0,0.3s0,0.2,0,0.3s0,0.2,0,0.3s0,0.2,0,0.3s0,0.2,0,0.3c0,0.1,0,0.2,0,0.3
										c0,0.1,0,0.2,0,0.3s0,0.2,0,0.3c0,0.1,0,0.2,0,0.3c0,0.1,0,0.2,0,0.3c0,0.1,0,0.2,0,0.3c0,0.1,0,0.2,0,0.3s0,0.2,0,0.3
										s0,0.2,0,0.3s0,0.2,0,0.3c0,0.1,0,0.2,0,0.3s0,0.2,0,0.3c0,0.1,0,0.2,0,0.3c0,0.1,0,0.2,0,0.3s0,0.2,0,0.3
										c0,0.1,0,0.2,0,0.3s0,0.2,0,0.3c0,0.1,0,0.2,0,0.3s0,0.2,0,0.3c0,0.1,0,0.2,0,0.3c0,0.1,0,0.2,0,0.3s0,0.2,0,0.3
										s0,0.2,0,0.3c0,0.1,0,0.2,0,0.3s0,0.2,0,0.3s0,0.2,0,0.3c0,0.1,0,0.2,0,0.3c0,0.1,0,0.2,0,0.3s0,0.2,0,0.3s0,0.2,0,0.3
										c0,0.1,0,0.2,0,0.3s0,0.2,0,0.3s0,0.2,0,0.3v0.3c0,0.1,0,0.2,0,0.3s0,0.2,0,0.3s0,0.2,0,0.3v0.3c0,0.1,0,0.2,0,0.3v0.3
										c0,0.1,0,0.2,0,0.3v0.3c0,0.1,0,0.2,0,0.3v0.3c0,0.1,0,0.2,0,0.3v0.3c0,0.1,0,0.2,0,0.3v0.7c0,0.1,0,0.2,0,0.3v0.7
										c0,0.1,0,0.2,0,0.3v1c0,0.1,0,0.2,0,0.3v1.7c0,0.1,0,0.2,0,0.3v6.1h42.1v20.9h21v-19.7h21.5v-21.3h20.4v20.6h63.7v42.2
										c0.1,0,0.2,0,0.3,0s0.2,0,0.3,0c0.1,0,0.2,0,0.3,0s0.2,0,0.3,0c0.1,0,0.2,0,0.3,0s0.2,0,0.3,0s0.2,0,0.3,0
										c0.1,0,0.2,0,0.3,0c0.1,0,0.2,0,0.3,0s0.2,0,0.3,0c0.1,0,0.2,0,0.3,0c0.1,0,0.2,0,0.3,0s0.2,0,0.3,0c0.1,0,0.2,0,0.3,0
										c0.1,0,0.2,0,0.3,0h0.3c0.1,0,0.2,0,0.3,0c0.1,0,0.2,0,0.3,0c0.1,0,0.2,0,0.3,0c0.1,0,0.2,0,0.3,0s0.2,0,0.3,0s0.2,0,0.3,0
										c0.1,0,0.2,0,0.3,0s0.2,0,0.3,0s0.2,0,0.3,0c0.1,0,0.2,0,0.3,0c0.1,0,0.2,0,0.3,0c0.1,0,0.2,0,0.3,0s0.2,0,0.3,0
										c0.1,0,0.2,0,0.3,0s0.2,0,0.3,0c0.1,0,0.2,0,0.3,0s0.2,0,0.3,0c0.1,0,0.2,0,0.3,0s0.2,0,0.3,0s0.2,0,0.3,0
										c0.1,0,0.2,0,0.3,0c0.1,0,0.2,0,0.3,0s0.2,0,0.3,0c0.1,0,0.2,0,0.3,0c0.1,0,0.2,0,0.3,0c0.1,0,0.2,0,0.3,0
										c0.1,0,0.2,0,0.3,0c0.1,0,0.2,0,0.3,0c0.1,0,0.2,0,0.3,0c0.1,0,0.2,0,0.3,0c0.1,0,0.2,0,0.3,0c0.1,0,0.2,0,0.3,0
										s0.2,0,0.3,0s0.2,0,0.3,0c0.1,0,0.2,0,0.3,0s0.2,0,0.3,0s0.2,0,0.3,0s0.2,0,0.3,0c0.1,0,0.2,0,0.3,0c0.1,0,0.2,0,0.3,0
										s0.2,0,0.3,0c0.1,0,0.2,0,0.3,0c0.1,0,0.2,0,0.3,0s0.2,0,0.3,0c0.1,0,0.2,0,0.3,0s0.2,0,0.3,0c0.1,0,0.2,0,0.3,0
										s0.2,0,0.3,0s0.2,0,0.3,0c0.1,0,0.2,0,0.3,0s0.2,0,0.3,0c0.1,0,0.2,0,0.3,0c0.1,0,0.2,0,0.3,0c0.1,0,0.2,0,0.3,0
										c0.1,0,0.2,0,0.3,0s0.2,0,0.3,0c0.1,0,0.2,0,0.3,0c0.1,0,0.2,0,0.3,0c0.1,0,0.2,0,0.3,0c0.1,0,0.2,0,0.3,0
										c0.1,0,0.2,0,0.3,0c0.1,0,0.2,0,0.3,0c0.1,0,0.2,0,0.3,0c0.1,0,0.2,0,0.3,0s0.2,0,0.3,0s0.2,0,0.3,0c0.1,0,0.2,0,0.3,0
										c0.1,0,0.2,0,0.3,0s0.2,0,0.3,0c0.1,0,0.2,0,0.3,0s0.2,0,0.3,0s0.2,0,0.3,0c0.1,0,0.2,0,0.3,0s0.2,0,0.3,0
										c0.1,0,0.2,0,0.3,0s0.2,0,0.3,0c0.1,0,0.2,0,0.3,0s0.2,0,0.3,0s0.2,0,0.3,0s0.2,0,0.3,0s0.2,0,0.3,0c0.1,0,0.2,0,0.3,0
										s0.2,0,0.3,0s0.2,0,0.3,0c0.1,0,0.2,0,0.3,0s0.2,0,0.3,0s0.2,0,0.3,0s0.2,0,0.3,0s0.2,0,0.3,0c0.1,0,0.2,0,0.3,0
										s0.2,0,0.3,0s0.2,0,0.3,0s0.2,0,0.3,0c0.1,0,0.2,0,0.3,0s0.2,0,0.3,0s0.2,0,0.3,0c0.1,0,0.2,0,0.3,0s0.2,0,0.3,0
										c0.1,0,0.2,0,0.3,0c0.1,0,0.2,0,0.3,0s0.2,0,0.3,0c0.1,0,0.2,0,0.3,0s0.2,0,0.3,0s0.2,0,0.3,0c0.1,0,0.2,0,0.3,0
										s0.2,0,0.3,0c0.1,0,0.2,0,0.3,0s0.2,0,0.3,0c0.1,0,0.2,0,0.3,0s0.2,0,0.3,0c0.1,0,0.2,0,0.3,0s0.2,0,0.3,0
										c0,0.1,0,0.1,0,0.2v0.2c0,0.1,0,0.1,0,0.2s0,0.1,0,0.2s0,0.1,0,0.2v0.2c0,0.1,0,0.1,0,0.2s0,0.1,0,0.2s0,0.1,0,0.2
										s0,0.1,0,0.2s0,0.1,0,0.2s0,0.1,0,0.2v0.2c0,0.1,0,0.1,0,0.2s0,0.1,0,0.2s0,0.1,0,0.2s0,0.1,0,0.2s0,0.1,0,0.2s0,0.1,0,0.2
										v0.2c0,0.1,0,0.1,0,0.2s0,0.1,0,0.2v0.2c0,0.1,0,0.1,0,0.2s0,0.1,0,0.2s0,0.1,0,0.2s0,0.1,0,0.2s0,0.1,0,0.2v0.2
										c0,0.1,0,0.1,0,0.2s0,0.1,0,0.2v0.2c0,0.1,0,0.1,0,0.2s0,0.1,0,0.2s0,0.1,0,0.2s0,0.1,0,0.2s0,0.1,0,0.2v0.2
										c0,0.1,0,0.1,0,0.2v0.2c0,0.1,0,0.1,0,0.2s0,0.1,0,0.2s0,0.1,0,0.2s0,0.1,0,0.2s0,0.1,0,0.2s0,0.1,0,0.2s0,0.1,0,0.2
										s0,0.1,0,0.2v0.2c0,0.1,0,0.1,0,0.2v0.2c0,0.1,0,0.1,0,0.2s0,0.1,0,0.2s0,0.1,0,0.2s0,0.1,0,0.2s0,0.1,0,0.2v0.2
										c0,0.1,0,0.1,0,0.2v0.2c0,0.1,0,0.1,0,0.2s0,0.1,0,0.2s0,0.1,0,0.2s0,0.1,0,0.2s0,0.1,0,0.2s0,0.1,0,0.2s0,0.1,0,0.2v0.2
										c0,0.1,0,0.1,0,0.2s0,0.1,0,0.2s0,0.1,0,0.2s0,0.1,0,0.2s0,0.1,0,0.2s0,0.1,0,0.2s0,0.1,0,0.2v0.2c0,0.1,0,0.1,0,0.2
										s0,0.1,0,0.2s0,0.1,0,0.2s0,0.1,0,0.2s0,0.1,0,0.2s0,0.1,0,0.2s0,0.1,0,0.2v0.2c0,0.1,0,0.1,0,0.2s0,0.1,0,0.2s0,0.1,0,0.2
										s0,0.1,0,0.2s0,0.1,0,0.2v0.2c0,0.1,0,0.1,0,0.2v0.2c0,0.1,0,0.1,0,0.2s0,0.1,0,0.2s0,0.1,0,0.2s0,0.1,0,0.2s0,0.1,0,0.2
										v0.2c0,0.1,0,0.1,0,0.2s0,0.1,0,0.2s0,0.1,0,0.2s0,0.1,0,0.2s0,0.1,0,0.2v0.2c0,0.1,0,0.1,0,0.2s0,0.1,0,0.2s0,0.1,0,0.2
										s0,0.1,0,0.2s0,0.1,0,0.2v0.2c0,0.1,0,0.1,0,0.2s0,0.1,0,0.2v0.2c0,0.1,0,0.1,0,0.2s0,0.1,0,0.2s0,0.1,0,0.2v0.2
										c0,0.1,0,0.1,0,0.2s0,0.1,0,0.2s0,0.1,0,0.2s0,0.1,0,0.2s0,0.1,0,0.2s0,0.1,0,0.2s0,0.1,0,0.2s0,0.1,0,0.2s0,0.1,0,0.2
										s0,0.1,0,0.2s0,0.1,0,0.2s0,0.1,0,0.2h20.9V1345h0.3h0.3h0.3h0.3h0.3h0.3h0.3h0.3h0.3h0.3h0.3h0.3h0.3h0.3h0.3h0.3h0.3h0.3
										h0.3h0.3h0.3h0.3h0.3h0.3h0.3h0.3h0.3h0.3h0.3h0.3h0.3h0.3h0.3h0.3h0.3h0.3h0.3h0.3h0.3h0.3h0.3h0.3h0.3h0.3h0.3h0.3h0.3
										h0.3h0.3h0.3h0.3h0.3h0.3h0.3h0.3h0.3h0.3h0.3h0.3h0.3h0.3h0.3h0.3h0.3h0.3h0.3h0.3h0.3h0.3h0.3h0.3h0.3h0.3h0.3h0.3h0.3
										h0.3h0.3h0.3h0.3h0.3h0.3h0.3h0.3h0.3h0.3h0.3h0.3h0.3h0.3h0.3h0.3h0.3h0.3h0.3h0.3h0.3h0.3h0.3h0.3h0.3h0.3h0.3h0.3h0.3
										h0.3h0.3h0.3h0.3h0.3h0.3h0.3h0.3h0.3h0.3h0.3h0.3h0.3h0.3h0.3h0.3h0.3h0.3h0.3h0.3h0.3h0.3h0.3v-20.4h20.5v-20.9h-19.4
										v-20.9h19.5c0-0.1,0-0.1,0-0.2s0-0.1,0-0.2s0-0.1,0-0.2s0-0.1,0-0.2s0-0.1,0-0.2s0-0.1,0-0.2s0-0.1,0-0.2s0-0.1,0-0.2
										s0-0.1,0-0.2s0-0.1,0-0.2s0-0.1,0-0.2s0-0.1,0-0.2s0-0.1,0-0.2s0-0.1,0-0.2s0-0.1,0-0.2s0-0.1,0-0.2s0-0.1,0-0.2
										s0-0.1,0-0.2s0-0.1,0-0.2s0-0.1,0-0.2s0-0.1,0-0.2s0-0.1,0-0.2s0-0.1,0-0.2s0-0.1,0-0.2s0-0.1,0-0.2s0-0.1,0-0.2
										s0-0.1,0-0.2s0-0.1,0-0.2s0-0.1,0-0.2s0-0.1,0-0.2s0-0.1,0-0.2s0-0.1,0-0.2s0-0.1,0-0.2s0-0.1,0-0.2s0-0.1,0-0.2
										s0-0.1,0-0.2s0-0.1,0-0.2s0-0.1,0-0.2s0-0.1,0-0.2s0-0.1,0-0.2s0-0.1,0-0.2s0-0.1,0-0.2s0-0.1,0-0.2s0-0.1,0-0.2
										s0-0.1,0-0.2s0-0.1,0-0.2s0-0.1,0-0.2v-0.2c0-0.1,0-0.1,0-0.2s0-0.1,0-0.2s0-0.1,0-0.2s0-0.1,0-0.2s0-0.1,0-0.2
										s0-0.1,0-0.2s0-0.1,0-0.2s0-0.1,0-0.2s0-0.1,0-0.2s0-0.1,0-0.2s0-0.1,0-0.2s0-0.1,0-0.2s0-0.1,0-0.2s0-0.1,0-0.2
										s0-0.1,0-0.2s0-0.1,0-0.2s0-0.1,0-0.2s0-0.1,0-0.2s0-0.1,0-0.2s0-0.1,0-0.2s0-0.1,0-0.2s0-0.1,0-0.2s0-0.1,0-0.2
										s0-0.1,0-0.2s0-0.1,0-0.2v-0.2c0-0.1,0-0.1,0-0.2s0-0.1,0-0.2s0-0.1,0-0.2s0-0.1,0-0.2s0-0.1,0-0.2s0-0.1,0-0.2
										s0-0.1,0-0.2s0-0.1,0-0.2s0-0.1,0-0.2v-0.2v-0.2c0-0.1,0-0.1,0-0.2s0-0.1,0-0.2s0-0.1,0-0.2s0-0.1,0-0.2s0-0.1,0-0.2
										s0-0.1,0-0.2s0-0.1,0-0.2s0-0.1,0-0.2s0-0.1,0-0.2s0-0.1,0-0.2v-0.2c0-0.1,0-0.1,0-0.2v-0.2c0-0.1,0-0.1,0-0.2s0-0.1,0-0.2
										v-0.2v-0.2c0-0.1,0-0.1,0-0.2v-0.2v-0.2c0-0.1,0-0.1,0-0.2s0-0.1,0-0.2s0-0.1,0-0.2v-0.2c0-0.1,0-0.1,0-0.2s0-0.1,0-0.2
										s0-0.1,0-0.2v-0.2c0-0.1,0-0.1,0-0.2s0-0.1,0-0.2s0-0.1,0-0.2s0-0.1,0-0.2s0-0.1,0-0.2s0-0.1,0-0.2s0-0.1,0-0.2
										s0-0.1,0-0.2s0-0.1,0-0.2s0-0.1,0-0.2s0-0.1,0-0.2s0-0.1,0-0.2s0-0.1,0-0.2s0-0.1,0-0.2s0-0.1,0-0.2h20v41.1h21.2v-20.4
										h20.5c0-0.1,0-0.1,0-0.2s0-0.1,0-0.2s0-0.1,0-0.2s0-0.1,0-0.2s0-0.1,0-0.2s0-0.1,0-0.2s0-0.1,0-0.2s0-0.1,0-0.2
										s0-0.1,0-0.2s0-0.1,0-0.2s0-0.1,0-0.2s0-0.1,0-0.2s0-0.1,0-0.2s0-0.1,0-0.2s0-0.1,0-0.2s0-0.1,0-0.2s0-0.1,0-0.2
										s0-0.1,0-0.2s0-0.1,0-0.2s0-0.1,0-0.2s0-0.1,0-0.2s0-0.1,0-0.2s0-0.1,0-0.2s0-0.1,0-0.2s0-0.1,0-0.2s0-0.1,0-0.2
										s0-0.1,0-0.2s0-0.1,0-0.2s0-0.1,0-0.2s0-0.1,0-0.2s0-0.1,0-0.2s0-0.1,0-0.2s0-0.1,0-0.2s0-0.1,0-0.2s0-0.1,0-0.2
										s0-0.1,0-0.2s0-0.1,0-0.2s0-0.1,0-0.2s0-0.1,0-0.2s0-0.1,0-0.2s0-0.1,0-0.2s0-0.1,0-0.2s0-0.1,0-0.2s0-0.1,0-0.2
										s0-0.1,0-0.2s0-0.1,0-0.2s0-0.1,0-0.2s0-0.1,0-0.2v-0.2c0-0.1,0-0.1,0-0.2v-0.2v-0.2c0-0.1,0-0.1,0-0.2s0-0.1,0-0.2
										s0-0.1,0-0.2s0-0.1,0-0.2s0-0.1,0-0.2s0-0.1,0-0.2s0-0.1,0-0.2s0-0.1,0-0.2s0-0.1,0-0.2s0-0.1,0-0.2s0-0.1,0-0.2
										s0-0.1,0-0.2s0-0.1,0-0.2s0-0.1,0-0.2s0-0.1,0-0.2s0-0.1,0-0.2s0-0.1,0-0.2s0-0.1,0-0.2s0-0.1,0-0.2s0-0.1,0-0.2
										s0-0.1,0-0.2s0-0.1,0-0.2s0-0.1,0-0.2s0-0.1,0-0.2s0-0.1,0-0.2v-0.2c0-0.1,0-0.1,0-0.2s0-0.1,0-0.2s0-0.1,0-0.2v-0.2
										c0-0.1,0-0.1,0-0.2s0-0.1,0-0.2s0-0.1,0-0.2s0-0.1,0-0.2s0-0.1,0-0.2s0-0.1,0-0.2s0-0.1,0-0.2s0-0.1,0-0.2s0-0.1,0-0.2
										s0-0.1,0-0.2s0-0.1,0-0.2s0-0.1,0-0.2v-0.2v-0.2c0-0.1,0-0.1,0-0.2s0-0.1,0-0.2s0-0.1,0-0.2s0-0.1,0-0.2s0-0.1,0-0.2
										s0-0.1,0-0.2v-0.2c0-0.1,0-0.1,0-0.2s0-0.1,0-0.2s0-0.1,0-0.2s0-0.1,0-0.2s0-0.1,0-0.2s0-0.1,0-0.2s0-0.1,0-0.2
										s0-0.1,0-0.2s0-0.1,0-0.2s0-0.1,0-0.2s0-0.1,0-0.2s0-0.1,0-0.2s0-0.1,0-0.2s0-0.1,0-0.2s0-0.1,0-0.2s0-0.1,0-0.2
										s0-0.1,0-0.2s0-0.1,0-0.2s0-0.1,0-0.2v-0.2c0-0.1,0-0.1,0-0.2s0-0.1,0-0.2s0-0.1,0-0.2s0-0.1,0-0.2s0-0.1,0-0.2h19.9v20
										h20.8c0,0.1,0,0.1,0,0.2s0,0.1,0,0.2s0,0.1,0,0.2s0,0.1,0,0.2s0,0.1,0,0.2s0,0.1,0,0.2s0,0.1,0,0.2s0,0.1,0,0.2
										s0,0.1,0,0.2s0,0.1,0,0.2s0,0.1,0,0.2s0,0.1,0,0.2s0,0.1,0,0.2s0,0.1,0,0.2s0,0.1,0,0.2s0,0.1,0,0.2s0,0.1,0,0.2
										s0,0.1,0,0.2s0,0.1,0,0.2s0,0.1,0,0.2s0,0.1,0,0.2s0,0.1,0,0.2s0,0.1,0,0.2s0,0.1,0,0.2s0,0.1,0,0.2s0,0.1,0,0.2
										s0,0.1,0,0.2s0,0.1,0,0.2s0,0.1,0,0.2s0,0.1,0,0.2s0,0.1,0,0.2s0,0.1,0,0.2s0,0.1,0,0.2s0,0.1,0,0.2s0,0.1,0,0.2
										s0,0.1,0,0.2s0,0.1,0,0.2s0,0.1,0,0.2s0,0.1,0,0.2s0,0.1,0,0.2s0,0.1,0,0.2s0,0.1,0,0.2s0,0.1,0,0.2s0,0.1,0,0.2
										s0,0.1,0,0.2s0,0.1,0,0.2s0,0.1,0,0.2s0,0.1,0,0.2s0,0.1,0,0.2s0,0.1,0,0.2s0,0.1,0,0.2s0,0.1,0,0.2s0,0.1,0,0.2
										s0,0.1,0,0.2s0,0.1,0,0.2s0,0.1,0,0.2s0,0.1,0,0.2s0,0.1,0,0.2s0,0.1,0,0.2s0,0.1,0,0.2s0,0.1,0,0.2s0,0.1,0,0.2
										s0,0.1,0,0.2s0,0.1,0,0.2s0,0.1,0,0.2s0,0.1,0,0.2s0,0.1,0,0.2s0,0.1,0,0.2s0,0.1,0,0.2s0,0.1,0,0.2s0,0.1,0,0.2
										s0,0.1,0,0.2s0,0.1,0,0.2s0,0.1,0,0.2s0,0.1,0,0.2s0,0.1,0,0.2s0,0.1,0,0.2s0,0.1,0,0.2s0,0.1,0,0.2s0,0.1,0,0.2v0.2
										c0,0.1,0,0.1,0,0.2s0,0.1,0,0.2v0.2c0,0.1,0,0.1,0,0.2v0.2v0.2c0,0.1,0,0.1,0,0.2v0.2v0.2c0,0.1,0,0.1,0,0.2v0.2
										c0,0.1,0,0.1,0,0.2s0,0.1,0,0.2s0,0.1,0,0.2s0,0.1,0,0.2s0,0.1,0,0.2v0.2c0,0.1,0,0.1,0,0.2s0,0.1,0,0.2v0.2
										c0,0.1,0,0.1,0,0.2s0,0.1,0,0.2s0,0.1,0,0.2s0,0.1,0,0.2s0,0.1,0,0.2s0,0.1,0,0.2s0,0.1,0,0.2s0,0.1,0,0.2s0,0.1,0,0.2
										s0,0.1,0,0.2s0,0.1,0,0.2s0,0.1,0,0.2s0,0.1,0,0.2s0,0.1,0,0.2s0,0.1,0,0.2s0,0.1,0,0.2s0,0.1,0,0.2s0,0.1,0,0.2
										s0,0.1,0,0.2s0,0.1,0,0.2s0,0.1,0,0.2s0,0.1,0,0.2s0,0.1,0,0.2s0,0.1,0,0.2s0,0.1,0,0.2s0,0.1,0,0.2s0,0.1,0,0.2h19.9
										v-20.4h42.4V784.4h-0.3V205.6h-19.9v-20.5h20.1v-20.6H1422v-21.3h-20.4v-20.4H1381v41h19.5v20.9h-40.9v-20.9h-20.9v-40.9
										h-21.2v40.8H1297v20.6h-20.3v21h19.3V226h-40.7v-40.7c-0.1,0-0.1,0-0.2,0s-0.1,0-0.2,0s-0.1,0-0.2,0s-0.1,0-0.2,0
										s-0.1,0-0.2,0s-0.1,0-0.2,0s-0.1,0-0.2,0s-0.1,0-0.2,0s-0.1,0-0.2,0s-0.1,0-0.2,0s-0.1,0-0.2,0s-0.1,0-0.2,0s-0.1,0-0.2,0
										s-0.1,0-0.2,0s-0.1,0-0.2,0s-0.1,0-0.2,0s-0.1,0-0.2,0s-0.1,0-0.2,0s-0.1,0-0.2,0s-0.1,0-0.2,0s-0.1,0-0.2,0s-0.1,0-0.2,0
										s-0.1,0-0.2,0s-0.1,0-0.2,0s-0.1,0-0.2,0s-0.1,0-0.2,0s-0.1,0-0.2,0s-0.1,0-0.2,0s-0.1,0-0.2,0s-0.1,0-0.2,0s-0.1,0-0.2,0
										s-0.1,0-0.2,0s-0.1,0-0.2,0h-0.2c-0.1,0-0.1,0-0.2,0s-0.1,0-0.2,0s-0.1,0-0.2,0s-0.1,0-0.2,0s-0.1,0-0.2,0s-0.1,0-0.2,0
										s-0.1,0-0.2,0s-0.1,0-0.2,0s-0.1,0-0.2,0s-0.1,0-0.2,0s-0.1,0-0.2,0s-0.1,0-0.2,0s-0.1,0-0.2,0s-0.1,0-0.2,0s-0.1,0-0.2,0
										s-0.1,0-0.2,0s-0.1,0-0.2,0s-0.1,0-0.2,0s-0.1,0-0.2,0h-0.2c-0.1,0-0.1,0-0.2,0s-0.1,0-0.2,0s-0.1,0-0.2,0s-0.1,0-0.2,0
										s-0.1,0-0.2,0h-0.2c-0.1,0-0.1,0-0.2,0s-0.1,0-0.2,0s-0.1,0-0.2,0s-0.1,0-0.2,0s-0.1,0-0.2,0s-0.1,0-0.2,0h-0.2
										c-0.1,0-0.1,0-0.2,0s-0.1,0-0.2,0s-0.1,0-0.2,0s-0.1,0-0.2,0s-0.1,0-0.2,0s-0.1,0-0.2,0s-0.1,0-0.2,0s-0.1,0-0.2,0
										s-0.1,0-0.2,0s-0.1,0-0.2,0h-0.2c-0.1,0-0.1,0-0.2,0s-0.1,0-0.2,0s-0.1,0-0.2,0s-0.1,0-0.2,0s-0.1,0-0.2,0s-0.1,0-0.2,0
										h-0.2c-0.1,0-0.1,0-0.2,0s-0.1,0-0.2,0s-0.1,0-0.2,0h-0.2c-0.1,0-0.1,0-0.2,0s-0.1,0-0.2,0s-0.1,0-0.2,0s-0.1,0-0.2,0h-0.2
										c-0.1,0-0.1,0-0.2,0s-0.1,0-0.2,0s-0.1,0-0.2,0s-0.1,0-0.2,0s-0.1,0-0.2,0s-0.1,0-0.2,0s-0.1,0-0.2,0s-0.1,0-0.2,0
										s-0.1,0-0.2,0s-0.1,0-0.2,0s-0.1,0-0.2,0s-0.1,0-0.2,0s-0.1,0-0.2,0s-0.1,0-0.2,0s-0.1,0-0.2,0s-0.1,0-0.2,0s-0.1,0-0.2,0
										s-0.1,0-0.2,0s-0.1,0-0.2,0s-0.1,0-0.2,0s-0.1,0-0.2,0s-0.1,0-0.2,0s-0.1,0-0.2,0s-0.1,0-0.2,0s-0.1,0-0.2,0s-0.1,0-0.2,0
										s-0.1,0-0.2,0s-0.1,0-0.2,0s-0.1,0-0.2,0s-0.1,0-0.2,0s-0.1,0-0.2,0s-0.1,0-0.2,0s-0.1,0-0.2,0s-0.1,0-0.2,0v-19.9h-21.5
										v-21.3h-20.4v41.5H1146v20.6h-37c0,0.1,0,0.1,0,0.2c0,0.1,0,0.1,0,0.2c0,0.1,0,0.1,0,0.2c0,0.1,0,0.1,0,0.2
										c0,0.1,0,0.1,0,0.2c0,0.1,0,0.1,0,0.2c0,0.1,0,0.1,0,0.2c0,0.1,0,0.1,0,0.2c0,0.1,0,0.1,0,0.2c0,0.1,0,0.1,0,0.2
										c0,0.1,0,0.1,0,0.2c0,0.1,0,0.1,0,0.2c0,0.1,0,0.1,0,0.2c0,0.1,0,0.1,0,0.2c0,0.1,0,0.1,0,0.2c0,0.1,0,0.1,0,0.2
										c0,0.1,0,0.1,0,0.2c0,0.1,0,0.1,0,0.2s0,0.1,0,0.2s0,0.1,0,0.2s0,0.1,0,0.2c0,0.1,0,0.1,0,0.2c0,0.1,0,0.1,0,0.2
										c0,0.1,0,0.1,0,0.2c0,0.1,0,0.1,0,0.2v0.2c0,0.1,0,0.1,0,0.2c0,0.1,0,0.1,0,0.2c0,0.1,0,0.1,0,0.2c0,0.1,0,0.1,0,0.2
										c0,0.1,0,0.1,0,0.2c0,0.1,0,0.1,0,0.2c0,0.1,0,0.1,0,0.2c0,0.1,0,0.1,0,0.2c0,0.1,0,0.1,0,0.2s0,0.1,0,0.2
										c0,0.1,0,0.1,0,0.2s0,0.1,0,0.2c0,0.1,0,0.1,0,0.2c0,0.1,0,0.1,0,0.2s0,0.1,0,0.2c0,0.1,0,0.1,0,0.2s0,0.1,0,0.2
										c0,0.1,0,0.1,0,0.2c0,0.1,0,0.1,0,0.2c0,0.1,0,0.1,0,0.2s0,0.1,0,0.2c0,0.1,0,0.1,0,0.2c0,0.1,0,0.1,0,0.2
										c0,0.1,0,0.1,0,0.2c0,0.1,0,0.1,0,0.2c0,0.1,0,0.1,0,0.2c0,0.1,0,0.1,0,0.2c0,0.1,0,0.1,0,0.2c0,0.1,0,0.1,0,0.2
										c0,0.1,0,0.1,0,0.2c0,0.1,0,0.1,0,0.2c0,0.1,0,0.1,0,0.2c0,0.1,0,0.1,0,0.2c0,0.1,0,0.1,0,0.2c0,0.1,0,0.1,0,0.2
										c0,0.1,0,0.1,0,0.2s0,0.1,0,0.2c0,0.1,0,0.1,0,0.2c0,0.1,0,0.1,0,0.2c0,0.1,0,0.1,0,0.2c0,0.1,0,0.1,0,0.2
										c0,0.1,0,0.1,0,0.2c0,0.1,0,0.1,0,0.2c0,0.1,0,0.1,0,0.2c0,0.1,0,0.1,0,0.2c0,0.1,0,0.1,0,0.2c0,0.1,0,0.1,0,0.2
										c0,0.1,0,0.1,0,0.2c0,0.1,0,0.1,0,0.2c0,0.1,0,0.1,0,0.2c0,0.1,0,0.1,0,0.2c0,0.1,0,0.1,0,0.2c0,0.1,0,0.1,0,0.2
										c0,0.1,0,0.1,0,0.2c0,0.1,0,0.1,0,0.2c0,0.1,0,0.1,0,0.2c0,0.1,0,0.1,0,0.2c0,0.1,0,0.1,0,0.2c0,0.1,0,0.1,0,0.2
										c0,0.1,0,0.1,0,0.2c0,0.1,0,0.1,0,0.2c0,0.1,0,0.1,0,0.2c0,0.1,0,0.1,0,0.2c0,0.1,0,0.1,0,0.2c0,0.1,0,0.1,0,0.2
										c0,0.1,0,0.1,0,0.2s0,0.1,0,0.2c0,0.1,0,0.1,0,0.2c0,0.1,0,0.1,0,0.2c0,0.1,0,0.1,0,0.2s0,0.1,0,0.2c0,0.1,0,0.1,0,0.2
										c0,0.1,0,0.1,0,0.2c0,0.1,0,0.1,0,0.2c0,0.1,0,0.1,0,0.2c0,0.1,0,0.1,0,0.2c0,0.1,0,0.1,0,0.2c0,0.1,0,0.1,0,0.2
										c0,0.1,0,0.1,0,0.2c0,0.1,0,0.1,0,0.2c0,0.1,0,0.1,0,0.2c0,0.1,0,0.1,0,0.2s0,0.1,0,0.2s0,0.1,0,0.2v0.2c0,0.1,0,0.1,0,0.2
										c0,0.1,0,0.1,0,0.2c0,0.1,0,0.1,0,0.2v0.2v0.2c0,0.1,0,0.1,0,0.2s0,0.1,0,0.2s0,0.1,0,0.2c0,0.1,0,0.1,0,0.2
										c0,0.1,0,0.1,0,0.2c0,0.1,0,0.1,0,0.2c0,0.1,0,0.1,0,0.2c0,0.1,0,0.1,0,0.2c0,0.1,0,0.1,0,0.2c0,0.1,0,0.1,0,0.2
										s0,0.1,0,0.2c0,0.1,0,0.1,0,0.2h-19.9v-40.4h-21v0.1v0.1v0.1v0.1v0.1v0.1v0.1v0.1v0.1v0.1v0.1v0.1v0.1v0.1v0.1v0.1v0.1v0.1
										v0.1v0.1v0.1v0.1v0.1v0.1v0.1v0.1v0.1v0.1v0.1v0.1v0.1v0.1v0.1v0.1v0.1v0.1v0.1v0.1v0.1v0.1v0.1v0.1v0.1v0.1v0.1v0.1v0.1
										c0,0.1,0,0.1,0,0.2s0,0.1,0,0.2c0,0.1,0,0.1,0,0.2c0,0.1,0,0.1,0,0.2s0,0.1,0,0.2c0,0.1,0,0.1,0,0.2c0,0.1,0,0.1,0,0.2
										c0,0.1,0,0.1,0,0.2c0,0.1,0,0.1,0,0.2c0,0.1,0,0.1,0,0.2c0,0.1,0,0.1,0,0.2c0,0.1,0,0.1,0,0.2s0,0.1,0,0.2s0,0.1,0,0.2v0.2
										c0,0.1,0,0.1,0,0.2c0,0.1,0,0.1,0,0.2v0.2c0,0.1,0,0.1,0,0.2c0,0.1,0,0.1,0,0.2c0,0.1,0,0.1,0,0.2c0,0.1,0,0.1,0,0.2
										c0,0.1,0,0.1,0,0.2c0,0.1,0,0.1,0,0.2c0,0.1,0,0.1,0,0.2c0,0.1,0,0.1,0,0.2c0,0.1,0,0.1,0,0.2c0,0.1,0,0.1,0,0.2
										c0,0.1,0,0.1,0,0.2c0,0.1,0,0.1,0,0.2c0,0.1,0,0.1,0,0.2c0,0.1,0,0.1,0,0.2s0,0.1,0,0.2c0,0.1,0,0.1,0,0.2
										c0,0.1,0,0.1,0,0.2s0,0.1,0,0.2c0,0.1,0,0.1,0,0.2v0.2c0,0.1,0,0.1,0,0.2s0,0.1,0,0.2c0,0.1,0,0.1,0,0.2v0.2
										c0,0.1,0,0.1,0,0.2s0,0.1,0,0.2c0,0.1,0,0.1,0,0.2c0,0.1,0,0.1,0,0.2c0,0.1,0,0.1,0,0.2c0,0.1,0,0.1,0,0.2
										c0,0.1,0,0.1,0,0.2c0,0.1,0,0.1,0,0.2c0,0.1,0,0.1,0,0.2c0,0.1,0,0.1,0,0.2c0,0.1,0,0.1,0,0.2c0,0.1,0,0.1,0,0.2
										c0,0.1,0,0.1,0,0.2c0,0.1,0,0.1,0,0.2c0,0.1,0,0.1,0,0.2c0,0.1,0,0.1,0,0.2v0.2c0,0.1,0,0.1,0,0.2s0,0.1,0,0.2
										c0,0.1,0,0.1,0,0.2c0,0.1,0,0.1,0,0.2c0,0.1,0,0.1,0,0.2c0,0.1,0,0.1,0,0.2s0,0.1,0,0.2c0,0.1,0,0.1,0,0.2s0,0.1,0,0.2
										s0,0.1,0,0.2c0,0.1,0,0.1,0,0.2c0,0.1,0,0.1,0,0.2c0,0.1,0,0.1,0,0.2s0,0.1,0,0.2s0,0.1,0,0.2c0,0.1,0,0.1,0,0.2
										c0,0.1,0,0.1,0,0.2c0,0.1,0,0.1,0,0.2c0,0.1,0,0.1,0,0.2s0,0.1,0,0.2c0,0.1,0,0.1,0,0.2c0,0.1,0,0.1,0,0.2h-19.9v-20.5
										H1027v-20h-41.5v0.1v0.1v0.1v0.1v0.1v0.1v0.1v0.1v0.1v0.1v0.1v0.1v0.1v0.1v0.1v0.1v0.1v0.1v0.1v0.1v0.1v0.1v0.1v0.1v0.1
										v0.1v0.1v0.1v0.1v0.1v0.1v0.1v0.1v0.1v0.1v0.1v0.1v0.1v0.1v0.1v0.1v0.1v0.1v0.1c0,0,0,0.1,0,0.2c0,0.1,0,0.1,0,0.2
										c0,0.1,0,0.1,0,0.2c0,0.1,0,0.1,0,0.2c0,0.1,0,0.1,0,0.2c0,0.1,0,0.1,0,0.2c0,0.1,0,0.1,0,0.2s0,0.1,0,0.2
										c0,0.1,0,0.1,0,0.2c0,0.1,0,0.1,0,0.2c0,0.1,0,0.1,0,0.2s0,0.1,0,0.2c0,0.1,0,0.1,0,0.2s0,0.1,0,0.2c0,0.1,0,0.1,0,0.2
										c0,0.1,0,0.1,0,0.2c0,0.1,0,0.1,0,0.2c0,0.1,0,0.1,0,0.2c0,0.1,0,0.1,0,0.2s0,0.1,0,0.2c0,0.1,0,0.1,0,0.2
										c0,0.1,0,0.1,0,0.2c0,0.1,0,0.1,0,0.2c0,0.1,0,0.1,0,0.2c0,0.1,0,0.1,0,0.2s0,0.1,0,0.2c0,0.1,0,0.1,0,0.2
										c0,0.1,0,0.1,0,0.2c0,0.1,0,0.1,0,0.2c0,0.1,0,0.1,0,0.2s0,0.1,0,0.2c0,0.1,0,0.1,0,0.2s0,0.1,0,0.2c0,0.1,0,0.1,0,0.2
										c0,0.1,0,0.1,0,0.2c0,0.1,0,0.1,0,0.2c0,0.1,0,0.1,0,0.2c0,0.1,0,0.1,0,0.2c0,0.1,0,0.1,0,0.2c0,0.1,0,0.1,0,0.2
										c0,0.1,0,0.1,0,0.2c0,0.1,0,0.1,0,0.2c0,0.1,0,0.1,0,0.2c0,0.1,0,0.1,0,0.2c0,0.1,0,0.1,0,0.2s0,0.1,0,0.2
										c0,0.1,0,0.1,0,0.2c0,0.1,0,0.1,0,0.2c0,0.1,0,0.1,0,0.2c0,0.1,0,0.1,0,0.2c0,0.1,0,0.1,0,0.2c0,0.1,0,0.1,0,0.2
										c0,0.1,0,0.1,0,0.2c0,0.1,0,0.1,0,0.2c0,0.1,0,0.1,0,0.2c0,0.1,0,0.1,0,0.2c0,0.1,0,0.1,0,0.2s0,0.1,0,0.2s0,0.1,0,0.2
										c0,0.1,0,0.1,0,0.2s0,0.1,0,0.2s0,0.1,0,0.2c0,0.1,0,0.1,0,0.2c0,0.1,0,0.1,0,0.2c0,0.1,0,0.1,0,0.2v0.2c0,0.1,0,0.1,0,0.2
										c0,0.1,0,0.1,0,0.2c0,0.1,0,0.1,0,0.2c0,0.1,0,0.1,0,0.2c0,0.1,0,0.1,0,0.2v0.2c0,0.1,0,0.1,0,0.2c0,0.1,0,0.1,0,0.2
										c0,0.1,0,0.1,0,0.2s0,0.1,0,0.2c0,0.1,0,0.1,0,0.2s0,0.1,0,0.2s0,0.1,0,0.2c0,0.1,0,0.1,0,0.2c0,0.1,0,0.1,0,0.2
										c0,0.1,0,0.1,0,0.2c0,0.1,0,0.1,0,0.2c0,0.1,0,0.1,0,0.2h-19.8v-19.5H944v40.8c-0.1,0-0.1,0-0.2,0c-0.1,0-0.1,0-0.2,0
										c-0.1,0-0.1,0-0.2,0c-0.1,0-0.1,0-0.2,0c-0.1,0-0.1,0-0.2,0c-0.1,0-0.1,0-0.2,0c-0.1,0-0.1,0-0.2,0c-0.1,0-0.1,0-0.2,0
										c-0.1,0-0.1,0-0.2,0c-0.1,0-0.1,0-0.2,0c-0.1,0-0.1,0-0.2,0c-0.1,0-0.1,0-0.2,0c-0.1,0-0.1,0-0.2,0c-0.1,0-0.1,0-0.2,0
										c-0.1,0-0.1,0-0.2,0s-0.1,0-0.2,0c-0.1,0-0.1,0-0.2,0c-0.1,0-0.1,0-0.2,0c-0.1,0-0.1,0-0.2,0s-0.1,0-0.2,0
										c-0.1,0-0.1,0-0.2,0c-0.1,0-0.1,0-0.2,0c-0.1,0-0.1,0-0.2,0c-0.1,0-0.1,0-0.2,0c-0.1,0-0.1,0-0.2,0c-0.1,0-0.1,0-0.2,0
										s-0.1,0-0.2,0c-0.1,0-0.1,0-0.2,0c-0.1,0-0.1,0-0.2,0c-0.1,0-0.1,0-0.2,0c-0.1,0-0.1,0-0.2,0c-0.1,0-0.1,0-0.2,0
										c-0.1,0-0.1,0-0.2,0s-0.1,0-0.2,0c-0.1,0-0.1,0-0.2,0c-0.1,0-0.1,0-0.2,0c-0.1,0-0.1,0-0.2,0c-0.1,0-0.1,0-0.2,0
										c-0.1,0-0.1,0-0.2,0c-0.1,0-0.1,0-0.2,0c-0.1,0-0.1,0-0.2,0c-0.1,0-0.1,0-0.2,0c-0.1,0-0.1,0-0.2,0c-0.1,0-0.1,0-0.2,0
										c-0.1,0-0.1,0-0.2,0c-0.1,0-0.1,0-0.2,0s-0.1,0-0.2,0c-0.1,0-0.1,0-0.2,0c-0.1,0-0.1,0-0.2,0c-0.1,0-0.1,0-0.2,0
										c-0.1,0-0.1,0-0.2,0c-0.1,0-0.1,0-0.2,0c-0.1,0-0.1,0-0.2,0c-0.1,0-0.1,0-0.2,0c-0.1,0-0.1,0-0.2,0c-0.1,0-0.1,0-0.2,0
										c-0.1,0-0.1,0-0.2,0c-0.1,0-0.1,0-0.2,0c-0.1,0-0.1,0-0.2,0c-0.1,0-0.1,0-0.2,0c-0.1,0-0.1,0-0.2,0c-0.1,0-0.1,0-0.2,0
										c-0.1,0-0.1,0-0.2,0c-0.1,0-0.1,0-0.2,0c-0.1,0-0.1,0-0.2,0c-0.1,0-0.1,0-0.2,0c-0.1,0-0.1,0-0.2,0c-0.1,0-0.1,0-0.2,0
										c-0.1,0-0.1,0-0.2,0c-0.1,0-0.1,0-0.2,0c-0.1,0-0.1,0-0.2,0c-0.1,0-0.1,0-0.2,0c-0.1,0-0.1,0-0.2,0c-0.1,0-0.1,0-0.2,0
										c-0.1,0-0.1,0-0.2,0c-0.1,0-0.1,0-0.2,0c-0.1,0-0.1,0-0.2,0c-0.1,0-0.1,0-0.2,0c-0.1,0-0.1,0-0.2,0c-0.1,0-0.1,0-0.2,0
										c-0.1,0-0.1,0-0.2,0c-0.1,0-0.1,0-0.2,0c-0.1,0-0.1,0-0.2,0c-0.1,0-0.1,0-0.2,0c-0.1,0-0.1,0-0.2,0c-0.1,0-0.1,0-0.2,0
										c-0.1,0-0.1,0-0.2,0c-0.1,0-0.1,0-0.2,0c-0.1,0-0.1,0-0.2,0c-0.1,0-0.1,0-0.2,0c-0.1,0-0.1,0-0.2,0s-0.1,0-0.2,0
										c-0.1,0-0.1,0-0.2,0c-0.1,0-0.1,0-0.2,0s-0.1,0-0.2,0c-0.1,0-0.1,0-0.2,0c-0.1,0-0.1,0-0.2,0c-0.1,0-0.1,0-0.2,0
										c-0.1,0-0.1,0-0.2,0c-0.1,0-0.1,0-0.2,0c-0.1,0-0.1,0-0.2,0c-0.1,0-0.1,0-0.2,0c-0.1,0-0.1,0-0.2,0c-0.1,0-0.1,0-0.2,0
										c-0.1,0-0.1,0-0.2,0c-0.1,0-0.1,0-0.2,0c-0.1,0-0.1,0-0.2,0c-0.1,0-0.1,0-0.2,0c-0.1,0-0.1,0-0.2,0c-0.1,0-0.1,0-0.2,0
										c-0.1,0-0.1,0-0.2,0c-0.1,0-0.1,0-0.2,0c-0.1,0-0.1,0-0.2,0c-0.1,0-0.1,0-0.2,0c-0.1,0-0.1,0-0.2,0c-0.1,0-0.1,0-0.2,0
										c-0.1,0-0.1,0-0.2,0c-0.1,0-0.1,0-0.2,0c-0.1,0-0.1,0-0.2,0c-0.1,0-0.1,0-0.2,0c-0.1,0-0.1,0-0.2,0c-0.1,0-0.1,0-0.2,0
										s-0.1,0-0.2,0c-0.1,0-0.1,0-0.2,0c-0.1,0-0.1,0-0.2,0c-0.1,0-0.1,0-0.2,0c-0.1,0-0.1,0-0.2,0c-0.1,0-0.1,0-0.2,0V194h-41.6
										v-21.2h-21.1v61.7h-20.9v-40.3H795V206h-41.6c0-0.1,0-0.1,0-0.2c0-0.1,0-0.1,0-0.2c0-0.1,0-0.1,0-0.2c0-0.1,0-0.1,0-0.2
										c0-0.1,0-0.1,0-0.2c0-0.1,0-0.1,0-0.2c0-0.1,0-0.1,0-0.2c0-0.1,0-0.1,0-0.2c0-0.1,0-0.1,0-0.2c0-0.1,0-0.1,0-0.2
										c0-0.1,0-0.1,0-0.2c0-0.1,0-0.1,0-0.2c0-0.1,0-0.1,0-0.2c0-0.1,0-0.1,0-0.2c0-0.1,0-0.1,0-0.2c0-0.1,0-0.1,0-0.2
										c0-0.1,0-0.1,0-0.2c0-0.1,0-0.1,0-0.2c0-0.1,0-0.1,0-0.2c0-0.1,0-0.1,0-0.2c0-0.1,0-0.1,0-0.2s0-0.1,0-0.2
										c0-0.1,0-0.1,0-0.2s0-0.1,0-0.2c0-0.1,0-0.1,0-0.2v-0.2c0-0.1,0-0.1,0-0.2v-0.2v-0.2c0-0.1,0-0.1,0-0.2c0-0.1,0-0.1,0-0.2
										c0-0.1,0-0.1,0-0.2c0-0.1,0-0.1,0-0.2c0-0.1,0-0.1,0-0.2c0-0.1,0-0.1,0-0.2c0-0.1,0-0.1,0-0.2s0-0.1,0-0.2
										c0-0.1,0-0.1,0-0.2s0-0.1,0-0.2c0-0.1,0-0.1,0-0.2s0-0.1,0-0.2c0-0.1,0-0.1,0-0.2c0-0.1,0-0.1,0-0.2c0-0.1,0-0.1,0-0.2
										s0-0.1,0-0.2c0-0.1,0-0.1,0-0.2s0-0.1,0-0.2c0-0.1,0-0.1,0-0.2s0-0.1,0-0.2c0-0.1,0-0.1,0-0.2c0-0.1,0-0.1,0-0.2
										c0-0.1,0-0.1,0-0.2c0-0.1,0-0.1,0-0.2s0-0.1,0-0.2c0-0.1,0-0.1,0-0.2c0-0.1,0-0.1,0-0.2c0-0.1,0-0.1,0-0.2
										c0-0.1,0-0.1,0-0.2c0-0.1,0-0.1,0-0.2c0-0.1,0-0.1,0-0.2c0-0.1,0-0.1,0-0.2c0-0.1,0-0.1,0-0.2c0-0.1,0-0.1,0-0.2
										c0-0.1,0-0.1,0-0.2c0-0.1,0-0.1,0-0.2c0-0.1,0-0.1,0-0.2c0-0.1,0-0.1,0-0.2s0-0.1,0-0.2c0-0.1,0-0.1,0-0.2
										c0-0.1,0-0.1,0-0.2c0-0.1,0-0.1,0-0.2c0-0.1,0-0.1,0-0.2s0-0.1,0-0.2s0-0.1,0-0.2c0-0.1,0-0.1,0-0.2c0-0.1,0-0.1,0-0.2
										c0-0.1,0-0.1,0-0.2c0-0.1,0-0.1,0-0.2c0-0.1,0-0.1,0-0.2s0-0.1,0-0.2s0-0.1,0-0.2s0-0.1,0-0.2c0-0.1,0-0.1,0-0.2
										s0-0.1,0-0.2c0-0.1,0-0.1,0-0.2c0-0.1,0-0.1,0-0.2c0-0.1,0-0.1,0-0.2s0-0.1,0-0.2c0-0.1,0-0.1,0-0.2s0-0.1,0-0.2
										c0-0.1,0-0.1,0-0.2c0-0.1,0-0.1,0-0.2c0-0.1,0-0.1,0-0.2c0-0.1,0-0.1,0-0.2c0-0.1,0-0.1,0-0.2c0-0.1,0-0.1,0-0.2
										c0-0.1,0-0.1,0-0.2c0-0.1,0-0.1,0-0.2c0-0.1,0-0.1,0-0.2c0-0.1,0-0.1,0-0.2s0-0.1,0-0.2s0-0.1,0-0.2s0-0.1,0-0.2
										c0-0.1,0-0.1,0-0.2c0-0.1,0-0.1,0-0.2s0-0.1,0-0.2c0-0.1,0-0.1,0-0.2s0-0.1,0-0.2c0-0.1,0-0.1,0-0.2s0-0.1,0-0.2
										s0-0.1,0-0.2c0-0.1,0-0.1,0-0.2c0-0.1,0-0.1,0-0.2c0-0.1,0-0.1,0-0.2c0-0.1,0-0.1,0-0.2c0-0.1,0-0.1,0-0.2s0-0.1,0-0.2
										s0-0.1,0-0.2c0-0.1,0-0.1,0-0.2c0-0.1,0-0.1,0-0.2c0-0.1,0-0.1,0-0.2c0-0.1,0-0.1,0-0.2c0-0.1,0-0.1,0-0.2s0-0.1,0-0.2
										s0-0.1,0-0.2s0-0.1,0-0.2c0-0.1,0-0.1,0-0.2c0-0.1,0-0.1,0-0.2c-0.1,0-0.1,0-0.2,0c-0.1,0-0.1,0-0.2,0c-0.1,0-0.1,0-0.2,0
										c-0.1,0-0.1,0-0.2,0c-0.1,0-0.1,0-0.2,0c-0.1,0-0.1,0-0.2,0c-0.1,0-0.1,0-0.2,0c-0.1,0-0.1,0-0.2,0c-0.1,0-0.1,0-0.2,0
										c-0.1,0-0.1,0-0.2,0s-0.1,0-0.2,0c-0.1,0-0.1,0-0.2,0h-0.2c-0.1,0-0.1,0-0.2,0c-0.1,0-0.1,0-0.2,0s-0.1,0-0.2,0
										c-0.1,0-0.1,0-0.2,0c-0.1,0-0.1,0-0.2,0c-0.1,0-0.1,0-0.2,0s-0.1,0-0.2,0c-0.1,0-0.1,0-0.2,0c-0.1,0-0.1,0-0.2,0
										s-0.1,0-0.2,0s-0.1,0-0.2,0c-0.1,0-0.1,0-0.2,0c-0.1,0-0.1,0-0.2,0c-0.1,0-0.1,0-0.2,0s-0.1,0-0.2,0c-0.1,0-0.1,0-0.2,0
										c-0.1,0-0.1,0-0.2,0h-0.2c-0.1,0-0.1,0-0.2,0c-0.1,0-0.1,0-0.2,0c-0.1,0-0.1,0-0.2,0c-0.1,0-0.1,0-0.2,0s-0.1,0-0.2,0
										c-0.1,0-0.1,0-0.2,0h-0.2h-0.2c-0.1,0-0.1,0-0.2,0c-0.1,0-0.1,0-0.2,0c-0.1,0-0.1,0-0.2,0h-0.2c-0.1,0-0.1,0-0.2,0
										s-0.1,0-0.2,0c-0.1,0-0.1,0-0.2,0c-0.1,0-0.1,0-0.2,0c-0.1,0-0.1,0-0.2,0c-0.1,0-0.1,0-0.2,0c-0.1,0-0.1,0-0.2,0
										c-0.1,0-0.1,0-0.2,0c-0.1,0-0.1,0-0.2,0c-0.1,0-0.1,0-0.2,0c-0.1,0-0.1,0-0.2,0c-0.1,0-0.1,0-0.2,0s-0.1,0-0.2,0
										s-0.1,0-0.2,0s-0.1,0-0.2,0c-0.1,0-0.1,0-0.2,0c-0.1,0-0.1,0-0.2,0s-0.1,0-0.2,0c-0.1,0-0.1,0-0.2,0c-0.1,0-0.1,0-0.2,0
										c-0.1,0-0.1,0-0.2,0c-0.1,0-0.1,0-0.2,0c-0.1,0-0.1,0-0.2,0c-0.1,0-0.1,0-0.2,0c-0.1,0-0.1,0-0.2,0c-0.1,0-0.1,0-0.2,0
										c-0.1,0-0.1,0-0.2,0s-0.1,0-0.2,0s-0.1,0-0.2,0c-0.1,0-0.1,0-0.2,0c-0.1,0-0.1,0-0.2,0s-0.1,0-0.2,0s-0.1,0-0.2,0
										c-0.1,0-0.1,0-0.2,0s-0.1,0-0.2,0c-0.1,0-0.1,0-0.2,0c-0.1,0-0.1,0-0.2,0s-0.1,0-0.2,0c-0.1,0-0.1,0-0.2,0
										c-0.1,0-0.1,0-0.2,0s-0.1,0-0.2,0s-0.1,0-0.2,0c-0.1,0-0.1,0-0.2,0s-0.1,0-0.2,0c-0.1,0-0.1,0-0.2,0c-0.1,0-0.1,0-0.2,0
										c-0.1,0-0.1,0-0.2,0s-0.1,0-0.2,0s-0.1,0-0.2,0c-0.1,0-0.1,0-0.2,0c-0.1,0-0.1,0-0.2,0c-0.1,0-0.1,0-0.2,0s-0.1,0-0.2,0
										s-0.1,0-0.2,0s-0.1,0-0.2,0s-0.1,0-0.2,0c-0.1,0-0.1,0-0.2,0c-0.1,0-0.1,0-0.2,0c-0.1,0-0.1,0-0.2,0c-0.1,0-0.1,0-0.2,0
										c-0.1,0-0.1,0-0.2,0c-0.1,0-0.1,0-0.2,0c-0.1,0-0.1,0-0.2,0c-0.1,0-0.1,0-0.2,0c-0.1,0-0.1,0-0.2,0s-0.1,0-0.2,0
										c-0.1,0-0.1,0-0.2,0s-0.1,0-0.2,0s-0.1,0-0.2,0s-0.1,0-0.2,0c-0.1,0-0.1,0-0.2,0c-0.1,0-0.1,0-0.2,0c-0.1,0-0.1,0-0.2,0
										c-0.1,0-0.1,0-0.2,0c-0.1,0-0.1,0-0.2,0c-0.1,0-0.1,0-0.2,0s-0.1,0-0.2,0c-0.1,0-0.1,0-0.2,0s-0.1,0-0.2,0
										c-0.1,0-0.1,0-0.2,0c-0.1,0-0.1,0-0.2,0c-0.1,0-0.1,0-0.2,0s-0.1,0-0.2,0c-0.1,0-0.1,0-0.2,0c-0.1,0-0.1,0-0.2,0v-20.3H752
										v-21.2h-20v-20.4h-20.5c0-0.1,0-0.1,0-0.2s0-0.1,0-0.2s0-0.1,0-0.2s0-0.1,0-0.2s0-0.1,0-0.2s0-0.1,0-0.2s0-0.1,0-0.2
										s0-0.1,0-0.2s0-0.1,0-0.2s0-0.1,0-0.2s0-0.1,0-0.2s0-0.1,0-0.2s0-0.1,0-0.2s0-0.1,0-0.2s0-0.1,0-0.2s0-0.1,0-0.2
										s0-0.1,0-0.2s0-0.1,0-0.2s0-0.1,0-0.2s0-0.1,0-0.2s0-0.1,0-0.2s0-0.1,0-0.2s0-0.1,0-0.2s0-0.1,0-0.2s0-0.1,0-0.2
										s0-0.1,0-0.2s0-0.1,0-0.2s0-0.1,0-0.2s0-0.1,0-0.2s0-0.1,0-0.2v-0.2c0-0.1,0-0.1,0-0.2s0-0.1,0-0.2s0-0.1,0-0.2
										s0-0.1,0-0.2s0-0.1,0-0.2s0-0.1,0-0.2s0-0.1,0-0.2s0-0.1,0-0.2s0-0.1,0-0.2s0-0.1,0-0.2s0-0.1,0-0.2s0-0.1,0-0.2
										s0-0.1,0-0.2s0-0.1,0-0.2s0-0.1,0-0.2s0-0.1,0-0.2s0-0.1,0-0.2s0-0.1,0-0.2s0-0.1,0-0.2s0-0.1,0-0.2s0-0.1,0-0.2
										s0-0.1,0-0.2s0-0.1,0-0.2s0-0.1,0-0.2s0-0.1,0-0.2s0-0.1,0-0.2s0-0.1,0-0.2s0-0.1,0-0.2s0-0.1,0-0.2s0-0.1,0-0.2
										s0-0.1,0-0.2s0-0.1,0-0.2s0-0.1,0-0.2s0-0.1,0-0.2s0-0.1,0-0.2s0-0.1,0-0.2s0-0.1,0-0.2s0-0.1,0-0.2s0-0.1,0-0.2v-0.2
										c0-0.1,0-0.1,0-0.2s0-0.1,0-0.2v-0.2c0-0.1,0-0.1,0-0.2s0-0.1,0-0.2v-0.2c0-0.1,0-0.1,0-0.2s0-0.1,0-0.2s0-0.1,0-0.2
										s0-0.1,0-0.2s0-0.1,0-0.2v-0.2c0-0.1,0-0.1,0-0.2s0-0.1,0-0.2s0-0.1,0-0.2s0-0.1,0-0.2s0-0.1,0-0.2s0-0.1,0-0.2
										s0-0.1,0-0.2v-0.2v-0.2c0-0.1,0-0.1,0-0.2s0-0.1,0-0.2s0-0.1,0-0.2s0-0.1,0-0.2s0-0.1,0-0.2s0-0.1,0-0.2s0-0.1,0-0.2
										s0-0.1,0-0.2s0-0.1,0-0.2s0-0.1,0-0.2s0-0.1,0-0.2s0-0.1,0-0.2s0-0.1,0-0.2s0-0.1,0-0.2s0-0.1,0-0.2s0-0.1,0-0.2
										s0-0.1,0-0.2s0-0.1,0-0.2s0-0.1,0-0.2s0-0.1,0-0.2s0-0.1,0-0.2s0-0.1,0-0.2s0-0.1,0-0.2s0-0.1,0-0.2s0-0.1,0-0.2
										s0-0.1,0-0.2s0-0.1,0-0.2s0-0.1,0-0.2s0-0.1,0-0.2v-0.2c0-0.1,0-0.1,0-0.2s0-0.1,0-0.2s0-0.1,0-0.2s0-0.1,0-0.2
										s0-0.1,0-0.2s0-0.1,0-0.2h-19.8v19.9L668.9,121.7L668.9,121.7z M772.9,1303.2v20.6h-20.6v-20.6H772.9z M1212.2,1324.1v20.6
										h-20.6v-0.1v-0.1v-0.1v-0.1v-0.1v-0.1v-0.1v-0.1v-0.1v-0.1v-0.1v-0.1v-0.1v-0.1v-0.1v-0.1v-0.1v-0.1v-0.1v-0.1v-0.1v-0.1
										v-0.1v-0.1v-0.1v-0.1v-0.1v-0.1v-0.1v-0.1v-0.1v-0.1v-0.1v-0.1v-0.1v-0.1v-0.1v-0.1v-0.1v-0.1v-0.1v-0.1v-0.1v-0.1v-0.1
										v-0.1v-0.1v-0.1v-0.1v-0.1v-0.1v-0.1v-0.1v-0.1v-0.1v-0.1v-0.1v-0.1v-0.1v-0.1v-0.1v-0.1v-0.1v-0.1v-0.1v-0.1v-0.1v-0.1
										v-0.1v-0.1v-0.1v-0.1v-0.1v-0.1v-0.1v-0.1v-0.1v-0.1v-0.1v-0.1v-0.1v-0.1v-0.1v-0.1v-0.1v-0.1v-0.1v-0.1v-0.1v-0.1v-0.1
										v-0.1v-0.1v-0.1v-0.1v-0.1v-0.1v-0.1v-0.1v-0.1v-0.1v-0.1v-0.1v-0.1v-0.1v-0.1v-0.1v-0.1v-0.1v-0.1v-0.1v-0.1v-0.1v-0.1
										v-0.1v-0.1v-0.1v-0.1v-0.1v-0.1v-0.1v-0.1v-0.1v-0.1v-0.1v-0.1v-0.1v-0.1v-0.1v-0.1v-0.1v-0.1v-0.1v-0.1v-0.1v-0.1v-0.1
										v-0.1v-0.1v-0.1v-0.1v-0.1v-0.1v-0.1v-0.1v-0.1v-0.1v-0.1v-0.1v-0.1v-0.1v-0.1v-0.1v-0.1v-0.1v-0.1v-0.1v-0.1v-0.1v-0.1
										v-0.1v-0.1v-0.1v-0.1v-0.1v-0.1v-0.1v-0.1v-0.1v-0.1v-0.1v-0.1v-0.1v-0.1v-0.1v-0.1v-0.1v-0.1v-0.1v-0.1v-0.1v-0.1v-0.1
										v-0.1v-0.1v-0.1v-0.1v-0.1v-0.1v-0.1v-0.1v-0.1v-0.1v-0.1v-0.1v-0.1v-0.1v-0.1v-0.1v-0.1v-0.1v-0.1v-0.1v-0.1v-0.1v-0.1
										v-0.1v-0.1v-0.1v-0.1v-0.1v-0.1v-0.1v-0.1v-0.1v-0.1v-0.1v-0.1v-0.1v-0.1v-0.1v-0.1v-0.1v-0.1v-0.1v-0.1v-0.1v-0.1v-0.1
										v-0.1v-0.1v-0.1v-0.1v-0.1v-0.1v-0.1v-0.1v-0.1v-0.1v-0.1v-0.1v-0.1v-0.1v-0.1v-0.1v-0.1v-0.1v-0.1v-0.1v-0.1v-0.1v-0.1
										v-0.1v-0.1v-0.1v-0.1h0.2h0.1h0.6h0.1h0.6h0.1h0.6h0.1h0.8h0.1h0.8h0.1h0.9h0.1h1.1h0.1h1.3h0.1h1.9h0.1h3.1h0.1
										L1212.2,1324.1L1212.2,1324.1z M1191.3,1303.2C1191.3,1303.2,1191.3,1303.3,1191.3,1303.2c0,0.1,0,0.1,0,0.2v0.1v0.1v0.1
										v0.1v0.1v0.1v0.1v0.1v0.1v0.1v0.1v0.1v0.1v0.1v0.1v0.1v0.1v0.1v0.1v0.1v0.1v0.1v0.1v0.1v0.1v0.1v0.1v0.1v0.1v0.1v0.1v0.1
										v0.1v0.1v0.1v0.1v0.1v0.1v0.1v0.1v0.1v0.1v0.1v0.1v0.1v0.1v0.1v0.1v0.1v0.1v0.1v0.1v0.1v0.1v0.1v0.1v0.1v0.1v0.1v0.1v0.1
										v0.1v0.1v0.1v0.1v0.1v0.1v0.1v0.1v0.1v0.1v0.1v0.1v0.1v0.1v0.1v0.1v0.1v0.1v0.1v0.1v0.1v0.1v0.1v0.1v0.1v0.1v0.1v0.1v0.1
										v0.1v0.1v0.1v0.1v0.1v0.1v0.1v0.1v0.1v0.1v0.1v0.1v0.1v0.1v0.1v0.1v0.1v0.1v0.1v0.1v0.1v0.1v0.1v0.1v0.1v0.1v0.1v0.1v0.1
										v0.1v0.1v0.1v0.1v0.1v0.1v0.1v0.1v0.1v0.1v0.1v0.1v0.1v0.1v0.1v0.1v0.1v0.1v0.1v0.1v0.1v0.1v0.1v0.1v0.1v0.1v0.1v0.1v0.1
										v0.1v0.1v0.1v0.1v0.1v0.1v0.1v0.1v0.1v0.1v0.1v0.1v0.1v0.1v0.1v0.1v0.1v0.1v0.1v0.1v0.1v0.1v0.1v0.1v0.1v0.1v0.1v0.1v0.1
										v0.1v0.1v0.1v0.1v0.1v0.1v0.1v0.1v0.1v0.1v0.1v0.1v0.1v0.1v0.1v0.1v0.1v0.1v0.1v0.1v0.1v0.1v0.1v0.1v0.1v0.1v0.1v0.1v0.1
										v0.1v0.1v0.1v0.1v0.1v0.1v0.1v0.1v0.1v0.1v0.1v0.1v0.1v0.1v0.1v0.1v0.1v0.1v0.1v0.1v0.1v0.1v0.1v0.1v0.1v0.1v0.1v0.1v0.1
										v0.1v0.1v0.1v0.1v0.1v0.1v0.1v0.1v0.1v0.1v0.1v0.1v0.1v0.1v0.1v0.1v0.1v0.1v0.1h-20v-20.6L1191.3,1303.2L1191.3,1303.2z
										 M1212.2,1282.3v0.5v0.1v1.1v0.1v1.4v0.1v1.6v0.1v2.2v0.1v3.9v0.1v9.4h-7.7h-0.1h-3.3h-0.1h-1.9h-0.1h-1.4h-0.1h-1.2h-0.1
										h-0.9h-0.1h-0.9h-0.1h-0.8h-0.1h-0.7h-0.1h-0.6h-0.1h-0.3v-20.6L1212.2,1282.3L1212.2,1282.3z M522.8,1281.6v-40.8h19.7
										v19.8h0.1h0.1h0.1h0.1h0.1h0.1h0.1h0.1h0.1h0.1h0.1h0.1h0.1h0.1h0.1h0.1h0.1h0.1h0.1h0.1h0.1h0.1h0.1h0.1h0.1h0.1h0.1h0.1
										h0.1h0.1h0.1h0.1h0.1h0.1h0.1h0.1h0.1h0.1h0.1h0.1h0.1h0.1h0.1h0.1h0.1h0.1h0.1h0.1h0.1h0.1h0.1h0.1h0.1h0.1h0.1h0.1h0.1
										h0.1h0.1h0.1h0.1h0.1h0.1h0.1h0.1h0.1h0.1h0.1h0.1h0.1h0.1h0.1h0.1h0.1h0.1h0.1h0.1h0.1h0.1h0.1h0.1h0.1h0.1h0.1h0.1h0.1
										h0.1h0.1h0.1h0.1h0.1h0.1h0.1h0.1h0.1h0.1h0.1h0.1h0.1h0.1h0.1h0.1h0.1h0.1h0.1h0.1h0.1h0.1h0.1h0.1h0.1h0.1h0.1h0.1h0.1
										h0.1h0.1h0.1h0.1h0.1h0.1h0.1h0.1h0.1h0.1h0.1h0.1h0.1h0.1h0.1h0.1h0.1h0.1h0.1h0.1h0.1h0.1h0.1h0.1h0.1h0.1h0.1h0.1h0.1
										h0.1h0.1h0.1h0.1h0.1h0.1h0.1h0.1h0.1h0.1h0.1h0.1h0.1h0.1h0.1h0.1h0.1h0.1h0.1h0.1h0.1h0.1h0.1h0.1h0.1h0.1h0.1h0.1h0.1
										h0.1h0.1h0.1h0.1h0.1h0.1h0.1h0.1h0.1h0.1h0.1h0.1h0.1h0.1h0.1h0.1h0.1h0.1h0.1h0.1h0.1h0.1h0.1h0.1h0.1h0.1h0.1h0.1h0.1
										h0.1h0.1h0.1h0.1h0.1h0.1h0.1h0.1h0.1h0.1h0.1h0.1h0.1h0.1h0.1h0.1h0.1h0.1h0.1h0.1h0.1h0.1h0.1h0.1h0.1h0.1h0.1h0.1h0.1
										h0.1h0.1h0.1h0.1h0.1h0.1h0.1h0.1h0.1h0.1h0.1h0.1h0.1h0.1h0.1h0.1h0.1h0.1h0.1h0.1h0.1h0.1h0.1h0.1h0.1v20L522.8,1281.6
										L522.8,1281.6z M606.3,1302.3v-40.7h20.5v40.7h-0.1h-0.1h-0.1h-0.1h-0.1h-0.1h-0.1H626h-0.1h-0.1h-0.1h-0.1h-0.1h-0.1h-0.1
										h-0.1h-0.1H625h-0.1h-0.1h-0.1h-0.1h-0.1h-0.1h-0.1h-0.1h-0.1H624h-0.1h-0.1h-0.1h-0.1h-0.1h-0.1h-0.1h-0.1h-0.1H623h-0.1
										h-0.1h-0.1h-0.1h-0.1h-0.1h-0.1h-0.1h-0.1H622h-0.1h-0.1h-0.1h-0.1h-0.1h-0.1h-0.1h-0.1h-0.1H621h-0.1h-0.1h-0.1h-0.1h-0.1
										h-0.1h-0.1h-0.1h-0.1H620h-0.1h-0.1h-0.1h-0.1h-0.1h-0.1h-0.1h-0.1h-0.1H619h-0.1h-0.1h-0.1h-0.1h-0.1h-0.1h-0.1h-0.1h-0.1
										H618h-0.1h-0.1h-0.1h-0.1h-0.1h-0.1h-0.1h-0.1h-0.1H617h-0.1h-0.1h-0.1h-0.1h-0.1h-0.1h-0.1h-0.1h-0.1H616h-0.1h-0.1h-0.1
										h-0.1h-0.1h-0.1h-0.1h-0.1h-0.1H615h-0.1h-0.1h-0.1h-0.1h-0.1h-0.1h-0.1h-0.1h-0.1H614h-0.1h-0.1h-0.1h-0.1h-0.1h-0.1h-0.1
										h-0.1h-0.1H613h-0.1h-0.1h-0.1h-0.1h-0.1h-0.1h-0.1h-0.1h-0.1H612h-0.1h3.1h-0.1h-0.2h-0.1h-0.1h-0.1h-0.1h-0.1H614h-0.1
										h-0.1h-0.1h-0.2h-0.1h-0.2h-0.1h-0.2h-0.1h0.2h-0.1h-0.2h-0.1h-0.3h-0.1H612h-0.1h-0.4h-0.1H611h-0.1h-0.7h-0.1h-1.2h-0.1
										H606.3L606.3,1302.3z M647.4,1323.8h-20.6v-0.1v-0.1v-0.1v-0.1v-0.1v-0.1v-0.1v-0.1v-0.1v-0.1v-0.1v-0.1v-0.1v-0.1v-0.1
										v-0.1v-0.1v-0.1v-0.1v-0.1v-0.1v-0.1v-0.1v-0.1v-0.1v-0.1v-0.1v-0.1v-0.1v-0.1v-0.1v-0.1v-0.1v-0.1v-0.1v-0.1v-0.1v-0.1
										v-0.1v-0.1v-0.1v-0.1v-0.1v-0.1v-0.1v-0.1v-0.1v-0.1v-0.1v-0.1v-0.1v-0.1v-0.1v-0.1v-0.1v-0.1v-0.1v-0.1v-0.1v-0.1v-0.1
										v-0.1v-0.1v-0.1v-0.1v-0.1v-0.1v-0.1v-0.1v-0.1v-0.1v-0.1v-0.1v-0.1v-0.1v-0.1v-0.1v-0.1v-0.1v-0.1v-0.1v-0.1v-0.1v-0.1
										v-0.1v-0.1v-0.1v-0.1v-0.1v-0.1v-0.1v-0.1v-0.1v-0.1v-0.1v-0.1v-0.1v-0.1v-0.1v-0.1v-0.1v-0.1v-0.1v-0.1v-0.1v-0.1v-0.1
										v-0.1v-0.1v-0.1v-0.1v-0.1v-0.1v-0.1v-0.1v-0.1v-0.1v-0.1v-0.1v-0.1v-0.1v-0.1v-0.1v-0.1v-0.1v-0.1v-0.1v-0.1v-0.1v-0.1
										v-0.1v-0.1v-0.1v-0.1v-0.1v-0.1v-0.1v-0.1v-0.1v-0.1v-0.1v-0.1v-0.1v-0.1v-0.1v-0.1v-0.1v-0.1v-0.1v-0.1v-0.1v-0.1v-0.1
										v-0.1v-0.1v-0.1v-0.1v-0.1v-0.1v-0.1v-0.1v-0.1v-0.1v-0.1v-0.1v-0.1v-0.1v-0.1v-0.1v-0.1v-0.1v-0.1v-0.1v-0.1v-0.1v-0.1
										v-0.1v-0.1v-0.1v-0.1v-0.1v-0.1v-0.1v-0.1v-0.1v-0.1v-0.1v-0.1v-0.1v-0.1v-0.1v-0.1v-0.1v-0.1v-0.1v-0.1v-0.1v-0.1v-0.1
										v-0.1v-0.1v-0.1v-0.1v-0.1v-0.1v-0.1v-0.1v-0.1v-0.1v-0.1v-0.1v-0.1v-0.1v-0.1v-0.1v-0.1v-0.1v-0.1v-0.1v-0.1v-0.1v-0.1
										v-0.1v-0.1v-0.1v-0.1v-0.1v-0.1v-0.1v-0.1v-0.1v-0.1v-0.1v-0.1v-0.1v-0.1v-0.1v-0.1v-0.1v-0.1v-0.1v-0.1v-0.1v-0.1v-0.1
										v-0.1v-0.1v-0.1v-0.1v-0.1v-0.1v-0.1v-0.1v-0.1v-0.1v-0.1h0.1h0.1h0.1h0.1h0.1h0.1h0.1h0.1h0.1h0.1h0.1h0.1h0.1h0.1h0.1
										h0.1h0.1h0.1h0.1h0.1h0.1h0.1h0.1h0.1h0.1h0.1h0.1h0.1h0.1h0.1h0.1h0.1h0.1h0.1h0.1h0.1h0.1h0.1h0.1h0.1h0.1h0.1h0.1h0.1
										h0.1h0.1h0.1h0.1h0.1h0.1h0.1h0.1h0.1h0.1h0.1h0.1h0.1h0.1h0.1h0.1h0.1h0.1h0.1h0.1h0.1h0.1h0.1h0.1h0.1h0.1h0.1h0.1h0.1
										h0.1h0.1h0.1h0.1h0.1h0.1h0.1h0.1h0.1h0.1h0.1h0.1h0.1h0.1h0.1h0.1h0.1h0.1h0.1h0.1h0.1h0.1h0.1h0.1h0.1h0.1h0.1h0.1h0.1
										h0.1h0.1h0.1h0.1h0.1h0.1h0.1h0.1h0.1h0.1h0.1h0.1h0.1h0.1h0.1h0.1h0.1h0.1h0.1h0.1h0.1h0.1h0.1h0.1h0.1h0.1h0.1h0.1h0.1
										h0.1h0.1h0.1h0.1h0.1h0.1h0.1h0.1h0.1h0.1h0.1h0.1h0.1h0.1h0.1h0.1h0.1h0.1h0.1h0.1h0.1h0.1h0.1h0.1h0.1h0.1h0.1h0.1h0.1
										h0.1h0.1h0.1h0.1h0.1h0.1h0.1h0.1h0.1h0.1h0.1h0.1h0.1h0.1h0.1h0.1h0.1h0.1h0.1h0.1h0.1h0.1h0.1h0.1h0.1h0.1h0.1h0.1h0.1
										h0.1h0.1h0.1h0.1h0.1h0.1h0.1h0.1h0.1h0.1h0.1h0.1h0.1h0.1h0.1h0.1h0.1h0.1h0.1h0.1h0.1h0.1h0.1h0.1h0.1h0.1h0.1h0.1h0.1
										h0.1h0.1h0.1h0.1h0.1h0.1h0.1h0.1h0.1h0.1h0.1h0.1h0.1h0.1h0.1h0.1h0.1h0.1h0.1h0.1h0.1h0.1h0.1h0.1h0.1h0.1h0.1h0.1h0.1
										h0.1h0.1h0.1h0.1h0.1h0.1h0.1h0.1h0.1v0.1v0.1v0.1v0.1v0.1v0.1v0.1v0.1v0.1v0.1v0.1v0.1v0.1v0.1v0.1v0.1v0.1v0.1v0.1v0.1
										v0.1v0.1v0.1v0.1v0.1v0.1v0.1v0.1v0.1v0.1v0.1v0.1v0.1v0.1v0.1v0.1v0.1v0.1v0.1v0.1v0.1v0.1v0.1v0.1v0.1v0.1v0.1v0.1v0.1
										v0.1v0.1v0.1v0.1v0.1v0.1v0.1v0.1v0.1v0.1v0.1v0.1v0.1v0.1v0.1v0.1v0.1v0.1v0.1v0.1v0.1v0.1v0.1v0.1v0.1v0.1v0.1v0.1v0.1
										v0.1v0.1v0.1v0.1v0.1v0.1v0.1v0.1v0.1v0.1v0.1v0.1v0.1v0.1v0.1v0.1v0.1v0.1v0.1v0.1v0.1v0.1v0.1v0.1v0.1v0.1v0.1v0.1v0.1
										v0.1v0.1v0.1v0.1v0.1v0.1v0.1v0.1v0.1v0.1v0.1v0.1v0.1v0.1v0.1v0.1v0.1v0.1v0.1v0.1v0.1v0.1v0.1v0.1v0.1v0.1v0.1v0.1v0.1
										v0.1v0.1v0.1v0.1v0.1v0.1v0.1v0.1v0.1v0.1v0.1v0.1v0.1v0.1v0.1v0.1v0.1v0.1v0.1v0.1v0.1v0.1v0.1v0.1v0.1v0.1v0.1v0.1v0.1
										v0.1v0.1v0.1v0.1v0.1v0.1v0.1v0.1v0.1v0.1v0.1v0.1v0.1v0.1v0.1v0.1v0.1v0.1v0.1v0.1v0.1v0.1v0.1v0.1v0.1v0.1v0.1v0.1v0.1
										v0.1v0.1v0.1v0.1v0.1v0.1v0.1v0.1v0.1v0.1v0.1v0.1v0.1v0.1v0.1v0.1v0.1v0.1v0.1v0.1v0.1v0.1v0.1v0.1v0.1v0.1v0.1v0.1v0.1
										v0.1v0.1v0.1v0.1v0.1v0.1v0.1v0.1v0.1v0.1v0.1v0.1v0.1v0.1v0.1v0.1v0.1v0.1v0.1v0.1v0.1v0.1v0.1v0.1v0.1v0.1v0.1v0.1v0.1
										v0.1v0.1C647.4,1323.6,647.4,1323.6,647.4,1323.8C647.4,1323.7,647.4,1323.7,647.4,1323.8L647.4,1323.8z M688.6,1281.7H669
										v21.1h-21.3v-1c0-0.1,0-0.2,0-0.2v-2.1c0-0.1,0-0.2,0-0.2v-2.1c0-0.1,0-0.2,0-0.2v-2.1c0-0.1,0-0.2,0-0.2v-2.9
										c0-0.1,0-0.2,0-0.2v-2.9c0-0.1,0-0.2,0-0.2v-3.6c0-0.1,0-0.2,0-0.2v-4.6c0-0.1,0-0.2,0-0.2v-5.8c0-0.1,0-0.2,0-0.2v-10.4
										c0-0.1,0-0.2,0-0.2v-22H668v19.6h20.6V1281.7L688.6,1281.7z M773.3,1302.8v-20.6h20.6v20.6H773.3z M856.6,1261.4
										L856.6,1261.4c0,0.1,0,0.1,0,0.2v0.1v0.1v0.1v0.1v0.1v0.1v0.1v0.1v0.1v0.1v0.1v0.1v0.1v0.1v0.1v0.1v0.1v0.1v0.1v0.1v0.1
										v0.1v0.1v0.1v0.1v0.1v0.1v0.1v0.1v0.1v0.1v0.1v0.1v0.1v0.1v0.1v0.1v0.1v0.1v0.1v0.1v0.1v0.1v0.1v0.1v0.1v0.1v0.1v0.1v0.1
										v0.1v0.1v0.1v0.1v0.1v0.1v0.1v0.1v0.1v0.1v0.1v0.1v0.1v0.1v0.1v0.1v0.1v0.1v0.1v0.1v0.1v0.1v0.1v0.1v0.1v0.1v0.1v0.1v0.1
										v0.1v0.1v0.1v0.1v0.1v0.1v0.1v0.1v0.1v0.1v0.1v0.1v0.1v0.1v0.1v0.1v0.1v0.1v0.1v0.1v0.1v0.1v0.1v0.1v0.1v0.1v0.1v0.1v0.1
										v0.1v0.1v0.1v0.1v0.1v0.1v0.1v0.1v0.1v0.1v0.1v0.1v0.1v0.1v0.1v0.1v0.1v0.1v0.1v0.1v0.1v0.1v0.1v0.1v0.1v0.1v0.1v0.1v0.1
										v0.1v0.1v0.1v0.1v0.1v0.1v0.1v0.1v0.1v0.1v0.1v0.1v0.1v0.1v0.1v0.1v0.1v0.1v0.1v0.1v0.1v0.1v0.1v0.1v0.1v0.1v0.1v0.1v0.1
										v0.1v0.1v0.1v0.1v0.1v0.1v0.1v0.1v0.1v0.1v0.1v0.1v0.1v0.1v0.1v0.1v0.1v0.1v0.1v0.1v0.1v0.1v0.1v0.1v0.1v0.1v0.1v0.1v0.1
										v0.1v0.1v0.1v0.1v0.1v0.1v0.1v0.1v0.1v0.1v0.1v0.1v0.1v0.1v0.1v0.1v0.1v0.1v0.1v0.1v0.1v0.1v0.1v0.1v0.1v0.1v0.1v0.1v0.1
										v0.1v0.1v0.1v0.1v0.1v0.1v0.1v0.1v0.1v0.1v0.1v0.1v0.1v0.1v0.1v0.1v0.1v0.1v0.1v0.1v0.1v0.1v0.1v0.1v0.1v0.1v0.1v0.1v0.1
										v0.1h-20.9v20.9h-20.6V1287h-20.9v-20.6L856.6,1261.4L856.6,1261.4z M876.9,1261h-7.1h-0.1h-3.1h-0.1h-1.9h-0.1h-1.3h-0.1
										H862h-0.1H861h-0.1h-0.8H860h-0.8h-0.1h-0.6h-0.1h-0.6h-0.1h-0.6H857h-0.2v-20h20L876.9,1261L876.9,1261z M1232.6,1262v20
										h-7.1h-0.1h-3.1h-0.1h-1.9h-0.1h-1.3h-0.1h-1.2h-0.1h-0.9h-0.1h-0.8h-0.1h-0.8h-0.1h-0.6h-0.1h-0.6h-0.1h-0.6h-0.1h-0.2
										v-20H1232.6L1232.6,1262z M1128,1261.9v19.9h-19.3v-19.9H1128z M1065.8,1261.9v10.6v0.1v3.4v0.1v2.3v0.1v1.7v0.1v1.4v0.1
										v0.3h-20v-20L1065.8,1261.9L1065.8,1261.9z M1023.3,1261.3v20h-19.9v-20h0.2c0,0,0,0,0.1,0h0.6c0,0,0,0,0.1,0h0.6
										c0,0,0,0,0.1,0h0.6c0,0,0,0,0.1,0h0.7c0,0,0,0,0.1,0h0.7h0.1h0.9h0.1h1.1h0.1h1.3h0.1h1.8h0.1h3h0.1H1023.3L1023.3,1261.3z
										 M1399.9,1241.1v19.4h-19.7v-19.4H1399.9z M1169.7,1260.7h-19.5v-19.5h19.5V1260.7z M1003.1,1240.9v8v0.1v2.7v0.1v1.7v0.1
										v1.3v0.1v1v0.1v0.9v0.1v0.8v0.1v0.7v0.1v0.7v0.1v0.6v0.1v0.5v0.1v0.2h-0.1h-0.1h-0.1h-0.1h-0.1h-0.1h-0.1h-0.1h-0.1h-0.1
										h-0.1h-0.1h-0.1h-0.1h-0.1h-0.1h-0.1h-0.1h-0.1h-0.1h-0.1h-0.1h-0.1h-0.1h-0.1h-0.1h-0.1h-0.1h-0.1h-0.1h-0.1h-0.1h-0.1
										h-0.1h-0.1h-0.1h-0.1h-0.1h-0.1h-0.1H999h-0.1h-0.1h-0.1h-0.1h-0.1h-0.1h-0.1h-0.1h-0.1H998h-0.1h-0.1h-0.1h-0.1h-0.1h-0.1
										h-0.1h-0.1h-0.1H997h-0.1h-0.1h-0.1h-0.1h-0.1h-0.1h-0.1h-0.1h-0.1H996h-0.1h-0.1h-0.1h-0.1h-0.1h-0.1h-0.1h-0.1h-0.1H995
										h-0.1h-0.1h-0.1h-0.1h-0.1h-0.1h-0.1h-0.1h-0.1H994h-0.1h-0.1h-0.1h-0.1h-0.1h-0.1h-0.1h-0.1h-0.1H993h-0.1h-0.1h-0.1h-0.1
										h-0.1h-0.1h-0.1h-0.1h-0.1H992h-0.1h-0.1h-0.1h-0.1h-0.1h-0.1h-0.1h-0.1h-0.1H991h-0.1h-0.1h-0.1h-0.1h-0.1h-0.1h-0.1h-0.1
										h-0.1H990h-0.1h-0.1h-0.1h-0.1h-0.1h-0.1h-0.1h-0.1h-0.1H989h-0.1h-0.1h-0.1h-0.1h-0.1h-0.1h-0.1h-0.1h-0.1H988h-0.1h-0.1
										h-0.1h-0.1h-0.1h-0.1h-0.1h-0.1h-0.1H987h-0.1h-0.1h-0.1h-0.1h-0.1h-0.1h-0.1h-0.1h-0.1H986h-0.1h-0.1h-0.1h-0.1h-0.1h-0.1
										h-0.1h-0.1h-0.1H985h-0.1h-0.1h-0.1h-0.1h-0.1h-0.1h-0.1h-0.1h-0.1H984h-0.1h-0.1h-0.1h-0.1h-0.1h-0.1h-0.1h-0.1h-0.1H983
										h-0.1h-0.1h-0.1h-0.1h-0.1h-0.1h-0.1h-0.1h-0.1H982h-0.1h-0.1h-0.1h-0.1h-0.1h-0.1h-0.1h-0.1h-0.1H981h-0.1h-0.1h-0.1h-0.1
										h-0.1h-0.1h-0.1h-0.1h-0.1H980h-0.1h-0.1h-0.1h-0.1h-0.1h-0.1h-0.1h-0.1h-0.1H979h-0.1h-0.1h-0.1h-0.1h-0.1h-0.1h-0.1h-0.1
										h-0.1H978h-0.1h-0.1h-0.1h-0.1h-0.1v-19.7L1003.1,1240.9L1003.1,1240.9z M939.6,1240.8v19.7h-19.4v-19.7H939.6z
										 M1086.1,1220.2v19.5h-19.6v-19.5H1086.1z M1213.5,226.1v-19.5h19.7v19.5H1213.5z M1004,205.6V185h5.4h0.1h2.9h0.1h1.6h0.1
										h1.1h0.1h1h0.1h0.8h0.1h0.6h0.1h0.6h0.1h0.6h0.1h0.5h0.1h0.5h0.1h0.4h0.1h0.4h0.1h0.4h0.1h0.3h0.1h0.3h0.1h0.3h0.1h0.3h0.1
										h0.2h0.1h0.3h0.1h0.2h0.1h0.2v20.6H1004L1004,205.6z M899.1,226.8v20h-20v-20h5h0.1h2.9h0.1h1.6h0.1h1.1h0.1h0.9h0.1h0.8
										h0.1h0.6h0.1h0.6h0.1h0.5h0.1h0.5h0.1h0.5h0.1h0.4h0.1h0.4h0.1h0.4h0.1h0.3h0.1h0.3h0.1h0.3h0.1h0.3h0.1h0.2h0.1h0.3h0.1
										H899.1h0.2H899.1L899.1,226.8z M1087.1,290.4v19.3h-19.9v-19.3H1087.1z M982.3,290.2v19.3h-19.9v-19.3H982.3z M565.1,289
										v-19.5h19.5V289H565.1z M940.3,269.4v19.1h-19.9v-19.1H940.3z M649,268.1v-19.8h40.5v19.8H649z M711.7,267.7v-40.8h20v0.5
										c0,0.1,0,0.1,0,0.2v1.1c0,0.1,0,0.1,0,0.2v1.2c0,0.1,0,0.1,0,0.2v1.2c0,0.1,0,0.1,0,0.2v1.6c0,0.1,0,0.1,0,0.2v1.6
										c0,0.1,0,0.1,0,0.2v1.9c0,0.1,0,0.1,0,0.2v2.2c0,0.1,0,0.1,0,0.2v2.7c0,0.1,0,0.1,0,0.2v3.6c0,0.1,0,0.1,0,0.2v5.9
										c0,0.1,0,0.1,0,0.2v15.6L711.7,267.7L711.7,267.7z M1338.9,225.9v-19.6h-21.2v-42.2h20.6V185h20.9v40.9H1338.9z
										 M1400.8,205.9h4.7h0.1h2.6h0.1h1.4h0.1h0.9h0.1h0.8h0.1h0.7h0.1h0.6h0.1h0.5h0.1h0.4h0.1h0.4h0.1h0.4h0.1h0.3h0.1h0.3h0.1
										h0.3h0.1h0.2h0.1h0.2h0.1h0.2h0.1h0.2h0.1h0.2h0.1h0.2h0.1h0.2h0.1h0.2h0.1h0.2h0.1h0.2h0.1h0.2h0.1h0.2h0.1h0.2h0.1h0.2
										h0.1h0.2h0.1h0.1h0.1h0.2h0.1h0.2h0.1h0.1h0.1h0.2h0.1h0.1h0.1h0.2h0.1h0.1h0.1h0.1v40.9h-41V227h19.7L1400.8,205.9
										L1400.8,205.9z M1003.7,225.9h-20v-20h5.6h0.1h3.1h0.1h1.7h0.1h1.2h0.1h1h0.1h0.9h0.1h0.8h0.1h0.6h0.1h0.6h0.1h0.5h0.1h0.5
										h0.1h0.5h0.1h0.4h0.1h0.4h0.1h0.4h0.1h0.4h0.1h0.2L1003.7,225.9L1003.7,225.9z M961.1,226h-20v-6.1v-0.1v-3.7V216v-2v-0.1
										v-1.4v-0.1v-1.2v-0.1v-0.9v-0.1v-0.9v-0.1v-0.8v-0.1v-0.7v-0.1V207v-0.1v-0.5v-0.1v-0.4h20V226L961.1,226z M899.4,205.9
										h5.9h0.1h3.2h0.1h1.8h0.1h1.2h0.1h1h0.1h0.9h0.1h0.8h0.1h0.6h0.1h0.6h0.1h0.6h0.1h0.5h0.1h0.5h0.1h0.4h0.1h0.4h0.1h0.4h0.1
										h0.4h0.1h0.2v20.6h-20.6L899.4,205.9L899.4,205.9z M753.1,206.3v20.3H732v-20.3h3.2h0.1h1.1h0.1h0.7h0.1h0.5h0.1h0.4h0.1
										h0.3h0.1h0.2h0.1h0.2h0.1h0.2h0.1h0.2h0.1h0.2h0.1h0.2h0.1h0.2h0.1h0.2h0.1h0.1h0.1h0.2h0.1h0.1h0.1h0.1h0.1h0.2h0.1h0.1
										h0.1h0.1h0.1h0.1h0.1h0.1h0.1h0.1h0.1h0.1h0.1h0.1h0.1h0.1h0.1h0.1h0.1h0.1h0.1h0.1h0.1h0.1h0.1h0.1h0.1h0.1h0.1h0.1h0.1
										h0.1h0.1h0.1h0.1h0.1h0.1h0.1h0.1h0.1h0.1h0.1h0.1h0.1h0.1h0.1h0.1h0.1h0.1h0.1h0.1h0.1h0.1h0.1h0.1h0.1h0.1h0.1h0.1h0.1
										h0.1h0.1h0.1h0.1h0.1h0.1h0.1h0.1h0.1h0.1h0.1h0.1h0.1h0.1h0.1h0.1h0.1h0.1h0.1h0.1h0.1h0.1h0.1h0.1h0.1h0.1h0.1h0.1h0.1
										h0.1h0.1h0.1h0.1h0.1h0.1h0.1h0.1h0.1h0.1h0.1h0.1h0.1h0.1h0.1h0.1h0.1h0.1H753.1L753.1,206.3h0.2h0.1h0.1h0.1h0.1h0.1h0.1
										h0.1h0.1h0.1h0.1h0.1h0.1h0.1h0.1h0.1h0.1h0.1h0.1h0.1h0.1h0.1h0.1h0.1h0.1h0.1h0.1C752.9,206.3,753,206.3,753.1,206.3
										C753,206.3,753,206.3,753.1,206.3L753.1,206.3z M627.1,225.9h-20v-20h5.6h0.1h3.1h0.1h1.7h0.1h1.2h0.1h1h0.1h0.9h0.1h0.8
										h0.1h0.6h0.1h0.6h0.1h0.5h0.1h0.5h0.1h0.5h0.1h0.4h0.1h0.4h0.1h0.4h0.1h0.4h0.1h0.2L627.1,225.9L627.1,225.9z M731.7,143.2
										v20.6h-20v-20.6H731.7L731.7,143.2z M689.2,143.2V205h-20v-21.5c0-0.1,0-0.2,0-0.2v-10.4c0-0.1,0-0.2,0-0.2v-6
										c0-0.1,0-0.2,0-0.2v-4.6c0-0.1,0-0.2,0-0.2v-3.6c0-0.1,0-0.2,0-0.2V155c0-0.1,0-0.2,0-0.2v-2.7c0-0.1,0-0.2,0-0.2v-2.4
										c0-0.1,0-0.2,0-0.2v-2.2c0-0.1,0-0.2,0-0.2v-2.2c0-0.1,0-0.2,0-0.2v-1L689.2,143.2L689.2,143.2z"/>
								</g>
							</g>
						</g>
						<rect x="1151.5" y="231.2" class="st15" width="11.3" height="11.3"/>
						<rect x="1163.1" y="242.1" class="st15" width="11.3" height="11.3"/>
						<rect x="1162.9" y="219.8" class="st15" width="11.3" height="11.3"/>
						<rect x="1173.8" y="231.2" class="st15" width="11.3" height="11.3"/>
						<rect x="1385.1" y="392.2" class="st15" width="11.3" height="11.3"/>
						<rect x="1396.6" y="403.2" class="st15" width="11.3" height="11.3"/>
						<rect x="1396.4" y="380.9" class="st15" width="11.3" height="11.3"/>
						<rect x="1407.4" y="392.2" class="st15" width="11.3" height="11.3"/>
						<rect x="560.1" y="331.6" class="st15" width="11.3" height="11.3"/>
						<rect x="571.7" y="342.6" class="st15" width="11.3" height="11.3"/>
						<rect x="571.5" y="320.3" class="st15" width="11.3" height="11.3"/>
						<rect x="582.4" y="331.6" class="st15" width="11.3" height="11.3"/>
						<path class="st4" d="M292.9,502c0,0,64.6-63.1,70.8-75.4s92.3-157,113.9-178.5s47.7-72.3,72.3-61.6s43.1,43.1,32.3,76.9
							c-10.8,33.9-27.7,80-44.6,101.6c-16.9,21.5-60,60-66.2,100s-9.2,290.8-120,346.2c0,0-90.8,56.9-104.6,29.2
							S191.3,568.1,292.9,502L292.9,502z"/>
						<path class="st3" d="M337.4,454c11.5-12.2,21.2-23.1,23.4-27.5c6.2-12.3,92.3-157,113.9-178.5s47.7-72.3,72.3-61.6
							s43.1,43.1,32.3,76.9c-10.8,33.9-27.7,80-44.6,101.6c-16.9,21.5-60,60-66.2,100s-9.2,290.8-120,346.2c0,0-17.1,10.7-37.5,20.6
							"/>
						<path class="st5" d="M481.2,247.1c0,0,39.1,42.3,59.1,28.1s37.8-73.3,36.7-78.7s-24.7-43.9-54-11
							C522.9,185.5,478.6,239.4,481.2,247.1L481.2,247.1z"/>
						<path class="st3" d="M467.9,272.6c0,0,36.7,10.5,48.5,29.5"/>
						<path class="st8" d="M446.7,90.3c-11.8-1.4-89.6,61.2-89.6,61.2L241.2,261.8c-34.1,9.1-65.6,44.1-84.4,72.7
							c-19.3,29.2-20.6,66.4-27.4,99.7c-8.3,41.2-16.6,82.4-24.9,123.6c-16.7,83-33.4,165.9-50.1,248.9L-275,1699.4"/>
						<path class="st3" d="M451,187.6l-23.8,21.2c0,0-14.4,65.2-63.7,106.7"/>
						<path class="st3" d="M425.6,210.8c0,0,1.3-19.8-10.7-29.2"/>
						<line class="st3" x1="392.9" y1="283.2" x2="451" y2="259.7"/>
						<path class="st3" d="M305.6,397.9c0,0,28,26.5,13.8,54.6"/>
						<path class="st3" d="M174.5,354.5c0,0-10.1,6-10.1,25.4"/>
						<path class="st3" d="M368.8,800.3c0,0-33.5,100.3-102.8,129.8"/>
						<line class="st8" x1="124.6" y1="1674.9" x2="266" y2="894.8"/>
						<path class="st16" d="M-40,983.6c13.4-1.5,31.9,1,37.1,1.1c49.1,0.5,98.2,1.1,147.3,1.7c24.6,0.3,49.1,0.6,73.7,1
							c12.3,0.2,24.6,0.3,36.8,0.5c8.4,0.1,18.8-1.2,24.4,6.6c3.7,5.1,2.6,10.8,3.4,16.6c0.8,8.1,3.9,27.1-7.9,27.3
							c-97.3,1.9-194.6,3.6-291.9,6.3c-12.8,0.4-25.5,0.7-38.3,1.1c-2.4,0.1-4.9,0.1-7.1-0.8c-10-4.3,0.3-21.4,1.6-28.2
							c1.4-7.5,5.8-16.6,6-24C-54.6,987.1-48.2,984.6-40,983.6L-40,983.6z"/>
						<path class="st17" d="M-60.1,1076.7c0,0,285.3,30.8,304,38.8c0,0,11.7,37.2-4.3,43.9s-289.6-37.3-302.8-41.3
							S-71.8,1090.1-60.1,1076.7L-60.1,1076.7z"/>
						<path class="st18" d="M240.2,1146.2c-2.6,0.2-5.3,0.8-7.8,0.7c-5.1-0.2-10.2-1.2-14.2-4.5c-3.3-2.7-5.4-6.4-8-9.7
							s-6.2-6.3-10.4-6.4c-2.4,0-4.8,0.9-6.9,2.1c-4.9,2.6-9.3,6.2-14.2,8.9c-23.1,12.5-33.6-16.9-53.6-21
							c-9.5-1.9-17.8,2.7-26.2,6.4c-10,4.4-19.5,4.5-28.8-1.5c-4.9-3.2-9.4-7.2-14.5-10c-13.3-7.2-25.2,1.5-38.5,3.6
							c-15.3,2.4-28.7-4.4-40.6-13.2c-3.4-2.5-7.1-5-11.2-6.2c-6.6-2-11.8,0.7-17,4.6c-3.9,2.9-10,8.1-14.9,4.4"/>
						<path class="st19" d="M1.5,1101.9c0.6,0.2,1.2,0.3,1.8,0.5c0.8,0.2,1.6,0.3,2.4,0.1c0.8,0,1.5-0.3,2.2-0.7
							c0.7-0.4,1.3-0.9,1.7-1.5c0.5-0.6,0.9-1.3,1.1-2c0.3-1.5,0.3-3.3-0.6-4.6c-0.8-1.3-2-2.3-3.6-2.8c-0.6-0.2-1.2-0.3-1.8-0.5
							c-0.8-0.2-1.6-0.3-2.4-0.1c-0.8,0-1.5,0.3-2.2,0.7c-0.7,0.4-1.3,0.9-1.7,1.5c-0.5,0.6-0.9,1.3-1.1,2c-0.3,1.5-0.3,3.3,0.6,4.6
							C-1.3,1100.5-0.1,1101.5,1.5,1101.9L1.5,1101.9z"/>
						<path class="st19" d="M-42.3,1114.5c1,0.1,2.1,0.3,3.1,0.4c0.8,0.2,1.6,0.3,2.4,0.1c0.8,0,1.5-0.3,2.2-0.7
							c1.2-0.7,2.4-2.2,2.8-3.6c0.3-1.5,0.3-3.3-0.6-4.6c-0.8-1.2-2.1-2.6-3.6-2.8c-1-0.1-2.1-0.3-3.1-0.4c-0.8-0.2-1.6-0.3-2.4-0.1
							c-0.8,0-1.5,0.3-2.2,0.7c-1.2,0.7-2.4,2.2-2.8,3.6c-0.3,1.5-0.3,3.3,0.6,4.6C-45.1,1113-43.8,1114.3-42.3,1114.5L-42.3,1114.5
							z"/>
						<path class="st19" d="M41.6,1130h0.9c0.8,0,1.6-0.1,2.3-0.5c0.7-0.2,1.4-0.7,1.9-1.2c0.6-0.5,1-1.2,1.2-1.9
							c0.4-0.7,0.5-1.5,0.5-2.3l-0.2-1.6c-0.3-1-0.8-1.9-1.5-2.6l-1.2-0.9c-0.9-0.5-1.9-0.8-3-0.8h-0.9c-0.8,0-1.6,0.1-2.3,0.5
							c-0.7,0.2-1.4,0.7-1.9,1.2c-0.6,0.5-1,1.2-1.2,1.9c-0.4,0.7-0.5,1.5-0.5,2.3l0.2,1.6c0.3,1,0.8,1.9,1.5,2.6
							c0.4,0.3,0.8,0.6,1.2,0.9C39.5,1129.7,40.5,1130,41.6,1130L41.6,1130z"/>
						<path class="st19" d="M83.8,1114.7h0.3c0.8,0,1.6-0.1,2.3-0.5c0.7-0.2,1.4-0.7,1.9-1.2c0.6-0.5,1-1.2,1.2-1.9
							c0.4-0.7,0.5-1.5,0.5-2.3l-0.2-1.6c-0.3-1-0.8-1.9-1.5-2.6l-1.2-0.9c-0.9-0.5-1.9-0.8-3-0.8h-0.3c-0.8,0-1.6,0.1-2.3,0.5
							c-0.7,0.2-1.4,0.7-1.9,1.2c-0.6,0.5-1,1.2-1.2,1.9c-0.4,0.7-0.5,1.5-0.5,2.3l0.2,1.6c0.3,1,0.8,1.9,1.5,2.6
							c0.4,0.3,0.8,0.6,1.2,0.9C81.7,1114.5,82.7,1114.7,83.8,1114.7L83.8,1114.7z"/>
						<path class="st19" d="M118.4,1139.3c0.8,0.1,1.7,0.2,2.5,0.3c0.8,0,1.6-0.1,2.3-0.5c0.7-0.2,1.4-0.7,1.9-1.2
							c1-1,1.8-2.7,1.8-4.2c-0.1-1.6-0.6-3.2-1.8-4.2c-0.4-0.3-0.8-0.6-1.2-0.9c-0.9-0.5-1.9-0.8-3-0.8c-0.8-0.1-1.7-0.2-2.5-0.3
							c-0.8,0-1.6,0.1-2.3,0.5c-0.7,0.2-1.4,0.7-1.9,1.2c-1,1-1.8,2.7-1.8,4.2c0.1,1.6,0.6,3.2,1.8,4.2c0.4,0.3,0.8,0.6,1.2,0.9
							C116.4,1139,117.4,1139.3,118.4,1139.3L118.4,1139.3z"/>
						<path class="st19" d="M166.6,1126.1c1,0.2,2.1,0.4,3.1,0.6c1.6,0.3,3.2,0.2,4.6-0.6c1.2-0.7,2.4-2.2,2.8-3.6
							c0.3-1.5,0.3-3.3-0.6-4.6c-0.8-1.3-2.1-2.5-3.6-2.8c-1-0.2-2.1-0.4-3.1-0.6c-1.6-0.3-3.2-0.2-4.6,0.6
							c-1.2,0.7-2.4,2.2-2.8,3.6c-0.3,1.5-0.3,3.3,0.6,4.6C163.8,1124.6,165.1,1125.8,166.6,1126.1L166.6,1126.1z"/>
						<path class="st19" d="M193.3,1150.7h1.2c0.8,0,1.6-0.1,2.3-0.5c0.7-0.2,1.4-0.7,1.9-1.2c0.6-0.5,1-1.2,1.2-1.9
							c0.4-0.7,0.5-1.5,0.5-2.3l-0.2-1.6c-0.3-1-0.8-1.9-1.5-2.6c-0.4-0.3-0.8-0.6-1.2-0.9c-0.9-0.5-1.9-0.8-3-0.8h-1.2
							c-0.8,0-1.6,0.1-2.3,0.5c-0.7,0.2-1.4,0.7-1.9,1.2c-0.6,0.5-1,1.2-1.2,1.9c-0.4,0.7-0.5,1.5-0.5,2.3l0.2,1.6
							c0.3,1,0.8,1.9,1.5,2.6c0.4,0.3,0.8,0.6,1.2,0.9C191.2,1150.5,192.2,1150.7,193.3,1150.7L193.3,1150.7z"/>
						<path class="st19" d="M224.3,1131.2l5.5,1.3c3,0.7,6.6-1,7.4-4.2c0.7-3.1-0.9-6.6-4.2-7.4l-5.5-1.3c-3-0.7-6.6,1-7.4,4.2
							C219.4,1126.9,221,1130.4,224.3,1131.2L224.3,1131.2z"/>
						<path class="st20" d="M219.9,1181.3c6.8,0,33-2.9,32.5-12.9c-0.5-12.4-53.2-18.6-62.7-19.9c-46.4-6.4-93.2-7-139.9-8.7
							c-29.3-1.1-58.5-4.2-87.8-3.1c-15.4,0.6-31,2-46,5.5c-9.4,2.2-47.4,18.4-20.9,29.2c5,2,17.8,4.3,23.2,4"/>
						<path class="st20" d="M-71.2,1087.2c-9.5-2.9-14.7-6.1-14.7-9.5c0-13.4,82.7-24.3,184.8-24.3s184.8,10.9,184.8,24.3
							c0,6.2-17.7,11.9-46.8,16.2"/>
						<path class="st4" d="M1579.2,517.6c0,0-74.3-51.4-82.4-62.5s-117.3-139.3-142.1-157c-24.8-17.6-59.1-63.3-81.6-48.6
							c-22.5,14.7-35.3,49.7-19,81.3s40.7,74.3,61,92.7s69.2,49.1,81.9,87.6c12.8,38.4,57.7,285.2,176.2,321.3c0,0,99,41,108.1,11.3
							S1690.4,565.8,1579.2,517.6L1579.2,517.6z"/>
						<path class="st3" d="M1527.4,477.8c-13.4-10.1-24.8-19.2-27.7-23.2c-8.1-11.1-117.3-139.3-142.1-157
							c-24.8-17.6-59.1-63.3-81.6-48.6c-22.5,14.7-35.3,49.7-19,81.3s40.7,74.3,61,92.7s69.2,49.1,81.9,87.6
							c12.8,38.4,57.7,285.2,176.2,321.3c0,0,18.6,7.7,40.4,14"/>
						<path class="st5" d="M1351,297.8c0,0-31.4,48.3-53.5,37.6c-22.1-10.7-49.5-66-49.3-71.4s17-47.4,51.4-19.9
							C1299.6,244,1352.3,289.8,1351,297.8L1351,297.8z"/>
						<path class="st3" d="M1368.4,320.7c0,0-34.4,16.5-42.9,37.2"/>
					</g>
				</g>
			</g>
		</g>
	</g>
</g>
</svg>
