<?xml version="1.0" encoding="UTF-8"?>
<svg id="Capa_2" data-name="Capa 2" xmlns="http://www.w3.org/2000/svg" viewBox="0 0 67.24 65.5">
  <defs>
    <style>
      .cls-1 {
        fill: #f6ebc6;
      }

      .cls-1, .cls-2, .cls-3, .cls-4, .cls-5 {
        stroke-width: 0px;
      }

      .cls-2 {
        fill: #fff;
      }

      .cls-3 {
        fill: #231f20;
      }

      .cls-4 {
        fill: #fcca24;
      }

      .cls-5 {
        fill: #f2a12c;
      }
    </style>
  </defs>
  <g id="Capa_1-2" data-name="Capa 1">
    <g>
      <rect class="cls-5" x="44.83" y="59.99" width="2.02" height="2.16" transform="translate(-26.25 86.24) rotate(-72.36)"/>
      <rect class="cls-5" x="48.72" y="54.87" width="2.02" height="2.16" transform="translate(-18.66 86.39) rotate(-72.36)"/>
      <rect class="cls-1" x="13.67" y="22.57" width="2.02" height="2.16" transform="translate(-12.31 30.47) rotate(-72.36)"/>
      <polygon class="cls-5" points="65.19 32.31 63.12 31.65 61.07 31 59.01 30.34 58.4 32.26 57.79 34.18 57.18 36.11 56.56 38.03 55.95 39.95 55.34 41.87 54.73 43.79 54.12 45.71 53.51 47.64 52.9 49.56 52.29 51.48 50.23 50.82 49.62 52.75 49.01 54.67 51.07 55.32 50.45 57.24 48.4 56.59 49.01 54.67 46.95 54.01 46.34 55.93 44.28 55.28 43.67 57.2 41.61 56.55 41 58.47 40.39 60.39 38.33 59.73 36.27 59.08 35.66 61 33.6 60.35 32.99 62.27 30.93 61.61 28.88 60.96 28.26 62.88 30.32 63.54 32.38 64.19 34.44 64.85 36.5 65.5 37.11 63.58 39.17 64.23 41.23 64.89 41.84 62.97 43.89 63.62 44.5 61.7 45.12 59.78 47.17 60.43 46.56 62.35 48.62 63.01 49.23 61.09 49.84 59.16 51.9 59.82 52.51 57.9 54.57 58.55 55.18 56.63 55.79 54.71 57.85 55.36 58.46 53.44 59.07 51.52 61.13 52.17 61.74 50.25 62.35 48.33 62.96 46.41 63.57 44.49 64.18 42.57 64.8 40.65 65.41 38.72 66.02 36.8 66.63 34.88 67.24 32.96 65.19 32.31"/>
      <polygon class="cls-3" points="33.01 62.22 32.99 62.27 28.88 60.96 28.26 62.88 36.5 65.5 37.11 63.58 41.23 64.89 41.24 64.84 33.01 62.22"/>
      <rect class="cls-2" x="56.44" y="23.48" width="2.02" height="2.16" transform="translate(16.64 71.86) rotate(-72.36)"/>
      <g>
        <path class="cls-4" d="M54.89,29.03l.61-1.92.61-1.92.61-1.92-2.06-.65.61-1.92-2.06-.65.61-1.92-2.06-.66.61-1.92-2.06-.65.61-1.92-2.06-.66.61-1.92-2.06-.65-2.06-.65.61-1.92-2.06-.65-2.06-.65-2.06-.65-2.06-.65-2.06-.65-2.06-.65-2.06-.66-2.06-.65-.61,1.92-2.06-.65-2.06-.65-.61,1.92-2.06-.65-.61,1.92-2.06-.65-.61,1.92-2.06-.65-.61,1.92-2.06-.65-.61,1.92-.61,1.92-2.06-.65-.61,1.92-.61,1.92-2.06-.66-.61,1.92-.61,1.92-.61,1.92-.61,1.92-.61,1.92-.61,1.92-.61,1.92-.61,1.92-.61,1.92-.61,1.92,2.06.66-.61,1.92-.61,1.92,2.06.65-.61,1.92-.61,1.92,2.06.65-.61,1.92,2.06.65-.61,1.92,2.06.65-.61,1.92,2.06.65-.61,1.92,2.06.65,2.06.65-.61,1.92,2.06.65,2.06.66,2.06.65,2.06.65,2.06.65,2.06.65,2.06.65,2.06.65.61-1.92,2.06.65,2.06.65.61-1.92,2.06.66.61-1.92,2.06.65.61-1.92,2.06.66.61-1.92,2.06.65.61-1.92,2.06.65.61-1.92.61-1.92,2.06.65.61-1.92.61-1.92.61-1.92.61-1.92.61-1.92.61-1.92.61-1.92.61-1.92.61-1.92.61-1.92.61-1.92-2.06-.65ZM15.18,18.52l.61-1.92.61-1.92,2.06.65.61-1.92,2.06.65.61-1.92,2.06.65.61-1.92,2.06.65.61-1.92,2.06.65,2.06.66,2.06.65,2.06.65,2.06.65,2.06.65,2.06.65,2.06.65-.61,1.92,2.06.65-.61,1.92,2.06.65-.61,1.92,2.06.66-.61,1.92,2.06.65-.61,1.92-.61,1.92,2.06.66-.61,1.92-.61,1.92-.61,1.92-.61,1.92-.61,1.92-.61,1.92-.61,1.92-.61,1.92-2.06-.66-.61,1.92-.61,1.92-2.06-.65-.61,1.92-2.06-.66-.61,1.92-2.06-.65-.61,1.92-2.06-.65-.61,1.92-2.06-.65-2.06-.65-2.06-.65-2.06-.65-2.06-.65-2.06-.65-2.06-.66-2.06-.65.61-1.92-2.06-.65.61-1.92-2.06-.65.61-1.92-2.06-.65.61-1.92-2.06-.65.61-1.92.61-1.92-2.06-.65.61-1.92.61-1.92.61-1.92.61-1.92.61-1.92.61-1.92.61-1.92.61-1.92,2.06.65Z"/>
        <polygon class="cls-4" points="19.91 17.91 17.85 17.25 17.24 19.17 16.63 21.09 16.02 23.02 15.4 24.94 14.79 26.86 14.18 28.78 13.57 30.7 12.96 32.62 15.02 33.28 14.41 35.2 13.8 37.12 15.85 37.78 15.24 39.7 17.3 40.35 16.69 42.27 18.75 42.93 20.81 43.58 20.2 45.5 22.25 46.16 24.31 46.81 26.37 47.47 28.43 48.12 30.48 48.78 31.1 46.85 33.15 47.51 35.21 48.16 35.82 46.24 37.88 46.9 38.49 44.97 40.55 45.63 41.16 43.71 41.77 41.79 43.83 42.44 44.44 40.52 45.05 38.6 45.66 36.68 46.27 34.75 46.88 32.83 47.5 30.91 45.44 30.26 46.05 28.34 46.66 26.41 47.27 24.49 45.21 23.84 45.82 21.92 43.77 21.26 44.38 19.34 42.32 18.69 40.26 18.03 40.87 16.11 38.82 15.46 36.76 14.8 34.7 14.15 32.64 13.49 30.58 12.84 28.52 12.18 27.91 14.1 25.86 13.45 23.8 12.8 23.19 14.72 21.13 14.06 20.52 15.98 19.91 17.91"/>
      </g>
      <g>
        <polygon class="cls-5" points="64.96 25.89 65.57 23.96 66.18 22.04 64.12 21.39 63.51 23.31 61.45 22.66 59.4 22 58.78 23.92 58.17 25.84 57.56 27.77 59.62 28.42 60.23 26.5 62.29 27.15 64.35 27.81 63.74 29.73 63.12 31.65 65.19 32.31 65.8 30.38 66.41 28.46 67.02 26.54 64.96 25.89"/>
        <polygon class="cls-5" points="62.68 18.81 63.29 16.89 61.23 16.24 59.17 15.58 59.78 13.66 57.72 13.01 58.34 11.08 56.28 10.43 54.22 9.77 54.83 7.85 52.77 7.2 50.71 6.54 48.66 5.89 46.6 5.24 45.99 7.16 48.04 7.81 50.1 8.47 49.49 10.39 51.55 11.04 50.94 12.96 53 13.62 52.38 15.54 54.44 16.19 53.83 18.12 55.89 18.77 57.95 19.43 60.01 20.08 62.06 20.73 64.12 21.39 64.73 19.47 62.68 18.81"/>
      </g>
      <polygon class="cls-5" points="64.96 25.89 65.57 23.96 66.18 22.04 64.12 21.39 63.51 23.31 61.45 22.66 59.4 22 58.78 23.92 58.17 25.84 57.56 27.77 59.62 28.42 60.23 26.5 62.29 27.15 64.35 27.81 63.74 29.73 63.12 31.65 65.19 32.31 65.8 30.38 66.41 28.46 67.02 26.54 64.96 25.89"/>
      <g>
        <polygon class="cls-3" points="61.45 22.66 61.45 22.66 61.45 22.66 59.4 22 59.4 22 61.45 22.66"/>
        <polygon class="cls-3" points="64.96 25.89 65.57 23.96 66.18 22.04 64.12 21.39 64.12 21.39 64.12 21.39 63.51 23.31 62.9 25.23 64.96 25.89 64.35 27.81 64.35 27.81 63.74 29.73 63.12 31.65 65.19 32.31 65.8 30.38 66.41 28.46 67.02 26.54 64.96 25.89"/>
      </g>
      <g>
        <rect class="cls-3" x="57.44" y="13.21" width="2.02" height="2.16" transform="translate(27.11 65.66) rotate(-72.36)"/>
        <polygon class="cls-3" points="58.56 17.5 60.62 18.16 62.68 18.81 63.29 16.89 61.23 16.24 59.17 15.58 58.56 17.5"/>
        <polygon class="cls-3" points="55.67 12.35 57.72 13.01 58.34 11.08 56.28 10.43 54.22 9.78 53.61 11.7 55.67 12.35"/>
        <rect class="cls-3" x="62.39" y="19.02" width="2.02" height="2.16" transform="translate(25.03 74.43) rotate(-72.36)"/>
        <polygon class="cls-3" points="48.04 7.81 48.04 7.81 50.1 8.47 50.1 8.47 52.16 9.12 54.22 9.77 54.83 7.85 52.77 7.2 50.71 6.54 48.66 5.89 46.6 5.24 45.99 7.16 45.99 7.16 48.04 7.81"/>
        <rect class="cls-3" x="49.49" y="10.39" height="0"/>
      </g>
      <g>
        <polygon class="cls-3" points="38.33 59.73 38.33 59.73 36.27 59.08 36.27 59.08 36.27 59.08 38.33 59.73"/>
        <polygon class="cls-3" points="28.88 60.96 30.93 61.61 30.93 61.61 30.93 61.61 28.88 60.96 28.88 60.96"/>
        <polygon class="cls-3" points="49.01 54.67 46.95 54.01 46.34 55.93 46.34 55.93 46.34 55.93 48.4 56.59 49.01 54.67"/>
        <polygon class="cls-3" points="61.07 31 61.07 31 61.07 31 59.01 30.34 59.01 30.34 59.01 30.34 61.07 31"/>
        <polygon class="cls-3" points="65.19 32.31 63.12 31.65 63.12 31.65 63.12 31.65 65.19 32.31 64.57 34.23 63.96 36.15 63.35 38.07 62.74 39.99 62.13 41.91 61.52 43.83 60.91 45.76 60.3 47.68 59.69 49.6 59.07 51.52 61.13 52.17 61.74 50.25 62.35 48.33 62.96 46.41 63.57 44.49 64.18 42.57 64.8 40.65 65.41 38.72 66.02 36.8 66.63 34.88 67.24 32.96 65.19 32.31"/>
        <polygon class="cls-3" points="47.78 58.51 47.17 60.43 47.17 60.43 46.56 62.35 48.62 63.01 49.23 61.09 49.84 59.16 47.78 58.51"/>
        <rect class="cls-3" x="50.17" y="57.45" width="2.02" height="2.16" transform="translate(-20.11 89.56) rotate(-72.36)"/>
        <polygon class="cls-3" points="57.01 50.87 56.4 52.79 55.79 54.71 53.73 54.05 53.12 55.98 52.51 57.9 54.57 58.55 55.18 56.63 55.79 54.71 57.85 55.36 58.46 53.44 59.07 51.52 57.01 50.87"/>
        <polygon class="cls-3" points="37.11 63.58 35.05 62.92 34.44 64.85 36.5 65.5 37.11 63.58 37.11 63.58"/>
        <polygon class="cls-3" points="44.5 61.7 45.12 59.78 43.06 59.12 42.45 61.04 41.84 62.97 43.89 63.62 44.5 61.7 44.5 61.7"/>
        <rect class="cls-3" x="39.49" y="62.52" width="2.02" height="2.16" transform="translate(-32.38 82.92) rotate(-72.36)"/>
      </g>
      <g>
        <polygon class="cls-3" points="29.49 59.04 28.88 60.96 26.82 60.3 24.76 59.65 22.7 59 20.65 58.34 18.59 57.69 16.53 57.03 14.47 56.38 12.41 55.72 11.8 57.65 13.86 58.3 15.92 58.96 17.98 59.61 20.03 60.26 22.09 60.92 24.15 61.57 26.21 62.23 28.26 62.88 28.88 60.96 30.93 61.61 32.99 62.27 33.6 60.35 31.55 59.69 29.49 59.04"/>
        <rect class="cls-3" x="33.93" y="58.63" width="2.02" height="2.16" transform="translate(-32.56 74.91) rotate(-72.36)"/>
        <polygon class="cls-3" points="38.94 57.81 36.89 57.16 36.27 59.08 38.33 59.73 40.39 60.39 41 58.47 41.61 56.55 39.55 55.89 38.94 57.81"/>
        <rect class="cls-3" x="41.94" y="54.83" width="2.02" height="2.16" transform="translate(-23.35 79.89) rotate(-72.36)"/>
        <rect class="cls-3" x="44.61" y="53.57" width="2.02" height="2.16" transform="translate(-20.28 81.55) rotate(-72.36)"/>
        <polygon class="cls-3" points="47.56 52.09 46.95 54.01 49.01 54.67 49.62 52.75 50.23 50.82 48.17 50.17 47.56 52.09"/>
        <polygon class="cls-3" points="56.34 31.61 55.73 33.53 55.12 35.45 54.51 37.37 53.9 39.29 53.28 41.22 52.67 43.14 52.06 45.06 51.45 46.98 50.84 48.9 50.23 50.82 52.29 51.48 52.9 49.56 53.51 47.64 54.12 45.71 54.73 43.79 55.34 41.87 55.95 39.95 56.56 38.03 57.18 36.11 57.79 34.18 58.4 32.26 56.34 31.61"/>
        <polygon class="cls-3" points="55.5 27.11 54.89 29.03 56.95 29.69 57.56 27.77 58.17 25.84 56.12 25.19 55.5 27.11"/>
        <rect class="cls-3" x="55" y="20.9" width="2.02" height="2.16" transform="translate(18.08 68.69) rotate(-72.36)"/>
        <rect class="cls-3" x="34.93" y="48.37" width="2.02" height="2.16" transform="translate(-22.08 68.71) rotate(-72.36)"/>
        <polygon class="cls-3" points="46.05 28.34 45.44 30.26 47.5 30.91 47.5 30.91 46.88 32.83 46.27 34.75 45.66 36.68 45.05 38.6 44.44 40.52 43.83 42.44 43.83 42.44 41.77 41.79 41.16 43.71 40.55 45.63 38.49 44.97 37.88 46.9 37.27 48.82 39.33 49.47 39.94 47.55 42 48.2 42.61 46.28 43.22 44.36 45.28 45.02 45.89 43.1 46.5 41.17 47.11 39.25 47.72 37.33 48.33 35.41 48.94 33.49 49.56 31.57 50.17 29.65 48.11 28.99 48.11 28.99 48.72 27.07 49.33 25.15 47.27 24.49 46.66 26.41 46.05 28.34"/>
        <rect class="cls-3" x="45.54" y="22.12" width="2.02" height="2.16" transform="translate(10.33 60.53) rotate(-72.36)"/>
        <rect class="cls-3" x="44.09" y="19.55" width="2.02" height="2.16" transform="translate(11.77 57.36) rotate(-72.36)"/>
        <rect class="cls-3" x="53.55" y="18.32" width="2.02" height="2.16" transform="translate(19.53 65.51) rotate(-72.36)"/>
        <rect class="cls-3" x="52.1" y="15.75" width="2.02" height="2.16" transform="translate(20.98 62.34) rotate(-72.36)"/>
        <rect class="cls-3" x="50.65" y="13.17" width="2.02" height="2.16" transform="translate(22.42 59.17) rotate(-72.36)"/>
        <rect class="cls-3" x="49.21" y="10.6" width="2.02" height="2.16" transform="translate(23.87 55.99) rotate(-72.36)"/>
        <polygon class="cls-3" points="45.38 9.08 47.43 9.73 49.49 10.39 50.1 8.47 48.04 7.81 45.99 7.16 45.38 9.08"/>
        <polygon class="cls-3" points="10.96 53.15 8.91 52.49 8.3 54.41 10.35 55.07 12.41 55.72 13.02 53.8 10.96 53.15"/>
        <rect class="cls-3" x="7.18" y="50.13" width="2.02" height="2.16" transform="translate(-43.09 43.49) rotate(-72.36)"/>
        <polygon class="cls-3" points="6.01 47.34 6.63 45.42 4.57 44.77 3.96 46.69 3.35 48.61 5.4 49.26 7.46 49.92 8.07 48 6.01 47.34"/>
        <rect class="cls-3" x="2.84" y="42.4" width="2.02" height="2.16" transform="translate(-38.75 33.96) rotate(-72.36)"/>
        <polygon class="cls-3" points="16.91 48.69 18.97 49.35 21.03 50 23.09 50.66 25.15 51.31 27.21 51.96 29.26 52.62 31.32 53.27 31.93 51.35 33.99 52.01 34.6 50.08 32.54 49.43 30.48 48.78 29.87 50.7 27.82 50.04 25.76 49.39 23.7 48.73 21.64 48.08 19.59 47.42 17.53 46.77 18.14 44.85 16.08 44.19 14.02 43.54 13.41 45.46 15.47 46.12 14.86 48.04 16.91 48.69"/>
        <rect class="cls-3" x="12.29" y="41.17" width="2.02" height="2.16" transform="translate(-31 42.12) rotate(-72.36)"/>
        <polygon class="cls-3" points="4.34 38.35 2.29 37.69 1.67 39.61 1.06 41.53 3.12 42.19 3.73 40.27 4.34 38.35"/>
        <polygon class="cls-3" points="3.51 33.85 1.45 33.19 .84 35.11 .22 37.04 2.29 37.69 2.9 35.77 3.51 33.85"/>
        <polygon class="cls-3" points="2.67 29.35 3.28 27.43 3.89 25.51 4.5 23.59 5.11 21.67 5.72 19.74 6.34 17.82 6.95 15.9 4.89 15.25 4.28 17.17 3.67 19.09 3.06 21.01 2.44 22.93 1.83 24.85 1.22 26.78 .61 28.7 0 30.62 2.06 31.27 2.67 29.35"/>
        <polygon class="cls-3" points="13.8 37.12 11.74 36.47 12.35 34.55 12.96 32.62 10.9 31.97 11.51 30.05 12.13 28.13 12.74 26.2 13.35 24.28 13.96 22.36 14.57 20.44 16.63 21.09 17.24 19.17 17.85 17.25 19.91 17.91 20.52 15.98 21.13 14.06 19.07 13.41 18.46 15.33 16.4 14.68 15.79 16.6 15.18 18.52 13.12 17.86 12.51 19.79 11.9 21.71 11.29 23.63 10.68 25.55 10.07 27.47 9.46 29.39 8.85 31.31 8.23 33.24 10.29 33.89 9.68 35.81 9.07 37.73 11.13 38.39 10.52 40.31 12.57 40.96 13.19 39.04 13.8 37.12"/>
        <polygon class="cls-3" points="10.23 12.71 10.84 10.79 8.78 10.14 8.17 12.06 7.56 13.98 9.62 14.63 10.23 12.71"/>
        <rect class="cls-3" x="21.45" y="12.35" width="2.02" height="2.16" transform="translate(2.86 30.77) rotate(-72.36)"/>
        <polygon class="cls-3" points="13.51 9.52 14.12 7.6 12.06 6.95 11.45 8.87 10.84 10.79 12.9 11.45 13.51 9.52"/>
        <polygon class="cls-3" points="27.91 14.1 28.52 12.18 30.58 12.84 32.64 13.49 34.7 14.15 36.76 14.8 38.82 15.46 40.87 16.11 40.26 18.03 42.32 18.69 44.38 19.34 44.99 17.42 42.93 16.76 43.54 14.84 41.48 14.19 39.43 13.54 37.37 12.88 35.31 12.23 33.25 11.57 31.2 10.92 29.14 10.26 27.08 9.61 26.47 11.53 24.41 10.87 23.8 12.8 25.86 13.45 27.91 14.1"/>
        <rect class="cls-3" x="14.45" y="5.89" width="2.02" height="2.16" transform="translate(4.13 19.58) rotate(-72.36)"/>
        <rect class="cls-3" x="17.11" y="4.62" width="2.02" height="2.16" transform="translate(7.2 21.24) rotate(-72.36)"/>
        <rect class="cls-3" x="19.78" y="3.35" width="2.02" height="2.16" transform="translate(10.26 22.9) rotate(-72.36)"/>
        <rect class="cls-3" x="22.45" y="2.09" width="2.02" height="2.16" transform="translate(13.33 24.57) rotate(-72.36)"/>
        <polygon class="cls-3" points="28.91 3.84 29.52 1.92 27.46 1.27 25.41 .61 24.8 2.53 26.85 3.19 28.91 3.84"/>
        <polygon class="cls-3" points="33.64 3.23 35.7 3.89 37.76 4.54 39.81 5.19 41.87 5.85 43.93 6.5 45.99 7.16 46.6 5.24 44.54 4.58 42.48 3.93 40.42 3.27 38.37 2.62 36.31 1.96 34.25 1.31 32.19 .65 30.13 0 29.52 1.92 31.58 2.58 33.64 3.23"/>
      </g>
      <g>
        <polygon class="cls-2" points="62.29 27.15 60.23 26.5 59.62 28.42 57.56 27.77 56.95 29.69 56.34 31.61 58.4 32.26 59.01 30.34 61.07 31 63.12 31.65 63.74 29.73 64.35 27.81 62.29 27.15"/>
        <polygon class="cls-2" points="62.06 20.73 60.01 20.08 57.95 19.43 55.89 18.77 55.28 20.69 57.34 21.35 56.73 23.27 58.78 23.92 59.4 22 61.45 22.66 63.51 23.31 64.12 21.39 62.06 20.73"/>
        <polygon class="cls-2" points="26.37 47.47 24.31 46.81 22.25 46.16 20.2 45.5 20.81 43.58 18.75 42.93 16.69 42.27 17.3 40.35 15.24 39.7 15.85 37.78 13.8 37.12 13.19 39.04 12.57 40.96 14.63 41.62 14.02 43.54 16.08 44.19 18.14 44.85 17.53 46.77 19.59 47.42 21.64 48.08 23.7 48.73 25.76 49.39 27.82 50.04 29.87 50.7 30.48 48.78 28.43 48.12 26.37 47.47"/>
        <polygon class="cls-2" points="31.1 46.85 30.48 48.78 32.54 49.43 34.6 50.08 35.21 48.16 33.15 47.51 31.1 46.85"/>
        <rect class="cls-2" x="35.54" y="46.45" width="2.02" height="2.16" transform="translate(-19.82 67.95) rotate(-72.36)"/>
        <polygon class="cls-2" points="15.02 33.28 12.96 32.62 12.35 34.55 11.74 36.47 13.8 37.12 14.41 35.2 15.02 33.28"/>
        <polygon class="cls-2" points="14.18 28.78 14.79 26.86 15.4 24.94 13.35 24.28 12.74 26.2 12.13 28.13 11.51 30.05 10.9 31.97 12.96 32.62 13.57 30.7 14.18 28.78"/>
        <rect class="cls-2" x="14.28" y="20.65" width="2.02" height="2.16" transform="translate(-10.05 29.72) rotate(-72.36)"/>
      </g>
    </g>
  </g>
</svg>