<?xml version="1.0" encoding="UTF-8"?>
<svg id="Capa_2" data-name="Capa 2" xmlns="http://www.w3.org/2000/svg" viewBox="0 0 85.92 83.69">
  <defs>
    <style>
      .cls-1 {
        fill: #f6ebc6;
      }

      .cls-1, .cls-2, .cls-3, .cls-4, .cls-5 {
        stroke-width: 0px;
      }

      .cls-2 {
        fill: #fff;
      }

      .cls-3 {
        fill: #231f20;
      }

      .cls-4 {
        fill: #fcca24;
      }

      .cls-5 {
        fill: #f2a12c;
      }
    </style>
  </defs>
  <g id="Capa_1-2" data-name="Capa 1">
    <g>
      <rect class="cls-5" x="57.28" y="76.65" width="2.58" height="2.76" transform="translate(-33.54 110.2) rotate(-72.36)"/>
      <rect class="cls-5" x="62.26" y="70.12" width="2.58" height="2.76" transform="translate(-23.85 110.38) rotate(-72.36)"/>
      <rect class="cls-1" x="17.47" y="28.84" width="2.58" height="2.76" transform="translate(-15.72 38.94) rotate(-72.36)"/>
      <polygon class="cls-5" points="83.29 41.28 80.66 40.44 78.03 39.61 75.4 38.77 74.62 41.23 73.84 43.68 73.06 46.13 72.28 48.59 71.5 51.05 70.72 53.5 69.93 55.96 69.15 58.41 68.37 60.87 67.59 63.32 66.81 65.78 64.18 64.94 63.4 67.4 62.62 69.85 65.25 70.69 64.47 73.14 61.84 72.31 62.62 69.85 59.99 69.02 59.21 71.47 56.58 70.63 55.8 73.09 53.17 72.25 52.39 74.71 51.61 77.16 48.98 76.33 46.35 75.49 45.57 77.95 42.94 77.11 42.16 79.56 39.53 78.73 36.9 77.89 36.12 80.35 38.75 81.18 41.37 82.02 44.01 82.86 46.63 83.69 47.41 81.24 50.05 82.07 52.68 82.91 53.46 80.46 56.09 81.29 56.87 78.84 57.65 76.38 60.28 77.22 59.5 79.67 62.13 80.51 62.91 78.05 63.69 75.6 66.32 76.43 67.1 73.98 69.73 74.81 70.51 72.36 71.29 69.91 73.92 70.74 74.7 68.29 75.48 65.83 78.11 66.67 78.89 64.21 79.67 61.76 80.45 59.3 81.23 56.84 82.01 54.39 82.79 51.94 83.58 49.48 84.36 47.02 85.14 44.57 85.92 42.11 83.29 41.28"/>
      <polygon class="cls-3" points="42.18 79.5 42.16 79.56 36.9 77.89 36.12 80.35 46.63 83.69 47.41 81.24 52.68 82.91 52.7 82.85 42.18 79.5"/>
      <rect class="cls-2" x="72.12" y="30" width="2.58" height="2.76" transform="translate(21.26 91.82) rotate(-72.36)"/>
      <g>
        <path class="cls-4" d="M70.14,37.1l.78-2.45.78-2.45.78-2.46-2.63-.84.78-2.45-2.63-.84.78-2.45-2.63-.84.78-2.46-2.63-.84.78-2.45-2.63-.84.78-2.46-2.63-.84-2.63-.84.78-2.45-2.63-.84-2.63-.84-2.63-.84-2.63-.84-2.63-.84-2.63-.84-2.63-.84-2.63-.84-.78,2.45-2.63-.84-2.63-.84-.78,2.46-2.63-.84-.78,2.45-2.63-.84-.78,2.46-2.63-.84-.78,2.45-2.63-.84-.78,2.45-.78,2.46-2.63-.84-.78,2.45-.78,2.45-2.63-.84-.78,2.46-.78,2.45-.78,2.45-.78,2.46-.78,2.45-.78,2.45-.78,2.46-.78,2.45-.78,2.46-.78,2.45,2.63.84-.78,2.45-.78,2.46,2.63.84-.78,2.45-.78,2.45,2.63.84-.78,2.46,2.63.84-.78,2.45,2.63.84-.78,2.46,2.63.84-.78,2.45,2.63.84,2.63.84-.78,2.45,2.63.84,2.63.84,2.63.84,2.63.84,2.63.84,2.63.84,2.63.84,2.63.84.78-2.45,2.63.84,2.63.84.78-2.45,2.63.84.78-2.46,2.63.84.78-2.45,2.63.84.78-2.46,2.63.84.78-2.45,2.63.84.78-2.45.78-2.46,2.63.84.78-2.45.78-2.45.78-2.46.78-2.45.78-2.46.78-2.45.78-2.45.78-2.46.78-2.45.78-2.45.78-2.46-2.63-.84ZM19.4,23.66l.78-2.46.78-2.45,2.63.84.78-2.45,2.63.84.78-2.46,2.63.84.78-2.45,2.63.84.78-2.45,2.63.84,2.63.84,2.63.84,2.63.84,2.63.84,2.63.84,2.63.84,2.63.84-.78,2.45,2.63.84-.78,2.45,2.63.84-.78,2.46,2.63.84-.78,2.45,2.63.84-.78,2.45-.78,2.46,2.63.84-.78,2.45-.78,2.45-.78,2.46-.78,2.45-.78,2.45-.78,2.46-.78,2.45-.78,2.46-2.63-.84-.78,2.45-.78,2.45-2.63-.84-.78,2.46-2.63-.84-.78,2.45-2.63-.84-.78,2.45-2.63-.84-.78,2.46-2.63-.84-2.63-.84-2.63-.84-2.63-.84-2.63-.84-2.63-.84-2.63-.84-2.63-.84.78-2.46-2.63-.84.78-2.45-2.63-.84.78-2.45-2.63-.84.78-2.46-2.63-.84.78-2.45.78-2.45-2.63-.84.78-2.46.78-2.45.78-2.46.78-2.45.78-2.45.78-2.46.78-2.45.78-2.45,2.63.84Z"/>
        <polygon class="cls-4" points="25.44 22.88 22.81 22.04 22.03 24.5 21.25 26.95 20.46 29.41 19.68 31.87 18.9 34.32 18.12 36.77 17.34 39.23 16.56 41.69 19.19 42.52 18.41 44.98 17.63 47.43 20.26 48.27 19.48 50.72 22.11 51.56 21.32 54.02 23.95 54.85 26.59 55.69 25.81 58.14 28.44 58.98 31.07 59.82 33.69 60.65 36.32 61.49 38.95 62.32 39.73 59.87 42.36 60.71 44.99 61.54 45.77 59.09 48.4 59.92 49.18 57.47 51.82 58.3 52.6 55.85 53.38 53.39 56 54.23 56.78 51.77 57.57 49.32 58.35 46.86 59.13 44.41 59.91 41.95 60.69 39.5 58.06 38.66 58.84 36.21 59.62 33.75 60.41 31.3 57.77 30.46 58.55 28.01 55.92 27.17 56.71 24.71 54.08 23.88 51.45 23.04 52.23 20.59 49.6 19.75 46.97 18.91 44.34 18.08 41.71 17.24 39.08 16.4 36.45 15.57 35.67 18.02 33.04 17.19 30.41 16.35 29.63 18.81 27 17.97 26.22 20.42 25.44 22.88"/>
      </g>
      <g>
        <polygon class="cls-5" points="83 33.08 83.78 30.62 84.56 28.17 81.93 27.33 81.15 29.78 78.52 28.95 75.89 28.11 75.11 30.57 74.33 33.02 73.55 35.48 76.18 36.31 76.96 33.86 79.59 34.7 82.22 35.53 81.44 37.99 80.66 40.44 83.29 41.28 84.07 38.82 84.85 36.37 85.63 33.91 83 33.08"/>
        <polygon class="cls-5" points="80.09 24.04 80.87 21.58 78.24 20.75 75.61 19.91 76.39 17.45 73.76 16.62 74.54 14.16 71.91 13.33 69.28 12.49 70.06 10.04 67.43 9.2 64.8 8.36 62.17 7.53 59.54 6.69 58.76 9.15 61.39 9.98 64.02 10.82 63.24 13.27 65.87 14.11 65.09 16.57 67.72 17.4 66.94 19.86 69.57 20.69 68.79 23.15 71.42 23.99 74.05 24.82 76.67 25.66 79.3 26.49 81.93 27.33 82.71 24.87 80.09 24.04"/>
      </g>
      <polygon class="cls-5" points="83 33.08 83.78 30.62 84.56 28.17 81.93 27.33 81.15 29.78 78.52 28.95 75.89 28.11 75.11 30.57 74.33 33.02 73.55 35.48 76.18 36.31 76.96 33.86 79.59 34.7 82.22 35.53 81.44 37.99 80.66 40.44 83.29 41.28 84.07 38.82 84.85 36.37 85.63 33.91 83 33.08"/>
      <g>
        <polygon class="cls-3" points="78.52 28.95 78.52 28.95 78.52 28.95 75.89 28.11 75.89 28.11 78.52 28.95"/>
        <polygon class="cls-3" points="83 33.08 83.78 30.62 84.56 28.17 81.93 27.33 81.93 27.33 81.93 27.33 81.15 29.78 80.37 32.24 83 33.08 82.22 35.53 82.22 35.53 81.44 37.99 80.66 40.44 83.29 41.28 84.07 38.82 84.85 36.37 85.63 33.91 83 33.08"/>
      </g>
      <g>
        <rect class="cls-3" x="73.4" y="16.89" width="2.58" height="2.76" transform="translate(34.64 83.9) rotate(-72.36)"/>
        <polygon class="cls-3" points="74.83 22.37 77.46 23.2 80.09 24.04 80.87 21.58 78.24 20.75 75.61 19.91 74.83 22.37"/>
        <polygon class="cls-3" points="71.13 15.78 73.76 16.62 74.54 14.16 71.91 13.33 69.28 12.49 68.5 14.95 71.13 15.78"/>
        <rect class="cls-3" x="79.72" y="24.3" width="2.58" height="2.76" transform="translate(31.98 95.1) rotate(-72.36)"/>
        <polygon class="cls-3" points="61.39 9.98 61.39 9.98 64.02 10.82 64.02 10.82 66.65 11.65 69.28 12.49 70.06 10.04 67.43 9.2 64.8 8.36 62.17 7.53 59.54 6.69 58.76 9.15 58.76 9.15 61.39 9.98"/>
        <rect class="cls-3" x="63.24" y="13.27" height="0"/>
      </g>
      <g>
        <polygon class="cls-3" points="48.98 76.33 48.98 76.33 46.35 75.49 46.35 75.49 46.35 75.49 48.98 76.33"/>
        <polygon class="cls-3" points="36.9 77.89 39.53 78.73 39.53 78.73 39.53 78.73 36.9 77.89 36.9 77.89"/>
        <polygon class="cls-3" points="62.62 69.85 59.99 69.02 59.21 71.47 59.21 71.47 59.21 71.47 61.84 72.31 62.62 69.85"/>
        <polygon class="cls-3" points="78.03 39.61 78.03 39.61 78.03 39.61 75.4 38.77 75.4 38.77 75.4 38.77 78.03 39.61"/>
        <polygon class="cls-3" points="83.29 41.28 80.66 40.44 80.66 40.44 80.66 40.44 83.29 41.28 82.51 43.73 81.73 46.19 80.95 48.64 80.17 51.1 79.39 53.56 78.61 56.01 77.83 58.47 77.05 60.92 76.26 63.38 75.48 65.83 78.11 66.67 78.89 64.21 79.67 61.76 80.45 59.3 81.23 56.84 82.01 54.39 82.79 51.94 83.58 49.48 84.36 47.02 85.14 44.57 85.92 42.11 83.29 41.28"/>
        <polygon class="cls-3" points="61.06 74.76 60.28 77.22 60.28 77.22 59.5 79.67 62.13 80.51 62.91 78.05 63.69 75.6 61.06 74.76"/>
        <rect class="cls-3" x="64.1" y="73.41" width="2.58" height="2.76" transform="translate(-25.7 114.44) rotate(-72.36)"/>
        <polygon class="cls-3" points="72.85 64.99 72.07 67.45 71.29 69.91 68.66 69.07 67.88 71.52 67.1 73.98 69.73 74.81 70.51 72.36 71.29 69.91 73.92 70.74 74.7 68.29 75.48 65.83 72.85 64.99"/>
        <polygon class="cls-3" points="47.41 81.24 44.79 80.4 44.01 82.86 46.63 83.69 47.41 81.24 47.41 81.24"/>
        <polygon class="cls-3" points="56.87 78.84 57.65 76.38 55.02 75.54 54.24 78 53.46 80.46 56.09 81.29 56.87 78.84 56.87 78.84"/>
        <rect class="cls-3" x="50.46" y="79.89" width="2.58" height="2.76" transform="translate(-41.37 105.95) rotate(-72.36)"/>
      </g>
      <g>
        <polygon class="cls-3" points="37.68 75.44 36.9 77.89 34.27 77.06 31.64 76.22 29.01 75.38 26.38 74.55 23.75 73.71 21.12 72.87 18.49 72.04 15.86 71.2 15.08 73.66 17.71 74.49 20.34 75.33 22.97 76.17 25.6 77 28.23 77.84 30.86 78.68 33.49 79.51 36.12 80.35 36.9 77.89 39.53 78.73 42.16 79.56 42.94 77.11 40.31 76.27 37.68 75.44"/>
        <rect class="cls-3" x="43.36" y="74.92" width="2.58" height="2.76" transform="translate(-41.6 95.72) rotate(-72.36)"/>
        <polygon class="cls-3" points="49.76 73.87 47.13 73.04 46.35 75.49 48.98 76.33 51.61 77.16 52.39 74.71 53.17 72.25 50.54 71.42 49.76 73.87"/>
        <rect class="cls-3" x="53.59" y="70.06" width="2.58" height="2.76" transform="translate(-29.84 102.09) rotate(-72.36)"/>
        <rect class="cls-3" x="57" y="68.44" width="2.58" height="2.76" transform="translate(-25.92 104.21) rotate(-72.36)"/>
        <polygon class="cls-3" points="60.77 66.56 59.99 69.02 62.62 69.85 63.4 67.4 64.18 64.94 61.55 64.1 60.77 66.56"/>
        <polygon class="cls-3" points="71.99 40.39 71.21 42.84 70.43 45.3 69.65 47.75 68.87 50.21 68.09 52.66 67.3 55.12 66.52 57.57 65.74 60.03 64.96 62.49 64.18 64.94 66.81 65.78 67.59 63.32 68.37 60.87 69.15 58.41 69.93 55.96 70.72 53.5 71.5 51.05 72.28 48.59 73.06 46.13 73.84 43.68 74.62 41.23 71.99 40.39"/>
        <polygon class="cls-3" points="70.92 34.64 70.14 37.1 72.77 37.93 73.55 35.48 74.33 33.02 71.7 32.19 70.92 34.64"/>
        <rect class="cls-3" x="70.27" y="26.71" width="2.58" height="2.76" transform="translate(23.11 87.77) rotate(-72.36)"/>
        <rect class="cls-3" x="44.63" y="61.81" width="2.58" height="2.76" transform="translate(-28.22 87.79) rotate(-72.36)"/>
        <polygon class="cls-3" points="58.84 36.21 58.06 38.66 60.69 39.5 60.69 39.5 59.91 41.95 59.13 44.41 58.35 46.86 57.57 49.32 56.78 51.77 56 54.23 56 54.23 53.38 53.39 52.6 55.85 51.82 58.3 49.18 57.47 48.4 59.92 47.62 62.38 50.25 63.22 51.04 60.76 53.66 61.59 54.44 59.14 55.22 56.69 57.86 57.52 58.64 55.07 59.42 52.61 60.2 50.16 60.98 47.7 61.76 45.25 62.54 42.79 63.32 40.34 64.1 37.88 61.47 37.04 61.47 37.04 62.25 34.59 63.03 32.13 60.41 31.3 59.62 33.75 58.84 36.21"/>
        <rect class="cls-3" x="58.19" y="28.27" width="2.58" height="2.76" transform="translate(13.2 77.35) rotate(-72.36)"/>
        <rect class="cls-3" x="56.34" y="24.98" width="2.58" height="2.76" transform="translate(15.04 73.29) rotate(-72.36)"/>
        <rect class="cls-3" x="68.42" y="23.42" width="2.58" height="2.76" transform="translate(24.96 83.71) rotate(-72.36)"/>
        <rect class="cls-3" x="66.57" y="20.12" width="2.58" height="2.76" transform="translate(26.8 79.66) rotate(-72.36)"/>
        <rect class="cls-3" x="64.72" y="16.83" width="2.58" height="2.76" transform="translate(28.65 75.6) rotate(-72.36)"/>
        <rect class="cls-3" x="62.88" y="13.54" width="2.58" height="2.76" transform="translate(30.5 71.54) rotate(-72.36)"/>
        <polygon class="cls-3" points="57.98 11.6 60.61 12.44 63.24 13.27 64.02 10.82 61.39 9.98 58.76 9.15 57.98 11.6"/>
        <polygon class="cls-3" points="14.01 67.91 11.38 67.07 10.6 69.53 13.23 70.37 15.86 71.2 16.64 68.75 14.01 67.91"/>
        <rect class="cls-3" x="9.17" y="64.05" width="2.58" height="2.76" transform="translate(-55.06 55.56) rotate(-72.36)"/>
        <polygon class="cls-3" points="7.68 60.49 8.47 58.04 5.84 57.2 5.06 59.65 4.27 62.11 6.9 62.95 9.53 63.78 10.31 61.33 7.68 60.49"/>
        <rect class="cls-3" x="3.62" y="54.17" width="2.58" height="2.76" transform="translate(-49.52 43.4) rotate(-72.36)"/>
        <polygon class="cls-3" points="21.61 62.22 24.24 63.05 26.87 63.89 29.5 64.73 32.13 65.56 34.76 66.4 37.39 67.24 40.02 68.07 40.8 65.62 43.43 66.45 44.21 64 41.58 63.16 38.95 62.32 38.17 64.78 35.54 63.94 32.91 63.11 30.28 62.27 27.65 61.43 25.03 60.6 22.39 59.76 23.17 57.31 20.54 56.47 17.91 55.63 17.13 58.09 19.76 58.92 18.98 61.38 21.61 62.22"/>
        <rect class="cls-3" x="15.7" y="52.61" width="2.58" height="2.76" transform="translate(-39.61 53.82) rotate(-72.36)"/>
        <polygon class="cls-3" points="5.55 49 2.92 48.16 2.14 50.62 1.36 53.07 3.99 53.91 4.77 51.45 5.55 49"/>
        <polygon class="cls-3" points="4.48 43.25 1.85 42.41 1.07 44.87 .29 47.33 2.92 48.16 3.7 45.71 4.48 43.25"/>
        <polygon class="cls-3" points="3.41 37.5 4.19 35.05 4.97 32.59 5.75 30.14 6.53 27.68 7.31 25.23 8.1 22.77 8.88 20.32 6.25 19.48 5.47 21.94 4.69 24.39 3.9 26.85 3.12 29.3 2.34 31.76 1.56 34.21 .78 36.67 0 39.12 2.63 39.96 3.41 37.5"/>
        <polygon class="cls-3" points="17.63 47.43 15 46.6 15.78 44.14 16.56 41.69 13.93 40.85 14.71 38.39 15.49 35.94 16.27 33.48 17.05 31.03 17.84 28.57 18.62 26.12 21.25 26.95 22.03 24.5 22.81 22.04 25.44 22.88 26.22 20.42 27 17.97 24.37 17.13 23.59 19.59 20.96 18.75 20.18 21.21 19.4 23.66 16.77 22.83 15.99 25.28 15.21 27.74 14.43 30.19 13.64 32.65 12.86 35.1 12.08 37.56 11.3 40.01 10.52 42.47 13.15 43.31 12.37 45.76 11.59 48.21 14.22 49.05 13.44 51.51 16.07 52.34 16.85 49.89 17.63 47.43"/>
        <polygon class="cls-3" points="13.07 16.24 13.85 13.79 11.22 12.95 10.44 15.41 9.66 17.86 12.29 18.7 13.07 16.24"/>
        <rect class="cls-3" x="27.41" y="15.78" width="2.58" height="2.76" transform="translate(3.65 39.31) rotate(-72.36)"/>
        <polygon class="cls-3" points="17.26 12.17 18.04 9.71 15.41 8.88 14.63 11.33 13.85 13.79 16.48 14.63 17.26 12.17"/>
        <polygon class="cls-3" points="35.67 18.02 36.45 15.57 39.08 16.4 41.71 17.24 44.34 18.08 46.97 18.91 49.6 19.75 52.23 20.59 51.45 23.04 54.08 23.88 56.71 24.71 57.49 22.26 54.86 21.42 55.64 18.97 53.01 18.13 50.38 17.29 47.75 16.46 45.12 15.62 42.49 14.79 39.86 13.95 37.23 13.11 34.6 12.28 33.82 14.73 31.19 13.9 30.41 16.35 33.04 17.19 35.67 18.02"/>
        <rect class="cls-3" x="18.46" y="7.53" width="2.58" height="2.76" transform="translate(5.28 25.02) rotate(-72.36)"/>
        <rect class="cls-3" x="21.87" y="5.91" width="2.58" height="2.76" transform="translate(9.2 27.15) rotate(-72.36)"/>
        <rect class="cls-3" x="25.28" y="4.29" width="2.58" height="2.76" transform="translate(13.12 29.27) rotate(-72.36)"/>
        <rect class="cls-3" x="28.69" y="2.67" width="2.58" height="2.76" transform="translate(17.03 31.39) rotate(-72.36)"/>
        <polygon class="cls-3" points="36.94 4.91 37.72 2.45 35.09 1.62 32.46 .78 31.68 3.24 34.31 4.07 36.94 4.91"/>
        <polygon class="cls-3" points="42.98 4.13 45.61 4.96 48.24 5.8 50.87 6.64 53.5 7.47 56.13 8.31 58.76 9.15 59.54 6.69 56.91 5.85 54.28 5.02 51.65 4.18 49.02 3.35 46.39 2.51 43.77 1.67 41.13 .84 38.5 0 37.72 2.45 40.35 3.29 42.98 4.13"/>
      </g>
      <g>
        <polygon class="cls-2" points="79.59 34.7 76.96 33.86 76.18 36.31 73.55 35.48 72.77 37.93 71.99 40.39 74.62 41.23 75.4 38.77 78.03 39.61 80.66 40.44 81.44 37.99 82.22 35.53 79.59 34.7"/>
        <polygon class="cls-2" points="79.3 26.49 76.67 25.66 74.05 24.82 71.42 23.99 70.64 26.44 73.26 27.28 72.48 29.73 75.11 30.57 75.89 28.11 78.52 28.95 81.15 29.78 81.93 27.33 79.3 26.49"/>
        <polygon class="cls-2" points="33.69 60.65 31.07 59.82 28.44 58.98 25.81 58.14 26.59 55.69 23.95 54.85 21.32 54.02 22.11 51.56 19.48 50.72 20.26 48.27 17.63 47.43 16.85 49.89 16.07 52.34 18.7 53.18 17.91 55.63 20.54 56.47 23.17 57.31 22.39 59.76 25.03 60.6 27.65 61.43 30.28 62.27 32.91 63.11 35.54 63.94 38.17 64.78 38.95 62.32 36.32 61.49 33.69 60.65"/>
        <polygon class="cls-2" points="39.73 59.87 38.95 62.32 41.58 63.16 44.21 64 44.99 61.54 42.36 60.71 39.73 59.87"/>
        <rect class="cls-2" x="45.41" y="59.35" width="2.58" height="2.76" transform="translate(-25.33 86.83) rotate(-72.36)"/>
        <polygon class="cls-2" points="19.19 42.52 16.56 41.69 15.78 44.14 15 46.6 17.63 47.43 18.41 44.98 19.19 42.52"/>
        <polygon class="cls-2" points="18.12 36.77 18.9 34.32 19.68 31.87 17.05 31.03 16.27 33.48 15.49 35.94 14.71 38.39 13.93 40.85 16.56 41.69 17.34 39.23 18.12 36.77"/>
        <rect class="cls-2" x="18.25" y="26.38" width="2.58" height="2.76" transform="translate(-12.84 37.97) rotate(-72.36)"/>
      </g>
    </g>
  </g>
</svg>