<?xml version="1.0" encoding="UTF-8"?><svg id="Capa_2" xmlns="http://www.w3.org/2000/svg" viewBox="0 0 92.0160023141 45.9063315092"><defs><style>.cls-1{fill:#fff;}.cls-1,.cls-2,.cls-3,.cls-4{stroke-linejoin:round;}.cls-1,.cls-2,.cls-3,.cls-4,.cls-5{stroke:#373151;stroke-linecap:round;}.cls-2{fill:#706f6f;}.cls-2,.cls-3,.cls-4,.cls-5{stroke-width:2px;}.cls-3{fill:#9d9d9c;}.cls-4{fill:#e8505b;}.cls-5{fill:none;stroke-miterlimit:10;}.cls-6{fill:#373151;stroke-width:0px;}</style></defs><g id="Capa_1-2"><g id="_6KPDU3"><path class="cls-1" d="m42.4219431376,29.66937276c-6.8284435963,1.4979030275-10.8595991597,5.6729039584-12.2250714039,12.4148215544-1.1196465753-.5694698994-2.1638859762-1.1536653544-3.2511371559-1.6421725111-2.0606936175-.9258768889-4.2255001185-1.4120705355-6.495403251-1.2352475615-1.5070383524.1173923107-2.9495691522.5489036788-4.2969191947,1.2233083319-1.0300218432.5155663764-2.00479449,1.1414859243-3.0039559888,1.7186371832-.1036779103.0598908368-.206101479.121953592-.3966703647.2349110427-1.4000121593-6.797694683-5.4248783121-11.0272843406-12.2527857786-12.5361177555.347821851-.6540811615.6526116918-1.2206155578.9513877738-1.7903029019.9881164645-1.8840670676,1.7553271841-3.8480222967,2.0500683829-5.966520006.2134618848-1.5342832912.0181373752-3.0508018582-.3064260485-4.5546580657-.3546031354-1.6430384972-.9239250261-3.2130219053-1.5982373338-4.7481901457-.0592145345-.1348081119-.1067088144-.2747615717-.1908205127-.4933301301C7.379097755,10.4786180567,11.2477477976,6.4601020696,13.445872748.6370835377c5.5071009113,3.2567633665,10.9203715056,2.3368914903,16.3718287097-.1370835377.6675474612,2.85779016,2.0901782324,5.2970513154,4.1270418879,7.3878033372,2.0325038068,2.0862811318,4.5580447967,3.3728222483,7.2502968922,4.4332354433-.9785331427,2.8757247627-1.2204440519,5.8280937158-1.1615860944,8.8115243876.0593030465,3.0058540216.7399401695,5.8559519182,2.3884889941,8.5368095919Zm-4.7012724018-14.3251589726c-1.0625234532.4584555444-2.0594418048.8802754541-3.0452986841,1.3265047925-.1016623654.0460160968-.1683801894.2303965373-.1991621374.3627027713-.5691878583,2.4466887241-.5874213323,4.9061042825-.152169847,7.3741974005.0446302842.2530727297.1384327831.4389778114.4214790165.5348380426.4665088692.1579963107.9132213953.3740174796,1.3697359941.5620413826.638399192.262928536,1.2781488244.5226004587,1.9702065255.8052684198-.9412974047-3.6494523271-.8294131667-7.2636735603-.3647908677-10.9655528093Zm-24.1020604786,21.3668771472c.435582773-1.0776027021.8284117165-2.086288085,1.2540862023-3.0809204738.1343005367-.3138156463.1188640422-.5395055178-.0888888179-.8196197682-1.4814406792-1.9974518224-3.2609392288-3.6975480546-5.191965281-5.2476605594-.1015510931-.0815189965-.2983638689-.1473642776-.4042141168-.104752707-1.1274811526.4538550725-2.245524396.9311334875-3.4172489089,1.4234358123,3.5599252107,1.6831760025,6.1740540776,4.2535439696,7.8482309223,7.8295176962ZM26.7274234993,4.55643306c-3.4282471583.7815489354-6.7995785656,1.2869333386-10.2503103033.2589712326.351491306.8710106675.660570186,1.676164676,1.0071756291,2.46483208.0751289938.1709481751.2654247568.367948624.4361720101.4071619895.7995112809.1836155915,1.6053574928.3620649757,2.4188941338.4575585851,1.6731526344.1963948908,3.3218531938.0250383748,4.9299191541-.4863826464.1042266848-.0331464063.2336615899-.1142595903.2724273212-.2062974729.3966956538-.9418432697.7770393461-1.8905695483,1.185722055-2.8958437679ZM5.3519400736,15.323761346c1.1296484324,3.6682511776,1.2664702969,7.2660174115-.2026191636,10.8811640488.1489555966-.0271477146.2016379448-.0276432862.246799301-.0463207722.861666943-.3564272169,1.719042318-.7235623197,2.5855293722-1.067794936.2539207244-.1008766293.3604209034-.2594165517.3856139502-.5177585221.0547687027-.561646948.110465517-1.1237894677.1893499489-1.6823997756.278205891-1.9701410243.1226650008-3.933714461-.0641636203-5.8983119104-.0239387052-.2517174932-.1412120602-.3803448667-.3686247022-.4754604764-.8981895271-.3756647494-1.7892702754-.7683281097-2.7718850862-1.1931176562Zm1.2021549418-2.3765185696c.9615742417.420072767,1.8380757975.8131014849,2.7255781317,1.1794831167.129083386.0532891154.3437654721.0314915512.4632339249-.0437809678,2.0707258215-1.3047350409,3.7676983022-2.9834521634,5.0636152802-5.0677585942.2125249219-.3418211295.3087096584-.6302836119.1065836331-1.0109723446-.1918485165-.3613292037-.324024765-.7546676538-.4775450524-1.1359025266-.1527767865-.3793960747-.2994588889-.7612453551-.4722267451-1.2017073529-1.8616604547,3.0774849744-4.2016499253,5.5670596034-7.4092391725,7.2806386695Zm22.7763857629,23.4196661105c1.7174263416-3.4564170829,4.2719739814-5.9427047575,7.6517823103-7.6335798185-.8132685761-.3386877771-1.5915116856-.6153077422-2.3236880873-.9834997273-.5358213595-.2694544046-.9013456125-.2144206749-1.367965754.1780315618-1.817313409,1.5284464187-3.5691279308,3.1157950596-5.0109885682,5.0148177695-.092173878.1213973382-.1706815016.341284471-.1239117557.4660117468.359631882.959057429.7518260679,1.9059101435,1.1747718549,2.9582184676Zm-2.3643934961,1.2194221405c-.3967108273-.9769662734-.750789213-1.8655134745-1.1238395156-2.7460278648-.0450146792-.1062545923-.1835486189-.225520467-.2941077057-.2433180606-1.1789926133-.1897584035-2.3565791501-.4528740431-3.5435656624-.5105980185-1.2473871076-.0606620069-2.5045687014.1168613411-3.7575143632.1176249259-.6092686252.0003716787-.8991176387.219454772-1.0883360841.7854506135-.2838681307.8491062773-.655772835,1.6687892561-1.0167526285,2.566952063,3.6243745983-1.4526366091,7.1788626426-1.2978185304,10.8241159595.0299163415Zm2.1032830676-31.7503735503c-.213885478.535676216-.3891038523.997378892-.5814530939,1.4518313053-.5261811372,1.2431577436-.5143407592,1.2316325439.2528509936,2.3237199689,1.1731887544,1.6700231282,2.5444724442,3.143908633,4.175789245,4.3760917418.29682376.2241980999.5439745801.3367699656.9241109014.1480912002.6991487776-.3470075643,1.4295245922-.6311445411,2.147018116-.941168812.1136949409-.0491285897.2281080935-.0966174949.4108272284-.1738925277-3.1432486029-1.7408544662-5.5151226283-4.1344430747-7.3291433905-7.1846728765Zm-4.5465432932,25.7062485519c-.6680380707-1.6276896845-1.3547951669-3.3116823688-2.0576209863-4.9889418534-.0459731378-.1097134796-.2119635029-.2326556863-.3274109816-.2381297295-.3804853115-.0180504363-.7639673867.0065410392-1.1451810256.0316811832-.2398169679.0158178357-.3689838081.1550785066-.459885642.3916229128-.2798269252.7281817548-.5983032516,1.4414103957-.8925197007,2.1642091307-.3443117176.8458698914-.6788947009,1.6956992986-.9933449953,2.4828464862,1.9625540301.0523409555,3.9067557272.1041939247,5.8759633314.1567118701Zm2.3522344749-1.247464918c1.3850460429-1.3388928178,2.7715740297-2.6792192533,4.1695832887-4.0306429524-1.5500071398-.6479092725-3.1163662411-1.2765519357-4.6569607609-1.9630095976-.4450383846-.198299428-.6370032312.0909601408-.8355963628.3007866649-.2668485357.2819473596-.6591590516.5275485892-.5880662055,1.0174185678.0018461076.0127179849.014533672.023473911.0197027734.0361463842.6355086427,1.5584209141,1.2707820962,3.1169353799,1.8913372671,4.6393009331Zm-15.6012836162-6.6050235322c.0591943031-.0190264089.1645412971-.0446671813.263376336-.0859083448,1.3018548695-.5432400037,2.5900308401-1.1227376423,3.9100812498-1.6172371697.5479652073-.2052702997.6827639401-.5694800131.7085841578-1.0539555939.0382902954-.718416972-.20894145-1.1110626333-.863710306-1.3902805565-1.0335395634-.4407413888-2.0695043558-.8758026677-3.1049684232-1.3120219659-.2984903146-.1257474958-.5987786876-.2472244794-.9133630145-.3768923004v5.8362959312Zm4.9693525188,6.5330291181c.5279513774-1.2909538526,1.0531083042-2.6708451049,1.6602425255-4.0136873248.2517079242-.5567291587.1888340503-.9475404466-.2484962027-1.32238725-.187008174-.1602870651-.3566831676-.3509860432-.5669522978-.4701659514-.1288810728-.073048768-.3393550451-.0906213317-.4794265648-.0399036259-.5529547557.2002134468-1.0937226721.4344898545-1.6368500658.6612972905-.9277752986.3874333102-1.8539245051.7787553403-2.7368596195,1.1499864939,1.3494465126,1.3583768718,2.6849941108,2.7027589033,4.0083422251,4.0348603677Zm15.2176725664-12.2388203191c-1.3193397847.5634712077-2.702302002,1.1512494429-4.0805402069,1.7498935907-.0821694919.0356900033-.1790319775.1578812673-.1799019241.2407567646-.0054573976.5181655988-.01225512,1.0394348409.0423390876,1.5532022419.0162356315.152833264.2018427868.3358913374.3561318643.4161916324.3629801649.188918966.7538744887.3242251779,1.1334746801.4812202318.9061303188.3747532517,1.8122555798.7495014465,2.7284964991,1.128434187v-5.5696986484Zm-15.1552463104-6.5171468074c-1.059271269,1.6180538514-2.370020331,2.8810104382-3.8870049044,3.9782476357,1.2442310223.5235157491,2.4341055549,1.0145930513,3.6158951477,1.524398408.960706824.4144343761,1.1123835327.3849428102,1.7583821129-.4501446067.0840864092-.108702109.1843401692-.2114131117.2396222415-.3338218204.0441295591-.0977186247.0738822389-.2381196159.0371826308-.3307194412-.5699212435-1.4379464515-1.1517309143-2.8711837089-1.7640772285-4.3879601754Zm10.4419109861.1074543306c-.4662306886,1.1439030999-.8994489266,2.3773934051-1.4701743649,3.5436174536-.3464966998.7080403099-.1462066665,1.1510952089.3578793442,1.5968732232.0206207693.0182375398.0387733181.0392361213.0589110647.0580526708q.5788483119.5409290219,1.3045304611.2166128206c.1246856036-.0556544584.2510200594-.107646491.3769094263-.160582891,1.0455342051-.4396642792,2.0911392199-.8791528327,3.0464215221-1.2807301604-1.2262099771-1.3261128864-2.4529763154-2.6528224814-3.6744774536-3.9738431169Zm-2.4886213661-.9335114725c-1.8317838581.3135261415-3.602390744.2974997106-5.4172207588.010240127.5587029785,1.3912350375,1.0888519827,2.7266752889,1.6399252259,4.0534303956.0423062117.1018563945.2293978399.1953133564.3540834435.2020414991.467224552.0252122041.9384422602.0372525708,1.4038131179-.0000328695.1452633813-.0116383468.3392058391-.1656877839.4035009629-.304321405.2418122815-.5213994561.4377677552-1.0639668984.6538053395-1.5974282128.3117747028-.7698641287.6260833781-1.5387029805.9620926692-2.3639295344Z"/></g><path class="cls-3" d="m66.8738513149,19.5469293269s-1.429553429-3.5834354122-.800741025-5.2078674558c.628812404-1.6244320436,2.1484423802-3.0392599525,4.9256971644-2.6724527169s4.3525321175,1.7292341109,4.3509099947,3.3012651208c-.0011907843,1.1540124443-1.1821757615,4.4856254823-1.1821757615,4.4856254823l-7.2936903727.0934295696Z"/><path class="cls-6" d="m66.5217360624,14.39429782c.1416426389.3395031313.415045872.6596813754.9493350819.6596813754,1.0021954271,0,1.4151544958-.5092655418,1.6114320681-.9824948314.1570711974-.3787019081.1767201163-1.2378571929.0059292267-1.7398986476-1.107886997.4594052721-1.9509351994,1.1957273932-2.5666963767,2.0627121036Z"/><path class="cls-6" d="m74.6357735524,14.3942978202c-.1416426389.3395031313-.415045872.6596813754-.9493350819.6596813754-1.0021954271,0-1.4151544958-.5092655419-1.6114320681-.9824948315-.1570711974-.3787019081-.1767201163-1.2378571929-.0059292267-1.7398986476,1.107886997.4594052721,1.9509351994,1.1957273932,2.5666963767,2.0627121037Z"/><path class="cls-5" d="m76.0817077198,21.5704045167s5.497326983-6.8550335193,5.497326983-8.4103659031-3.637090288-8.4103659031-3.637090288-8.4103659031"/><path class="cls-5" d="m77.8458758531,23.5965778184s6.8160401767-5.0202514171,7.3749845358-6.2080081802c.5589443591-1.1877567631,2.2668056584-13.5995825449,2.2668056584-13.5995825449"/><path class="cls-5" d="m78.8303712113,23.876049998s5.0590905244-.2682724393,7.7140762301,2.130975369c2.6549857057,2.3992478083,4.4715548727,12.8906542814,4.4715548727,12.8906542814"/><path class="cls-5" d="m79.5576429528,26.2515635241s4.4366208502,2.8995238628,5.1353012991,4.9606311869c.6986804488,2.0611073241,1.6069650324,13.6941367976,1.6069650324,13.6941367976"/><path class="cls-5" d="m65.2285367589,21.570404517s-5.4973269834-6.8550335191-5.4973269834-8.4103659028c0-1.5553323838,3.6370902876-8.4103659033,3.6370902876-8.4103659033"/><path class="cls-5" d="m63.4643686256,23.5965778187s-6.816040177-5.0202514168-7.3749845361-6.2080081798-2.266805659-13.5995825448-2.266805659-13.5995825448"/><path class="cls-5" d="m62.4798732674,23.8760499983s-5.0590905245-.2682724391-7.71407623,2.1309753694-4.4715548721,12.8906542816-4.4715548721,12.8906542816"/><path class="cls-5" d="m61.752601526,26.2515635245s-4.4366208501,2.899523863-5.1353012989,4.9606311871c-.6986804488,2.0611073242-1.6069650317,13.6941367976-1.6069650317,13.6941367976"/><circle class="cls-2" cx="70.6551222393" cy="29.7981146302" r="10.9239124636"/><path class="cls-4" d="m70.6551113963,35.8582273217c-2.0897328135,0-3.783861475,1.6941286615-3.783861475,3.783861475,0,.1405551391.0090775194.2789141042.0240115029.4155161301,1.1723177074.4297180556,2.4386316641.6644158557,3.7598499721.6644158557s2.5876786763-.2346978,3.7599963837-.6644158557c.0149339835-.1366020259.0238650913-.2749609909.0238650913-.4155161301,0-2.0897328135-1.6941286615-3.783861475-3.783861475-3.783861475Z"/></g></svg>