<?xml version="1.0" encoding="UTF-8"?><svg id="Capa_2" xmlns="http://www.w3.org/2000/svg" viewBox="0 0 149.4231020904 49.3028537946"><defs><style>.cls-1{fill:#ff4c2f;}.cls-1,.cls-2{stroke-width:2.0259659858px;}.cls-1,.cls-2,.cls-3,.cls-4,.cls-5,.cls-6{stroke:#373151;}.cls-1,.cls-2,.cls-4{stroke-miterlimit:10;}.cls-2{fill:#ff4c7f;}.cls-3{stroke-width:2.4066626813px;}.cls-3,.cls-5{fill:#fff;}.cls-3,.cls-5,.cls-6{stroke-linecap:round;stroke-linejoin:round;}.cls-4{fill:#706f6f;}.cls-4,.cls-5,.cls-6{stroke-width:2.1179997494px;}.cls-6{fill:none;}</style></defs><g id="Capa_1-2"><path class="cls-2" d="m96.7961840582,7.947903111c-3.545163256-3.18556674-8.7909020182-3.33391107-12.7257768947-.3741613441-1.3722889257,1.0322941434-2.4938143364,2.355170339-3.2009584069,3.6875126988-.2838375853.5347055951-.5433512697,1.0755142917-.7983151593,1.6169457545l4.4409446952,7.9636662266-5.8774637437,4.8976679667,5.6127944372,2.6632621172-4.8960326011,6.0435685968.0000033217-4.9032333477-6.3076238536-3.2594690883,4.754224675-5.4417985491-.8824833848-2.7899857471c-1.3829611705-2.3254035213-2.6749263525-4.7757335917-4.4565196264-7.0303911903-2.390390347-3.0250176277-6.4642062647-4.0569399815-11.1139224657-3.3067593304-4.1656879365.6719615824-7.8320078905,3.55021203-7.8310174206,9.2610202711.0004527662,2.6105397464,3.5058664924,10.7030246899,10.6443767937,18.4980912845,4.8101158165,5.252520699,11.6430376073,12.1542084114,15.043539688,11.994202409,5.3336624449-.2509682352,18.2070343992-13.0090491515,21.4384446861-21.4948385923,2.4441193261-6.4182112121,2.2278332294-12.5691327676-3.8442147404-18.0253001359Z"/><polygon class="cls-1" points="147.9905003621 11.8154457518 141.6267308309 5.4521645018 129.2551487996 17.823746533 116.8835667684 5.4521645018 110.5197972371 11.8154457518 122.8913792684 24.187027783 110.5197972371 36.5586098143 116.8835667684 42.9218910643 129.2551487996 30.550309033 141.6267308309 42.9218910643 147.9905003621 36.5586098143 135.6189183309 24.187027783 147.9905003621 11.8154457518"/><rect class="cls-5" x="6.506127315" y="42.032202152" width="33.0679108825" height="6.211651768"/><path class="cls-5" d="m29.734573002,42.032202152c0-3.6972648704-2.9972253753-6.6944902457-6.6944902457-6.6944902457s-6.6944902457,2.9972253753-6.6944902457,6.6944902457h13.3889804915Z"/><path class="cls-4" d="m1.058999896,26.1471582174c0,4.4401156848,3.5994249442,8.039540629,8.039540629,8.039540629s8.039540629-3.5994249442,8.039540629-8.039540629H1.058999896Z"/><polyline class="cls-6" points="1.058999896 26.1471582174 9.0985405251 9.2696390797 17.1380811541 26.1471582174"/><path class="cls-4" d="m29.7478088318,26.1471582174c0,4.4401156848,3.5994249442,8.039540629,8.039540629,8.039540629s8.039540629-3.5994249442,8.039540629-8.039540629h-16.0790812581Z"/><polyline class="cls-6" points="29.7478088318 26.1471582174 37.7873494608 9.2696390797 45.8268900898 26.1471582174"/><path class="cls-6" d="m9.0985405251,9.2696390797s7.5550202712-4.1053196025,13.9415422312-4.4572041399c6.38652196-.3518845373,14.7472667045,4.4572041399,14.7472667045,4.4572041399"/><rect class="cls-3" x="20.8905526334" y="7.0318320025" width="4.2990602457" height="28.6493056538"/><circle class="cls-5" cx="23.0400827563" cy="4.8124349398" r="3.7534350652"/></g></svg>