<?xml version="1.0" encoding="UTF-8"?>
<svg id="Capa_2" data-name="Capa 2" xmlns="http://www.w3.org/2000/svg" viewBox="0 0 111.4 99.87">
  <defs>
    <style>
      .cls-1 {
        fill: #1f2626;
      }

      .cls-1, .cls-2, .cls-3, .cls-4, .cls-5, .cls-6, .cls-7, .cls-8, .cls-9, .cls-10, .cls-11, .cls-12, .cls-13 {
        stroke-width: 0px;
      }

      .cls-2 {
        fill: #c4e0ec;
      }

      .cls-3 {
        fill: #242526;
      }

      .cls-4 {
        fill: #242525;
      }

      .cls-5 {
        fill: #ffccf5;
      }

      .cls-6 {
        fill: #c2e0eb;
      }

      .cls-7 {
        fill: #d11d56;
      }

      .cls-8 {
        fill: #262526;
      }

      .cls-9 {
        fill: #231f20;
      }

      .cls-10 {
        fill: #252526;
      }

      .cls-11 {
        fill: #181f1f;
      }

      .cls-12 {
        fill: #283030;
      }

      .cls-13 {
        fill: #ff4c7f;
      }
    </style>
  </defs>
  <g id="Capa_1-2" data-name="Capa 1">
    <g>
      <rect class="cls-12" x="75.32" y="92.55" width="2.33" height="4.68" transform="translate(-27.71 31.66) rotate(-19.88)"/>
      <rect class="cls-11" x="62.75" y="92.12" width="2.34" height="4.68" transform="translate(-28.31 27.36) rotate(-19.88)"/>
      <rect class="cls-8" x="75.17" y="57.8" width="2.34" height="4.68" transform="translate(-15.9 29.54) rotate(-19.88)"/>
      <rect class="cls-10" x="51.01" y="66.53" width="2.34" height="4.68" transform="translate(-20.31 21.85) rotate(-19.88)"/>
      <rect class="cls-7" x="14.89" y="69.65" width="2.34" height="4.68" transform="translate(-23.52 9.75) rotate(-19.88)"/>
      <rect class="cls-7" x="71.61" y="34.22" width="2.34" height="4.68" transform="translate(-8.09 26.93) rotate(-19.88)"/>
      <rect class="cls-6" x="61.24" y="33" width="2.34" height="4.68" transform="translate(-8.3 23.33) rotate(-19.88)"/>
      <rect class="cls-7" x="37.08" y="41.73" width="2.34" height="4.68" transform="translate(-12.71 15.63) rotate(-19.88)"/>
      <rect class="cls-7" x="37.69" y="36.54" width="2.33" height="4.68" transform="translate(-10.91 15.53) rotate(-19.88)"/>
      <rect class="cls-1" x="9.74" y="41.67" width="2.33" height="4.68" transform="translate(-14.32 6.33) rotate(-19.88)"/>
      <rect class="cls-7" x="71.84" y="14.25" width="2.34" height="4.68" transform="translate(-1.29 25.81) rotate(-19.88)"/>
      <rect class="cls-2" x="49.88" y="22.19" width="2.33" height="4.68" transform="translate(-5.3 18.82) rotate(-19.88)"/>
      <rect class="cls-4" x="38.9" y="26.16" width="2.34" height="4.68" transform="translate(-7.3 15.32) rotate(-19.88)"/>
      <rect class="cls-3" x="41.7" y="20.17" width="2.33" height="4.68" transform="translate(-5.1 15.92) rotate(-19.88)"/>
      <g>
        <polygon class="cls-13" points="61.04 83.07 58.84 83.87 57.25 79.47 55.05 80.26 53.46 75.86 51.87 71.47 49.68 72.26 48.09 67.86 45.9 68.66 44.31 64.26 42.72 59.86 40.52 60.66 38.93 56.26 36.73 57.05 34.53 57.85 32.34 58.64 30.14 59.43 27.95 60.23 25.75 61.02 23.55 61.82 21.36 62.61 19.16 63.4 16.97 64.2 14.77 64.99 12.57 65.79 10.38 66.58 8.18 67.37 9.77 71.77 11.97 70.98 14.16 70.19 16.36 69.39 17.95 73.79 20.15 72.99 22.34 72.2 23.93 76.6 26.13 75.8 28.32 75.01 29.91 79.41 32.11 78.61 34.31 77.82 35.9 82.22 38.09 81.42 40.29 80.63 41.88 85.02 44.07 84.23 46.27 83.44 48.47 82.64 50.06 87.04 52.26 86.25 54.46 85.45 56.05 89.85 58.23 89.06 60.43 88.26 62.02 92.66 64.22 91.86 66.42 91.07 64.83 86.67 62.63 87.47 61.04 83.07"/>
        <polygon class="cls-13" points="74.22 78.31 72.63 73.91 71.04 69.51 73.23 68.71 71.64 64.32 73.84 63.52 72.25 59.13 74.45 58.33 72.86 53.93 75.05 53.14 73.46 48.74 71.87 44.34 69.68 45.14 67.48 45.93 65.28 46.73 63.08 47.52 60.89 48.31 58.7 49.11 56.5 49.9 54.3 50.7 52.1 51.49 49.91 52.28 47.71 53.08 45.51 53.87 43.32 54.67 44.91 59.07 46.5 63.46 48.69 62.67 50.28 67.07 52.48 66.27 54.07 70.67 55.66 75.07 57.86 74.27 59.45 78.67 61.65 77.88 63.24 82.28 64.83 86.67 67.02 85.88 68.61 90.28 70.81 89.48 73.01 88.69 71.42 84.29 73.61 83.5 72.02 79.1 74.22 78.31"/>
        <rect class="cls-13" x="89.94" y="57.43" width="2.34" height="4.68" transform="translate(-14.89 34.54) rotate(-19.88)"/>
        <rect class="cls-13" x="92.74" y="51.44" width="2.33" height="4.68" transform="translate(-12.69 35.14) rotate(-19.88)"/>
        <rect class="cls-13" x="95.55" y="45.46" width="2.33" height="4.68" transform="translate(-10.49 35.73) rotate(-19.88)"/>
        <rect class="cls-13" x="98.35" y="39.47" width="2.33" height="4.68" transform="translate(-8.29 36.33) rotate(-19.88)"/>
        <rect class="cls-13" x="103.35" y="32.69" width="2.33" height="4.68" transform="translate(-5.68 37.63) rotate(-19.88)"/>
        <polygon class="cls-13" points="89.44 37.99 87.25 38.78 85.05 39.58 82.85 40.37 80.65 41.17 78.46 41.96 76.27 42.75 77.86 47.15 75.66 47.95 77.25 52.35 75.05 53.14 76.64 57.54 78.23 61.93 76.04 62.73 77.63 67.13 75.43 67.92 77.02 72.32 74.82 73.11 76.41 77.51 74.22 78.31 75.81 82.7 73.61 83.5 75.2 87.89 77.4 87.1 79.59 86.31 78 81.91 80.2 81.11 82.4 80.32 80.81 75.92 83.01 75.13 85.2 74.33 83.61 69.94 85.81 69.14 88 68.35 86.41 63.95 84.82 59.55 87.02 58.76 89.21 57.96 87.62 53.57 89.82 52.77 88.23 48.37 90.43 47.58 92.62 46.79 91.03 42.39 93.23 41.6 95.42 40.8 93.83 36.4 91.64 37.2 89.44 37.99"/>
        <polygon class="cls-13" points="53.54 21.14 55.74 20.34 57.33 24.74 59.53 23.94 61.12 28.34 63.31 27.55 64.9 31.95 67.1 31.15 68.69 35.55 70.89 34.75 73.09 33.96 71.5 29.56 69.91 25.17 72.1 24.37 70.51 19.97 68.92 15.58 67.33 11.18 69.52 10.38 67.93 5.99 65.74 6.78 63.55 7.57 61.35 8.37 59.15 9.16 56.95 9.96 54.76 10.75 52.56 11.55 50.36 12.34 48.17 13.13 49.76 17.53 51.95 16.74 53.54 21.14"/>
        <polygon class="cls-13" points="24.99 31.46 26.58 35.86 28.78 35.06 30.37 39.46 32.57 38.67 34.16 43.06 35.75 47.46 37.94 46.67 36.35 42.27 38.55 41.47 36.96 37.08 39.15 36.29 37.56 31.89 39.76 31.09 38.17 26.7 40.37 25.9 38.78 21.5 40.97 20.71 39.38 16.31 37.19 17.1 34.99 17.9 32.79 18.69 30.6 19.49 28.4 20.28 26.21 21.08 24.01 21.87 21.81 22.66 19.62 23.46 21.21 27.86 23.4 27.06 24.99 31.46"/>
      </g>
      <g>
        <rect class="cls-7" x="87.74" y="58.22" width="2.34" height="4.68" transform="translate(-15.29 33.84) rotate(-19.88)"/>
        <polygon class="cls-7" points="98.23 34.81 96.03 35.61 93.83 36.4 95.42 40.8 97.62 40.01 99.82 39.21 102.02 38.42 104.21 37.62 102.62 33.22 100.42 34.02 98.23 34.81"/>
        <rect class="cls-7" x="36.47" y="46.93" width="2.34" height="4.68" transform="translate(-14.51 15.74) rotate(-19.88)"/>
        <polygon class="cls-7" points="84.67 24.8 83.08 20.4 80.89 21.2 79.3 16.8 77.71 12.4 75.51 13.19 73.92 8.79 72.33 4.4 70.13 5.19 71.72 9.59 73.31 13.99 74.9 18.39 72.7 19.18 74.29 23.58 75.88 27.98 73.69 28.77 75.28 33.17 76.87 37.57 79.06 36.77 81.26 35.98 83.46 35.18 85.66 34.39 87.85 33.59 90.05 32.8 88.46 28.4 86.26 29.2 84.67 24.8"/>
        <polygon class="cls-7" points="64.9 31.95 62.71 32.74 64.3 37.14 65.89 41.53 68.08 40.74 70.28 39.95 68.69 35.55 66.49 36.34 64.9 31.95"/>
        <polygon class="cls-7" points="29.76 44.65 28.17 40.26 25.98 41.05 24.39 36.65 22.8 32.25 20.6 33.05 19.01 28.65 17.42 24.25 15.23 25.05 16.82 29.44 14.62 30.24 16.21 34.64 14.01 35.43 11.81 36.23 13.4 40.62 11.21 41.42 12.8 45.81 10.61 46.61 8.41 47.4 10 51.8 7.8 52.59 9.39 56.99 7.2 57.79 5 58.58 6.59 62.98 8.79 62.18 10.98 61.39 13.18 60.59 15.38 59.8 17.57 59.01 19.76 58.21 21.96 57.42 24.16 56.62 26.36 55.83 28.55 55.04 30.75 54.24 32.94 53.45 35.14 52.65 33.55 48.26 31.35 49.05 29.76 44.65"/>
        <polygon class="cls-7" points="58.92 29.14 56.72 29.93 58.31 34.33 60.51 33.53 62.71 32.74 61.12 28.34 58.92 29.14"/>
        <rect class="cls-7" x="31.1" y="38.92" width="2.33" height="4.68" transform="translate(-12.11 13.43) rotate(-19.88)"/>
        <rect class="cls-7" x="53.67" y="25.79" width="2.33" height="4.68" transform="translate(-6.3 20.32) rotate(-19.88)"/>
        <polygon class="cls-7" points="43.17 19.91 44.76 24.31 42.56 25.11 44.15 29.5 41.96 30.3 43.55 34.7 41.35 35.49 42.94 39.89 40.74 40.68 42.33 45.08 40.14 45.87 41.73 50.27 43.92 49.48 46.12 48.68 48.32 47.89 50.51 47.09 52.71 46.3 54.91 45.51 53.32 41.11 51.73 36.71 50.14 32.31 48.55 27.92 46.96 23.52 49.16 22.72 47.56 18.32 45.37 19.12 43.17 19.91"/>
      </g>
      <g>
        <polygon class="cls-9" points="38.09 81.42 35.9 82.22 34.31 77.82 32.11 78.61 29.91 79.41 31.5 83.8 33.7 83.01 35.9 82.22 37.49 86.61 39.68 85.82 39.68 85.82 41.88 85.02 40.29 80.63 38.09 81.42 38.09 81.42"/>
        <polygon class="cls-9" points="47.56 18.32 49.16 22.72 51.35 21.93 52.94 26.33 55.13 25.53 56.72 29.93 58.92 29.14 61.12 28.34 59.53 23.94 57.33 24.74 55.74 20.34 53.54 21.14 51.95 16.74 49.76 17.53 49.76 17.53 47.56 18.32"/>
        <polygon class="cls-9" points="83.99 84.72 82.4 80.32 80.2 81.11 78 81.91 79.59 86.31 81.79 85.51 83.99 84.72"/>
        <polygon class="cls-9" points="73.01 88.69 70.81 89.48 68.61 90.28 67.02 85.88 64.83 86.67 66.42 91.07 64.22 91.86 65.81 96.26 68.01 95.47 69.6 99.87 71.79 99.07 73.99 98.28 76.19 97.48 74.6 93.09 76.79 92.29 78.99 91.5 81.18 90.7 79.59 86.31 77.4 87.1 75.2 87.89 73.61 83.5 71.42 84.29 73.01 88.69"/>
        <polygon class="cls-9" points="56.05 89.85 57.64 94.25 59.82 93.45 62.02 92.66 60.43 88.26 58.23 89.06 56.05 89.85"/>
        <polygon class="cls-9" points="86.79 78.73 85.2 74.33 83.01 75.13 80.81 75.92 82.4 80.32 84.6 79.53 86.79 78.73"/>
        <rect class="cls-9" x="72.75" y="78.56" width="2.33" height="4.68" transform="translate(-23.11 29.96) rotate(-19.88)"/>
        <polygon class="cls-9" points="52.26 86.25 50.06 87.04 51.65 91.44 53.85 90.64 56.05 89.85 54.46 85.45 52.26 86.25"/>
        <polygon class="cls-9" points="89.59 72.75 88 68.35 90.2 67.55 90.2 67.55 92.39 66.76 90.8 62.36 88.61 63.16 88.61 63.16 86.41 63.95 88 68.35 85.81 69.14 83.61 69.94 85.2 74.33 87.4 73.54 89.59 72.75"/>
        <polygon class="cls-9" points="61.65 77.88 59.45 78.67 57.86 74.27 55.66 75.07 55.66 75.07 54.07 70.67 51.87 71.47 53.46 75.86 55.05 80.26 57.25 79.47 58.84 83.87 61.04 83.07 62.63 87.47 64.83 86.67 63.24 82.28 61.65 77.88"/>
        <polygon class="cls-9" points="46.27 83.44 44.07 84.23 45.67 88.63 47.86 87.84 50.06 87.04 48.47 82.64 46.27 83.44"/>
        <polygon class="cls-9" points="91.41 57.17 93 61.57 95.2 60.77 95.2 60.77 97.39 59.98 95.8 55.58 93.61 56.38 91.41 57.17"/>
        <polygon class="cls-9" points="94.21 51.18 95.8 55.58 98 54.79 100.19 53.99 98.6 49.6 96.41 50.39 94.21 51.18"/>
        <polygon class="cls-9" points="73.84 63.52 71.64 64.32 73.23 68.71 71.04 69.51 72.63 73.91 74.22 78.31 76.41 77.51 74.82 73.11 77.02 72.32 75.43 67.92 77.63 67.13 76.04 62.73 74.45 58.33 72.25 59.13 73.84 63.52"/>
        <polygon class="cls-9" points="26.13 75.8 23.93 76.6 25.52 80.99 27.72 80.2 29.91 79.41 28.32 75.01 26.13 75.8"/>
        <polygon class="cls-9" points="97.01 45.2 98.6 49.6 100.8 48.8 103 48.01 101.41 43.61 99.21 44.4 97.01 45.2"/>
        <rect class="cls-9" x="73.58" y="53.4" width="2.34" height="4.68" transform="translate(-14.5 28.74) rotate(-19.88)"/>
        <polygon class="cls-9" points="48.69 62.67 46.5 63.46 46.5 63.46 44.31 64.26 45.9 68.66 48.09 67.86 49.68 72.26 51.87 71.47 50.28 67.07 48.69 62.67"/>
        <polygon class="cls-9" points="20.15 72.99 17.95 73.79 19.54 78.19 21.74 77.39 23.93 76.6 22.34 72.2 20.15 72.99"/>
        <polygon class="cls-9" points="99.82 39.21 101.41 43.61 103.61 42.82 105.8 42.02 104.21 37.62 102.02 38.42 99.82 39.21"/>
        <path class="cls-9" d="M107.62,26.44l-2.2.8-1.59-4.4-2.2.79-1.59-4.4-2.19.79-2.2.8,1.59,4.4,2.2-.8,1.59,4.4-2.2.8-2.2.8-2.19.79-2.2.8-2.19.79-2.2.79-2.19.79-2.19.79-2.2.79-2.2.8-2.19.79-1.59-4.4-1.59-4.4,2.19-.79-1.59-4.4-1.59-4.4-1.59-4.4,2.2-.8-1.59-4.4-1.59-4.4,2.2-.79-1.59-4.4-2.2.79-2.2.8-2.19.79-2.19.79-2.2.79-2.19.79-2.2.8-2.19.79-2.2.8-2.2.79-2.19.79-2.19.79-2.2.8-2.2.79-2.19.79-2.19.79-2.2.79-2.2.8-2.19.79-2.2.8-2.2.79-2.19.79-2.2.79-2.19.79-2.2.8-2.19.79,1.59,4.4,2.19-.79,1.59,4.4,1.59,4.4,2.2-.8,1.59,4.4,1.59,4.4,2.19-.79,1.59,4.4,1.59,4.4,2.2-.79,1.59,4.4-2.2.79-2.19.79-2.2.8-2.19.79-2.19.79-2.2.8-2.2.8-2.19.79-2.19.79-2.2.8-2.2.79-2.19.79-2.19.79-1.59-4.4-2.2.79,1.59,4.4-2.2.8-2.19.79,1.59,4.4,2.19-.79h0l1.59,4.4,2.2-.8,2.2-.79,1.59,4.4,2.19-.79,2.19-.79-1.59-4.4-2.19.79-2.19.79-1.59-4.4,2.19-.79,2.19-.79,2.2-.79,2.2-.8,2.19-.79,2.19-.79,2.2-.8,2.2-.8,2.19-.79,2.19-.79,2.2-.8,2.19-.79,2.2-.79,2.19-.79,1.59,4.4,2.2-.79h0l1.59,4.4,2.2-.8-1.59-4.4h0l-1.59-4.4-2.2.8h0l2.2-.8,2.19-.79,2.2-.8,2.2-.79,2.19-.79,2.19-.79,2.2-.79,2.2-.8,2.19-.79,2.19-.79,2.2-.79,2.2-.8,2.19-.79,2.2-.8,2.19-.79h0l-2.19.79,1.59,4.4h0l1.59,4.4,2.19-.79-1.59-4.4h0l2.2-.79-1.59-4.4,2.19-.79,2.19-.79,2.2-.8,2.2-.79,2.19-.79,2.19-.79,2.2-.79,2.19-.79,2.2-.8,2.19-.79,2.2-.8,2.2-.8,2.19-.79,1.59,4.4,2.2-.79-1.59-4.4,2.2-.8,2.19-.79-1.59-4.4-2.19.79ZM69.91,25.17l1.59,4.4,1.59,4.4,1.59,4.4-2.2.79-1.59-4.4-2.19.79,1.59,4.4-2.2.8-2.19.79-2.2.8-2.2.79-2.19.79-2.19.79-2.2.8-2.2.79-2.19.79-2.19.79-2.2.79-2.2.8-2.19.79-1.59-4.4-2.2.8,1.59,4.4-2.2.79-1.59-4.4-1.59-4.4-2.19.79-1.59-4.4-1.59-4.4-2.2.79-1.59-4.4-1.59-4.4-2.19.79-1.59-4.4,2.19-.79,2.2-.79,2.19-.79,2.2-.79,2.2-.8,2.19-.79,2.2-.8,2.2-.79,2.19-.79,1.59,4.4,2.19-.79,2.2-.79,2.2-.8,2.19-.79-1.59-4.4,2.19-.79,2.2-.79,2.2-.8,2.19-.79,2.2-.8,2.19-.79,2.2-.79,2.19-.79,2.19-.79,1.59,4.4-2.19.79,1.59,4.4,1.59,4.4,1.59,4.4-2.19.79Z"/>
        <rect class="cls-9" x="65.63" y="31.41" width="2.34" height="4.68" transform="translate(-7.49 24.73) rotate(-19.88)"/>
        <rect class="cls-9" x="39.28" y="40.94" width="2.33" height="4.68" transform="translate(-12.31 16.33) rotate(-19.88)"/>
        <polygon class="cls-9" points="9.39 56.99 7.8 52.59 10 51.8 8.41 47.4 6.21 48.2 4.02 48.99 5.61 53.39 3.41 54.18 5 58.58 7.2 57.79 9.39 56.99"/>
        <rect class="cls-9" x="61.85" y="27.81" width="2.33" height="4.68" transform="translate(-6.5 23.22) rotate(-19.88)"/>
        <polygon class="cls-9" points="89.67 18.02 91.26 22.42 93.46 21.62 95.65 20.83 94.06 16.43 91.87 17.22 90.28 12.83 88.08 13.62 85.88 14.42 87.47 18.81 89.67 18.02"/>
        <polygon class="cls-9" points="37.56 31.89 39.15 36.29 40.74 40.68 42.94 39.89 41.35 35.49 43.55 34.7 41.96 30.3 39.76 31.09 37.56 31.89"/>
        <polygon class="cls-9" points="9.02 42.21 11.21 41.42 13.4 40.62 11.81 36.23 9.62 37.02 7.43 37.81 9.02 42.21 6.82 43.01 8.41 47.4 10.61 46.61 9.02 42.21"/>
        <polygon class="cls-9" points="40.37 25.9 41.96 30.3 44.15 29.5 42.56 25.11 40.97 20.71 38.78 21.5 40.37 25.9"/>
        <polygon class="cls-9" points="16.21 34.64 14.62 30.24 12.42 31.03 12.42 31.03 10.22 31.83 11.81 36.23 14.01 35.43 16.21 34.64"/>
        <polygon class="cls-9" points="76.12 8 77.71 12.4 79.9 11.61 81.49 16 83.69 15.21 85.88 14.42 84.29 10.02 82.1 10.81 80.51 6.41 78.31 7.21 78.31 7.21 76.72 2.81 74.53 3.6 72.33 4.4 73.92 8.79 76.12 8"/>
        <polygon class="cls-9" points="16.82 29.44 15.23 25.05 13.03 25.84 10.83 26.63 12.42 31.03 14.62 30.24 16.82 29.44"/>
      </g>
      <g>
        <rect class="cls-5" x="85.54" y="59.02" width="2.34" height="4.68" transform="translate(-15.7 33.14) rotate(-19.88)"/>
        <polygon class="cls-5" points="93.23 41.6 91.03 42.39 92.62 46.79 90.43 47.58 88.23 48.37 89.82 52.77 87.62 53.57 89.21 57.96 91.41 57.17 93.61 56.38 92.02 51.98 94.21 51.18 96.41 50.39 94.82 45.99 97.01 45.2 99.21 44.4 97.62 40.01 95.42 40.8 93.23 41.6"/>
        <polygon class="cls-5" points="60.51 33.53 58.31 34.33 56.72 29.93 54.53 30.73 52.94 26.33 50.75 27.12 49.16 22.72 46.96 23.52 48.55 27.92 50.14 32.31 51.73 36.71 53.32 41.11 54.91 45.51 57.11 44.71 59.3 43.92 61.49 43.12 63.69 42.33 65.89 41.53 64.3 37.14 62.1 37.93 60.51 33.53"/>
        <polygon class="cls-5" points="97.24 25.22 95.65 20.83 93.46 21.62 91.26 22.42 89.67 18.02 87.47 18.81 85.88 14.42 83.69 15.21 81.49 16 79.9 11.61 77.71 12.4 79.3 16.8 80.89 21.2 83.08 20.4 84.67 24.8 86.26 29.2 88.46 28.4 90.05 32.8 92.24 32 94.44 31.21 96.64 30.42 98.83 29.62 101.03 28.83 99.44 24.43 97.24 25.22"/>
        <rect class="cls-5" x="74.65" y="8.26" width="2.33" height="4.68" transform="translate(.91 26.41) rotate(-19.88)"/>
      </g>
    </g>
  </g>
</svg>