<?xml version="1.0" encoding="UTF-8"?>
<svg id="Capa_2" data-name="Capa 2" xmlns="http://www.w3.org/2000/svg" viewBox="0 0 205.53 70.5">
  <defs>
    <style>
      .cls-1 {
        fill: #390175;
      }

      .cls-1, .cls-2, .cls-3, .cls-4, .cls-5, .cls-6, .cls-7, .cls-8, .cls-9, .cls-10 {
        stroke-width: 0px;
      }

      .cls-11 {
        opacity: .6;
      }

      .cls-2 {
        fill: #ac8fda;
      }

      .cls-3 {
        fill: #b76e51;
      }

      .cls-12 {
        opacity: .15;
      }

      .cls-4 {
        fill: #fff;
      }

      .cls-13 {
        opacity: .3;
      }

      .cls-5 {
        fill: #533388;
      }

      .cls-6 {
        fill: #4ce550;
      }

      .cls-7 {
        fill: #ded2f0;
      }

      .cls-14 {
        opacity: .25;
      }

      .cls-8 {
        fill: #816ba4;
      }

      .cls-9 {
        fill: #000072;
      }

      .cls-10 {
        fill: #fa6c51;
      }
    </style>
  </defs>
  <g id="Capa_1-2" data-name="Capa 1">
    <g>
      <g>
        <path class="cls-3" d="M32.36,18.2s3.59-9.45,7.75-15.43c0,0-.49-2.12-2.09-2.02-.56.04-1.06.38-1.35.86-1.18,1.92-4.97,8.66-5.35,16.36l1.04.23Z"/>
        <g class="cls-11">
          <path class="cls-4" d="M37.88,5.71s-.49-2.12-2.09-2.02c-.11,0-.22.03-.33.06.49-.95.92-1.68,1.2-2.14.29-.48.79-.83,1.35-.86,1.6-.1,2.09,2.02,2.09,2.02-4.16,5.98-7.75,15.43-7.75,15.43l-.94-.21c1.41-3.29,3.82-8.48,6.46-12.28Z"/>
        </g>
        <path class="cls-1" d="M32.42,18.95c-.07,0-.15,0-.22-.02l-1.04-.23c-.36-.08-.6-.4-.58-.77.39-7.88,4.28-14.78,5.46-16.71.43-.7,1.14-1.15,1.9-1.21.01,0,.03,0,.04,0,1.76-.11,2.63,1.58,2.87,2.6.05.21,0,.42-.11.6-4.06,5.84-7.63,15.18-7.67,15.27-.1.28-.36.46-.64.48ZM38.05,1.5c-.29.02-.57.21-.75.5-1.07,1.74-4.42,7.69-5.14,14.64,1.12-2.75,3.91-9.28,7.12-14-.16-.43-.54-1.19-1.22-1.15,0,0,0,0-.01,0Z"/>
        <path class="cls-6" d="M36.85,12.51c-.09-.06-.19-.11-.29-.17,0,0,.21-.85.77-2,.26-.55.6-1.16,1.03-1.78,0,0,0,0,0,0,1.53-2.23,4.2-4.6,8.63-4.52,7.88.15,8.75,3.39,14.22,1.87h0c.29-.08.59-.17.9-.28,0,0-3.39,20.11-25.27,6.89Z"/>
        <g class="cls-12">
          <path class="cls-9" d="M36.85,12.51c.09-.8.26-1.54.48-2.17.28-.79.63-1.42,1.03-1.78,0,0,0,0,0,0,0,0,3.68,4.02,13.47,4.66,4.87.32,7.74-3.45,9.38-7.31h0c.29-.08.59-.17.9-.28,0,0-3.39,20.11-25.27,6.89Z"/>
        </g>
        <path class="cls-1" d="M36.11,11.85c.06-.05.09-.08.14-.12l.13-.1c.08-.07.17-.13.25-.2.17-.13.34-.25.52-.36.35-.23.71-.44,1.07-.63.73-.4,1.49-.71,2.26-.99.77-.28,1.56-.5,2.35-.69.79-.18,1.6-.3,2.4-.4.8-.1,1.61-.13,2.42-.16.4,0,.81,0,1.21.01l.6.02.6.05c1.6.13,3.19.4,4.73.8.09.02.14.11.12.2-.02.08-.1.13-.18.12-1.57-.19-3.14-.31-4.7-.33-1.56-.01-3.12.07-4.65.32-.76.12-1.52.28-2.27.48-.74.2-1.48.43-2.19.72-.71.28-1.4.61-2.07.98-.33.18-.65.38-.96.59-.16.1-.31.21-.45.32-.07.06-.15.11-.21.17l-.1.08-.08.07-.03.02c-.28.25-.7.22-.95-.06-.24-.28-.22-.69.05-.94Z"/>
        <g class="cls-11">
          <path class="cls-4" d="M44.98,6.37c1.7-.65,4.62-1.16,8.54.41.31.12.19.59-.14.55-2.17-.29-5.7-.65-8.27-.41-.34.03-.44-.43-.13-.55Z"/>
        </g>
        <path class="cls-1" d="M51.05,17.72c-4.19.34-9.17-1.25-14.88-4.75-.28-.17-.41-.5-.33-.82.02-.09.59-2.29,2.23-4.48,2.2-2.94,5.29-4.46,8.94-4.4,3.78.07,6.03.84,7.84,1.46,2.26.78,3.76,1.29,7.03.17.25-.09.53-.03.73.14.2.17.3.43.25.69-.06.33-1.42,8.05-7.81,10.96-1.24.56-2.57.9-3.99,1.02ZM37.46,12c6.97,4.17,12.67,5.29,16.96,3.34,4.24-1.92,6.03-6.45,6.66-8.63-2.94.74-4.64.16-6.72-.55-1.8-.62-3.84-1.32-7.38-1.38-3.17-.06-5.75,1.2-7.68,3.76-1.02,1.36-1.59,2.74-1.84,3.47Z"/>
        <path class="cls-10" d="M19.69,65.32c.82.21,1.69.23,2.54.06,13.03-2.59,32.26-11.6,31.42-30.47-.85-19.03-22.04-16.87-22.04-16.87,0,0-17.63-11.95-27.4,4.4-9.69,16.21,2.97,33.27,13.21,41.72.67.55,1.45.94,2.27,1.15Z"/>
        <g class="cls-14">
          <path class="cls-1" d="M20.71,63.73c-.86.18-1.72.15-2.54-.05-.82-.21-1.59-.6-2.26-1.16-1.54-1.3-3.14-2.79-4.7-4.46.15.06.31.11.47.15.81.2,1.66.22,2.5.05,12.85-2.67,31.85-11.85,31.13-30.83-.11-3.01-.73-5.49-1.68-7.53.03.01.05.02.08.03,5.02,1.95,8.4,6.82,8.64,12.31,0,.05,0,.11,0,.16.73,19.29-18.58,28.62-31.64,31.33Z"/>
        </g>
        <g class="cls-11">
          <path class="cls-4" d="M4.98,24.98c8.54-14.29,23.16-6.69,26.41-4.75.43.26.92.38,1.42.36,3.66-.16,19.23.07,20.87,15.2,0-.29-.01-.57-.02-.86-.85-19.03-22.04-16.87-22.04-16.87,0,0-17.63-11.95-27.4,4.4C-.34,30.07.04,37.89,2.8,44.9c-1.96-6.33-1.83-13.2,2.18-19.92Z"/>
        </g>
        <g class="cls-13">
          <path class="cls-4" d="M5.63,30.34c.75-4.32,3.17-8.31,6.75-10.88,1.26-.85,2.7-1.48,4.22-1.73.61-.1,1.18.32,1.28.93.08.49-.17.95-.59,1.17-2.3,1.12-4.21,2.67-5.93,4.57-1.76,1.95-3.31,4.12-4.89,6.27-.26.41-.92.16-.84-.32h0Z"/>
        </g>
        <g class="cls-13">
          <path class="cls-4" d="M24.32,35.05c.38-4.46,2.9-8.58,6.6-11.09,1.31-.81,2.82-1.4,4.37-1.52.62-.05,1.17.42,1.22,1.04.03.43-.17.81-.51,1.03-2.18,1.37-3.97,2.9-5.7,4.8-1.76,1.95-3.34,4.04-5.14,6.06-.27.36-.88.13-.84-.32h0Z"/>
        </g>
        <path class="cls-1" d="M21.64,66.22c-.71.06-1.44,0-2.13-.18h0c-.93-.23-1.82-.68-2.56-1.3-6.25-5.16-11.46-11.81-14.29-18.23C.88,42.48-.01,38.47,0,34.62c.02-4.39,1.22-8.62,3.57-12.55,2.81-4.7,6.52-7.58,11.04-8.59,7.97-1.77,15.76,2.88,17.2,3.8,1.71-.13,10.77-.52,16.95,4.81,3.5,3.03,5.4,7.33,5.64,12.8.2,4.58-.74,8.87-2.81,12.74-1.82,3.4-4.5,6.5-7.99,9.22-5.53,4.31-13.27,7.69-21.22,9.27-.24.05-.49.08-.74.1ZM16.95,14.64c-.67.05-1.35.15-2.03.3-4.1.91-7.48,3.57-10.07,7.89-8.86,14.83,1.49,31.23,13.05,40.76.58.48,1.25.82,1.97,1h0c.73.18,1.47.2,2.21.06,14.7-2.92,31.59-12.44,30.82-29.7-.22-5.04-1.95-8.98-5.13-11.73-6.22-5.37-15.99-4.44-16.09-4.43-.18.02-.35-.03-.5-.12-.07-.05-6.94-4.62-14.25-4.03Z"/>
        <path class="cls-1" d="M36.83,18.91c-1.13-.09-2.27-.08-3.39.07-1.12.15-2.22.43-3.27.83-2.11.79-4.01,2.11-5.53,3.79-1.53,1.68-2.66,3.72-3.48,5.88-.4,1.09-.73,2.2-1,3.34-.27,1.14-.46,2.3-.64,3.47h0c-.03.17-.18.29-.34.26-.15-.02-.26-.16-.25-.3l.03-.9c0-.15,0-.3.02-.45l.04-.45c.03-.3.04-.6.08-.9l.12-.9c.18-1.2.45-2.39.81-3.55l.3-.87c.1-.29.23-.57.34-.85.11-.29.25-.56.38-.84.07-.14.13-.28.2-.42l.22-.41c.59-1.08,1.29-2.12,2.1-3.06.81-.94,1.74-1.79,2.76-2.52,1.02-.73,2.13-1.32,3.3-1.77,1.17-.44,2.39-.76,3.63-.91,1.24-.15,2.5-.16,3.74-.02.41.05.71.42.66.83-.05.4-.4.69-.8.66h0Z"/>
        <g class="cls-14">
          <path class="cls-1" d="M24.36,14.83c1.24.05,1.9,1.63,1.56,2.82-.34,1.19-1.31,2.07-2.13,2.99-2.98,3.3-4.57,7.82-4.31,12.26.47-2.19,1.45-4.23,2.43-6.25.69-1.42,1.39-2.85,2.39-4.07,1.95-2.38,4.85-3.72,7.65-4.99-2.27-.87-4.54-1.74-6.8-2.6-.07.18-.15.36-.22.54"/>
        </g>
      </g>
      <g>
        <path class="cls-3" d="M175.02,18.2s3.59-9.45,7.75-15.43c0,0-.49-2.12-2.09-2.02-.56.04-1.06.38-1.35.86-1.18,1.92-4.97,8.66-5.35,16.36l1.04.23Z"/>
        <g class="cls-11">
          <path class="cls-4" d="M180.55,5.71s-.49-2.12-2.09-2.02c-.11,0-.22.03-.33.06.49-.95.92-1.68,1.2-2.14.29-.48.79-.83,1.35-.86,1.6-.1,2.09,2.02,2.09,2.02-4.16,5.98-7.75,15.43-7.75,15.43l-.94-.21c1.41-3.29,3.82-8.48,6.46-12.28Z"/>
        </g>
        <path class="cls-1" d="M175.08,18.95c-.07,0-.15,0-.22-.02l-1.04-.23c-.36-.08-.6-.4-.58-.77.39-7.88,4.28-14.78,5.46-16.71.43-.7,1.14-1.15,1.9-1.21.01,0,.03,0,.04,0,1.76-.11,2.63,1.58,2.87,2.6.05.21,0,.42-.11.6-4.06,5.84-7.63,15.18-7.67,15.27-.1.28-.36.46-.64.48ZM180.72,1.5c-.29.02-.57.21-.75.5-1.07,1.74-4.42,7.69-5.14,14.64,1.12-2.75,3.91-9.28,7.12-14-.16-.43-.54-1.19-1.22-1.15,0,0,0,0-.01,0Z"/>
        <path class="cls-6" d="M179.52,12.51c-.09-.06-.19-.11-.29-.17,0,0,.21-.85.77-2,.26-.55.6-1.16,1.03-1.78,0,0,0,0,0,0,1.53-2.23,4.2-4.6,8.63-4.52,7.88.15,8.75,3.39,14.22,1.87h0c.29-.08.59-.17.9-.28,0,0-3.39,20.11-25.27,6.89Z"/>
        <g class="cls-12">
          <path class="cls-9" d="M179.52,12.51c.09-.8.26-1.54.48-2.17.28-.79.63-1.42,1.03-1.78,0,0,0,0,0,0,0,0,3.68,4.02,13.47,4.66,4.87.32,7.74-3.45,9.38-7.31h0c.29-.08.59-.17.9-.28,0,0-3.39,20.11-25.27,6.89Z"/>
        </g>
        <path class="cls-1" d="M178.77,11.85c.06-.05.09-.08.14-.12l.13-.1c.08-.07.17-.13.25-.2.17-.13.34-.25.52-.36.35-.23.71-.44,1.07-.63.73-.4,1.49-.71,2.26-.99.77-.28,1.56-.5,2.35-.69.79-.18,1.6-.3,2.4-.4.8-.1,1.61-.13,2.42-.16.4,0,.81,0,1.21.01l.6.02.6.05c1.6.13,3.19.4,4.73.8.09.02.14.11.12.2-.02.08-.1.13-.18.12-1.57-.19-3.14-.31-4.7-.33-1.56-.01-3.12.07-4.65.32-.76.12-1.52.28-2.27.48-.74.2-1.48.43-2.19.72-.71.28-1.4.61-2.07.98-.33.18-.65.38-.96.59-.16.1-.31.21-.45.32-.07.06-.15.11-.21.17l-.1.08-.08.07-.03.02c-.28.25-.7.22-.95-.06-.24-.28-.22-.69.05-.94Z"/>
        <g class="cls-11">
          <path class="cls-4" d="M187.65,6.37c1.7-.65,4.62-1.16,8.54.41.31.12.19.59-.14.55-2.17-.29-5.7-.65-8.27-.41-.34.03-.44-.43-.13-.55Z"/>
        </g>
        <path class="cls-1" d="M193.72,17.72c-4.19.34-9.17-1.25-14.88-4.75-.28-.17-.41-.5-.33-.82.02-.09.59-2.29,2.23-4.48,2.2-2.94,5.29-4.46,8.94-4.4,3.78.07,6.03.84,7.84,1.46,2.26.78,3.76,1.29,7.03.17.25-.09.53-.03.73.14.2.17.3.43.25.69-.06.33-1.42,8.05-7.81,10.96-1.24.56-2.57.9-3.99,1.02ZM180.12,12c6.97,4.17,12.67,5.29,16.96,3.34,4.24-1.92,6.03-6.45,6.66-8.63-2.94.74-4.64.16-6.72-.55-1.8-.62-3.84-1.32-7.38-1.38-3.17-.06-5.75,1.2-7.68,3.76-1.02,1.36-1.59,2.74-1.84,3.47Z"/>
        <path class="cls-10" d="M162.36,65.32c.82.21,1.69.23,2.54.06,13.03-2.59,32.26-11.6,31.42-30.47-.85-19.03-22.04-16.87-22.04-16.87,0,0-17.63-11.95-27.4,4.4-9.69,16.21,2.97,33.27,13.21,41.72.67.55,1.45.94,2.27,1.15Z"/>
        <g class="cls-14">
          <path class="cls-1" d="M163.38,63.73c-.86.18-1.72.15-2.54-.05-.82-.21-1.59-.6-2.26-1.16-1.54-1.3-3.14-2.79-4.7-4.46.15.06.31.11.47.15.81.2,1.66.22,2.5.05,12.85-2.67,31.85-11.85,31.13-30.83-.11-3.01-.73-5.49-1.68-7.53.03.01.05.02.08.03,5.02,1.95,8.4,6.82,8.64,12.31,0,.05,0,.11,0,.16.73,19.29-18.58,28.62-31.64,31.33Z"/>
        </g>
        <g class="cls-11">
          <path class="cls-4" d="M147.65,24.98c8.54-14.29,23.16-6.69,26.41-4.75.43.26.92.38,1.42.36,3.66-.16,19.23.07,20.87,15.2,0-.29-.01-.57-.02-.86-.85-19.03-22.04-16.87-22.04-16.87,0,0-17.63-11.95-27.4,4.4-4.56,7.62-4.17,15.44-1.41,22.45-1.96-6.33-1.83-13.2,2.18-19.92Z"/>
        </g>
        <g class="cls-13">
          <path class="cls-4" d="M148.3,30.34c.75-4.32,3.17-8.31,6.75-10.88,1.26-.85,2.7-1.48,4.22-1.73.61-.1,1.18.32,1.28.93.08.49-.17.95-.59,1.17-2.3,1.12-4.21,2.67-5.93,4.57-1.76,1.95-3.31,4.12-4.89,6.27-.26.41-.92.16-.84-.32h0Z"/>
        </g>
        <g class="cls-13">
          <path class="cls-4" d="M166.98,35.05c.38-4.46,2.9-8.58,6.6-11.09,1.31-.81,2.82-1.4,4.37-1.52.62-.05,1.17.42,1.22,1.04.03.43-.17.81-.51,1.03-2.18,1.37-3.97,2.9-5.7,4.8-1.76,1.95-3.34,4.04-5.14,6.06-.27.36-.88.13-.84-.32h0Z"/>
        </g>
        <path class="cls-1" d="M164.31,66.22c-.71.06-1.44,0-2.13-.18h0c-.93-.23-1.82-.68-2.56-1.3-6.25-5.16-11.46-11.81-14.29-18.23-1.78-4.04-2.67-8.05-2.66-11.91.02-4.39,1.22-8.62,3.57-12.55,2.81-4.7,6.52-7.58,11.04-8.59,7.97-1.77,15.76,2.88,17.2,3.8,1.71-.13,10.77-.52,16.95,4.81,3.5,3.03,5.4,7.33,5.64,12.8.2,4.58-.74,8.87-2.81,12.74-1.82,3.4-4.5,6.5-7.99,9.22-5.53,4.31-13.27,7.69-21.22,9.27-.24.05-.49.08-.74.1ZM159.62,14.64c-.67.05-1.35.15-2.03.3-4.1.91-7.48,3.57-10.07,7.89-8.86,14.83,1.49,31.23,13.05,40.76.58.48,1.25.82,1.97,1h0c.73.18,1.47.2,2.21.06,14.7-2.92,31.59-12.44,30.82-29.7-.22-5.04-1.95-8.98-5.13-11.73-6.22-5.37-15.99-4.44-16.09-4.43-.18.02-.35-.03-.5-.12-.07-.05-6.94-4.62-14.25-4.03Z"/>
        <path class="cls-1" d="M179.49,18.91c-1.13-.09-2.27-.08-3.39.07-1.12.15-2.22.43-3.27.83-2.11.79-4.01,2.11-5.53,3.79-1.53,1.68-2.66,3.72-3.48,5.88-.4,1.09-.73,2.2-1,3.34-.27,1.14-.46,2.3-.64,3.47h0c-.03.17-.18.29-.34.26-.15-.02-.26-.16-.25-.3l.03-.9c0-.15,0-.3.02-.45l.04-.45c.03-.3.04-.6.08-.9l.12-.9c.18-1.2.45-2.39.81-3.55l.3-.87c.1-.29.23-.57.34-.85.11-.29.25-.56.38-.84.07-.14.13-.28.2-.42l.22-.41c.59-1.08,1.29-2.12,2.1-3.06.81-.94,1.74-1.79,2.76-2.52,1.02-.73,2.13-1.32,3.3-1.77,1.17-.44,2.39-.76,3.63-.91,1.24-.15,2.5-.16,3.74-.02.41.05.71.42.66.83-.05.4-.4.69-.8.66h0Z"/>
        <g class="cls-14">
          <path class="cls-1" d="M167.02,14.83c1.24.05,1.9,1.63,1.56,2.82-.34,1.19-1.31,2.07-2.13,2.99-2.98,3.3-4.57,7.82-4.31,12.26.47-2.19,1.45-4.23,2.43-6.25.69-1.42,1.39-2.85,2.39-4.07,1.95-2.38,4.85-3.72,7.65-4.99-2.27-.87-4.54-1.74-6.8-2.6-.07.18-.15.36-.22.54"/>
        </g>
      </g>
      <g id="Smiling_Face_with_Horns" data-name="Smiling Face with Horns">
        <g>
          <path class="cls-2" d="M126.42,25.44c.82-1.13,3.29-5.04,3.77-11.55.1-1.3-.58-2.54-1.73-3.17h0c-1.33-.72-2.97-.45-4.02.65-2.26,2.37-4.77,3.72-6.54,4.45-5.01-3.67-11.18-5.83-17.86-5.83s-12.85,2.17-17.86,5.83c-1.77-.73-4.28-2.08-6.54-4.45-1.04-1.1-2.69-1.37-4.02-.65h0c-1.15.62-1.83,1.86-1.73,3.17.48,6.51,2.95,10.42,3.77,11.55-2.46,4.38-3.87,9.43-3.87,14.8,0,16.71,13.55,30.25,30.25,30.25s30.25-13.55,30.25-30.25c0-5.38-1.41-10.43-3.87-14.8Z"/>
          <g id="circle">
            <circle class="cls-2" cx="100.03" cy="40.24" r="30.25"/>
            <path class="cls-7" d="M74.65,30.06c.24-2.23,1.06-4.37,2.18-6.32,1.13-1.95,2.6-3.72,4.32-5.21,1.71-1.49,3.67-2.71,5.76-3.56,2.09-.84,4.32-1.35,6.57-1.27-1.94,1.11-3.78,2.14-5.51,3.3-1.73,1.14-3.37,2.38-4.91,3.72-1.54,1.34-2.99,2.79-4.37,4.35-1.39,1.56-2.66,3.23-4.03,5Z"/>
            <path class="cls-8" d="M130.29,40.24c0,16.71-13.54,30.25-30.25,30.25-9.13,0-17.32-4.05-22.87-10.44,5.31,4.62,12.25,7.42,19.84,7.42,16.71,0,30.25-13.54,30.25-30.25,0-7.57-2.78-14.49-7.38-19.8,6.37,5.54,10.4,13.71,10.4,22.83Z"/>
          </g>
        </g>
        <path class="cls-5" d="M114.92,52.97c.58-.49,1.42.2,1.02.86-3.11,5.21-9.07,8.73-15.91,8.73s-12.8-3.52-15.91-8.73c-.39-.66.44-1.35,1.02-.86,3.49,2.96,8.86,4.85,14.89,4.85s11.39-1.9,14.89-4.85Z"/>
        <g>
          <ellipse class="cls-5" cx="109.37" cy="44.29" rx="4" ry="5.76"/>
          <ellipse class="cls-5" cx="90.7" cy="44.29" rx="4" ry="5.76"/>
        </g>
        <g>
          <path class="cls-5" d="M105.29,43.06c-.45,0-.9-.2-1.2-.59-.52-.66-.4-1.62.26-2.14,3.98-3.12,8.77-4.85,14.26-5.16.84-.04,1.56.6,1.61,1.44.05.84-.6,1.56-1.44,1.61-4.85.27-9.07,1.79-12.54,4.51-.28.22-.61.32-.94.32Z"/>
          <path class="cls-5" d="M94.78,43.06c.45,0,.9-.2,1.2-.59.52-.66.4-1.62-.26-2.14-3.98-3.12-8.77-4.85-14.26-5.16-.84-.04-1.56.6-1.61,1.44-.05.84.6,1.56,1.44,1.61,4.85.27,9.07,1.79,12.54,4.51.28.22.61.32.94.32Z"/>
        </g>
      </g>
    </g>
  </g>
</svg>