<?xml version="1.0" encoding="UTF-8"?>
<svg id="Capa_2" data-name="Capa 2" xmlns="http://www.w3.org/2000/svg" viewBox="0 0 162.73 196.89">
  <defs>
    <style>
      .cls-1 {
        fill: #f2202c;
      }

      .cls-1, .cls-2, .cls-3, .cls-4 {
        stroke-width: 0px;
      }

      .cls-2 {
        fill: #f2472c;
      }

      .cls-3 {
        fill: #fff;
      }

      .cls-4 {
        fill: #fa9487;
      }
    </style>
  </defs>
  <g id="Capa_1-2" data-name="Capa 1">
    <g>
      <g>
        <polygon class="cls-2" points="133.01 91.1 133.01 75.96 118.21 75.96 118.21 60.81 103.35 60.81 103.35 45.64 88.5 45.64 88.5 30.58 74.22 30.58 74.22 60.44 74.22 74.67 59.11 74.67 15.11 74.67 15.11 120.11 74.44 120.11 74.44 120.27 74.49 120.27 74.49 166.85 88.4 166.85 88.4 151.73 103.27 151.73 103.27 136.56 118.18 136.56 118.18 121.41 133.01 121.41 133.01 106.25 147.82 106.25 147.82 91.1 133.01 91.1"/>
        <rect class="cls-3" x="147.82" y="106.25" width=".11" height=".03"/>
        <polygon class="cls-1" points="162.73 90.99 147.93 90.99 147.93 75.89 133.12 75.89 133.12 60.75 118.27 60.75 118.27 45.59 103.42 45.59 103.42 30.43 88.5 30.43 88.5 15.07 74.22 15.07 74.22 0 59.11 0 59.11 60.44 15.11 60.44 .44 60.44 0 60.44 0 134.22 .66 134.22 .66 134.33 59.38 134.33 59.38 196.89 74.49 196.89 74.49 182.06 88.66 182.06 88.66 166.95 103.31 166.95 103.31 151.77 118.18 151.77 118.18 136.62 133.12 136.62 133.12 121.46 147.92 121.46 147.92 106.28 147.82 106.28 147.82 106.25 133.01 106.25 133.01 121.41 118.18 121.41 118.18 136.56 103.27 136.56 103.27 151.73 88.4 151.73 88.4 166.85 74.49 166.85 74.49 120.27 74.44 120.27 74.44 120.11 15.11 120.11 15.11 74.67 59.11 74.67 74.22 74.67 74.22 60.44 74.22 30.58 88.5 30.58 88.5 45.64 103.35 45.64 103.35 60.81 118.21 60.81 118.21 75.96 133.01 75.96 133.01 91.1 147.82 91.1 147.82 106.25 147.92 106.25 147.92 106.28 162.73 106.28 162.73 90.99"/>
      </g>
      <rect class="cls-4" x="74.35" y="30.5" width="14.08" height="15.16"/>
      <rect class="cls-4" x="88.39" y="45.66" width="15.1" height="15.16"/>
      <rect class="cls-4" x="103.06" y="60.85" width="15.1" height="15.16"/>
      <rect class="cls-4" x="118.17" y="75.85" width="15.1" height="15.16"/>
      <rect class="cls-4" x="13.91" y="74.58" width="60.98" height="10.09"/>
    </g>
  </g>
</svg>