<?xml version="1.0" encoding="UTF-8"?>
<svg xmlns="http://www.w3.org/2000/svg" xmlns:xlink="http://www.w3.org/1999/xlink" viewBox="0 0 1920 1080">
  <defs>
    <style>
      .cls-1, .cls-2, .cls-3, .cls-4, .cls-5, .cls-6, .cls-7, .cls-8, .cls-9, .cls-10, .cls-11, .cls-12, .cls-13, .cls-14, .cls-15, .cls-16, .cls-17, .cls-18, .cls-19, .cls-20, .cls-21, .cls-22, .cls-23, .cls-24, .cls-25, .cls-26, .cls-27 {
        stroke: #373151;
      }

      .cls-1, .cls-3, .cls-5, .cls-6, .cls-7, .cls-8, .cls-28, .cls-10, .cls-12, .cls-13, .cls-14, .cls-15, .cls-16, .cls-18, .cls-19, .cls-21, .cls-23, .cls-25 {
        stroke-linecap: round;
      }

      .cls-1, .cls-3, .cls-5, .cls-6, .cls-7, .cls-28, .cls-10, .cls-12, .cls-13, .cls-14, .cls-15, .cls-16, .cls-18, .cls-19, .cls-21, .cls-25 {
        stroke-linejoin: round;
      }

      .cls-1, .cls-17 {
        fill: #babdff;
        stroke-width: 6.81px;
      }

      .cls-2, .cls-4, .cls-8, .cls-9, .cls-11, .cls-17, .cls-20, .cls-22, .cls-23, .cls-24, .cls-26, .cls-27 {
        stroke-miterlimit: 10;
      }

      .cls-2, .cls-8, .cls-23, .cls-25 {
        stroke-width: 3.11px;
      }

      .cls-2, .cls-11, .cls-29, .cls-18, .cls-30, .cls-21, .cls-22, .cls-27 {
        fill: #fff;
      }

      .cls-31 {
        fill: #7d9580;
      }

      .cls-31, .cls-32, .cls-33, .cls-34, .cls-35, .cls-36, .cls-37, .cls-38, .cls-39, .cls-40, .cls-41, .cls-42, .cls-43, .cls-44, .cls-29, .cls-45, .cls-46, .cls-47, .cls-48, .cls-49, .cls-50, .cls-51, .cls-52, .cls-53, .cls-54, .cls-55, .cls-56, .cls-57, .cls-58, .cls-59, .cls-60, .cls-61, .cls-62 {
        stroke-width: 0px;
      }

      .cls-3 {
        stroke-width: 5.17px;
      }

      .cls-3, .cls-5, .cls-8, .cls-28, .cls-39, .cls-12, .cls-13, .cls-14, .cls-19, .cls-25 {
        fill: none;
      }

      .cls-4, .cls-6, .cls-7, .cls-24 {
        fill: #317c4f;
      }

      .cls-4, .cls-7, .cls-22 {
        stroke-width: 4.43px;
      }

      .cls-32 {
        opacity: .71;
      }

      .cls-5 {
        stroke-width: 1.72px;
      }

      .cls-6 {
        stroke-width: 5.15px;
      }

      .cls-33 {
        fill: #83aeff;
      }

      .cls-34 {
        fill: url(#Degradado_sin_nombre_184);
        mix-blend-mode: overlay;
      }

      .cls-35 {
        fill: #40425e;
      }

      .cls-63 {
        clip-path: url(#clippath-2);
      }

      .cls-9 {
        fill: #3478a2;
        stroke-width: 2.97px;
      }

      .cls-64 {
        isolation: isolate;
      }

      .cls-36 {
        fill: #ffe5bb;
      }

      .cls-28 {
        stroke: #fff4f9;
        stroke-width: 8.62px;
      }

      .cls-38 {
        fill: #ffd33b;
      }

      .cls-10, .cls-15 {
        stroke-width: 3px;
      }

      .cls-10, .cls-16 {
        fill: #005c68;
      }

      .cls-11 {
        stroke-width: 6.27px;
      }

      .cls-40 {
        fill: #c0ffff;
      }

      .cls-41 {
        fill: #373151;
      }

      .cls-12 {
        stroke-width: 10.21px;
      }

      .cls-65 {
        clip-path: url(#clippath-1);
      }

      .cls-13 {
        stroke-width: 2.33px;
      }

      .cls-42 {
        fill: #090c30;
      }

      .cls-43 {
        fill: #e88b61;
      }

      .cls-44 {
        fill: #e32c9e;
      }

      .cls-14 {
        stroke-width: 7px;
      }

      .cls-45 {
        fill: #9095ff;
        mix-blend-mode: multiply;
      }

      .cls-46 {
        fill: #cccac5;
      }

      .cls-47 {
        fill: #896338;
      }

      .cls-48 {
        fill: #9296a2;
      }

      .cls-49 {
        fill: #c9ffff;
      }

      .cls-50 {
        fill: #396b9e;
      }

      .cls-15 {
        fill: #4aa4a9;
      }

      .cls-16 {
        stroke-width: 2px;
      }

      .cls-51 {
        fill: #151580;
      }

      .cls-52 {
        fill: #a84d32;
      }

      .cls-53 {
        fill: #744339;
      }

      .cls-54 {
        fill: #98bacc;
      }

      .cls-66 {
        opacity: .1;
      }

      .cls-67 {
        clip-path: url(#clippath);
      }

      .cls-18 {
        stroke-width: 2.22px;
      }

      .cls-55 {
        fill: #272949;
      }

      .cls-30 {
        font-family: OpenSansRoman-Bold, Wonky;
        font-size: 42px;
        font-variation-settings: 'wght' 700, 'wdth' 100;
        font-weight: 700;
      }

      .cls-19 {
        stroke-width: 6.74px;
      }

      .cls-68 {
        clip-path: url(#clippath-3);
      }

      .cls-56 {
        fill: #392c2b;
      }

      .cls-20 {
        fill: #1e632d;
        stroke-width: 5.43px;
      }

      .cls-21 {
        stroke-width: 2.57px;
      }

      .cls-57 {
        fill: #e36b9e;
      }

      .cls-58 {
        fill: #707379;
      }

      .cls-69 {
        opacity: .67;
      }

      .cls-59 {
        fill: navy;
      }

      .cls-23 {
        fill: #ff632e;
      }

      .cls-60 {
        fill: #c73c4a;
      }

      .cls-24, .cls-26 {
        stroke-width: 7.3px;
      }

      .cls-70 {
        opacity: .17;
      }

      .cls-26 {
        fill: #207140;
      }

      .cls-27 {
        stroke-width: 3.81px;
      }

      .cls-61 {
        fill: #c6daff;
      }

      .cls-62 {
        fill: #683700;
      }
    </style>
    <clipPath id="clippath">
      <rect class="cls-39" x="-.07" y="-4.38" width="1920" height="1080"/>
    </clipPath>
    <clipPath id="clippath-1">
      <rect class="cls-39" x="2135.11" y="-857.78" width="1920" height="636.44"/>
    </clipPath>
    <clipPath id="clippath-2">
      <rect class="cls-39" x="10794.67" y="-1301.33" width="1920" height="1080"/>
    </clipPath>
    <linearGradient id="Degradado_sin_nombre_184" data-name="Degradado sin nombre 184" x1="609.44" y1="530.33" x2="609.44" y2="155.72" gradientUnits="userSpaceOnUse">
      <stop offset="0" stop-color="#efffff"/>
      <stop offset="1" stop-color="#00000e" stop-opacity="0"/>
    </linearGradient>
    <clipPath id="clippath-3">
      <rect class="cls-39" x="2115.56" y="1386.67" width="1920" height="1080"/>
    </clipPath>
  </defs>
  <g class="cls-64">
    <g id="Capa_1" data-name="Capa 1">
      <g class="cls-67">
        <rect class="cls-48" x="-23.96" y=".17" width="2068.33" height="986.67"/>
        <rect class="cls-41" x="-30.29" y="881.95" width="2005.33" height="217.33"/>
        <g>
          <g>
            <g>
              <g>
                <rect class="cls-62" x="630.27" y="323.28" width="37.33" height="288"/>
                <rect class="cls-47" x="641.82" y="323.28" width="37.33" height="288"/>
              </g>
              <g>
                <rect class="cls-62" x="791.16" y="323.28" width="37.33" height="288"/>
                <rect class="cls-47" x="802.71" y="323.28" width="37.33" height="288"/>
              </g>
              <g>
                <rect class="cls-62" x="952.04" y="323.28" width="37.33" height="288"/>
                <rect class="cls-47" x="963.6" y="323.28" width="37.33" height="288"/>
              </g>
            </g>
            <rect class="cls-47" x="1082.71" y="285.06" width="41.33" height="642.67"/>
            <rect class="cls-62" x="1066.71" y="285.06" width="24" height="642.67"/>
            <g>
              <path class="cls-62" d="M1081.88,239.64c0-2.69.33-5.31.95-7.81-9.69,4.41-16.43,14.17-16.43,25.51,0,15.47,12.54,28.01,28.01,28.01,10.17,0,19.08-5.42,23.98-13.53-1.34.17-2.7.26-4.08.26-17.91,0-32.43-14.52-32.43-32.43Z"/>
              <path class="cls-47" d="M1094.41,229.32c-4.13,0-8.05.9-11.58,2.51-.62,2.5-.95,5.12-.95,7.81,0,17.91,14.52,32.43,32.43,32.43,1.38,0,2.74-.1,4.08-.26,2.56-4.23,4.03-9.18,4.03-14.48,0-15.47-12.54-28.01-28.01-28.01Z"/>
            </g>
            <rect class="cls-47" x="539.6" y="301.06" width="548.44" height="39.11"/>
            <rect class="cls-47" x="509.38" y="285.06" width="41.33" height="642.67"/>
            <rect class="cls-62" x="493.38" y="285.06" width="24" height="642.67"/>
            <g>
              <path class="cls-62" d="M508.54,239.64c0-2.69.33-5.31.95-7.81-9.69,4.41-16.43,14.17-16.43,25.51,0,15.47,12.54,28.01,28.01,28.01,10.17,0,19.08-5.42,23.98-13.53-1.34.17-2.7.26-4.08.26-17.91,0-32.43-14.52-32.43-32.43Z"/>
              <path class="cls-47" d="M521.08,229.32c-4.13,0-8.05.9-11.58,2.51-.62,2.5-.95,5.12-.95,7.81,0,17.91,14.52,32.43,32.43,32.43,1.38,0,2.74-.1,4.08-.26,2.56-4.23,4.03-9.18,4.03-14.48,0-15.47-12.54-28.01-28.01-28.01Z"/>
            </g>
            <path class="cls-3" d="M524.15,285.06c8.49-1.2,15.76-6.21,20.02-13.25,2.56-4.23,4.03-9.18,4.03-14.48,0-15.47-12.54-28.01-28.01-28.01-4.13,0-8.05.9-11.58,2.51-9.69,4.41-16.43,14.17-16.43,25.51,0,14.12,10.45,25.8,24.04,27.73h-23.73v642.67h57.33V285.06h-25.67Z"/>
            <g>
              <rect class="cls-50" x="1775.13" y="-674.05" width="171.59" height="1685.02" transform="translate(3721.84 336.92) rotate(180)"/>
              <rect class="cls-12" x="1771.34" y="-668" width="171.59" height="1685.02" transform="translate(3714.28 349.02) rotate(180)"/>
            </g>
            <g>
              <g>
                <rect class="cls-62" x="521.55" y="714.89" width="1865.94" height="216.25"/>
                <rect class="cls-47" x="1621.18" y="714.89" width="761.86" height="216.25"/>
                <rect class="cls-61" x="517.11" y="526.74" width="1865.94" height="188.14"/>
                <rect class="cls-33" x="1621.18" y="526.74" width="761.86" height="188.14"/>
              </g>
              <g>
                <rect class="cls-62" x="1595.7" y="929.36" width="29.64" height="79.98"/>
                <rect class="cls-47" x="1621.18" y="931.14" width="29.64" height="79.98"/>
              </g>
              <g>
                <rect class="cls-62" x="532.59" y="929.36" width="29.64" height="79.98"/>
                <rect class="cls-47" x="558.07" y="931.14" width="29.64" height="79.98"/>
              </g>
            </g>
            <g>
              <rect class="cls-51" x="587.89" y="-651.16" width="516.15" height="682.35"/>
              <rect class="cls-51" x="1096.21" y="-647.37" width="516.15" height="682.35"/>
              <g class="cls-66">
                <rect class="cls-37" x="1058.89" y="-628.41" width="20.22" height="644.45"/>
              </g>
              <g class="cls-66">
                <rect class="cls-37" x="1579.68" y="-628.41" width="20.22" height="644.45"/>
              </g>
              <path class="cls-29" d="M1131.43-673.9h-566.29V61.52h1080.25v-735.43h-513.96ZM610.63,16.03v-644.45h468.47V16.03h-468.47ZM1599.9,16.03h-468.47v-644.45h468.47V16.03Z"/>
            </g>
            <g>
              <rect class="cls-54" x="199.2" y="526.48" width="191.46" height="174.7"/>
              <rect class="cls-40" x="390" y="526.48" width="345.29" height="174.7"/>
              <rect class="cls-57" x="425.08" y="556.89" width="275.13" height="119.47"/>
              <rect class="cls-29" x="513.31" y="566.08" width="105.75" height="21.6"/>
              <g class="cls-70">
                <rect class="cls-59" x="513.71" y="587.24" width="104.95" height="12.15"/>
              </g>
            </g>
            <g>
              <rect class="cls-3" x="199.2" y="525.47" width="191.46" height="174.7"/>
              <rect class="cls-3" x="390" y="525.47" width="345.29" height="174.7"/>
              <rect class="cls-3" x="425.08" y="555.88" width="275.13" height="119.47"/>
              <rect class="cls-3" x="513.31" y="565.07" width="105.75" height="21.6"/>
              <g class="cls-70">
                <rect class="cls-3" x="513.71" y="586.23" width="104.95" height="12.15"/>
              </g>
            </g>
            <g>
              <g>
                <g>
                  <path class="cls-29" d="M470.63,278.25s13.16,10.24-6.21,16.58l6.21-16.58Z"/>
                  <path class="cls-29" d="M466.48,293.8c1.92,1.5,7.19,12.2-6.21,16.58l6.21-16.58Z"/>
                  <path class="cls-29" d="M459.01,311.41s13.16,10.24-6.21,16.58l6.21-16.58Z"/>
                </g>
                <ellipse class="cls-36" cx="416.91" cy="314.27" rx="19.92" ry="21.64"/>
                <path class="cls-46" d="M286.46,487.53c-1.27-4.16-30.79-102.51,5.25-164.73,13.68-23.61,35.04-38.86,63.49-45.33l2.67,11.76c-25.04,5.69-43.78,19.01-55.71,39.58-33.41,57.64-4.46,154.2-4.17,155.17l-11.54,3.54Z"/>
                <g>
                  <path class="cls-58" d="M286.46,487.53s-.28-.91-.76-2.62l11.62-3.25c.42,1.48.66,2.3.68,2.34l-11.54,3.54Z"/>
                  <path class="cls-58" d="M284.33,479.76c-.39-1.52-.82-3.24-1.27-5.16l11.74-2.79c.44,1.84.85,3.49,1.22,4.95l-11.69,2.99ZM281.87,469.44c-.36-1.63-.73-3.36-1.1-5.17l11.81-2.44c.36,1.75.72,3.43,1.07,5.01l-11.78,2.6ZM279.74,459.06c-.32-1.68-.63-3.41-.95-5.2l11.88-2.07c.3,1.73.61,3.41.92,5.04l-11.86,2.24ZM277.93,448.63c-.27-1.71-.54-3.46-.79-5.24l11.94-1.71c.25,1.72.5,3.41.76,5.05l-11.92,1.89ZM276.42,438.15c-.22-1.73-.43-3.48-.63-5.26l11.99-1.34c.19,1.72.39,3.41.61,5.07l-11.97,1.53ZM275.25,427.61c-.17-1.75-.32-3.51-.45-5.29l12.03-.92c.13,1.71.28,3.4.44,5.08l-12.01,1.13ZM274.44,417.02c-.1-1.76-.19-3.53-.26-5.32l12.05-.47c.07,1.71.15,3.4.25,5.08l-12.04.71ZM274.01,406.39c-.04-1.77-.05-3.54-.05-5.33h12.06c0,1.7.02,3.4.05,5.08l-12.06.24ZM274.02,395.74c.04-1.77.1-3.55.18-5.34l12.05.55c-.08,1.69-.13,3.37-.17,5.05l-12.06-.27ZM274.51,385.06l.13-1.8c.09-1.18.2-2.36.31-3.54l12.01,1.14c-.11,1.11-.2,2.23-.29,3.34l-.13,1.69-12.04-.84ZM287.51,375.87l-11.97-1.48c.22-1.78.47-3.56.74-5.33l11.92,1.84c-.25,1.65-.48,3.31-.69,4.97ZM289.04,365.95l-11.86-2.21c.33-1.77.69-3.54,1.08-5.3l11.78,2.61c-.36,1.63-.69,3.26-1,4.9ZM291.21,356.2l-11.68-3.03c.46-1.76.94-3.51,1.47-5.24l11.55,3.48c-.48,1.58-.92,3.18-1.34,4.79ZM294.07,346.69l-11.4-3.94c.6-1.73,1.24-3.46,1.9-5.13l11.22,4.44c-.6,1.53-1.18,3.07-1.72,4.63ZM297.71,337.52l-11-4.96c.76-1.68,1.56-3.35,2.38-4.96l10.74,5.5c-.74,1.44-1.45,2.92-2.13,4.42ZM302.17,328.81l-10.44-6.05c.92-1.58,1.89-3.17,2.9-4.7l10.1,6.6c-.89,1.36-1.75,2.75-2.56,4.15ZM307.5,320.7l-9.69-7.18c1.1-1.48,2.25-2.94,3.43-4.36l9.25,7.75c-1.03,1.23-2.04,2.51-2.99,3.79ZM313.69,313.3l-8.76-8.3c1.27-1.35,2.6-2.66,3.95-3.92l8.23,8.82c-1.17,1.09-2.32,2.24-3.43,3.4ZM320.75,306.72l-7.66-9.32c1.44-1.18,2.92-2.33,4.42-3.41l7.05,9.79c-1.29.93-2.57,1.92-3.81,2.94ZM328.56,301.08l-6.46-10.19c1.54-.98,3.15-1.93,4.78-2.83l5.84,10.56c-1.42.79-2.82,1.62-4.16,2.47ZM337.03,296.39l-5.22-10.87c1.65-.79,3.34-1.55,5.05-2.26l4.61,11.15c-1.5.62-2.99,1.29-4.44,1.98ZM346.03,292.65l-4.04-11.37c1.71-.61,3.47-1.18,5.22-1.71l3.47,11.56c-1.57.47-3.14.98-4.66,1.52Z"/>
                  <path class="cls-58" d="M355.48,289.81l-2.91-11.71c.87-.22,1.75-.43,2.64-.63l2.66,11.77c-.8.18-1.6.37-2.39.57Z"/>
                </g>
                <g>
                  <path class="cls-35" d="M277.37,484.64h75.58c1.74,0,3.44.17,5.1.43-5.58-4.1-12.45-6.55-19.91-6.55h-75.58c-18.61,0-33.7,15.09-33.7,33.7v11.23h14.81v-5.11c0-18.61,15.09-33.7,33.7-33.7Z"/>
                  <path class="cls-35" d="M371.85,512.22c0-11.15-5.44-21.01-13.79-27.15-1.67-.25-3.36-.43-5.1-.43h-75.58c-18.61,0-33.7,15.09-33.7,33.7v5.11h128.18v-11.23Z"/>
                </g>
                <path class="cls-38" d="M423.61,241.26c-30.06-10.14-62.66,6.01-72.8,36.08-10.14,30.06,6.01,62.66,36.08,72.8,16.11,5.43,39.9,5.65,60.07.06l24.49-72.61c-12.66-16.66-31.72-30.9-47.84-36.33Z"/>
                <path class="cls-28" d="M385.12,251.39s10.17-4.12,23.1-2.74"/>
                <ellipse class="cls-29" cx="418.22" cy="283.78" rx="12.31" ry="16.01" transform="translate(-23.88 528.7) rotate(-63.14)"/>
                <ellipse class="cls-29" cx="432.7" cy="263.63" rx="6.78" ry="10.73" transform="translate(-29.57 471.07) rotate(-55.52)"/>
                <ellipse class="cls-37" cx="434.93" cy="267.15" rx="3.49" ry="6.2" transform="translate(-28.84 480.35) rotate(-56.25)"/>
                <ellipse class="cls-37" cx="423.68" cy="286.1" rx="6.38" ry="9.19" transform="translate(-.17 571.95) rotate(-68.03)"/>
              </g>
              <g>
                <g>
                  <path class="cls-5" d="M469.61,278s13.16,10.24-6.21,16.58l6.21-16.58Z"/>
                  <path class="cls-5" d="M465.46,293.55c1.92,1.5,7.19,12.2-6.21,16.58l6.21-16.58Z"/>
                  <path class="cls-5" d="M457.99,311.15s13.16,10.24-6.21,16.58l6.21-16.58Z"/>
                </g>
                <path class="cls-5" d="M283.31,479.5c-.39-1.52-.82-3.24-1.27-5.16l11.74-2.79c.44,1.84.85,3.49,1.22,4.95l-11.69,2.99ZM280.85,469.18c-.36-1.63-.73-3.36-1.1-5.17l11.81-2.44c.36,1.75.72,3.43,1.07,5.01l-11.78,2.6ZM278.72,458.8c-.32-1.68-.63-3.41-.95-5.2l11.88-2.07c.3,1.73.61,3.41.92,5.04l-11.86,2.24ZM276.9,448.38c-.27-1.71-.54-3.46-.79-5.24l11.94-1.71c.25,1.72.5,3.41.76,5.05l-11.92,1.89ZM275.4,437.89c-.22-1.73-.43-3.48-.63-5.26l11.99-1.34c.19,1.72.39,3.41.61,5.07l-11.97,1.53ZM274.23,427.35c-.17-1.75-.32-3.51-.45-5.29l12.03-.92c.13,1.71.28,3.4.44,5.08l-12.01,1.13ZM273.42,416.76c-.1-1.76-.19-3.53-.26-5.32l12.05-.47c.07,1.71.15,3.4.25,5.08l-12.04.71ZM272.99,406.13c-.04-1.77-.05-3.54-.05-5.33h12.06c0,1.7.02,3.4.05,5.08l-12.06.24ZM273,395.48c.04-1.77.1-3.55.18-5.34l12.05.55c-.08,1.69-.13,3.37-.17,5.05l-12.06-.27ZM273.49,384.81l.13-1.8c.09-1.18.2-2.36.31-3.54l12.01,1.14c-.11,1.11-.2,2.23-.29,3.34l-.13,1.69-12.04-.84ZM286.49,375.62l-11.97-1.48c.22-1.78.47-3.56.74-5.33l11.92,1.84c-.25,1.65-.48,3.31-.69,4.97ZM288.02,365.7l-11.86-2.21c.33-1.77.69-3.54,1.08-5.3l11.78,2.61c-.36,1.63-.69,3.26-1,4.9ZM290.19,355.94l-11.68-3.03c.46-1.76.94-3.51,1.47-5.24l11.55,3.48c-.48,1.58-.92,3.18-1.34,4.79ZM293.05,346.43l-11.4-3.94c.6-1.73,1.24-3.46,1.9-5.13l11.22,4.44c-.6,1.53-1.18,3.07-1.72,4.63ZM296.69,337.26l-11-4.96c.76-1.68,1.56-3.35,2.38-4.96l10.74,5.5c-.74,1.44-1.45,2.92-2.13,4.42ZM301.15,328.56l-10.44-6.05c.92-1.58,1.89-3.17,2.9-4.7l10.1,6.6c-.89,1.36-1.75,2.75-2.56,4.15ZM306.47,320.44l-9.69-7.18c1.1-1.48,2.25-2.94,3.43-4.36l9.25,7.75c-1.03,1.23-2.04,2.51-2.99,3.79ZM312.67,313.04l-8.76-8.3c1.27-1.35,2.6-2.66,3.95-3.92l8.23,8.82c-1.17,1.09-2.32,2.24-3.43,3.4ZM319.73,306.47l-7.66-9.32c1.44-1.18,2.92-2.33,4.42-3.41l7.05,9.79c-1.29.93-2.57,1.92-3.81,2.94ZM327.54,300.82l-6.46-10.19c1.54-.98,3.15-1.93,4.78-2.83l5.84,10.56c-1.42.79-2.82,1.62-4.16,2.47ZM336.01,296.13l-5.22-10.87c1.65-.79,3.34-1.55,5.05-2.26l4.61,11.15c-1.5.62-2.99,1.29-4.44,1.98ZM343.51,288.15l-2.53-7.12c1.43-.51,2.88-.99,4.35-1.44"/>
                <path class="cls-3" d="M357.03,484.81c-5.58-4.1-12.45-6.55-19.91-6.55h-75.58c-18.61,0-33.7,15.09-33.7,33.7v11.23h142.99v-11.23c0-11.15-5.44-21.01-13.79-27.15Z"/>
                <path class="cls-3" d="M422.59,241c-30.06-10.14-62.66,6.01-72.8,36.08-10.14,30.06,6.01,62.66,36.08,72.8,16.11,5.43,39.9,5.65,60.07.06l24.49-72.61c-12.66-16.66-31.72-30.9-47.84-36.33Z"/>
                <ellipse class="cls-5" cx="417.2" cy="283.52" rx="12.31" ry="16.01" transform="translate(-24.21 527.65) rotate(-63.14)"/>
                <ellipse class="cls-5" cx="431.68" cy="263.37" rx="6.78" ry="10.73" transform="translate(-29.8 470.12) rotate(-55.52)"/>
                <ellipse class="cls-39" cx="434.12" cy="267.55" rx="3.49" ry="6.2" transform="translate(-29.53 479.86) rotate(-56.25)"/>
              </g>
            </g>
            <line class="cls-3" x1="516.49" y1="291.28" x2="516.49" y2="502.84"/>
            <polyline class="cls-3" points="553.82 301.95 1088.04 301.95 1088.04 336.62 590.27 336.62"/>
            <line class="cls-3" x1="680.64" y1="523.58" x2="678.86" y2="337.5"/>
            <line class="cls-3" x1="642.71" y1="523.58" x2="640.93" y2="337.5"/>
            <line class="cls-3" x1="632.04" y1="523.58" x2="630.27" y2="337.5"/>
            <line class="cls-3" x1="839.45" y1="523.58" x2="837.67" y2="337.5"/>
            <line class="cls-3" x1="801.53" y1="523.58" x2="799.75" y2="337.5"/>
            <line class="cls-3" x1="790.86" y1="523.58" x2="789.08" y2="337.5"/>
            <line class="cls-3" x1="1002.42" y1="523.58" x2="1000.64" y2="337.5"/>
            <line class="cls-3" x1="964.49" y1="523.58" x2="962.71" y2="337.5"/>
            <line class="cls-3" x1="953.82" y1="523.58" x2="952.04" y2="337.5"/>
            <g>
              <path class="cls-2" d="M634.06,302.77s-.46,73.15-.46,78.21-2.76,103.97-2.76,103.97c0,0-9.2,33.58,3.68,37.26s60.73-.46,80.05-.46,9.66-33.58-10.12-36.8c-19.78-3.22-15.64-91.09-15.64-91.09,0,0,52.44,3.68,76.83-23.92l37.72-6.44s33.12-56.12,31.28-58.89c-1.84-2.76,1.38-8.74-4.6-11.96-5.98-3.22-95.69-8.28-108.11-8.74-12.42-.46-87.87,5.52-89.25,6.9s-24.38,11.04,1.38,11.96Z"/>
              <line class="cls-8" x1="688.8" y1="396.16" x2="689.26" y2="365.33"/>
              <path class="cls-23" d="M690.64,381.43s41.4,11.5,72.23-21.62l2.76,10.12s-20.24,30.36-74.53,23.92l-.46-12.42Z"/>
              <line class="cls-8" x1="635.44" y1="304.61" x2="636.82" y2="294.49"/>
              <path class="cls-60" d="M636.36,312.89c6.61-.23,13.23-.3,19.85-.24,11.19.1,19.93.51,30.02,5.17,5.6,2.59,11.93,3.2,18.09,2.98,15.01-.53,30.01-3.49,44.7-6.4,7.98-1.58,15.94-4.34,24.13-4.55,3.63-.09,52.74,3.49,52.74,7.18,0,1.38-14.72,28.98-14.72,28.98,0,0-21.62-2.76-31.74-7.36-10.12-4.6-12.88-6.44-20.24-5.06-22.88,4.29-45.1,11.01-68.55,6.5-11.16-2.14-21-3.67-32.36-3.55-7.62.08-15.23.18-22.84.27,0,0,.92-23.92.92-23.92Z"/>
              <path class="cls-60" d="M641.88,290.81s-6.9,5.52-3.68,6.9,138.01-2.76,141.69-2.3c3.68.46,20.7,2.76,23.46,3.68,2.76.92,28.52,6.9,28.52,3.22s7.36-9.66-10.12-10.12-67.17-5.52-67.17-5.52c0,0-36.34-.92-38.18-.92s-28.52,1.38-28.52,1.38l-46,3.68Z"/>
              <path class="cls-25" d="M774.83,317.95s1.84-20.7,13.34-28.98"/>
              <polygon class="cls-60" points="635.55 368.09 686.96 372.23 686.96 392.02 635.1 389.25 635.55 368.09"/>
              <path class="cls-60" d="M634.06,415.02l-1.38,25.3s11.5-2.76,17.94-3.68c7.14-1.02,11.62-1.82,18.8-1.15,6.25.58,11.37-3.45,17.09-3.45,1.38,0,.46-28.98.46-28.98,0,0-7.36,12.88-18.86,9.66-11.5-3.22-29.44-2.76-34.04,2.3Z"/>
              <path class="cls-60" d="M631.76,490.92s25.3-14.26,38.18-10.12c12.88,4.14,31.28,5.52,31.28,5.52,0,0-10.12-17.02-10.58-23-.46-5.98-54.74,0-57.05,2.3l-1.84,25.3Z"/>
              <path class="cls-60" d="M708.59,488.62s-33.12-2.76-38.18,4.14-11.5,16.56-5.98,21.62c5.52,5.06,17.02,8.28,17.02,8.28l-37.72-1.38s-13.34-25.3,13.8-32.2c27.14-6.9,51.06-.46,51.06-.46Z"/>
              <path class="cls-23" d="M686.5,501.04s-7.82,12.42-2.76,14.72,7.82,4.6,12.42,4.6,16.1,1.84,19.32-1.38,11.96-.92,19.78.92c7.82,1.84,9.66,2.3,10.12-3.68.46-5.98-6.44-5.98-16.56-12.88-10.12-6.9-7.82-7.36-11.96-8.28-4.14-.92-26.68,1.84-30.36,5.98Z"/>
              <path class="cls-41" d="M741.71,515.31s-6.21-5.18-17.25-7.59c-11.04-2.42-9.66-3.11-14.15-3.11s-14.49,4.83-12.42,6.56,3.8,6.21,9.66,5.18,6.21-3.11,10.35-2.76c4.14.35,5.18,0,7.94.69,2.76.69,21.74,6.56,15.87,1.04Z"/>
              <path class="cls-13" d="M635.78,493.94s13.02-18.16,32.55-13.36"/>
              <path class="cls-13" d="M707.74,504.22s.34-2.74-1.03-3.08-12.34-3.08-12.34-3.08"/>
            </g>
            <circle class="cls-3" cx="1094.56" cy="256.02" r="27.56"/>
            <polyline class="cls-3" points="1066.42 297.8 1066.42 285.95 1124.04 285.95 1124.04 333.95"/>
            <line class="cls-3" x1="1093.08" y1="289.5" x2="1093.08" y2="362.39"/>
            <line class="cls-3" x1="1065.23" y1="361.21" x2="1065.23" y2="343.43"/>
            <rect class="cls-42" x="212.49" y="699.28" width="27.56" height="350.67"/>
            <rect class="cls-55" x="343.16" y="699.28" width="27.56" height="350.67"/>
            <g>
              <path class="cls-17" d="M733.12,393.82s18.16,72.64,37.83,78.69c0,0-7.57,13.62,1.51,15.13,0,0-45.4,33.29-33.29,37.83l55.99,1.51,405.55,1.51s-1.51-24.21-10.59-25.73c-9.08-1.51,0-119.55-60.53-131.65,0,0,22.7-36.32,4.54-34.8-18.16,1.51-34.8,28.75-34.8,28.75,0,0-308.7-9.08-340.48,6.05,0,0-33.29-36.32-49.94-21.19-16.65,15.13,24.21,43.88,24.21,43.88Z"/>
              <path class="cls-45" d="M723.66,353.08s19.17,28.25,27.24,30.26,8.07,6.05,5.04,10.09c-3.03,4.04-7.06,12.11,3.03,16.14,10.09,4.04,17.15,18.16,23.2,33.29,6.05,15.13,5.04,18.16,3.03,21.19-2.02,3.03-14.12,11.1-3.03,15.13,11.1,4.04,38.34,23.2,38.34,23.2,0,0,89.79,26.23,17.15,28.25l-95.84-2.52s-1.01-5.55,5.04-12.61c6.05-7.06,28.25-25.22,28.25-25.22,0,0-2.22-1.95-3.39-4.96-1.05-2.73-1.24-6.34,1.88-10.17,0,0-14.63,14.12-37.83-78.69,0,0-22.19-9.08-30.26-35.31,0,0,8.07-19.17,18.16-8.07Z"/>
              <path class="cls-1" d="M773.97,467.97c1.51.5,40.86-9.08,64.56-4.54"/>
              <path class="cls-1" d="M775.11,490.29s7.44-11.22,30.64-7.19"/>
              <path class="cls-1" d="M1163.63,489.15s1.51,11.35-27.24,14.38"/>
            </g>
          </g>
          <line class="cls-14" x1="827.63" y1="526.98" x2="1817.29" y2="526.98"/>
          <line class="cls-12" x1="785.26" y1="717.65" x2="2710.1" y2="717.65"/>
          <line class="cls-17" x1="1623.6" y1="545.14" x2="1623.6" y2="910.34"/>
          <polyline class="cls-12" points="1591.55 931.14 1591.55 1011.12 1650.82 1011.12 1650.82 935.56"/>
          <line class="cls-12" x1="517.11" y1="931.14" x2="1574.71" y2="929.95"/>
          <polyline class="cls-12" points="592.04 939.28 592.04 1011.12 532.59 1011.12 532.59 935.28"/>
          <line class="cls-12" x1="558.07" y1="931.14" x2="558.07" y2="1009.34"/>
          <rect class="cls-42" x="550.14" y="698.98" width="27.56" height="350.67"/>
          <rect class="cls-55" x="654.14" y="698.98" width="27.56" height="350.67"/>
        </g>
        <g>
          <rect class="cls-10" x="477.35" y="505.66" width="193.83" height="17.33" rx="1.1" ry="1.1"/>
          <rect class="cls-15" x="632.07" y="505.66" width="81.33" height="17.33" rx=".77" ry=".77"/>
          <rect class="cls-16" x="559.47" y="512.3" width="20.68" height="4.32" rx="2.16" ry="2.16"/>
          <rect class="cls-16" x="584.55" y="512.3" width="20.68" height="4.32" rx="2.16" ry="2.16"/>
        </g>
        <g>
          <rect class="cls-56" x="61.52" y="18.76" width="225.99" height="286.64" transform="translate(-13.09 15.35) rotate(-4.85)"/>
          <g>
            <path class="cls-39" d="M153.6,130.95c3.07,2.11,6.16,4.19,9.32,6.14,1.97,1.21,3.96,2.44,6.13,3-2.26-.73-4.39-1.93-6.13-3-3.17-1.95-6.26-4.03-9.32-6.14Z"/>
            <path class="cls-39" d="M175.1,140.55h0l.04.42h0l-.04-.42Z"/>
            <path class="cls-39" d="M150.01,127.61c-.45-.52-.89-1.04-1.33-1.57.44.52.88,1.05,1.33,1.57.67.77,1.28,1.65,2.06,2.26-.78-.62-1.39-1.5-2.06-2.26Z"/>
            <path class="cls-39" d="M209.22,147.39c2.38,2.41,5.1,4.5,7.3,7.05-2.2-2.55-4.92-4.64-7.3-7.05-4.62-4.68-8.45-9.96-11.61-15.73-.35-.63-.88-1.3-.9-1.96.01.66.55,1.32.9,1.96,3.16,5.77,6.99,11.05,11.61,15.73Z"/>
            <path class="cls-39" d="M190.28,115.06c.01-.46.04-.93.1-1.4.16-1.19.39-2.38.6-3.57-.2,1.19-.43,2.37-.6,3.57-.06.47-.09.93-.1,1.4Z"/>
            <path class="cls-39" d="M172.11,120.77c-.89-.19-1.75-.31-2.57-.46.82.15,1.68.27,2.57.46h0Z"/>
            <path class="cls-39" d="M145.49,121.63c.16.67.48,1.3.95,1.82.15.17.3.34.45.51-.15-.17-.3-.34-.45-.51-.47-.52-.8-1.15-.95-1.82Z"/>
            <path class="cls-39" d="M164.8,145.1c-.18.34-.35.7-.49,1.1-.86,2.4-1.65,4.82-2.45,7.25.8-2.43,1.59-4.86,2.45-7.25.14-.39.3-.76.49-1.1Z"/>
            <path class="cls-39" d="M159.61,117.41c-1.56-.33-3.12-.65-4.66-1.04-.95-.24-1.83-.27-2.69-.17.85-.1,1.74-.07,2.69.17,1.54.39,3.1.71,4.66,1.04Z"/>
            <path class="cls-39" d="M171.11,141.32c.64-.08,1.29-.13,1.96-.19-.67.05-1.31.11-1.96.19-2.76.33-5.02,1.41-6.3,3.78,1.28-2.37,3.55-3.45,6.3-3.78Z"/>
            <path class="cls-39" d="M157.5,257.01c.28.75.56,1.5.83,2.25.13.34.25.69.38,1.04-.12-.35-.25-.69-.38-1.04-.28-.75-.56-1.5-.83-2.25Z"/>
            <path class="cls-39" d="M138.85,204.47c.3.81.61,1.6.97,2.38.37.83.56,1.62.64,2.41-.07-.78-.26-1.58-.64-2.41-.35-.78-.67-1.57-.97-2.38Z"/>
            <path class="cls-39" d="M161.26,155.27c-.54-.01-1.08-.05-1.64-.08.55.03,1.1.07,1.64.08h0Z"/>
            <path class="cls-39" d="M153.04,235.89c-1.21-2.18-2.74-4.25-4.75-6.14h0c2.01,1.89,3.54,3.96,4.75,6.14Z"/>
            <path class="cls-39" d="M147.98,232.08c.46.78.97,1.53,1.53,2.24,2.19,2.76,3.5,5.93,4.59,9.18-1.09-3.25-2.4-6.42-4.59-9.18-.56-.7-1.07-1.46-1.53-2.24Z"/>
            <path class="cls-39" d="M136.2,194.5c-.16.63-.03,1.42.32,2.59.31,1.03.62,2.06.92,3.1-.31-1.03-.61-2.07-.92-3.1-.36-1.17-.49-1.96-.32-2.59Z"/>
            <path class="cls-39" d="M146.55,173.94c-2.33.21-3.87,1.65-5.18,3.52-.45.64-.82,1.29-1.13,1.95.31-.66.68-1.31,1.13-1.95,1.31-1.87,2.86-3.31,5.18-3.52Z"/>
            <path class="cls-39" d="M156.84,155.21c.18-.02.37-.04.55-.05-.18.01-.37.03-.55.05-3.3.42-5.37,1.33-6.66,2.92,1.29-1.58,3.36-2.49,6.66-2.92Z"/>
            <path class="cls-39" d="M139.04,189.16c.03.39.06.78.08,1.17-.02-.39-.05-.78-.08-1.17Z"/>
            <path class="cls-39" d="M226.24,169.55c.12.27.25.54.4.8-.15-.26-.28-.53-.4-.8Z"/>
            <path class="cls-39" d="M165.49,235.81c-1.06-.72-2.01-1.5-2.94-2.25.93.75,1.88,1.53,2.94,2.25h0Z"/>
            <path class="cls-39" d="M226.03,203.51c1.22-1.52,2.24-3.17,2.87-4.99-.63,1.82-1.64,3.47-2.87,4.99Z"/>
            <path class="cls-39" d="M158.58,254.74c.12.76.22,1.53.32,2.29-.1-.77-.21-1.53-.32-2.29Z"/>
            <path class="cls-39" d="M209.74,224.73c.36-1.22.81-2.39,1.42-3.5-.6,1.11-1.06,2.28-1.42,3.5Z"/>
            <path class="cls-39" d="M158.84,260.64c.12-.04.24-.07.36-.11-.12.04-.24.07-.36.11h0Z"/>
            <path class="cls-39" d="M195.96,253.44c.08-.07.16-.15.24-.23-.08.08-.16.15-.24.23h0Z"/>
            <path class="cls-39" d="M209.03,227.86h0c.04-.21.08-.43.12-.64-.04.21-.08.42-.12.64Z"/>
            <path class="cls-39" d="M225.49,207.34c-.52.65-1,1.25-1.45,1.83.46-.57.93-1.18,1.45-1.83Z"/>
            <path class="cls-39" d="M156.66,254.77c-.08-.21-.14-.42-.19-.63.05.21.11.42.19.63Z"/>
            <path class="cls-39" d="M212.38,222.9c-.53.75-1.02,1.53-1.51,2.31.49-.78.98-1.56,1.51-2.31Z"/>
            <path class="cls-39" d="M221.48,160.79c.63.87,1.25,1.75,1.87,2.63-.61-.88-1.24-1.76-1.87-2.63Z"/>
            <path class="cls-39" d="M194.8,125.51c.87.92,1.6,2,1.84,3.35-.24-1.35-.96-2.43-1.84-3.35Z"/>
            <path class="cls-39" d="M178.05,103.38c1.55-1.41,3.55-2.44,5.68-2.63-2.14.19-4.14,1.22-5.68,2.63Z"/>
            <path class="cls-39" d="M157.62,230.53c.57.19,1.1.43,1.6.7-.51-.27-1.04-.51-1.6-.7-3.07-1.03-6.2-1.95-9.14-3.3-.54-.25-1.1-.5-1.64-.79.54.29,1.1.54,1.64.79,2.94,1.34,6.07,2.26,9.14,3.3Z"/>
            <path class="cls-39" d="M224.43,165.01c.68,1.11,1,2.45,1.47,3.71-.47-1.26-.79-2.6-1.47-3.71Z"/>
            <path class="cls-39" d="M172.24,119.81c.11-.74.21-1.46.27-2.18-.06.72-.17,1.44-.27,2.18Z"/>
            <path class="cls-39" d="M140.03,215.92c0-.34,0-.69.02-1.03-.01.34-.02.68-.02,1.03Z"/>
            <path class="cls-39" d="M145.85,228.66c-1.05-1.2-2.31-2.18-3.41-3.33,1.1,1.14,2.36,2.13,3.41,3.33Z"/>
            <path class="cls-39" d="M156.35,253.49c-.28-1.56-.49-3.14-.78-4.69.29,1.55.5,3.13.78,4.69Z"/>
            <path class="cls-39" d="M148.83,117.12c.97-.34,1.93-.67,2.94-.85-1.01.18-1.97.51-2.94.85Z"/>
            <path class="cls-39" d="M147.46,170.44c-.15,1.15-.29,2.31-.44,3.48h0c.15-1.17.29-2.33.44-3.48Z"/>
            <path class="cls-39" d="M226.83,171.72h0c2.3,2.82,4.24,5.49,4.01,9.01-.16,2.49-.38,4.97-.6,7.46.23-2.48.44-4.97.6-7.46.23-3.52-1.71-6.19-4.01-9.01Z"/>
            <path class="cls-39" d="M206.03,199.37c.44-.28.88-.57,1.31-.88.77-.56,1.51-1.14,2.23-1.73-.72.6-1.47,1.18-2.23,1.73-.43.31-.87.61-1.31.88Z"/>
            <path class="cls-39" d="M215.59,190.93c2.48-2.77,4.75-5.73,6.92-8.77,1.48-2.06,2.89-4.2,3.68-6.73-.79,2.52-2.21,4.67-3.68,6.73-2.18,3.04-4.44,6.01-6.92,8.77Z"/>
            <path class="cls-39" d="M194.49,204.45c.53-.19,1.07-.4,1.6-.61.12-.05.24-.1.36-.15-.12.05-.24.1-.36.15-.53.22-1.07.42-1.6.61Z"/>
            <path class="cls-39" d="M141.49,194.5c-.5.02-1.03.02-1.54.07.51-.05,1.04-.04,1.54-.07.33-.01.72.28,1,.53.82.74,1.65,1.47,2.41,2.27-.75-.8-1.59-1.53-2.41-2.27-.28-.25-.67-.55-1-.53Z"/>
            <path class="cls-39" d="M198.78,248.58c-1.32,1.27-2.14,3.08-3.18,4.64.1.06.21.13.31.19-.1-.06-.21-.13-.31-.19,1.05-1.56,1.86-3.36,3.18-4.64Z"/>
            <path class="cls-39" d="M226.8,222.71c-.83,1.67-1.97,3.18-3.46,4.49-.97.85-1.95,1.7-2.92,2.55.97-.85,1.95-1.7,2.92-2.55,1.49-1.31,2.63-2.82,3.46-4.49Z"/>
            <path class="cls-39" d="M209.19,227.68c.19-.21.36-.44.52-.67-.15.23-.32.46-.52.67Z"/>
            <path class="cls-39" d="M198.92,250.76c-.35.27-.68.57-1.01.86.33-.3.66-.59,1.01-.86,2.4-1.89,4.93-3.6,7.26-5.57,1.1-.93,2.18-1.86,3.27-2.8-1.09.94-2.17,1.87-3.27,2.8-2.32,1.97-4.86,3.69-7.26,5.57Z"/>
            <path class="cls-39" d="M214.32,238.16c2.71-2.36,5.41-4.71,8.15-7.03.95-.8,1.84-1.64,2.67-2.52-.82.88-1.72,1.72-2.67,2.52-2.74,2.32-5.44,4.68-8.15,7.03Z"/>
            <path class="cls-39" d="M138.8,197.5c.51,1.54,1.03,3.08,1.57,4.62-.54-1.53-1.06-3.07-1.57-4.62-.27-.82-.55-2.3-.2-2.53.14-.09.3-.16.46-.22-.16.06-.32.13-.46.22-.35.23-.08,1.71.2,2.53Z"/>
            <path class="cls-39" d="M230.69,217.67c.29-2.23-.11-4.29-1.74-6.21-.92-1.08-1.7-2.28-2.49-3.48.79,1.2,1.57,2.4,2.49,3.48,1.63,1.93,2.03,3.98,1.74,6.21Z"/>
            <path class="cls-39" d="M233.02,185.47c-.22,4.96-.99,9.84-2.52,14.56,1.53-4.72,2.3-9.6,2.52-14.56.08-1.9.23-3.85-.03-5.71.26,1.86.11,3.81.03,5.71Z"/>
            <path class="cls-39" d="M142.03,215.27c.07-.58.19-1.17.36-1.75.25-.87.4-1.72.44-2.58-.04.85-.19,1.71-.44,2.58-.17.59-.29,1.17-.36,1.75Z"/>
            <path class="cls-39" d="M143.82,224.07c-.32-.42-.58-.89-.77-1.42-.32-.91-.6-1.84-.79-2.79.2.94.47,1.87.79,2.79.19.53.45,1,.77,1.42Z"/>
            <path class="cls-44" d="M57.24,35.24c7.69,90.56,15.38,181.11,23.07,271.63,70.51-5.99,141.01-11.98,211.5-17.96-7.69-90.58-15.38-181.11-23.07-271.63-70.52,5.99-141.01,11.97-211.5,17.96ZM173.73,91.73c1.99-1.88,3.7-4.11,6.41-5.08.23-.08.54-.29.67-.21,1.77,1.1,3.73,2.02,5.19,3.45.8.78-.44,1.61-1.36,2.05-3.52,1.67-7.07,3.31-10.53,5.09-1.27.65-2.33,1.7-3.76,2.77.39-3.23,1.15-5.97,3.39-8.08ZM141.06,84.8c.5-.52,1.33-.84,2.06-1,2.55-.54,5-.3,7.19,1.31.56.41,1.15.79,1.91,1.3-.07-.38-.07-.53-.13-.63-4.03-6.5-.57-13.43,5.12-16.12,1.6-.75,3.44-.86,5.08.02,3.49,1.87,5.58,4.78,6.18,8.75.67,4.45-.16,8.8-1.2,13.03-.75,3.05-2.41,5.9-3.89,8.73-1.36,2.6-1.38,2.25-4.25,1.25-4.1-1.43-8.34-2.44-12.55-3.53-2.31-.6-4.37-1.5-5.89-3.45-2.11-2.71-2.02-7.2.37-9.64ZM139.6,103.39c1.74-.36,3.53-.79,5.28-.73,2.3.08,4.6.57,6.89.95,2.41.4,3.22,2.45,4.24,4.32-3.54-1.55-6.73-.18-9.95.83-1.61.51-3.21,1.04-4.83,1.53-1.4.43-2.08-.25-2.31-1.57-.19-1.05-.33-2.11-.59-3.14-.3-1.19.18-1.96,1.27-2.19ZM231.07,246.37c-.7,3.78-1.78,7.53-3.04,11.17-.7,2.03-1.37,4.18-3.34,5.66-.86.65-1.17,2.2-1.46,3.41-.75,3.14-1.35,6.33-2.02,9.49-.07.31-.18.61-.27.92-.1,0-.2,0-.3-.01-.08-.98-.3-1.97-.23-2.94.25-3.26,1.22-6.33,2.44-9.38,2.16-5.39,4.22-10.83,6.01-16.35,1.13-3.5.85-7.16.27-10.81-.49-3.1-.58-6.26-.85-9.47.18.1.38.13.4.22.93,3.2,2.18,6.35,2.65,9.61.4,2.77.24,5.73-.27,8.49ZM233.02,185.47c-.22,4.96-.99,9.84-2.52,14.56-.11.33-.22.65-.35.97-.9,2.21-2.38,4.07-4.67,5.5.34.49.66.98.98,1.47.79,1.2,1.57,2.4,2.49,3.48,1.63,1.93,2.03,3.98,1.74,6.21-.07.51-.17,1.04-.3,1.57-.38,1.54-.93,2.96-1.61,4.29-.27.53-.57,1.05-.89,1.55-.79,1.26-1.72,2.42-2.75,3.52-.82.88-1.72,1.72-2.67,2.52-2.74,2.32-5.44,4.68-8.15,7.03-1.62,1.41-3.25,2.83-4.88,4.23-1.09.94-2.17,1.87-3.27,2.8-2.32,1.97-4.86,3.69-7.26,5.57-.35.27-.68.57-1.01.86-.58.52-1.14,1.06-1.71,1.59-.08.08-.16.15-.24.23h0s-.03-.02-.05-.03c-.1-.06-.21-.13-.31-.19,1.05-1.56,1.86-3.36,3.18-4.64,2.86-2.75,5.98-5.22,8.98-7.82,4.23-3.66,8.45-7.33,12.66-11.01.97-.85,1.95-1.7,2.92-2.55,1.49-1.31,2.63-2.82,3.46-4.49.83-1.67,1.34-3.49,1.59-5.4.21-1.59-.22-3.35-.69-4.93-.43-1.44-1.16-2.79-1.89-4.36-.11-.22-.21-.45-.32-.68-.52.65-1,1.25-1.45,1.83s-.89,1.11-1.35,1.64c-3.16,3.67-6.38,7.28-9.48,11-.29.35-.57.72-.83,1.09-.53.75-1.02,1.53-1.51,2.31-.25.39-.49.78-.75,1.16-.14.21-.27.43-.41.64-.15.23-.32.46-.52.67-.05.06-.1.12-.16.17h0s0,0,0,0c.04-.21.08-.43.12-.64.16-.85.36-1.68.6-2.49.36-1.22.81-2.39,1.42-3.5.1-.19.2-.37.31-.55.44-.73.94-1.43,1.53-2.09,3.2-3.63,6.38-7.27,9.53-10.95,1.05-1.22,2.09-2.45,3.13-3.68.13-.15.25-.3.37-.45,1.22-1.52,2.24-3.17,2.87-4.99.31-.91.53-1.87.62-2.87.23-2.48.48-4.97.71-7.45.23-2.48.44-4.97.6-7.46.23-3.52-1.71-6.19-4.01-9.01-.04,1.33-.27,2.56-.63,3.71-.79,2.52-2.21,4.67-3.68,6.73-2.18,3.04-4.44,6.01-6.92,8.77-.62.69-1.26,1.37-1.91,2.03-1.3,1.33-2.67,2.6-4.11,3.79-.72.6-1.47,1.18-2.23,1.73-.43.31-.87.61-1.31.88-3,1.87-6.31,3-9.58,4.31-.12.05-.24.1-.36.15-.53.22-1.07.42-1.6.61-1.07.39-2.14.73-3.22,1.04-3.23.91-6.5,1.45-9.8,1.69-1.1.08-2.2.13-3.31.14-2.77.04-5.56-.12-8.38-.44-3.08-.35-6.18-.56-9.24-1.04-1.51-.24-2.97-.57-4.37-1.02-4.2-1.34-7.89-3.67-10.95-7.17-.1-.12-.21-.23-.32-.34-.75-.8-1.59-1.53-2.41-2.27-.28-.25-.67-.55-1-.53-.5.02-1.03.02-1.54.07-.32.03-.62.09-.89.19-.16.06-.32.13-.46.22-.35.23-.08,1.71.2,2.53.51,1.54,1.03,3.08,1.57,4.62.54,1.53,1.11,3.06,1.71,4.56.34.86.57,1.71.67,2.55.07.57.09,1.13.07,1.7-.04.85-.19,1.71-.44,2.58-.17.59-.29,1.17-.36,1.75-.2,1.55-.08,3.09.23,4.6.2.94.47,1.87.79,2.79.19.53.45,1,.77,1.42.68.9,1.61,1.58,2.62,2.15.13.08.27.15.41.22.54.29,1.1.54,1.64.79,2.94,1.34,6.07,2.26,9.14,3.3.57.19,1.1.43,1.6.7.17.09.34.19.5.28.99.59,1.9,1.31,2.83,2.05s1.88,1.53,2.94,2.25h0s0,0,0,0c-2.21-.78-4.36-1.54-6.49-2.29-2.13-.75-4.25-1.5-6.39-2.25-1.43-.5-2.87-1.01-4.33-1.53,2.01,1.89,3.54,3.96,4.75,6.14,2.66,4.8,3.75,10.15,4.93,15.44.17.75.31,1.51.44,2.27.06.38.12.76.18,1.14.12.76.22,1.53.32,2.29s.2,1.53.31,2.3c.05.38.11.76.17,1.15-.06.02-.12.04-.18.06-.12.04-.24.07-.36.11h0c-.04-.12-.08-.23-.13-.35-.12-.35-.25-.69-.38-1.04-.28-.75-.56-1.5-.83-2.25-.19-.5-.37-1-.56-1.5-.09-.25-.19-.5-.28-.75-.08-.21-.14-.42-.19-.63,0-.04-.02-.08-.03-.13-.03-.17-.06-.35-.09-.52-.28-1.56-.49-3.14-.78-4.69-.06-.35-.13-.69-.21-1.03-.15-.68-.32-1.36-.53-2.02-.16-.5-.32-1-.48-1.5-.08-.25-.17-.5-.25-.75-1.09-3.25-2.4-6.42-4.59-9.18-.56-.7-1.07-1.46-1.53-2.24-.28-.47-.54-.94-.78-1.43-.29-.6-.65-1.13-1.05-1.63-.1-.12-.2-.25-.31-.37-1.05-1.2-2.31-2.18-3.41-3.33-.11-.11-.22-.23-.32-.35-.91-1.02-1.55-2.04-1.58-3.46-.02-.96-.4-1.9-.43-2.86-.01-.46-.03-.91-.05-1.37-.01-.46-.03-.92-.03-1.37,0-.34,0-.69.02-1.03.02-.57.06-1.14.14-1.7.17-1.22.35-2.38.29-3.55,0-.13-.02-.26-.03-.39-.07-.78-.26-1.58-.64-2.41-.35-.78-.67-1.57-.97-2.38-.52-1.41-.96-2.85-1.4-4.3-.31-1.03-.61-2.07-.92-3.1-.36-1.17-.49-1.96-.32-2.59.21-.81.91-1.35,2.25-2.09.33-.18.66-.68.68-1.04.02-.34.01-.69,0-1.03-.02-.39-.05-.78-.08-1.17-.02-.18-.03-.37-.05-.55-.26-3.21-.1-6.32,1.24-9.19.31-.66.68-1.31,1.13-1.95,1.31-1.87,2.86-3.31,5.18-3.52.16-.01.31-.02.48-.03.15-1.17.29-2.33.44-3.48.15-1.15.29-2.29.44-3.44.1-.77.2-1.54.3-2.31.1-.77.21-1.54.32-2.3.27-1.78.79-3.18,1.67-4.26,1.29-1.58,3.36-2.49,6.66-2.92.18-.02.37-.04.55-.05.74-.05,1.49-.01,2.22.03.55.03,1.1.07,1.64.08.2-.61.4-1.22.61-1.82.8-2.43,1.59-4.86,2.45-7.25.14-.39.3-.76.49-1.1,1.28-2.37,3.55-3.45,6.3-3.78.64-.08,1.29-.13,1.96-.19.67-.05,1.35-.1,2.07-.16l-.04-.42c-1.98.47-4.06.18-6.04-.47-2.17-.56-4.16-1.78-6.13-3-3.17-1.95-6.26-4.03-9.32-6.14-.44-.3-.88-.6-1.31-.9-.07-.05-.14-.11-.22-.16-.78-.62-1.39-1.5-2.06-2.26-.45-.52-.89-1.04-1.33-1.57-.59-.7-1.18-1.4-1.78-2.08-.15-.17-.3-.34-.45-.51-.47-.52-.8-1.15-.95-1.82-.13-.56-.15-1.14-.05-1.69s.33-1.08.68-1.53c.2-.26.46-.57.75-.65.33-.09.65-.2.98-.31s.65-.22.97-.34c.97-.34,1.93-.67,2.94-.85.17-.03.34-.05.51-.07.85-.1,1.74-.07,2.69.17,1.54.39,3.1.71,4.66,1.04,2.59.55,5.17,1.16,7.64,2.25.71.32,1.48.5,2.29.65.82.15,1.68.27,2.57.46.04-.33.08-.65.13-.96.11-.74.21-1.46.27-2.18.02-.2.04-.41.05-.61.18-3.96,1.5-7.61,3.37-10.99.47-.84,1.09-1.66,1.84-2.39.09-.09.19-.18.28-.27,1.55-1.41,3.55-2.44,5.68-2.63.93-.08,1.89,0,2.85.27,3.51,1.01,5.13,3.28,4.72,6.94-.08.72-.2,1.43-.32,2.14-.2,1.19-.43,2.37-.6,3.57-.06.47-.09.93-.1,1.4-.04,2.01.39,3.95,1.1,5.86.51,1.36,1.12,2.51,2.32,3.55.28.24.56.5.83.77.09.09.18.18.27.27.87.92,1.6,2,1.84,3.35.05.27.07.55.08.84.01.66.55,1.32.9,1.96,3.16,5.77,6.99,11.05,11.61,15.73,2.38,2.41,5.1,4.5,7.3,7.05,1.4,1.63,2.73,3.32,4.01,5.05.32.43.64.87.95,1.3.63.87,1.25,1.75,1.87,2.63.31.44.61.88.92,1.33.06.08.1.17.16.26.68,1.11,1,2.45,1.47,3.71.07.19.15.38.23.57.04.09.08.18.12.27.12.27.25.54.4.8.2.34.43.66.71.92,2,1.88,4.04,3.76,5.06,6.27.08.19.15.39.22.59.13.4.24.82.31,1.25.02.12.03.25.05.37.26,1.86.11,3.81.03,5.71Z"/>
            <path class="cls-39" d="M189.15,108.77c.04-.19.07-.37.1-.56.05-.3.08-.6.09-.89-.01.29-.04.58-.09.89-.03.19-.07.37-.1.56Z"/>
            <path class="cls-39" d="M190.48,122.77h0c-1.73-2.22-2.25-4.7-2.24-7.28-.01,2.58.51,5.06,2.24,7.28Z"/>
            <path class="cls-39" d="M174.34,121.21c-.03-3.66.26-7.13,1.67-10.44.21-.5.43-1.01.65-1.5-.22.5-.44,1-.65,1.5-1.41,3.31-1.7,6.79-1.67,10.44,2.8.29,5.44.58,8.09.83,1,.1,2.01.19,3.01.28-1-.09-2.01-.18-3.01-.28-2.65-.26-5.29-.54-8.09-.83Z"/>
            <path class="cls-39" d="M182.24,103.19c.55-.2,1.12-.32,1.68-.37-.57.05-1.13.17-1.68.37Z"/>
            <path class="cls-39" d="M200.96,172.62c.83,1,1.68,2.01,2.53,3.06,0,0,0,0,0,0-.85-1.05-1.69-2.06-2.53-3.06Z"/>
            <path class="cls-39" d="M141.82,192.75c.1.1.22.2.33.27-.11-.08-.22-.17-.33-.27Z"/>
            <path class="cls-39" d="M170,160.88c.07-.62.15-1.26.24-2.01h0c-.09.75-.17,1.39-.24,2.01Z"/>
            <path class="cls-39" d="M158.6,157.24c.25,0,.49,0,.73,0-.24,0-.48,0-.73,0Z"/>
            <path class="cls-39" d="M153.78,183.4c-.17-.38-.34-.76-.51-1.14-.07-.15-.13-.29-.2-.43.07.14.14.29.2.43.17.38.34.76.51,1.14Z"/>
            <path class="cls-39" d="M151.02,178.71c-.73-.79-1.61-1.45-2.69-1.94-.79-.35-1.42-.52-2-.48.58-.04,1.21.13,2,.48,1.08.48,1.96,1.15,2.69,1.94Z"/>
            <path class="cls-39" d="M160.11,197.11c.28.35.6.66.97.94-.36-.28-.69-.59-.97-.94Z"/>
            <path class="cls-39" d="M172.08,166.52c.02.07.04.14.08.19.41.7.81,1.39,1.21,2.1-.4-.7-.8-1.4-1.21-2.1-.03-.06-.06-.12-.08-.19Z"/>
            <path class="cls-39" d="M196.94,170.47c.62.57,1.27,1.11,1.94,1.64-.67-.53-1.32-1.08-1.94-1.64-3.8-3.44-6.06-8-8.74-12.28-.21-.33-.42-.67-.64-1,.21.33.43.66.64,1,2.68,4.27,4.94,8.84,8.74,12.28Z"/>
            <path class="cls-39" d="M172.96,160.13c-.13-.03-.26-.05-.4-.08.13.03.26.05.4.08-.3,1.8-.61,3.59-.88,5.39-.01.1-.03.2-.04.31,0-.11.02-.21.04-.31.27-1.8.58-3.59.88-5.39Z"/>
            <path class="cls-39" d="M175.08,136.43c.2.42.39.85.59,1.28-.2-.43-.39-.85-.59-1.28h0Z"/>
            <path class="cls-39" d="M143.12,194.6h0c.1.29.1.53.2.59,2.16,1.29,4.25,2.74,6.39,4.08-2.14-1.34-4.23-2.8-6.39-4.08-.1-.06-.11-.29-.2-.59Z"/>
            <path class="cls-39" d="M144.11,177.46c.18-.17.35-.31.52-.44-.17.13-.34.28-.52.44-2.54,2.34-3.02,5.47-3.18,8.63-.04.84-.02,1.69.04,2.54-.06-.85-.09-1.7-.04-2.54.16-3.17.64-6.29,3.18-8.63Z"/>
            <path class="cls-39" d="M163.68,155.49c.59-2.25,1.2-4.5,1.9-6.71.54-1.7,1.16-3.4,2.81-4.4-1.65,1-2.27,2.7-2.81,4.4-.71,2.21-1.31,4.46-1.9,6.71-.1.4-.07,1.03.18,1.29-.25-.26-.29-.9-.18-1.29Z"/>
            <path class="cls-39" d="M143.53,194.74c.82.28,1.61.55,2.37.81-.76-.26-1.55-.53-2.37-.81Z"/>
            <path class="cls-39" d="M149.95,175.03c-.08-.07-.15-.16-.21-.26.06.1.13.19.21.26,1.02.93,2.19,1.7,3.45,2.64h0c-1.26-.95-2.43-1.71-3.45-2.64Z"/>
            <path class="cls-39" d="M162.56,158.29c1.88,2.02,4.14,3.81,5.54,6.13,1.2,1.99,2.36,4,3.48,6.04-1.13-2.03-2.29-4.05-3.48-6.04-1.4-2.31-3.66-4.11-5.54-6.13-.16-.17-.37-.32-.58-.44-.63-.38-1.58-.57-2.65-.6,1.07.04,2.02.23,2.65.6.21.12.42.26.58.44Z"/>
            <path class="cls-39" d="M179.8,184.74c-1.08-1.19-2.09-2.46-2.84-3.99-1.37-2.78-2.79-5.53-4.26-8.26,1.47,2.73,2.89,5.49,4.26,8.26.76,1.53,1.76,2.8,2.84,3.99Z"/>
            <path class="cls-39" d="M181.85,186.17c.43.69.89,1.37,1.27,2.09,0,0,0,0,0,0-.39-.72-.84-1.41-1.28-2.1Z"/>
            <path class="cls-39" d="M154.81,180.63c-.04-.1-.08-.2-.1-.31.02.11.06.22.1.31,1.94,4.38,3.88,8.77,5.9,13.11.21.46.44.91.67,1.36-.24-.45-.46-.9-.67-1.36-2.02-4.35-3.96-8.73-5.9-13.11Z"/>
            <path class="cls-39" d="M180.21,146.41c.45.65.9,1.3,1.35,1.95-.45-.65-.9-1.3-1.35-1.95-.49-.71-1.11-1.29-1.81-1.74.7.45,1.32,1.03,1.81,1.74Z"/>
            <path class="cls-39" d="M203.14,198.58c.55-.3,1.08-.62,1.61-.97,1.06-.71,2.08-1.46,3.07-2.23-.99.78-2.02,1.52-3.07,2.23-.52.35-1.06.67-1.61.97Z"/>
            <path class="cls-39" d="M155.55,173.06h0c.14.04.29.07.43.11-.11.51-.22,1.02-.33,1.53.11-.51.22-1.02.33-1.53-.14-.04-.29-.07-.43-.11Z"/>
            <path class="cls-39" d="M162.91,197.88c.27.48.55.98.83,1.5h0c-.28-.52-.56-1.02-.83-1.5Z"/>
            <path class="cls-39" d="M146.44,195.36c.45.27.9.54,1.34.84h0c-.44-.3-.89-.57-1.34-.84Z"/>
            <path class="cls-39" d="M154.82,174.62c-.44.94-.87,1.87-1.29,2.78.42-.9.85-1.83,1.29-2.78Z"/>
            <path class="cls-39" d="M151.27,160.64c.06-.21.15-.41.24-.6-.1.19-.18.39-.24.6Z"/>
            <path class="cls-39" d="M155.36,118.72c-.49-.08-.98-.16-1.46-.24-.42-.07-.84-.08-1.28-.05.43-.03.86-.02,1.28.05.49.08.98.16,1.46.24Z"/>
            <path class="cls-39" d="M148.32,122.63c-.24-.34-.41-.73-.56-1.13.15.4.32.79.56,1.13Z"/>
            <path class="cls-39" d="M161.2,119.92c.96.24,1.92.5,2.86.79-.94-.29-1.9-.55-2.86-.79Z"/>
            <path class="cls-39" d="M168.81,144.14c.83-.4,1.93-.69,3.12-.81-1.2.12-2.3.4-3.12.81Z"/>
            <path class="cls-39" d="M149.52,124.04c3.51,3.95,7.5,7.34,12.25,9.8.32.17.64.35.94.54-.31-.19-.62-.38-.94-.54-4.75-2.46-8.74-5.85-12.25-9.8Z"/>
            <path class="cls-39" d="M163.64,134.97c.61.4,1.23.79,1.88,1.1.23.11.47.22.71.33-.24-.11-.48-.22-.71-.33-.65-.31-1.27-.7-1.88-1.1Z"/>
            <path class="cls-39" d="M219.98,161.49c-1.79-2.15-3.57-4.3-5.42-6.4-.25-.28-.51-.55-.77-.81.27.26.53.53.77.81,1.85,2.1,3.63,4.25,5.42,6.4Z"/>
            <path class="cls-39" d="M175.07,140.13h0c-.1-1.13-.2-2.38-.31-3.64.02,0,.04,0,.06-.01-.02,0-.04,0-.06.01.11,1.26.21,2.51.31,3.64Z"/>
            <path class="cls-39" d="M171.31,163.17c.53-1.31.89-2.21,1.25-3.11-.36.9-.72,1.8-1.25,3.11h0Z"/>
            <path class="cls-39" d="M170.9,161.51c-.11-.43-.21-.85-.32-1.29.11.43.21.85.32,1.29Z"/>
            <path class="cls-39" d="M187.61,124.58c-2.08-.33-4.21-.36-6.32-.53-2.68-.22-5.34-.51-7.98-.95,2.64.45,5.3.73,7.98.95,2.11.18,4.24.21,6.32.53Z"/>
            <path class="cls-39" d="M169.78,162.73h0c-2.13-2.12-4.06-4-5.92-5.94,1.86,1.95,3.8,3.83,5.92,5.94Z"/>
            <path class="cls-29" d="M174.76,136.49s.04,0,.06-.01c.09-.02.17-.03.26-.05h0c.2.42.39.85.59,1.28.6,1.29,1.22,2.63,1.94,4.18,3.35,1.16,5.42,4.38,7.48,7.53,3.62,5.51,6.99,11.18,10.71,16.62,1.55,2.27,3.33,4.39,5.16,6.58.83,1,1.68,2.01,2.53,3.06,0,0,0,0,0,0,0,0,0,0,0,0-1.6-1.26-3.15-2.39-4.61-3.57-.67-.53-1.32-1.08-1.94-1.64-3.8-3.44-6.06-8-8.74-12.28-.21-.33-.42-.67-.64-1-1.92-2.99-3.97-5.91-6-8.83-.45-.65-.9-1.3-1.35-1.95-.49-.71-1.11-1.29-1.81-1.74-.12-.08-.24-.15-.36-.22-1.82-1.03-4.11-1.32-6.11-1.13-1.2.12-2.3.4-3.12.81-.09.04-.18.09-.27.14-.06.03-.11.06-.16.1-1.65,1-2.27,2.7-2.81,4.4-.71,2.21-1.31,4.46-1.9,6.71-.1.4-.07,1.03.18,1.29,1.86,1.95,3.8,3.83,5.92,5.94.08-.64.15-1.23.22-1.85.07-.62.15-1.26.24-2.01h0s0,0,0,0c.12.48.23.92.34,1.36.11.43.21.85.32,1.29.13.52.26,1.06.41,1.66.53-1.31.89-2.21,1.25-3.11.13.03.26.05.4.08-.3,1.8-.61,3.59-.88,5.39-.01.1-.03.2-.04.31-.02.24-.02.49.04.69.02.07.04.14.08.19.41.7.81,1.39,1.21,2.1,2.78,4.91,5.24,9.97,7.34,15.23.3.74.71,1.44,1.14,2.13.43.69.89,1.37,1.28,2.1,0,0,0,0,0,0,0,0,0,0,0,0-1.07-1.21-2.23-2.32-3.32-3.52-1.08-1.19-2.09-2.46-2.84-3.99-1.37-2.78-2.79-5.53-4.26-8.26-.37-.68-.74-1.36-1.12-2.04-1.13-2.03-2.29-4.05-3.48-6.04-1.4-2.31-3.66-4.11-5.54-6.13-.16-.17-.37-.32-.58-.44-.63-.38-1.58-.57-2.65-.6-.24,0-.48,0-.73,0s-.5.02-.76.04c-2.42.2-5.01,1.04-5.99,2.22-.13.16-.24.34-.34.54s-.18.39-.24.6c-.04.14-.07.28-.09.41-.63,4.11-1.23,8.23-1.77,12.36-.05.41.08.97.33,1.35.06.1.13.19.21.26,1.02.93,2.19,1.7,3.45,2.64.04-.09.09-.19.13-.28.42-.9.85-1.83,1.29-2.78.24-.52.48-1.04.73-1.56h0s0,0,0,0c.14.04.29.07.43.11-.11.51-.22,1.02-.33,1.53-.33,1.53-.66,3.06-.95,4.6-.06.32-.07.69,0,1.02.02.11.06.22.1.31,1.94,4.38,3.88,8.77,5.9,13.11.21.46.44.91.67,1.36.47.9.98,1.81,1.52,2.78.27.48.55.98.83,1.5h0s0,0,0,0c-.78-.27-1.48-.57-2.08-.94-.2-.12-.39-.25-.58-.39-.36-.28-.69-.59-.97-.94s-.52-.74-.72-1.17c-1.9-4.16-3.72-8.36-5.6-12.54-.17-.38-.34-.76-.51-1.14-.07-.15-.13-.29-.2-.43-.14-.29-.28-.57-.43-.85-.46-.83-.98-1.6-1.61-2.27-.73-.79-1.61-1.45-2.69-1.94-.79-.35-1.42-.52-2-.48-.5.03-.96.21-1.45.55-.08.06-.16.12-.25.18-.17.13-.34.28-.52.44-2.54,2.34-3.02,5.47-3.18,8.63-.04.84-.02,1.69.04,2.54.08,1.09.21,2.18.34,3.26.03.28.24.6.51.86.1.1.22.2.33.27.06.04.11.07.17.1,1.37.74,2.76,1.43,4.12,2.23.45.27.9.54,1.34.84h0s0,0,0,0c-.62-.21-1.25-.43-1.89-.65-.76-.26-1.55-.53-2.37-.81-.14-.05-.27-.09-.41-.14.1.29.1.53.2.59,2.16,1.29,4.25,2.74,6.39,4.08,2.76,1.72,5.61,3.23,8.85,3.91,4.53.95,9.2,1.22,13.83,1.7,3.06.31,6.11.42,9.14.2,2.36-.17,4.71-.54,7.03-1.16,1.77-.47,3.54-1,5.25-1.65,3.13-1.17,6.37-2.07,9.32-3.68.55-.3,1.08-.62,1.61-.97,1.05-.71,2.08-1.46,3.07-2.23,2.97-2.34,5.64-4.99,7.93-8.04,2.26-3.02,4.46-6.11,6.5-9.28,2.25-3.49,2.54-7.83,1.05-11.58-.5-1.25-1.19-2.43-2.07-3.49-.41-.5-.82-.99-1.24-1.49-1.79-2.15-3.57-4.3-5.42-6.4-.25-.28-.51-.55-.77-.81-.8-.78-1.68-1.5-2.49-2.28-5.43-5.26-11.05-10.31-13.93-17.64-.39-1-.89-1.97-1.44-2.91-.55-.94-1.15-1.86-1.75-2.78-.4-.61-.8-1.22-1.19-1.84-.3-.48-.89-.86-1.46-1.12-.08-.04-.16-.07-.24-.11-1-.42-2.02-.7-3.06-.9-.21-.04-.42-.07-.62-.11-2.08-.33-4.21-.36-6.32-.53-2.68-.22-5.34-.51-7.98-.95-.33-.06-.66-.11-.99-.18-2.3-.43-4.59-.99-6.85-1.76-.47-.16-.94-.31-1.41-.45-.95-.29-1.9-.55-2.86-.79-.48-.12-.96-.23-1.45-.34-1.45-.33-2.92-.61-4.38-.86-.49-.08-.98-.16-1.46-.24-.42-.07-.84-.08-1.28-.05-.43.03-.87.1-1.31.18-.22.04-.44.09-.66.14-.66.15-1.33.33-1.98.46-1.06.22-1.34,1.05-1,2.03.03.08.06.16.09.25.15.4.32.79.56,1.13.04.06.08.12.12.17.35.42.71.83,1.08,1.24,3.51,3.95,7.5,7.34,12.25,9.8.32.17.64.35.94.54s.61.39.92.59c.61.4,1.23.79,1.88,1.1.24.11.48.22.71.33,2.64,1.2,6.22,2.6,8.84,3.73-.1-1.13-.2-2.38-.31-3.64Z"/>
            <path class="cls-37" d="M175.07,140.13h0c.01.14.02.28.04.42h0l-.04-.42Z"/>
            <path class="cls-37" d="M232.99,179.76c-.02-.12-.03-.25-.05-.37-.08-.44-.18-.85-.31-1.25-.07-.2-.14-.4-.22-.59-1.02-2.51-3.06-4.39-5.06-6.27-.28-.26-.51-.58-.71-.92-.15-.26-.28-.53-.4-.8-.04-.09-.08-.18-.12-.27-.08-.19-.16-.38-.23-.57-.47-1.26-.79-2.6-1.47-3.71-.05-.09-.1-.17-.16-.26-.3-.44-.61-.88-.92-1.33-.61-.88-1.24-1.76-1.87-2.63-.32-.44-.63-.87-.95-1.3-1.28-1.73-2.61-3.42-4.01-5.05-2.2-2.55-4.92-4.64-7.3-7.05-4.62-4.68-8.45-9.96-11.61-15.73-.35-.63-.88-1.3-.9-1.96,0-.29-.03-.57-.08-.84-.24-1.35-.96-2.43-1.84-3.35-.09-.09-.18-.18-.27-.27-.27-.27-.55-.52-.83-.77-1.2-1.04-1.81-2.19-2.32-3.55-.71-1.91-1.15-3.86-1.1-5.86.01-.46.04-.93.1-1.4.16-1.19.39-2.38.6-3.57.12-.71.24-1.43.32-2.14.42-3.66-1.2-5.93-4.72-6.94-.96-.27-1.92-.35-2.85-.27-2.14.19-4.14,1.22-5.68,2.63-.1.09-.19.18-.28.27-.74.73-1.37,1.54-1.84,2.39-1.87,3.38-3.19,7.03-3.37,10.99,0,.2-.03.41-.05.61-.06.72-.17,1.44-.27,2.18-.05.32-.09.64-.13.96h0s0,0,0,0c-.89-.19-1.75-.31-2.57-.46-.81-.15-1.58-.33-2.29-.65-2.47-1.1-5.05-1.7-7.64-2.25-1.56-.33-3.12-.65-4.66-1.04-.95-.24-1.83-.27-2.69-.17-.17.02-.34.04-.51.07-1.01.18-1.97.51-2.94.85-.32.11-.64.23-.97.34s-.65.21-.98.31c-.29.08-.55.39-.75.65-.35.45-.58.97-.68,1.53s-.09,1.13.05,1.69c.16.67.48,1.3.95,1.82.15.17.3.34.45.51.6.68,1.19,1.38,1.78,2.08.44.52.88,1.05,1.33,1.57.67.77,1.28,1.65,2.06,2.26.07.06.14.11.22.16.44.3.88.6,1.31.9,3.07,2.11,6.16,4.19,9.32,6.14,1.74,1.07,3.88,2.26,6.13,3,1.59.41,3.28.46,5.12-.13-2.64-1.18-5.32-2.32-7.96-3.56-.25-.11-.49-.22-.71-.33-.65-.31-1.27-.7-1.88-1.1-.31-.2-.61-.4-.92-.59s-.62-.38-.94-.54c-4.75-2.46-8.74-5.85-12.25-9.8-.36-.41-.72-.82-1.08-1.24-.05-.05-.08-.12-.12-.17-.24-.34-.41-.73-.56-1.13-.03-.08-.06-.16-.09-.25-.35-.98-.07-1.81,1-2.03.65-.13,1.31-.31,1.98-.46.22-.05.44-.1.66-.14.44-.09.88-.16,1.31-.18.43-.03.86-.02,1.28.05.49.08.98.16,1.46.24,1.46.25,2.93.53,4.38.86.48.11.97.22,1.45.34.96.24,1.92.5,2.86.79.47.14.94.3,1.41.45,2.26.77,4.54,1.33,6.85,1.76.33.06.66.12.99.18,2.64.45,5.3.73,7.98.95,2.11.18,4.24.21,6.32.53.21.03.42.07.62.11,1.04.2,2.06.48,3.06.9.08.03.16.07.24.11.57.27,1.16.64,1.46,1.12.39.62.79,1.23,1.19,1.84.6.92,1.2,1.84,1.75,2.78.55.94,1.04,1.91,1.44,2.91,2.88,7.34,8.5,12.39,13.93,17.64.81.78,1.68,1.5,2.49,2.28.27.26.53.53.77.81,1.85,2.1,3.63,4.25,5.42,6.4.41.5.82.99,1.24,1.49.88,1.06,1.58,2.25,2.07,3.49,1.49,3.74,1.2,8.08-1.05,11.58-2.04,3.17-4.23,6.26-6.5,9.28-2.29,3.05-4.96,5.7-7.93,8.04-.99.78-2.01,1.52-3.07,2.23-.52.35-1.06.67-1.61.97-2.95,1.61-6.19,2.51-9.32,3.68-1.72.64-3.48,1.17-5.25,1.65-2.33.62-4.67.99-7.03,1.16-3.03.22-6.08.12-9.14-.2-4.62-.48-9.3-.75-13.83-1.7-3.24-.68-6.09-2.19-8.85-3.91-2.14-1.34-4.23-2.8-6.39-4.08-.1-.06-.11-.29-.2-.59h0c.14.05.27.09.41.14.82.28,1.61.55,2.37.81.64.22,1.26.43,1.89.65-.44-.3-.89-.57-1.34-.84-1.36-.8-2.76-1.49-4.12-2.23-.06-.03-.11-.06-.17-.1-.11-.08-.22-.17-.33-.27-.26-.26-.47-.57-.51-.86-.13-1.08-.26-2.17-.34-3.26-.06-.85-.09-1.7-.04-2.54.16-3.17.64-6.29,3.18-8.63.18-.17.35-.31.52-.44.08-.06.17-.13.25-.18.49-.34.95-.51,1.45-.55.58-.04,1.21.13,2,.48,1.08.48,1.96,1.15,2.69,1.94.63.68,1.15,1.45,1.61,2.27.15.28.3.56.43.85.07.14.14.29.2.43.17.38.34.76.51,1.14,1.88,4.17,3.7,8.37,5.6,12.54.2.43.44.82.72,1.17s.6.66.97.94c.18.14.37.27.58.39.61.37,1.3.68,2.08.94-.28-.52-.56-1.02-.83-1.5-.54-.97-1.05-1.87-1.52-2.78-.24-.45-.46-.9-.67-1.36-2.02-4.35-3.96-8.73-5.9-13.11-.04-.1-.08-.2-.1-.31-.07-.33-.07-.7,0-1.02.29-1.54.62-3.07.95-4.6.11-.51.22-1.02.33-1.53-.14-.04-.29-.07-.43-.11-.24.52-.49,1.04-.73,1.56-.44.94-.87,1.87-1.29,2.78-.04.09-.09.19-.13.28h0s0,0,0,0c-1.26-.95-2.43-1.71-3.45-2.64-.08-.07-.15-.16-.21-.26-.24-.38-.38-.94-.33-1.35.53-4.13,1.14-8.25,1.77-12.36.02-.14.05-.27.09-.41.06-.21.15-.41.24-.6s.21-.38.34-.54c.97-1.19,3.57-2.02,5.99-2.22.25-.02.51-.04.76-.04s.49,0,.73,0c1.07.04,2.02.23,2.65.6.21.12.42.26.58.44,1.88,2.02,4.14,3.81,5.54,6.13,1.2,1.99,2.36,4,3.48,6.04.38.68.75,1.36,1.12,2.04,1.47,2.73,2.89,5.49,4.26,8.26.76,1.53,1.76,2.8,2.84,3.99,1.08,1.19,2.25,2.31,3.32,3.52-.39-.72-.84-1.4-1.27-2.09-.43-.69-.84-1.39-1.14-2.13-2.1-5.25-4.56-10.31-7.34-15.23-.4-.7-.8-1.4-1.21-2.1-.03-.06-.06-.12-.08-.19-.06-.21-.06-.45-.04-.69,0-.11.02-.21.04-.31.27-1.8.58-3.59.88-5.39-.13-.03-.26-.05-.4-.08-.36.9-.72,1.8-1.25,3.11h0s0,0,0,0c-.15-.6-.28-1.14-.41-1.66-.11-.43-.21-.85-.32-1.29-.11-.43-.22-.87-.34-1.36-.09.75-.17,1.39-.24,2.01-.07.62-.14,1.2-.22,1.85h0s0,0,0,0c-2.13-2.12-4.06-4-5.92-5.94-.25-.26-.29-.9-.18-1.29.59-2.25,1.2-4.5,1.9-6.71.54-1.7,1.16-3.4,2.81-4.4.05-.03.1-.07.16-.1.09-.05.17-.09.27-.14.83-.4,1.93-.69,3.12-.81,2-.19,4.29.09,6.11,1.13.12.07.24.14.36.22.7.45,1.32,1.03,1.81,1.74.45.65.9,1.3,1.35,1.95,2.03,2.92,4.08,5.84,6,8.83.21.33.43.66.64,1,2.68,4.27,4.94,8.84,8.74,12.28.63.57,1.27,1.11,1.94,1.64,1.46,1.17,3.01,2.31,4.61,3.57-.85-1.05-1.69-2.06-2.53-3.06-1.84-2.2-3.61-4.31-5.16-6.58-3.72-5.44-7.09-11.11-10.71-16.62-2.07-3.15-4.13-6.37-7.48-7.53-.72-1.55-1.34-2.9-1.94-4.18-.2-.43-.39-.85-.59-1.28-.09.02-.17.03-.26.05-.02,0-.04,0-.06.01l.31,3.64c.2.09.41.18.6.26-.19.06-.37.11-.56.15l.04.42h0c-.72.06-1.41.11-2.07.16-.67.05-1.31.11-1.96.19-2.76.33-5.02,1.41-6.3,3.78-.18.34-.35.7-.49,1.1-.86,2.4-1.65,4.82-2.45,7.25-.2.61-.4,1.22-.61,1.82h0c-.54-.01-1.08-.05-1.64-.08-.74-.04-1.49-.08-2.22-.03-.18.01-.37.03-.55.05-3.3.42-5.37,1.33-6.66,2.92-.88,1.08-1.39,2.48-1.67,4.26-.12.77-.22,1.53-.32,2.3-.1.77-.2,1.54-.3,2.31-.15,1.14-.29,2.29-.44,3.44-.14,1.15-.29,2.31-.44,3.48h0c-.16,0-.32.01-.48.03-2.33.21-3.87,1.65-5.18,3.52-.45.64-.82,1.29-1.13,1.95-1.34,2.87-1.5,5.98-1.24,9.19.01.18.03.37.05.55.03.39.06.78.08,1.17.02.34.02.69,0,1.03-.02.37-.35.86-.68,1.04-1.34.74-2.04,1.28-2.25,2.09-.16.63-.03,1.42.32,2.59.31,1.03.62,2.06.92,3.1.43,1.45.88,2.89,1.4,4.3.3.81.61,1.6.97,2.38.37.83.56,1.62.64,2.41.01.13.02.26.03.39.06,1.17-.12,2.33-.29,3.55-.08.56-.12,1.13-.14,1.7-.01.34-.02.68-.02,1.03,0,.46.01.92.03,1.37.01.46.03.92.05,1.37.03.96.41,1.91.43,2.86.03,1.42.66,2.44,1.58,3.46.11.12.21.23.32.35,1.1,1.14,2.36,2.13,3.41,3.33.1.12.21.24.31.37.4.5.76,1.03,1.05,1.63.24.48.5.96.78,1.43.46.78.97,1.53,1.53,2.24,2.19,2.76,3.5,5.93,4.59,9.18.08.25.17.5.25.75.16.5.32,1,.48,1.5.21.66.38,1.34.53,2.02.07.34.14.69.21,1.03.29,1.55.5,3.13.78,4.69.03.17.06.35.09.52,0,.04.02.08.03.13.05.21.11.42.19.63.09.25.19.5.28.75.18.5.37,1,.56,1.5.28.75.56,1.5.83,2.25.13.34.25.69.38,1.04.04.12.08.23.13.35.12-.04.24-.07.36-.11.06-.02.12-.04.18-.06-.06-.38-.11-.76-.17-1.15-.11-.76-.21-1.53-.31-2.3s-.21-1.53-.32-2.29c-.06-.38-.12-.76-.18-1.14-.13-.76-.27-1.52-.44-2.27-1.18-5.3-2.27-10.65-4.93-15.44-1.21-2.18-2.74-4.25-4.75-6.14h0s0,0,0,0c1.46.52,2.9,1.02,4.33,1.53,2.14.75,4.26,1.5,6.39,2.25,2.13.75,4.28,1.51,6.49,2.29-1.06-.72-2.01-1.5-2.94-2.25-.93-.75-1.84-1.46-2.83-2.05-.16-.1-.33-.19-.5-.28-.51-.27-1.04-.51-1.6-.7-3.07-1.03-6.2-1.95-9.14-3.3-.54-.25-1.1-.5-1.64-.79-.14-.07-.27-.14-.41-.22-1-.56-1.94-1.25-2.62-2.15-.32-.42-.58-.89-.77-1.42-.32-.91-.6-1.84-.79-2.79-.31-1.51-.43-3.05-.23-4.6.07-.58.19-1.17.36-1.75.25-.87.4-1.72.44-2.58.03-.57,0-1.13-.07-1.7-.11-.85-.33-1.7-.67-2.55-.61-1.51-1.17-3.03-1.71-4.56-.54-1.53-1.06-3.07-1.57-4.62-.27-.82-.55-2.3-.2-2.53.14-.09.3-.16.46-.22.27-.1.57-.15.89-.19.51-.05,1.04-.04,1.54-.07.33-.01.72.28,1,.53.82.74,1.65,1.47,2.41,2.27.11.11.22.23.32.34,3.06,3.5,6.75,5.83,10.95,7.17,1.4.45,2.86.79,4.37,1.02,3.06.48,6.16.69,9.24,1.04,2.81.32,5.61.47,8.38.44,1.11-.01,2.21-.06,3.31-.14,3.3-.24,6.57-.78,9.8-1.69,1.08-.3,2.15-.65,3.22-1.04.53-.19,1.07-.4,1.6-.61.12-.05.24-.1.36-.15,3.27-1.31,6.58-2.44,9.58-4.31.44-.28.88-.57,1.31-.88.77-.56,1.51-1.14,2.23-1.73,1.45-1.2,2.81-2.47,4.11-3.79.65-.66,1.29-1.34,1.91-2.03,2.48-2.77,4.75-5.73,6.92-8.77,1.48-2.06,2.89-4.2,3.68-6.73.36-1.15.59-2.37.63-3.71h0s0,0,0,0c2.3,2.82,4.24,5.49,4.01,9.01-.16,2.49-.38,4.97-.6,7.46-.23,2.48-.48,4.97-.71,7.45-.09,1.01-.31,1.96-.62,2.87-.63,1.82-1.64,3.47-2.87,4.99-.12.15-.25.3-.37.45-1.04,1.23-2.09,2.46-3.13,3.68-3.15,3.67-6.33,7.32-9.53,10.95-.59.67-1.09,1.37-1.53,2.09-.11.18-.21.37-.31.55-.6,1.11-1.06,2.28-1.42,3.5-.24.81-.43,1.64-.6,2.49-.04.21-.08.42-.12.64.06-.06.11-.12.16-.17.19-.21.36-.44.52-.67.14-.21.27-.43.41-.64.25-.38.5-.77.75-1.16.49-.78.98-1.56,1.51-2.31.27-.37.54-.74.83-1.09,3.1-3.72,6.32-7.33,9.48-11,.45-.53.89-1.07,1.35-1.64s.93-1.18,1.45-1.83c.1.23.21.46.32.68.74,1.57,1.47,2.92,1.89,4.36.47,1.58.9,3.33.69,4.93-.25,1.92-.76,3.74-1.59,5.4s-1.97,3.18-3.46,4.49c-.97.85-1.95,1.7-2.92,2.55-4.21,3.68-8.44,7.35-12.66,11.01-3,2.6-6.13,5.07-8.98,7.82-1.32,1.27-2.14,3.08-3.18,4.64.1.06.21.13.31.19.02.01.03.02.05.03.08-.07.16-.15.24-.23.57-.53,1.13-1.07,1.71-1.59.33-.3.66-.59,1.01-.86,2.4-1.89,4.93-3.6,7.26-5.57,1.1-.93,2.18-1.86,3.27-2.8,1.63-1.41,3.26-2.82,4.88-4.23,2.71-2.36,5.41-4.71,8.15-7.03.95-.8,1.84-1.64,2.67-2.52,1.03-1.1,1.96-2.27,2.75-3.52.32-.5.61-1.02.89-1.55.68-1.33,1.23-2.75,1.61-4.29.13-.53.23-1.06.3-1.57.29-2.23-.11-4.29-1.74-6.21-.92-1.08-1.7-2.28-2.49-3.48-.32-.49-.65-.99-.98-1.47,2.29-1.43,3.77-3.29,4.67-5.5.13-.32.25-.64.35-.97,1.53-4.72,2.3-9.6,2.52-14.56.08-1.9.23-3.85-.03-5.71ZM189.34,107.33c-.01.29-.04.58-.09.89-.03.19-.07.37-.1.56-.2,1.05-.47,2.09-.62,3.15-.1.72-.18,1.44-.23,2.15-.03.48-.05.95-.06,1.42-.01,2.58.51,5.06,2.24,7.28h0s0,0,0,0c-1.7-.15-3.37-.3-5.05-.46-1-.09-2.01-.18-3.01-.28-2.65-.26-5.29-.54-8.09-.83-.03-3.66.26-7.13,1.67-10.44.21-.5.43-1.01.65-1.5.97-2.15,2.12-4.18,4.3-5.47.42-.25.85-.45,1.28-.6.55-.2,1.12-.32,1.68-.37,1.01-.08,2.03.07,3.06.42,1.61.55,2.44,2.08,2.36,4.09Z"/>
            <path class="cls-37" d="M155.36,118.72c1.46.25,2.93.53,4.38.86-1.45-.33-2.92-.61-4.38-.86Z"/>
            <path class="cls-37" d="M169.55,120.31c-.81-.15-1.58-.33-2.29-.65-2.47-1.1-5.05-1.7-7.64-2.25,2.59.55,5.17,1.16,7.64,2.25.71.32,1.48.5,2.29.65Z"/>
            <path class="cls-37" d="M143.12,194.6h0c.14.05.27.09.41.14-.14-.05-.27-.09-.41-.14Z"/>
            <path class="cls-37" d="M209.7,227.01c.14-.21.27-.43.41-.64.25-.38.5-.77.75-1.16-.25.39-.49.78-.75,1.16-.14.21-.27.43-.41.64Z"/>
            <path class="cls-37" d="M230.23,188.19c-.23,2.48-.48,4.97-.71,7.45-.09,1.01-.31,1.96-.62,2.87.31-.91.53-1.87.62-2.87.23-2.48.48-4.97.71-7.45Z"/>
            <path class="cls-37" d="M163.64,134.97c-.31-.2-.61-.4-.92-.59.31.19.61.39.92.59Z"/>
            <path class="cls-37" d="M146.88,117.77c.33-.09.65-.2.98-.31-.32.11-.65.21-.98.31-.29.08-.55.39-.75.65-.36.45-.58.97-.68,1.53.1-.55.33-1.08.68-1.53.2-.26.46-.57.75-.65Z"/>
            <path class="cls-37" d="M144.88,176.84c.49-.34.95-.51,1.45-.55-.5.03-.96.21-1.45.55Z"/>
            <path class="cls-37" d="M152.07,129.88c.07.06.14.11.22.16.44.3.88.6,1.31.9-.44-.3-.88-.6-1.31-.9-.07-.05-.14-.11-.22-.16Z"/>
            <path class="cls-37" d="M222.52,207.64c-3.15,3.67-6.33,7.32-9.53,10.95-.59.67-1.09,1.37-1.53,2.09.44-.73.94-1.43,1.53-2.09,3.2-3.63,6.38-7.27,9.53-10.95Z"/>
            <path class="cls-37" d="M146.44,226.22c-1-.56-1.94-1.25-2.62-2.15.68.9,1.61,1.58,2.62,2.15Z"/>
            <path class="cls-37" d="M172.24,119.81c-.05.32-.09.64-.13.96h0c.04-.33.08-.65.13-.96Z"/>
            <path class="cls-37" d="M191.27,205.48c-3.23.91-6.5,1.45-9.8,1.69,3.3-.24,6.57-.78,9.8-1.69Z"/>
            <path class="cls-37" d="M206.03,199.37c-3,1.87-6.31,3-9.58,4.31,3.27-1.31,6.58-2.44,9.58-4.31Z"/>
            <path class="cls-37" d="M213.68,192.96c-1.3,1.33-2.67,2.6-4.11,3.79,1.45-1.2,2.81-2.47,4.11-3.79Z"/>
            <path class="cls-37" d="M138.85,204.47c-.52-1.41-.96-2.85-1.4-4.3.43,1.45.88,2.89,1.4,4.3Z"/>
            <path class="cls-37" d="M158.84,260.64h0c-.04-.12-.08-.23-.13-.35.04.12.08.23.13.35Z"/>
            <path class="cls-37" d="M165.49,235.81h0c-2.21-.78-4.36-1.54-6.49-2.29,2.13.75,4.28,1.51,6.49,2.29Z"/>
            <path class="cls-37" d="M197.91,251.63c-.58.52-1.14,1.06-1.71,1.59.57-.53,1.13-1.07,1.71-1.59Z"/>
            <path class="cls-37" d="M209.03,227.86c.06-.06.11-.12.16-.17-.05.06-.1.12-.16.17h0Z"/>
            <path class="cls-37" d="M214.32,238.16c-1.62,1.41-3.25,2.83-4.88,4.23,1.63-1.41,3.26-2.82,4.88-4.23Z"/>
            <path class="cls-37" d="M228.78,223.53c-.27.53-.57,1.05-.89,1.55.32-.5.61-1.02.89-1.55Z"/>
            <path class="cls-37" d="M157.39,155.16c.74-.05,1.49-.01,2.22.03-.74-.04-1.49-.08-2.22-.03Z"/>
            <path class="cls-37" d="M207.76,240.76c4.23-3.66,8.45-7.33,12.66-11.01-4.21,3.68-8.44,7.35-12.66,11.01Z"/>
            <path class="cls-37" d="M195.96,253.44h0s-.03-.02-.05-.03c.02.01.03.02.05.03Z"/>
            <path class="cls-37" d="M198.78,248.58c2.86-2.75,5.98-5.22,8.98-7.82-3,2.6-6.13,5.07-8.98,7.82Z"/>
            <path class="cls-37" d="M159.73,231.51c.99.59,1.9,1.31,2.83,2.05-.93-.75-1.84-1.46-2.83-2.05Z"/>
            <path class="cls-37" d="M191.39,120.92c.51,1.36,1.12,2.51,2.32,3.55.28.24.56.5.83.77-.27-.27-.55-.52-.83-.77-1.2-1.04-1.81-2.19-2.32-3.55-.71-1.91-1.15-3.86-1.1-5.86-.04,2.01.39,3.95,1.1,5.86Z"/>
            <path class="cls-37" d="M227.7,212.38c-.43-1.44-1.16-2.79-1.89-4.36.74,1.57,1.47,2.92,1.89,4.36.47,1.58.9,3.33.69,4.93-.25,1.92-.76,3.74-1.59,5.4.83-1.67,1.34-3.49,1.59-5.4.21-1.59-.22-3.35-.69-4.93Z"/>
            <path class="cls-37" d="M224.43,165.01c-.05-.09-.1-.17-.16-.26-.3-.44-.61-.88-.92-1.33.31.44.61.88.92,1.33.06.08.1.17.16.26Z"/>
            <path class="cls-37" d="M175.93,106.03c.47-.84,1.09-1.66,1.84-2.39-.74.73-1.37,1.54-1.84,2.39-1.87,3.38-3.19,7.03-3.37,10.99,0,.2-.03.41-.05.61.02-.2.04-.41.05-.61.18-3.96,1.5-7.61,3.37-10.99Z"/>
            <path class="cls-37" d="M148.68,126.05c-.59-.7-1.18-1.4-1.78-2.08.6.68,1.19,1.38,1.78,2.08Z"/>
            <path class="cls-37" d="M213.21,221.81c-.29.35-.57.72-.83,1.09.27-.37.54-.74.83-1.09,3.1-3.72,6.32-7.33,9.48-11,.45-.53.89-1.07,1.35-1.64-.46.57-.89,1.11-1.35,1.64-3.16,3.67-6.38,7.28-9.48,11Z"/>
            <path class="cls-37" d="M191.31,107.95c-.08.72-.2,1.43-.32,2.14.12-.71.24-1.43.32-2.14.42-3.66-1.2-5.93-4.72-6.94-.96-.27-1.92-.35-2.85-.27.93-.08,1.89,0,2.85.27,3.51,1.01,5.13,3.28,4.72,6.94Z"/>
            <path class="cls-37" d="M226.24,169.55c-.04-.09-.08-.18-.12-.27-.08-.19-.16-.38-.23-.57.07.19.15.38.23.57.04.09.08.18.12.27Z"/>
            <path class="cls-37" d="M232.99,179.76c-.02-.12-.03-.25-.05-.37-.08-.44-.18-.85-.31-1.25.13.4.24.82.31,1.25.02.12.03.25.05.37Z"/>
            <path class="cls-37" d="M225.47,206.5c.34.49.66.98.98,1.47-.32-.49-.65-.99-.98-1.47,2.29-1.43,3.77-3.29,4.67-5.5-.9,2.21-2.38,4.07-4.67,5.5Z"/>
            <path class="cls-37" d="M216.52,154.44c1.4,1.63,2.73,3.32,4.01,5.05-1.28-1.73-2.61-3.42-4.01-5.05Z"/>
            <path class="cls-37" d="M228.78,223.53c.69-1.33,1.23-2.75,1.61-4.29.13-.53.23-1.06.3-1.57-.07.51-.17,1.04-.3,1.57-.38,1.54-.93,2.96-1.61,4.29Z"/>
            <path class="cls-37" d="M227.35,171.28c2,1.88,4.04,3.76,5.06,6.27-1.02-2.51-3.06-4.39-5.06-6.27Z"/>
            <path class="cls-37" d="M226.65,170.35c.2.34.43.66.71.92-.28-.26-.51-.58-.71-.92Z"/>
            <path class="cls-37" d="M151.31,118.61c.44-.09.88-.16,1.31-.18-.43.03-.87.1-1.31.18Z"/>
            <path class="cls-37" d="M147.02,173.92c-.16,0-.32.01-.48.03.16-.01.31-.02.48-.03h0Z"/>
            <path class="cls-37" d="M161.86,153.45c-.2.61-.4,1.22-.61,1.82h0c.2-.61.4-1.22.61-1.82Z"/>
            <path class="cls-37" d="M226.19,175.43c.36-1.15.59-2.37.63-3.71h0c-.04,1.33-.27,2.56-.63,3.71Z"/>
            <path class="cls-37" d="M175.14,140.97c-.72.06-1.41.11-2.07.16.67-.05,1.35-.1,2.07-.16h0Z"/>
            <path class="cls-37" d="M145.22,197.65c-.1-.12-.21-.23-.32-.34.11.11.22.23.32.34,3.06,3.5,6.75,5.83,10.95,7.17-4.2-1.34-7.89-3.67-10.95-7.17Z"/>
            <path class="cls-37" d="M150.18,158.13c-.88,1.08-1.39,2.48-1.67,4.26-.12.77-.22,1.53-.32,2.3.1-.77.21-1.54.32-2.3.27-1.78.79-3.18,1.67-4.26Z"/>
            <path class="cls-37" d="M160.54,205.84c-1.51-.24-2.97-.57-4.37-1.02,1.4.45,2.86.79,4.37,1.02,3.06.48,6.16.69,9.24,1.04,2.81.32,5.61.47,8.38.44-2.77.04-5.56-.12-8.38-.44-3.08-.35-6.18-.56-9.24-1.04Z"/>
            <path class="cls-37" d="M223.29,166.47c-.5-1.25-1.19-2.43-2.07-3.49-.41-.5-.82-.99-1.24-1.49.41.5.82.99,1.24,1.49.88,1.06,1.58,2.25,2.07,3.49Z"/>
            <path class="cls-37" d="M193,126.82c.39.62.79,1.23,1.19,1.84-.4-.61-.8-1.22-1.19-1.84-.3-.48-.89-.86-1.46-1.12.57.27,1.16.64,1.46,1.12Z"/>
            <path class="cls-37" d="M211.3,151.99c.81.78,1.68,1.5,2.49,2.28-.8-.78-1.68-1.5-2.49-2.28-5.43-5.26-11.05-10.31-13.93-17.64-.39-1-.89-1.97-1.44-2.91.55.94,1.04,1.91,1.44,2.91,2.88,7.34,8.5,12.39,13.93,17.64Z"/>
            <path class="cls-37" d="M148.32,122.63c.04.06.08.12.12.17.35.42.71.83,1.08,1.24-.36-.41-.72-.82-1.08-1.24-.05-.05-.08-.12-.12-.17Z"/>
            <path class="cls-37" d="M191.54,125.69c-.08-.04-.16-.07-.24-.11-1-.42-2.02-.7-3.06-.9,1.04.2,2.06.48,3.06.9.08.03.16.07.24.11Z"/>
            <path class="cls-37" d="M172.32,122.92c-2.3-.43-4.59-.99-6.85-1.76-.47-.16-.94-.31-1.41-.45.47.14.94.3,1.41.45,2.26.77,4.54,1.33,6.85,1.76Z"/>
            <path class="cls-37" d="M148.67,119.22c.65-.13,1.31-.31,1.98-.46-.66.15-1.33.33-1.98.46-1.06.22-1.34,1.05-1,2.03.03.08.06.16.09.25-.03-.08-.06-.16-.09-.25-.35-.98-.07-1.81,1-2.03Z"/>
            <path class="cls-37" d="M166.23,136.4c2.64,1.23,5.31,2.38,7.96,3.56-1.85.59-3.53.54-5.12.13,1.99.65,4.07.94,6.04.47l-.04-.42c-2.62-1.14-6.2-2.53-8.84-3.73Z"/>
            <path class="cls-37" d="M156.66,254.77c.09.25.19.5.28.75.18.5.37,1,.56,1.5-.19-.5-.37-1-.56-1.5-.09-.25-.19-.5-.28-.75Z"/>
            <path class="cls-37" d="M156.35,253.49c.03.17.06.35.09.52,0,.04.02.08.03.13,0-.04-.02-.08-.03-.13-.03-.17-.06-.35-.09-.52Z"/>
            <path class="cls-37" d="M142.26,219.87c-.31-1.51-.43-3.05-.23-4.6-.2,1.55-.08,3.09.23,4.6Z"/>
            <path class="cls-37" d="M159.2,260.53c.06-.02.12-.04.18-.06-.06-.38-.11-.76-.17-1.15.05.38.11.76.17,1.15-.06.02-.12.04-.18.06Z"/>
            <path class="cls-37" d="M148.28,229.75c1.46.52,2.9,1.02,4.33,1.53-1.43-.5-2.87-1.01-4.33-1.53h0Z"/>
            <path class="cls-37" d="M158.4,253.6c-.13-.76-.27-1.52-.44-2.27-1.18-5.3-2.27-10.65-4.93-15.44,2.66,4.8,3.75,10.15,4.93,15.44.17.75.31,1.51.44,2.27Z"/>
            <path class="cls-37" d="M154.35,244.25c.16.5.32,1,.48,1.5.21.66.38,1.34.53,2.02-.15-.68-.32-1.36-.53-2.02-.16-.5-.32-1-.48-1.5Z"/>
            <path class="cls-37" d="M140.48,209.65c.06,1.17-.12,2.33-.29,3.55-.08.56-.12,1.13-.14,1.7.02-.57.06-1.14.14-1.7.17-1.22.35-2.38.29-3.55Z"/>
            <path class="cls-37" d="M142.76,209.24c-.11-.85-.33-1.7-.67-2.55-.61-1.51-1.17-3.03-1.71-4.56.54,1.53,1.11,3.06,1.71,4.56.34.86.57,1.71.67,2.55Z"/>
            <path class="cls-37" d="M138.45,192.41c.33-.18.66-.68.68-1.04.02-.34.01-.69,0-1.03.02.34.02.69,0,1.03-.02.37-.35.86-.68,1.04-1.34.74-2.04,1.28-2.25,2.09.21-.81.91-1.35,2.25-2.09Z"/>
            <path class="cls-37" d="M151.02,178.71c.63.68,1.15,1.45,1.61,2.27-.46-.83-.98-1.6-1.61-2.27Z"/>
            <path class="cls-37" d="M140.53,221.52c-.02-.96-.4-1.9-.43-2.86-.01-.46-.03-.91-.05-1.37.01.46.03.92.05,1.37.03.96.41,1.91.43,2.86.03,1.42.66,2.44,1.58,3.46-.91-1.02-1.55-2.04-1.58-3.46Z"/>
            <path class="cls-37" d="M146.15,229.02c.4.5.76,1.03,1.05,1.63.24.48.5.96.78,1.43-.28-.47-.54-.94-.78-1.43-.29-.6-.65-1.13-1.05-1.63Z"/>
            <path class="cls-37" d="M140.23,179.42c-1.34,2.87-1.5,5.98-1.24,9.19.01.18.03.37.05.55-.02-.18-.03-.37-.05-.55-.26-3.21-.1-6.32,1.24-9.19Z"/>
            <path class="cls-37" d="M139.07,194.76c.27-.1.57-.15.89-.19-.32.03-.62.09-.89.19Z"/>
            <path class="cls-37" d="M168.81,144.14c-.09.04-.18.09-.27.14-.06.03-.11.06-.16.1.05-.03.1-.07.16-.1.09-.05.17-.09.27-.14Z"/>
            <path class="cls-37" d="M222.24,178.05c-2.04,3.17-4.23,6.26-6.5,9.28-2.29,3.05-4.96,5.7-7.93,8.04,2.97-2.34,5.64-4.99,7.93-8.04,2.26-3.02,4.46-6.11,6.5-9.28,2.25-3.49,2.54-7.83,1.05-11.58,1.49,3.74,1.2,8.08-1.05,11.58Z"/>
            <path class="cls-37" d="M203.49,175.68c-1.6-1.26-3.15-2.39-4.61-3.57,1.46,1.17,3.01,2.31,4.61,3.57,0,0,0,0,0,0Z"/>
            <path class="cls-37" d="M173.37,168.81c2.78,4.91,5.24,9.97,7.34,15.23.3.74.71,1.44,1.14,2.13-.43-.69-.84-1.39-1.14-2.13-2.1-5.25-4.56-10.31-7.34-15.23Z"/>
            <path class="cls-37" d="M177.61,141.89c-.72-1.55-1.34-2.9-1.94-4.18.6,1.29,1.22,2.63,1.94,4.18,3.35,1.16,5.42,4.38,7.48,7.53,3.62,5.51,6.99,11.18,10.71,16.62-3.72-5.44-7.09-11.11-10.71-16.62-2.07-3.15-4.13-6.37-7.48-7.53Z"/>
            <path class="cls-37" d="M172.04,165.83c-.02.24-.02.49.04.69-.06-.21-.06-.45-.04-.69Z"/>
            <path class="cls-37" d="M170.24,158.87c.12.48.23.92.34,1.36-.11-.43-.22-.87-.34-1.36h0Z"/>
            <path class="cls-37" d="M174.82,136.48c.09-.02.17-.03.26-.05h0c-.09.02-.17.03-.26.05Z"/>
            <path class="cls-37" d="M171.31,163.17h0c-.15-.6-.28-1.14-.41-1.66.13.52.26,1.06.41,1.66Z"/>
            <path class="cls-37" d="M183.12,188.26c-1.07-1.21-2.23-2.32-3.32-3.52,1.08,1.19,2.25,2.31,3.32,3.52,0,0,0,0,0,0Z"/>
            <path class="cls-37" d="M169.78,162.73c.08-.64.15-1.23.22-1.85-.07.62-.14,1.2-.22,1.85h0Z"/>
            <path class="cls-37" d="M153.4,177.68c.04-.09.09-.19.13-.28-.04.09-.09.19-.13.28h0Z"/>
            <path class="cls-37" d="M171.94,143.33c2-.19,4.29.09,6.11,1.13-1.82-1.03-4.11-1.32-6.11-1.13Z"/>
            <path class="cls-37" d="M200.96,172.62c-1.84-2.2-3.61-4.31-5.16-6.58,1.55,2.27,3.33,4.39,5.16,6.58Z"/>
            <path class="cls-37" d="M181.56,148.37c2.03,2.92,4.08,5.84,6,8.83-1.92-2.99-3.97-5.91-6-8.83Z"/>
            <path class="cls-37" d="M154.7,179.3c.29-1.54.62-3.07.95-4.6-.33,1.53-.66,3.06-.95,4.6-.06.32-.07.69,0,1.02-.07-.33-.07-.7,0-1.02Z"/>
            <path class="cls-37" d="M140.98,188.63c.08,1.09.21,2.18.34,3.26.03.28.24.6.51.86-.26-.26-.47-.57-.51-.86-.13-1.08-.26-2.17-.34-3.26Z"/>
            <path class="cls-37" d="M160.11,197.11c-.28-.35-.52-.74-.72-1.17-1.9-4.16-3.72-8.36-5.6-12.54,1.88,4.17,3.7,8.37,5.6,12.54.2.43.44.82.72,1.17Z"/>
            <path class="cls-37" d="M142.15,193.03c.06.04.11.07.17.1,1.37.74,2.76,1.43,4.12,2.23-1.36-.8-2.76-1.49-4.12-2.23-.06-.03-.11-.06-.17-.1Z"/>
            <path class="cls-37" d="M158.56,203.17c-3.24-.68-6.09-2.19-8.85-3.91,2.76,1.72,5.61,3.23,8.85,3.91,4.53.95,9.2,1.22,13.83,1.7,3.06.31,6.11.42,9.14.2-3.03.22-6.08.12-9.14-.2-4.62-.48-9.3-.75-13.83-1.7Z"/>
            <path class="cls-37" d="M147.79,196.2c-.62-.21-1.25-.43-1.89-.65.64.22,1.26.43,1.89.65h0Z"/>
            <path class="cls-37" d="M188.56,203.91c-2.33.62-4.67.99-7.03,1.16,2.36-.17,4.71-.54,7.03-1.16,1.77-.47,3.54-1,5.25-1.65,3.13-1.17,6.37-2.07,9.32-3.68-2.95,1.61-6.19,2.51-9.32,3.68-1.72.64-3.48,1.17-5.25,1.65Z"/>
            <path class="cls-37" d="M163.73,199.38c-.78-.27-1.48-.57-2.08-.94.61.37,1.3.68,2.08.94h0Z"/>
            <path class="cls-37" d="M162.91,197.88c-.54-.97-1.05-1.87-1.52-2.78.47.9.98,1.81,1.52,2.78Z"/>
            <path class="cls-37" d="M154.82,174.62c.24-.52.48-1.04.73-1.56h0c-.24.52-.49,1.04-.73,1.56Z"/>
            <path class="cls-37" d="M149.42,173.42c.53-4.13,1.14-8.25,1.77-12.36.02-.14.05-.27.09-.41-.04.14-.07.28-.09.41-.63,4.11-1.23,8.23-1.77,12.36-.05.41.08.97.33,1.35-.24-.38-.38-.94-.33-1.35Z"/>
            <path class="cls-37" d="M157.85,157.29c-2.42.2-5.02,1.04-5.99,2.22-.13.16-.24.34-.34.54.1-.19.21-.38.34-.54.97-1.19,3.57-2.02,5.99-2.22Z"/>
            <path class="cls-37" d="M175.67,140.39c-.19-.09-.39-.17-.6-.26l.04.42c.19-.05.38-.09.56-.15Z"/>
            <path class="cls-37" d="M146.57,97.9c4.21,1.09,8.45,2.1,12.55,3.53,2.86,1,2.89,1.35,4.25-1.25,1.47-2.83,3.13-5.68,3.89-8.73,1.05-4.22,1.88-8.58,1.2-13.03-.6-3.97-2.68-6.87-6.18-8.75-1.64-.88-3.48-.77-5.08-.02-5.7,2.69-9.15,9.61-5.12,16.12.06.1.06.25.13.63-.75-.51-1.34-.88-1.91-1.3-2.19-1.61-4.64-1.85-7.19-1.31-.73.15-1.55.48-2.06,1-2.39,2.44-2.48,6.93-.37,9.64,1.52,1.95,3.57,2.85,5.89,3.45ZM141.19,87.94c.92-2.39,2.3-3.23,4.9-2.63,2.16.5,4.25,1.27,6.37,1.92.25.08.5.17.63.21-.46-2.43-1.12-4.81-1.34-7.24-.39-4.16,4.04-9.2,8.07-9.31.89-.02,1.97.27,2.67.8,3.08,2.34,4.76,5.5,4.56,9.41-.31,6.36-1.73,12.45-4.92,18.05-.6,1.05-1.01,1.23-2.22.71-2.2-.96-4.55-1.61-6.88-2.27-2.6-.73-5.28-1.22-7.87-2.01-3.5-1.08-5.2-4.5-3.98-7.66Z"/>
            <path class="cls-37" d="M228.69,228.26c-.02-.09-.22-.12-.4-.22.27,3.21.37,6.38.85,9.47.57,3.65.86,7.32-.27,10.81-1.79,5.52-3.84,10.97-6.01,16.35-1.22,3.05-2.19,6.11-2.44,9.38-.07.97.14,1.96.23,2.94.1,0,.2,0,.3.01.09-.31.2-.61.27-.92.67-3.16,1.26-6.35,2.02-9.49.29-1.21.6-2.76,1.46-3.41,1.97-1.48,2.64-3.63,3.34-5.66,1.26-3.64,2.35-7.38,3.04-11.17.51-2.77.67-5.73.27-8.49-.48-3.26-1.72-6.42-2.65-9.61Z"/>
            <path class="cls-37" d="M138.93,108.73c.23,1.32.91,1.99,2.31,1.57,1.61-.49,3.22-1.02,4.83-1.53,3.22-1.01,6.41-2.39,9.95-.83-1.02-1.87-1.83-3.92-4.24-4.32-2.29-.38-4.58-.87-6.89-.95-1.75-.06-3.54.37-5.28.73-1.09.23-1.57,1-1.27,2.19.26,1.03.4,2.09.59,3.14ZM152.65,105.77c-4.37-.62-7.91,1.88-11.94,3.22-.29-1.36-.54-2.52-.83-3.87,4.44-1.3,8.62-.92,12.77.66Z"/>
            <path class="cls-37" d="M184.64,91.95c.92-.44,2.16-1.27,1.36-2.05-1.46-1.43-3.42-2.36-5.19-3.45-.13-.08-.44.13-.67.21-2.71.97-4.41,3.2-6.41,5.08-2.24,2.11-3,4.85-3.39,8.08,1.43-1.08,2.5-2.12,3.76-2.77,3.47-1.79,7.01-3.42,10.53-5.09ZM173.89,94.14c1.5-2.23,3.35-4.11,5.7-5.47.85-.49,1.55-.53,2.33.17.62.55,1.39.93,2.08,1.38-3.57,1.63-6.97,3.18-10.41,4.75.07-.2.11-.56.3-.84Z"/>
            <path class="cls-29" d="M186.98,103.24c-1.03-.35-2.05-.5-3.06-.42-.57.05-1.13.17-1.68.37-.43.15-.86.35-1.28.6-2.18,1.3-3.33,3.32-4.3,5.47-.22.5-.44,1-.65,1.5-1.41,3.31-1.7,6.79-1.67,10.44,2.8.29,5.44.58,8.09.83,1,.1,2.01.19,3.01.28,1.67.15,3.35.3,5.05.46-1.73-2.22-2.25-4.7-2.24-7.28,0-.47.02-.94.06-1.42.05-.71.13-1.43.23-2.15.14-1.06.41-2.1.62-3.15.04-.19.07-.37.1-.56.05-.3.08-.6.09-.89.08-2-.75-3.54-2.36-4.09Z"/>
            <path class="cls-29" d="M186.98,103.24c-1.03-.35-2.05-.5-3.06-.42,1.01-.08,2.03.07,3.06.42,1.61.55,2.44,2.08,2.36,4.09.08-2-.75-3.54-2.36-4.09Z"/>
            <path class="cls-29" d="M190.48,122.77h0c-1.7-.15-3.37-.3-5.05-.46,1.67.15,3.35.3,5.05.46Z"/>
            <path class="cls-29" d="M180.96,103.79c.42-.25.85-.45,1.28-.6-.43.15-.86.35-1.28.6-2.18,1.3-3.33,3.32-4.3,5.47.97-2.15,2.12-4.18,4.3-5.47Z"/>
            <path class="cls-29" d="M188.3,114.07c.05-.71.13-1.43.23-2.15.14-1.06.41-2.1.62-3.15-.2,1.05-.47,2.09-.62,3.15-.1.72-.18,1.44-.23,2.15Z"/>
            <path class="cls-29" d="M145.17,95.59c2.58.79,5.26,1.28,7.87,2.01,2.32.65,4.67,1.31,6.88,2.27,1.21.53,1.62.34,2.22-.71,3.19-5.6,4.61-11.69,4.92-18.05.19-3.91-1.48-7.07-4.56-9.41-.7-.53-1.78-.83-2.67-.8-4.03.11-8.46,5.15-8.07,9.31.22,2.42.88,4.81,1.34,7.24-.13-.04-.38-.13-.63-.21-2.12-.65-4.21-1.43-6.37-1.92-2.6-.6-3.98.24-4.9,2.63-1.22,3.16.48,6.58,3.98,7.66Z"/>
            <path class="cls-29" d="M152.65,105.77c-4.15-1.57-8.33-1.96-12.77-.66.29,1.35.53,2.51.83,3.87,4.03-1.34,7.57-3.84,11.94-3.22Z"/>
            <path class="cls-29" d="M181.92,88.85c-.78-.7-1.49-.66-2.33-.17-2.35,1.36-4.2,3.23-5.7,5.47-.18.27-.23.64-.3.84,3.44-1.57,6.85-3.12,10.41-4.75-.69-.45-1.47-.83-2.08-1.38Z"/>
          </g>
          <g class="cls-69">
            <polygon class="cls-29" points="71.81 28.92 66.74 31.56 68.78 25.42 63.99 27.72 66.13 21.98 61.24 23.38 63.03 17.62 43.46 41.76 42.19 45.84 47.08 44.45 44.94 50.19 49.73 47.89 47.69 54.02 52.76 51.39 50.69 57.06 70.42 32.71 71.81 28.92"/>
          </g>
          <g class="cls-69">
            <polygon class="cls-29" points="277.68 39.02 275.04 32.23 279.83 34.8 277.47 28.38 281.98 31.09 280.27 24.49 284.75 26.74 264.31 .96 261.14 -.63 262.84 5.97 258.34 3.26 260.69 9.68 255.91 7.12 258.54 13.9 254.1 11.28 274.71 37.27 277.68 39.02"/>
          </g>
          <g class="cls-69">
            <polygon class="cls-29" points="276.69 291.45 281.75 288.82 279.71 294.95 284.5 292.66 282.36 298.4 287.26 297 285.47 302.76 305.04 278.61 306.31 274.53 301.41 275.93 303.55 270.19 298.76 272.48 300.8 266.35 295.74 268.98 297.81 263.32 278.07 287.66 276.69 291.45"/>
          </g>
          <g class="cls-69">
            <polygon class="cls-29" points="64.86 285.04 69.53 290.62 64.18 289.72 68.47 295.05 63.33 293.93 67.06 299.63 62.11 298.94 89.74 316.79 93.25 317.28 89.52 311.58 94.66 312.7 90.37 307.37 95.72 308.27 91.04 302.69 96.09 303.74 68.24 285.74 64.86 285.04"/>
          </g>
        </g>
        <g>
          <g>
            <g>
              <path class="cls-22" d="M768.96,1026.1c-3.99-17.68-12.03-28.08-19.92-34.18-15.97,6.64-42.29,6.29-46.55,19.91,0,0-1.24,2.49-2.45,6.05,15.56,4.85,41.08,10.67,68.91,8.22Z"/>
              <path class="cls-4" d="M768.96,1026.1c3.75-.33,7.54-.81,11.36-1.46,49.91-8.54,82.75-17.73,100.48-17.73,9.86,0,27.65-1.02,42.06-1.92-1.14-12.25-2.18-26.5-1.67-33.55.99-13.79,8.87-23.64,4.93-26.6-3.94-2.96-24.63-7.88-38.42-.99-13.79,6.9-20.69,14.78-39.4,13.79,0,0-78.81,19.7-92.6,30.54-1.87,1.47-4.14,2.68-6.65,3.73,7.88,6.1,15.93,16.5,19.92,34.18Z"/>
              <path class="cls-22" d="M880.8,1006.91c-17.73,0-50.57,9.19-100.48,17.73-3.82.65-7.61,1.13-11.36,1.46,1.47,6.52,2.39,14.03,2.54,22.68,36.03-5.82,81.11-21.18,113.24-21.18,35.46,0,40.39-.99,40.39-.99,0,0-1.18-9.9-2.27-21.62-14.41.9-32.2,1.92-42.06,1.92Z"/>
              <path class="cls-22" d="M700.04,1017.88c-2.19,6.46-4.26,16.45,1.46,21.54,0,0,21.67,14.78,59.11,10.84,3.51-.37,7.15-.87,10.88-1.47-.15-8.65-1.07-16.16-2.54-22.68-27.83,2.45-53.35-3.37-68.91-8.22Z"/>
            </g>
            <path class="cls-7" d="M767.51,997.06s43.34-27.25,67.64-28.9c24.3-1.64,27.25-2.63,29.88-3.61s7.55-9.52,7.55-9.52c0,0,6.57-7.22,23.97-2.3s28.24-8.54,28.24-8.54"/>
            <ellipse class="cls-7" cx="788.07" cy="997.51" rx="3.82" ry="4.56"/>
            <ellipse class="cls-7" cx="805.64" cy="989.46" rx="3.82" ry="4.56"/>
            <ellipse class="cls-7" cx="822.55" cy="982.89" rx="4.56" ry="3.82" transform="translate(-268.4 1655.57) rotate(-81.73)"/>
            <ellipse class="cls-7" cx="843.57" cy="977.8" rx="4.56" ry="3.82" transform="translate(-245.37 1672.01) rotate(-81.73)"/>
            <path class="cls-18" d="M846.32,975.55s-12.64-14.94-21.84-14.12c-9.19.82-9.36.99-8.21,2.13s21.67,9.03,24.63,13.96,5.42-1.97,5.42-1.97Z"/>
            <path class="cls-18" d="M827.27,981.62s-12.64-14.94-21.84-14.12c-9.19.82-9.36.99-8.21,2.13s21.67,9.03,24.63,13.96c2.96,4.93,5.42-1.97,5.42-1.97Z"/>
            <path class="cls-18" d="M809.54,987.7s-12.64-14.94-21.84-14.12c-9.19.82-9.36.99-8.21,2.13,1.15,1.15,21.67,9.03,24.63,13.96,2.96,4.93,5.42-1.97,5.42-1.97Z"/>
            <path class="cls-18" d="M793.12,996.56s-12.64-14.94-21.84-14.12c-9.19.82-9.36.99-8.21,2.13s21.67,9.03,24.63,13.96,5.42-1.97,5.42-1.97Z"/>
            <path class="cls-4" d="M832.2,962.08s.82-18.72,7.06-19.05c6.24-.33,13.46-5.58,20.69-.66,7.22,4.93,9.52,5.58,9.85,7.06.33,1.48-.66,12.97-5.42,13.63l-26.43,2.79-6.57-3.61"/>
            <ellipse class="cls-22" cx="897.54" cy="982.36" rx="10.59" ry="15.02"/>
            <g>
              <path class="cls-27" d="M857.15,965.44s5.91,24.52,5.69,26.77c-.22,2.25-5.47,9.81.22,11.03s7.66,1.02,7.88-1.02c.22-2.04-3.5-36.78-6.34-37.39-2.84-.61-5.47-3.27-7.44.61Z"/>
              <path class="cls-27" d="M865.25,1004.26l.22,15.33s3.28,1.43,3.5.2c.22-1.23,0-15.53,0-15.53h-3.72Z"/>
            </g>
          </g>
          <g>
            <path class="cls-26" d="M841.58,1008.53s27.57-7.66,35.61-13.4c8.04-5.74,31.01-21.06,39.05-19.53,8.04,1.53,37.9-15.31,49.77-9.57,11.87,5.74,17.99,8.42,19.14,13.78,1.15,5.36,3.06,21.82-2.3,26.42-5.36,4.59-35.61,16.46-35.61,16.46,0,0-67.77,7.66-76.57,8.42s-23.74.77-23.74.77l-5.36-23.35Z"/>
            <path class="cls-20" d="M942.32,984.75s.42-.94.95-2.43c1.83-5.14,4.94-16.81-3.67-18.59-11.1-2.3-32.93-4.21-34.46,0s-4.21,13.02-5.36,15.31c-1.15,2.3-3.06,9.95-10.72,14.55s-36.75,4.59-35.99,14.55c.77,9.95,7.27,17.61,18.76,13.78,11.49-3.83,49.01-17.99,55.13-21.82"/>
            <g>
              <path class="cls-11" d="M792.3,1043.14l2.43,18.65s39.73,12.97,90.01,5.68c50.28-7.3,105.01-29.46,105.01-29.46l2.03-19.2-199.48,24.33Z"/>
              <path class="cls-24" d="M849.97,1032.47s32.34-24.2,60.73-26.63c28.38-2.43,17.03-14.6,31.63-21.08s11.35-10.54,25.14-10.54,25.14,4.87,22.71,14.6c-2.43,9.73,0,33.25,0,33.25,0,0-120.32,32.97-141.4,27.29-21.08-5.68-10.15-12.01,1.21-16.88Z"/>
              <path class="cls-11" d="M791.49,1046.38s2.62-33.64,51.62-39c0,0,41.08,25.42,32.16,43.26,0,0-31.08,8.72-83.79-4.26Z"/>
            </g>
            <g>
              <ellipse class="cls-6" cx="907.73" cy="1006.79" rx="4.58" ry="5.13" transform="translate(-354.65 1500.75) rotate(-69.33)"/>
              <path class="cls-21" d="M910.68,1004.1s-20.48-13.22-32.18-11.03c-11.7,2.19-11.86,2.38-10.06,3.37,1.8.99,30.57,5.91,35.75,10.45,5.18,4.54,6.49-2.79,6.49-2.79Z"/>
            </g>
            <g>
              <ellipse class="cls-6" cx="878.25" cy="1016.36" rx="4.58" ry="5.13" transform="translate(-382.68 1479.36) rotate(-69.33)"/>
              <path class="cls-21" d="M881.2,1013.67s-20.48-13.22-32.18-11.03c-11.7,2.19-11.86,2.38-10.06,3.37s30.57,5.91,35.75,10.45,6.49-2.79,6.49-2.79Z"/>
            </g>
            <g>
              <ellipse class="cls-6" cx="892.17" cy="1013.1" rx="4.58" ry="5.13" transform="translate(-369.39 1493.52) rotate(-69.48)"/>
              <path class="cls-21" d="M895.11,1010.41s-20.51-13.17-32.21-10.95c-11.69,2.22-11.86,2.41-10.05,3.39,1.81.99,30.59,5.84,35.78,10.36,5.19,4.52,6.48-2.81,6.48-2.81Z"/>
            </g>
            <g>
              <ellipse class="cls-6" cx="922.05" cy="998.72" rx="4.58" ry="5.13" transform="translate(-350.11 1477.49) rotate(-67.91)"/>
              <path class="cls-21" d="M925.06,996.1s-20.17-13.69-31.92-11.78c-11.74,1.91-11.92,2.1-10.13,3.13,1.78,1.03,30.43,6.63,35.5,11.29,5.07,4.66,6.55-2.64,6.55-2.64Z"/>
            </g>
            <path class="cls-21" d="M941.51,989s3.83,50.54-.77,52.45c-4.59,1.91-4.98-50.92-4.98-50.92,0,0,7.27-4.98,7.27-1.15"/>
          </g>
        </g>
        <g>
          <path class="cls-9" d="M1333,467.66s-221.64,15.83-307.84,8.8c-86.19-7.04-178.88,23.35-159.8,50.38,19.08,27.02,92.96,30.54,114.06,71,21.11,40.46-14.07,79.16,38.7,86.19,52.77,7.04,56.29,218.12,68.6,239.23,12.31,21.11,49.25,38.7,98.51,52.77s233.96,14.07,260.34,14.07,146.6-343.88,158.32-378.2c17.07-49.99,12.15-37.95,59.26-45.06,0,0,268.71,33.31,293.33-10.67,24.63-43.98-27.56-70.22-27.56-70.22l-595.93-18.29Z"/>
          <polygon class="cls-49" points="1151.38 536.7 1135.31 537.79 1127.1 551.65 1121.09 536.7 1105.38 533.18 1117.74 522.85 1116.23 506.81 1129.88 515.37 1144.66 508.99 1140.74 524.61 1151.38 536.7"/>
          <polygon class="cls-49" points="1165.89 849.37 1149.82 850.47 1141.61 864.32 1135.61 849.38 1119.89 845.85 1132.25 835.52 1130.75 819.48 1144.39 828.05 1159.18 821.66 1155.25 837.28 1165.89 849.37"/>
          <polygon class="cls-49" points="1485.16 871.8 1469.09 872.89 1460.88 886.75 1454.88 871.81 1439.16 868.28 1451.52 857.95 1450.02 841.91 1463.66 850.48 1478.45 844.09 1474.52 859.71 1485.16 871.8"/>
          <polygon class="cls-49" points="1309.66 701.79 1300.56 688.49 1284.45 688.45 1294.29 675.69 1289.35 660.36 1304.52 665.77 1317.58 656.34 1317.12 672.44 1330.13 681.94 1314.67 686.48 1309.66 701.79"/>
          <polygon class="cls-49" points="1547.09 525.22 1537.97 511.94 1521.86 511.92 1531.67 499.15 1526.71 483.82 1541.89 489.21 1554.93 479.75 1554.5 495.85 1567.53 505.33 1552.08 509.9 1547.09 525.22"/>
          <path class="cls-19" d="M1155.34,701.61s10.55,191.3,110.82,225.6"/>
          <path class="cls-19" d="M993.06,512.95s164.91,130.61,317.95,101.59"/>
          <path class="cls-19" d="M1644.8,514.27s-62.01,9.24-73.88,32.98c-11.87,23.75-175.47,335.1-175.47,335.1"/>
          <path class="cls-19" d="M1483.84,560.45c0-3.96,92.35-50.13,108.18-50.13s31.66,1.32,31.66,1.32"/>
          <path class="cls-19" d="M1456.14,920.62s0,75.2-189.98,35.62"/>
        </g>
      </g>
      <g class="cls-65">
        <g>
          <path class="cls-53" d="M2413.58-448.73s99.88-1.52,124.64,50.78c24.77,52.3,91.41,208.29,89.03,229.15-2.39,20.86,8.89,164.5-95.47,258.51,0,0-44.34,114.79-106.66,130.95l-186.97,1011s-399.32-64.63-376.24-161.57c23.08-96.94,348.54-944.06,355.46-974.07,6.92-30.01,76.17-443.18,96.94-466.26,20.77-23.08,59.44-81.76,99.25-78.48Z"/>
          <path class="cls-14" d="M2609.73-620.39c-11.8-1.43-89.64,61.17-89.64,61.17l-115.89,110.35c-34.06,9.06-65.6,44.12-84.42,72.67-19.28,29.25-20.64,66.38-27.36,99.72-8.3,41.19-16.6,82.38-24.89,123.57-16.72,82.97-33.43,165.94-50.15,248.9l-329.42,892.74"/>
        </g>
      </g>
      <g class="cls-63">
        <text class="cls-30" transform="translate(730.94 1047.21)"><tspan x="0" y="0">Con los das, Luis le pidi el </tspan><tspan x="0" y="50.4">nmero de telfono a Cami </tspan><tspan x="0" y="100.8">y empezaron a chatear </tspan><tspan x="0" y="151.2">incluso fuera del juego. </tspan></text>
      </g>
      <polygon class="cls-34" points="481.44 512.11 369.44 192.11 849.44 192.11 709.89 512.11 481.44 512.11"/>
      <g class="cls-68">
        <g>
          <g>
            <rect class="cls-52" x="1717.11" y="510.68" width="2576.31" height="107.36"/>
            <polygon class="cls-43" points="4209.83 701.11 1800.69 701.11 1717.11 618.04 4293.42 618.04 4209.83 701.11"/>
          </g>
          <path class="cls-31" d="M3909.36,3462.6s-501.45,6.13-819.72,67.48c-318.27,61.35-912.08-67.48-912.08-67.48-147.54,0-267.14-124.36-267.14-277.76v-2000.2c0-86.58,67.5-156.77,150.78-156.77,0,0,321.97,94.08,545.82,71.36,223.85-22.72,1452.78-71.36,1452.78-71.36,64.45,0,116.69,54.32,116.69,121.33,0,0-42.87,779.64,30.88,1138.05,73.75,358.42-30.88,897.58-30.88,897.58,0,153.4-119.6,277.76-267.14,277.76Z"/>
        </g>
      </g>
      <path class="cls-32" d="M751.22,388.11s-34.67-10.67-37.33-28.44c-2.67-17.78-8-57.78-19.56-43.56-11.56,14.22-12.44,47.11-15.11,56.89-2.67,9.78-4.44,65.78-4.44,70.22s8,31.11,13.33,34.67c5.33,3.56,16.95,5.47,20.48,10.73,3.52,5.27,21.3,19.49,30.19,22.15,8.89,2.67,32.7-21.39,33.68-23.14.98-1.75-1.51-15.13-1.51-15.13,0,0-28.61-32.84-26.84-40.84,1.78-8-8-44.44,7.11-43.56Z"/>
      <path class="cls-32" d="M535.22,299.22l1.78,200.89,12.44.89,4.44-165.33,81.78-5.33.89-21.33,1.64-11.29-78.09,3.29-8.89-12.44-16-3.56s-18.67-2.67-19.56-15.11c-.89-12.44-4.44-32.89-4.44-32.89l-15.11,4.44s-5.33,22.22-2.67,24.89c2.67,2.67,6.22,16,6.22,16l21.41,3.01,18.52,15.71"/>
      <g>
        <path class="cls-39" d="M467.67,304.56c0,24.73-18.04,45.24-41.68,49.11l55.46,158.44h228.44l139.56-320h-480l24.15,69c7.19-4.03,15.47-6.33,24.29-6.33,27.49,0,49.78,22.29,49.78,49.78Z"/>
        <path class="cls-32" d="M0,0v1080h1920V0H0ZM900.56,449.44c-14.22,15.11-97.78,8-101.33,8.89-3.56.89-5.33,8-13.33.89-8-7.11-14.22-36.44-18.67-42.67s-8.89-24.89,9.78-20.44l12.72,27.65c4.64,10.08,14.85,16.41,25.94,16.05,32.36-1.04,95.55-1.69,84.9,9.63ZM364.11,523.67h-45.33s39.77-15.35-20.78-39.67l40.78-.33s36,8,25.33,40ZM368.11,304.56c0-18.67,10.28-34.92,25.48-43.44l-24.15-69h480l-139.56,320h-228.44l-55.46-158.44c-2.64.43-5.34.67-8.1.67-27.49,0-49.78-22.29-49.78-49.78ZM626.78,567.67c0,3.44-2.79,6.22-6.22,6.22h-103.11c-3.44,0-6.22-2.79-6.22-6.22h0c0-3.44,2.79-6.22,6.22-6.22h103.11c3.44,0,6.22,2.79,6.22,6.22h0ZM725.44,545.44h-304c-4.91,0-8.89-3.98-8.89-8.89s3.98-8.89,8.89-8.89h304c4.91,0,8.89,3.98,8.89,8.89s-3.98,8.89-8.89,8.89ZM756.56,543.67c-20.44-4.44-7.11-10.67-7.11-10.67l107.56,1.78,4.44,8.89s-84.44,4.44-104.89,0ZM1062.05,727.65c-8.27-3.11-14-10.65-18.58-18.21-5.58-9.22-10.34-20.29-21.17-24.13-8.23-2.92-17.86-1.98-25.1-6.86-6.05-4.07-9.09-11.42-10.33-18.61-3.36-19.41-1.93-39.3-10.68-57.58-12.63-26.39-45.82-36.69-70.07-48.98-13.52-6.85-41.06-17.47-43.6-34.86-.8-5.48,2.23-10.95,6.45-14.54,8.4-7.16,20.65-10.03,31.33-11.81,6.27-1.05,12.61-1.63,18.94-2.14,6.11-.49,20.85,1.63,25.77-1.38,0,0-43.56,26.67-5.33,31.11,38.22,4.44,85.33,42.67,73.78,63.11-11.56,20.44-28.44,32.89-12.44,48.89s18.67,32,43.56,45.33c11.38,6.1,19.88,17.59,24.71,29.36,3.04,7.41,8.42,27.17-7.22,21.28ZM1265.89,491.22c-9.78,1.78-47.11,0-84.44,0s-79.11,9.78-120.89,6.22c-41.78-3.56-69.33-7.11-69.33-7.11-26.67-7.11,26.67-9.78,56.89-5.33,30.22,4.44,48.89,0,77.33-.89,28.44-.89,136.89-4.44,154.67-1.78,17.78,2.67-4.44,7.11-14.22,8.89Z"/>
      </g>
    </g>
  </g>
</svg>