<?xml version="1.0" encoding="UTF-8"?>
<svg id="Capa_1" data-name="Capa 1" xmlns="http://www.w3.org/2000/svg" viewBox="0 0 1841 1021">
  <defs>
    <style>
      .cls-1 {
        fill: #fff;
      }

      .cls-2 {
        fill: #2b1845;
        stroke: #000;
        stroke-miterlimit: 10;
      }

      .cls-3 {
        fill: #93278f;
      }

      .cls-4 {
        fill: #fcee21;
      }
    </style>
  </defs>
  <rect class="cls-2" x="-77.96" y="-49.13" width="1988.52" height="1119.26"/>
  <g id="Capa_2" data-name="Capa 2">
    <g id="Capa_1-2" data-name="Capa 1-2">
      <g>
        <rect class="cls-4" x="1791" y="311" width="21" height="58"/>
        <rect class="cls-3" x="1663" y="113" width="11" height="11"/>
        <rect class="cls-4" x="671" y="141" width="11" height="11"/>
        <rect class="cls-4" x="110" y="8" width="11" height="11"/>
        <rect class="cls-4" y="751" width="3" height="270"/>
        <rect class="cls-4" x="1270" y="138" width="5" height="5"/>
        <rect class="cls-4" x="220" y="403" width="5" height="5"/>
        <rect class="cls-1" x="428" y="241" width="5" height="5"/>
        <rect class="cls-4" x="1623" width="5" height="5"/>
        <rect class="cls-3" x="1193" y="83" width="5" height="5"/>
        <rect class="cls-3" x="277" y="239" width="5" height="5"/>
        <rect class="cls-3" x="1227" y="623" width="5" height="5"/>
        <rect class="cls-3" x="285" y="667" width="5" height="5"/>
        <rect class="cls-3" x="339.22" y="849.78" width="15.84" height="15.84" transform="translate(-557.1 1053.97) rotate(-80.21)"/>
        <g>
          <g>
            <polygon class="cls-3" points="120.4 338.46 124.64 330.2 115.27 325.39 102.78 329.4 120.4 338.46"/>
            <polygon class="cls-3" points="110.98 300.61 98.49 304.62 93.55 314.24 83.94 309.3 71.45 313.31 81.24 318.34 105.96 310.4 110.98 300.61"/>
            <polygon class="cls-3" points="101.81 318.47 102.6 316.92 87.77 321.69 89.32 322.49 85.75 329.42 108.74 322.04 101.81 318.47"/>
            <polygon class="cls-3" points="105.28 291.4 101.85 298.09 111.97 294.84 105.28 291.4"/>
            <polygon class="cls-3" points="70.72 302.51 67.28 309.2 77.41 305.94 70.72 302.51"/>
            <polygon class="cls-3" points="77.59 345.32 85.84 349.56 94.89 331.94 82.4 335.95 77.59 345.32"/>
            <polygon class="cls-3" points="64.44 310.11 63.64 311.67 68.6 314.22 81.09 310.21 74.57 306.86 64.44 310.11"/>
            <polygon class="cls-3" points="99 299.01 95.65 305.53 108.14 301.52 110.69 296.56 109.13 295.75 99 299.01"/>
            <polygon class="cls-3" points="89.55 321.12 104.38 316.35 107.74 309.83 83.02 317.77 89.55 321.12"/>
            <polygon class="cls-3" points="82.42 330.49 79.07 337.02 91.56 333.01 94.23 327.8 99.44 330.47 111.94 326.46 105.41 323.11 82.42 330.49"/>
          </g>
          <g>
            <polygon class="cls-4" points="125.07 336.96 129.31 328.7 119.94 323.89 107.44 327.9 125.07 336.96"/>
            <polygon class="cls-4" points="115.65 299.11 103.16 303.12 98.22 312.74 88.61 307.8 76.11 311.81 85.91 316.84 110.62 308.9 115.65 299.11"/>
            <polygon class="cls-4" points="106.47 316.98 107.27 315.43 92.43 320.19 93.98 320.99 90.42 327.92 113.41 320.54 106.47 316.98"/>
            <polygon class="cls-4" points="109.95 289.9 106.51 296.59 116.64 293.34 109.95 289.9"/>
            <polygon class="cls-4" points="75.39 301.01 71.95 307.7 82.08 304.44 75.39 301.01"/>
            <polygon class="cls-4" points="82.25 343.82 90.51 348.06 99.56 330.44 87.07 334.45 82.25 343.82"/>
            <polygon class="cls-4" points="69.1 308.61 68.3 310.17 73.27 312.72 85.76 308.71 79.23 305.36 69.1 308.61"/>
            <polygon class="cls-4" points="103.67 297.51 100.31 304.04 112.8 300.02 115.36 295.06 113.79 294.25 103.67 297.51"/>
            <polygon class="cls-4" points="94.21 319.62 109.05 314.85 112.4 308.33 87.69 316.27 94.21 319.62"/>
            <polygon class="cls-4" points="87.09 329 83.73 335.52 96.22 331.51 98.9 326.3 104.11 328.98 116.6 324.96 110.07 321.61 87.09 329"/>
          </g>
          <g>
            <polygon class="cls-1" points="122.85 337.67 127.08 329.42 117.71 324.61 105.22 328.62 122.85 337.67"/>
            <polygon class="cls-1" points="113.43 299.82 100.94 303.83 96 313.45 86.38 308.51 73.89 312.52 83.68 317.55 108.4 309.61 113.43 299.82"/>
            <polygon class="cls-1" points="104.25 317.69 105.05 316.14 90.21 320.91 91.76 321.7 88.2 328.64 111.19 321.25 104.25 317.69"/>
            <polygon class="cls-1" points="107.73 290.62 104.29 297.31 114.42 294.05 107.73 290.62"/>
            <polygon class="cls-1" points="73.16 301.72 69.73 308.41 79.86 305.16 73.16 301.72"/>
            <polygon class="cls-1" points="80.03 344.54 88.28 348.78 97.34 331.15 84.84 335.17 80.03 344.54"/>
            <polygon class="cls-1" points="66.88 309.33 66.08 310.89 71.05 313.44 83.54 309.43 77.01 306.07 66.88 309.33"/>
            <polygon class="cls-1" points="101.44 298.22 98.09 304.75 110.58 300.74 113.13 295.77 111.57 294.97 101.44 298.22"/>
            <polygon class="cls-1" points="91.99 320.33 106.83 315.57 110.18 309.04 85.46 316.98 91.99 320.33"/>
            <polygon class="cls-1" points="84.86 329.71 81.51 336.24 94 332.22 96.68 327.01 101.89 329.69 114.38 325.68 107.85 322.32 84.86 329.71"/>
          </g>
        </g>
        <g>
          <g>
            <polygon class="cls-3" points="1377.02 712.13 1372.09 704.27 1363.16 709.86 1360.23 722.65 1377.02 712.13"/>
            <polygon class="cls-3" points="1339.67 700.88 1336.74 713.67 1342.48 722.83 1333.32 728.57 1330.39 741.36 1339.72 735.51 1345.52 710.21 1339.67 700.88"/>
            <polygon class="cls-3" points="1350.34 717.9 1349.42 716.43 1345.93 731.62 1347.41 730.69 1351.55 737.3 1356.95 713.76 1350.34 717.9"/>
            <polygon class="cls-3" points="1328.85 701.08 1332.84 707.46 1335.22 697.09 1328.85 701.08"/>
            <polygon class="cls-3" points="1320.73 736.47 1324.73 742.84 1327.11 732.47 1320.73 736.47"/>
            <polygon class="cls-3" points="1361.05 752.44 1368.91 747.51 1358.38 730.73 1355.45 743.51 1361.05 752.44"/>
            <polygon class="cls-3" points="1324.06 745.75 1324.99 747.24 1329.72 744.28 1332.65 731.49 1326.44 735.39 1324.06 745.75"/>
            <polygon class="cls-3" points="1332.17 710.37 1336.07 716.59 1339 703.8 1336.04 699.07 1334.55 700 1332.17 710.37"/>
            <polygon class="cls-3" points="1346.35 729.79 1349.83 714.6 1345.94 708.39 1340.13 733.69 1346.35 729.79"/>
            <polygon class="cls-3" points="1350.77 740.71 1354.67 746.93 1357.6 734.14 1354.49 729.18 1359.45 726.06 1362.38 713.28 1356.16 717.17 1350.77 740.71"/>
          </g>
          <g>
            <polygon class="cls-4" points="1378.11 707.35 1373.19 699.49 1364.26 705.09 1361.33 717.87 1378.11 707.35"/>
            <polygon class="cls-4" points="1340.77 696.11 1337.83 708.89 1343.58 718.05 1334.42 723.8 1331.49 736.58 1340.81 730.74 1346.61 705.43 1340.77 696.11"/>
            <polygon class="cls-4" points="1351.44 713.13 1350.51 711.65 1347.03 726.84 1348.51 725.91 1352.65 732.52 1358.04 708.98 1351.44 713.13"/>
            <polygon class="cls-4" points="1329.94 696.3 1333.94 702.68 1336.31 692.31 1329.94 696.3"/>
            <polygon class="cls-4" points="1321.83 731.69 1325.82 738.06 1328.2 727.69 1321.83 731.69"/>
            <polygon class="cls-4" points="1362.14 747.66 1370 742.73 1359.48 725.95 1356.54 738.74 1362.14 747.66"/>
            <polygon class="cls-4" points="1325.16 740.98 1326.09 742.46 1330.82 739.5 1333.75 726.71 1327.53 730.61 1325.16 740.98"/>
            <polygon class="cls-4" points="1333.27 705.59 1337.17 711.81 1340.1 699.02 1337.13 694.29 1335.65 695.22 1333.27 705.59"/>
            <polygon class="cls-4" points="1347.45 725.01 1350.93 709.82 1347.03 703.61 1341.23 728.91 1347.45 725.01"/>
            <polygon class="cls-4" points="1351.86 735.93 1355.76 742.15 1358.69 729.36 1355.58 724.4 1360.55 721.29 1363.48 708.5 1357.26 712.4 1351.86 735.93"/>
          </g>
          <g>
            <polygon class="cls-1" points="1377.59 709.62 1372.66 701.77 1363.74 707.36 1360.81 720.15 1377.59 709.62"/>
            <polygon class="cls-1" points="1340.24 698.38 1337.31 711.17 1343.05 720.33 1333.9 726.07 1330.96 738.86 1340.29 733.01 1346.09 707.71 1340.24 698.38"/>
            <polygon class="cls-1" points="1350.91 715.4 1349.99 713.92 1346.51 729.11 1347.98 728.19 1352.13 734.79 1357.52 711.26 1350.91 715.4"/>
            <polygon class="cls-1" points="1329.42 698.58 1333.41 704.95 1335.79 694.58 1329.42 698.58"/>
            <polygon class="cls-1" points="1321.31 733.97 1325.3 740.34 1327.68 729.97 1321.31 733.97"/>
            <polygon class="cls-1" points="1361.62 749.94 1369.48 745.01 1358.95 728.22 1356.02 741.01 1361.62 749.94"/>
            <polygon class="cls-1" points="1324.63 743.25 1325.57 744.74 1330.3 741.77 1333.23 728.99 1327.01 732.88 1324.63 743.25"/>
            <polygon class="cls-1" points="1332.75 707.87 1336.64 714.08 1339.58 701.3 1336.61 696.57 1335.12 697.5 1332.75 707.87"/>
            <polygon class="cls-1" points="1346.92 727.29 1350.41 712.1 1346.51 705.88 1340.71 731.19 1346.92 727.29"/>
            <polygon class="cls-1" points="1351.34 738.21 1355.24 744.43 1358.17 731.64 1355.06 726.67 1360.02 723.56 1362.96 710.77 1356.74 714.67 1351.34 738.21"/>
          </g>
        </g>
        <g>
          <g>
            <path class="cls-3" d="M1716.05,806.75l-5.43-3.01c-.12,.26-.24,.52-.38,.77-.8,1.44-1.82,2.68-2.98,3.71l5.64,3.13c1.04-1.15,1.99-2.42,2.77-3.83,.14-.25,.25-.51,.38-.77Z"/>
            <path class="cls-3" d="M1707.69,779.66c-4.33-2.4-9.16-3.06-13.68-2.21l22.8,12.64c-1.68-4.28-4.8-8.03-9.12-10.43Z"/>
            <path class="cls-3" d="M1712,799.56l5.68,3.15c.6-2.32,.8-4.68,.58-7l-7.46-4.14c1.14,2.47,1.58,5.24,1.2,7.98h0Z"/>
            <path class="cls-3" d="M1688.6,786.65c2.12-1.77,4.7-2.88,7.4-3.22l-7.46-4.14c-2.08,1.05-3.98,2.47-5.63,4.2l5.69,3.16h0Z"/>
            <path class="cls-3" d="M1685.72,789.93l-5.43-3.01c-.15,.24-.31,.47-.45,.73-.78,1.41-1.36,2.89-1.78,4.38l5.64,3.13c.26-1.54,.77-3.06,1.57-4.5,.14-.25,.3-.49,.45-.73h0Z"/>
            <path class="cls-3" d="M1690.83,810.07c-3.92-2.17-6.41-5.93-7.13-10.03l-6.38-3.54c-.39,7.57,3.43,15.08,10.5,19s15.46,3.18,21.68-1.16l-6.38-3.54c-3.86,1.56-8.37,1.44-12.29-.73h0Z"/>
            <path class="cls-3" d="M1714.67,788.9l-22.8-12.64c-1.9,.35-3.74,.98-5.47,1.85l7.46,4.14c2.9-.36,5.93,.14,8.68,1.66,2.75,1.52,4.78,3.83,6.01,6.48l7.46,4.14c-.18-1.93-.63-3.82-1.33-5.62h-.01Z"/>
            <path class="cls-3" d="M1713.23,800c-.2,1.42-.62,2.83-1.26,4.18l5.43,3.01c.66-1.31,1.16-2.67,1.52-4.04l-5.68-3.15h-.01Z"/>
            <path class="cls-3" d="M1681.64,788l5.43,3.01c.8-1.27,1.78-2.37,2.88-3.29l-5.68-3.15c-.98,1.03-1.86,2.17-2.62,3.43h-.01Z"/>
            <path class="cls-3" d="M1700.6,809l6.38,3.54c1.23-.86,2.37-1.86,3.41-2.99l-5.64-3.13c-1.24,1.1-2.64,1.97-4.14,2.58h-.01Z"/>
            <path class="cls-3" d="M1675.54,791c-.42,1.48-.66,2.98-.73,4.47l6.38,3.54c-.28-1.6-.28-3.25,0-4.88l-5.64-3.13h-.01Z"/>
          </g>
          <g>
            <path class="cls-4" d="M1719.58,808.7l-5.43-3.01c-.12,.26-.24,.52-.38,.77-.8,1.44-1.82,2.68-2.98,3.71l5.64,3.13c1.04-1.15,1.99-2.42,2.77-3.83,.14-.25,.25-.51,.38-.77Z"/>
            <path class="cls-4" d="M1711.22,781.62c-4.33-2.4-9.16-3.06-13.68-2.21l22.8,12.64c-1.68-4.28-4.8-8.03-9.12-10.43Z"/>
            <path class="cls-4" d="M1715,801.51l5.68,3.15c.6-2.32,.8-4.68,.58-7l-7.46-4.14c1.14,2.47,1.58,5.24,1.2,7.98h0Z"/>
            <path class="cls-4" d="M1692.12,788.6c2.12-1.77,4.7-2.88,7.4-3.22l-7.46-4.14c-2.08,1.05-3.98,2.47-5.63,4.2l5.69,3.16h0Z"/>
            <path class="cls-4" d="M1689.25,791.89l-5.43-3.01c-.15,.24-.31,.47-.45,.73-.78,1.41-1.36,2.89-1.78,4.38l5.64,3.13c.26-1.54,.77-3.06,1.57-4.5,.14-.25,.3-.49,.45-.73h0Z"/>
            <path class="cls-4" d="M1694.36,812.02c-3.92-2.17-6.41-5.93-7.13-10.03l-6.38-3.54c-.39,7.57,3.43,15.08,10.5,19s15.46,3.18,21.68-1.16l-6.38-3.54c-3.86,1.56-8.37,1.44-12.29-.73h0Z"/>
            <path class="cls-4" d="M1718.19,790.85l-22.8-12.64c-1.9,.35-3.74,.98-5.47,1.85l7.46,4.14c2.9-.36,5.93,.14,8.68,1.66,2.75,1.52,4.78,3.83,6.01,6.48l7.46,4.14c-.18-1.93-.63-3.82-1.33-5.62h-.01Z"/>
            <path class="cls-4" d="M1716.76,802c-.2,1.42-.62,2.83-1.26,4.18l5.43,3.01c.66-1.31,1.16-2.67,1.52-4.04l-5.68-3.15h-.01Z"/>
            <path class="cls-4" d="M1685.16,790l5.43,3.01c.8-1.27,1.78-2.37,2.88-3.29l-5.68-3.15c-.98,1.03-1.86,2.17-2.62,3.43h-.01Z"/>
            <path class="cls-4" d="M1704.13,811l6.38,3.54c1.23-.86,2.37-1.86,3.41-2.99l-5.64-3.13c-1.24,1.1-2.64,1.97-4.14,2.58h-.01Z"/>
            <path class="cls-4" d="M1679.06,793c-.42,1.48-.66,2.98-.73,4.47l6.38,3.54c-.28-1.6-.28-3.25,0-4.88l-5.64-3.13h-.01Z"/>
          </g>
          <g>
            <path class="cls-1" d="M1717.9,807.77l-5.43-3.01c-.12,.26-.24,.52-.38,.77-.8,1.44-1.82,2.68-2.98,3.71l5.64,3.13c1.04-1.15,1.99-2.42,2.77-3.83,.14-.25,.25-.51,.38-.77Z"/>
            <path class="cls-1" d="M1709.54,780.69c-4.33-2.4-9.16-3.06-13.68-2.21l22.8,12.64c-1.68-4.28-4.8-8.03-9.12-10.43Z"/>
            <path class="cls-1" d="M1714,800.58l5.68,3.15c.6-2.32,.8-4.68,.58-7l-7.46-4.14c1.14,2.47,1.58,5.24,1.2,7.98h0Z"/>
            <path class="cls-1" d="M1690.44,787.67c2.12-1.77,4.7-2.88,7.4-3.22l-7.46-4.14c-2.08,1.05-3.98,2.47-5.63,4.2l5.69,3.16h0Z"/>
            <path class="cls-1" d="M1687.57,790.95l-5.43-3.01c-.15,.24-.31,.47-.45,.73-.78,1.41-1.36,2.89-1.78,4.38l5.64,3.13c.26-1.54,.77-3.06,1.57-4.5,.14-.25,.3-.49,.45-.73h0Z"/>
            <path class="cls-1" d="M1692.68,811.09c-3.92-2.17-6.41-5.93-7.13-10.03l-6.38-3.54c-.39,7.57,3.43,15.08,10.5,19s15.46,3.18,21.68-1.16l-6.38-3.54c-3.86,1.56-8.37,1.44-12.29-.73h0Z"/>
            <path class="cls-1" d="M1716.51,789.92l-22.8-12.64c-1.9,.35-3.74,.98-5.47,1.85l7.46,4.14c2.9-.36,5.93,.14,8.68,1.66,2.75,1.52,4.78,3.83,6.01,6.48l7.46,4.14c-.18-1.93-.63-3.82-1.33-5.62h-.01Z"/>
            <path class="cls-1" d="M1715.08,801c-.2,1.42-.62,2.83-1.26,4.18l5.43,3.01c.66-1.31,1.16-2.67,1.52-4.04l-5.68-3.15h-.01Z"/>
            <path class="cls-1" d="M1683.48,789l5.43,3.01c.8-1.27,1.78-2.37,2.88-3.29l-5.68-3.15c-.98,1.03-1.86,2.17-2.62,3.43h-.01Z"/>
            <path class="cls-1" d="M1702.45,810l6.38,3.54c1.23-.86,2.37-1.86,3.41-2.99l-5.64-3.13c-1.24,1.1-2.64,1.97-4.14,2.58h-.01Z"/>
            <path class="cls-1" d="M1677.38,792c-.42,1.48-.66,2.98-.73,4.47l6.38,3.54c-.28-1.6-.28-3.25,0-4.88l-5.64-3.13h-.01Z"/>
          </g>
        </g>
        <g>
          <g>
            <path class="cls-3" d="M1245,107.55l-4.72-2.61c-.11,.22-.21,.45-.33,.67-.69,1.25-1.58,2.32-2.59,3.23l4.9,2.72c.91-1,1.72-2.1,2.41-3.33,.12-.22,.22-.44,.33-.67h0Z"/>
            <path class="cls-3" d="M1237.78,84.02c-3.76-2.08-7.95-2.66-11.88-1.92l19.8,10.98c-1.46-3.72-4.17-6.97-7.92-9.06Z"/>
            <path class="cls-3" d="M1241.42,101.3l4.94,2.74c.52-2.01,.69-4.06,.5-6.08l-6.48-3.59c.99,2.15,1.37,4.55,1.04,6.93Z"/>
            <path class="cls-3" d="M1221,90.09c1.84-1.54,4.08-2.5,6.43-2.79l-6.48-3.59c-1.81,.91-3.46,2.14-4.89,3.65l4.94,2.74h0Z"/>
            <path class="cls-3" d="M1218.7,93l-4.72-2.61c-.13,.21-.27,.41-.39,.63-.68,1.23-1.18,2.51-1.55,3.8l4.9,2.72c.23-1.34,.67-2.66,1.36-3.91,.12-.22,.26-.42,.39-.63h.01Z"/>
            <path class="cls-3" d="M1223.14,110.43c-3.4-1.89-5.57-5.15-6.19-8.71l-5.54-3.07c-.34,6.58,2.98,13.1,9.12,16.5s13.42,2.76,18.82-1.01l-5.54-3.07c-3.35,1.36-7.27,1.25-10.67-.64h0Z"/>
            <path class="cls-3" d="M1243.84,92.04l-19.8-10.98c-1.65,.31-3.25,.85-4.75,1.6l6.48,3.59c2.52-.32,5.15,.12,7.54,1.44s4.15,3.33,5.22,5.63l6.48,3.59c-.16-1.67-.54-3.32-1.16-4.88h0Z"/>
            <path class="cls-3" d="M1243,101.95c-.17,1.23-.53,2.46-1.1,3.63l4.72,2.61c.57-1.14,1.01-2.31,1.32-3.51l-4.94-2.74h0Z"/>
            <path class="cls-3" d="M1215.15,90.98l4.72,2.61c.7-1.1,1.54-2.05,2.5-2.85l-4.94-2.74c-.85,.89-1.61,1.89-2.28,2.98Z"/>
            <path class="cls-3" d="M1232,109.85l5.54,3.07c1.07-.75,2.06-1.61,2.96-2.6l-4.9-2.72c-1.07,.96-2.29,1.72-3.6,2.24h0Z"/>
            <path class="cls-3" d="M1209.85,93.55c-.36,1.28-.57,2.58-.64,3.89l5.54,3.07c-.24-1.39-.25-2.82,0-4.24l-4.9-2.72Z"/>
          </g>
          <g>
            <path class="cls-4" d="M1248,109.24l-4.72-2.61c-.11,.22-.21,.45-.33,.67-.69,1.25-1.58,2.32-2.59,3.23l4.9,2.72c.91-1,1.72-2.1,2.41-3.33,.12-.22,.22-.45,.33-.67h0Z"/>
            <path class="cls-4" d="M1240.84,85.72c-3.76-2.08-7.95-2.66-11.88-1.92l19.8,10.98c-1.46-3.72-4.17-6.97-7.92-9.06Z"/>
            <path class="cls-4" d="M1244.48,103l4.94,2.74c.52-2.01,.69-4.06,.5-6.08l-6.48-3.59c.99,2.15,1.37,4.55,1.04,6.93Z"/>
            <path class="cls-4" d="M1224,91.79c1.84-1.54,4.08-2.5,6.43-2.79l-6.48-3.59c-1.81,.91-3.46,2.14-4.89,3.65l4.94,2.74h0Z"/>
            <path class="cls-4" d="M1221.76,95l-4.72-2.61c-.13,.21-.27,.41-.39,.63-.68,1.23-1.18,2.51-1.55,3.8l4.9,2.72c.23-1.34,.67-2.66,1.36-3.91,.12-.22,.26-.42,.39-.63h.01Z"/>
            <path class="cls-4" d="M1226.2,112.13c-3.4-1.89-5.57-5.15-6.19-8.71l-5.54-3.07c-.34,6.58,2.98,13.1,9.12,16.5s13.42,2.76,18.82-1.01l-5.54-3.07c-3.35,1.36-7.27,1.25-10.67-.64h0Z"/>
            <path class="cls-4" d="M1246.9,93.74l-19.8-10.98c-1.65,.31-3.25,.85-4.75,1.6l6.48,3.59c2.52-.32,5.15,.12,7.54,1.44,2.38,1.32,4.15,3.33,5.22,5.63l6.48,3.59c-.16-1.67-.54-3.32-1.16-4.88h0Z"/>
            <path class="cls-4" d="M1246,103.65c-.17,1.23-.53,2.46-1.1,3.63l4.72,2.61c.57-1.14,1.01-2.31,1.32-3.51l-4.94-2.74h0Z"/>
            <path class="cls-4" d="M1218.21,92.67l4.72,2.61c.7-1.1,1.54-2.05,2.5-2.85l-4.94-2.74c-.85,.89-1.61,1.89-2.28,2.98Z"/>
            <path class="cls-4" d="M1235,111.55l5.54,3.07c1.07-.75,2.06-1.61,2.96-2.6l-4.9-2.72c-1.07,.96-2.29,1.72-3.6,2.24h0Z"/>
            <path class="cls-4" d="M1212.92,95.25c-.36,1.28-.57,2.58-.64,3.89l5.54,3.07c-.24-1.39-.25-2.82,0-4.24l-4.9-2.72Z"/>
          </g>
          <g>
            <path class="cls-1" d="M1247,108.44l-4.72-2.61c-.11,.22-.21,.45-.33,.67-.69,1.25-1.58,2.32-2.59,3.23l4.9,2.72c.91-1,1.72-2.1,2.41-3.33,.12-.22,.22-.45,.33-.67h0Z"/>
            <path class="cls-1" d="M1239.38,84.91c-3.76-2.08-7.95-2.66-11.88-1.92l19.8,10.98c-1.46-3.72-4.17-6.97-7.92-9.06Z"/>
            <path class="cls-1" d="M1243.02,102.19l4.94,2.74c.52-2.01,.69-4.06,.5-6.08l-6.48-3.59c.99,2.15,1.37,4.55,1.04,6.93Z"/>
            <path class="cls-1" d="M1223,90.98c1.84-1.54,4.08-2.5,6.43-2.79l-6.48-3.59c-1.81,.91-3.46,2.14-4.89,3.65l4.94,2.74h0Z"/>
            <path class="cls-1" d="M1220.3,94l-4.72-2.61c-.13,.21-.27,.41-.39,.63-.68,1.23-1.18,2.51-1.55,3.8l4.9,2.72c.23-1.34,.67-2.66,1.36-3.91,.12-.22,.26-.42,.39-.63h.01Z"/>
            <path class="cls-1" d="M1224.74,111.32c-3.4-1.89-5.57-5.15-6.19-8.71l-5.54-3.07c-.34,6.58,2.98,13.1,9.12,16.5s13.42,2.76,18.82-1.01l-5.54-3.07c-3.35,1.36-7.27,1.25-10.67-.64h0Z"/>
            <path class="cls-1" d="M1245.44,92.93l-19.8-10.98c-1.65,.31-3.25,.85-4.75,1.6l6.48,3.59c2.52-.32,5.15,.12,7.54,1.44s4.15,3.33,5.22,5.63l6.48,3.59c-.16-1.67-.54-3.32-1.16-4.88h0Z"/>
            <path class="cls-1" d="M1244,102.84c-.17,1.23-.53,2.46-1.1,3.63l4.72,2.61c.57-1.14,1.01-2.31,1.32-3.51l-4.94-2.74h0Z"/>
            <path class="cls-1" d="M1216.76,91.86l4.72,2.61c.7-1.1,1.54-2.05,2.5-2.85l-4.94-2.74c-.85,.89-1.61,1.89-2.28,2.98Z"/>
            <path class="cls-1" d="M1233,110.74l5.54,3.07c1.07-.75,2.06-1.61,2.96-2.6l-4.9-2.72c-1.07,.96-2.29,1.72-3.6,2.24h0Z"/>
            <path class="cls-1" d="M1211.46,94.44c-.36,1.28-.57,2.58-.64,3.89l5.54,3.07c-.24-1.39-.25-2.82,0-4.24l-4.9-2.72Z"/>
          </g>
        </g>
        <g>
          <g>
            <rect class="cls-3" x="1586.53" y="25.53" width="6" height="6.92" transform="translate(681.2 1333.74) rotate(-56.2)"/>
            <polygon class="cls-3" points="1610.15 58.59 1585.17 41.87 1588.23 37.31 1582.48 33.46 1575.57 43.77 1612.05 68.19 1618.95 57.88 1613.2 54.03 1610.15 58.59"/>
            <rect class="cls-3" x="1622.94" y="36.9" width="6.92" height="6.92" transform="translate(688.11 1369.43) rotate(-56.2)"/>
            <rect class="cls-3" x="1617.27" y="46.12" width="6" height="6.92" transform="translate(677.73 1368.42) rotate(-56.2)"/>
            <rect class="cls-3" x="1614.51" y="-.54" width="4.73" height="43.9" transform="translate(699.63 1353.1) rotate(-56.2)"/>
            <rect class="cls-3" x="1592.22" y="16.33" width="6.92" height="6.92" transform="translate(691.57 1334.77) rotate(-56.2)"/>
            <polygon class="cls-3" points="1595.15 9.75 1592.59 13.58 1598.34 17.43 1599.69 15.42 1624.66 32.14 1623.31 34.15 1629.06 38 1631.63 34.17 1595.15 9.75"/>
            <rect class="cls-3" x="1622.31" y="42.63" width="4.61" height="6.92" transform="translate(682.55 1370.48) rotate(-56.2)"/>
            <rect class="cls-3" x="1591.57" y="22.07" width="4.61" height="6.92" transform="translate(686 1335.81) rotate(-56.2)"/>
            <rect class="cls-3" x="1581.71" y="28.22" width="4.61" height="6.92" transform="translate(676.51 1330.35) rotate(-56.2)"/>
            <rect class="cls-3" x="1612.4" y="48.76" width="4.61" height="6.92" transform="translate(673.06 1364.97) rotate(-56.2)"/>
          </g>
          <g>
            <rect class="cls-4" x="1590.14" y="27.95" width="6" height="6.92" transform="translate(680.79 1337.82) rotate(-56.2)"/>
            <polygon class="cls-4" points="1613.77 61.02 1588.79 44.3 1591.85 39.74 1586.1 35.89 1579.19 46.2 1615.67 70.62 1622.57 60.31 1616.82 56.46 1613.77 61.02"/>
            <rect class="cls-4" x="1626.59" y="39.33" width="6.92" height="6.92" transform="translate(687.71 1373.54) rotate(-56.2)"/>
            <rect class="cls-4" x="1620.88" y="48.52" width="6" height="6.92" transform="translate(677.34 1372.48) rotate(-56.2)"/>
            <rect class="cls-4" x="1618.12" y="1.89" width="4.73" height="43.9" transform="translate(699.21 1357.18) rotate(-56.2)"/>
            <rect class="cls-4" x="1595.86" y="18.75" width="6.92" height="6.92" transform="translate(691.17 1338.87) rotate(-56.2)"/>
            <polygon class="cls-4" points="1598.78 12.17 1596.21 16.01 1601.96 19.86 1603.31 17.84 1628.28 34.57 1626.93 36.58 1632.68 40.43 1635.25 36.59 1598.78 12.17"/>
            <rect class="cls-4" x="1625.88" y="45.04" width="4.61" height="6.92" transform="translate(682.14 1374.52) rotate(-56.2)"/>
            <rect class="cls-4" x="1595.18" y="24.47" width="4.61" height="6.92" transform="translate(685.61 1339.88) rotate(-56.2)"/>
            <rect class="cls-4" x="1585.3" y="30.64" width="4.61" height="6.92" transform="translate(676.1 1334.41) rotate(-56.2)"/>
            <rect class="cls-4" x="1616" y="51.19" width="4.61" height="6.92" transform="translate(672.65 1369.04) rotate(-56.2)"/>
          </g>
          <g>
            <rect class="cls-1" x="1588.43" y="26.8" width="6" height="6.92" transform="translate(680.98 1335.88) rotate(-56.2)"/>
            <polygon class="cls-1" points="1612.05 59.86 1587.07 43.14 1590.12 38.58 1584.37 34.73 1577.47 45.04 1613.95 69.46 1620.85 59.15 1615.1 55.3 1612.05 59.86"/>
            <rect class="cls-1" x="1624.87" y="38.18" width="6.92" height="6.92" transform="translate(687.9 1371.6) rotate(-56.2)"/>
            <rect class="cls-1" x="1619.14" y="47.36" width="6" height="6.92" transform="translate(677.53 1370.53) rotate(-56.2)"/>
            <rect class="cls-1" x="1616.41" y=".73" width="4.73" height="43.9" transform="translate(699.42 1355.25) rotate(-56.2)"/>
            <rect class="cls-1" x="1594.12" y="17.6" width="6.92" height="6.92" transform="translate(691.35 1336.91) rotate(-56.2)"/>
            <polygon class="cls-1" points="1597.05 11.02 1594.48 14.85 1600.23 18.7 1601.58 16.69 1626.56 33.41 1625.21 35.42 1630.96 39.27 1633.53 35.44 1597.05 11.02"/>
            <rect class="cls-1" x="1624.17" y="43.87" width="4.61" height="6.92" transform="translate(682.35 1372.58) rotate(-56.2)"/>
            <rect class="cls-1" x="1593.45" y="23.33" width="4.61" height="6.92" transform="translate(685.79 1337.94) rotate(-56.2)"/>
            <rect class="cls-1" x="1583.58" y="29.47" width="4.61" height="6.92" transform="translate(676.3 1332.46) rotate(-56.2)"/>
            <rect class="cls-1" x="1614.29" y="50.04" width="4.61" height="6.92" transform="translate(672.84 1367.1) rotate(-56.2)"/>
          </g>
        </g>
        <g>
          <g>
            <rect class="cls-3" x="268.88" y="887.99" width="6.92" height="6" transform="translate(-209.01 93.28) rotate(-14.11)"/>
            <polygon class="cls-3" points="308.07 895.52 278.93 902.85 277.59 897.52 270.88 899.21 273.9 911.25 316.47 900.54 313.45 888.51 306.74 890.19 308.07 895.52"/>
            <rect class="cls-3" x="302.03" y="867.77" width="6.92" height="6.92" transform="translate(-203.19 100.77) rotate(-14.11)"/>
            <rect class="cls-3" x="304.9" y="878.93" width="6.92" height="6" transform="translate(-205.87 101.89) rotate(-14.12)"/>
            <rect class="cls-3" x="263.07" y="863.25" width="43.9" height="4.73" transform="translate(-202.44 95.61) rotate(-14.11)"/>
            <rect class="cls-3" x="266.17" y="876.79" width="6.92" height="6.92" transform="translate(-206.47 92.3) rotate(-14.11)"/>
            <polygon class="cls-3" points="261.77 873.91 262.9 878.38 269.61 876.7 269.02 874.35 298.17 867.02 298.76 869.37 305.47 867.68 304.34 863.21 261.77 873.91"/>
            <rect class="cls-3" x="305.08" y="874.1" width="6.92" height="4.61" transform="translate(-204.36 101.67) rotate(-14.11)"/>
            <rect class="cls-3" x="269.2" y="883.14" width="6.92" height="4.61" transform="translate(-207.65 93.19) rotate(-14.11)"/>
            <rect class="cls-3" x="267.14" y="894.58" width="6.92" height="4.61" transform="translate(-210.5 93.04) rotate(-14.11)"/>
            <rect class="cls-3" x="303" y="885.58" width="6.92" height="4.61" transform="translate(-207.22 101.51) rotate(-14.11)"/>
          </g>
          <g>
            <rect class="cls-4" x="273.09" y="886.92" width="6.92" height="6" transform="translate(-208.62 94.28) rotate(-14.11)"/>
            <polygon class="cls-4" points="312.3 894.45 283.15 901.78 281.81 896.46 275.1 898.15 278.13 910.18 320.7 899.48 317.67 887.44 310.96 889.13 312.3 894.45"/>
            <rect class="cls-4" x="306.25" y="866.71" width="6.92" height="6.92" transform="translate(-202.81 101.77) rotate(-14.11)"/>
            <rect class="cls-4" x="309.11" y="877.87" width="6.92" height="6" transform="translate(-205.48 102.89) rotate(-14.12)"/>
            <rect class="cls-4" x="267.3" y="862.19" width="43.9" height="4.73" transform="translate(-202.06 96.61) rotate(-14.11)"/>
            <rect class="cls-4" x="270.4" y="875.72" width="6.92" height="6.92" transform="translate(-206.09 93.3) rotate(-14.11)"/>
            <polygon class="cls-4" points="266 872.85 267.13 877.32 273.84 875.63 273.25 873.28 302.39 865.95 302.98 868.3 309.7 866.62 308.57 862.14 266 872.85"/>
            <rect class="cls-4" x="309.29" y="873.04" width="6.92" height="4.61" transform="translate(-203.98 102.67) rotate(-14.11)"/>
            <rect class="cls-4" x="273.42" y="882.06" width="6.92" height="4.61" transform="translate(-207.26 94.19) rotate(-14.11)"/>
            <rect class="cls-4" x="271.37" y="893.52" width="6.92" height="4.61" transform="translate(-210.11 94.04) rotate(-14.11)"/>
            <rect class="cls-4" x="307.21" y="884.51" width="6.92" height="4.61" transform="translate(-206.84 102.5) rotate(-14.11)"/>
          </g>
          <g>
            <rect class="cls-1" x="271.08" y="887.43" width="6.92" height="6" transform="translate(-208.81 93.81) rotate(-14.11)"/>
            <polygon class="cls-1" points="310.29 894.96 281.14 902.29 279.8 896.97 273.09 898.65 276.12 910.69 318.69 899.98 315.66 887.95 308.95 889.64 310.29 894.96"/>
            <rect class="cls-1" x="304.25" y="867.22" width="6.92" height="6.92" transform="translate(-202.99 101.29) rotate(-14.11)"/>
            <rect class="cls-1" x="306.94" y="878.41" width="6.92" height="6" transform="translate(-205.53 102.28) rotate(-14.11)"/>
            <rect class="cls-1" x="265.29" y="862.7" width="43.9" height="4.73" transform="translate(-202.24 96.13) rotate(-14.11)"/>
            <rect class="cls-1" x="268.39" y="876.24" width="6.92" height="6.92" transform="translate(-206.27 92.82) rotate(-14.11)"/>
            <polygon class="cls-1" points="263.99 873.35 265.11 877.83 271.82 876.14 271.23 873.79 300.38 866.46 300.97 868.81 307.68 867.12 306.56 862.65 263.99 873.35"/>
            <rect class="cls-1" x="307.24" y="873.56" width="6.92" height="4.61" transform="translate(-204.17 102.18) rotate(-14.11)"/>
            <rect class="cls-1" x="271.4" y="882.57" width="6.92" height="4.61" transform="translate(-207.44 93.71) rotate(-14.11)"/>
            <rect class="cls-1" x="269.36" y="894.04" width="6.92" height="4.61" transform="translate(-210.3 93.56) rotate(-14.11)"/>
            <rect class="cls-1" x="305.21" y="885.02" width="6.92" height="4.61" transform="translate(-207.02 102.03) rotate(-14.11)"/>
          </g>
        </g>
        <g>
          <g>
            <rect class="cls-3" x="334.85" y="20.2" width="5.15" height="5.94" transform="translate(105.18 269.04) rotate(-50.56)"/>
            <polygon class="cls-3" points="352.5 50.15 332.56 33.75 335.55 30.11 330.96 26.34 324.19 34.57 353.31 58.52 360.08 50.29 355.49 46.51 352.5 50.15"/>
            <rect class="cls-3" x="365.01" y="33.03" width="5.94" height="5.94" transform="translate(106.41 297.31) rotate(-50.56)"/>
            <rect class="cls-3" x="359.38" y="40.39" width="5.15" height="5.94" transform="translate(98.53 295.34) rotate(-50.56)"/>
            <rect class="cls-3" x="359.39" y=".15" width="4.06" height="37.7" transform="translate(117.15 286.05) rotate(-50.56)"/>
            <rect class="cls-3" x="340.5" y="12.86" width="5.94" height="5.94" transform="translate(113.05 271.03) rotate(-50.56)"/>
            <polygon class="cls-3" points="343.8 7.13 341.28 10.2 345.87 13.97 347.2 12.36 367.13 28.77 365.81 30.37 370.4 34.15 372.92 31.09 343.8 7.13"/>
            <rect class="cls-3" x="363.96" y="37.76" width="3.96" height="5.94" transform="translate(102.01 297.47) rotate(-50.56)"/>
            <rect class="cls-3" x="339.45" y="17.59" width="3.96" height="5.94" transform="translate(108.65 271.17) rotate(-50.56)"/>
            <rect class="cls-3" x="330.47" y="22.02" width="3.96" height="5.94" transform="translate(101.95 265.86) rotate(-50.56)"/>
            <rect class="cls-3" x="355.01" y="42.2" width="3.96" height="5.94" transform="translate(95.32 292.17) rotate(-50.56)"/>
          </g>
          <g>
            <rect class="cls-4" x="337.73" y="22.58" width="5.15" height="5.94" transform="translate(104.39 272.13) rotate(-50.56)"/>
            <polygon class="cls-4" points="355.39 52.53 335.45 36.13 338.44 32.49 333.85 28.71 327.08 36.95 356.2 60.9 362.97 52.67 358.38 48.89 355.39 52.53"/>
            <rect class="cls-4" x="367.9" y="35.41" width="5.94" height="5.94" transform="translate(105.62 300.41) rotate(-50.56)"/>
            <rect class="cls-4" x="362.27" y="42.75" width="5.15" height="5.94" transform="translate(97.76 298.44) rotate(-50.56)"/>
            <rect class="cls-4" x="362.28" y="2.52" width="4.06" height="37.7" transform="translate(116.37 289.14) rotate(-50.56)"/>
            <rect class="cls-4" x="343.38" y="15.24" width="5.94" height="5.94" transform="translate(112.26 274.12) rotate(-50.56)"/>
            <polygon class="cls-4" points="346.69 9.51 344.17 12.57 348.76 16.35 350.09 14.74 370.02 31.14 368.7 32.75 373.29 36.53 375.81 33.47 346.69 9.51"/>
            <rect class="cls-4" x="366.87" y="40.15" width="3.96" height="5.94" transform="translate(101.23 300.58) rotate(-50.56)"/>
            <rect class="cls-4" x="342.33" y="19.97" width="3.96" height="5.94" transform="translate(107.86 274.27) rotate(-50.56)"/>
            <rect class="cls-4" x="333.37" y="24.41" width="3.96" height="5.94" transform="translate(101.17 268.97) rotate(-50.56)"/>
            <rect class="cls-4" x="357.91" y="44.58" width="3.96" height="5.94" transform="translate(94.54 295.28) rotate(-50.56)"/>
          </g>
          <g>
            <rect class="cls-1" x="336.36" y="21.45" width="5.15" height="5.94" transform="translate(104.75 270.66) rotate(-50.56)"/>
            <polygon class="cls-1" points="354.01 51.4 334.07 35 337.07 31.36 332.48 27.58 325.71 35.81 354.82 59.77 361.6 51.53 357.01 47.76 354.01 51.4"/>
            <rect class="cls-1" x="366.53" y="34.29" width="5.94" height="5.94" transform="translate(105.99 298.95) rotate(-50.56)"/>
            <rect class="cls-1" x="360.88" y="41.62" width="5.15" height="5.94" transform="translate(98.12 296.95) rotate(-50.56)"/>
            <rect class="cls-1" x="360.91" y="1.39" width="4.06" height="37.7" transform="translate(116.74 287.67) rotate(-50.56)"/>
            <rect class="cls-1" x="342" y="14.1" width="5.94" height="5.94" transform="translate(112.64 272.64) rotate(-50.56)"/>
            <polygon class="cls-1" points="345.31 8.38 342.8 11.44 347.39 15.22 348.71 13.61 368.65 30.01 367.33 31.62 371.92 35.39 374.43 32.33 345.31 8.38"/>
            <rect class="cls-1" x="365.48" y="39.02" width="3.96" height="5.94" transform="translate(101.59 299.1) rotate(-50.56)"/>
            <rect class="cls-1" x="340.95" y="18.84" width="3.96" height="5.94" transform="translate(108.23 272.79) rotate(-50.56)"/>
            <rect class="cls-1" x="331.99" y="23.28" width="3.96" height="5.94" transform="translate(101.54 267.49) rotate(-50.56)"/>
            <rect class="cls-1" x="356.52" y="43.44" width="3.96" height="5.94" transform="translate(94.91 293.79) rotate(-50.56)"/>
          </g>
        </g>
        <rect class="cls-1" x="1786" y="299" width="21" height="58"/>
        <rect class="cls-3" x="1778" y="329" width="11" height="11"/>
        <rect class="cls-3" x="1830" y="383" width="11" height="11"/>
        <rect class="cls-1" x="1715" y="700" width="11" height="11"/>
        <rect class="cls-4" x="370" y="311" width="50" height="5"/>
        <rect class="cls-3" x="1258" y="602" width="50" height="5"/>
        <rect class="cls-3" x="26" y="643" width="5" height="5"/>
        <rect class="cls-3" x="57" y="622" width="50" height="5"/>
        <rect class="cls-4" x="1551" y="574" width="35" height="5"/>
        <rect class="cls-4" x="1566" y="712" width="50" height="5"/>
        <rect class="cls-3" x="1326" y="328" width="50" height="5"/>
        <rect class="cls-3" x="399" y="551" width="50" height="5"/>
        <rect class="cls-3" x="1378" y="903" width="50" height="5"/>
        <rect class="cls-4" x="1299" y="835" width="50" height="5"/>
        <rect class="cls-3" x="1155" y="403" width="28" height="5"/>
        <rect class="cls-4" x="1240" y="299" width="28" height="5"/>
        <rect class="cls-4" x="1623" y="712" width="12" height="5"/>
        <rect class="cls-4" x="353" y="311" width="12" height="5"/>
        <rect class="cls-4" x="1580" y="749" width="12" height="5"/>
        <rect class="cls-3" x="383" y="551" width="12" height="5"/>
        <rect class="cls-3" x="1309" y="843" width="12" height="5"/>
        <rect class="cls-3" x="1580" y="781" width="12" height="5"/>
        <rect class="cls-3" x="1324" y="793" width="12" height="5"/>
        <rect class="cls-3" x="406" y="615" width="12" height="5"/>
      </g>
    </g>
  </g>
  <g id="Capa_2-2" data-name="Capa 2">
    <g id="Capa_1-2-2" data-name="Capa 1-2">
      <g>
        <rect class="cls-4" x="528.92" y="322.65" width="15.21" height="56.69"/>
        <rect class="cls-3" x="629.7" y="129.38" width="7.61" height="10.31"/>
        <rect class="cls-4" x="1348.49" y="155.15" width="7.61" height="10.31"/>
        <rect class="cls-4" x="1755.43" y="26.31" width="7.61" height="10.31"/>
        <rect class="cls-4" x="1839.1" y="755.58" width="1.9" height="265.42"/>
        <rect class="cls-4" x="918.74" y="152.58" width="3.8" height="5.15"/>
        <rect class="cls-4" x="1679.37" y="412.85" width="3.8" height="5.15"/>
        <rect class="cls-1" x="1527.24" y="253.08" width="3.8" height="5.15"/>
        <rect class="cls-4" x="662.03" y="16" width="3.8" height="5.15"/>
        <rect class="cls-3" x="973.88" y="98.46" width="3.8" height="5.15"/>
        <rect class="cls-3" x="1637.53" y="250.5" width="3.8" height="5.15"/>
        <rect class="cls-3" x="949.16" y="629.31" width="3.8" height="5.15"/>
        <rect class="cls-3" x="1631.83" y="670.54" width="3.8" height="5.15"/>
        <polygon class="cls-3" points="1585.51 868.15 1596.81 865.51 1594.86 850.19 1583.56 852.83 1585.51 868.15"/>
        <g>
          <g>
            <polygon class="cls-3" points="1754.45 349.5 1751.37 341.39 1758.16 336.67 1767.21 340.6 1754.45 349.5"/>
            <polygon class="cls-3" points="1761.27 312.35 1770.31 316.28 1773.89 325.72 1780.85 320.87 1789.9 324.81 1782.81 329.75 1764.9 321.95 1761.27 312.35"/>
            <polygon class="cls-3" points="1767.91 329.88 1767.34 328.35 1778.08 333.04 1776.96 333.82 1779.54 340.62 1762.89 333.38 1767.91 329.88"/>
            <polygon class="cls-3" points="1765.4 303.31 1767.88 309.87 1760.55 306.68 1765.4 303.31"/>
            <polygon class="cls-3" points="1790.43 314.21 1792.92 320.78 1785.58 317.58 1790.43 314.21"/>
            <polygon class="cls-3" points="1785.45 356.23 1779.48 360.39 1772.92 343.1 1781.97 347.03 1785.45 356.23"/>
            <polygon class="cls-3" points="1794.98 321.67 1795.56 323.2 1791.96 325.7 1782.92 321.77 1787.64 318.48 1794.98 321.67"/>
            <polygon class="cls-3" points="1769.94 310.77 1772.37 317.17 1763.32 313.24 1761.48 308.37 1762.61 307.58 1769.94 310.77"/>
            <polygon class="cls-3" points="1776.79 332.48 1766.05 327.79 1763.61 321.39 1781.52 329.19 1776.79 332.48"/>
            <polygon class="cls-3" points="1781.95 341.67 1784.38 348.08 1775.33 344.15 1773.4 339.03 1769.63 341.65 1760.57 337.72 1765.3 334.43 1781.95 341.67"/>
          </g>
          <g>
            <polygon class="cls-4" points="1751.06 348.02 1747.99 339.92 1754.78 335.2 1763.83 339.13 1751.06 348.02"/>
            <polygon class="cls-4" points="1757.89 310.87 1766.93 314.81 1770.51 324.25 1777.47 319.4 1786.52 323.34 1779.43 328.28 1761.53 320.48 1757.89 310.87"/>
            <polygon class="cls-4" points="1764.53 328.41 1763.96 326.89 1774.7 331.56 1773.58 332.35 1776.16 339.15 1759.51 331.91 1764.53 328.41"/>
            <polygon class="cls-4" points="1762.01 301.83 1764.51 308.4 1757.17 305.21 1762.01 301.83"/>
            <polygon class="cls-4" points="1787.05 312.74 1789.54 319.3 1782.2 316.1 1787.05 312.74"/>
            <polygon class="cls-4" points="1782.08 354.76 1776.09 358.92 1769.54 341.62 1778.59 345.56 1782.08 354.76"/>
            <polygon class="cls-4" points="1791.6 320.2 1792.18 321.73 1788.58 324.23 1779.53 320.3 1784.26 317.01 1791.6 320.2"/>
            <polygon class="cls-4" points="1766.56 309.3 1769 315.71 1759.95 311.77 1758.1 306.9 1759.23 306.1 1766.56 309.3"/>
            <polygon class="cls-4" points="1773.41 331 1762.67 326.32 1760.24 319.92 1778.14 327.72 1773.41 331"/>
            <polygon class="cls-4" points="1778.57 340.21 1781 346.61 1771.96 342.67 1770.02 337.56 1766.24 340.19 1757.2 336.25 1761.93 332.96 1778.57 340.21"/>
          </g>
          <g>
            <polygon class="cls-1" points="1752.67 348.72 1749.61 340.62 1756.39 335.9 1765.44 339.84 1752.67 348.72"/>
            <polygon class="cls-1" points="1759.49 311.57 1768.54 315.51 1772.12 324.95 1779.09 320.1 1788.13 324.04 1781.04 328.97 1763.14 321.18 1759.49 311.57"/>
            <polygon class="cls-1" points="1766.14 329.11 1765.56 327.59 1776.31 332.27 1775.19 333.05 1777.77 339.86 1761.12 332.6 1766.14 329.11"/>
            <polygon class="cls-1" points="1763.62 302.54 1766.11 309.11 1758.78 305.91 1763.62 302.54"/>
            <polygon class="cls-1" points="1788.66 313.43 1791.15 320 1783.81 316.81 1788.66 313.43"/>
            <polygon class="cls-1" points="1783.68 355.46 1777.71 359.63 1771.15 342.32 1780.2 346.27 1783.68 355.46"/>
            <polygon class="cls-1" points="1793.21 320.9 1793.79 322.44 1790.19 324.94 1781.14 321 1785.87 317.7 1793.21 320.9"/>
            <polygon class="cls-1" points="1768.18 310 1770.6 316.41 1761.56 312.47 1759.71 307.59 1760.84 306.81 1768.18 310"/>
            <polygon class="cls-1" points="1775.02 331.7 1764.27 327.03 1761.85 320.62 1779.75 328.41 1775.02 331.7"/>
            <polygon class="cls-1" points="1780.19 340.91 1782.61 347.32 1773.57 343.37 1771.63 338.26 1767.85 340.89 1758.81 336.95 1763.54 333.65 1780.19 340.91"/>
          </g>
        </g>
        <g>
          <g>
            <polygon class="cls-3" points="844.29 716.26 847.86 708.55 854.33 714.04 856.45 726.59 844.29 716.26"/>
            <polygon class="cls-3" points="871.34 705.22 873.46 717.77 869.3 726.77 875.94 732.4 878.06 744.95 871.3 739.21 867.1 714.38 871.34 705.22"/>
            <polygon class="cls-3" points="863.61 721.93 864.28 720.48 866.81 735.39 865.73 734.48 862.74 740.97 858.82 717.86 863.61 721.93"/>
            <polygon class="cls-3" points="879.18 705.42 876.29 711.68 874.56 701.5 879.18 705.42"/>
            <polygon class="cls-3" points="885.06 740.15 882.16 746.41 880.44 736.23 885.06 740.15"/>
            <polygon class="cls-3" points="855.85 755.83 850.16 750.99 857.79 734.52 859.91 747.06 855.85 755.83"/>
            <polygon class="cls-3" points="882.65 749.26 881.97 750.72 878.55 747.82 876.42 735.27 880.92 739.09 882.65 749.26"/>
            <polygon class="cls-3" points="876.77 714.54 873.95 720.64 871.83 708.09 873.97 703.44 875.05 704.36 876.77 714.54"/>
            <polygon class="cls-3" points="866.5 733.6 863.98 718.69 866.8 712.59 871.01 737.42 866.5 733.6"/>
            <polygon class="cls-3" points="863.3 744.32 860.48 750.42 858.35 737.87 860.61 733 857.01 729.94 854.89 717.39 859.4 721.21 863.3 744.32"/>
          </g>
          <g>
            <polygon class="cls-4" points="843.5 711.57 847.06 703.86 853.53 709.35 855.65 721.9 843.5 711.57"/>
            <polygon class="cls-4" points="870.54 700.54 872.67 713.08 868.51 722.07 875.14 727.72 877.26 740.26 870.51 734.53 866.31 709.69 870.54 700.54"/>
            <polygon class="cls-4" points="862.81 717.24 863.49 715.79 866.01 730.7 864.94 729.79 861.94 736.28 858.03 713.17 862.81 717.24"/>
            <polygon class="cls-4" points="878.39 700.73 875.49 706.99 873.77 696.81 878.39 700.73"/>
            <polygon class="cls-4" points="884.26 735.46 881.37 741.71 879.65 731.54 884.26 735.46"/>
            <polygon class="cls-4" points="855.06 751.14 849.37 746.3 856.99 729.83 859.12 742.38 855.06 751.14"/>
            <polygon class="cls-4" points="881.85 744.58 881.18 746.03 877.75 743.13 875.63 730.57 880.13 734.4 881.85 744.58"/>
            <polygon class="cls-4" points="875.98 709.84 873.15 715.95 871.03 703.4 873.18 698.75 874.25 699.67 875.98 709.84"/>
            <polygon class="cls-4" points="865.7 728.91 863.18 714 866.01 707.9 870.21 732.73 865.7 728.91"/>
            <polygon class="cls-4" points="862.51 739.62 859.69 745.73 857.56 733.17 859.82 728.31 856.22 725.25 854.09 712.7 858.6 716.53 862.51 739.62"/>
          </g>
          <g>
            <polygon class="cls-1" points="843.87 713.8 847.45 706.09 853.91 711.58 856.03 724.14 843.87 713.8"/>
            <polygon class="cls-1" points="870.93 702.77 873.05 715.32 868.89 724.31 875.52 729.95 877.65 742.5 870.89 736.76 866.69 711.92 870.93 702.77"/>
            <polygon class="cls-1" points="863.2 719.47 863.87 718.02 866.39 732.93 865.32 732.03 862.32 738.5 858.41 715.41 863.2 719.47"/>
            <polygon class="cls-1" points="878.76 702.96 875.87 709.22 874.15 699.04 878.76 702.96"/>
            <polygon class="cls-1" points="884.64 737.7 881.75 743.95 880.02 733.77 884.64 737.7"/>
            <polygon class="cls-1" points="855.44 753.37 849.75 748.54 857.38 732.06 859.5 744.61 855.44 753.37"/>
            <polygon class="cls-1" points="882.23 746.81 881.55 748.27 878.13 745.36 876 732.81 880.51 736.63 882.23 746.81"/>
            <polygon class="cls-1" points="876.35 712.08 873.53 718.18 871.4 705.63 873.56 700.99 874.64 701.9 876.35 712.08"/>
            <polygon class="cls-1" points="866.09 731.14 863.56 716.23 866.39 710.13 870.59 734.97 866.09 731.14"/>
            <polygon class="cls-1" points="862.89 741.86 860.06 747.97 857.94 735.41 860.19 730.53 856.6 727.48 854.47 714.93 858.98 718.76 862.89 741.86"/>
          </g>
        </g>
        <g>
          <g>
            <path class="cls-3" d="M598.73,809.14l3.93-2.95c.09,.26,.17,.51,.28,.76,.58,1.41,1.32,2.63,2.16,3.64l-4.08,3.07c-.75-1.13-1.44-2.38-2.01-3.76-.1-.25-.18-.51-.28-.76Z"/>
            <path class="cls-3" d="M604.79,782.55c3.14-2.36,6.63-3,9.91-2.17l-16.51,12.41c1.21-4.21,3.47-7.89,6.6-10.24Z"/>
            <path class="cls-3" d="M601.18,802.08l-4.11,3.09c-.43-2.28-.58-4.59-.42-6.87l5.4-4.06c-.83,2.42-1.15,5.14-.87,7.84h0Z"/>
            <path class="cls-3" d="M618.61,789.41c-1.54-1.74-3.4-2.83-5.36-3.16l5.4-4.06c1.51,1.03,2.88,2.42,4.08,4.12l-4.12,3.1h0Z"/>
            <path class="cls-3" d="M620.7,792.63l3.93-2.95c.11,.24,.22,.46,.33,.72,.56,1.38,.99,2.84,1.29,4.3l-4.09,3.07c-.19-1.51-.56-3-1.14-4.42-.1-.25-.21-.49-.32-.72h0Z"/>
            <path class="cls-3" d="M617,812.39c2.84-2.13,4.64-5.82,5.16-9.84l4.62-3.47c.28,7.43-2.48,14.8-7.61,18.65-5.12,3.85-11.2,3.12-15.7-1.14l4.62-3.47c2.8,1.52,6.07,1.4,8.91-.73h0Z"/>
            <path class="cls-3" d="M599.73,791.61l16.51-12.41c1.38,.34,2.71,.96,3.96,1.82l-5.4,4.06c-2.1-.35-4.3,.14-6.29,1.63s-3.46,3.76-4.35,6.36l-5.4,4.06c.13-1.88,.46-3.74,.97-5.52h0Z"/>
            <path class="cls-3" d="M600.77,801.96c.14,1.39,.45,2.78,.91,4.1l-3.93,2.95c-.48-1.29-.84-2.62-1.1-3.97l4.12-3.08h0Z"/>
            <path class="cls-3" d="M623.65,791.65l-3.93,2.95c-.58-1.25-1.29-2.33-2.09-3.23l4.11-3.09c.72,1.02,1.36,2.14,1.91,3.37h0Z"/>
            <path class="cls-3" d="M609.92,812.27l-4.62,3.47c-.89-.84-1.72-1.83-2.47-2.93l4.09-3.07c.89,1.08,1.91,1.93,3,2.53h0Z"/>
            <path class="cls-3" d="M628.07,794.23c.3,1.45,.48,2.92,.53,4.39l-4.62,3.47c.2-1.57,.2-3.19,0-4.79l4.09-3.07h0Z"/>
          </g>
          <g>
            <path class="cls-4" d="M596.17,811.05l3.93-2.95c.09,.26,.17,.51,.28,.76,.58,1.41,1.32,2.63,2.16,3.64l-4.09,3.07c-.75-1.13-1.44-2.38-2.01-3.76-.09-.25-.17-.51-.27-.76Z"/>
            <path class="cls-4" d="M602.23,784.47c3.14-2.36,6.63-3,9.91-2.17l-16.51,12.41c1.21-4.2,3.47-7.88,6.6-10.24Z"/>
            <path class="cls-4" d="M599.28,803.99l-4.11,3.09c-.43-2.28-.58-4.59-.42-6.87l5.4-4.06c-.83,2.42-1.15,5.14-.87,7.84h0Z"/>
            <path class="cls-4" d="M616.06,791.32c-1.54-1.74-3.4-2.83-5.36-3.16l5.4-4.06c1.51,1.03,2.88,2.42,4.08,4.12l-4.12,3.1h0Z"/>
            <path class="cls-4" d="M618.14,794.55l3.93-2.95c.11,.24,.22,.46,.33,.72,.56,1.38,.98,2.84,1.29,4.3l-4.09,3.07c-.19-1.51-.56-3-1.14-4.42-.09-.25-.21-.48-.32-.72h0Z"/>
            <path class="cls-4" d="M614.44,814.31c2.84-2.13,4.64-5.82,5.16-9.84l4.62-3.47c.28,7.43-2.48,14.8-7.61,18.65-5.12,3.85-11.2,3.12-15.7-1.14l4.62-3.47c2.81,1.52,6.07,1.4,8.91-.73h0Z"/>
            <path class="cls-4" d="M597.18,793.53l16.51-12.41c1.38,.34,2.71,.96,3.96,1.82l-5.4,4.06c-2.1-.35-4.3,.14-6.29,1.63s-3.46,3.76-4.35,6.36l-5.4,4.06c.13-1.89,.46-3.74,.97-5.52h0Z"/>
            <path class="cls-4" d="M598.22,804.54c.14,1.39,.45,2.78,.91,4.1l-3.93,2.95c-.48-1.29-.84-2.62-1.1-3.97l4.12-3.08h0Z"/>
            <path class="cls-4" d="M621.1,791.65l-3.93,2.95c-.58-1.25-1.29-2.33-2.09-3.23l4.11-3.09c.72,1.02,1.36,2.14,1.91,3.37h0Z"/>
            <path class="cls-4" d="M607.36,814.85l-4.62,3.47c-.89-.84-1.72-1.83-2.47-2.93l4.09-3.07c.9,1.07,1.91,1.93,3,2.53h0Z"/>
            <path class="cls-4" d="M625.52,794.23c.3,1.45,.48,2.92,.53,4.39l-4.62,3.47c.2-1.57,.2-3.19,0-4.79l4.09-3.07h0Z"/>
          </g>
          <g>
            <path class="cls-1" d="M597.39,810.14l3.93-2.95c.09,.26,.17,.51,.28,.76,.58,1.41,1.32,2.63,2.16,3.64l-4.09,3.07c-.75-1.13-1.44-2.38-2.01-3.76-.09-.25-.17-.51-.27-.76Z"/>
            <path class="cls-1" d="M603.45,783.56c3.14-2.36,6.63-3,9.91-2.17l-16.51,12.41c1.21-4.21,3.47-7.89,6.6-10.24Z"/>
            <path class="cls-1" d="M601.18,803.08l-4.11,3.09c-.43-2.28-.58-4.59-.42-6.87l5.4-4.06c-.83,2.42-1.15,5.14-.87,7.84h0Z"/>
            <path class="cls-1" d="M617.28,790.41c-1.54-1.74-3.4-2.83-5.36-3.16l5.4-4.06c1.51,1.03,2.88,2.42,4.08,4.12l-4.12,3.1h0Z"/>
            <path class="cls-1" d="M619.36,793.63l3.93-2.95c.11,.24,.22,.46,.33,.72,.56,1.38,.98,2.84,1.29,4.3l-4.09,3.07c-.19-1.51-.56-3-1.14-4.42-.1-.25-.21-.49-.32-.72h0Z"/>
            <path class="cls-1" d="M615.66,813.4c2.84-2.13,4.64-5.82,5.16-9.84l4.62-3.47c.28,7.43-2.48,14.8-7.61,18.65-5.12,3.85-11.2,3.12-15.7-1.14l4.62-3.47c2.8,1.51,6.07,1.39,8.91-.73h0Z"/>
            <path class="cls-1" d="M598.4,792.62l16.51-12.41c1.38,.34,2.71,.96,3.96,1.82l-5.4,4.06c-2.1-.35-4.3,.14-6.29,1.63s-3.46,3.76-4.35,6.36l-5.4,4.06c.13-1.89,.45-3.75,.97-5.52h0Z"/>
            <path class="cls-1" d="M599.43,804.54c.14,1.39,.45,2.78,.91,4.1l-3.93,2.95c-.48-1.29-.84-2.62-1.1-3.97l4.12-3.08h0Z"/>
            <path class="cls-1" d="M622.32,791.65l-3.93,2.95c-.58-1.25-1.29-2.33-2.09-3.23l4.11-3.09c.72,1.02,1.35,2.14,1.91,3.37h0Z"/>
            <path class="cls-1" d="M608.58,812.27l-4.62,3.47c-.89-.84-1.72-1.83-2.47-2.93l4.09-3.07c.89,1.08,1.91,1.93,3,2.53h0Z"/>
            <path class="cls-1" d="M626.74,794.23c.3,1.45,.48,2.92,.53,4.39l-4.62,3.47c.2-1.57,.2-3.19,0-4.79l4.09-3.07h0Z"/>
          </g>
        </g>
        <g>
          <g>
            <path class="cls-3" d="M939.66,122.85l3.42-2.56c.08,.22,.15,.44,.24,.66,.5,1.23,1.14,2.28,1.88,3.17l-3.55,2.67c-.66-.98-1.25-2.06-1.75-3.27-.09-.22-.16-.43-.24-.67h0Z"/>
            <path class="cls-3" d="M945.14,99.76c2.72-2.04,5.76-2.61,8.6-1.88l-14.34,10.78c1.06-3.66,3.02-6.85,5.74-8.9Z"/>
            <path class="cls-3" d="M942.5,116.72l-3.58,2.69c-.38-1.97-.5-3.98-.36-5.97l4.69-3.52c-.71,2.11-.99,4.46-.75,6.8Z"/>
            <path class="cls-3" d="M956.77,105.71c-1.33-1.51-2.96-2.45-4.66-2.74l4.69-3.52c1.31,.89,2.51,2.1,3.54,3.58l-3.57,2.68h0Z"/>
            <path class="cls-3" d="M958.96,108.77l3.42-2.56s.01,0,.02,.01c.63,1.39,1.07,2.86,1.39,4.34l-3.55,2.67c-.17-1.32-.49-2.61-.99-3.84-.09-.22-.19-.41-.29-.62h0Z"/>
            <path class="cls-3" d="M955.74,125.68c2.46-1.86,4.03-5.05,4.48-8.55l4.01-3.01c.25,6.46-2.16,12.86-6.61,16.2s-9.72,2.71-13.63-.99l4.01-3.01c2.44,1.32,5.28,1.21,7.74-.64h0Z"/>
            <path class="cls-3" d="M940.75,107.63l14.34-10.78c1.2,.3,2.35,.83,3.44,1.57l-4.69,3.52c-1.83-.31-3.73,.12-5.46,1.41-1.73,1.3-3.01,3.27-3.78,5.53l-4.69,3.52c.11-1.63,.38-3.25,.84-4.77h0Z"/>
            <path class="cls-3" d="M941.56,117.36c.12,1.21,.38,2.41,.8,3.56l-3.42,2.56c-.41-1.12-.73-2.27-.96-3.45l3.58-2.67h0Z"/>
            <path class="cls-3" d="M961.53,106.59l-3.42,2.56c-.51-1.08-1.12-2.01-1.81-2.8l3.58-2.69c.61,.88,1.16,1.86,1.65,2.93Z"/>
            <path class="cls-3" d="M949.16,125.11l-4.01,3.01c-.77-.74-1.49-1.58-2.14-2.55l3.55-2.67c.77,.94,1.66,1.69,2.6,2.21h0Z"/>
            <path class="cls-3" d="M965.37,109.11c.26,1.26,.41,2.53,.46,3.82l-4.01,3.01c.17-1.36,.18-2.77,0-4.16l3.55-2.67Z"/>
          </g>
          <g>
            <path class="cls-4" d="M937.75,124.51l3.42-2.56c.08,.22,.15,.44,.24,.66,.5,1.23,1.14,2.28,1.88,3.17l-3.55,2.67c-.66-.98-1.25-2.06-1.75-3.27-.08-.22-.16-.44-.24-.67h0Z"/>
            <path class="cls-4" d="M942.92,101.43c2.72-2.04,5.76-2.61,8.6-1.88l-14.34,10.78c1.06-3.66,3.03-6.85,5.74-8.9Z"/>
            <path class="cls-4" d="M940.28,118.39l-3.58,2.69c-.38-1.97-.5-3.98-.36-5.97l4.69-3.52c-.71,2.1-.98,4.46-.75,6.8Z"/>
            <path class="cls-4" d="M954.87,107.38c-1.33-1.51-2.96-2.45-4.66-2.74l4.69-3.52c1.31,.89,2.51,2.1,3.54,3.58l-3.57,2.68h0Z"/>
            <path class="cls-4" d="M956.74,111.35l3.42-2.56s.01,0,.02,.01c.63,1.39,1.07,2.86,1.39,4.34l-3.55,2.67c-.17-1.32-.49-2.61-.99-3.84-.09-.22-.19-.42-.29-.62h0Z"/>
            <path class="cls-4" d="M953.53,127.35c2.46-1.86,4.03-5.05,4.48-8.55l4.01-3.01c.25,6.46-2.16,12.86-6.61,16.2s-9.72,2.71-13.63-.99l4.01-3.01c2.43,1.32,5.27,1.21,7.74-.64h0Z"/>
            <path class="cls-4" d="M938.53,109.3l14.34-10.78c1.2,.3,2.35,.83,3.44,1.57l-4.69,3.52c-1.83-.31-3.73,.12-5.46,1.41-1.72,1.3-3.01,3.27-3.78,5.53l-4.69,3.52c.11-1.63,.39-3.25,.84-4.77h0Z"/>
            <path class="cls-4" d="M939.66,119.02c.12,1.21,.38,2.41,.8,3.56l-3.42,2.56c-.41-1.12-.73-2.27-.96-3.45l3.58-2.67h0Z"/>
            <path class="cls-4" d="M959.31,108.25l-3.42,2.56c-.51-1.08-1.12-2.01-1.81-2.8l3.58-2.69c.62,.88,1.17,1.86,1.65,2.93Z"/>
            <path class="cls-4" d="M947.26,126.78l-4.01,3.01c-.77-.74-1.49-1.58-2.14-2.55l3.55-2.67c.77,.94,1.65,1.69,2.6,2.21h0Z"/>
            <path class="cls-4" d="M963.14,110.78c.26,1.26,.41,2.53,.46,3.82l-4.01,3.01c.17-1.36,.18-2.77,0-4.16l3.55-2.67Z"/>
          </g>
          <g>
            <path class="cls-1" d="M939.66,123.73l3.42-2.56c.08,.22,.15,.44,.24,.66,.5,1.23,1.14,2.28,1.88,3.17l-3.55,2.67c-.66-.98-1.25-2.06-1.75-3.27-.09-.22-.16-.45-.24-.67h0Z"/>
            <path class="cls-1" d="M943.98,100.63c2.72-2.04,5.76-2.61,8.6-1.88l-14.34,10.78c1.06-3.66,3.02-6.85,5.74-8.9Z"/>
            <path class="cls-1" d="M941.34,117.59l-3.58,2.69c-.38-1.97-.5-3.98-.36-5.97l4.69-3.52c-.71,2.11-.99,4.46-.75,6.8Z"/>
            <path class="cls-1" d="M956.77,106.59c-1.33-1.51-2.96-2.45-4.66-2.74l4.69-3.52c1.31,.89,2.51,2.1,3.54,3.58l-3.57,2.68h0Z"/>
            <path class="cls-1" d="M957.8,108.77l3.42-2.56s.01,0,.02,.01c.63,1.39,1.07,2.86,1.39,4.34l-3.55,2.67c-.17-1.32-.49-2.61-.99-3.84-.09-.22-.19-.41-.29-.62h0Z"/>
            <path class="cls-1" d="M954.58,126.55c2.46-1.86,4.03-5.05,4.48-8.55l4.01-3.01c.25,6.46-2.16,12.86-6.61,16.2-4.45,3.34-9.72,2.71-13.63-.99l4.01-3.01c2.44,1.33,5.28,1.22,7.74-.64h0Z"/>
            <path class="cls-1" d="M939.59,108.5l14.34-10.78c1.2,.3,2.35,.83,3.44,1.57l-4.69,3.52c-1.83-.31-3.73,.12-5.46,1.41-1.73,1.3-3.01,3.27-3.78,5.53l-4.69,3.52c.11-1.63,.38-3.25,.84-4.77h0Z"/>
            <path class="cls-1" d="M939.66,118.23c.12,1.21,.38,2.41,.8,3.56l-3.42,2.56c-.41-1.12-.73-2.27-.96-3.45l3.58-2.67h0Z"/>
            <path class="cls-1" d="M960.36,107.45l-3.42,2.56c-.51-1.08-1.12-2.01-1.81-2.8l3.58-2.69c.62,.88,1.17,1.86,1.65,2.93Z"/>
            <path class="cls-1" d="M949.16,125.98l-4.01,3.01c-.77-.74-1.49-1.58-2.14-2.55l3.55-2.67c.77,.95,1.66,1.69,2.6,2.21h0Z"/>
            <path class="cls-1" d="M964.2,109.98c.26,1.26,.41,2.53,.46,3.82l-4.01,3.01c.17-1.36,.18-2.77,0-4.16l3.55-2.67Z"/>
          </g>
        </g>
        <g>
          <g>
            <polygon class="cls-3" points="693.67 46.32 691.25 41.43 687.08 45.21 689.5 50.1 693.67 46.32"/>
            <polygon class="cls-3" points="675.43 74.8 693.53 58.39 691.31 53.91 695.47 50.13 700.48 60.25 674.06 84.22 669.06 74.1 673.22 70.32 675.43 74.8"/>
            <polygon class="cls-3" points="667.14 57.86 664.36 52.21 660.19 55.99 662.98 61.63 667.14 57.86"/>
            <polygon class="cls-3" points="671.4 66.53 668.98 61.63 664.82 65.41 667.24 70.3 671.4 66.53"/>
            <polygon class="cls-3" points="684.74 28.27 682.83 24.42 656.41 48.39 658.31 52.24 684.74 28.27"/>
            <polygon class="cls-3" points="689.39 37.67 686.6 32.03 682.44 35.8 685.22 41.45 689.39 37.67"/>
            <polygon class="cls-3" points="686.3 26.86 688.15 30.62 683.99 34.4 683.01 32.42 664.92 48.83 665.9 50.81 661.74 54.59 659.88 50.83 686.3 26.86"/>
            <polygon class="cls-3" points="667.98 62.55 666.12 58.79 661.95 62.56 663.81 66.32 667.98 62.55"/>
            <polygon class="cls-3" points="690.24 42.36 688.38 38.6 684.22 42.38 686.08 46.14 690.24 42.36"/>
            <polygon class="cls-3" points="697.38 48.4 695.53 44.64 691.36 48.42 693.22 52.18 697.38 48.4"/>
            <polygon class="cls-3" points="675.16 68.56 673.3 64.8 669.13 68.58 670.99 72.34 675.16 68.56"/>
          </g>
          <g>
            <polygon class="cls-4" points="691.04 48.7 688.63 43.81 684.46 47.59 686.88 52.48 691.04 48.7"/>
            <polygon class="cls-4" points="672.81 77.18 690.9 60.77 688.69 56.29 692.85 52.52 697.86 62.64 671.44 86.6 666.44 76.48 670.6 72.71 672.81 77.18"/>
            <polygon class="cls-4" points="664.5 60.25 661.71 54.61 657.55 58.39 660.33 64.03 664.5 60.25"/>
            <polygon class="cls-4" points="668.79 68.89 666.37 63.99 662.2 67.77 664.62 72.67 668.79 68.89"/>
            <polygon class="cls-4" points="682.12 30.66 680.21 26.8 653.79 50.77 655.7 54.63 682.12 30.66"/>
            <polygon class="cls-4" points="686.77 40.05 683.98 34.4 679.81 38.18 682.6 43.83 686.77 40.05"/>
            <polygon class="cls-4" points="683.67 29.23 685.53 33 681.37 36.78 680.39 34.8 662.3 51.22 663.28 53.19 659.12 56.97 657.25 53.2 683.67 29.23"/>
            <polygon class="cls-4" points="665.39 64.9 663.53 61.14 659.37 64.92 661.22 68.68 665.39 64.9"/>
            <polygon class="cls-4" points="687.63 44.71 685.77 40.95 681.6 44.73 683.46 48.49 687.63 44.71"/>
            <polygon class="cls-4" points="694.78 50.77 692.92 47.01 688.76 50.79 690.61 54.55 694.78 50.77"/>
            <polygon class="cls-4" points="672.54 70.94 670.68 67.18 666.52 70.96 668.37 74.72 672.54 70.94"/>
          </g>
          <g>
            <polygon class="cls-1" points="692.29 47.57 689.88 42.68 685.71 46.46 688.13 51.35 692.29 47.57"/>
            <polygon class="cls-1" points="674.06 76.04 692.15 59.63 689.94 55.16 694.11 51.38 699.1 61.5 672.68 85.47 667.68 75.35 671.85 71.57 674.06 76.04"/>
            <polygon class="cls-1" points="665.75 59.12 662.96 53.47 658.8 57.25 661.59 62.9 665.75 59.12"/>
            <polygon class="cls-1" points="670.04 67.76 667.63 62.87 663.46 66.65 665.88 71.54 670.04 67.76"/>
            <polygon class="cls-1" points="683.36 29.52 681.45 25.66 655.03 49.63 656.94 53.49 683.36 29.52"/>
            <polygon class="cls-1" points="688.02 38.92 685.23 33.28 681.07 37.06 683.86 42.7 688.02 38.92"/>
            <polygon class="cls-1" points="684.92 28.11 686.78 31.86 682.62 35.64 681.64 33.67 663.55 50.08 664.53 52.05 660.36 55.83 658.5 52.07 684.92 28.11"/>
            <polygon class="cls-1" points="666.63 63.76 664.77 60 660.61 63.78 662.46 67.54 666.63 63.76"/>
            <polygon class="cls-1" points="688.88 43.59 687.02 39.83 682.85 43.61 684.71 47.37 688.88 43.59"/>
            <polygon class="cls-1" points="696.03 49.63 694.17 45.87 690 49.65 691.86 53.41 696.03 49.63"/>
            <polygon class="cls-1" points="673.78 69.81 671.92 66.05 667.76 69.83 669.62 73.59 673.78 69.81"/>
          </g>
        </g>
        <g>
          <g>
            <polygon class="cls-3" points="1647.36 889.82 1642.5 888.16 1641.44 893.87 1646.3 895.53 1647.36 889.82"/>
            <polygon class="cls-3" points="1618.52 896.27 1639.62 903.46 1640.59 898.23 1645.45 899.89 1643.27 911.7 1612.43 901.19 1614.62 889.38 1619.48 891.03 1618.52 896.27"/>
            <polygon class="cls-3" points="1623.43 869.99 1618.57 868.33 1617.35 874.92 1622.21 876.57 1623.43 869.99"/>
            <polygon class="cls-3" points="1621.31 880.9 1616.45 879.24 1615.39 884.95 1620.25 886.61 1621.31 880.9"/>
            <polygon class="cls-3" points="1651.05 869.94 1620.22 859.44 1619.38 863.94 1650.22 874.45 1651.05 869.94"/>
            <polygon class="cls-3" points="1649.4 878.84 1644.54 877.18 1643.32 883.77 1648.18 885.43 1649.4 878.84"/>
            <polygon class="cls-3" points="1652.05 875.05 1651.23 879.44 1646.37 877.79 1646.8 875.49 1625.69 868.29 1625.26 870.6 1620.4 868.94 1621.22 864.55 1652.05 875.05"/>
            <polygon class="cls-3" points="1621.02 876.16 1616.16 874.51 1615.35 878.9 1620.21 880.55 1621.02 876.16"/>
            <polygon class="cls-3" points="1647.01 885.04 1642.15 883.38 1641.34 887.77 1646.2 889.42 1647.01 885.04"/>
            <polygon class="cls-3" points="1648.5 896.27 1643.64 894.61 1642.83 899 1647.69 900.66 1648.5 896.27"/>
            <polygon class="cls-3" points="1622.53 887.43 1617.67 885.78 1616.85 890.17 1621.71 891.82 1622.53 887.43"/>
          </g>
          <g>
            <polygon class="cls-4" points="1644.31 888.77 1639.45 887.11 1638.39 892.83 1643.25 894.48 1644.31 888.77"/>
            <polygon class="cls-4" points="1615.45 895.22 1636.57 902.41 1637.54 897.19 1642.4 898.85 1640.2 910.65 1609.37 900.15 1611.56 888.33 1616.42 889.99 1615.45 895.22"/>
            <polygon class="cls-4" points="1620.37 868.95 1615.51 867.29 1614.29 873.88 1619.15 875.54 1620.37 868.95"/>
            <polygon class="cls-4" points="1618.25 879.86 1613.39 878.2 1612.33 883.91 1617.19 885.57 1618.25 879.86"/>
            <polygon class="cls-4" points="1647.99 868.9 1617.16 858.4 1616.32 862.9 1647.16 873.41 1647.99 868.9"/>
            <polygon class="cls-4" points="1646.35 877.79 1641.49 876.14 1640.26 882.72 1645.12 884.38 1646.35 877.79"/>
            <polygon class="cls-4" points="1648.99 874.01 1648.17 878.4 1643.31 876.74 1643.74 874.44 1622.63 867.24 1622.2 869.55 1617.34 867.9 1618.16 863.5 1648.99 874.01"/>
            <polygon class="cls-4" points="1617.96 875.13 1613.1 873.47 1612.29 877.86 1617.15 879.51 1617.96 875.13"/>
            <polygon class="cls-4" points="1643.95 883.98 1639.09 882.32 1638.28 886.71 1643.14 888.37 1643.95 883.98"/>
            <polygon class="cls-4" points="1645.43 895.23 1640.57 893.57 1639.76 897.96 1644.62 899.62 1645.43 895.23"/>
            <polygon class="cls-4" points="1619.47 886.39 1614.61 884.73 1613.79 889.12 1618.66 890.77 1619.47 886.39"/>
          </g>
          <g>
            <polygon class="cls-1" points="1645.76 889.28 1640.9 887.62 1639.84 893.33 1644.7 894.99 1645.76 889.28"/>
            <polygon class="cls-1" points="1616.91 895.72 1638.02 902.91 1638.99 897.69 1643.85 899.34 1641.66 911.16 1610.83 900.64 1613.02 888.84 1617.88 890.49 1616.91 895.72"/>
            <polygon class="cls-1" points="1621.83 869.44 1616.97 867.79 1615.74 874.38 1620.6 876.03 1621.83 869.44"/>
            <polygon class="cls-1" points="1619.79 880.42 1614.93 878.77 1613.87 884.48 1618.73 886.13 1619.79 880.42"/>
            <polygon class="cls-1" points="1649.45 869.4 1618.61 858.9 1617.78 863.4 1648.61 873.9 1649.45 869.4"/>
            <polygon class="cls-1" points="1647.8 878.3 1642.94 876.64 1641.72 883.23 1646.58 884.89 1647.8 878.3"/>
            <polygon class="cls-1" points="1650.44 874.5 1649.63 878.9 1644.77 877.24 1645.2 874.94 1624.09 867.74 1623.66 870.05 1618.8 868.39 1619.61 864 1650.44 874.5"/>
            <polygon class="cls-1" points="1619.45 875.64 1614.59 873.98 1613.77 878.37 1618.63 880.03 1619.45 875.64"/>
            <polygon class="cls-1" points="1645.41 884.48 1640.55 882.83 1639.74 887.22 1644.6 888.87 1645.41 884.48"/>
            <polygon class="cls-1" points="1646.89 895.74 1642.03 894.08 1641.22 898.47 1646.08 900.12 1646.89 895.74"/>
            <polygon class="cls-1" points="1620.93 886.88 1616.07 885.23 1615.25 889.62 1620.11 891.27 1620.93 886.88"/>
          </g>
        </g>
        <g>
          <g>
            <polygon class="cls-3" points="1600.11 40.13 1597.74 36.22 1594.42 39.93 1596.79 43.83 1600.11 40.13"/>
            <polygon class="cls-3" points="1586.34 66.51 1600.78 50.42 1598.61 46.84 1601.94 43.14 1606.84 51.22 1585.75 74.73 1580.85 66.65 1584.17 62.94 1586.34 66.51"/>
            <polygon class="cls-3" points="1578.16 53.03 1575.43 48.52 1572.11 52.23 1574.84 56.73 1578.16 53.03"/>
            <polygon class="cls-3" points="1582.34 59.95 1579.97 56.04 1576.65 59.75 1579.02 63.65 1582.34 59.95"/>
            <polygon class="cls-3" points="1591.36 25.72 1589.49 22.65 1568.41 46.15 1570.28 49.23 1591.36 25.72"/>
            <polygon class="cls-3" points="1595.91 33.23 1593.18 28.73 1589.86 32.43 1592.59 36.93 1595.91 33.23"/>
            <polygon class="cls-3" points="1592.64 24.29 1594.46 27.3 1591.14 31 1590.18 29.42 1575.74 45.53 1576.7 47.1 1573.37 50.81 1571.55 47.8 1592.64 24.29"/>
            <polygon class="cls-3" points="1579.18 56.91 1577.36 53.91 1574.04 57.62 1575.86 60.62 1579.18 56.91"/>
            <polygon class="cls-3" points="1596.94 37.12 1595.12 34.12 1591.79 37.82 1593.62 40.83 1596.94 37.12"/>
            <polygon class="cls-3" points="1603.44 41.46 1601.61 38.46 1598.29 42.17 1600.11 45.17 1603.44 41.46"/>
            <polygon class="cls-3" points="1585.66 61.28 1583.84 58.27 1580.52 61.98 1582.34 64.98 1585.66 61.28"/>
          </g>
          <g>
            <polygon class="cls-4" points="1598.02 42.46 1595.65 38.56 1592.33 42.26 1594.7 46.17 1598.02 42.46"/>
            <polygon class="cls-4" points="1584.24 68.85 1598.69 52.75 1596.52 49.18 1599.85 45.47 1604.75 53.56 1583.66 77.06 1578.75 68.99 1582.08 65.28 1584.24 68.85"/>
            <polygon class="cls-4" points="1576.07 55.36 1573.33 50.86 1570.01 54.56 1572.74 59.07 1576.07 55.36"/>
            <polygon class="cls-4" points="1580.25 62.27 1577.88 58.36 1574.56 62.07 1576.93 65.97 1580.25 62.27"/>
            <polygon class="cls-4" points="1589.27 28.05 1587.4 24.97 1566.31 48.48 1568.18 51.56 1589.27 28.05"/>
            <polygon class="cls-4" points="1593.82 35.56 1591.09 31.06 1587.77 34.77 1590.5 39.27 1593.82 35.56"/>
            <polygon class="cls-4" points="1590.55 26.62 1592.37 29.63 1589.05 33.34 1588.08 31.76 1573.65 47.85 1574.6 49.43 1571.28 53.14 1569.45 50.14 1590.55 26.62"/>
            <polygon class="cls-4" points="1577.08 59.26 1575.25 56.26 1571.93 59.96 1573.75 62.96 1577.08 59.26"/>
            <polygon class="cls-4" points="1594.85 39.46 1593.03 36.46 1589.7 40.16 1591.53 43.16 1594.85 39.46"/>
            <polygon class="cls-4" points="1601.34 43.81 1599.52 40.81 1596.19 44.51 1598.02 47.51 1601.34 43.81"/>
            <polygon class="cls-4" points="1583.57 63.61 1581.74 60.61 1578.42 64.31 1580.24 67.32 1583.57 63.61"/>
          </g>
          <g>
            <polygon class="cls-1" points="1599.01 41.36 1596.64 37.46 1593.32 41.16 1595.69 45.07 1599.01 41.36"/>
            <polygon class="cls-1" points="1585.24 67.74 1599.69 51.64 1597.51 48.07 1600.84 44.36 1605.74 52.44 1584.66 75.95 1579.75 67.87 1583.07 64.17 1585.24 67.74"/>
            <polygon class="cls-1" points="1577.06 54.26 1574.32 49.76 1571 53.46 1573.73 57.96 1577.06 54.26"/>
            <polygon class="cls-1" points="1581.25 61.16 1578.88 57.25 1575.56 60.96 1577.93 64.86 1581.25 61.16"/>
            <polygon class="cls-1" points="1590.26 26.94 1588.39 23.86 1567.31 47.37 1569.17 50.45 1590.26 26.94"/>
            <polygon class="cls-1" points="1594.82 34.44 1592.09 29.94 1588.77 33.64 1591.5 38.14 1594.82 34.44"/>
            <polygon class="cls-1" points="1591.55 25.51 1593.36 28.52 1590.04 32.23 1589.08 30.65 1574.64 46.74 1575.6 48.32 1572.27 52.02 1570.45 49.02 1591.55 25.51"/>
            <polygon class="cls-1" points="1578.08 58.15 1576.26 55.15 1572.94 58.85 1574.76 61.86 1578.08 58.15"/>
            <polygon class="cls-1" points="1595.85 38.35 1594.03 35.34 1590.7 39.05 1592.53 42.05 1595.85 38.35"/>
            <polygon class="cls-1" points="1602.34 42.7 1600.52 39.7 1597.19 43.4 1599.02 46.4 1602.34 42.7"/>
            <polygon class="cls-1" points="1584.57 62.49 1582.75 59.49 1579.43 63.2 1581.25 66.2 1584.57 62.49"/>
          </g>
        </g>
        <rect class="cls-1" x="532.72" y="309.77" width="15.21" height="56.69"/>
        <rect class="cls-3" x="546.03" y="340.69" width="7.61" height="10.31"/>
        <rect class="cls-3" x="508" y="392.23" width="7.61" height="10.31"/>
        <rect class="cls-1" x="591.67" y="704.04" width="7.61" height="10.31"/>
        <rect class="cls-4" x="1536.75" y="322.65" width="36.13" height="5.15"/>
        <rect class="cls-3" x="894.02" y="608.69" width="36.13" height="5.15"/>
        <rect class="cls-3" x="1818.18" y="647.35" width="3.8" height="5.15"/>
        <rect class="cls-3" x="1764.94" y="626.73" width="36.13" height="5.15"/>
        <rect class="cls-4" x="692.45" y="580.35" width="24.72" height="5.15"/>
        <rect class="cls-4" x="671.53" y="716.92" width="36.13" height="5.15"/>
        <rect class="cls-3" x="844.58" y="338.12" width="36.13" height="5.15"/>
        <rect class="cls-3" x="1515.83" y="557.15" width="36.13" height="5.15"/>
        <rect class="cls-3" x="808.45" y="902.46" width="36.13" height="5.15"/>
        <rect class="cls-4" x="863.59" y="835.46" width="36.13" height="5.15"/>
        <rect class="cls-3" x="983.39" y="412.85" width="20.92" height="5.15"/>
        <rect class="cls-4" x="922.54" y="309.77" width="20.92" height="5.15"/>
        <rect class="cls-4" x="658.22" y="716.92" width="7.61" height="5.15"/>
        <rect class="cls-4" x="1578.58" y="322.65" width="7.61" height="5.15"/>
        <rect class="cls-4" x="688.65" y="753" width="7.61" height="5.15"/>
        <rect class="cls-3" x="1555.76" y="557.15" width="7.61" height="5.15"/>
        <rect class="cls-3" x="884.51" y="845.77" width="7.61" height="5.15"/>
        <rect class="cls-3" x="688.65" y="783.92" width="7.61" height="5.15"/>
        <rect class="cls-3" x="875" y="796.81" width="7.61" height="5.15"/>
        <rect class="cls-3" x="1538.65" y="621.58" width="7.61" height="5.15"/>
      </g>
    </g>
  </g>
</svg>