<?xml version="1.0" encoding="UTF-8"?>
<svg xmlns="http://www.w3.org/2000/svg" xmlns:xlink="http://www.w3.org/1999/xlink" viewBox="0 0 1920 1080">
  <defs>
    <style>
      .cls-1, .cls-2, .cls-3, .cls-4, .cls-5, .cls-6, .cls-7, .cls-8, .cls-9, .cls-10, .cls-11, .cls-12, .cls-13, .cls-14, .cls-15, .cls-16, .cls-17, .cls-18, .cls-19, .cls-20, .cls-21, .cls-22, .cls-23, .cls-24, .cls-25, .cls-26, .cls-27 {
        stroke: #373151;
      }

      .cls-1, .cls-3, .cls-5, .cls-6, .cls-7, .cls-8, .cls-28, .cls-10, .cls-12, .cls-13, .cls-14, .cls-15, .cls-16, .cls-18, .cls-19, .cls-21, .cls-23, .cls-25 {
        stroke-linecap: round;
      }

      .cls-1, .cls-3, .cls-5, .cls-6, .cls-7, .cls-28, .cls-10, .cls-12, .cls-13, .cls-14, .cls-15, .cls-16, .cls-18, .cls-19, .cls-21, .cls-25 {
        stroke-linejoin: round;
      }

      .cls-1, .cls-17 {
        fill: #babdff;
        stroke-width: 6.81px;
      }

      .cls-2, .cls-4, .cls-8, .cls-9, .cls-11, .cls-17, .cls-20, .cls-22, .cls-23, .cls-24, .cls-26, .cls-27 {
        stroke-miterlimit: 10;
      }

      .cls-2, .cls-8, .cls-23, .cls-25 {
        stroke-width: 3.11px;
      }

      .cls-2, .cls-11, .cls-29, .cls-18, .cls-21, .cls-22, .cls-27 {
        fill: #fff;
      }

      .cls-30 {
        fill: #9cae5c;
      }

      .cls-30, .cls-31, .cls-32, .cls-33, .cls-34, .cls-35, .cls-36, .cls-37, .cls-38, .cls-39, .cls-40, .cls-41, .cls-42, .cls-29, .cls-43, .cls-44, .cls-45, .cls-46, .cls-47, .cls-48, .cls-49, .cls-50, .cls-51, .cls-52, .cls-53, .cls-54, .cls-55, .cls-56, .cls-57, .cls-58, .cls-59, .cls-60 {
        stroke-width: 0px;
      }

      .cls-3 {
        stroke-width: 5.17px;
      }

      .cls-3, .cls-5, .cls-8, .cls-28, .cls-38, .cls-12, .cls-13, .cls-14, .cls-19, .cls-25 {
        fill: none;
      }

      .cls-4, .cls-6, .cls-7, .cls-24 {
        fill: #317c4f;
      }

      .cls-4, .cls-7, .cls-22 {
        stroke-width: 4.43px;
      }

      .cls-31 {
        opacity: .71;
      }

      .cls-5 {
        stroke-width: 1.72px;
      }

      .cls-6 {
        stroke-width: 5.15px;
      }

      .cls-32 {
        fill: #83aeff;
      }

      .cls-33 {
        fill: #40425e;
      }

      .cls-9 {
        fill: #3478a2;
        stroke-width: 2.97px;
      }

      .cls-61 {
        isolation: isolate;
      }

      .cls-34 {
        fill: #ffe5bb;
      }

      .cls-28 {
        stroke: #fff4f9;
        stroke-width: 8.62px;
      }

      .cls-36 {
        fill: #ffd33b;
      }

      .cls-37 {
        fill: #9d6447;
      }

      .cls-10, .cls-15 {
        stroke-width: 3px;
      }

      .cls-10, .cls-16 {
        fill: #005c68;
      }

      .cls-11 {
        stroke-width: 6.27px;
      }

      .cls-39 {
        fill: #c0ffff;
      }

      .cls-40 {
        fill: #373151;
      }

      .cls-12 {
        stroke-width: 10.21px;
      }

      .cls-62 {
        clip-path: url(#clippath-1);
      }

      .cls-13 {
        stroke-width: 2.33px;
      }

      .cls-41 {
        fill: #090c30;
      }

      .cls-42 {
        fill: #e32c9e;
      }

      .cls-14 {
        stroke-width: 7px;
      }

      .cls-43 {
        fill: #9095ff;
        mix-blend-mode: multiply;
      }

      .cls-44 {
        fill: #cccac5;
      }

      .cls-45 {
        fill: #896338;
      }

      .cls-46 {
        fill: #9296a2;
      }

      .cls-47 {
        fill: #c9ffff;
      }

      .cls-48 {
        fill: #396b9e;
      }

      .cls-15 {
        fill: #4aa4a9;
      }

      .cls-16 {
        stroke-width: 2px;
      }

      .cls-49 {
        fill: #151580;
      }

      .cls-50 {
        fill: #98bacc;
      }

      .cls-63 {
        opacity: .1;
      }

      .cls-64 {
        clip-path: url(#clippath);
      }

      .cls-18 {
        stroke-width: 2.22px;
      }

      .cls-51 {
        fill: #706619;
      }

      .cls-52 {
        fill: #272949;
      }

      .cls-19 {
        stroke-width: 6.74px;
      }

      .cls-53 {
        fill: #392c2b;
      }

      .cls-20 {
        fill: #1e632d;
        stroke-width: 5.43px;
      }

      .cls-21 {
        stroke-width: 2.57px;
      }

      .cls-54 {
        fill: #e36b9e;
      }

      .cls-55 {
        fill: #707379;
      }

      .cls-65 {
        opacity: .67;
      }

      .cls-56 {
        fill: navy;
      }

      .cls-57 {
        fill: #604600;
      }

      .cls-23 {
        fill: #ff632e;
      }

      .cls-58 {
        fill: #c73c4a;
      }

      .cls-24, .cls-26 {
        stroke-width: 7.3px;
      }

      .cls-66 {
        opacity: .17;
      }

      .cls-26 {
        fill: #207140;
      }

      .cls-27 {
        stroke-width: 3.81px;
      }

      .cls-59 {
        fill: #c6daff;
      }

      .cls-60 {
        fill: #683700;
      }
    </style>
    <clipPath id="clippath">
      <rect class="cls-38" x="-1957.19" y="123.53" width="1498.28" height="714.8" rx="15.35" ry="15.35"/>
    </clipPath>
    <clipPath id="clippath-1">
      <rect class="cls-38" width="1920" height="1080"/>
    </clipPath>
  </defs>
  <g class="cls-61">
    <g id="Capa_1" data-name="Capa 1">
      <g class="cls-64">
        <g>
          <rect class="cls-37" x="-963.12" y="691.54" width="1169.89" height="180.6"/>
          <path class="cls-51" d="M-934.95,642s1195.46,0,1195.46,0c1.06,31.9,2.09,63.8,3.29,95.69-17.42-10.05-36.59-17.54-56.27-21.71-27.5-5.83-48.78.61-75.28,6.99-38.08,9.17-77.61,16.94-116.6,9.85-27.75-5.05-52.46-19.79-81.26-20.52-37.92-.96-75.57,7.83-111.71,18.5-35.05,10.34-69.84,23.37-106.61,25.88-18.92,1.29-38.27-.52-56.32-6.49-19-6.29-34.15-19.08-52.23-27.21-22.93-10.31-49.13-11.76-73.94-7.71-24.81,4.05-48.46,13.34-71.3,23.83-15.82,7.27-31.75,15.26-49.04,17.3-36.62,4.33-64.64-19.32-96.44-32.61-37.09-15.51-82.75-5.29-117.49,12.5-65.53,33.56-74.42,25.35-101.09,15.28-13.78-5.21-40.89-25.48-64.59-35.56l-2.37-74.07,33.8.06Z"/>
          <rect class="cls-57" x="93.12" y="662.11" width="12.18" height="15.97" rx="4.83" ry="4.83" transform="translate(-321.75 139.38) rotate(-30)"/>
          <rect class="cls-57" x="8.58" y="684.23" width="7.67" height="18.17" rx="3.84" ry="3.84" transform="translate(696.27 578.45) rotate(81.49)"/>
        </g>
      </g>
      <g class="cls-62">
        <rect class="cls-46" x="-23.89" y="4.56" width="2068.33" height="986.67"/>
        <rect class="cls-40" x="-30.22" y="886.33" width="2005.33" height="217.33"/>
        <g>
          <g>
            <g>
              <g>
                <rect class="cls-60" x="630.33" y="327.67" width="37.33" height="288"/>
                <rect class="cls-45" x="641.89" y="327.67" width="37.33" height="288"/>
              </g>
              <g>
                <rect class="cls-60" x="791.22" y="327.67" width="37.33" height="288"/>
                <rect class="cls-45" x="802.78" y="327.67" width="37.33" height="288"/>
              </g>
              <g>
                <rect class="cls-60" x="952.11" y="327.67" width="37.33" height="288"/>
                <rect class="cls-45" x="963.67" y="327.67" width="37.33" height="288"/>
              </g>
            </g>
            <rect class="cls-45" x="1082.78" y="289.44" width="41.33" height="642.67"/>
            <rect class="cls-60" x="1066.78" y="289.44" width="24" height="642.67"/>
            <g>
              <path class="cls-60" d="M1081.94,244.03c0-2.69.33-5.31.95-7.81-9.69,4.41-16.43,14.17-16.43,25.51,0,15.47,12.54,28.01,28.01,28.01,10.17,0,19.08-5.42,23.98-13.53-1.34.17-2.7.26-4.08.26-17.91,0-32.43-14.52-32.43-32.43Z"/>
              <path class="cls-45" d="M1094.48,233.71c-4.13,0-8.05.9-11.58,2.51-.62,2.5-.95,5.12-.95,7.81,0,17.91,14.52,32.43,32.43,32.43,1.38,0,2.74-.1,4.08-.26,2.56-4.23,4.03-9.18,4.03-14.48,0-15.47-12.54-28.01-28.01-28.01Z"/>
            </g>
            <rect class="cls-45" x="539.67" y="305.44" width="548.44" height="39.11"/>
            <rect class="cls-45" x="509.44" y="289.44" width="41.33" height="642.67"/>
            <rect class="cls-60" x="493.44" y="289.44" width="24" height="642.67"/>
            <g>
              <path class="cls-60" d="M508.61,244.03c0-2.69.33-5.31.95-7.81-9.69,4.41-16.43,14.17-16.43,25.51,0,15.47,12.54,28.01,28.01,28.01,10.17,0,19.08-5.42,23.98-13.53-1.34.17-2.7.26-4.08.26-17.91,0-32.43-14.52-32.43-32.43Z"/>
              <path class="cls-45" d="M521.14,233.71c-4.13,0-8.05.9-11.58,2.51-.62,2.5-.95,5.12-.95,7.81,0,17.91,14.52,32.43,32.43,32.43,1.38,0,2.74-.1,4.08-.26,2.56-4.23,4.03-9.18,4.03-14.48,0-15.47-12.54-28.01-28.01-28.01Z"/>
            </g>
            <path class="cls-3" d="M524.22,289.44c8.49-1.2,15.76-6.21,20.02-13.25,2.56-4.23,4.03-9.18,4.03-14.48,0-15.47-12.54-28.01-28.01-28.01-4.13,0-8.05.9-11.58,2.51-9.69,4.41-16.43,14.17-16.43,25.51,0,14.12,10.45,25.8,24.04,27.73h-23.73v642.67h57.33V289.44h-25.67Z"/>
            <g>
              <rect class="cls-48" x="1775.19" y="-669.67" width="171.59" height="1685.02" transform="translate(3721.98 345.69) rotate(180)"/>
              <rect class="cls-12" x="1771.41" y="-663.61" width="171.59" height="1685.02" transform="translate(3714.41 357.79) rotate(180)"/>
            </g>
            <g>
              <g>
                <rect class="cls-60" x="521.62" y="719.27" width="1865.94" height="216.25"/>
                <rect class="cls-45" x="1621.25" y="719.27" width="761.86" height="216.25"/>
                <rect class="cls-59" x="517.17" y="531.13" width="1865.94" height="188.14"/>
                <rect class="cls-32" x="1621.25" y="531.13" width="761.86" height="188.14"/>
              </g>
              <g>
                <rect class="cls-60" x="1595.76" y="933.74" width="29.64" height="79.98"/>
                <rect class="cls-45" x="1621.25" y="935.52" width="29.64" height="79.98"/>
              </g>
              <g>
                <rect class="cls-60" x="532.65" y="933.74" width="29.64" height="79.98"/>
                <rect class="cls-45" x="558.14" y="935.52" width="29.64" height="79.98"/>
              </g>
            </g>
            <g>
              <rect class="cls-49" x="587.96" y="-646.77" width="516.15" height="682.35"/>
              <rect class="cls-49" x="1096.28" y="-642.98" width="516.15" height="682.35"/>
              <g class="cls-63">
                <rect class="cls-35" x="1058.95" y="-624.03" width="20.22" height="644.45"/>
              </g>
              <g class="cls-63">
                <rect class="cls-35" x="1579.75" y="-624.03" width="20.22" height="644.45"/>
              </g>
              <path class="cls-29" d="M1131.5-669.52h-566.29V65.91h1080.25v-735.43h-513.96ZM610.7,20.42v-644.45h468.47V20.42h-468.47ZM1599.97,20.42h-468.47v-644.45h468.47V20.42Z"/>
            </g>
            <g>
              <rect class="cls-50" x="199.27" y="530.87" width="191.46" height="174.7"/>
              <rect class="cls-39" x="390.07" y="530.87" width="345.29" height="174.7"/>
              <rect class="cls-54" x="425.15" y="561.27" width="275.13" height="119.47"/>
              <rect class="cls-29" x="513.38" y="570.46" width="105.75" height="21.6"/>
              <g class="cls-66">
                <rect class="cls-56" x="513.78" y="591.62" width="104.95" height="12.15"/>
              </g>
            </g>
            <g>
              <rect class="cls-3" x="199.27" y="529.86" width="191.46" height="174.7"/>
              <rect class="cls-3" x="390.07" y="529.86" width="345.29" height="174.7"/>
              <rect class="cls-3" x="425.15" y="560.26" width="275.13" height="119.47"/>
              <rect class="cls-3" x="513.38" y="569.45" width="105.75" height="21.6"/>
              <g class="cls-66">
                <rect class="cls-3" x="513.78" y="590.61" width="104.95" height="12.15"/>
              </g>
            </g>
            <g>
              <g>
                <g>
                  <path class="cls-29" d="M470.7,282.64s13.16,10.24-6.21,16.58l6.21-16.58Z"/>
                  <path class="cls-29" d="M466.54,298.19c1.92,1.5,7.19,12.2-6.21,16.58l6.21-16.58Z"/>
                  <path class="cls-29" d="M459.08,315.79s13.16,10.24-6.21,16.58l6.21-16.58Z"/>
                </g>
                <ellipse class="cls-34" cx="416.98" cy="318.65" rx="19.92" ry="21.64"/>
                <path class="cls-44" d="M286.53,491.91c-1.27-4.16-30.79-102.51,5.25-164.73,13.68-23.61,35.04-38.86,63.49-45.33l2.67,11.76c-25.04,5.69-43.78,19.01-55.71,39.58-33.41,57.64-4.46,154.2-4.17,155.17l-11.54,3.54Z"/>
                <g>
                  <path class="cls-55" d="M286.53,491.91s-.28-.91-.76-2.62l11.62-3.25c.42,1.48.66,2.3.68,2.34l-11.54,3.54Z"/>
                  <path class="cls-55" d="M284.4,484.14c-.39-1.52-.82-3.24-1.27-5.16l11.74-2.79c.44,1.84.85,3.49,1.22,4.95l-11.69,2.99ZM281.94,473.82c-.36-1.63-.73-3.36-1.1-5.17l11.81-2.44c.36,1.75.72,3.43,1.07,5.01l-11.78,2.6ZM279.81,463.44c-.32-1.68-.63-3.41-.95-5.2l11.88-2.07c.3,1.73.61,3.41.92,5.04l-11.86,2.24ZM277.99,453.02c-.27-1.71-.54-3.46-.79-5.24l11.94-1.71c.25,1.72.5,3.41.76,5.05l-11.92,1.89ZM276.49,442.53c-.22-1.73-.43-3.48-.63-5.26l11.99-1.34c.19,1.72.39,3.41.61,5.07l-11.97,1.53ZM275.32,431.99c-.17-1.75-.32-3.51-.45-5.29l12.03-.92c.13,1.71.28,3.4.44,5.08l-12.01,1.13ZM274.51,421.4c-.1-1.76-.19-3.53-.26-5.32l12.05-.47c.07,1.71.15,3.4.25,5.08l-12.04.71ZM274.08,410.77c-.04-1.77-.05-3.54-.05-5.33h12.06c0,1.7.02,3.4.05,5.08l-12.06.24ZM274.09,400.12c.04-1.77.1-3.55.18-5.34l12.05.55c-.08,1.69-.13,3.37-.17,5.05l-12.06-.27ZM274.57,389.45l.13-1.8c.09-1.18.2-2.36.31-3.54l12.01,1.14c-.11,1.11-.2,2.23-.29,3.34l-.13,1.69-12.04-.84ZM287.58,380.26l-11.97-1.48c.22-1.78.47-3.56.74-5.33l11.92,1.84c-.25,1.65-.48,3.31-.69,4.97ZM289.11,370.34l-11.86-2.21c.33-1.77.69-3.54,1.08-5.3l11.78,2.61c-.36,1.63-.69,3.26-1,4.9ZM291.27,360.58l-11.68-3.03c.46-1.76.94-3.51,1.47-5.24l11.55,3.48c-.48,1.58-.92,3.18-1.34,4.79ZM294.14,351.07l-11.4-3.94c.6-1.73,1.24-3.46,1.9-5.13l11.22,4.44c-.6,1.53-1.18,3.07-1.72,4.63ZM297.77,341.9l-11-4.96c.76-1.68,1.56-3.35,2.38-4.96l10.74,5.5c-.74,1.44-1.45,2.92-2.13,4.42ZM302.23,333.2l-10.44-6.05c.92-1.58,1.89-3.17,2.9-4.7l10.1,6.6c-.89,1.36-1.75,2.75-2.56,4.15ZM307.56,325.08l-9.69-7.18c1.1-1.48,2.25-2.94,3.43-4.36l9.25,7.75c-1.03,1.23-2.04,2.51-2.99,3.79ZM313.76,317.68l-8.76-8.3c1.27-1.35,2.6-2.66,3.95-3.92l8.23,8.82c-1.17,1.09-2.32,2.24-3.43,3.4ZM320.81,311.11l-7.66-9.32c1.44-1.18,2.92-2.33,4.42-3.41l7.05,9.79c-1.29.93-2.57,1.92-3.81,2.94ZM328.63,305.46l-6.46-10.19c1.54-.98,3.15-1.93,4.78-2.83l5.84,10.56c-1.42.79-2.82,1.62-4.16,2.47ZM337.1,300.77l-5.22-10.87c1.65-.79,3.34-1.55,5.05-2.26l4.61,11.15c-1.5.62-2.99,1.29-4.44,1.98ZM346.1,297.03l-4.04-11.37c1.71-.61,3.47-1.18,5.22-1.71l3.47,11.56c-1.57.47-3.14.98-4.66,1.52Z"/>
                  <path class="cls-55" d="M355.55,294.19l-2.91-11.71c.87-.22,1.75-.43,2.64-.63l2.66,11.77c-.8.18-1.6.37-2.39.57Z"/>
                </g>
                <g>
                  <path class="cls-33" d="M277.44,489.02h75.58c1.74,0,3.44.17,5.1.43-5.58-4.1-12.45-6.55-19.91-6.55h-75.58c-18.61,0-33.7,15.09-33.7,33.7v11.23h14.81v-5.11c0-18.61,15.09-33.7,33.7-33.7Z"/>
                  <path class="cls-33" d="M371.91,516.6c0-11.15-5.44-21.01-13.79-27.15-1.67-.25-3.36-.43-5.1-.43h-75.58c-18.61,0-33.7,15.09-33.7,33.7v5.11h128.18v-11.23Z"/>
                </g>
                <path class="cls-36" d="M423.68,245.64c-30.06-10.14-62.66,6.01-72.8,36.08-10.14,30.06,6.01,62.66,36.08,72.8,16.11,5.43,39.9,5.65,60.07.06l24.49-72.61c-12.66-16.66-31.72-30.9-47.84-36.33Z"/>
                <path class="cls-28" d="M385.19,255.78s10.17-4.12,23.1-2.74"/>
                <ellipse class="cls-29" cx="418.29" cy="288.16" rx="12.31" ry="16.01" transform="translate(-27.76 531.16) rotate(-63.14)"/>
                <ellipse class="cls-29" cx="432.77" cy="268.01" rx="6.78" ry="10.73" transform="translate(-33.16 473.03) rotate(-55.52)"/>
                <ellipse class="cls-35" cx="434.99" cy="271.54" rx="3.49" ry="6.2" transform="translate(-32.45 482.35) rotate(-56.25)"/>
                <ellipse class="cls-35" cx="423.75" cy="290.49" rx="6.38" ry="9.19" transform="translate(-4.2 574.76) rotate(-68.03)"/>
              </g>
              <g>
                <g>
                  <path class="cls-5" d="M469.68,282.38s13.16,10.24-6.21,16.58l6.21-16.58Z"/>
                  <path class="cls-5" d="M465.52,297.93c1.92,1.5,7.19,12.2-6.21,16.58l6.21-16.58Z"/>
                  <path class="cls-5" d="M458.06,315.54s13.16,10.24-6.21,16.58l6.21-16.58Z"/>
                </g>
                <path class="cls-5" d="M283.37,483.89c-.39-1.52-.82-3.24-1.27-5.16l11.74-2.79c.44,1.84.85,3.49,1.22,4.95l-11.69,2.99ZM280.92,473.57c-.36-1.63-.73-3.36-1.1-5.17l11.81-2.44c.36,1.75.72,3.43,1.07,5.01l-11.78,2.6ZM278.79,463.19c-.32-1.68-.63-3.41-.95-5.2l11.88-2.07c.3,1.73.61,3.41.92,5.04l-11.86,2.24ZM276.97,452.76c-.27-1.71-.54-3.46-.79-5.24l11.94-1.71c.25,1.72.5,3.41.76,5.05l-11.92,1.89ZM275.47,442.28c-.22-1.73-.43-3.48-.63-5.26l11.99-1.34c.19,1.72.39,3.41.61,5.07l-11.97,1.53ZM274.3,431.74c-.17-1.75-.32-3.51-.45-5.29l12.03-.92c.13,1.71.28,3.4.44,5.08l-12.01,1.13ZM273.49,421.15c-.1-1.76-.19-3.53-.26-5.32l12.05-.47c.07,1.71.15,3.4.25,5.08l-12.04.71ZM273.06,410.52c-.04-1.77-.05-3.54-.05-5.33h12.06c0,1.7.02,3.4.05,5.08l-12.06.24ZM273.07,399.87c.04-1.77.1-3.55.18-5.34l12.05.55c-.08,1.69-.13,3.37-.17,5.05l-12.06-.27ZM273.55,389.19l.13-1.8c.09-1.18.2-2.36.31-3.54l12.01,1.14c-.11,1.11-.2,2.23-.29,3.34l-.13,1.69-12.04-.84ZM286.56,380l-11.97-1.48c.22-1.78.47-3.56.74-5.33l11.92,1.84c-.25,1.65-.48,3.31-.69,4.97ZM288.09,370.08l-11.86-2.21c.33-1.77.69-3.54,1.08-5.3l11.78,2.61c-.36,1.63-.69,3.26-1,4.9ZM290.25,360.33l-11.68-3.03c.46-1.76.94-3.51,1.47-5.24l11.55,3.48c-.48,1.58-.92,3.18-1.34,4.79ZM293.12,350.82l-11.4-3.94c.6-1.73,1.24-3.46,1.9-5.13l11.22,4.44c-.6,1.53-1.18,3.07-1.72,4.63ZM296.75,341.65l-11-4.96c.76-1.68,1.56-3.35,2.38-4.96l10.74,5.5c-.74,1.44-1.45,2.92-2.13,4.42ZM301.21,332.94l-10.44-6.05c.92-1.58,1.89-3.17,2.9-4.7l10.1,6.6c-.89,1.36-1.75,2.75-2.56,4.15ZM306.54,324.82l-9.69-7.18c1.1-1.48,2.25-2.94,3.43-4.36l9.25,7.75c-1.03,1.23-2.04,2.51-2.99,3.79ZM312.74,317.43l-8.76-8.3c1.27-1.35,2.6-2.66,3.95-3.92l8.23,8.82c-1.17,1.09-2.32,2.24-3.43,3.4ZM319.79,310.85l-7.66-9.32c1.44-1.18,2.92-2.33,4.42-3.41l7.05,9.79c-1.29.93-2.57,1.92-3.81,2.94ZM327.61,305.21l-6.46-10.19c1.54-.98,3.15-1.93,4.78-2.83l5.84,10.56c-1.42.79-2.82,1.62-4.16,2.47ZM336.08,300.52l-5.22-10.87c1.65-.79,3.34-1.55,5.05-2.26l4.61,11.15c-1.5.62-2.99,1.29-4.44,1.98ZM343.57,292.53l-2.53-7.12c1.43-.51,2.88-.99,4.35-1.44"/>
                <path class="cls-3" d="M357.1,489.2c-5.58-4.1-12.45-6.55-19.91-6.55h-75.58c-18.61,0-33.7,15.09-33.7,33.7v11.23h142.99v-11.23c0-11.15-5.44-21.01-13.79-27.15Z"/>
                <path class="cls-3" d="M422.65,245.39c-30.06-10.14-62.66,6.01-72.8,36.08s6.01,62.66,36.08,72.8c16.11,5.43,39.9,5.65,60.07.06l24.49-72.61c-12.66-16.66-31.72-30.9-47.84-36.33Z"/>
                <ellipse class="cls-5" cx="417.27" cy="287.91" rx="12.31" ry="16.01" transform="translate(-28.09 530.11) rotate(-63.14)"/>
                <ellipse class="cls-5" cx="431.75" cy="267.76" rx="6.78" ry="10.73" transform="translate(-33.39 472.07) rotate(-55.52)"/>
                <ellipse class="cls-38" cx="434.19" cy="271.94" rx="3.49" ry="6.2" transform="translate(-33.14 481.86) rotate(-56.25)"/>
              </g>
            </g>
            <line class="cls-3" x1="516.56" y1="295.67" x2="516.56" y2="507.22"/>
            <polyline class="cls-3" points="553.89 306.33 1088.11 306.33 1088.11 341 590.33 341"/>
            <line class="cls-3" x1="680.7" y1="527.96" x2="678.93" y2="341.89"/>
            <line class="cls-3" x1="642.78" y1="527.96" x2="641" y2="341.89"/>
            <line class="cls-3" x1="632.11" y1="527.96" x2="630.33" y2="341.89"/>
            <line class="cls-3" x1="839.52" y1="527.96" x2="837.74" y2="341.89"/>
            <line class="cls-3" x1="801.59" y1="527.96" x2="799.81" y2="341.89"/>
            <line class="cls-3" x1="790.93" y1="527.96" x2="789.15" y2="341.89"/>
            <line class="cls-3" x1="1002.48" y1="527.96" x2="1000.7" y2="341.89"/>
            <line class="cls-3" x1="964.56" y1="527.96" x2="962.78" y2="341.89"/>
            <line class="cls-3" x1="953.89" y1="527.96" x2="952.11" y2="341.89"/>
            <g>
              <path class="cls-2" d="M634.13,307.15s-.46,73.15-.46,78.21-2.76,103.97-2.76,103.97c0,0-9.2,33.58,3.68,37.26,12.88,3.68,60.73-.46,80.05-.46s9.66-33.58-10.12-36.8c-19.78-3.22-15.64-91.09-15.64-91.09,0,0,52.44,3.68,76.83-23.92l37.72-6.44s33.12-56.12,31.28-58.89c-1.84-2.76,1.38-8.74-4.6-11.96-5.98-3.22-95.69-8.28-108.11-8.74s-87.87,5.52-89.25,6.9-24.38,11.04,1.38,11.96Z"/>
              <line class="cls-8" x1="688.87" y1="400.54" x2="689.33" y2="369.72"/>
              <path class="cls-23" d="M690.71,385.82s41.4,11.5,72.23-21.62l2.76,10.12s-20.24,30.36-74.53,23.92l-.46-12.42Z"/>
              <line class="cls-8" x1="635.51" y1="308.99" x2="636.89" y2="298.87"/>
              <path class="cls-58" d="M636.43,317.27c6.61-.23,13.23-.3,19.85-.24,11.19.1,19.93.51,30.02,5.17,5.6,2.59,11.93,3.2,18.09,2.98,15.01-.53,30.01-3.49,44.7-6.4,7.98-1.58,15.94-4.34,24.13-4.55,3.63-.09,52.74,3.49,52.74,7.18,0,1.38-14.72,28.98-14.72,28.98,0,0-21.62-2.76-31.74-7.36-10.12-4.6-12.88-6.44-20.24-5.06-22.88,4.29-45.1,11.01-68.55,6.5-11.16-2.14-21-3.67-32.36-3.55-7.62.08-15.23.18-22.84.27,0,0,.92-23.92.92-23.92Z"/>
              <path class="cls-58" d="M641.95,295.19s-6.9,5.52-3.68,6.9,138.01-2.76,141.69-2.3,20.7,2.76,23.46,3.68,28.52,6.9,28.52,3.22,7.36-9.66-10.12-10.12c-17.48-.46-67.17-5.52-67.17-5.52,0,0-36.34-.92-38.18-.92s-28.52,1.38-28.52,1.38l-46,3.68Z"/>
              <path class="cls-25" d="M774.9,322.33s1.84-20.7,13.34-28.98"/>
              <polygon class="cls-58" points="635.62 372.48 687.03 376.62 687.03 396.4 635.16 393.64 635.62 372.48"/>
              <path class="cls-58" d="M634.13,419.4l-1.38,25.3s11.5-2.76,17.94-3.68c7.14-1.02,11.62-1.82,18.8-1.15,6.25.58,11.37-3.45,17.09-3.45,1.38,0,.46-28.98.46-28.98,0,0-7.36,12.88-18.86,9.66-11.5-3.22-29.44-2.76-34.04,2.3Z"/>
              <path class="cls-58" d="M631.83,495.31s25.3-14.26,38.18-10.12c12.88,4.14,31.28,5.52,31.28,5.52,0,0-10.12-17.02-10.58-23-.46-5.98-54.74,0-57.05,2.3l-1.84,25.3Z"/>
              <path class="cls-58" d="M708.65,493.01s-33.12-2.76-38.18,4.14c-5.06,6.9-11.5,16.56-5.98,21.62,5.52,5.06,17.02,8.28,17.02,8.28l-37.72-1.38s-13.34-25.3,13.8-32.2c27.14-6.9,51.06-.46,51.06-.46Z"/>
              <path class="cls-23" d="M686.57,505.43s-7.82,12.42-2.76,14.72c5.06,2.3,7.82,4.6,12.42,4.6s16.1,1.84,19.32-1.38,11.96-.92,19.78.92c7.82,1.84,9.66,2.3,10.12-3.68.46-5.98-6.44-5.98-16.56-12.88s-7.82-7.36-11.96-8.28c-4.14-.92-26.68,1.84-30.36,5.98Z"/>
              <path class="cls-40" d="M741.78,519.69s-6.21-5.18-17.25-7.59-9.66-3.11-14.15-3.11-14.49,4.83-12.42,6.56,3.8,6.21,9.66,5.18,6.21-3.11,10.35-2.76c4.14.35,5.18,0,7.94.69,2.76.69,21.74,6.56,15.87,1.04Z"/>
              <path class="cls-13" d="M635.85,498.32s13.02-18.16,32.55-13.36"/>
              <path class="cls-13" d="M707.8,508.6s.34-2.74-1.03-3.08l-12.34-3.08"/>
            </g>
            <circle class="cls-3" cx="1094.63" cy="260.41" r="27.56"/>
            <polyline class="cls-3" points="1066.48 302.19 1066.48 290.33 1124.11 290.33 1124.11 338.33"/>
            <line class="cls-3" x1="1093.15" y1="293.89" x2="1093.15" y2="366.78"/>
            <line class="cls-3" x1="1065.3" y1="365.59" x2="1065.3" y2="347.81"/>
            <rect class="cls-41" x="212.56" y="703.67" width="27.56" height="350.67"/>
            <rect class="cls-52" x="343.22" y="703.67" width="27.56" height="350.67"/>
            <g>
              <path class="cls-17" d="M733.18,398.2s18.16,72.64,37.83,78.69c0,0-7.57,13.62,1.51,15.13,0,0-45.4,33.29-33.29,37.83l55.99,1.51,405.55,1.51s-1.51-24.21-10.59-25.73c-9.08-1.51,0-119.55-60.53-131.65,0,0,22.7-36.32,4.54-34.8-18.16,1.51-34.8,28.75-34.8,28.75,0,0-308.7-9.08-340.48,6.05,0,0-33.29-36.32-49.94-21.19-16.65,15.13,24.21,43.88,24.21,43.88Z"/>
              <path class="cls-43" d="M723.72,357.47s19.17,28.25,27.24,30.26c8.07,2.02,8.07,6.05,5.04,10.09s-7.06,12.11,3.03,16.14c10.09,4.04,17.15,18.16,23.2,33.29,6.05,15.13,5.04,18.16,3.03,21.19-2.02,3.03-14.12,11.1-3.03,15.13,11.1,4.04,38.34,23.2,38.34,23.2,0,0,89.79,26.23,17.15,28.25l-95.84-2.52s-1.01-5.55,5.04-12.61c6.05-7.06,28.25-25.22,28.25-25.22,0,0-2.22-1.95-3.39-4.96-1.05-2.73-1.24-6.34,1.88-10.17,0,0-14.63,14.12-37.83-78.69,0,0-22.19-9.08-30.26-35.31,0,0,8.07-19.17,18.16-8.07Z"/>
              <path class="cls-1" d="M774.04,472.35c1.51.5,40.86-9.08,64.56-4.54"/>
              <path class="cls-1" d="M775.17,494.67s7.44-11.22,30.64-7.19"/>
              <path class="cls-1" d="M1163.7,493.54s1.51,11.35-27.24,14.38"/>
            </g>
          </g>
          <line class="cls-14" x1="827.7" y1="531.37" x2="1817.36" y2="531.37"/>
          <line class="cls-12" x1="785.33" y1="722.03" x2="2710.17" y2="722.03"/>
          <line class="cls-17" x1="1623.66" y1="549.52" x2="1623.66" y2="914.72"/>
          <polyline class="cls-12" points="1591.62 935.52 1591.62 1015.51 1650.89 1015.51 1650.89 939.94"/>
          <line class="cls-12" x1="517.17" y1="935.52" x2="1574.78" y2="934.33"/>
          <polyline class="cls-12" points="592.11 943.67 592.11 1015.51 532.65 1015.51 532.65 939.67"/>
          <line class="cls-12" x1="558.14" y1="935.52" x2="558.14" y2="1013.73"/>
          <rect class="cls-41" x="550.21" y="703.37" width="27.56" height="350.67"/>
          <rect class="cls-52" x="654.21" y="703.37" width="27.56" height="350.67"/>
        </g>
        <g>
          <rect class="cls-10" x="477.42" y="510.04" width="193.83" height="17.33" rx="1.1" ry="1.1"/>
          <rect class="cls-15" x="632.14" y="510.04" width="81.33" height="17.33" rx=".77" ry=".77"/>
          <rect class="cls-16" x="559.53" y="516.68" width="20.68" height="4.32" rx="2.16" ry="2.16"/>
          <rect class="cls-16" x="584.62" y="516.68" width="20.68" height="4.32" rx="2.16" ry="2.16"/>
        </g>
        <g>
          <rect class="cls-53" x="61.59" y="23.14" width="225.99" height="286.64" transform="translate(-13.46 15.37) rotate(-4.85)"/>
          <g>
            <path class="cls-38" d="M153.67,135.33c3.07,2.11,6.16,4.19,9.32,6.14,1.97,1.21,3.96,2.44,6.13,3-2.26-.73-4.39-1.93-6.13-3-3.17-1.95-6.26-4.03-9.32-6.14Z"/>
            <path class="cls-38" d="M175.17,144.93h0l.04.42h0l-.04-.42Z"/>
            <path class="cls-38" d="M150.08,132c-.45-.52-.89-1.04-1.33-1.57.44.52.88,1.05,1.33,1.57.67.77,1.28,1.65,2.06,2.26-.78-.62-1.39-1.5-2.06-2.26Z"/>
            <path class="cls-38" d="M209.29,151.77c2.38,2.41,5.1,4.5,7.3,7.05-2.2-2.55-4.92-4.64-7.3-7.05-4.62-4.68-8.45-9.96-11.61-15.73-.35-.63-.88-1.3-.9-1.96.01.66.55,1.32.9,1.96,3.16,5.77,6.99,11.05,11.61,15.73Z"/>
            <path class="cls-38" d="M190.35,119.44c.01-.46.04-.93.1-1.4.16-1.19.39-2.38.6-3.57-.2,1.19-.43,2.37-.6,3.57-.06.47-.09.93-.1,1.4Z"/>
            <path class="cls-38" d="M172.18,125.16c-.89-.19-1.75-.31-2.57-.46.82.15,1.68.27,2.57.46h0Z"/>
            <path class="cls-38" d="M145.56,126.01c.16.67.48,1.3.95,1.82.15.17.3.34.45.51-.15-.17-.3-.34-.45-.51-.47-.52-.8-1.15-.95-1.82Z"/>
            <path class="cls-38" d="M164.87,149.48c-.18.34-.35.7-.49,1.1-.86,2.4-1.65,4.82-2.45,7.25.8-2.43,1.59-4.86,2.45-7.25.14-.39.3-.76.49-1.1Z"/>
            <path class="cls-38" d="M159.68,121.8c-1.56-.33-3.12-.65-4.66-1.04-.95-.24-1.83-.27-2.69-.17.85-.1,1.74-.07,2.69.17,1.54.39,3.1.71,4.66,1.04Z"/>
            <path class="cls-38" d="M171.18,145.7c.64-.08,1.29-.13,1.96-.19-.67.05-1.31.11-1.96.19-2.76.33-5.02,1.41-6.3,3.78,1.28-2.37,3.55-3.45,6.3-3.78Z"/>
            <path class="cls-38" d="M157.57,261.4c.28.75.56,1.5.83,2.25.13.34.25.69.38,1.04-.12-.35-.25-.69-.38-1.04-.28-.75-.56-1.5-.83-2.25Z"/>
            <path class="cls-38" d="M138.91,208.86c.3.81.61,1.6.97,2.38.37.83.56,1.62.64,2.41-.07-.78-.26-1.58-.64-2.41-.35-.78-.67-1.57-.97-2.38Z"/>
            <path class="cls-38" d="M161.32,159.66c-.54-.01-1.08-.05-1.64-.08.55.03,1.1.07,1.64.08h0Z"/>
            <path class="cls-38" d="M153.1,240.27c-1.21-2.18-2.74-4.25-4.75-6.14h0c2.01,1.89,3.54,3.96,4.75,6.14Z"/>
            <path class="cls-38" d="M148.04,236.47c.46.78.97,1.53,1.53,2.24,2.19,2.76,3.5,5.93,4.59,9.18-1.09-3.25-2.4-6.42-4.59-9.18-.56-.7-1.07-1.46-1.53-2.24Z"/>
            <path class="cls-38" d="M136.27,198.88c-.16.63-.03,1.42.32,2.59.31,1.03.62,2.06.92,3.1-.31-1.03-.61-2.07-.92-3.1-.36-1.17-.49-1.96-.32-2.59Z"/>
            <path class="cls-38" d="M146.61,178.33c-2.33.21-3.87,1.65-5.18,3.52-.45.64-.82,1.29-1.13,1.95.31-.66.68-1.31,1.13-1.95,1.31-1.87,2.86-3.31,5.18-3.52Z"/>
            <path class="cls-38" d="M156.91,159.6c.18-.02.37-.04.55-.05-.18.01-.37.03-.55.05-3.3.42-5.37,1.33-6.66,2.92,1.29-1.58,3.36-2.49,6.66-2.92Z"/>
            <path class="cls-38" d="M139.1,193.55c.03.39.06.78.08,1.17-.02-.39-.05-.78-.08-1.17Z"/>
            <path class="cls-38" d="M226.31,173.94c.12.27.25.54.4.8-.15-.26-.28-.53-.4-.8Z"/>
            <path class="cls-38" d="M165.56,240.2c-1.06-.72-2.01-1.5-2.94-2.25.93.75,1.88,1.53,2.94,2.25h0Z"/>
            <path class="cls-38" d="M226.1,207.89c1.22-1.52,2.24-3.17,2.87-4.99-.63,1.82-1.64,3.47-2.87,4.99Z"/>
            <path class="cls-38" d="M158.65,259.12c.12.76.22,1.53.32,2.29-.1-.77-.21-1.53-.32-2.29Z"/>
            <path class="cls-38" d="M209.81,229.12c.36-1.22.81-2.39,1.42-3.5-.6,1.11-1.06,2.28-1.42,3.5Z"/>
            <path class="cls-38" d="M158.91,265.02c.12-.04.24-.07.36-.11-.12.04-.24.07-.36.11h0Z"/>
            <path class="cls-38" d="M196.02,257.82c.08-.07.16-.15.24-.23-.08.08-.16.15-.24.23h0Z"/>
            <path class="cls-38" d="M209.09,232.24h0c.04-.21.08-.43.12-.64-.04.21-.08.42-.12.64Z"/>
            <path class="cls-38" d="M225.55,211.72c-.52.65-1,1.25-1.45,1.83.46-.57.93-1.18,1.45-1.83Z"/>
            <path class="cls-38" d="M156.73,259.16c-.08-.21-.14-.42-.19-.63.05.21.11.42.19.63Z"/>
            <path class="cls-38" d="M212.44,227.28c-.53.75-1.02,1.53-1.51,2.31.49-.78.98-1.56,1.51-2.31Z"/>
            <path class="cls-38" d="M221.55,165.17c.63.87,1.25,1.75,1.87,2.63-.61-.88-1.24-1.76-1.87-2.63Z"/>
            <path class="cls-38" d="M194.87,129.9c.87.92,1.6,2,1.84,3.35-.24-1.35-.96-2.43-1.84-3.35Z"/>
            <path class="cls-38" d="M178.12,107.76c1.55-1.41,3.55-2.44,5.68-2.63-2.14.19-4.14,1.22-5.68,2.63Z"/>
            <path class="cls-38" d="M157.69,234.91c.57.19,1.1.43,1.6.7-.51-.27-1.04-.51-1.6-.7-3.07-1.03-6.2-1.95-9.14-3.3-.54-.25-1.1-.5-1.64-.79.54.29,1.1.54,1.64.79,2.94,1.34,6.07,2.26,9.14,3.3Z"/>
            <path class="cls-38" d="M224.49,169.39c.68,1.11,1,2.45,1.47,3.71-.47-1.26-.79-2.6-1.47-3.71Z"/>
            <path class="cls-38" d="M172.31,124.19c.11-.74.21-1.46.27-2.18-.06.72-.17,1.44-.27,2.18Z"/>
            <path class="cls-38" d="M140.1,220.3c0-.34,0-.69.02-1.03-.01.34-.02.68-.02,1.03Z"/>
            <path class="cls-38" d="M145.91,233.04c-1.05-1.2-2.31-2.18-3.41-3.33,1.1,1.14,2.36,2.13,3.41,3.33Z"/>
            <path class="cls-38" d="M156.41,257.88c-.28-1.56-.49-3.14-.78-4.69.29,1.55.5,3.13.78,4.69Z"/>
            <path class="cls-38" d="M148.89,121.51c.97-.34,1.93-.67,2.94-.85-1.01.18-1.97.51-2.94.85Z"/>
            <path class="cls-38" d="M147.53,174.83c-.15,1.15-.29,2.31-.44,3.48h0c.15-1.17.29-2.33.44-3.48Z"/>
            <path class="cls-38" d="M226.89,176.11h0c2.3,2.82,4.24,5.49,4.01,9.01-.16,2.49-.38,4.97-.6,7.46.23-2.48.44-4.97.6-7.46.23-3.52-1.71-6.19-4.01-9.01Z"/>
            <path class="cls-38" d="M206.09,203.76c.44-.28.88-.57,1.31-.88.77-.56,1.51-1.14,2.23-1.73-.72.6-1.47,1.18-2.23,1.73-.43.31-.87.61-1.31.88Z"/>
            <path class="cls-38" d="M215.66,195.31c2.48-2.77,4.75-5.73,6.92-8.77,1.48-2.06,2.89-4.2,3.68-6.73-.79,2.52-2.21,4.67-3.68,6.73-2.18,3.04-4.44,6.01-6.92,8.77Z"/>
            <path class="cls-38" d="M194.55,208.83c.53-.19,1.07-.4,1.6-.61.12-.05.24-.1.36-.15-.12.05-.24.1-.36.15-.53.22-1.07.42-1.6.61Z"/>
            <path class="cls-38" d="M141.56,198.89c-.5.02-1.03.02-1.54.07.51-.05,1.04-.04,1.54-.07.33-.01.72.28,1,.53.82.74,1.65,1.47,2.41,2.27-.75-.8-1.59-1.53-2.41-2.27-.28-.25-.67-.55-1-.53Z"/>
            <path class="cls-38" d="M198.84,252.97c-1.32,1.27-2.14,3.08-3.18,4.64.1.06.21.13.31.19-.1-.06-.21-.13-.31-.19,1.05-1.56,1.86-3.36,3.18-4.64Z"/>
            <path class="cls-38" d="M226.87,227.1c-.83,1.67-1.97,3.18-3.46,4.49-.97.85-1.95,1.7-2.92,2.55.97-.85,1.95-1.7,2.92-2.55,1.49-1.31,2.63-2.82,3.46-4.49Z"/>
            <path class="cls-38" d="M209.25,232.07c.19-.21.36-.44.52-.67-.15.23-.32.46-.52.67Z"/>
            <path class="cls-38" d="M198.98,255.15c-.35.27-.68.57-1.01.86.33-.3.66-.59,1.01-.86,2.4-1.89,4.93-3.6,7.26-5.57,1.1-.93,2.18-1.86,3.27-2.8-1.09.94-2.17,1.87-3.27,2.8-2.32,1.97-4.86,3.69-7.26,5.57Z"/>
            <path class="cls-38" d="M214.39,242.54c2.71-2.36,5.41-4.71,8.15-7.03.95-.8,1.84-1.64,2.67-2.52-.82.88-1.72,1.72-2.67,2.52-2.74,2.32-5.44,4.68-8.15,7.03Z"/>
            <path class="cls-38" d="M138.87,201.89c.51,1.54,1.03,3.08,1.57,4.62-.54-1.53-1.06-3.07-1.57-4.62-.27-.82-.55-2.3-.2-2.53.14-.09.3-.16.46-.22-.16.06-.32.13-.46.22-.35.23-.08,1.71.2,2.53Z"/>
            <path class="cls-38" d="M230.75,222.05c.29-2.23-.11-4.29-1.74-6.21-.92-1.08-1.7-2.28-2.49-3.48.79,1.2,1.57,2.4,2.49,3.48,1.63,1.93,2.03,3.98,1.74,6.21Z"/>
            <path class="cls-38" d="M233.09,189.86c-.22,4.96-.99,9.84-2.52,14.56,1.53-4.72,2.3-9.6,2.52-14.56.08-1.9.23-3.85-.03-5.71.26,1.86.11,3.81.03,5.71Z"/>
            <path class="cls-38" d="M142.09,219.65c.07-.58.19-1.17.36-1.75.25-.87.4-1.72.44-2.58-.04.85-.19,1.71-.44,2.58-.17.59-.29,1.17-.36,1.75Z"/>
            <path class="cls-38" d="M143.89,228.46c-.32-.42-.58-.89-.77-1.42-.32-.91-.6-1.84-.79-2.79.2.94.47,1.87.79,2.79.19.53.45,1,.77,1.42Z"/>
            <path class="cls-42" d="M57.3,39.63c7.69,90.56,15.38,181.11,23.07,271.63,70.51-5.99,141.01-11.98,211.5-17.96-7.69-90.58-15.38-181.11-23.07-271.63-70.52,5.99-141.01,11.97-211.5,17.96ZM173.79,96.12c1.99-1.88,3.7-4.11,6.41-5.08.23-.08.54-.29.67-.21,1.77,1.1,3.73,2.02,5.19,3.45.8.78-.44,1.61-1.36,2.05-3.52,1.67-7.07,3.31-10.53,5.09-1.27.65-2.33,1.7-3.76,2.77.39-3.23,1.15-5.97,3.39-8.08ZM141.13,89.18c.5-.52,1.33-.84,2.06-1,2.55-.54,5-.3,7.19,1.31.56.41,1.15.79,1.91,1.3-.07-.38-.07-.53-.13-.63-4.03-6.5-.57-13.43,5.12-16.12,1.6-.75,3.44-.86,5.08.02,3.49,1.87,5.58,4.78,6.18,8.75.67,4.45-.16,8.8-1.2,13.03-.75,3.05-2.41,5.9-3.89,8.73-1.36,2.6-1.38,2.25-4.25,1.25-4.1-1.43-8.34-2.44-12.55-3.53-2.31-.6-4.37-1.5-5.89-3.45-2.11-2.71-2.02-7.2.37-9.64ZM139.67,107.78c1.74-.36,3.53-.79,5.28-.73,2.3.08,4.6.57,6.89.95,2.41.4,3.22,2.45,4.24,4.32-3.54-1.55-6.73-.18-9.95.83-1.61.51-3.21,1.04-4.83,1.53-1.4.43-2.08-.25-2.31-1.57-.19-1.05-.33-2.11-.59-3.14-.3-1.19.18-1.96,1.27-2.19ZM231.14,250.75c-.7,3.78-1.78,7.53-3.04,11.17-.7,2.03-1.37,4.18-3.34,5.66-.86.65-1.17,2.2-1.46,3.41-.75,3.14-1.35,6.33-2.02,9.49-.07.31-.18.61-.27.92-.1,0-.2,0-.3-.01-.08-.98-.3-1.97-.23-2.94.25-3.26,1.22-6.33,2.44-9.38,2.16-5.39,4.22-10.83,6.01-16.35,1.13-3.5.85-7.16.27-10.81-.49-3.1-.58-6.26-.85-9.47.18.1.38.13.4.22.93,3.2,2.18,6.35,2.65,9.61.4,2.77.24,5.73-.27,8.49ZM233.09,189.86c-.22,4.96-.99,9.84-2.52,14.56-.11.33-.22.65-.35.97-.9,2.21-2.38,4.07-4.67,5.5.34.49.66.98.98,1.47.79,1.2,1.57,2.4,2.49,3.48,1.63,1.93,2.03,3.98,1.74,6.21-.07.51-.17,1.04-.3,1.57-.38,1.54-.93,2.96-1.61,4.29-.27.53-.57,1.05-.89,1.55-.79,1.26-1.72,2.42-2.75,3.52-.82.88-1.72,1.72-2.67,2.52-2.74,2.32-5.44,4.68-8.15,7.03-1.62,1.41-3.25,2.83-4.88,4.23-1.09.94-2.17,1.87-3.27,2.8-2.32,1.97-4.86,3.69-7.26,5.57-.35.27-.68.57-1.01.86-.58.52-1.14,1.06-1.71,1.59-.08.08-.16.15-.24.23h0s-.03-.02-.05-.03c-.1-.06-.21-.13-.31-.19,1.05-1.56,1.86-3.36,3.18-4.64,2.86-2.75,5.98-5.22,8.98-7.82,4.23-3.66,8.45-7.33,12.66-11.01.97-.85,1.95-1.7,2.92-2.55,1.49-1.31,2.63-2.82,3.46-4.49.83-1.67,1.34-3.49,1.59-5.4.21-1.59-.22-3.35-.69-4.93-.43-1.44-1.16-2.79-1.89-4.36-.11-.22-.21-.45-.32-.68-.52.65-1,1.25-1.45,1.83s-.89,1.11-1.35,1.64c-3.16,3.67-6.38,7.28-9.48,11-.29.35-.57.72-.83,1.09-.53.75-1.02,1.53-1.51,2.31-.25.39-.49.78-.75,1.16-.14.21-.27.43-.41.64-.15.23-.32.46-.52.67-.05.06-.1.12-.16.17h0s0,0,0,0c.04-.21.08-.43.12-.64.16-.85.36-1.68.6-2.49.36-1.22.81-2.39,1.42-3.5.1-.19.2-.37.31-.55.44-.73.94-1.43,1.53-2.09,3.2-3.63,6.38-7.27,9.53-10.95,1.05-1.22,2.09-2.45,3.13-3.68.13-.15.25-.3.37-.45,1.22-1.52,2.24-3.17,2.87-4.99.31-.91.53-1.87.62-2.87.23-2.48.48-4.97.71-7.45.23-2.48.44-4.97.6-7.46.23-3.52-1.71-6.19-4.01-9.01-.04,1.33-.27,2.56-.63,3.71-.79,2.52-2.21,4.67-3.68,6.73-2.18,3.04-4.44,6.01-6.92,8.77-.62.69-1.26,1.37-1.91,2.03-1.3,1.33-2.67,2.6-4.11,3.79-.72.6-1.47,1.18-2.23,1.73-.43.31-.87.61-1.31.88-3,1.87-6.31,3-9.58,4.31-.12.05-.24.1-.36.15-.53.22-1.07.42-1.6.61-1.07.39-2.14.73-3.22,1.04-3.23.91-6.5,1.45-9.8,1.69-1.1.08-2.2.13-3.31.14-2.77.04-5.56-.12-8.38-.44-3.08-.35-6.18-.56-9.24-1.04-1.51-.24-2.97-.57-4.37-1.02-4.2-1.34-7.89-3.67-10.95-7.17-.1-.12-.21-.23-.32-.34-.75-.8-1.59-1.53-2.41-2.27-.28-.25-.67-.55-1-.53-.5.02-1.03.02-1.54.07-.32.03-.62.09-.89.19-.16.06-.32.13-.46.22-.35.23-.08,1.71.2,2.53.51,1.54,1.03,3.08,1.57,4.62.54,1.53,1.11,3.06,1.71,4.56.34.86.57,1.71.67,2.55.07.57.09,1.13.07,1.7-.04.85-.19,1.71-.44,2.58-.17.59-.29,1.17-.36,1.75-.2,1.55-.08,3.09.23,4.6.2.94.47,1.87.79,2.79.19.53.45,1,.77,1.42.68.9,1.61,1.58,2.62,2.15.13.08.27.15.41.22.54.29,1.1.54,1.64.79,2.94,1.34,6.07,2.26,9.14,3.3.57.19,1.1.43,1.6.7.17.09.34.19.5.28.99.59,1.9,1.31,2.83,2.05s1.88,1.53,2.94,2.25h0s0,0,0,0c-2.21-.78-4.36-1.54-6.49-2.29s-4.25-1.5-6.39-2.25c-1.43-.5-2.87-1.01-4.33-1.53,2.01,1.89,3.54,3.96,4.75,6.14,2.66,4.8,3.75,10.15,4.93,15.44.17.75.31,1.51.44,2.27.06.38.12.76.18,1.14.12.76.22,1.53.32,2.29s.2,1.53.31,2.3c.05.38.11.76.17,1.15-.06.02-.12.04-.18.06-.12.04-.24.07-.36.11h0c-.04-.12-.08-.23-.13-.35-.12-.35-.25-.69-.38-1.04-.28-.75-.56-1.5-.83-2.25-.19-.5-.37-1-.56-1.5-.09-.25-.19-.5-.28-.75-.08-.21-.14-.42-.19-.63,0-.04-.02-.08-.03-.13-.03-.17-.06-.35-.09-.52-.28-1.56-.49-3.14-.78-4.69-.06-.35-.13-.69-.21-1.03-.15-.68-.32-1.36-.53-2.02-.16-.5-.32-1-.48-1.5-.08-.25-.17-.5-.25-.75-1.09-3.25-2.4-6.42-4.59-9.18-.56-.7-1.07-1.46-1.53-2.24-.28-.47-.54-.94-.78-1.43-.29-.6-.65-1.13-1.05-1.63-.1-.12-.2-.25-.31-.37-1.05-1.2-2.31-2.18-3.41-3.33-.11-.11-.22-.23-.32-.35-.91-1.02-1.55-2.04-1.58-3.46-.02-.96-.4-1.9-.43-2.86-.01-.46-.03-.91-.05-1.37-.01-.46-.03-.92-.03-1.37,0-.34,0-.69.02-1.03.02-.57.06-1.14.14-1.7.17-1.22.35-2.38.29-3.55,0-.13-.02-.26-.03-.39-.07-.78-.26-1.58-.64-2.41-.35-.78-.67-1.57-.97-2.38-.52-1.41-.96-2.85-1.4-4.3-.31-1.03-.61-2.07-.92-3.1-.36-1.17-.49-1.96-.32-2.59.21-.81.91-1.35,2.25-2.09.33-.18.66-.68.68-1.04.02-.34.01-.69,0-1.03-.02-.39-.05-.78-.08-1.17-.02-.18-.03-.37-.05-.55-.26-3.21-.1-6.32,1.24-9.19.31-.66.68-1.31,1.13-1.95,1.31-1.87,2.86-3.31,5.18-3.52.16-.01.31-.02.48-.03.15-1.17.29-2.33.44-3.48.15-1.15.29-2.29.44-3.44.1-.77.2-1.54.3-2.31.1-.77.21-1.54.32-2.3.27-1.78.79-3.18,1.67-4.26,1.29-1.58,3.36-2.49,6.66-2.92.18-.02.37-.04.55-.05.74-.05,1.49-.01,2.22.03.55.03,1.1.07,1.64.08.2-.61.4-1.22.61-1.82.8-2.43,1.59-4.86,2.45-7.25.14-.39.3-.76.49-1.1,1.28-2.37,3.55-3.45,6.3-3.78.64-.08,1.29-.13,1.96-.19.67-.05,1.35-.1,2.07-.16l-.04-.42c-1.98.47-4.06.18-6.04-.47-2.17-.56-4.16-1.78-6.13-3-3.17-1.95-6.26-4.03-9.32-6.14-.44-.3-.88-.6-1.31-.9-.07-.05-.14-.11-.22-.16-.78-.62-1.39-1.5-2.06-2.26-.45-.52-.89-1.04-1.33-1.57-.59-.7-1.18-1.4-1.78-2.08-.15-.17-.3-.34-.45-.51-.47-.52-.8-1.15-.95-1.82-.13-.56-.15-1.14-.05-1.69s.33-1.08.68-1.53c.2-.26.46-.57.75-.65.33-.09.65-.2.98-.31s.65-.22.97-.34c.97-.34,1.93-.67,2.94-.85.17-.03.34-.05.51-.07.85-.1,1.74-.07,2.69.17,1.54.39,3.1.71,4.66,1.04,2.59.55,5.17,1.16,7.64,2.25.71.32,1.48.5,2.29.65.82.15,1.68.27,2.57.46.04-.33.08-.65.13-.96.11-.74.21-1.46.27-2.18.02-.2.04-.41.05-.61.18-3.96,1.5-7.61,3.37-10.99.47-.84,1.09-1.66,1.84-2.39.09-.09.19-.18.28-.27,1.55-1.41,3.55-2.44,5.68-2.63.93-.08,1.89,0,2.85.27,3.51,1.01,5.13,3.28,4.72,6.94-.08.72-.2,1.43-.32,2.14-.2,1.19-.43,2.37-.6,3.57-.06.47-.09.93-.1,1.4-.04,2.01.39,3.95,1.1,5.86.51,1.36,1.12,2.51,2.32,3.55.28.24.56.5.83.77.09.09.18.18.27.27.87.92,1.6,2,1.84,3.35.05.27.07.55.08.84.01.66.55,1.32.9,1.96,3.16,5.77,6.99,11.05,11.61,15.73,2.38,2.41,5.1,4.5,7.3,7.05,1.4,1.63,2.73,3.32,4.01,5.05.32.43.64.87.95,1.3.63.87,1.25,1.75,1.87,2.63.31.44.61.88.92,1.33.06.08.1.17.16.26.68,1.11,1,2.45,1.47,3.71.07.19.15.38.23.57.04.09.08.18.12.27.12.27.25.54.4.8.2.34.43.66.71.92,2,1.88,4.04,3.76,5.06,6.27.08.19.15.39.22.59.13.4.24.82.31,1.25.02.12.03.25.05.37.26,1.86.11,3.81.03,5.71Z"/>
            <path class="cls-38" d="M189.21,113.15c.04-.19.07-.37.1-.56.05-.3.08-.6.09-.89-.01.29-.04.58-.09.89-.03.19-.07.37-.1.56Z"/>
            <path class="cls-38" d="M190.55,127.16h0c-1.73-2.22-2.25-4.7-2.24-7.28-.01,2.58.51,5.06,2.24,7.28Z"/>
            <path class="cls-38" d="M174.4,125.59c-.03-3.66.26-7.13,1.67-10.44.21-.5.43-1.01.65-1.5-.22.5-.44,1-.65,1.5-1.41,3.31-1.7,6.79-1.67,10.44,2.8.29,5.44.58,8.09.83,1,.1,2.01.19,3.01.28-1-.09-2.01-.18-3.01-.28-2.65-.26-5.29-.54-8.09-.83Z"/>
            <path class="cls-38" d="M182.3,107.57c.55-.2,1.12-.32,1.68-.37-.57.05-1.13.17-1.68.37Z"/>
            <path class="cls-38" d="M201.03,177.01c.83,1,1.68,2.01,2.53,3.06,0,0,0,0,0,0-.85-1.05-1.69-2.06-2.53-3.06Z"/>
            <path class="cls-38" d="M141.89,197.14c.1.1.22.2.33.27-.11-.08-.22-.17-.33-.27Z"/>
            <path class="cls-38" d="M170.07,165.26c.07-.62.15-1.26.24-2.01h0c-.09.75-.17,1.39-.24,2.01Z"/>
            <path class="cls-38" d="M158.67,161.63c.25,0,.49,0,.73,0-.24,0-.48,0-.73,0Z"/>
            <path class="cls-38" d="M153.85,187.79c-.17-.38-.34-.76-.51-1.14-.07-.15-.13-.29-.2-.43.07.14.14.29.2.43.17.38.34.76.51,1.14Z"/>
            <path class="cls-38" d="M151.09,183.09c-.73-.79-1.61-1.45-2.69-1.94-.79-.35-1.42-.52-2-.48.58-.04,1.21.13,2,.48,1.08.48,1.96,1.15,2.69,1.94Z"/>
            <path class="cls-38" d="M160.17,201.49c.28.35.6.66.97.94-.36-.28-.69-.59-.97-.94Z"/>
            <path class="cls-38" d="M172.15,170.91c.02.07.04.14.08.19.41.7.81,1.39,1.21,2.1-.4-.7-.8-1.4-1.21-2.1-.03-.06-.06-.12-.08-.19Z"/>
            <path class="cls-38" d="M197.01,174.86c.62.57,1.27,1.11,1.94,1.64-.67-.53-1.32-1.08-1.94-1.64-3.8-3.44-6.06-8-8.74-12.28-.21-.33-.42-.67-.64-1,.21.33.43.66.64,1,2.68,4.27,4.94,8.84,8.74,12.28Z"/>
            <path class="cls-38" d="M173.03,164.52c-.13-.03-.26-.05-.4-.08.13.03.26.05.4.08-.3,1.8-.61,3.59-.88,5.39-.01.1-.03.2-.04.31,0-.11.02-.21.04-.31.27-1.8.58-3.59.88-5.39Z"/>
            <path class="cls-38" d="M175.15,140.81c.2.42.39.85.59,1.28-.2-.43-.39-.85-.59-1.28h0Z"/>
            <path class="cls-38" d="M143.19,198.98h0c.1.29.1.53.2.59,2.16,1.29,4.25,2.74,6.39,4.08-2.14-1.34-4.23-2.8-6.39-4.08-.1-.06-.11-.29-.2-.59Z"/>
            <path class="cls-38" d="M144.18,181.84c.18-.17.35-.31.52-.44-.17.13-.34.28-.52.44-2.54,2.34-3.02,5.47-3.18,8.63-.04.84-.02,1.69.04,2.54-.06-.85-.09-1.7-.04-2.54.16-3.17.64-6.29,3.18-8.63Z"/>
            <path class="cls-38" d="M163.74,159.87c.59-2.25,1.2-4.5,1.9-6.71.54-1.7,1.16-3.4,2.81-4.4-1.65,1-2.27,2.7-2.81,4.4-.71,2.21-1.31,4.46-1.9,6.71-.1.4-.07,1.03.18,1.29-.25-.26-.29-.9-.18-1.29Z"/>
            <path class="cls-38" d="M143.6,199.12c.82.28,1.61.55,2.37.81-.76-.26-1.55-.53-2.37-.81Z"/>
            <path class="cls-38" d="M150.02,179.42c-.08-.07-.15-.16-.21-.26.06.1.13.19.21.26,1.02.93,2.19,1.7,3.45,2.64h0c-1.26-.95-2.43-1.71-3.45-2.64Z"/>
            <path class="cls-38" d="M162.63,162.67c1.88,2.02,4.14,3.81,5.54,6.13,1.2,1.99,2.36,4,3.48,6.04-1.13-2.03-2.29-4.05-3.48-6.04-1.4-2.31-3.66-4.11-5.54-6.13-.16-.17-.37-.32-.58-.44-.63-.38-1.58-.57-2.65-.6,1.07.04,2.02.23,2.65.6.21.12.42.26.58.44Z"/>
            <path class="cls-38" d="M179.87,189.13c-1.08-1.19-2.09-2.46-2.84-3.99-1.37-2.78-2.79-5.53-4.26-8.26,1.47,2.73,2.89,5.49,4.26,8.26.76,1.53,1.76,2.8,2.84,3.99Z"/>
            <path class="cls-38" d="M181.91,190.55c.43.69.89,1.37,1.27,2.09,0,0,0,0,0,0-.39-.72-.84-1.41-1.28-2.1Z"/>
            <path class="cls-38" d="M154.88,185.02c-.04-.1-.08-.2-.1-.31.02.11.06.22.1.31,1.94,4.38,3.88,8.77,5.9,13.11.21.46.44.91.67,1.36-.24-.45-.46-.9-.67-1.36-2.02-4.35-3.96-8.73-5.9-13.11Z"/>
            <path class="cls-38" d="M180.28,150.8c.45.65.9,1.3,1.35,1.95-.45-.65-.9-1.3-1.35-1.95-.49-.71-1.11-1.29-1.81-1.74.7.45,1.32,1.03,1.81,1.74Z"/>
            <path class="cls-38" d="M203.2,202.96c.55-.3,1.08-.62,1.61-.97,1.06-.71,2.08-1.46,3.07-2.23-.99.78-2.02,1.52-3.07,2.23-.52.35-1.06.67-1.61.97Z"/>
            <path class="cls-38" d="M155.62,177.44h0c.14.04.29.07.43.11-.11.51-.22,1.02-.33,1.53.11-.51.22-1.02.33-1.53-.14-.04-.29-.07-.43-.11Z"/>
            <path class="cls-38" d="M162.97,202.27c.27.48.55.98.83,1.5h0c-.28-.52-.56-1.02-.83-1.5Z"/>
            <path class="cls-38" d="M146.51,199.75c.45.27.9.54,1.34.84h0c-.44-.3-.89-.57-1.34-.84Z"/>
            <path class="cls-38" d="M154.89,179c-.44.94-.87,1.87-1.29,2.78.42-.9.85-1.83,1.29-2.78Z"/>
            <path class="cls-38" d="M151.34,165.03c.06-.21.15-.41.24-.6-.1.19-.18.39-.24.6Z"/>
            <path class="cls-38" d="M155.43,123.1c-.49-.08-.98-.16-1.46-.24-.42-.07-.84-.08-1.28-.05.43-.03.86-.02,1.28.05.49.08.98.16,1.46.24Z"/>
            <path class="cls-38" d="M148.39,127.01c-.24-.34-.41-.73-.56-1.13.15.4.32.79.56,1.13Z"/>
            <path class="cls-38" d="M161.26,124.3c.96.24,1.92.5,2.86.79-.94-.29-1.9-.55-2.86-.79Z"/>
            <path class="cls-38" d="M168.88,148.52c.83-.4,1.93-.69,3.12-.81-1.2.12-2.3.4-3.12.81Z"/>
            <path class="cls-38" d="M149.59,128.43c3.51,3.95,7.5,7.34,12.25,9.8.32.17.64.35.94.54-.31-.19-.62-.38-.94-.54-4.75-2.46-8.74-5.85-12.25-9.8Z"/>
            <path class="cls-38" d="M163.7,139.36c.61.4,1.23.79,1.88,1.1.23.11.47.22.71.33-.24-.11-.48-.22-.71-.33-.65-.31-1.27-.7-1.88-1.1Z"/>
            <path class="cls-38" d="M220.05,165.87c-1.79-2.15-3.57-4.3-5.42-6.4-.25-.28-.51-.55-.77-.81.27.26.53.53.77.81,1.85,2.1,3.63,4.25,5.42,6.4Z"/>
            <path class="cls-38" d="M175.14,144.52h0c-.1-1.13-.2-2.38-.31-3.64.02,0,.04,0,.06-.01-.02,0-.04,0-.06.01.11,1.26.21,2.51.31,3.64Z"/>
            <path class="cls-38" d="M171.38,167.55c.53-1.31.89-2.21,1.25-3.11-.36.9-.72,1.8-1.25,3.11h0Z"/>
            <path class="cls-38" d="M170.97,165.9c-.11-.43-.21-.85-.32-1.29.11.43.21.85.32,1.29Z"/>
            <path class="cls-38" d="M187.68,128.97c-2.08-.33-4.21-.36-6.32-.53-2.68-.22-5.34-.51-7.98-.95,2.64.45,5.3.73,7.98.95,2.11.18,4.24.21,6.32.53Z"/>
            <path class="cls-38" d="M169.85,167.11h0c-2.13-2.12-4.06-4-5.92-5.94,1.86,1.95,3.8,3.83,5.92,5.94Z"/>
            <path class="cls-29" d="M174.83,140.88s.04,0,.06-.01c.09-.02.17-.03.26-.05h0c.2.42.39.85.59,1.28.6,1.29,1.22,2.63,1.94,4.18,3.35,1.16,5.42,4.38,7.48,7.53,3.62,5.51,6.99,11.18,10.71,16.62,1.55,2.27,3.33,4.39,5.16,6.58.83,1,1.68,2.01,2.53,3.06,0,0,0,0,0,0,0,0,0,0,0,0-1.6-1.26-3.15-2.39-4.61-3.57-.67-.53-1.32-1.08-1.94-1.64-3.8-3.44-6.06-8-8.74-12.28-.21-.33-.42-.67-.64-1-1.92-2.99-3.97-5.91-6-8.83-.45-.65-.9-1.3-1.35-1.95-.49-.71-1.11-1.29-1.81-1.74-.12-.08-.24-.15-.36-.22-1.82-1.03-4.11-1.32-6.11-1.13-1.2.12-2.3.4-3.12.81-.09.04-.18.09-.27.14-.06.03-.11.06-.16.1-1.65,1-2.27,2.7-2.81,4.4-.71,2.21-1.31,4.46-1.9,6.71-.1.4-.07,1.03.18,1.29,1.86,1.95,3.8,3.83,5.92,5.94.08-.64.15-1.23.22-1.85.07-.62.15-1.26.24-2.01h0s0,0,0,0c.12.48.23.92.34,1.36.11.43.21.85.32,1.29.13.52.26,1.06.41,1.66.53-1.31.89-2.21,1.25-3.11.13.03.26.05.4.08-.3,1.8-.61,3.59-.88,5.39-.01.1-.03.2-.04.31-.02.24-.02.49.04.69.02.07.04.14.08.19.41.7.81,1.39,1.21,2.1,2.78,4.91,5.24,9.97,7.34,15.23.3.74.71,1.44,1.14,2.13.43.69.89,1.37,1.28,2.1,0,0,0,0,0,0,0,0,0,0,0,0-1.07-1.21-2.23-2.32-3.32-3.52-1.08-1.19-2.09-2.46-2.84-3.99-1.37-2.78-2.79-5.53-4.26-8.26-.37-.68-.74-1.36-1.12-2.04-1.13-2.03-2.29-4.05-3.48-6.04-1.4-2.31-3.66-4.11-5.54-6.13-.16-.17-.37-.32-.58-.44-.63-.38-1.58-.57-2.65-.6-.24,0-.48,0-.73,0s-.5.02-.76.04c-2.42.2-5.01,1.04-5.99,2.22-.13.16-.24.34-.34.54s-.18.39-.24.6c-.04.14-.07.28-.09.41-.63,4.11-1.23,8.23-1.77,12.36-.05.41.08.97.33,1.35.06.1.13.19.21.26,1.02.93,2.19,1.7,3.45,2.64.04-.09.09-.19.13-.28.42-.9.85-1.83,1.29-2.78.24-.52.48-1.04.73-1.56h0s0,0,0,0c.14.04.29.07.43.11-.11.51-.22,1.02-.33,1.53-.33,1.53-.66,3.06-.95,4.6-.06.32-.07.69,0,1.02.02.11.06.22.1.31,1.94,4.38,3.88,8.77,5.9,13.11.21.46.44.91.67,1.36.47.9.98,1.81,1.52,2.78.27.48.55.98.83,1.5h0s0,0,0,0c-.78-.27-1.48-.57-2.08-.94-.2-.12-.39-.25-.58-.39-.36-.28-.69-.59-.97-.94s-.52-.74-.72-1.17c-1.9-4.16-3.72-8.36-5.6-12.54-.17-.38-.34-.76-.51-1.14-.07-.15-.13-.29-.2-.43-.14-.29-.28-.57-.43-.85-.46-.83-.98-1.6-1.61-2.27-.73-.79-1.61-1.45-2.69-1.94-.79-.35-1.42-.52-2-.48-.5.03-.96.21-1.45.55-.08.06-.16.12-.25.18-.17.13-.34.28-.52.44-2.54,2.34-3.02,5.47-3.18,8.63-.04.84-.02,1.69.04,2.54.08,1.09.21,2.18.34,3.26.03.28.24.6.51.86.1.1.22.2.33.27.06.04.11.07.17.1,1.37.74,2.76,1.43,4.12,2.23.45.27.9.54,1.34.84h0s0,0,0,0c-.62-.21-1.25-.43-1.89-.65-.76-.26-1.55-.53-2.37-.81-.14-.05-.27-.09-.41-.14.1.29.1.53.2.59,2.16,1.29,4.25,2.74,6.39,4.08,2.76,1.72,5.61,3.23,8.85,3.91,4.53.95,9.2,1.22,13.83,1.7,3.06.31,6.11.42,9.14.2,2.36-.17,4.71-.54,7.03-1.16,1.77-.47,3.54-1,5.25-1.65,3.13-1.17,6.37-2.07,9.32-3.68.55-.3,1.08-.62,1.61-.97,1.05-.71,2.08-1.46,3.07-2.23,2.97-2.34,5.64-4.99,7.93-8.04,2.26-3.02,4.46-6.11,6.5-9.28,2.25-3.49,2.54-7.83,1.05-11.58-.5-1.25-1.19-2.43-2.07-3.49-.41-.5-.82-.99-1.24-1.49-1.79-2.15-3.57-4.3-5.42-6.4-.25-.28-.51-.55-.77-.81-.8-.78-1.68-1.5-2.49-2.28-5.43-5.26-11.05-10.31-13.93-17.64-.39-1-.89-1.97-1.44-2.91-.55-.94-1.15-1.86-1.75-2.78-.4-.61-.8-1.22-1.19-1.84-.3-.48-.89-.86-1.46-1.12-.08-.04-.16-.07-.24-.11-1-.42-2.02-.7-3.06-.9-.21-.04-.42-.07-.62-.11-2.08-.33-4.21-.36-6.32-.53-2.68-.22-5.34-.51-7.98-.95-.33-.06-.66-.11-.99-.18-2.3-.43-4.59-.99-6.85-1.76-.47-.16-.94-.31-1.41-.45-.95-.29-1.9-.55-2.86-.79-.48-.12-.96-.23-1.45-.34-1.45-.33-2.92-.61-4.38-.86-.49-.08-.98-.16-1.46-.24-.42-.07-.84-.08-1.28-.05-.43.03-.87.1-1.31.18-.22.04-.44.09-.66.14-.66.15-1.33.33-1.98.46-1.06.22-1.34,1.05-1,2.03.03.08.06.16.09.25.15.4.32.79.56,1.13.04.06.08.12.12.17.35.42.71.83,1.08,1.24,3.51,3.95,7.5,7.34,12.25,9.8.32.17.64.35.94.54s.61.39.92.59c.61.4,1.23.79,1.88,1.1.24.11.48.22.71.33,2.64,1.2,6.22,2.6,8.84,3.73-.1-1.13-.2-2.38-.31-3.64Z"/>
            <path class="cls-35" d="M175.14,144.52h0c.01.14.02.28.04.42h0l-.04-.42Z"/>
            <path class="cls-35" d="M233.05,184.15c-.02-.12-.03-.25-.05-.37-.08-.44-.18-.85-.31-1.25-.07-.2-.14-.4-.22-.59-1.02-2.51-3.06-4.39-5.06-6.27-.28-.26-.51-.58-.71-.92-.15-.26-.28-.53-.4-.8-.04-.09-.08-.18-.12-.27-.08-.19-.16-.38-.23-.57-.47-1.26-.79-2.6-1.47-3.71-.05-.09-.1-.17-.16-.26-.3-.44-.61-.88-.92-1.33-.61-.88-1.24-1.76-1.87-2.63-.32-.44-.63-.87-.95-1.3-1.28-1.73-2.61-3.42-4.01-5.05-2.2-2.55-4.92-4.64-7.3-7.05-4.62-4.68-8.45-9.96-11.61-15.73-.35-.63-.88-1.3-.9-1.96,0-.29-.03-.57-.08-.84-.24-1.35-.96-2.43-1.84-3.35-.09-.09-.18-.18-.27-.27-.27-.27-.55-.52-.83-.77-1.2-1.04-1.81-2.19-2.32-3.55-.71-1.91-1.15-3.86-1.1-5.86.01-.46.04-.93.1-1.4.16-1.19.39-2.38.6-3.57.12-.71.24-1.43.32-2.14.42-3.66-1.2-5.93-4.72-6.94-.96-.27-1.92-.35-2.85-.27-2.14.19-4.14,1.22-5.68,2.63-.1.09-.19.18-.28.27-.74.73-1.37,1.54-1.84,2.39-1.87,3.38-3.19,7.03-3.37,10.99,0,.2-.03.41-.05.61-.06.72-.17,1.44-.27,2.18-.05.32-.09.64-.13.96h0s0,0,0,0c-.89-.19-1.75-.31-2.57-.46-.81-.15-1.58-.33-2.29-.65-2.47-1.1-5.05-1.7-7.64-2.25-1.56-.33-3.12-.65-4.66-1.04-.95-.24-1.83-.27-2.69-.17-.17.02-.34.04-.51.07-1.01.18-1.97.51-2.94.85-.32.11-.64.23-.97.34s-.65.21-.98.31c-.29.08-.55.39-.75.65-.35.45-.58.97-.68,1.53s-.09,1.13.05,1.69c.16.67.48,1.3.95,1.82.15.17.3.34.45.51.6.68,1.19,1.38,1.78,2.08.44.52.88,1.05,1.33,1.57.67.77,1.28,1.65,2.06,2.26.07.06.14.11.22.16.44.3.88.6,1.31.9,3.07,2.11,6.16,4.19,9.32,6.14,1.74,1.07,3.88,2.26,6.13,3,1.59.41,3.28.46,5.12-.13-2.64-1.18-5.32-2.32-7.96-3.56-.25-.11-.49-.22-.71-.33-.65-.31-1.27-.7-1.88-1.1-.31-.2-.61-.4-.92-.59s-.62-.38-.94-.54c-4.75-2.46-8.74-5.85-12.25-9.8-.36-.41-.72-.82-1.08-1.24-.05-.05-.08-.12-.12-.17-.24-.34-.41-.73-.56-1.13-.03-.08-.06-.16-.09-.25-.35-.98-.07-1.81,1-2.03.65-.13,1.31-.31,1.98-.46.22-.05.44-.1.66-.14.44-.09.88-.16,1.31-.18.43-.03.86-.02,1.28.05.49.08.98.16,1.46.24,1.46.25,2.93.53,4.38.86.48.11.97.22,1.45.34.96.24,1.92.5,2.86.79.47.14.94.3,1.41.45,2.26.77,4.54,1.33,6.85,1.76.33.06.66.12.99.18,2.64.45,5.3.73,7.98.95,2.11.18,4.24.21,6.32.53.21.03.42.07.62.11,1.04.2,2.06.48,3.06.9.08.03.16.07.24.11.57.27,1.16.64,1.46,1.12.39.62.79,1.23,1.19,1.84.6.92,1.2,1.84,1.75,2.78.55.94,1.04,1.91,1.44,2.91,2.88,7.34,8.5,12.39,13.93,17.64.81.78,1.68,1.5,2.49,2.28.27.26.53.53.77.81,1.85,2.1,3.63,4.25,5.42,6.4.41.5.82.99,1.24,1.49.88,1.06,1.58,2.25,2.07,3.49,1.49,3.74,1.2,8.08-1.05,11.58-2.04,3.17-4.23,6.26-6.5,9.28-2.29,3.05-4.96,5.7-7.93,8.04-.99.78-2.01,1.52-3.07,2.23-.52.35-1.06.67-1.61.97-2.95,1.61-6.19,2.51-9.32,3.68-1.72.64-3.48,1.17-5.25,1.65-2.33.62-4.67.99-7.03,1.16-3.03.22-6.08.12-9.14-.2-4.62-.48-9.3-.75-13.83-1.7-3.24-.68-6.09-2.19-8.85-3.91-2.14-1.34-4.23-2.8-6.39-4.08-.1-.06-.11-.29-.2-.59h0c.14.05.27.09.41.14.82.28,1.61.55,2.37.81.64.22,1.26.43,1.89.65-.44-.3-.89-.57-1.34-.84-1.36-.8-2.76-1.49-4.12-2.23-.06-.03-.11-.06-.17-.1-.11-.08-.22-.17-.33-.27-.26-.26-.47-.57-.51-.86-.13-1.08-.26-2.17-.34-3.26-.06-.85-.09-1.7-.04-2.54.16-3.17.64-6.29,3.18-8.63.18-.17.35-.31.52-.44.08-.06.17-.13.25-.18.49-.34.95-.51,1.45-.55.58-.04,1.21.13,2,.48,1.08.48,1.96,1.15,2.69,1.94.63.68,1.15,1.45,1.61,2.27.15.28.3.56.43.85.07.14.14.29.2.43.17.38.34.76.51,1.14,1.88,4.17,3.7,8.37,5.6,12.54.2.43.44.82.72,1.17s.6.66.97.94c.18.14.37.27.58.39.61.37,1.3.68,2.08.94-.28-.52-.56-1.02-.83-1.5-.54-.97-1.05-1.87-1.52-2.78-.24-.45-.46-.9-.67-1.36-2.02-4.35-3.96-8.73-5.9-13.11-.04-.1-.08-.2-.1-.31-.07-.33-.07-.7,0-1.02.29-1.54.62-3.07.95-4.6.11-.51.22-1.02.33-1.53-.14-.04-.29-.07-.43-.11-.24.52-.49,1.04-.73,1.56-.44.94-.87,1.87-1.29,2.78-.04.09-.09.19-.13.28h0s0,0,0,0c-1.26-.95-2.43-1.71-3.45-2.64-.08-.07-.15-.16-.21-.26-.24-.38-.38-.94-.33-1.35.53-4.13,1.14-8.25,1.77-12.36.02-.14.05-.27.09-.41.06-.21.15-.41.24-.6s.21-.38.34-.54c.97-1.19,3.57-2.02,5.99-2.22.25-.02.51-.04.76-.04s.49,0,.73,0c1.07.04,2.02.23,2.65.6.21.12.42.26.58.44,1.88,2.02,4.14,3.81,5.54,6.13,1.2,1.99,2.36,4,3.48,6.04.38.68.75,1.36,1.12,2.04,1.47,2.73,2.89,5.49,4.26,8.26.76,1.53,1.76,2.8,2.84,3.99,1.08,1.19,2.25,2.31,3.32,3.52-.39-.72-.84-1.4-1.27-2.09-.43-.69-.84-1.39-1.14-2.13-2.1-5.25-4.56-10.31-7.34-15.23-.4-.7-.8-1.4-1.21-2.1-.03-.06-.06-.12-.08-.19-.06-.21-.06-.45-.04-.69,0-.11.02-.21.04-.31.27-1.8.58-3.59.88-5.39-.13-.03-.26-.05-.4-.08-.36.9-.72,1.8-1.25,3.11h0s0,0,0,0c-.15-.6-.28-1.14-.41-1.66-.11-.43-.21-.85-.32-1.29-.11-.43-.22-.87-.34-1.36-.09.75-.17,1.39-.24,2.01-.07.62-.14,1.2-.22,1.85h0s0,0,0,0c-2.13-2.12-4.06-4-5.92-5.94-.25-.26-.29-.9-.18-1.29.59-2.25,1.2-4.5,1.9-6.71.54-1.7,1.16-3.4,2.81-4.4.05-.03.1-.07.16-.1.09-.05.17-.09.27-.14.83-.4,1.93-.69,3.12-.81,2-.19,4.29.09,6.11,1.13.12.07.24.14.36.22.7.45,1.32,1.03,1.81,1.74.45.65.9,1.3,1.35,1.95,2.03,2.92,4.08,5.84,6,8.83.21.33.43.66.64,1,2.68,4.27,4.94,8.84,8.74,12.28.63.57,1.27,1.11,1.94,1.64,1.46,1.17,3.01,2.31,4.61,3.57-.85-1.05-1.69-2.06-2.53-3.06-1.84-2.2-3.61-4.31-5.16-6.58-3.72-5.44-7.09-11.11-10.71-16.62-2.07-3.15-4.13-6.37-7.48-7.53-.72-1.55-1.34-2.9-1.94-4.18-.2-.43-.39-.85-.59-1.28-.09.02-.17.03-.26.05-.02,0-.04,0-.06.01.11,1.26.21,2.51.31,3.64.2.09.41.18.6.26-.19.06-.37.11-.56.15l.04.42h0c-.72.06-1.41.11-2.07.16-.67.05-1.31.11-1.96.19-2.76.33-5.02,1.41-6.3,3.78-.18.34-.35.7-.49,1.1-.86,2.4-1.65,4.82-2.45,7.25-.2.61-.4,1.22-.61,1.82h0c-.54-.01-1.08-.05-1.64-.08-.74-.04-1.49-.08-2.22-.03-.18.01-.37.03-.55.05-3.3.42-5.37,1.33-6.66,2.92-.88,1.08-1.39,2.48-1.67,4.26-.12.77-.22,1.53-.32,2.3-.1.77-.2,1.54-.3,2.31-.15,1.14-.29,2.29-.44,3.44-.14,1.15-.29,2.31-.44,3.48h0c-.16,0-.32.01-.48.03-2.33.21-3.87,1.65-5.18,3.52-.45.64-.82,1.29-1.13,1.95-1.34,2.87-1.5,5.98-1.24,9.19.01.18.03.37.05.55.03.39.06.78.08,1.17.02.34.02.69,0,1.03-.02.37-.35.86-.68,1.04-1.34.74-2.04,1.28-2.25,2.09-.16.63-.03,1.42.32,2.59.31,1.03.62,2.06.92,3.1.43,1.45.88,2.89,1.4,4.3.3.81.61,1.6.97,2.38.37.83.56,1.62.64,2.41.01.13.02.26.03.39.06,1.17-.12,2.33-.29,3.55-.08.56-.12,1.13-.14,1.7-.01.34-.02.68-.02,1.03,0,.46.01.92.03,1.37.01.46.03.92.05,1.37.03.96.41,1.91.43,2.86.03,1.42.66,2.44,1.58,3.46.11.12.21.23.32.35,1.1,1.14,2.36,2.13,3.41,3.33.1.12.21.24.31.37.4.5.76,1.03,1.05,1.63.24.48.5.96.78,1.43.46.78.97,1.53,1.53,2.24,2.19,2.76,3.5,5.93,4.59,9.18.08.25.17.5.25.75.16.5.32,1,.48,1.5.21.66.38,1.34.53,2.02.07.34.14.69.21,1.03.29,1.55.5,3.13.78,4.69.03.17.06.35.09.52,0,.04.02.08.03.13.05.21.11.42.19.63.09.25.19.5.28.75.18.5.37,1,.56,1.5.28.75.56,1.5.83,2.25.13.34.25.69.38,1.04.04.12.08.23.13.35.12-.04.24-.07.36-.11.06-.02.12-.04.18-.06-.06-.38-.11-.76-.17-1.15-.11-.76-.21-1.53-.31-2.3s-.21-1.53-.32-2.29c-.06-.38-.12-.76-.18-1.14-.13-.76-.27-1.52-.44-2.27-1.18-5.3-2.27-10.65-4.93-15.44-1.21-2.18-2.74-4.25-4.75-6.14h0s0,0,0,0c1.46.52,2.9,1.02,4.33,1.53,2.14.75,4.26,1.5,6.39,2.25,2.13.75,4.28,1.51,6.49,2.29-1.06-.72-2.01-1.5-2.94-2.25-.93-.75-1.84-1.46-2.83-2.05-.16-.1-.33-.19-.5-.28-.51-.27-1.04-.51-1.6-.7-3.07-1.03-6.2-1.95-9.14-3.3-.54-.25-1.1-.5-1.64-.79-.14-.07-.27-.14-.41-.22-1-.56-1.94-1.25-2.62-2.15-.32-.42-.58-.89-.77-1.42-.32-.91-.6-1.84-.79-2.79-.31-1.51-.43-3.05-.23-4.6.07-.58.19-1.17.36-1.75.25-.87.4-1.72.44-2.58.03-.57,0-1.13-.07-1.7-.11-.85-.33-1.7-.67-2.55-.61-1.51-1.17-3.03-1.71-4.56-.54-1.53-1.06-3.07-1.57-4.62-.27-.82-.55-2.3-.2-2.53.14-.09.3-.16.46-.22.27-.1.57-.15.89-.19.51-.05,1.04-.04,1.54-.07.33-.01.72.28,1,.53.82.74,1.65,1.47,2.41,2.27.11.11.22.23.32.34,3.06,3.5,6.75,5.83,10.95,7.17,1.4.45,2.86.79,4.37,1.02,3.06.48,6.16.69,9.24,1.04,2.81.32,5.61.47,8.38.44,1.11-.01,2.21-.06,3.31-.14,3.3-.24,6.57-.78,9.8-1.69,1.08-.3,2.15-.65,3.22-1.04.53-.19,1.07-.4,1.6-.61.12-.05.24-.1.36-.15,3.27-1.31,6.58-2.44,9.58-4.31.44-.28.88-.57,1.31-.88.77-.56,1.51-1.14,2.23-1.73,1.45-1.2,2.81-2.47,4.11-3.79.65-.66,1.29-1.34,1.91-2.03,2.48-2.77,4.75-5.73,6.92-8.77,1.48-2.06,2.89-4.2,3.68-6.73.36-1.15.59-2.37.63-3.71h0s0,0,0,0c2.3,2.82,4.24,5.49,4.01,9.01-.16,2.49-.38,4.97-.6,7.46-.23,2.48-.48,4.97-.71,7.45-.09,1.01-.31,1.96-.62,2.87-.63,1.82-1.64,3.47-2.87,4.99-.12.15-.25.3-.37.45-1.04,1.23-2.09,2.46-3.13,3.68-3.15,3.67-6.33,7.32-9.53,10.95-.59.67-1.09,1.37-1.53,2.09-.11.18-.21.37-.31.55-.6,1.11-1.06,2.28-1.42,3.5-.24.81-.43,1.64-.6,2.49-.04.21-.08.42-.12.64.06-.06.11-.12.16-.17.19-.21.36-.44.52-.67.14-.21.27-.43.41-.64.25-.38.5-.77.75-1.16.49-.78.98-1.56,1.51-2.31.27-.37.54-.74.83-1.09,3.1-3.72,6.32-7.33,9.48-11,.45-.53.89-1.07,1.35-1.64s.93-1.18,1.45-1.83c.1.23.21.46.32.68.74,1.57,1.47,2.92,1.89,4.36.47,1.58.9,3.33.69,4.93-.25,1.92-.76,3.74-1.59,5.4-.83,1.67-1.97,3.18-3.46,4.49-.97.85-1.95,1.7-2.92,2.55-4.21,3.68-8.44,7.35-12.66,11.01-3,2.6-6.13,5.07-8.98,7.82-1.32,1.27-2.14,3.08-3.18,4.64.1.06.21.13.31.19.02.01.03.02.05.03.08-.07.16-.15.24-.23.57-.53,1.13-1.07,1.71-1.59.33-.3.66-.59,1.01-.86,2.4-1.89,4.93-3.6,7.26-5.57,1.1-.93,2.18-1.86,3.27-2.8,1.63-1.41,3.26-2.82,4.88-4.23,2.71-2.36,5.41-4.71,8.15-7.03.95-.8,1.84-1.64,2.67-2.52,1.03-1.1,1.96-2.27,2.75-3.52.32-.5.61-1.02.89-1.55.68-1.33,1.23-2.75,1.61-4.29.13-.53.23-1.06.3-1.57.29-2.23-.11-4.29-1.74-6.21-.92-1.08-1.7-2.28-2.49-3.48-.32-.49-.65-.99-.98-1.47,2.29-1.43,3.77-3.29,4.67-5.5.13-.32.25-.64.35-.97,1.53-4.72,2.3-9.6,2.52-14.56.08-1.9.23-3.85-.03-5.71ZM189.4,111.71c-.01.29-.04.58-.09.89-.03.19-.07.37-.1.56-.2,1.05-.47,2.09-.62,3.15-.1.72-.18,1.44-.23,2.15-.03.48-.05.95-.06,1.42-.01,2.58.51,5.06,2.24,7.28h0s0,0,0,0c-1.7-.15-3.37-.3-5.05-.46-1-.09-2.01-.18-3.01-.28-2.65-.26-5.29-.54-8.09-.83-.03-3.66.26-7.13,1.67-10.44.21-.5.43-1.01.65-1.5.97-2.15,2.12-4.18,4.3-5.47.42-.25.85-.45,1.28-.6.55-.2,1.12-.32,1.68-.37,1.01-.08,2.03.07,3.06.42,1.61.55,2.44,2.08,2.36,4.09Z"/>
            <path class="cls-35" d="M155.43,123.1c1.46.25,2.93.53,4.38.86-1.45-.33-2.92-.61-4.38-.86Z"/>
            <path class="cls-35" d="M169.62,124.7c-.81-.15-1.58-.33-2.29-.65-2.47-1.1-5.05-1.7-7.64-2.25,2.59.55,5.17,1.16,7.64,2.25.71.32,1.48.5,2.29.65Z"/>
            <path class="cls-35" d="M143.19,198.98h0c.14.05.27.09.41.14-.14-.05-.27-.09-.41-.14Z"/>
            <path class="cls-35" d="M209.77,231.4c.14-.21.27-.43.41-.64.25-.38.5-.77.75-1.16-.25.39-.49.78-.75,1.16-.14.21-.27.43-.41.64Z"/>
            <path class="cls-35" d="M230.29,192.58c-.23,2.48-.48,4.97-.71,7.45-.09,1.01-.31,1.96-.62,2.87.31-.91.53-1.87.62-2.87.23-2.48.48-4.97.71-7.45Z"/>
            <path class="cls-35" d="M163.7,139.36c-.31-.2-.61-.4-.92-.59.31.19.61.39.92.59Z"/>
            <path class="cls-35" d="M146.95,122.15c.33-.09.65-.2.98-.31-.32.11-.65.21-.98.31-.29.08-.55.39-.75.65-.36.45-.58.97-.68,1.53.1-.55.33-1.08.68-1.53.2-.26.46-.57.75-.65Z"/>
            <path class="cls-35" d="M144.94,181.22c.49-.34.95-.51,1.45-.55-.5.03-.96.21-1.45.55Z"/>
            <path class="cls-35" d="M152.14,134.26c.07.06.14.11.22.16.44.3.88.6,1.31.9-.44-.3-.88-.6-1.31-.9-.07-.05-.14-.11-.22-.16Z"/>
            <path class="cls-35" d="M222.59,212.03c-3.15,3.67-6.33,7.32-9.53,10.95-.59.67-1.09,1.37-1.53,2.09.44-.73.94-1.43,1.53-2.09,3.2-3.63,6.38-7.27,9.53-10.95Z"/>
            <path class="cls-35" d="M146.5,230.6c-1-.56-1.94-1.25-2.62-2.15.68.9,1.61,1.58,2.62,2.15Z"/>
            <path class="cls-35" d="M172.31,124.19c-.05.32-.09.64-.13.96h0c.04-.33.08-.65.13-.96Z"/>
            <path class="cls-35" d="M191.33,209.87c-3.23.91-6.5,1.45-9.8,1.69,3.3-.24,6.57-.78,9.8-1.69Z"/>
            <path class="cls-35" d="M206.09,203.76c-3,1.87-6.31,3-9.58,4.31,3.27-1.31,6.58-2.44,9.58-4.31Z"/>
            <path class="cls-35" d="M213.75,197.35c-1.3,1.33-2.67,2.6-4.11,3.79,1.45-1.2,2.81-2.47,4.11-3.79Z"/>
            <path class="cls-35" d="M138.91,208.86c-.52-1.41-.96-2.85-1.4-4.3.43,1.45.88,2.89,1.4,4.3Z"/>
            <path class="cls-35" d="M158.91,265.02h0c-.04-.12-.08-.23-.13-.35.04.12.08.23.13.35Z"/>
            <path class="cls-35" d="M165.56,240.2h0c-2.21-.78-4.36-1.54-6.49-2.29,2.13.75,4.28,1.51,6.49,2.29Z"/>
            <path class="cls-35" d="M197.97,256.01c-.58.52-1.14,1.06-1.71,1.59.57-.53,1.13-1.07,1.71-1.59Z"/>
            <path class="cls-35" d="M209.09,232.24c.06-.06.11-.12.16-.17-.05.06-.1.12-.16.17h0Z"/>
            <path class="cls-35" d="M214.39,242.54c-1.62,1.41-3.25,2.83-4.88,4.23,1.63-1.41,3.26-2.82,4.88-4.23Z"/>
            <path class="cls-35" d="M228.84,227.92c-.27.53-.57,1.05-.89,1.55.32-.5.61-1.02.89-1.55Z"/>
            <path class="cls-35" d="M157.46,159.54c.74-.05,1.49-.01,2.22.03-.74-.04-1.49-.08-2.22-.03Z"/>
            <path class="cls-35" d="M207.83,245.15c4.23-3.66,8.45-7.33,12.66-11.01-4.21,3.68-8.44,7.35-12.66,11.01Z"/>
            <path class="cls-35" d="M196.02,257.82h0s-.03-.02-.05-.03c.02.01.03.02.05.03Z"/>
            <path class="cls-35" d="M198.84,252.97c2.86-2.75,5.98-5.22,8.98-7.82-3,2.6-6.13,5.07-8.98,7.82Z"/>
            <path class="cls-35" d="M159.79,235.9c.99.59,1.9,1.31,2.83,2.05-.93-.75-1.84-1.46-2.83-2.05Z"/>
            <path class="cls-35" d="M191.45,125.31c.51,1.36,1.12,2.51,2.32,3.55.28.24.56.5.83.77-.27-.27-.55-.52-.83-.77-1.2-1.04-1.81-2.19-2.32-3.55-.71-1.91-1.15-3.86-1.1-5.86-.04,2.01.39,3.95,1.1,5.86Z"/>
            <path class="cls-35" d="M227.77,216.77c-.43-1.44-1.16-2.79-1.89-4.36.74,1.57,1.47,2.92,1.89,4.36.47,1.58.9,3.33.69,4.93-.25,1.92-.76,3.74-1.59,5.4.83-1.67,1.34-3.49,1.59-5.4.21-1.59-.22-3.35-.69-4.93Z"/>
            <path class="cls-35" d="M224.49,169.39c-.05-.09-.1-.17-.16-.26-.3-.44-.61-.88-.92-1.33.31.44.61.88.92,1.33.06.08.1.17.16.26Z"/>
            <path class="cls-35" d="M176,110.41c.47-.84,1.09-1.66,1.84-2.39-.74.73-1.37,1.54-1.84,2.39-1.87,3.38-3.19,7.03-3.37,10.99,0,.2-.03.41-.05.61.02-.2.04-.41.05-.61.18-3.96,1.5-7.61,3.37-10.99Z"/>
            <path class="cls-35" d="M148.75,130.43c-.59-.7-1.18-1.4-1.78-2.08.6.68,1.19,1.38,1.78,2.08Z"/>
            <path class="cls-35" d="M213.28,226.19c-.29.35-.57.72-.83,1.09.27-.37.54-.74.83-1.09,3.1-3.72,6.32-7.33,9.48-11,.45-.53.89-1.07,1.35-1.64-.46.57-.89,1.11-1.35,1.64-3.16,3.67-6.38,7.28-9.48,11Z"/>
            <path class="cls-35" d="M191.37,112.34c-.08.72-.2,1.43-.32,2.14.12-.71.24-1.43.32-2.14.42-3.66-1.2-5.93-4.72-6.94-.96-.27-1.92-.35-2.85-.27.93-.08,1.89,0,2.85.27,3.51,1.01,5.13,3.28,4.72,6.94Z"/>
            <path class="cls-35" d="M226.31,173.94c-.04-.09-.08-.18-.12-.27-.08-.19-.16-.38-.23-.57.07.19.15.38.23.57.04.09.08.18.12.27Z"/>
            <path class="cls-35" d="M233.05,184.15c-.02-.12-.03-.25-.05-.37-.08-.44-.18-.85-.31-1.25.13.4.24.82.31,1.25.02.12.03.25.05.37Z"/>
            <path class="cls-35" d="M225.54,210.88c.34.49.66.98.98,1.47-.32-.49-.65-.99-.98-1.47,2.29-1.43,3.77-3.29,4.67-5.5-.9,2.21-2.38,4.07-4.67,5.5Z"/>
            <path class="cls-35" d="M216.58,158.82c1.4,1.63,2.73,3.32,4.01,5.05-1.28-1.73-2.61-3.42-4.01-5.05Z"/>
            <path class="cls-35" d="M228.84,227.92c.69-1.33,1.23-2.75,1.61-4.29.13-.53.23-1.06.3-1.57-.07.51-.17,1.04-.3,1.57-.38,1.54-.93,2.96-1.61,4.29Z"/>
            <path class="cls-35" d="M227.42,175.66c2,1.88,4.04,3.76,5.06,6.27-1.02-2.51-3.06-4.39-5.06-6.27Z"/>
            <path class="cls-35" d="M226.71,174.74c.2.34.43.66.71.92-.28-.26-.51-.58-.71-.92Z"/>
            <path class="cls-35" d="M151.38,123c.44-.09.88-.16,1.31-.18-.43.03-.87.1-1.31.18Z"/>
            <path class="cls-35" d="M147.09,178.3c-.16,0-.32.01-.48.03.16-.01.31-.02.48-.03h0Z"/>
            <path class="cls-35" d="M161.93,157.83c-.2.61-.4,1.22-.61,1.82h0c.2-.61.4-1.22.61-1.82Z"/>
            <path class="cls-35" d="M226.26,179.81c.36-1.15.59-2.37.63-3.71h0c-.04,1.33-.27,2.56-.63,3.71Z"/>
            <path class="cls-35" d="M175.21,145.35c-.72.06-1.41.11-2.07.16.67-.05,1.35-.1,2.07-.16h0Z"/>
            <path class="cls-35" d="M145.28,202.03c-.1-.12-.21-.23-.32-.34.11.11.22.23.32.34,3.06,3.5,6.75,5.83,10.95,7.17-4.2-1.34-7.89-3.67-10.95-7.17Z"/>
            <path class="cls-35" d="M150.25,162.51c-.88,1.08-1.39,2.48-1.67,4.26-.12.77-.22,1.53-.32,2.3.1-.77.21-1.54.32-2.3.27-1.78.79-3.18,1.67-4.26Z"/>
            <path class="cls-35" d="M160.6,210.23c-1.51-.24-2.97-.57-4.37-1.02,1.4.45,2.86.79,4.37,1.02,3.06.48,6.16.69,9.24,1.04,2.81.32,5.61.47,8.38.44-2.77.04-5.56-.12-8.38-.44-3.08-.35-6.18-.56-9.24-1.04Z"/>
            <path class="cls-35" d="M223.36,170.86c-.5-1.25-1.19-2.43-2.07-3.49-.41-.5-.82-.99-1.24-1.49.41.5.82.99,1.24,1.49.88,1.06,1.58,2.25,2.07,3.49Z"/>
            <path class="cls-35" d="M193.07,131.2c.39.62.79,1.23,1.19,1.84-.4-.61-.8-1.22-1.19-1.84-.3-.48-.89-.86-1.46-1.12.57.27,1.16.64,1.46,1.12Z"/>
            <path class="cls-35" d="M211.37,156.38c.81.78,1.68,1.5,2.49,2.28-.8-.78-1.68-1.5-2.49-2.28-5.43-5.26-11.05-10.31-13.93-17.64-.39-1-.89-1.97-1.44-2.91.55.94,1.04,1.91,1.44,2.91,2.88,7.34,8.5,12.39,13.93,17.64Z"/>
            <path class="cls-35" d="M148.39,127.01c.04.06.08.12.12.17.35.42.71.83,1.08,1.24-.36-.41-.72-.82-1.08-1.24-.05-.05-.08-.12-.12-.17Z"/>
            <path class="cls-35" d="M191.6,130.08c-.08-.04-.16-.07-.24-.11-1-.42-2.02-.7-3.06-.9,1.04.2,2.06.48,3.06.9.08.03.16.07.24.11Z"/>
            <path class="cls-35" d="M172.38,127.31c-2.3-.43-4.59-.99-6.85-1.76-.47-.16-.94-.31-1.41-.45.47.14.94.3,1.41.45,2.26.77,4.54,1.33,6.85,1.76Z"/>
            <path class="cls-35" d="M148.74,123.6c.65-.13,1.31-.31,1.98-.46-.66.15-1.33.33-1.98.46-1.06.22-1.34,1.05-1,2.03.03.08.06.16.09.25-.03-.08-.06-.16-.09-.25-.35-.98-.07-1.81,1-2.03Z"/>
            <path class="cls-35" d="M166.3,140.78c2.64,1.23,5.31,2.38,7.96,3.56-1.85.59-3.53.54-5.12.13,1.99.65,4.07.94,6.04.47l-.04-.42c-2.62-1.14-6.2-2.53-8.84-3.73Z"/>
            <path class="cls-35" d="M156.73,259.16c.09.25.19.5.28.75.18.5.37,1,.56,1.5-.19-.5-.37-1-.56-1.5-.09-.25-.19-.5-.28-.75Z"/>
            <path class="cls-35" d="M156.41,257.88c.03.17.06.35.09.52,0,.04.02.08.03.13,0-.04-.02-.08-.03-.13-.03-.17-.06-.35-.09-.52Z"/>
            <path class="cls-35" d="M142.33,224.25c-.31-1.51-.43-3.05-.23-4.6-.2,1.55-.08,3.09.23,4.6Z"/>
            <path class="cls-35" d="M159.26,264.91c.06-.02.12-.04.18-.06-.06-.38-.11-.76-.17-1.15.05.38.11.76.17,1.15-.06.02-.12.04-.18.06Z"/>
            <path class="cls-35" d="M148.35,234.13c1.46.52,2.9,1.02,4.33,1.53-1.43-.5-2.87-1.01-4.33-1.53h0Z"/>
            <path class="cls-35" d="M158.46,257.98c-.13-.76-.27-1.52-.44-2.27-1.18-5.3-2.27-10.65-4.93-15.44,2.66,4.8,3.75,10.15,4.93,15.44.17.75.31,1.51.44,2.27Z"/>
            <path class="cls-35" d="M154.41,248.63c.16.5.32,1,.48,1.5.21.66.38,1.34.53,2.02-.15-.68-.32-1.36-.53-2.02-.16-.5-.32-1-.48-1.5Z"/>
            <path class="cls-35" d="M140.55,214.03c.06,1.17-.12,2.33-.29,3.55-.08.56-.12,1.13-.14,1.7.02-.57.06-1.14.14-1.7.17-1.22.35-2.38.29-3.55Z"/>
            <path class="cls-35" d="M142.82,213.62c-.11-.85-.33-1.7-.67-2.55-.61-1.51-1.17-3.03-1.71-4.56.54,1.53,1.11,3.06,1.71,4.56.34.86.57,1.71.67,2.55Z"/>
            <path class="cls-35" d="M138.52,196.79c.33-.18.66-.68.68-1.04.02-.34.01-.69,0-1.03.02.34.02.69,0,1.03-.02.37-.35.86-.68,1.04-1.34.74-2.04,1.28-2.25,2.09.21-.81.91-1.35,2.25-2.09Z"/>
            <path class="cls-35" d="M151.09,183.09c.63.68,1.15,1.45,1.61,2.27-.46-.83-.98-1.6-1.61-2.27Z"/>
            <path class="cls-35" d="M140.6,225.91c-.02-.96-.4-1.9-.43-2.86-.01-.46-.03-.91-.05-1.37.01.46.03.92.05,1.37.03.96.41,1.91.43,2.86.03,1.42.66,2.44,1.58,3.46-.91-1.02-1.55-2.04-1.58-3.46Z"/>
            <path class="cls-35" d="M146.22,233.41c.4.5.76,1.03,1.05,1.63.24.48.5.96.78,1.43-.28-.47-.54-.94-.78-1.43-.29-.6-.65-1.13-1.05-1.63Z"/>
            <path class="cls-35" d="M140.3,183.8c-1.34,2.87-1.5,5.98-1.24,9.19.01.18.03.37.05.55-.02-.18-.03-.37-.05-.55-.26-3.21-.1-6.32,1.24-9.19Z"/>
            <path class="cls-35" d="M139.13,199.14c.27-.1.57-.15.89-.19-.32.03-.62.09-.89.19Z"/>
            <path class="cls-35" d="M168.88,148.52c-.09.04-.18.09-.27.14-.06.03-.11.06-.16.1.05-.03.1-.07.16-.1.09-.05.17-.09.27-.14Z"/>
            <path class="cls-35" d="M222.31,182.44c-2.04,3.17-4.23,6.26-6.5,9.28-2.29,3.05-4.96,5.7-7.93,8.04,2.97-2.34,5.64-4.99,7.93-8.04,2.26-3.02,4.46-6.11,6.5-9.28,2.25-3.49,2.54-7.83,1.05-11.58,1.49,3.74,1.2,8.08-1.05,11.58Z"/>
            <path class="cls-35" d="M203.56,180.07c-1.6-1.26-3.15-2.39-4.61-3.57,1.46,1.17,3.01,2.31,4.61,3.57,0,0,0,0,0,0Z"/>
            <path class="cls-35" d="M173.43,173.2c2.78,4.91,5.24,9.97,7.34,15.23.3.74.71,1.44,1.14,2.13-.43-.69-.84-1.39-1.14-2.13-2.1-5.25-4.56-10.31-7.34-15.23Z"/>
            <path class="cls-35" d="M177.68,146.27c-.72-1.55-1.34-2.9-1.94-4.18.6,1.29,1.22,2.63,1.94,4.18,3.35,1.16,5.42,4.38,7.48,7.53,3.62,5.51,6.99,11.18,10.71,16.62-3.72-5.44-7.09-11.11-10.71-16.62-2.07-3.15-4.13-6.37-7.48-7.53Z"/>
            <path class="cls-35" d="M172.11,170.22c-.02.24-.02.49.04.69-.06-.21-.06-.45-.04-.69Z"/>
            <path class="cls-35" d="M170.31,163.26c.12.48.23.92.34,1.36-.11-.43-.22-.87-.34-1.36h0Z"/>
            <path class="cls-35" d="M174.89,140.86c.09-.02.17-.03.26-.05h0c-.09.02-.17.03-.26.05Z"/>
            <path class="cls-35" d="M171.38,167.55h0c-.15-.6-.28-1.14-.41-1.66.13.52.26,1.06.41,1.66Z"/>
            <path class="cls-35" d="M183.19,192.64c-1.07-1.21-2.23-2.32-3.32-3.52,1.08,1.19,2.25,2.31,3.32,3.52,0,0,0,0,0,0Z"/>
            <path class="cls-35" d="M169.85,167.11c.08-.64.15-1.23.22-1.85-.07.62-.14,1.2-.22,1.85h0Z"/>
            <path class="cls-35" d="M153.47,182.06c.04-.09.09-.19.13-.28-.04.09-.09.19-.13.28h0Z"/>
            <path class="cls-35" d="M172,147.72c2-.19,4.29.09,6.11,1.13-1.82-1.03-4.11-1.32-6.11-1.13Z"/>
            <path class="cls-35" d="M201.03,177.01c-1.84-2.2-3.61-4.31-5.16-6.58,1.55,2.27,3.33,4.39,5.16,6.58Z"/>
            <path class="cls-35" d="M181.63,152.75c2.03,2.92,4.08,5.84,6,8.83-1.92-2.99-3.97-5.91-6-8.83Z"/>
            <path class="cls-35" d="M154.77,183.68c.29-1.54.62-3.07.95-4.6-.33,1.53-.66,3.06-.95,4.6-.06.32-.07.69,0,1.02-.07-.33-.07-.7,0-1.02Z"/>
            <path class="cls-35" d="M141.04,193.02c.08,1.09.21,2.18.34,3.26.03.28.24.6.51.86-.26-.26-.47-.57-.51-.86-.13-1.08-.26-2.17-.34-3.26Z"/>
            <path class="cls-35" d="M160.17,201.49c-.28-.35-.52-.74-.72-1.17-1.9-4.16-3.72-8.36-5.6-12.54,1.88,4.17,3.7,8.37,5.6,12.54.2.43.44.82.72,1.17Z"/>
            <path class="cls-35" d="M142.22,197.41c.06.04.11.07.17.1,1.37.74,2.76,1.43,4.12,2.23-1.36-.8-2.76-1.49-4.12-2.23-.06-.03-.11-.06-.17-.1Z"/>
            <path class="cls-35" d="M158.63,207.56c-3.24-.68-6.09-2.19-8.85-3.91,2.76,1.72,5.61,3.23,8.85,3.91,4.53.95,9.2,1.22,13.83,1.7,3.06.31,6.11.42,9.14.2-3.03.22-6.08.12-9.14-.2-4.62-.48-9.3-.75-13.83-1.7Z"/>
            <path class="cls-35" d="M147.85,200.59c-.62-.21-1.25-.43-1.89-.65.64.22,1.26.43,1.89.65h0Z"/>
            <path class="cls-35" d="M188.63,208.29c-2.33.62-4.67.99-7.03,1.16,2.36-.17,4.71-.54,7.03-1.16,1.77-.47,3.54-1,5.25-1.65,3.13-1.17,6.37-2.07,9.32-3.68-2.95,1.61-6.19,2.51-9.32,3.68-1.72.64-3.48,1.17-5.25,1.65Z"/>
            <path class="cls-35" d="M163.8,203.77c-.78-.27-1.48-.57-2.08-.94.61.37,1.3.68,2.08.94h0Z"/>
            <path class="cls-35" d="M162.97,202.27c-.54-.97-1.05-1.87-1.52-2.78.47.9.98,1.81,1.52,2.78Z"/>
            <path class="cls-35" d="M154.89,179c.24-.52.48-1.04.73-1.56h0c-.24.52-.49,1.04-.73,1.56Z"/>
            <path class="cls-35" d="M149.48,177.8c.53-4.13,1.14-8.25,1.77-12.36.02-.14.05-.27.09-.41-.04.14-.07.28-.09.41-.63,4.11-1.23,8.23-1.77,12.36-.05.41.08.97.33,1.35-.24-.38-.38-.94-.33-1.35Z"/>
            <path class="cls-35" d="M157.91,161.67c-2.42.2-5.02,1.04-5.99,2.22-.13.16-.24.34-.34.54.1-.19.21-.38.34-.54.97-1.19,3.57-2.02,5.99-2.22Z"/>
            <path class="cls-35" d="M175.73,144.78c-.19-.09-.39-.17-.6-.26l.04.42c.19-.05.38-.09.56-.15Z"/>
            <path class="cls-35" d="M146.64,102.28c4.21,1.09,8.45,2.1,12.55,3.53,2.86,1,2.89,1.35,4.25-1.25,1.47-2.83,3.13-5.68,3.89-8.73,1.05-4.22,1.88-8.58,1.2-13.03-.6-3.97-2.68-6.87-6.18-8.75-1.64-.88-3.48-.77-5.08-.02-5.7,2.69-9.15,9.61-5.12,16.12.06.1.06.25.13.63-.75-.51-1.34-.88-1.91-1.3-2.19-1.61-4.64-1.85-7.19-1.31-.73.15-1.55.48-2.06,1-2.39,2.44-2.48,6.93-.37,9.64,1.52,1.95,3.57,2.85,5.89,3.45ZM141.26,92.32c.92-2.39,2.3-3.23,4.9-2.63,2.16.5,4.25,1.27,6.37,1.92.25.08.5.17.63.21-.46-2.43-1.12-4.81-1.34-7.24-.39-4.16,4.04-9.2,8.07-9.31.89-.02,1.97.27,2.67.8,3.08,2.34,4.76,5.5,4.56,9.41-.31,6.36-1.73,12.45-4.92,18.05-.6,1.05-1.01,1.23-2.22.71-2.2-.96-4.55-1.61-6.88-2.27-2.6-.73-5.28-1.22-7.87-2.01-3.5-1.08-5.2-4.5-3.98-7.66Z"/>
            <path class="cls-35" d="M228.75,232.64c-.02-.09-.22-.12-.4-.22.27,3.21.37,6.38.85,9.47.57,3.65.86,7.32-.27,10.81-1.79,5.52-3.84,10.97-6.01,16.35-1.22,3.05-2.19,6.11-2.44,9.38-.07.97.14,1.96.23,2.94.1,0,.2,0,.3.01.09-.31.2-.61.27-.92.67-3.16,1.26-6.35,2.02-9.49.29-1.21.6-2.76,1.46-3.41,1.97-1.48,2.64-3.63,3.34-5.66,1.26-3.64,2.35-7.38,3.04-11.17.51-2.77.67-5.73.27-8.49-.48-3.26-1.72-6.42-2.65-9.61Z"/>
            <path class="cls-35" d="M138.99,113.11c.23,1.32.91,1.99,2.31,1.57,1.61-.49,3.22-1.02,4.83-1.53,3.22-1.01,6.41-2.39,9.95-.83-1.02-1.87-1.83-3.92-4.24-4.32-2.29-.38-4.58-.87-6.89-.95-1.75-.06-3.54.37-5.28.73-1.09.23-1.57,1-1.27,2.19.26,1.03.4,2.09.59,3.14ZM152.71,110.16c-4.37-.62-7.91,1.88-11.94,3.22-.29-1.36-.54-2.52-.83-3.87,4.44-1.3,8.62-.92,12.77.66Z"/>
            <path class="cls-35" d="M184.7,96.33c.92-.44,2.16-1.27,1.36-2.05-1.46-1.43-3.42-2.36-5.19-3.45-.13-.08-.44.13-.67.21-2.71.97-4.41,3.2-6.41,5.08-2.24,2.11-3,4.85-3.39,8.08,1.43-1.08,2.5-2.12,3.76-2.77,3.47-1.79,7.01-3.42,10.53-5.09ZM173.96,98.53c1.5-2.23,3.35-4.11,5.7-5.47.85-.49,1.55-.53,2.33.17.62.55,1.39.93,2.08,1.38-3.57,1.63-6.97,3.18-10.41,4.75.07-.2.11-.56.3-.84Z"/>
            <path class="cls-29" d="M187.05,107.62c-1.03-.35-2.05-.5-3.06-.42-.57.05-1.13.17-1.68.37-.43.15-.86.35-1.28.6-2.18,1.3-3.33,3.32-4.3,5.47-.22.5-.44,1-.65,1.5-1.41,3.31-1.7,6.79-1.67,10.44,2.8.29,5.44.58,8.09.83,1,.1,2.01.19,3.01.28,1.67.15,3.35.3,5.05.46-1.73-2.22-2.25-4.7-2.24-7.28,0-.47.02-.94.06-1.42.05-.71.13-1.43.23-2.15.14-1.06.41-2.1.62-3.15.04-.19.07-.37.1-.56.05-.3.08-.6.09-.89.08-2-.75-3.54-2.36-4.09Z"/>
            <path class="cls-29" d="M187.05,107.62c-1.03-.35-2.05-.5-3.06-.42,1.01-.08,2.03.07,3.06.42,1.61.55,2.44,2.08,2.36,4.09.08-2-.75-3.54-2.36-4.09Z"/>
            <path class="cls-29" d="M190.55,127.16h0c-1.7-.15-3.37-.3-5.05-.46,1.67.15,3.35.3,5.05.46Z"/>
            <path class="cls-29" d="M181.02,108.17c.42-.25.85-.45,1.28-.6-.43.15-.86.35-1.28.6-2.18,1.3-3.33,3.32-4.3,5.47.97-2.15,2.12-4.18,4.3-5.47Z"/>
            <path class="cls-29" d="M188.37,118.46c.05-.71.13-1.43.23-2.15.14-1.06.41-2.1.62-3.15-.2,1.05-.47,2.09-.62,3.15-.1.72-.18,1.44-.23,2.15Z"/>
            <path class="cls-29" d="M145.23,99.98c2.58.79,5.26,1.28,7.87,2.01,2.32.65,4.67,1.31,6.88,2.27,1.21.53,1.62.34,2.22-.71,3.19-5.6,4.61-11.69,4.92-18.05.19-3.91-1.48-7.07-4.56-9.41-.7-.53-1.78-.83-2.67-.8-4.03.11-8.46,5.15-8.07,9.31.22,2.42.88,4.81,1.34,7.24-.13-.04-.38-.13-.63-.21-2.12-.65-4.21-1.43-6.37-1.92-2.6-.6-3.98.24-4.9,2.63-1.22,3.16.48,6.58,3.98,7.66Z"/>
            <path class="cls-29" d="M152.71,110.16c-4.15-1.57-8.33-1.96-12.77-.66.29,1.35.53,2.51.83,3.87,4.03-1.34,7.57-3.84,11.94-3.22Z"/>
            <path class="cls-29" d="M181.99,93.23c-.78-.7-1.49-.66-2.33-.17-2.35,1.36-4.2,3.23-5.7,5.47-.18.27-.23.64-.3.84,3.44-1.57,6.85-3.12,10.41-4.75-.69-.45-1.47-.83-2.08-1.38Z"/>
          </g>
          <g class="cls-65">
            <polygon class="cls-29" points="71.87 33.31 66.81 35.94 68.85 29.81 64.06 32.1 66.2 26.37 61.3 27.76 63.1 22 43.52 46.15 42.25 50.23 47.15 48.84 45.01 54.57 49.8 52.28 47.76 58.41 52.82 55.78 50.75 61.44 70.49 37.1 71.87 33.31"/>
          </g>
          <g class="cls-65">
            <polygon class="cls-29" points="277.75 43.4 275.11 36.62 279.89 39.19 277.54 32.76 282.05 35.48 280.34 28.87 284.81 31.12 264.37 5.35 261.2 3.76 262.91 10.36 258.4 7.64 260.75 14.07 255.97 11.5 258.61 18.29 254.16 15.67 274.78 41.65 277.75 43.4"/>
          </g>
          <g class="cls-65">
            <polygon class="cls-29" points="276.76 295.84 281.82 293.21 279.78 299.34 284.57 297.04 282.43 302.78 287.33 301.39 285.53 307.14 305.11 283 306.38 278.92 301.48 280.31 303.62 274.57 298.83 276.87 300.87 270.74 295.81 273.37 297.88 267.7 278.14 292.05 276.76 295.84"/>
          </g>
          <g class="cls-65">
            <polygon class="cls-29" points="64.93 289.42 69.6 295 64.25 294.1 68.54 299.44 63.4 298.31 67.13 304.02 62.17 303.32 89.8 321.17 93.32 321.66 89.58 315.96 94.72 317.09 90.43 311.75 95.79 312.65 91.11 307.07 96.16 308.13 68.3 290.13 64.93 289.42"/>
          </g>
        </g>
        <g>
          <g>
            <g>
              <path class="cls-22" d="M769.02,1030.48c-3.99-17.68-12.03-28.08-19.92-34.18-15.97,6.64-42.29,6.29-46.55,19.91,0,0-1.24,2.49-2.45,6.05,15.56,4.85,41.08,10.67,68.91,8.22Z"/>
              <path class="cls-4" d="M769.02,1030.48c3.75-.33,7.54-.81,11.36-1.46,49.91-8.54,82.75-17.73,100.48-17.73,9.86,0,27.65-1.02,42.06-1.92-1.14-12.25-2.18-26.5-1.67-33.55.99-13.79,8.87-23.64,4.93-26.6-3.94-2.96-24.63-7.88-38.42-.99-13.79,6.9-20.69,14.78-39.4,13.79,0,0-78.81,19.7-92.6,30.54-1.87,1.47-4.14,2.68-6.65,3.73,7.88,6.1,15.93,16.5,19.92,34.18Z"/>
              <path class="cls-22" d="M880.86,1011.29c-17.73,0-50.57,9.19-100.48,17.73-3.82.65-7.61,1.13-11.36,1.46,1.47,6.52,2.39,14.03,2.54,22.68,36.03-5.82,81.11-21.18,113.24-21.18,35.46,0,40.39-.99,40.39-.99,0,0-1.18-9.9-2.27-21.62-14.41.9-32.2,1.92-42.06,1.92Z"/>
              <path class="cls-22" d="M700.11,1022.26c-2.19,6.46-4.26,16.45,1.46,21.54,0,0,21.67,14.78,59.11,10.84,3.51-.37,7.15-.87,10.88-1.47-.15-8.65-1.07-16.16-2.54-22.68-27.83,2.45-53.35-3.37-68.91-8.22Z"/>
            </g>
            <path class="cls-7" d="M767.58,1001.44s43.34-27.25,67.64-28.9c24.3-1.64,27.25-2.63,29.88-3.61s7.55-9.52,7.55-9.52c0,0,6.57-7.22,23.97-2.3,17.4,4.93,28.24-8.54,28.24-8.54"/>
            <ellipse class="cls-7" cx="788.14" cy="1001.89" rx="3.82" ry="4.56"/>
            <ellipse class="cls-7" cx="805.71" cy="993.85" rx="3.82" ry="4.56"/>
            <ellipse class="cls-7" cx="822.62" cy="987.28" rx="4.56" ry="3.82" transform="translate(-272.68 1659.39) rotate(-81.73)"/>
            <ellipse class="cls-7" cx="843.63" cy="982.19" rx="4.56" ry="3.82" transform="translate(-249.65 1675.83) rotate(-81.73)"/>
            <path class="cls-18" d="M846.38,979.93s-12.64-14.94-21.84-14.12c-9.19.82-9.36.99-8.21,2.13s21.67,9.03,24.63,13.96c2.96,4.93,5.42-1.97,5.42-1.97Z"/>
            <path class="cls-18" d="M827.34,986.01s-12.64-14.94-21.84-14.12c-9.19.82-9.36.99-8.21,2.13s21.67,9.03,24.63,13.96c2.96,4.93,5.42-1.97,5.42-1.97Z"/>
            <path class="cls-18" d="M809.61,992.08s-12.64-14.94-21.84-14.12c-9.19.82-9.36.99-8.21,2.13s21.67,9.03,24.63,13.96,5.42-1.97,5.42-1.97Z"/>
            <path class="cls-18" d="M793.19,1000.95s-12.64-14.94-21.84-14.12c-9.19.82-9.36.99-8.21,2.13,1.15,1.15,21.67,9.03,24.63,13.96s5.42-1.97,5.42-1.97Z"/>
            <path class="cls-4" d="M832.26,966.47s.82-18.72,7.06-19.05c6.24-.33,13.46-5.58,20.69-.66,7.22,4.93,9.52,5.58,9.85,7.06s-.66,12.97-5.42,13.63l-26.43,2.79-6.57-3.61"/>
            <ellipse class="cls-22" cx="897.61" cy="986.75" rx="10.59" ry="15.02"/>
            <g>
              <path class="cls-27" d="M857.22,969.82s5.91,24.52,5.69,26.77c-.22,2.25-5.47,9.81.22,11.03,5.69,1.23,7.66,1.02,7.88-1.02.22-2.04-3.5-36.78-6.34-37.39-2.84-.61-5.47-3.27-7.44.61Z"/>
              <path class="cls-27" d="M865.31,1008.65l.22,15.33s3.28,1.43,3.5.2,0-15.53,0-15.53h-3.72Z"/>
            </g>
          </g>
          <g>
            <path class="cls-26" d="M841.65,1012.91s27.57-7.66,35.61-13.4c8.04-5.74,31.01-21.06,39.05-19.53,8.04,1.53,37.9-15.31,49.77-9.57,11.87,5.74,17.99,8.42,19.14,13.78,1.15,5.36,3.06,21.82-2.3,26.42-5.36,4.59-35.61,16.46-35.61,16.46,0,0-67.77,7.66-76.57,8.42s-23.74.77-23.74.77l-5.36-23.35Z"/>
            <path class="cls-20" d="M942.38,989.14s.42-.94.95-2.43c1.83-5.14,4.94-16.81-3.67-18.59-11.1-2.3-32.93-4.21-34.46,0-1.53,4.21-4.21,13.02-5.36,15.31s-3.06,9.95-10.72,14.55-36.75,4.59-35.99,14.55,7.27,17.61,18.76,13.78c11.49-3.83,49.01-17.99,55.13-21.82"/>
            <g>
              <path class="cls-11" d="M792.37,1047.52l2.43,18.65s39.73,12.97,90.01,5.68c50.28-7.3,105.01-29.46,105.01-29.46l2.03-19.2-199.48,24.33Z"/>
              <path class="cls-24" d="M850.03,1036.85s32.34-24.2,60.73-26.63c28.38-2.43,17.03-14.6,31.63-21.08,14.6-6.49,11.35-10.54,25.14-10.54s25.14,4.87,22.71,14.6,0,33.25,0,33.25c0,0-120.32,32.97-141.4,27.29-21.08-5.68-10.15-12.01,1.21-16.88Z"/>
              <path class="cls-11" d="M791.55,1050.77s2.62-33.64,51.62-39c0,0,41.08,25.42,32.16,43.26,0,0-31.08,8.72-83.79-4.26Z"/>
            </g>
            <g>
              <ellipse class="cls-6" cx="907.8" cy="1011.17" rx="4.58" ry="5.13" transform="translate(-358.7 1503.65) rotate(-69.33)"/>
              <path class="cls-21" d="M910.74,1008.49s-20.48-13.22-32.18-11.03c-11.7,2.19-11.86,2.38-10.06,3.37,1.8.99,30.57,5.91,35.75,10.45s6.49-2.79,6.49-2.79Z"/>
            </g>
            <g>
              <ellipse class="cls-6" cx="878.32" cy="1020.74" rx="4.58" ry="5.13" transform="translate(-386.74 1482.26) rotate(-69.33)"/>
              <path class="cls-21" d="M881.26,1018.06s-20.48-13.22-32.18-11.03c-11.7,2.19-11.86,2.38-10.06,3.37s30.57,5.91,35.75,10.45,6.49-2.79,6.49-2.79Z"/>
            </g>
            <g>
              <ellipse class="cls-6" cx="892.24" cy="1017.48" rx="4.58" ry="5.13" transform="translate(-373.45 1496.43) rotate(-69.48)"/>
              <path class="cls-21" d="M895.18,1014.79s-20.51-13.17-32.21-10.95c-11.69,2.22-11.86,2.41-10.05,3.39,1.81.99,30.59,5.84,35.78,10.36,5.19,4.52,6.48-2.81,6.48-2.81Z"/>
            </g>
            <g>
              <ellipse class="cls-6" cx="922.12" cy="1003.1" rx="4.58" ry="5.13" transform="translate(-354.13 1480.29) rotate(-67.91)"/>
              <path class="cls-21" d="M925.13,1000.49s-20.17-13.69-31.92-11.78c-11.74,1.91-11.92,2.1-10.13,3.13s30.43,6.63,35.5,11.29,6.55-2.64,6.55-2.64Z"/>
            </g>
            <path class="cls-21" d="M941.57,993.39s3.83,50.54-.77,52.45c-4.59,1.91-4.98-50.92-4.98-50.92,0,0,7.27-4.98,7.27-1.15"/>
          </g>
        </g>
        <g>
          <path class="cls-9" d="M1333.07,472.04s-221.64,15.83-307.84,8.8c-86.19-7.04-178.88,23.35-159.8,50.38s92.96,30.54,114.06,71c21.11,40.46-14.07,79.16,38.7,86.19,52.77,7.04,56.29,218.12,68.6,239.23,12.31,21.11,49.25,38.7,98.51,52.77,49.25,14.07,233.96,14.07,260.34,14.07s146.6-343.88,158.32-378.2c17.07-49.99,12.15-37.95,59.26-45.06,0,0,268.71,33.31,293.33-10.67,24.63-43.98-27.56-70.22-27.56-70.22l-595.93-18.29Z"/>
          <polygon class="cls-47" points="1151.45 541.09 1135.38 542.18 1127.17 556.03 1121.16 541.09 1105.44 537.56 1117.8 527.23 1116.3 511.2 1129.94 519.76 1144.73 513.37 1140.8 528.99 1151.45 541.09"/>
          <polygon class="cls-47" points="1165.96 853.76 1149.89 854.85 1141.68 868.71 1135.67 853.76 1119.96 850.24 1132.32 839.91 1130.81 823.87 1144.46 832.43 1159.24 826.05 1155.32 841.67 1165.96 853.76"/>
          <polygon class="cls-47" points="1485.23 876.19 1469.16 877.28 1460.95 891.14 1454.94 876.19 1439.23 872.66 1451.59 862.33 1450.08 846.3 1463.73 854.86 1478.51 848.48 1474.59 864.1 1485.23 876.19"/>
          <polygon class="cls-47" points="1309.72 706.17 1300.63 692.88 1284.52 692.83 1294.35 680.08 1289.42 664.74 1304.59 670.15 1317.64 660.72 1317.19 676.82 1330.19 686.32 1314.74 690.87 1309.72 706.17"/>
          <polygon class="cls-47" points="1547.16 529.6 1538.04 516.32 1521.93 516.31 1531.74 503.53 1526.78 488.21 1541.96 493.59 1555 484.14 1554.57 500.24 1567.59 509.72 1552.15 514.29 1547.16 529.6"/>
          <path class="cls-19" d="M1155.4,706s10.55,191.3,110.82,225.6"/>
          <path class="cls-19" d="M993.13,517.34s164.91,130.61,317.95,101.59"/>
          <path class="cls-19" d="M1644.86,518.66s-62.01,9.24-73.88,32.98c-11.87,23.75-175.47,335.1-175.47,335.1"/>
          <path class="cls-19" d="M1483.91,564.83c0-3.96,92.35-50.13,108.18-50.13s31.66,1.32,31.66,1.32"/>
          <path class="cls-19" d="M1456.2,925s0,75.2-189.98,35.62"/>
        </g>
        <rect class="cls-31" x="-27.45" y="-41.58" width="1984" height="1208.89"/>
      </g>
      <path class="cls-30" d="M1363.33,1309.45c-11.22,5.61-112.18,64.5-179.49,19.63-67.31-44.87-187.9-50.48-193.51-95.35-5.61-44.87,185.1-154.25,249.6-154.25s532.85-11.22,591.74,14.02c58.89,25.24,171.07,120.59,176.68,145.83,5.61,25.24-645.03,70.11-645.03,70.11Z"/>
    </g>
  </g>
</svg>