<?xml version="1.0" encoding="UTF-8"?>
<svg id="Capa_2" data-name="Capa 2" xmlns="http://www.w3.org/2000/svg" viewBox="0 0 1740.6 877.8">
  <defs>
    <style>
      .cls-1 {
        fill: #fff;
      }

      .cls-2 {
        fill: #2b2547;
      }

      .cls-3 {
        fill: none;
      }

      .cls-4 {
        fill: #4aa4a9;
      }

      .cls-5 {
        fill: #744339;
      }

      .cls-6 {
        fill: #b5487e;
      }
    </style>
  </defs>
  <path class="cls-2" d="M1593.8,413.9c3.6-.4,10.8,4.2,13.9,5.8,12.2,6,21.5,14.4,25.7,27.5,5.3,16.7,7.5,34.5,10.4,51.7,0,10.9,4,23.1,5.8,33.8,1.9,10.9,3.7,21.8,5.5,32.7,3.8,23.2,7.3,46.4,10.8,69.6,.2,1,.3,2,.4,3.1,.9,6.2,63.5,121.2,63.3,124.1-.2,3-34.6,27.9-43.6,22.5-9.1-5.3-8.6-50.7-8.6-50.7,0,0-43.7-69.1-58.5-97.6-14.8-28.6-40.3-195.3-38.5-209.9,.1,0-.6-11.1,13.4-12.6h0Z"/>
  <g>
    <polygon class="cls-2" points="1710.1 496.2 1655.5 496.2 1686.1 410.2 1740.6 410.2 1710.1 496.2"/>
    <polygon class="cls-4" points="1651.3 496.2 1655.5 496.2 1686.1 410.2 1681.9 410.2 1651.3 496.2"/>
    <path class="cls-2" d="M1728.6,421.5h-3.8c-2.1,0-3.3-1.5-2.7-3.3h0c.7-1.8,2.9-3.3,5-3.3h3.8c2.1,0,3.3,1.5,2.7,3.3h0c-.6,1.9-2.9,3.3-5,3.3Z"/>
    <path class="cls-2" d="M1728.6,421.5h-11.4c-2.1,0-3.3-1.5-2.7-3.3h0c.7-1.8,2.9-3.3,5-3.3h11.4c2.1,0,3.3,1.5,2.7,3.3h0c-.6,1.9-2.9,3.3-5,3.3Z"/>
    <polygon class="cls-2" points="1730.3 419.1 1724.8 419.1 1725.4 417.4 1730.9 417.4 1730.3 419.1"/>
  </g>
  <g>
    <path class="cls-2" d="M1653.4,651.5c-16.5,5.5-34.2,7.4-51.7,8.5-18.3,1.2-36.6,1.5-54.8-.2-19.5-1.8-38.7-6-57.2-12.5-2,8.9-68.6,78.2-65.8,133.9,2.8,56.2,15.1,96.7,15.1,96.7l238.4-.1c.1,0-18-157.8-24-226.3h0Z"/>
    <path class="cls-2" d="M1590.4,623c20.7-1,41.5-4.4,61-11.3,.4-35.9,6.8-67.1,2.3-93.6-5.2-30.4-80.5-107.8-80.5-107.8l-74.5-7.1s-78.4,58.7-74.7,85.5c3.7,26.8,36.7,77.4,46.5,101.7,3,7.3,5.9,14.7,8.7,21.7,9.6,2.9,19.6,4.4,29.5,5.8,27.1,3.6,54.4,6.4,81.7,5.1h0Z"/>
    <path class="cls-2" d="M1601.7,660c17.4-1.1,35.2-3.1,51.7-8.5-.9-10-1.5-18.1-1.8-23.5-.3-5.5-.3-11-.3-16.3-19.5,7-40.3,10.4-61,11.3-27.3,1.3-54.6-1.6-81.6-5.3-9.9-1.4-19.9-2.9-29.5-5.8,6.2,16,11,29.7,10.6,35.1,0,.1,0,.2-.1,.3,18.5,6.4,37.7,10.7,57.2,12.5,18.2,1.7,36.6,1.4,54.8,.2h0Z"/>
  </g>
  <path class="cls-2" d="M1627.5,277.3c.9,13.2-.5,26.5-1.9,39.7-1,9.1-1.9,18.1-3.3,27.2-1.5,9.9-7.1,23.7-11.6,32.6-10.6,21-32.1,29.6-55.2,25.3,.9,17.1,2.6,51.4,2.6,51.4l-66.1-45.2s3-26.2,1.2-40.4c-3.1-24.6-11.7-45.4-12.9-63.4-.5-7.5-.3-15.2,1.6-22.5,5.2-19.7,22.7-34.3,42-41,19.3-6.6,40.2-6.5,60.5-5.3,7.2,.4,14.4,1,21.2,3.2,6.8,2.3,13.2,6.4,16.8,12.6,3.9,6.6,4.6,18.3,5.1,25.8h0Z"/>
  <path class="cls-2" d="M1508.2,219.9c-14.4,6.8-27.2,17.4-35.7,31-8.5,13.5-12.5,30-10.3,45.8,3.6,25.8,22.4,46.8,31,71.4,1.8-.6,2.1-1.2,3.3-2.6,4.2-5.2,7.6-11.1,9.9-17.5-1.3,.5-3.2-.1-4.6-.5-5.8-1.5-10.5-6.1-12.6-11.7s-2-11.9-.2-17.5c1.3-4.3,4-8.6,8.3-9.9,3.8-1.1,7.9,.5,10.6,3.4,2.7,2.8,4.1,6.6,4.9,10.5,5.1-2.6,8.5-6.1,10.7-11.5,2.2-5.3,2.9-11.2,2.9-17,0-3.7-.3-7.5-1.8-10.9,10.9,5,23.3,4.7,35,1.9,11.7-2.8,22.5-9.5,30.1-18.9-.8,7.6-4.6,14.6-9.8,20.1,13.5,2,27.7-1.9,38.3-10.5,3.4-2.8,4.9-6.1,6.6-10.1,1.9,8.3,3.2,16.3,2.4,24.8,3.2-2.2,6.3-4.6,8.8-7.6s4.4-6.6,4.7-10.5c.1,6-1,11.9-3.3,17.5,12.8-8.8,22.2-22.2,22.9-37.7s-8.7-31.6-23.4-36.4c-13.5-4.5-28,.6-41.3,5.5-28.1-10.3-60.5-13.8-87.4-1.1h0Z"/>
  <path class="cls-2" d="M1480.3,242.2c-5.1-3.1-10.8-6.3-16.7-5.1-4.7,.9-8.5,4.6-10.6,8.9-2.1,4.3-2.8,9.1-3.1,13.9-1.8,23.7,3.1,47.3,4.2,71.1,.4,10.5,.1,21.1-2.9,31.1-5.4,17.9-19.8,32.9-37.7,38.4-17.8,5.5-41.3,2.4-55.1-10.2,25.8-11.5,45.2-38.5,46.7-66.7-1.5,15-15.7,27.5-30.8,27.2,9.8-3,15.5-13.3,18.4-23.1,8.5-28,3.7-58.4,8.2-87.4,1.1-6.6,2.6-13.3,6-19.1,8.5-14.6,27.5-20.9,43.9-17.4s30.2,15.6,39,29.9"/>
  <path class="cls-2" d="M1600,445.6c18.3,19.3,36.9,39.2,47.8,63.5"/>
  <path class="cls-2" d="M1615.4,769.6c-4.7,9.5-16.9,13.3-21.8,22.7-1.8,3.4-2.4,7.3-3,11.1-4,24.8-7.9,49.7-11.9,74.5"/>
  <g>
    <path class="cls-2" d="M1459.8,558.6c14.8,24.2,38.3,41.3,60,59.7,19.1,16.2,37.5,30.5,60.2,41.3,12.4-13.6,24.3-24.3,35.5-39,24.9-32.5,46.7-67.4,64.8-104.1,3.6-.6,6-.5,9.6-1.1,5.8-.9,11.7-2,16.6-5.2s8.2-9.5,6.4-15c2.9-.4,5.1-2.9,6.1-5.6,.9-2.8,.8-5.7,.5-8.6,8.6-5.4,11.1-18.4,5.2-26.6-17.6,9-60.3,5.8-60.3,5.8,0,0,2.1-6.8,3.5-10-5.6-.6-10,3.6-13.1,8.3-3.1,4.7-4.3,10.3-5.2,15.9-1.8,11.6-1.4,35-1.4,35l-76.9,91.2s-49-63.9-74.8-95.3c-18.8,12-33.9,31.1-36.7,53.3h0Z"/>
    <line class="cls-3" x1="1496.5" y1="505.1" x2="1464.4" y2="467.8"/>
    <path class="cls-2" d="M1519.8,618.2s46.3,45.1,60.2,41.3c13.9-3.8,35.5-39,35.5-39"/>
    <path class="cls-2" d="M1571.3,600.2c-5.3,5.7-9.7,12.2-12.8,19.3"/>
    <path class="cls-2" d="M1664.1,546.1c-3.8,7.2-7.6,14.3-11.4,21.4"/>
  </g>
  <path class="cls-2" d="M1555.6,402.4s-12.4-3.5-20.8-11.5-12.2-13.4-12.2-13.4c0,0,4.4,14.9,14.9,24.9s18.8,12.4,18.8,12.4l-.7-12.4Z"/>
  <path class="cls-2" d="M1589.3,306.5c-.1,8.6-.2,17.2-.4,25.8,0,.7,0,1.5,.3,2.1,.3,.5,.7,.9,1.2,1.3,2.9,2.4,5.9,4.4,9.2,6.2-2.7,4.9-6.7,9.1-11.4,12.2"/>
  <path class="cls-2" d="M1570.1,326.4c-1.2,3.4-3.7,5.6-5.5,4.9s-2.4-3.9-1.2-7.3c1.2-3.4,3.7-5.6,5.5-4.9,1.9,.6,2.4,3.9,1.2,7.3Z"/>
  <path class="cls-2" d="M1610.2,326.4c-1.2,3.4-3.7,5.6-5.5,4.9s-2.4-3.9-1.2-7.3c1.2-3.4,3.7-5.6,5.5-4.9,1.9,.6,2.4,3.9,1.2,7.3Z"/>
  <path class="cls-2" d="M1551.9,313.8c2-4.4,5.4-8.1,9.6-10.5,4.2-2.3,9.2-3.2,14-2.5"/>
  <path class="cls-2" d="M1618.9,313.8c-2-4.4-5.4-8.1-9.6-10.5-4.2-2.3-9.2-3.2-14-2.5"/>
  <g>
    <path class="cls-2" d="M1570.8,364.7c3.4,4.9,8.7,10.5,15.3,10.5h.5c-3.4-5.6-9.4-9.4-15.8-10.5Z"/>
    <path class="cls-2" d="M1605.4,356s-7.7,9.6-17.6,9.7-21.1-8.1-21.1-8.1c0,0,1.5,3.4,4.1,7.1,6.4,1,12.4,4.9,15.8,10.5,11.4-.6,18.8-19.2,18.8-19.2h0Z"/>
  </g>
  <g>
    <path class="cls-2" d="M1524.9,282.7c-6.9-2.5-13.1-6.9-17.8-12.5"/>
    <path class="cls-2" d="M1614,232.7c4.6,.3,8.6,3.8,10.6,8s2.3,9,2.1,13.6c-.3,6.2-1.7,12.9-6.6,16.6"/>
  </g>
  <path class="cls-2" d="M1493.1,320.5c0-2.7,1.9-5.3,4.5-6.1s5.6,.2,7.2,2.4c1,1.4,1.4,3,1.6,4.7,.4,3.3,.2,6.6,0,9.9-.9-.8-1.8-1.5-2.9-1.8s-2.4-.2-3.3,.5c-.9,.8-1.2,2.1-1,3.3,.2,1.2,.9,2.3,1.5,3.3,1.1,1.7,2.5,3.3,4.4,4"/>
  <path class="cls-2" d="M1620.5,652c.9-2.5,1.8-5,2.8-7.6"/>
  <path class="cls-2" d="M1512.8,347.9c0,3.5-2.8,6.3-6.3,6.3s-6.3-2.8-6.3-6.3,2.8-6.3,6.3-6.3,6.3,2.8,6.3,6.3Z"/>
  <path class="cls-5" d="M1626.2,312.4s.3,109.6-72.2,88c0,0,70.1-2.7,72.2-88h0Z"/>
  <path class="cls-1" d="M1504,417.4s57.1,44.3,58.8,43.1c1.7-1.2,0-39,0-39,0,0-1.2-11-4-11.3l-2.8-.3s6.2,43.1,4.9,43.3-58.7-43.9-56.9-35.8h0Z"/>
  <path class="cls-5" d="M1544.5,328.6s0-.1,0,0c.2-.3,.5-.3,.8-.4,5.7-.6,28.1-5.3,30.2,3.1,1.1,4.3-2.1,8.9-5.5,11.3-5.6,3.9-13.4,.7-18.4-2.9-2-1.6-8.8-8-7.1-11.1h0Z"/>
  <path class="cls-6" d="M1566.7,409.9c.9,.4,28.3,2.5,31.1,5.8s20.8,44.5,14.9,70.7c0,0-12.7-53.8-32.3-60s-21.6-16.2-21.6-16.2c0,0,4-2,7.9-.3h0Z"/>
  <path class="cls-5" d="M1602.1,417.4s26,6.1,36.4,43.1c0,0-28.1-31.5-31.5-32.3l-4.9-10.8h0Z"/>
  <path class="cls-2" d="M1728.6,759.5s1.7,16.8,1.1,23c-.7,6.2-2,18.2-6,22.2s-11.6,9.8-11.6,9.8c0,0-8.4,.3,4.4-14.7,0,0,3.4-11.4,3.1-14.4s-5.3-11.8-4.4-15.8c.9-4.1,9.9-14.5,13.4-10.1h0Z"/>
  <path class="cls-2" d="M1718.4,765.2s1.7,16.8,1.1,23c-.7,6.2-2,18.2-6,22.2s-11.6,9.8-11.6,9.8c0,0-8.4,.3,4.4-14.7,0,0,3.4-11.4,3.1-14.4-.4-3-5.3-11.8-4.4-15.8s9.9-14.4,13.4-10.1h0Z"/>
  <path class="cls-2" d="M1696.8,779.9l3.7,15.9s-11.7,24.4-6.9,24.4,13.4-23.4,14.5-24.4-3.4-21.9-3.4-21.9l-7.9,6h0Z"/>
  <path class="cls-2" d="M1686.8,780.7v12.6c0,2.9-6.7,24.3-1.8,21.2,4.9-3.1,7.5-16.7,7.5-16.7,0,0,.8-18.4,0-19.3s-5.7,2.2-5.7,2.2h0Z"/>
</svg>