<?xml version="1.0" encoding="UTF-8"?>
<svg id="Capa_2" data-name="Capa 2" xmlns="http://www.w3.org/2000/svg" viewBox="0 0 1845.02 912.28">
  <defs>
    <style>
      .cls-1 {
        fill: #2d2749;
      }

      .cls-1, .cls-2 {
        stroke-width: 0px;
      }

      .cls-2 {
        fill: #747087;
      }
    </style>
  </defs>
  <g id="Capa_1-2" data-name="Capa 1">
    <g>
      <g>
        <g>
          <rect class="cls-2" x="353.97" y="20.62" width="5.79" height="11.59" transform="translate(5.07 91.92) rotate(-14.78)"/>
          <rect class="cls-2" x="398.78" y="8.79" width="5.79" height="11.59" transform="translate(9.57 102.96) rotate(-14.78)"/>
          <rect class="cls-2" x="383.03" y="42.81" width="5.79" height="5.79" transform="translate(1.11 99.97) rotate(-14.78)"/>
          <rect class="cls-2" x="357.17" y="12.16" width="17.38" height="5.79" transform="translate(8.27 93.83) rotate(-14.78)"/>
          <rect class="cls-2" x="379.57" y="6.24" width="17.38" height="5.79" transform="translate(10.52 99.35) rotate(-14.78)"/>
          <rect class="cls-2" x="383.89" y=".64" width="5.79" height="5.79" transform="translate(11.9 98.79) rotate(-14.78)"/>
          <rect class="cls-2" x="375.76" y="37.2" width="17.38" height="5.79" transform="translate(2.49 99.4) rotate(-14.78)"/>
          <rect class="cls-2" x="361.48" y="6.55" width="5.79" height="5.79" transform="translate(9.65 93.27) rotate(-14.78)"/>
          <rect class="cls-2" x="378.31" y="23.79" width="23.17" height="5.79" transform="translate(6.09 100.35) rotate(-14.78)"/>
          <rect class="cls-2" x="359.74" y="20.4" width="40.55" height="5.79" transform="translate(6.63 97.72) rotate(-14.78)"/>
          <rect class="cls-2" x="361.5" y="28.22" width="23.17" height="5.79" transform="translate(4.41 96.21) rotate(-14.78)"/>
          <rect class="cls-2" x="358.26" y="14.8" width="40.55" height="5.79" transform="translate(8.01 97.15) rotate(-14.78)"/>
          <rect class="cls-2" x="368.49" y="31.6" width="28.96" height="5.79" transform="translate(3.87 98.84) rotate(-14.78)"/>
        </g>
        <g>
          <rect class="cls-2" x="1.38" y="883.66" width="5.79" height="11.59" transform="translate(-226.77 30.52) rotate(-14.78)"/>
          <rect class="cls-2" x="46.19" y="871.84" width="5.79" height="11.59" transform="translate(-222.27 41.56) rotate(-14.78)"/>
          <rect class="cls-2" x="30.44" y="905.85" width="5.79" height="5.79" transform="translate(-230.73 38.57) rotate(-14.78)"/>
          <rect class="cls-2" x="4.57" y="875.2" width="17.38" height="5.79" transform="translate(-223.57 32.44) rotate(-14.78)"/>
          <rect class="cls-2" x="26.98" y="869.29" width="17.38" height="5.79" transform="translate(-221.32 37.96) rotate(-14.78)"/>
          <rect class="cls-2" x="31.29" y="863.69" width="5.79" height="5.79" transform="translate(-219.94 37.4) rotate(-14.78)"/>
          <rect class="cls-2" x="23.17" y="900.25" width="17.38" height="5.79" transform="translate(-229.35 38.01) rotate(-14.78)"/>
          <rect class="cls-2" x="8.89" y="869.6" width="5.79" height="5.79" transform="translate(-222.19 31.88) rotate(-14.78)"/>
          <rect class="cls-2" x="25.72" y="886.83" width="23.17" height="5.79" transform="translate(-225.75 38.96) rotate(-14.78)"/>
          <rect class="cls-2" x="7.15" y="883.44" width="40.55" height="5.79" transform="translate(-225.21 36.32) rotate(-14.78)"/>
          <rect class="cls-2" x="8.91" y="891.26" width="23.17" height="5.79" transform="translate(-227.43 34.82) rotate(-14.78)"/>
          <rect class="cls-2" x="5.67" y="877.84" width="40.55" height="5.79" transform="translate(-223.83 35.76) rotate(-14.78)"/>
          <rect class="cls-2" x="15.9" y="894.65" width="28.96" height="5.79" transform="translate(-227.97 37.45) rotate(-14.78)"/>
        </g>
        <g>
          <rect class="cls-2" x="371.62" y="255.81" width="8.3" height="16.61" transform="translate(163.19 -143.03) rotate(27.33)"/>
          <rect class="cls-2" x="430.64" y="286.31" width="8.3" height="16.61" transform="translate(183.77 -166.72) rotate(27.33)"/>
          <rect class="cls-2" x="383.97" y="308.41" width="8.3" height="8.3" transform="translate(186.81 -143.3) rotate(27.33)"/>
          <rect class="cls-2" x="383.79" y="256.52" width="24.91" height="8.3" transform="translate(163.89 -152.81) rotate(27.33)"/>
          <rect class="cls-2" x="413.3" y="271.77" width="24.91" height="8.3" transform="translate(174.18 -164.66) rotate(27.33)"/>
          <rect class="cls-2" x="425.42" y="264.39" width="8.3" height="8.3" transform="translate(171.22 -167.23) rotate(27.33)"/>
          <rect class="cls-2" x="379.48" y="301.04" width="24.91" height="8.3" transform="translate(183.85 -145.87) rotate(27.33)"/>
          <rect class="cls-2" x="395.9" y="249.14" width="8.3" height="8.3" transform="translate(160.93 -155.39) rotate(27.33)"/>
          <rect class="cls-2" x="394.02" y="292" width="33.22" height="8.3" transform="translate(181.78 -155.46) rotate(27.33)"/>
          <rect class="cls-1" x="374.31" y="278.9" width="58.13" height="8.3" transform="translate(174.96 -153.59) rotate(27.33)"/>
          <rect class="cls-2" x="371.89" y="280.56" width="33.22" height="8.3" transform="translate(174.06 -146.57) rotate(27.33)"/>
          <rect class="cls-1" x="378.12" y="271.52" width="58.13" height="8.3" transform="translate(172 -156.16) rotate(27.33)"/>
          <rect class="cls-2" x="374.99" y="293.66" width="41.52" height="8.3" transform="translate(180.88 -148.44) rotate(27.33)"/>
          <rect class="cls-1" x="389.69" y="293.19" width="8.3" height="16.61" transform="translate(182.36 -147.16) rotate(27.33)"/>
          <rect class="cls-1" x="378.8" y="286.28" width="41.52" height="8.3" transform="translate(177.92 -151.02) rotate(27.33)"/>
          <rect class="cls-1" x="374.31" y="278.9" width="58.13" height="8.3" transform="translate(174.96 -153.59) rotate(27.33)"/>
          <rect class="cls-1" x="387.1" y="277.97" width="24.91" height="24.91" transform="translate(177.92 -151.02) rotate(27.33)"/>
          <rect class="cls-1" x="378.12" y="271.52" width="58.13" height="8.3" transform="translate(172 -156.16) rotate(27.33)"/>
          <rect class="cls-1" x="392.09" y="256.52" width="8.3" height="8.3" transform="translate(163.89 -152.81) rotate(27.33)"/>
          <rect class="cls-1" x="421.6" y="271.77" width="8.3" height="8.3" transform="translate(174.18 -164.66) rotate(27.33)"/>
          <rect class="cls-2" x="403.03" y="271.52" width="8.3" height="8.3" transform="translate(172 -156.16) rotate(27.33)"/>
        </g>
        <g>
          <rect class="cls-2" x="2.81" y="98.08" width="8.3" height="16.61" transform="translate(-2.66 .21) rotate(-1.43)"/>
          <rect class="cls-2" x="69.23" y="96.42" width="8.3" height="16.61" transform="translate(-2.6 1.87) rotate(-1.43)"/>
          <rect class="cls-2" x="36.95" y="138.76" width="8.3" height="8.3" transform="translate(-3.56 1.07) rotate(-1.43)"/>
          <rect class="cls-2" x="10.8" y="89.36" width="24.91" height="8.3" transform="translate(-2.33 .61) rotate(-1.43)"/>
          <rect class="cls-2" x="44" y="88.53" width="24.91" height="8.3" transform="translate(-2.3 1.44) rotate(-1.43)"/>
          <rect class="cls-2" x="52.1" y="80.23" width="8.3" height="8.3" transform="translate(-2.09 1.43) rotate(-1.43)"/>
          <rect class="cls-2" x="28.44" y="130.46" width="24.91" height="8.3" transform="translate(-3.35 1.07) rotate(-1.43)"/>
          <rect class="cls-2" x="18.89" y="81.06" width="8.3" height="8.3" transform="translate(-2.12 .6) rotate(-1.43)"/>
          <rect class="cls-2" x="36.32" y="113.54" width="33.22" height="8.3" transform="translate(-2.93 1.36) rotate(-1.43)"/>
          <rect class="cls-1" x="11.21" y="105.55" width="58.13" height="8.3" transform="translate(-2.73 1.04) rotate(-1.43)"/>
          <rect class="cls-2" x="11.42" y="114.16" width="33.22" height="8.3" transform="translate(-2.95 .74) rotate(-1.43)"/>
          <rect class="cls-1" x="11" y="97.25" width="58.13" height="8.3" transform="translate(-2.52 1.03) rotate(-1.43)"/>
          <rect class="cls-2" x="19.93" y="122.15" width="41.52" height="8.3" transform="translate(-3.15 1.06) rotate(-1.43)"/>
          <rect class="cls-1" x="11.21" y="105.55" width="58.13" height="8.3" transform="translate(-2.73 1.04) rotate(-1.43)"/>
          <rect class="cls-1" x="11" y="97.25" width="58.13" height="8.3" transform="translate(-2.52 1.03) rotate(-1.43)"/>
          <rect class="cls-1" x="19.1" y="89.36" width="8.3" height="8.3" transform="translate(-2.33 .61) rotate(-1.43)"/>
          <rect class="cls-1" x="52.31" y="88.53" width="8.3" height="8.3" transform="translate(-2.3 1.44) rotate(-1.43)"/>
          <rect class="cls-2" x="35.91" y="97.25" width="8.3" height="8.3" transform="translate(-2.52 1.03) rotate(-1.43)"/>
        </g>
      </g>
      <g>
        <g>
          <rect class="cls-2" x="1651.41" y="64.29" width="12.64" height="25.29" transform="translate(16.72 -170.21) rotate(5.91)"/>
          <rect class="cls-2" x="1752.03" y="74.7" width="12.64" height="25.29" transform="translate(18.33 -180.51) rotate(5.91)"/>
          <rect class="cls-2" x="1695.86" y="132.42" width="12.64" height="12.65" transform="translate(23.32 -174.46) rotate(5.91)"/>
          <rect class="cls-2" x="1665.87" y="54.35" width="37.93" height="12.65" transform="translate(15.19 -173.09) rotate(5.91)"/>
          <rect class="cls-2" x="1716.18" y="59.55" width="37.93" height="12.65" transform="translate(16 -178.24) rotate(5.91)"/>
          <rect class="cls-2" x="1730.13" y="46.97" width="12.64" height="12.64" transform="translate(14.71 -178.44) rotate(5.91)"/>
          <rect class="cls-2" x="1684.52" y="119.84" width="37.93" height="12.64" transform="translate(22.03 -174.66) rotate(5.91)"/>
          <rect class="cls-2" x="1679.82" y="41.77" width="12.64" height="12.64" transform="translate(13.9 -173.29) rotate(5.91)"/>
          <rect class="cls-2" x="1699.66" y="96.63" width="50.58" height="12.64" transform="translate(19.76 -176.99) rotate(5.91)"/>
          <rect class="cls-2" x="1663.13" y="82.1" width="88.51" height="12.65" transform="translate(18.17 -175.26) rotate(5.91)"/>
          <rect class="cls-2" x="1661.93" y="92.73" width="50.58" height="12.64" transform="translate(19.16 -173.13) rotate(5.91)"/>
          <rect class="cls-2" x="1664.43" y="69.53" width="88.51" height="12.64" transform="translate(16.88 -175.46) rotate(5.91)"/>
          <rect class="cls-2" x="1673.17" y="107.26" width="63.22" height="12.65" transform="translate(20.74 -174.86) rotate(5.91)"/>
        </g>
        <g>
          <rect class="cls-2" x="1776.14" y="315.15" width="8.3" height="16.61" transform="translate(88.81 966.08) rotate(-31.1)"/>
          <rect class="cls-2" x="1833.03" y="280.84" width="8.3" height="16.61" transform="translate(114.72 990.53) rotate(-31.1)"/>
          <rect class="cls-2" x="1823.89" y="334.15" width="8.3" height="8.3" transform="translate(88.01 992.87) rotate(-31.1)"/>
          <rect class="cls-2" x="1775.62" y="300.06" width="24.91" height="8.3" transform="translate(99.87 967.33) rotate(-31.1)"/>
          <rect class="cls-2" x="1804.06" y="282.9" width="24.91" height="8.3" transform="translate(112.82 979.56) rotate(-31.1)"/>
          <rect class="cls-2" x="1808.08" y="275.79" width="8.3" height="8.3" transform="translate(115.88 976.32) rotate(-31.1)"/>
          <rect class="cls-2" x="1811.29" y="327.03" width="24.91" height="8.3" transform="translate(91.07 989.64) rotate(-31.1)"/>
          <rect class="cls-2" x="1779.64" y="292.95" width="8.3" height="8.3" transform="translate(102.93 964.1) rotate(-31.1)"/>
          <rect class="cls-2" x="1809.23" y="306.38" width="33.22" height="8.3" transform="translate(102.04 987.75) rotate(-31.1)"/>
          <rect class="cls-1" x="1781.81" y="305.7" width="58.13" height="8.3" transform="translate(100.24 979.92) rotate(-31.1)"/>
          <rect class="cls-2" x="1787.89" y="319.25" width="33.22" height="8.3" transform="translate(92.32 978.58) rotate(-31.1)"/>
          <rect class="cls-1" x="1777.52" y="298.59" width="58.13" height="8.3" transform="translate(103.29 976.68) rotate(-31.1)"/>
          <rect class="cls-2" x="1798.7" y="319.92" width="41.52" height="8.3" transform="translate(94.12 986.4) rotate(-31.1)"/>
          <rect class="cls-1" x="1817.45" y="319.33" width="8.3" height="16.61" transform="translate(92.59 988.02) rotate(-31.1)"/>
          <rect class="cls-1" x="1794.41" y="312.81" width="41.52" height="8.3" transform="translate(97.18 983.16) rotate(-31.1)"/>
          <rect class="cls-1" x="1781.81" y="305.7" width="58.13" height="8.3" transform="translate(100.24 979.92) rotate(-31.1)"/>
          <rect class="cls-1" x="1802.71" y="304.51" width="24.91" height="24.91" transform="translate(97.18 983.16) rotate(-31.1)"/>
          <rect class="cls-1" x="1777.52" y="298.59" width="58.13" height="8.3" transform="translate(103.29 976.68) rotate(-31.1)"/>
          <rect class="cls-1" x="1783.93" y="300.06" width="8.3" height="8.3" transform="translate(99.87 967.33) rotate(-31.1)"/>
          <rect class="cls-1" x="1812.37" y="282.9" width="8.3" height="8.3" transform="translate(112.82 979.56) rotate(-31.1)"/>
          <rect class="cls-2" x="1802.44" y="298.59" width="8.3" height="8.3" transform="translate(103.29 976.68) rotate(-31.1)"/>
        </g>
        <g>
          <rect class="cls-2" x="1531.18" y="226.49" width="8.3" height="16.61" transform="translate(233.95 -613.01) rotate(24.39)"/>
          <rect class="cls-2" x="1591.69" y="253.92" width="8.3" height="16.61" transform="translate(250.68 -635.55) rotate(24.39)"/>
          <rect class="cls-2" x="1546" y="278.4" width="8.3" height="8.3" transform="translate(254.99 -614.87) rotate(24.39)"/>
          <rect class="cls-2" x="1543.14" y="226.16" width="24.91" height="8.3" transform="translate(233.91 -621.78) rotate(24.39)"/>
          <rect class="cls-2" x="1573.4" y="239.87" width="24.91" height="8.3" transform="translate(242.27 -633.05) rotate(24.39)"/>
          <rect class="cls-2" x="1585.13" y="232.31" width="8.3" height="8.3" transform="translate(239.45 -635.14) rotate(24.39)"/>
          <rect class="cls-2" x="1541.12" y="270.83" width="24.91" height="8.3" transform="translate(252.17 -616.96) rotate(24.39)"/>
          <rect class="cls-2" x="1554.88" y="218.59" width="8.3" height="8.3" transform="translate(231.09 -623.87) rotate(24.39)"/>
          <rect class="cls-2" x="1555.18" y="260.85" width="33.22" height="8.3" transform="translate(249.68 -625.37) rotate(24.39)"/>
          <rect class="cls-1" x="1534.8" y="248.14" width="58.13" height="8.3" transform="translate(243.72 -623.24) rotate(24.39)"/>
          <rect class="cls-2" x="1532.48" y="250.56" width="33.22" height="8.3" transform="translate(243.4 -616.92) rotate(24.39)"/>
          <rect class="cls-1" x="1538.23" y="240.58" width="58.13" height="8.3" transform="translate(240.91 -625.33) rotate(24.39)"/>
          <rect class="cls-2" x="1536.25" y="263.27" width="41.52" height="8.3" transform="translate(249.36 -619.05) rotate(24.39)"/>
          <rect class="cls-1" x="1534.8" y="248.14" width="58.13" height="8.3" transform="translate(243.72 -623.24) rotate(24.39)"/>
          <rect class="cls-1" x="1538.23" y="240.58" width="58.13" height="8.3" transform="translate(240.91 -625.33) rotate(24.39)"/>
          <rect class="cls-1" x="1551.45" y="226.16" width="8.3" height="8.3" transform="translate(233.91 -621.78) rotate(24.39)"/>
          <rect class="cls-1" x="1581.7" y="239.87" width="8.3" height="8.3" transform="translate(242.27 -633.05) rotate(24.39)"/>
          <rect class="cls-2" x="1563.15" y="240.58" width="8.3" height="8.3" transform="translate(240.91 -625.33) rotate(24.39)"/>
        </g>
      </g>
    </g>
  </g>
</svg>