<?xml version="1.0" encoding="UTF-8"?><svg id="Capa_2" xmlns="http://www.w3.org/2000/svg" viewBox="0 0 41.9487982621 45.0600416829"><defs><style>.cls-1{fill:none;stroke:#373151;stroke-linecap:round;stroke-linejoin:round;stroke-width:1.0653653915px;}.cls-2{fill:#4b5b62;}.cls-2,.cls-3,.cls-4,.cls-5{stroke-width:0px;}.cls-3{fill:#e34825;}.cls-4{fill:#bb3626;}.cls-5{fill:#fff;}</style></defs><g id="Capa_1-2"><path class="cls-5" d="m3.3545106881,2.6760146093c1.574532765-.607108515,3.304469116-.631204781,4.9919129959-.6475549865,3.0693745541-.029740186,6.2444181723-.0391455744,9.0596318745,1.1841763107,2.6599987555,1.1558748243,4.89040388,3.370380667,7.7513874974,3.8462091305,3.0674705053.5101708451,6.04855602-1.099020653,9.1124798594-1.6300766338,2.3892429935-.4141167788,4.8911985202-.1568779711,7.1461926511.734736347-3.1282425269.8813903458-6.0122272545,2.6138449716-8.2595700391,4.9616526079-2.9666336739,3.0992535903-5.0021151552,7.3589153814-8.9192321365,9.1089104446-2.4120519697,1.077598627-5.1585893591,1.0058381143-7.7541686969,1.497957506-4.0066606782.7596587281-7.6140727297,2.8561038383-11.1322945875,4.9182691739-2.6444745465-7.3330652979-2.3343469328-15.3548907869-1.9908242517-23.1426430056"/><path class="cls-3" d="m3.267190261,4.7711313481c1.5745327649-.607108515,3.304469116-.631204781,4.9919129959-.6475549864,3.0693745541-.029740186,6.2444181723-.0391455745,9.0596318745,1.1841763107,2.6599987555,1.1558748243,4.89040388,3.370380667,7.7513874974,3.8462091305,3.0674705053.5101708451,6.04855602-1.099020653,9.1124798594-1.6300766338,2.3892429935-.4141167788,4.9785189472-2.2519947099,7.2335130781-1.3603803918-3.1282425269.8813903458-6.0122272545,2.6138449716-8.2595700391,4.9616526079-2.9666336739,3.0992535903-5.0021151552,7.3589153814-8.9192321365,9.1089104446-2.4120519697,1.077598627-5.1585893591,1.0058381143-7.7541686969,1.497957506-4.0066606782.7596587281-7.6140727297,2.8561038383-11.1322945875,4.9182691739-2.6444745465-7.3330652979-2.4216673598-13.2597740482-2.0781446787-21.0475262668"/><path class="cls-4" d="m4.3309649431,23.3806400441c.279726761,1.0648863238.6164375178,2.1509036981,1.0198851633,3.2696544656,3.5182218578-2.0621653357,7.1256339093-4.1586104459,11.1322945875-4.9182691739,2.5955793378-.4921193917,5.3421167271-.420358879,7.7541686969-1.497957506,3.9171169813-1.7499950632,5.9525984626-6.0096568544,8.9192321365-9.1089104446,2.2473427847-2.3478076363,5.1313275122-4.0802622621,8.2595700391-4.9616526079-1.691245867-.6687108449-3.6240797759.0624463409-5.4124241997.8477324859-2.9294410765,1.2863570682-7.3629549387,7.5117286203-9.2947262407,9.1518011728-4.3074315281,3.6570065071-9.3874976035,1.6895312675-13.3993152215,3.1621327333-4.484304997,1.6460354733-8.9786849614,4.0554688749-8.9786849614,4.0554688749Z"/><path class="cls-1" d="m3.3545106881,2.6760146093c1.574532765-.607108515,3.304469116-.631204781,4.9919129959-.6475549865,3.0693745541-.029740186,6.2444181723-.0391455744,9.0596318745,1.1841763107,2.6599987555,1.1558748243,4.89040388,3.370380667,7.7513874974,3.8462091305,3.0674705053.5101708451,6.04855602-1.099020653,9.1124798594-1.6300766338,2.3892429935-.4141167788,4.8911985202-.1568779711,7.1461926511.734736347-3.1282425269.8813903458-6.0122272545,2.6138449716-8.2595700391,4.9616526079-2.9666336739,3.0992535903-5.0021151552,7.3589153814-8.9192321365,9.1089104446-2.4120519697,1.077598627-5.1585893591,1.0058381143-7.7541686969,1.497957506-4.0066606782.7596587281-7.6140727297,2.8561038383-11.1322945875,4.9182691739-2.6444745465-7.3330652979-2.3343469328-15.3548907869-1.9908242517-23.1426430056"/><rect class="cls-5" x="2.4808148752" y=".4863098902" width="2.9044078585" height="44.0874218773" rx=".9767187661" ry=".9767187661" transform="translate(-2.0686526001 .4608020884) rotate(-5.3113091556)"/><rect class="cls-2" x="4.1592484759" y=".4084588978" width="1.2223639494" height="44.0874218606" rx=".411066882" ry=".411066882" transform="translate(-2.0578545436 .5379858207) rotate(-5.3113192435)"/><rect class="cls-1" x="2.4808148752" y=".4863098902" width="2.9044078585" height="44.0874218773" rx=".9767187661" ry=".9767187661" transform="translate(-2.0686526001 .4608020884) rotate(-5.3113091556)"/></g></svg>