<?xml version="1.0" encoding="UTF-8"?><svg id="Capa_2" xmlns="http://www.w3.org/2000/svg" viewBox="0 0 89.8711465474 40.1813113126"><defs><style>.cls-1{fill:none;stroke-width:1.2972582765px;}.cls-1,.cls-2{stroke:#373151;stroke-linecap:round;stroke-linejoin:round;}.cls-2{fill:#e8505b;stroke-width:1.220751566px;}.cls-3{fill:#373151;font-family:Hey-Comic, 'Hey Comic';font-size:28.1212406158px;letter-spacing:-.0169964498em;}.cls-4{fill:#fec603;stroke-width:0px;}</style></defs><g id="Capa_1-2"><path class="cls-4" d="m.4751049271,32.8003310333L20.2991588727,1.7552243955c.6384452344-.9998257893,2.0986449488-.9998257893,2.7370901832,0l19.8240539456,31.0451066378c.6901941609,1.0808662741-.086109954,2.4976560086-1.3685450916,2.4976560086H1.8436500187c-1.2824351376,0-2.0587392525-1.4167897345-1.3685450916-2.4976560086Z"/><path class="cls-1" d="m.9017676715,33.5783810934L20.3628904939,3.1016362777c.6267568256-.9815213649,2.0602237676-.9815213649,2.6869805932,0l19.4611228224,30.4767448157c.6775583527,1.0610781918-.0845334862,2.451929887-1.3434902966,2.451929887H2.2452579681c-1.2589568104,0-2.0210486493-1.3908516953-1.3434902966-2.451929887Z"/><text class="cls-3" transform="translate(18.8077963555 32.6173464689) scale(.9883899689 1)"><tspan x="0" y="0">!</tspan></text><path class="cls-2" d="m70.6737029146.610375783c-10.2492617289,0-18.5879868188,8.3387250899-18.5879868188,18.5879868188s8.3387250899,18.5870678497,18.5879868188,18.5870678497,18.5870678497-8.3378061208,18.5870678497-18.5870678497S80.9229646435.610375783,70.6737029146.610375783Zm11.9998977545,18.5879868188c0,2.4072394063-.7190932756,4.6463074779-1.9445384935,6.5274371075l-16.5837153375-16.5837153375c1.8811296296-1.2249857334,4.1206571857-1.9445384935,6.5283560766-1.9445384935,6.6165771046,0,11.9998977545,5.3833206498,11.9998977545,12.0008167235Zm-24.000714478,0c0-1.814504374.4167524607-3.5297600915,1.1404405815-5.0727091135l15.9330852555,15.9321662865c-1.5434085066.7241476053-3.258664224,1.1404405815-5.0727091135,1.1404405815-6.6174960736,0-12.0008167235-5.3833206498-12.0008167235-11.9998977544Z"/></g></svg>