<?xml version="1.0" encoding="utf-8"?>
<!-- Generator: Adobe Illustrator 26.5.0, SVG Export Plug-In . SVG Version: 6.00 Build 0)  -->
<svg version="1.1" id="Capa_2_00000165218657717713014250000009809145331334691219_"
	 xmlns="http://www.w3.org/2000/svg" xmlns:xlink="http://www.w3.org/1999/xlink" x="0px" y="0px" viewBox="0 0 460 584.7"
	 style="enable-background:new 0 0 460 584.7;" xml:space="preserve">
<style type="text/css">
	.st0{fill:#FF94BD;}
	.st1{fill:#D33054;stroke:#373151;stroke-width:2.1649;stroke-miterlimit:10;}
	.st2{fill:#F6A17E;stroke:#373151;stroke-width:1.85;stroke-miterlimit:10;}
	.st3{fill:#FFB89F;stroke:#373151;stroke-width:1.85;stroke-miterlimit:10;}
	.st4{fill:#373151;}
</style>
<path class="st0" d="M24.6,48.1h410.8c13.6,0,24.6,11,24.6,24.6V560c0,13.6-11,24.6-24.6,24.6H24.6C11,584.7,0,573.6,0,560V72.7
	C0,59.1,11,48.1,24.6,48.1z"/>
<circle class="st0" cx="230" cy="48.1" r="48.1"/>
<g id="Capa_1-2_00000165218686449099718330000007302953706702686899_">
	<path class="st1" d="M251.2,39.2c1.5-2.2,2.6-4.6,2.8-7.3c0.4-4.5-1.2-9.1-4.4-12.3c-5.4-5.4-17.3-4-19.9,4.8
		c-3.5-7.9-14.1-9.7-19.4-4.4c-5.2,5.2-6,13.8-1.6,19.8c2.7,3.7,6.7,6.9,9.9,10.2c3.7,3.7,7.3,7.4,11,11
		c0.6,0.6,11.4-10.9,12.2-11.8C244.8,46.2,248.6,43,251.2,39.2z"/>
	<path class="st2" d="M227.4,33.3l20.4-12.1c3.1-1.8,7.1-0.8,8.9,2.3v0c1.8,3.1,0.8,7.1-2.3,8.9L234,44.4c-3.1,1.8-7.1,0.8-8.9-2.3
		v0C223.3,39.1,224.3,35.1,227.4,33.3z"/>
	<rect x="235.3" y="26.3" transform="matrix(0.8601 -0.5101 0.5101 0.8601 16.9467 127.4421)" class="st3" width="11" height="13"/>
	<circle class="st4" cx="249" cy="24.3" r="0.8"/>
	<circle class="st4" cx="230.4" cy="35.7" r="0.8"/>
	<circle class="st4" cx="228.8" cy="40" r="0.8"/>
	<circle class="st4" cx="232.7" cy="39.7" r="0.8"/>
	<circle class="st4" cx="250.9" cy="30" r="0.8"/>
	<circle class="st4" cx="252.6" cy="25.2" r="0.8"/>
</g>
</svg>
