<?xml version="1.0" encoding="utf-8"?>
<!-- Generator: Adobe Illustrator 26.3.0, SVG Export Plug-In . SVG Version: 6.00 Build 0)  -->
<svg version="1.1" id="Capa_1" xmlns="http://www.w3.org/2000/svg" xmlns:xlink="http://www.w3.org/1999/xlink" x="0px" y="0px"
	 viewBox="0 0 1125 2436" style="enable-background:new 0 0 1125 2436;" xml:space="preserve">
<style type="text/css">
	.st0{fill:#FF94BD;}
	.st1{fill:#D33054;stroke:#373151;stroke-width:2.1649;stroke-miterlimit:10;}
	.st2{fill:#F6A17E;stroke:#373151;stroke-width:1.85;stroke-miterlimit:10;}
	.st3{fill:#FFB89F;stroke:#373151;stroke-width:1.85;stroke-miterlimit:9.9999;}
	.st4{fill:#373151;}
</style>
<rect x="412" y="214" class="st0" width="344" height="246"/>
<g>
	<path class="st0" d="M1044.6,214.4H675c0,0.1,0,0.2,0,0.4c0,95.2-50.6,172.4-112.9,172.4s-112.9-77.2-112.9-172.4
		c0-0.1,0-0.2,0-0.4H80.1c-31.9,0-57.8,39.5-57.8,88.2v1744.6c0,48.7,25.8,88.4,57.8,88.1h964.5c31.9,0,57.8-39.5,57.8-88.2V302.5
		C1102.3,253.9,1076.5,214.4,1044.6,214.4z"/>
	<path class="st0" d="M515.1,210.5c-10.3-15.3-8.5-37.2,3.8-50.4c12.4-13.5,37.3-8.9,45.5,11.2c6.1-22.4,34-26,46.7-12.2
		c0.6,0.6,1.1,1.3,1.6,1.9c5.9-0.8,11.9,2.1,15,8c4.2,7.9,1.9,18.1-5.4,22.7l-1.2,0.7c-0.8,6.1-3.2,11.5-6.4,16.6
		c-5.3,8.4-12.7,15.6-19.2,22.4H678c-0.1-67.5-50.6-122.2-112.9-122.2c-62.3,0-112.8,54.7-112.9,122.2h81.4
		C527.1,224.7,520.1,218,515.1,210.5z"/>
	<path class="st0" d="M565.1,354.1c62.4,0,112.9-54.8,112.9-122.5c0-0.1,0-0.2,0-0.3h-82.3c-1,1-1.9,2-2.9,3.1
		c-1.9,2.3-27.2,31.6-28.6,30c-8.7-9.2-17.1-18.6-25.8-28c-1.5-1.7-3.1-3.4-4.8-5.1h-81.4c0,0.1,0,0.2,0,0.3
		C452.1,299.3,502.7,354.1,565.1,354.1z"/>
	<path class="st1" d="M621.2,192.4l-46.7,29.8c-7.3,4.6-16.7,2-20.9-5.9c-4.2-7.6-1.9-17.8,5.4-22.4l12.6-8.1l-0.1-0.2l22.2-14.3
		l0.1,0.2l13-8.4c1.9-1.2,3.9-1.9,5.9-2.1c-0.5-0.7-1.1-1.3-1.6-1.9c-12.7-13.7-40.6-10.2-46.7,12.2c-8.2-20.1-33.1-24.7-45.5-11.2
		c-12.2,13.2-14.1,35.1-3.8,50.4c5.1,7.5,12,14.2,18.5,20.9h62.1c6.5-6.8,13.9-14,19.2-22.4C618,203.9,620.4,198.5,621.2,192.4z"/>
	<path class="st1" d="M538.3,236.5c8.7,9.4,17.1,18.8,25.8,28c1.4,1.5,26.8-27.8,28.6-30c0.9-1,1.9-2,2.9-3.1h-62.1
		C535.2,233.1,536.8,234.8,538.3,236.5z"/>
	<path class="st2" d="M620,173.3c0,0.4-0.1,0.8-0.3,1.1c1.5,5.1,2.2,10.6,1.7,16c0,0.7-0.1,1.3-0.2,2l1.2-0.7
		c7.3-4.6,9.6-14.8,5.4-22.7c-3.1-5.9-9.2-8.8-15-8c2.5,3.1,4.5,6.6,5.9,10.4C619.4,171.6,620,172.4,620,173.3z"/>
	<path class="st2" d="M593.8,171.5l15.5,28.3l-22.2,14.3l-15.5-28.3L559,194c-7.3,4.6-9.6,14.8-5.4,22.4c4.2,7.9,13.6,10.4,20.9,5.9
		l46.7-29.8c0.1-0.7,0.2-1.3,0.2-2c0.4-5.4-0.2-10.8-1.7-16c-0.3,0.6-0.9,0.9-1.6,0.9c-1,0-1.9-0.9-1.9-2s0.8-2,1.9-2
		c0.2,0,0.4,0,0.5,0.1c-1.5-3.8-3.5-7.3-5.9-10.4c-2,0.3-4,1-5.9,2.1L593.8,171.5z M562.2,213.1c-1,0-1.9-0.9-1.9-2s0.8-2,1.9-2
		s1.9,0.9,1.9,2S563.3,213.1,562.2,213.1z M566,202.1c-1,0-1.9-0.9-1.9-2s0.8-2,1.9-2s1.9,0.9,1.9,2S567,202.1,566,202.1z
		 M571.4,212.3c-1,0-1.9-0.9-1.9-2s0.8-2,1.9-2s1.9,0.9,1.9,2S572.4,212.3,571.4,212.3z M614.1,183.5c1,0,1.9,0.9,1.9,2
		s-0.8,2-1.9,2c-1,0-1.9-0.9-1.9-2S613.1,183.5,614.1,183.5z M609.7,169c1,0,1.9,0.9,1.9,2s-0.8,2-1.9,2s-1.9-0.9-1.9-2
		S608.6,169,609.7,169z"/>
	<polygon class="st3" points="593.7,171.4 571.5,185.7 571.6,185.8 593.8,171.5 	"/>
	<polygon class="st3" points="609.3,199.8 593.8,171.5 571.6,185.8 587.1,214.1 	"/>
	<path class="st4" d="M609.7,173.1c1,0,1.9-0.9,1.9-2s-0.8-2-1.9-2s-1.9,0.9-1.9,2S608.6,173.1,609.7,173.1z"/>
	<path class="st4" d="M566,198c-1,0-1.9,0.9-1.9,2s0.8,2,1.9,2s1.9-0.9,1.9-2S567,198,566,198z"/>
	<ellipse class="st4" cx="562.2" cy="211" rx="1.9" ry="2"/>
	<ellipse class="st4" cx="571.4" cy="210.3" rx="1.9" ry="2"/>
	<path class="st4" d="M614.1,187.6c1,0,1.9-0.9,1.9-2s-0.8-2-1.9-2c-1,0-1.9,0.9-1.9,2S613.1,187.6,614.1,187.6z"/>
	<path class="st4" d="M618.7,171.4c0.4,1,0.7,2,1,3c0.2-0.3,0.3-0.7,0.3-1.1C620,172.4,619.4,171.6,618.7,171.4z"/>
	<path class="st4" d="M618.1,171.3c-1,0-1.9,0.9-1.9,2s0.8,2,1.9,2c0.7,0,1.2-0.4,1.6-0.9c-0.3-1-0.6-2-1-3
		C618.5,171.3,618.3,171.3,618.1,171.3z"/>
</g>
</svg>
