<?xml version="1.0" encoding="utf-8"?>
<!-- Generator: Adobe Illustrator 26.3.0, SVG Export Plug-In . SVG Version: 6.00 Build 0)  -->
<svg version="1.1" id="Capa_1" xmlns="http://www.w3.org/2000/svg" xmlns:xlink="http://www.w3.org/1999/xlink" x="0px" y="0px"
	 viewBox="0 0 750 1334" style="enable-background:new 0 0 750 1334;" xml:space="preserve">
<style type="text/css">
	.st0{fill:#FF94BD;}
	.st1{fill:#D33054;}
	.st2{fill:#F6A17E;}
	.st3{fill:#FFB89F;}
	.st4{fill:#373151;}
</style>
<rect x="261" y="85" class="st0" width="234" height="152"/>
<g>
	<path class="st0" d="M295.5,83h-0.1c0,0.7,0,1.4,0,2.1C295.4,84.4,295.5,83.7,295.5,83z"/>
	<path class="st0" d="M372.2,164c-36.3,0-66.7-25.2-74.8-58.9c8,43.8,38.5,76.3,74.8,76.3c36.3,0,66.7-32.6,74.8-76.3
		C439,138.8,408.5,164,372.2,164z"/>
	<path class="st0" d="M449.1,83h-0.1c0,0.7,0.1,1.4,0.1,2.1C449,84.4,449,83.7,449.1,83z"/>
	<path class="st0" d="M700.7,82.8H449.1c0,0.1,0,0.1,0,0.2c0,0.7,0,1.4,0,2.1c0-0.7,0-1.4-0.1-2.1c-2.2-40.3-35.7-72.3-76.7-72.3
		s-74.5,32-76.7,72.3c0,0.7-0.1,1.4-0.1,2.1c0-0.7,0-1.4,0-2.1c0-0.1,0-0.1,0-0.2H44.3C22.6,82.8,5,105.6,5,133.7v1006.5
		c0,28.1,17.6,51,39.3,50.8h656.4c21.7,0,39.3-22.8,39.3-50.9V133.7C740,105.6,722.4,82.8,700.7,82.8z M340.7,42.5
		c8.5-8.4,25.4-5.6,31,7c4.2-14,23.2-16.3,31.8-7.6c0.4,0.4,0.8,0.8,1.1,1.2c4-0.5,8.1,1.3,10.2,5c2.9,4.9,1.3,11.3-3.7,14.2
		l-0.8,0.5c-0.5,3.8-2.2,7.2-4.3,10.4c-3.8,5.6-9.3,10.4-13.9,14.9c-0.4,0.4-0.7,0.7-1.1,1.1c-1.3,1.4-18.5,19.8-19.5,18.8
		c-5.9-5.7-11.7-11.6-17.6-17.5c-0.8-0.8-1.6-1.6-2.4-2.3c-4.6-4.5-9.8-8.9-13.5-13.9C331.2,64.5,332.4,50.8,340.7,42.5z
		 M372.2,181.4c-36.3,0-66.7-32.6-74.8-76.3c8,33.8,38.4,58.9,74.8,58.9c36.3,0,66.7-25.2,74.8-58.9
		C438.9,148.8,408.5,181.4,372.2,181.4z"/>
	<path class="st1" d="M351.6,88c0.8,0.8,1.6,1.6,2.4,2.3c5.9,5.9,11.7,11.8,17.6,17.5c1,1,18.2-17.4,19.5-18.8
		c0.4-0.4,0.7-0.7,1.1-1.1c4.6-4.5,10.1-9.3,13.9-14.9c2.2-3.2,3.8-6.6,4.3-10.4l-31.8,18.7c-5,2.9-11.3,1.3-14.2-3.7
		c-2.9-4.8-1.3-11.2,3.7-14l8.6-5.1l-0.1-0.1l15.1-8.9l0.1,0.1l8.9-5.2c1.3-0.7,2.6-1.2,4-1.3c-0.4-0.4-0.7-0.8-1.1-1.2
		c-8.6-8.6-27.6-6.4-31.8,7.6c-5.6-12.6-22.5-15.5-31-7c-8.3,8.3-9.6,22-2.6,31.6C341.9,79.1,347,83.5,351.6,88z"/>
	<path class="st2" d="M391.8,49.7l10.5,17.7l-15.1,8.9l-10.5-17.7l-8.6,5.1c-5,2.9-6.6,9.2-3.7,14c2.9,4.9,9.3,6.5,14.2,3.7
		l31.8-18.7l0.8-0.5c5-2.9,6.6-9.2,3.7-14.2c-2.1-3.7-6.2-5.5-10.2-5c-1.4,0.2-2.7,0.6-4,1.3L391.8,49.7z M370.3,75.7
		c-0.7,0-1.3-0.6-1.3-1.3c0-0.7,0.6-1.3,1.3-1.3c0.7,0,1.3,0.6,1.3,1.3C371.6,75.1,371,75.7,370.3,75.7z M372.9,68.8
		c-0.7,0-1.3-0.6-1.3-1.3s0.6-1.3,1.3-1.3c0.7,0,1.3,0.6,1.3,1.3S373.6,68.8,372.9,68.8z M376.5,75.2c-0.7,0-1.3-0.6-1.3-1.3
		c0-0.7,0.6-1.3,1.3-1.3s1.3,0.6,1.3,1.3C377.8,74.6,377.2,75.2,376.5,75.2z M408.3,49.5c0.1,0,0.3,0,0.4,0.1
		c0.5,0.2,0.9,0.6,0.9,1.2c0,0.2-0.1,0.5-0.2,0.7c-0.2,0.4-0.6,0.6-1.1,0.6c-0.7,0-1.3-0.6-1.3-1.3S407.6,49.5,408.3,49.5z
		 M405.6,57.2c0.7,0,1.3,0.6,1.3,1.3s-0.6,1.3-1.3,1.3c-0.7,0-1.3-0.6-1.3-1.3S404.9,57.2,405.6,57.2z M402.6,48.1
		c0.7,0,1.3,0.6,1.3,1.3s-0.6,1.3-1.3,1.3s-1.3-0.6-1.3-1.3S401.9,48.1,402.6,48.1z"/>
	<polygon class="st3" points="402.3,67.4 391.8,49.7 391.7,49.6 376.6,58.5 376.7,58.6 387.2,76.3 	"/>
	<ellipse class="st4" cx="402.6" cy="49.4" rx="1.3" ry="1.3"/>
	<path class="st4" d="M372.9,66.3c-0.7,0-1.3,0.6-1.3,1.3s0.6,1.3,1.3,1.3c0.7,0,1.3-0.6,1.3-1.3S373.6,66.3,372.9,66.3z"/>
	<path class="st4" d="M370.3,73.1c-0.7,0-1.3,0.6-1.3,1.3c0,0.7,0.6,1.3,1.3,1.3c0.7,0,1.3-0.6,1.3-1.3
		C371.6,73.7,371,73.1,370.3,73.1z"/>
	<path class="st4" d="M376.5,72.7c-0.7,0-1.3,0.6-1.3,1.3c0,0.7,0.6,1.3,1.3,1.3s1.3-0.6,1.3-1.3C377.8,73.2,377.2,72.7,376.5,72.7z
		"/>
	<ellipse class="st4" cx="405.6" cy="58.5" rx="1.3" ry="1.3"/>
	<path class="st4" d="M408.3,52.1c0.5,0,0.8-0.3,1.1-0.6c0.1-0.2,0.2-0.4,0.2-0.7c0-0.6-0.4-1-0.9-1.2c-0.1,0-0.2-0.1-0.4-0.1
		c-0.7,0-1.3,0.6-1.3,1.3S407.6,52.1,408.3,52.1z"/>
</g>
</svg>
