<?xml version="1.0" encoding="utf-8"?>
<!-- Generator: Adobe Illustrator 26.3.0, SVG Export Plug-In . SVG Version: 6.00 Build 0)  -->
<svg version="1.1" id="Capa_1" xmlns="http://www.w3.org/2000/svg" xmlns:xlink="http://www.w3.org/1999/xlink" x="0px" y="0px"
	 viewBox="0 0 1125 2036" style="enable-background:new 0 0 1125 2036;" xml:space="preserve">
<style type="text/css">
	.st0{clip-path:url(#SVGID_00000075861480992253063640000006134679052896996262_);fill:#FF94BD;}
	.st1{clip-path:url(#SVGID_00000075861480992253063640000006134679052896996262_);}
	.st2{clip-path:url(#SVGID_00000119804614063815424020000006796239438176665501_);fill:#FF94BD;}
	.st3{clip-path:url(#SVGID_00000119804614063815424020000006796239438176665501_);fill:#D33054;}
	
		.st4{clip-path:url(#SVGID_00000119804614063815424020000006796239438176665501_);fill:none;stroke:#373151;stroke-width:2.165;stroke-miterlimit:10;}
	.st5{clip-path:url(#SVGID_00000119804614063815424020000006796239438176665501_);fill:#F6A17E;}
	
		.st6{clip-path:url(#SVGID_00000119804614063815424020000006796239438176665501_);fill:none;stroke:#373151;stroke-width:1.85;stroke-miterlimit:10;}
	.st7{clip-path:url(#SVGID_00000119804614063815424020000006796239438176665501_);fill:#FFB89F;}
	.st8{clip-path:url(#SVGID_00000119804614063815424020000006796239438176665501_);fill:#373151;}
</style>
<g>
	<g>
		<defs>
			<rect id="SVGID_1_" y="4" width="1125" height="2016"/>
		</defs>
		<clipPath id="SVGID_00000016065440733851191590000000868922728625938353_">
			<use xlink:href="#SVGID_1_"  style="overflow:visible;"/>
		</clipPath>
		
			<rect x="399" y="117" style="clip-path:url(#SVGID_00000016065440733851191590000000868922728625938353_);fill:#FF94BD;" width="337" height="244"/>
		<g style="clip-path:url(#SVGID_00000016065440733851191590000000868922728625938353_);">
			<defs>
				<rect id="SVGID_00000132799060975417970990000002677597669311153589_" y="4" width="1125" height="2016"/>
			</defs>
			<clipPath id="SVGID_00000051369369053924846730000007226476525515249336_">
				<use xlink:href="#SVGID_00000132799060975417970990000002677597669311153589_"  style="overflow:visible;"/>
			</clipPath>
			<path style="clip-path:url(#SVGID_00000051369369053924846730000007226476525515249336_);fill:#FF94BD;" d="M1030,115H667
				c0,0.1,0,0.2,0,0.4c0,94.3-49.5,170.8-110.5,170.8S446,209.7,446,115.4c0-0.1,0-0.2,0-0.4H84.6C53.3,115,28,154.1,28,202.3
				v1728.4c0,48.2,25.3,87.6,56.6,87.3h944.8c31.2,0,56.6-39.1,56.6-87.3v-1728c0-48.2-25.3-87.3-56.6-87.3"/>
			<path style="clip-path:url(#SVGID_00000051369369053924846730000007226476525515249336_);fill:#FF94BD;" d="M510.8,111.3
				c-10.1-15.1-8.3-36.8,3.7-49.9c12.2-13.4,36.6-8.8,44.6,11.1c6-22.2,33.4-25.7,45.8-12.1c0.6,0.6,1.1,1.3,1.6,1.9
				c5.7-0.8,11.6,2.1,14.7,7.9c4.1,7.8,1.8,17.9-5.3,22.5l-1.1,0.7c-0.8,6-3.1,11.4-6.2,16.4c-5.2,8.3-12.5,15.5-18.8,22.2h80.7
				c-0.1-66.9-49.6-121.1-110.6-121.1S449.3,65.1,449.2,132H529C522.6,125.4,515.8,118.8,510.8,111.3"/>
			<path style="clip-path:url(#SVGID_00000051369369053924846730000007226476525515249336_);fill:#FF94BD;" d="M559.8,253.6
				c61.2,0,110.8-54.5,110.7-121.6c0,0,0,0,0,0h-80.7c-1,1-1.9,2-2.8,3c-1.8,2.3-26.7,31.3-28.1,29.8c-8.5-9.1-16.8-18.4-25.3-27.7
				c-1.5-1.7-3.1-3.4-4.7-5h-79.8c0,0,0,0,0,0C449.1,199.1,498.7,253.6,559.8,253.6"/>
			<path style="clip-path:url(#SVGID_00000051369369053924846730000007226476525515249336_);fill:#D33054;" d="M614.8,93.4
				L569,122.9c-7.1,4.5-16.3,2-20.5-5.8c-4.1-7.6-1.8-17.7,5.3-22.2l12.4-8.1l-0.1-0.2l21.8-14.2l0.1,0.2l12.8-8.3
				c1.8-1.2,3.8-1.9,5.8-2.1c-0.5-0.7-1.1-1.3-1.6-1.9c-12.4-13.6-39.8-10.1-45.8,12.1c-8.1-19.9-32.4-24.5-44.6-11.1
				c-12,13.1-13.8,34.8-3.7,49.9c5,7.4,11.8,14.1,18.1,20.7h60.9c6.3-6.7,13.6-13.9,18.8-22.2C611.7,104.8,614.1,99.4,614.8,93.4"/>
			
				<path style="clip-path:url(#SVGID_00000051369369053924846730000007226476525515249336_);fill:none;stroke:#373151;stroke-width:2.165;stroke-miterlimit:10;" d="
				M614.8,93.4L569,122.9c-7.1,4.5-16.3,2-20.5-5.8c-4.1-7.6-1.8-17.7,5.3-22.2l12.4-8.1l-0.1-0.2l21.8-14.2l0.1,0.2l12.8-8.3
				c1.8-1.2,3.8-1.9,5.8-2.1c-0.5-0.7-1.1-1.3-1.6-1.9c-12.4-13.6-39.8-10.1-45.8,12.1c-8.1-19.9-32.4-24.5-44.6-11.1
				c-12,13.1-13.8,34.8-3.7,49.9c5,7.4,11.8,14.1,18.1,20.7h60.9c6.3-6.7,13.6-13.9,18.8-22.2C611.7,104.8,614.1,99.4,614.8,93.4z"
				/>
			<path style="clip-path:url(#SVGID_00000051369369053924846730000007226476525515249336_);fill:#D33054;" d="M533.6,137
				c8.5,9.3,16.8,18.7,25.3,27.7c1.4,1.5,26.2-27.5,28.1-29.8c0.9-1,1.9-2,2.8-3H529C530.6,133.7,532.1,135.4,533.6,137"/>
			
				<path style="clip-path:url(#SVGID_00000051369369053924846730000007226476525515249336_);fill:none;stroke:#373151;stroke-width:2.165;stroke-miterlimit:10;" d="
				M533.6,137c8.5,9.3,16.8,18.7,25.3,27.7c1.4,1.5,26.2-27.5,28.1-29.8c0.9-1,1.9-2,2.8-3H529C530.6,133.7,532.1,135.4,533.6,137z"
				/>
			<path style="clip-path:url(#SVGID_00000051369369053924846730000007226476525515249336_);fill:#F6A17E;" d="M613.7,74.7
				c0,0.4-0.1,0.8-0.3,1.1c1.5,5.1,2.1,10.5,1.7,15.8c0,0.7-0.1,1.3-0.2,2l1.1-0.7c7.1-4.5,9.4-14.6,5.3-22.5
				c-3.1-5.8-9-8.7-14.7-7.9c2.4,3.1,4.4,6.6,5.8,10.3C613.1,73,613.7,73.8,613.7,74.7"/>
			
				<path style="clip-path:url(#SVGID_00000051369369053924846730000007226476525515249336_);fill:none;stroke:#373151;stroke-width:1.85;stroke-miterlimit:10;" d="
				M613.7,74.7c0,0.4-0.1,0.8-0.3,1.1c1.5,5.1,2.1,10.5,1.7,15.8c0,0.7-0.1,1.3-0.2,2l1.1-0.7c7.1-4.5,9.4-14.6,5.3-22.5
				c-3.1-5.8-9-8.7-14.7-7.9c2.4,3.1,4.4,6.6,5.8,10.3C613.1,73,613.7,73.8,613.7,74.7z"/>
			<path style="clip-path:url(#SVGID_00000051369369053924846730000007226476525515249336_);fill:#F6A17E;" d="M588,72.9l15.2,28
				l-21.8,14.2l-15.2-28l-12.4,8.1c-7.1,4.5-9.4,14.6-5.3,22.2c4.1,7.8,13.3,10.3,20.5,5.8l45.8-29.5c0.1-0.7,0.2-1.3,0.2-2
				c0.4-5.3-0.2-10.7-1.7-15.8c-0.3,0.6-0.9,0.9-1.5,0.9c-1,0-1.8-0.9-1.8-2c0-1.1,0.8-2,1.8-2c0.2,0,0.4,0,0.5,0.1
				c-1.4-3.7-3.4-7.2-5.8-10.3c-2,0.3-3.9,1-5.8,2.1L588,72.9z M557.1,114c-1,0-1.8-0.9-1.8-2c0-1.1,0.8-2,1.8-2c1,0,1.8,0.9,1.8,2
				C558.9,113.1,558.1,114,557.1,114 M560.8,103.2c-1,0-1.8-0.9-1.8-2c0-1.1,0.8-2,1.8-2c1,0,1.8,0.9,1.8,2
				C562.6,102.3,561.8,103.2,560.8,103.2 M566.1,113.3c-1,0-1.8-0.9-1.8-2c0-1.1,0.8-2,1.8-2s1.8,0.9,1.8,2
				C567.9,112.4,567.1,113.3,566.1,113.3 M607.9,84.8c1,0,1.8,0.9,1.8,2c0,1.1-0.8,2-1.8,2c-1,0-1.8-0.9-1.8-2
				C606.1,85.7,606.9,84.8,607.9,84.8 M603.6,70.4c1,0,1.8,0.9,1.8,2s-0.8,2-1.8,2c-1,0-1.8-0.9-1.8-2S602.5,70.4,603.6,70.4"/>
			
				<path style="clip-path:url(#SVGID_00000051369369053924846730000007226476525515249336_);fill:none;stroke:#373151;stroke-width:1.85;stroke-miterlimit:10;" d="
				M588,72.9l15.2,28l-21.8,14.2l-15.2-28l-12.4,8.1c-7.1,4.5-9.4,14.6-5.3,22.2c4.1,7.8,13.3,10.3,20.5,5.8l45.8-29.5
				c0.1-0.7,0.2-1.3,0.2-2c0.4-5.3-0.2-10.7-1.7-15.8c-0.3,0.6-0.9,0.9-1.5,0.9c-1,0-1.8-0.9-1.8-2c0-1.1,0.8-2,1.8-2
				c0.2,0,0.4,0,0.5,0.1c-1.4-3.7-3.4-7.2-5.8-10.3c-2,0.3-3.9,1-5.8,2.1L588,72.9z M557.1,114c-1,0-1.8-0.9-1.8-2
				c0-1.1,0.8-2,1.8-2c1,0,1.8,0.9,1.8,2C558.9,113.1,558.1,114,557.1,114z M560.8,103.2c-1,0-1.8-0.9-1.8-2c0-1.1,0.8-2,1.8-2
				c1,0,1.8,0.9,1.8,2C562.6,102.3,561.8,103.2,560.8,103.2z M566.1,113.3c-1,0-1.8-0.9-1.8-2c0-1.1,0.8-2,1.8-2s1.8,0.9,1.8,2
				C567.9,112.4,567.1,113.3,566.1,113.3z M607.9,84.8c1,0,1.8,0.9,1.8,2c0,1.1-0.8,2-1.8,2c-1,0-1.8-0.9-1.8-2
				C606.1,85.7,606.9,84.8,607.9,84.8z M603.6,70.4c1,0,1.8,0.9,1.8,2s-0.8,2-1.8,2c-1,0-1.8-0.9-1.8-2S602.5,70.4,603.6,70.4z"/>
			<polygon style="clip-path:url(#SVGID_00000051369369053924846730000007226476525515249336_);fill:#FFB89F;" points="587.9,72.7 
				566.2,86.9 566.3,87 588,72.9 			"/>
			
				<polygon style="clip-path:url(#SVGID_00000051369369053924846730000007226476525515249336_);fill:none;stroke:#373151;stroke-width:1.85;stroke-miterlimit:10;" points="
				587.9,72.7 566.2,86.9 566.3,87 588,72.9 			"/>
			<polygon style="clip-path:url(#SVGID_00000051369369053924846730000007226476525515249336_);fill:#FFB89F;" points="603.2,100.9 
				588,72.9 566.3,87 581.4,115.1 			"/>
			
				<polygon style="clip-path:url(#SVGID_00000051369369053924846730000007226476525515249336_);fill:none;stroke:#373151;stroke-width:1.85;stroke-miterlimit:10;" points="
				603.2,100.9 588,72.9 566.3,87 581.4,115.1 			"/>
			<path style="clip-path:url(#SVGID_00000051369369053924846730000007226476525515249336_);fill:#373151;" d="M603.6,74.4
				c1,0,1.8-0.9,1.8-2c0-1.1-0.8-2-1.8-2c-1,0-1.8,0.9-1.8,2C601.7,73.5,602.5,74.4,603.6,74.4"/>
			<path style="clip-path:url(#SVGID_00000051369369053924846730000007226476525515249336_);fill:#373151;" d="M560.8,99.1
				c-1,0-1.8,0.9-1.8,2c0,1.1,0.8,2,1.8,2c1,0,1.8-0.9,1.8-2C562.6,100,561.8,99.1,560.8,99.1"/>
			<path style="clip-path:url(#SVGID_00000051369369053924846730000007226476525515249336_);fill:#373151;" d="M557.1,110
				c-1,0-1.8,0.9-1.8,2c0,1.1,0.8,2,1.8,2c1,0,1.8-0.9,1.8-2C558.9,110.9,558.1,110,557.1,110"/>
			<path style="clip-path:url(#SVGID_00000051369369053924846730000007226476525515249336_);fill:#373151;" d="M566.1,109.2
				c-1,0-1.8,0.9-1.8,2c0,1.1,0.8,2,1.8,2c1,0,1.8-0.9,1.8-2C567.9,110.1,567.1,109.2,566.1,109.2"/>
			<path style="clip-path:url(#SVGID_00000051369369053924846730000007226476525515249336_);fill:#373151;" d="M607.9,88.8
				c1,0,1.8-0.9,1.8-2s-0.8-2-1.8-2c-1,0-1.8,0.9-1.8,2S606.9,88.8,607.9,88.8"/>
			<path style="clip-path:url(#SVGID_00000051369369053924846730000007226476525515249336_);fill:#373151;" d="M612.4,72.7
				c0.4,1,0.7,2,1,3c0.2-0.3,0.3-0.7,0.3-1.1C613.7,73.8,613.1,73,612.4,72.7"/>
			<path style="clip-path:url(#SVGID_00000051369369053924846730000007226476525515249336_);fill:#373151;" d="M611.8,72.6
				c-1,0-1.8,0.9-1.8,2c0,1.1,0.8,2,1.8,2c0.6,0,1.2-0.4,1.5-0.9c-0.3-1-0.6-2-1-3C612.2,72.7,612,72.6,611.8,72.6"/>
		</g>
	</g>
</g>
</svg>
