<?xml version="1.0" encoding="UTF-8"?>
<svg id="Capa_2" data-name="Capa 2" xmlns="http://www.w3.org/2000/svg" xmlns:xlink="http://www.w3.org/1999/xlink" viewBox="0 0 1364.15 2080.14">
  <defs>
    <style>
      .cls-1 {
        letter-spacing: .09em;
      }

      .cls-2, .cls-3, .cls-4, .cls-5, .cls-6, .cls-7, .cls-8, .cls-9, .cls-10, .cls-11, .cls-12, .cls-13, .cls-14, .cls-15, .cls-16, .cls-17 {
        stroke-width: 0px;
      }

      .cls-2, .cls-18, .cls-19 {
        fill: #4aa4a9;
      }

      .cls-20 {
        fill: #b390f1;
        stroke-width: 6.38px;
      }

      .cls-20, .cls-21, .cls-18, .cls-19 {
        stroke-linecap: round;
        stroke-linejoin: round;
      }

      .cls-20, .cls-21, .cls-18, .cls-19, .cls-22 {
        stroke: #373151;
      }

      .cls-3 {
        fill: #ff9e00;
      }

      .cls-23 {
        letter-spacing: 0em;
      }

      .cls-5 {
        fill: #5f271c;
      }

      .cls-24 {
        stroke: #000;
        stroke-width: 2.02px;
      }

      .cls-24, .cls-6, .cls-21, .cls-22 {
        fill: none;
      }

      .cls-24, .cls-22 {
        stroke-miterlimit: 10;
      }

      .cls-21 {
        stroke-width: 5.47px;
      }

      .cls-7 {
        fill: #373151;
      }

      .cls-8 {
        fill: #005e73;
      }

      .cls-9 {
        fill: #dce5d3;
      }

      .cls-25 {
        font-size: 21.51px;
        letter-spacing: -.04em;
      }

      .cls-25, .cls-10, .cls-11, .cls-26 {
        fill: #fff;
      }

      .cls-25, .cls-26 {
        font-family: OpenSans-Semibold, 'Open Sans';
        font-weight: 600;
      }

      .cls-27 {
        fill: #2c444a;
        font-family: RobotoFlex-Regular, 'Roboto Flex';
        font-size: 31.57px;
        font-variation-settings: 'wght' 400, 'wdth' 100, 'opsz' 14, 'GRAD' 0, 'slnt' 0, 'XTRA' 468, 'XOPQ' 96, 'YOPQ' 79, 'YTLC' 514, 'YTUC' 712, 'YTAS' 750, 'YTDE' -203, 'YTFI' 738;
      }

      .cls-11 {
        opacity: .6;
      }

      .cls-12 {
        fill: #7c8b8f;
      }

      .cls-13 {
        fill: #744339;
      }

      .cls-14 {
        fill: #6db546;
      }

      .cls-28 {
        clip-path: url(#clippath);
      }

      .cls-15 {
        fill: #fe786d;
      }

      .cls-16 {
        fill: #2e6fff;
      }

      .cls-18 {
        stroke-width: 3.24px;
      }

      .cls-19 {
        stroke-width: 4.48px;
      }

      .cls-17 {
        fill: #724036;
      }

      .cls-22 {
        stroke-width: 8.66px;
      }

      .cls-26 {
        font-size: 15.4px;
      }
    </style>
    <clipPath id="clippath">
      <rect class="cls-6" x="238.81" y="56" width="1050.67" height="1157.33"/>
    </clipPath>
  </defs>
  <g id="Capa_1-2" data-name="Capa 1">
    <g class="cls-28">
      <g>
        <g>
          <path class="cls-13" d="M1057.54,298.52s28.04-13.16,46.72-39.96c18.68-26.8,28.71-48.79,12.98-70.2-14.35-19.54-35.2-15.84-40.13-14.77-11.39,2.47-21.39,5.76-21.39,5.76l1.82,119.16Z"/>
          <path class="cls-17" d="M1091.12,274.09c-16.42,16.34-33.58,24.43-33.58,24.43l-1.82-119.16s10-3.29,21.39-5.76c1.1-.24,3.01-.59,5.42-.81-.04,11.67.4,26.79,1.89,45.98,1.96,25.22,4.5,43.17,6.69,55.32Z"/>
          <path class="cls-21" d="M1058.55,298.52s28.04-13.16,46.72-39.96c18.68-26.8,28.71-48.79,12.98-70.2-14.35-19.54-35.2-15.84-40.13-14.77-11.39,2.47-21.39,5.76-21.39,5.76l1.82,119.16Z"/>
          <path class="cls-15" d="M574.91,1207.65c-2.18-.64-3.66-2.77-3.4-5.1,0-.02,2.97-26.93,8.46-80.96,7.45-73.3,6.41-110.57,6.4-110.93-.08-2.64,1.99-4.84,4.62-4.93,2.66-.05,4.84,2,4.92,4.62.01.37,1.09,38.17-6.44,112.2-5.5,54.09-8.47,81.03-8.47,81.03-.29,2.63-2.65,4.51-5.27,4.22-.28-.03-.56-.09-.82-.16Z"/>
          <path class="cls-13" d="M388.84,1072.2c4.91-26.93,29.27-150.35,29.31-197.87.04-47.52-26.5-180.39-11.68-251.68,14.82-71.29,60.45-115.54,69.58-142.72,9.13-27.19,16.03-44,46.49-81.05,30.46-37.06,29.75-134.82,64.77-133.76,35.02,1.06,29.4,60,31.34,83.04,1.94,23.04-2.64,87.54-4.94,93.15-2.3,5.6-26.62,37.24-26.62,37.24,0,0,5.36,29.11,3.9,37.88l-1.46,8.77,78.62-40.05,70.2,369.45c-.08,30.9,39.99,59.16,71.43,59.11l19.48,20.54s-32.01,41.61-57.52,63.88c-25.51,22.26-53.24,55.7-58.43,80.84-5.19,25.14-274.21,998.64-274.21,998.64L0,2052.28s361.9-832.37,388.84-980.08Z"/>
          <path class="cls-21" d="M824.57,946.13c-11.43,14.03-31.08,37.12-47.9,51.8-25.51,22.26-53.24,55.7-58.43,80.84-5.19,25.14-274.21,998.64-274.21,998.64l-439.11-25.32s361.9-832.37,388.84-980.08c4.91-26.93,29.27-150.35,29.31-197.87.04-47.52-26.5-180.39-11.68-251.68,14.82-71.29,60.45-115.54,69.58-142.72,9.13-27.19,16.03-44,46.49-81.05,30.46-37.06,29.75-134.82,64.77-133.76,35.02,1.06,29.4,60,31.34,83.04,1.94,23.04-2.64,87.54-4.94,93.15-2.3,5.6-26.62,37.24-26.62,37.24,0,0,5.36,29.11,3.9,37.88l-1.46,8.77,14.9-9.54"/>
          <path class="cls-20" d="M585.32,310.36c4.6-18.46-3.77-35.22-7.82-41.96-.1-.22-.23-.42-.4-.6-.88-.97-2.37-1.04-3.35-.17l-.06.05s-.01.02-.02.03l-1.27,1.13c-13.37,12.71-19.54,41.23-26.09,71.42l-2.15,9.86c-.17.75.04,1.54.56,2.12.4.45.95.72,1.54.78.17.02.34.01.5,0,3.88-.45,11.13-1.62,16.06-4.45,7.32-4.19,17.08-16.43,22.5-38.2Z"/>
          <path class="cls-21" d="M590.07,475.38s-17.06-15.28-33.63-9.83"/>
        </g>
        <g>
          <g>
            <g>
              <rect class="cls-18" x="998.76" y="232.02" width="93.55" height="44.84" rx="3.26" ry="3.26" transform="translate(1299.98 -791.1) rotate(90)"/>
              <rect class="cls-18" x="998.76" y="334.3" width="93.55" height="44.84" rx="3.26" ry="3.26" transform="translate(1402.26 -688.82) rotate(90)"/>
              <rect class="cls-18" x="998.76" y="479.18" width="93.55" height="44.84" rx="3.26" ry="3.26" transform="translate(1547.14 -543.94) rotate(90)"/>
              <rect class="cls-19" x="388.54" y="378.02" width="907.48" height="434.63" rx="16.98" ry="16.98" transform="translate(1437.62 -246.95) rotate(90)"/>
            </g>
            <rect class="cls-8" x="419.12" y="403.16" width="848.18" height="404.65" rx="8.69" ry="8.69" transform="translate(1448.7 -237.73) rotate(90)"/>
            <g>
              <rect class="cls-7" x="836.78" y="86.19" width="11.94" height="153.1" rx="5.97" ry="5.97" transform="translate(1005.48 -680.01) rotate(90)"/>
              <circle class="cls-7" cx="972.36" cy="161.5" r="7.52"/>
            </g>
          </g>
          <path class="cls-2" d="M931.81,170.61h-179.36c-3.01,0-5.45,2.44-5.45,5.45v.32c0,3.01,2.44,5.45,5.45,5.45h7.02c3.01,0,5.45,2.44,5.45,5.45h0c0,3.01,2.44,5.45,5.45,5.45h143.54c3.01,0,5.45-2.44,5.45-5.45h0c0-3.01,2.44-5.45,5.45-5.45h7.02c3.01,0,5.45-2.44,5.45-5.45v-.32c0-3.01-2.44-5.45-5.45-5.45Z"/>
          <path class="cls-10" d="M848.06,1017.19h-13.72c-3.7,0-6.72-3.01-6.72-6.72v-13.72c0-3.7,3.01-6.72,6.72-6.72h13.72c3.7,0,6.72,3.01,6.72,6.72v13.72c0,3.7-3.01,6.72-6.72,6.72ZM834.34,993.47c-1.81,0-3.29,1.48-3.29,3.29v13.72c0,1.81,1.47,3.29,3.29,3.29h13.72c1.81,0,3.29-1.48,3.29-3.29v-13.72c0-1.81-1.47-3.29-3.29-3.29h-13.72Z"/>
          <path class="cls-10" d="M974.66,1017.19c-.51,0-1.02-.23-1.36-.67-.58-.75-.44-1.83.31-2.4l11.98-9.22c.51-.4.8-.88.8-1.36s-.28-.97-.8-1.36l-11.98-9.22c-.75-.58-.89-1.65-.31-2.4.58-.75,1.66-.89,2.4-.31l11.98,9.22c1.36,1.04,2.13,2.53,2.13,4.08s-.78,3.04-2.13,4.08l-11.98,9.22c-.31.24-.68.36-1.05.36Z"/>
          <g>
            <path class="cls-10" d="M718.03,995.35h-23.72c-.95,0-1.71-.77-1.71-1.71s.77-1.72,1.71-1.72h23.72c.95,0,1.71.77,1.71,1.72s-.77,1.71-1.71,1.71Z"/>
            <path class="cls-10" d="M718.03,1005.25h-23.72c-.95,0-1.71-.77-1.71-1.71s.77-1.71,1.71-1.71h23.72c.95,0,1.71.77,1.71,1.71s-.77,1.71-1.71,1.71Z"/>
            <path class="cls-10" d="M718.03,1015.14h-23.72c-.95,0-1.71-.77-1.71-1.71s.77-1.71,1.71-1.71h23.72c.95,0,1.71.77,1.71,1.71s-.77,1.71-1.71,1.71Z"/>
          </g>
          <rect class="cls-12" x="645.31" y="974.69" width="391.79" height="2.41"/>
          <rect class="cls-9" x="639.84" y="215.35" width="404.62" height="82.68"/>
          <g>
            <g>
              <g>
                <rect class="cls-10" x="662.1" y="188.99" width="1.71" height="14.67"/>
                <rect class="cls-10" x="658.25" y="193.28" width="1.71" height="10.38"/>
                <rect class="cls-10" x="654.4" y="197.17" width="1.71" height="6.48"/>
                <rect class="cls-10" x="650.55" y="200.25" width="1.71" height="3.41"/>
              </g>
              <g>
                <path class="cls-10" d="M669.82,194.6c-.13,0-.26-.04-.37-.11-.15-.1-.25-.25-.29-.43-.03-.18,0-.36.1-.5,1.67-2.5,4.46-3.99,7.46-3.99s5.77,1.48,7.44,3.96c.1.15.14.33.1.5-.03.18-.14.33-.29.43-.11.08-.24.11-.37.11-.22,0-.43-.11-.56-.3-1.42-2.11-3.78-3.37-6.32-3.37s-4.92,1.27-6.34,3.39c-.12.19-.33.3-.56.3Z"/>
                <path class="cls-10" d="M671.16,197c-.13,0-.26-.04-.37-.11-.15-.1-.25-.25-.29-.43-.03-.18,0-.35.1-.5,1.37-2.05,3.65-3.27,6.11-3.27s4.73,1.21,6.09,3.25c.21.31.12.72-.18.93-.11.08-.24.11-.38.11-.22,0-.43-.11-.56-.3-1.12-1.66-2.98-2.65-4.98-2.65s-3.87,1-4.99,2.67c-.12.19-.33.3-.56.3Z"/>
                <path class="cls-10" d="M673.14,199.24c-.13,0-.26-.04-.37-.11-.31-.21-.39-.62-.18-.93.92-1.38,2.46-2.21,4.12-2.21s3.19.82,4.12,2.19c.21.31.12.72-.18.93-.11.08-.24.12-.38.12-.22,0-.43-.11-.56-.3-.67-1-1.8-1.6-3-1.6s-2.33.6-3.01,1.61c-.13.19-.34.3-.56.3Z"/>
                <path class="cls-10" d="M676.71,203.08c-1.13,0-2.05-.92-2.05-2.05s.92-2.05,2.05-2.05,2.05.92,2.05,2.05-.92,2.05-2.05,2.05Z"/>
              </g>
            </g>
            <g>
              <polygon class="cls-11" points="1033.13 197.15 1035.5 197.15 1035.5 189.37 1033.13 189.37 1033.13 187.67 1014.86 187.67 1014.86 198.85 1033.13 198.85 1033.13 197.15"/>
              <rect class="cls-10" x="1014.86" y="187.67" width="13.66" height="11.18"/>
            </g>
          </g>
          <g>
            <text class="cls-26" transform="translate(690.88 201.95)"><tspan x="0" y="0">21:18</tspan></text>
            <text class="cls-26" transform="translate(978.8 199.84)"><tspan x="0" y="0">85%</tspan></text>
          </g>
          <text class="cls-27" transform="translate(732.5 273.12)"><tspan x="0" y="0">Sebas</tspan><tspan class="cls-1" x="86.24" y="0">(</tspan><tspan class="cls-23" x="99.8" y="0">juegos)</tspan></text>
          <g>
            <circle class="cls-10" cx="691.28" cy="259.19" r="28.07"/>
            <path class="cls-16" d="M680.87,270.63l-6.11,8.37-1.45,1.93s6.85,6.8,19.3,6.55c0,0,10.27-.26,16.82-6.55l-7.68-10.32s-4.39,1.46-5.54,1.72-3.3.45-3.3.45l-4.27-.19-7.76-1.95Z"/>
            <g>
              <path class="cls-4" d="M700.78,261.48c-.3.85-.7,1.97-1.09,3.08,3.61,2.83,3.96,3.73,2.25,6.17,2.45,2.27,4.72,4.73,6.25,7.73-.13.11-.27.23-.4.34-.31-.34-.62-.67-.92-1.02-1.68-1.97-3.32-3.98-5.07-5.89-.3-.32-1.07-.4-1.57-.3-2.1.41-4.18.94-6.6,1.5v5.64c-.18,0-.36,0-.54-.01v-5.82h-2.89c-.1,1.14-.19,2.21-.29,3.28-.2,0-.4-.01-.61-.02-.06-1.08-.12-2.17-.17-3.05-2.39-.61-4.64-1.22-6.91-1.74-.31-.07-.82.23-1.07.52-1.7,1.95-3.35,3.95-5.02,5.92-.3.35-.62.68-1.12.86,1.28-3.21,3.59-5.62,6.03-7.92-1.67-2.58-1.44-3.21,2.25-6.22-.37-1.08-.75-2.16-1.17-3.36-1.53.48-2.63-.11-3.17-1.56-.86-2.28-1.32-4.55,1.22-6.51-1.51-.11-2.74-.2-3.98-.29.01-.19.02-.39.03-.58,1.14-.07,2.29-.13,3.59-.21,0-1.79,0-3.51,0-5.23.02-4.65,2.8-7.41,7.48-7.42,2.98,0,5.97-.02,8.95,0,4.02.03,6.87,2.92,6.89,6.95.01,2.12-.03,4.24,0,6.35,0,.36.16.81.4,1.07,1.58,1.61,1.47,5.68-.35,7.05-.57.43-1.47.43-2.42.68ZM680.37,254.27c-1.7,1.22-1.53,5.14.21,6.06.16.09.4.18.54.13,1.83-.71,1.92.72,2.28,1.83,1.36,4.17,3.94,6.07,8.22,6.04,4.14-.03,6.74-2.01,8.02-6.12.09-.27.17-.55.24-.83.19-.82.56-1.17,1.53-1.05.55.06,1.5-.37,1.69-.83.44-1.08.68-2.29.71-3.46.02-.62-.57-1.26-.93-1.97-2.03,1.88-2.48,1.78-3.62-.33-.19-.36-.76-.73-1.16-.73-4.42-.05-8.85-.05-13.27,0-.38,0-.91.42-1.1.79-1.04,2-1.66,2.12-3.37.47ZM696.42,252.05c0-2.67.03-5.17,0-7.67-.03-2.23-1.36-3.76-3.47-4.12-3.09-.53-5.2.36-6.05,2.58-.09.22-.21.45-.21.68-.01,2.82,0,5.64,0,8.52h9.75ZM687.64,240.32c-3.13-.38-6.04,1.24-6.63,4.07-.52,2.48-.36,5.09-.5,7.61h5.24c0-2.37.04-4.63-.01-6.88-.04-1.82.41-3.41,1.91-4.8ZM695.31,240.31c1.71,1.47,1.97,3.21,1.91,5.1-.07,2.19-.02,4.38-.02,6.62h5.01c0-2.42.25-4.79-.06-7.08-.42-3.08-3.41-5.03-6.84-4.65ZM699.38,265.49c-1.13.95-2.08,1.74-3.02,2.55-.2.17-.38.41-.47.66-.37,1.01-.7,2.03-1.17,3.4,1.89-.5,3.77-.79,5.49-1.49,2.39-.98,2.5-2.56.49-4.21-.44-.36-.94-.64-1.32-.9ZM683.63,265.49c-.43.29-.97.6-1.45.98-1.8,1.46-1.75,3.09.35,3.99,1.78.76,3.74,1.1,5.68,1.64-.56-3.08-2.3-4.93-4.58-6.62ZM694.9,269h-6.73c.05,1.62,1.36,2.93,3.14,3.04,1.8.11,3.27-1.16,3.59-3.04Z"/>
              <path class="cls-10" d="M680.37,254.27c1.7,1.66,2.33,1.53,3.37-.47.19-.37.72-.78,1.1-.79,4.42-.06,8.85-.06,13.27,0,.4,0,.96.38,1.16.73,1.14,2.12,1.59,2.22,3.62.33.36.71.94,1.35.93,1.97-.03,1.17-.27,2.38-.71,3.46-.19.45-1.14.89-1.69.83-.97-.12-1.34.23-1.53,1.05-.07.28-.16.55-.24.83-1.28,4.11-3.88,6.09-8.02,6.12-4.28.03-6.86-1.87-8.22-6.04-.36-1.12-.45-2.54-2.28-1.83-.14.06-.38-.04-.54-.13-1.73-.92-1.91-4.84-.21-6.06ZM688.77,255.39c-.62-.45-.99-.93-1.29-.89-.33.04-.72.54-.82.91-.05.18.49.74.77.74.35,0,.71-.38,1.34-.76ZM696.8,255.39c-.59-.44-.91-.86-1.28-.9-.25-.03-.82.5-.79.72.04.36.43.89.73.93.32.05.72-.38,1.34-.75Z"/>
              <path class="cls-10" d="M696.42,252.05h-9.75c0-2.88,0-5.7,0-8.52,0-.23.13-.46.21-.68.86-2.22,2.96-3.12,6.05-2.58,2.11.36,3.44,1.9,3.47,4.12.04,2.5,0,5,0,7.67Z"/>
              <path class="cls-10" d="M687.64,240.32c-1.5,1.39-1.95,2.99-1.91,4.8.05,2.25.01,4.51.01,6.88h-5.24c.14-2.52-.01-5.14.5-7.61.59-2.83,3.51-4.45,6.63-4.07Z"/>
              <path class="cls-10" d="M695.31,240.31c3.43-.38,6.41,1.57,6.84,4.65.31,2.29.06,4.67.06,7.08h-5.01c0-2.24-.05-4.43.02-6.62.06-1.89-.2-3.63-1.91-5.1Z"/>
              <path class="cls-10" d="M699.38,265.49c.38.26.89.54,1.32.9,2.01,1.65,1.9,3.24-.49,4.21-1.72.7-3.6,1-5.49,1.49.47-1.37.8-2.39,1.17-3.4.09-.24.27-.48.47-.66.93-.81,1.89-1.6,3.02-2.55Z"/>
              <path class="cls-10" d="M683.63,265.49c2.28,1.69,4.02,3.54,4.58,6.62-1.94-.54-3.9-.88-5.68-1.64-2.1-.9-2.15-2.53-.35-3.99.48-.38,1.01-.69,1.45-.98Z"/>
              <path class="cls-10" d="M694.9,269c-.32,1.88-1.79,3.14-3.59,3.04-1.78-.1-3.08-1.42-3.14-3.04h6.73Z"/>
              <path class="cls-4" d="M688.77,255.39c-.63.39-.99.77-1.34.76-.28,0-.82-.56-.77-.74.1-.37.49-.87.82-.91.3-.04.68.44,1.29.89Z"/>
              <path class="cls-4" d="M696.8,255.39c-.62.37-1.02.8-1.34.75-.3-.05-.69-.58-.73-.93-.03-.22.54-.75.79-.72.37.04.69.46,1.28.9Z"/>
            </g>
            <circle class="cls-24" cx="691.28" cy="259.19" r="28.07"/>
          </g>
        </g>
      </g>
      <path class="cls-21" d="M600.1,560.43s32.79,68.01,19.43,154.24"/>
      <path class="cls-13" d="M1061.41,743.83l-1.45-94.94s20.74-1.69,31.38-.69c10.64,1,5.75,99.6,5.75,99.6-12.89,4.53-35.56,4.28-35.56,4.28l-.13-8.25"/>
      <path class="cls-5" d="M1095.75,479.01c-10.55-.54-39.2-1.3-39.2-1.3l3.15,24.21,36.04-22.92Z"/>
      <path class="cls-13" d="M1147.05,691.45c1.53,30.74-18.17,42.97-28.41,49.49-10.24,6.52-31.41,9.49-44.71,6.51-13.3-2.98-38.23-20.63-36.8-48.49,1.43-27.86,7.58-41.75,28.96-48.44,21.38-6.69,52.79,1.35,61.35,6.76,10.37,6.54,18.61,14.03,19.61,34.17Z"/>
      <path class="cls-13" d="M1079.66,485.62c2.18-1.13,4.19-2.14,5.91-2.99"/>
      <path class="cls-13" d="M1111.34,484.18c11.19,5.45,22.02,14.49,27.48,32.65,4.61,15.34,2,26.75-9.94,43.64-11.94,16.89-23.41,29.79-33.69,33.66-10.28,3.87-37.6,3.49-50.5-7.98-12.9-11.47-21.9-27.77-14.79-48.56,7.11-20.79,19.65-32.91,31.72-41.32,5.59-3.89,12.37-7.69,18.05-10.64"/>
      <path class="cls-13" d="M1066.49,356.28s35.58-1.34,50.54,14.54c14.96,15.88,18.14,29.16,18.31,40.29.17,11.13-.33,17.51-2.04,22.7-1.71,5.2-2.97,14.16-3.29,18.94-.33,4.78-1.4,25.87-33.55,29.94-32.16,4.07-42.36-13.28-46.63-19.57-4.27-6.3-5.29-7.68-5.79-27.56-.5-19.88,3.87-32.87,10.29-42.52,6.42-9.64,12.14-19.85,12.14-19.85l.03-16.93Z"/>
      <path class="cls-21" d="M1056.98,738.07c-10.39-8.35-19.74-21.75-18.85-39.12,1.43-27.86,7.58-41.75,28.96-48.44,21.38-6.69,52.79,1.35,61.35,6.76,10.37,6.54,18.61,14.03,19.61,34.17,1.53,30.74-18.17,42.97-28.41,49.49-10.24,6.52-31.41,9.49-44.71,6.51-5.01-1.12-11.67-4.33-17.95-9.37"/>
      <path class="cls-21" d="M1112.63,484.31c11.09,5.46,21.78,14.51,27.2,32.52,4.61,15.34,2,26.75-9.94,43.64-11.94,16.89-23.41,29.79-33.69,33.66-10.28,3.87-37.6,3.49-50.5-7.98-12.9-11.47-21.9-27.77-14.79-48.56,7.11-20.79,19.65-32.91,31.72-41.32,5.62-3.91,12.44-7.72,18.13-10.68"/>
      <path class="cls-21" d="M1109.67,482.94c.99.43,1.98.89,2.96,1.38"/>
      <path class="cls-21" d="M1067.5,356.28s35.58-1.34,50.54,14.54c14.96,15.88,18.14,29.16,18.31,40.29.17,11.13-.33,17.51-2.04,22.7-1.71,5.2-2.97,14.16-3.29,18.94-.33,4.78-1.4,25.87-33.55,29.94-32.16,4.07-42.36-13.28-46.63-19.57-4.27-6.3-5.29-7.68-5.79-27.56-.5-19.88,3.87-32.87,10.29-42.52,6.42-9.64,12.14-19.85,12.14-19.85l.03-16.93Z"/>
      <path class="cls-20" d="M1136.78,428.87c-.08-.45-1.95-11.13-8.99-21.8-11.4-17.27-33.31-18.29-34.24-18.32-1.01-.04-1.94.57-2.31,1.51-.37.95-.1,2.03.67,2.68.1.09,9.86,8.5,19.76,21.89,9.79,13.24,15.96,38.23,16.02,38.48.21.85.85,1.49,1.65,1.73.28.08.58.11.87.09,1.18-.1,2.1-1.05,2.18-2.22.52-7.65,2.41-16.02,3.17-18.35.5-1.52.89-3.11,1.21-4.87.05-.28.05-.56,0-.83Z"/>
      <path class="cls-21" d="M1072.59,481.34c-13.99-4.17-19.81-13.84-22.77-18.21-4.27-6.3-5.29-7.67-5.79-27.55-.5-19.88,3.87-32.87,10.29-42.52,3.19-4.79,6.2-9.72,8.43-13.47"/>
      <path class="cls-21" d="M1059.18,593.6c-5.55-1.63-10.66-4.05-14.49-7.46-12.9-11.47-21.9-27.77-14.79-48.56,3.31-9.69,7.81-17.5,12.89-23.93"/>
      <path class="cls-21" d="M1063.75,743.31c-12.91-7.21-27.74-22.68-26.62-44.36,1.22-23.73,5.9-37.3,20.46-44.94"/>
      <path class="cls-20" d="M1117.35,519.79c-3.87-5.63-11-11.78-20.66-14.75-.19-.06-.37-.12-.56-.17-2.56-.75-5.28-1.28-8.17-1.51-14.55-1.13-23.64,6.88-24.01,7.22-.61.55-.89,1.36-.76,2.17.13.8.67,1.48,1.41,1.8.14.06,14.23,6.27,27.42,23.03,12.8,16.27,10.16,29.03,10.13,29.15-.25,1.07.26,2.17,1.24,2.67.14.07.28.12.41.16.89.26,1.86-.01,2.48-.73.79-.91,7.8-9.06,9.6-12.52,1.17-2.25,11.18-22.39,1.47-36.52Z"/>
      <path class="cls-20" d="M1117.37,686.79c-1.54-19.3-30.35-30.87-31.57-31.35-1-.49-2.04-.1-2.7.68-.66.78-.75,1.9-.23,2.77.06.1,5.84,9.9,8.36,29.08,2.55,19.37.45,32,.43,32.13-.15.91.22,1.82.97,2.35.22.15.46.27.71.34.6.18,1.27.11,1.83-.2.34-.19,8.38-4.71,13.51-10.66,4.58-5.32,9.78-11.35,8.67-25.14Z"/>
      <rect class="cls-6" x="313.48" width="1050.67" height="1312"/>
      <g>
        <path class="cls-14" d="M397.94,1026.86l-3.44,20.36-.02.13c-7.05.71-13.79,3.22-18.79,7.18-7.47,5.91-10.89,14.93-8.86,23.32,1.27,5.2,4.47,10.04,8.45,14.32,1.66,1.79,3.46,3.5,5.38,5.11,8.73,7.43,19.75,13.14,30.82,18.3,69.21,32.2,149.51,48.56,228.59,46.55,16.46-.42,32.96-1.63,48.81-4.96.34-.06.71-.14,1.05-.21,10.98-2.37,21.87-5.91,30.01-12.19,8.13-6.27,13.08-15.69,10.46-24.65-2.55-8.77-11.25-15.04-21.38-19.7,2.61-6.07,5.42-12.07,8.44-18.02,17.54,5.5,32.88,13.74,40.11,26.53,10.01,17.67.6,39.05-16.96,51.79-15.95,11.57-37.2,17.26-58.66,20.62-2.16.35-4.34.66-6.51.96-94.7,12.89-194.83-7.79-278.46-48.03-8.52-4.09-16.96-8.44-24.77-13.38-6.23-3.9-12.04-8.18-17.2-12.99-11.61-10.84-19.55-24.8-18.48-38.83,1.06-13.6,10.8-26.23,24.84-33.73,10.66-5.7,23.58-8.5,36.57-8.51Z"/>
        <path class="cls-3" d="M469.56,1190.67c11.45,10.27,28.63,15.83,45.63,16.58,29.63,1.31,57.99-16.93,62.46-40.17,4.47-23.24-15.54-48.41-44.07-55.42-13.4-3.29-27.97-2.86-41.06.63-23.83,6.36-36.87,20.96-38.1,42.19-.71,12.28,4.12,26.31,15.14,36.19Z"/>
        <g>
          <path class="cls-22" d="M441.89,1147.6c-15.65-5.8-30.9-12.29-45.64-19.38-8.52-4.09-16.96-8.44-24.77-13.38-6.23-3.9-12.04-8.18-17.2-12.99-11.61-10.84-19.55-24.8-18.48-38.83,1.06-13.6,10.8-26.23,24.84-33.73,6.9-3.69,14.74-6.16,22.94-7.45"/>
          <path class="cls-22" d="M735.4,1083.88c9.34,4.87,16.96,11.06,21.45,19.01,10.01,17.67.6,39.05-16.96,51.79-15.95,11.57-37.2,17.26-58.66,20.62-2.16.35-4.34.66-6.51.96-29.98,4.08-60.5,4.8-90.87,2.59"/>
          <path class="cls-22" d="M591.4,1155.07c15.96,1.07,31.98,1.41,47.94,1.01,16.46-.42,32.96-1.63,48.81-4.96.34-.06.71-.14,1.05-.21,10.98-2.37,21.87-5.91,30.01-12.19,8.13-6.27,13.08-15.69,10.46-24.65-1.84-6.34-6.89-11.37-13.37-15.43"/>
          <path class="cls-22" d="M388.28,1042.21c-5,1.2-9.63,3.33-13.32,6.26-7.47,5.91-10.89,14.93-8.86,23.32,1.27,5.2,4.47,10.04,8.45,14.32,1.66,1.79,3.46,3.5,5.38,5.11,8.73,7.43,19.75,13.14,30.82,18.3,13.32,6.2,27.04,11.8,41.09,16.81"/>
          <path class="cls-22" d="M468.83,1184.6c11.45,10.27,28.63,15.83,45.63,16.58,29.63,1.31,57.99-16.93,62.46-40.17,4.47-23.24-15.54-48.41-44.07-55.42-13.4-3.29-27.97-2.86-41.06.63-23.83,6.36-36.87,20.96-38.1,42.19-.71,12.28,4.12,26.31,15.14,36.19Z"/>
        </g>
      </g>
      <text class="cls-25" transform="translate(824.97 334.14)"><tspan x="0" y="0">Hoy</tspan></text>
    </g>
  </g>
</svg>