<?xml version="1.0" encoding="UTF-8"?>
<svg id="Capa_1" data-name="Capa 1" xmlns="http://www.w3.org/2000/svg" xmlns:xlink="http://www.w3.org/1999/xlink" viewBox="0 0 1857.8 928.5">
  <defs>
    <style>
      .cls-1 {
        stroke-width: 5px;
      }

      .cls-1, .cls-2, .cls-3, .cls-4, .cls-5, .cls-6, .cls-7, .cls-8 {
        stroke: #373151;
      }

      .cls-1, .cls-3, .cls-4, .cls-5, .cls-6 {
        stroke-linecap: round;
        stroke-linejoin: round;
      }

      .cls-1, .cls-5 {
        fill: #4aa4a9;
      }

      .cls-9, .cls-8 {
        fill: #fff;
      }

      .cls-10 {
        fill: #373151;
      }

      .cls-2 {
        fill: #fffefe;
        stroke-width: 1.51px;
      }

      .cls-2, .cls-7, .cls-8 {
        stroke-miterlimit: 10;
      }

      .cls-3 {
        fill: #b390f1;
      }

      .cls-3, .cls-6 {
        stroke-width: 5.74px;
      }

      .cls-11 {
        clip-path: url(#clippath-1);
      }

      .cls-12 {
        fill: #63332c;
      }

      .cls-13 {
        fill: #606060;
      }

      .cls-13, .cls-14 {
        isolation: isolate;
        opacity: .2;
      }

      .cls-15 {
        fill: #2b4579;
      }

      .cls-4 {
        stroke-width: 7px;
      }

      .cls-4, .cls-16, .cls-6 {
        fill: none;
      }

      .cls-5 {
        stroke-width: 3.61px;
      }

      .cls-17 {
        clip-path: url(#clippath);
      }

      .cls-18 {
        fill: #6e3b31;
      }

      .cls-19 {
        fill: #ffda25;
      }

      .cls-20 {
        fill: #744339;
      }

      .cls-7 {
        fill: #e74f00;
        stroke-width: 4px;
      }

      .cls-8 {
        stroke-width: 1.77px;
      }
    </style>
    <clipPath id="clippath">
      <rect class="cls-16" width="1862.6" height="928.4"/>
    </clipPath>
    <clipPath id="clippath-1">
      <rect class="cls-16" x="495.4" y="27.3" width="947.1" height="451.8" rx="9.7" ry="9.7"/>
    </clipPath>
  </defs>
  <g class="cls-17">
    <g>
      <path class="cls-12" d="M1418.6,548l-52.8,13.8s-8.6,16.9-10.5,24.6,33.5,41.7,24.3,66.2-36.9,46.1-47.7,35.3-58.6-87.7-58.5-109.3c.1-21.5,1.6-124.6,15.4-144.6s58.8-56.9,105.6-29.2,59.1,32.3,62.2,53.9c3.1,21.6-38,89.3-38,89.3h0Z"/>
      <path class="cls-18" d="M1542.8,314.1s-236.1-103-252.4-92.3-133.9,273.9-138.5,280.1,32.9,44.6,54.9,30.8,55.9-72.7,55.9-91.8,70.8-63.6,70.8-88.3,61.1,74.8,109.8,49.7c48.7-25.1,97.9-69.7,99.5-88.2h0Z"/>
      <path class="cls-18" d="M1418.6,514.9c-7.5,1.5-55.9-46.9-55.9-46.9l-24.6,76.9s24.6,110.8-16.9,107.7-49.4-32.3-47.8-36.9c1.6-4.6-9.2-80.1-9.2-80.1v-59.9s26.2-124.6,50.8-129.3c24.6-4.6,118.7,26.8,123.2,68,4.6,41.3,24,92-19.6,100.5h0Z"/>
      <path class="cls-6" d="M1428.7,427.7c19.3,11.9,25.8,18.7,27.9,33.6,3.1,21.5-38,89.3-38,89.3l-52.8,13.8s-8.6,16.9-10.5,24.6,33.5,41.7,24.3,66.2-36.9,46.1-47.7,35.3c-3.7-3.7-11.7-15-20.6-29.3"/>
      <path class="cls-6" d="M1542.8,316.7s-236.1-103-252.4-92.3-133.9,273.9-138.5,280.1,32.9,44.6,54.9,30.8,55.9-72.7,55.9-91.8,70.8-63.6,70.8-88.3,61.1,74.8,109.8,49.7c48.7-25.1,97.9-69.7,99.5-88.2h0Z"/>
      <path class="cls-6" d="M1418.6,517.5c-7.5,1.5-55.9-46.9-55.9-46.9l-24.6,76.9s24.6,110.8-16.9,107.7-49.4-32.3-47.8-36.9-9.2-80.1-9.2-80.1v-59.9s26.2-124.6,50.8-129.3c24.6-4.6,118.7,26.8,123.2,68s24,92-19.6,100.5h0Z"/>
      <path class="cls-20" d="M1608.2,260.2s-99.9-1.5-124.6,50.8-91.4,208.3-89,229.1-8.9,164.5,95.5,258.5c0,0,44.3,114.8,106.7,130.9l187,1011s399.3-64.6,376.2-161.6-348.7-943.9-355.6-973.9-76.2-443.2-96.9-466.3-59.5-81.8-99.3-78.5h0Z"/>
      <path class="cls-20" d="M1623.2,260.1l-139.6-126.8s-122.3-77.3-127-77.3-122.3-45-138.5-25.4-16.2,35.8,8.1,47.3,113.1,56.6,117.7,60,84.2,61.2,87.7,69.2,51.9,158.1,139.6,121.2,52-68.2,52-68.2h0Z"/>
      <path class="cls-3" d="M1270.8,587.7s15.1-2.4,15.1,0,2.1,44.3,1.5,49.2c-1.2,8.9-8.9,14.5-11.1,11.9s-5.5-61.1-5.5-61.1h0Z"/>
      <path class="cls-3" d="M1320.9,661.9s21.8,36.9,20.4,37.3c-1.3,.4-8.4,1.8-12-3.1s-17.9-30.7-17.9-30.7c0,0-1.2-11.5,9.5-3.5h0Z"/>
      <path class="cls-14" d="M1155.3,495.2c14.9,8,63.1,27.3,63.1,27.3l22.2-27.3h-85.3Z"/>
      <path class="cls-13" d="M1363.3,485.4l-101.1,9.8s70.2,44.4,75.6,44.9c5.3,.4,61.9,20.5,61.9,20.5,0,0-9.1-30.7-6.8-33.4s9-18.3,9-18.3l-39.2-38.3,.6,14.8h0Z"/>
      <path class="cls-4" d="M1412,88.6c11.8-1.4,89.6,61.2,89.6,61.2l115.9,110.3c34.1,9.1,65.6,44.1,84.4,72.7,19.3,29.2,20.6,66.4,27.4,99.7,8.3,41.2,16.6,82.4,24.9,123.6,16.7,83,33.4,165.9,50.1,248.9l329.4,892.7"/>
      <path class="cls-6" d="M1407.8,185.9l23.8,21.2s14.4,65.2,63.7,106.7"/>
      <path class="cls-6" d="M1433.1,209.1s-1.3-19.8,10.7-29.2"/>
      <line class="cls-6" x1="1465.9" y1="281.5" x2="1407.8" y2="258"/>
      <path class="cls-6" d="M1553.1,396.2s-28,26.5-13.8,54.6"/>
      <path class="cls-6" d="M1684.3,352.8s10.1,6,10.1,25.4"/>
      <path class="cls-6" d="M1490,798.7s33.5,100.3,102.8,129.8"/>
      <line class="cls-4" x1="1734.2" y1="1673.3" x2="1592.8" y2="893.1"/>
      <path class="cls-12" d="M440.1,549.7l52.8,13.8s8.6,16.9,10.5,24.6-33.5,41.7-24.3,66.2,36.9,46.1,47.7,35.3,58.6-87.7,58.5-109.3c-.1-21.5-1.6-124.6-15.4-144.6s-58.8-56.9-105.6-29.2c-46.8,27.7-59.1,32.3-62.2,53.9s38,89.3,38,89.3h0Z"/>
      <path class="cls-18" d="M316,315.8s236.1-103,252.4-92.3c16.3,10.6,133.9,273.9,138.5,280.1s-32.9,44.6-54.9,30.8-56-72.8-56-91.9-70.8-63.6-70.8-88.3-61.1,74.8-109.8,49.7c-48.7-25-97.9-69.7-99.4-88.1h0Z"/>
      <path class="cls-18" d="M440.1,516.6c7.5,1.5,55.9-46.9,55.9-46.9l24.6,76.9s-24.6,110.8,16.9,107.7c41.5-3.1,49.4-32.3,47.8-36.9-1.6-4.6,9.2-80.1,9.2-80.1v-59.9s-26.2-124.6-50.8-129.3c-24.6-4.6-118.7,26.8-123.2,68s-23.9,92,19.6,100.5h0Z"/>
      <path class="cls-6" d="M430.1,429.4c-19.3,11.9-25.8,18.7-27.9,33.6-3.1,21.5,38,89.3,38,89.3l52.8,13.8s8.6,16.9,10.5,24.6-33.5,41.7-24.3,66.2,36.9,46.1,47.7,35.3c3.7-3.7,11.7-15,20.6-29.3"/>
      <path class="cls-6" d="M316,318.4s236.1-103,252.4-92.3c16.3,10.6,133.9,273.9,138.5,280.1s-32.9,44.6-54.9,30.8-56-72.8-56-91.9-70.8-63.6-70.8-88.3-61.1,74.8-109.8,49.7c-48.7-25-97.9-69.6-99.4-88.1h0Z"/>
      <path class="cls-6" d="M440.1,519.2c7.5,1.5,55.9-46.9,55.9-46.9l24.6,76.9s-24.6,110.8,16.9,107.7c41.5-3.1,49.4-32.3,47.8-36.9-1.6-4.6,9.2-80.1,9.2-80.1v-59.9s-26.2-124.6-50.8-129.3c-24.6-4.6-118.7,26.8-123.2,68-4.5,41.3-23.9,92,19.6,100.5h0Z"/>
      <path class="cls-20" d="M250.6,261.9s99.9-1.5,124.6,50.8,91.4,208.3,89,229.1,8.9,164.5-95.5,258.5c0,0-44.3,114.8-106.7,130.9L75,1942.2s-399.3-64.6-376.2-161.6c23.1-96.9,348.5-944.1,355.5-974.1,6.9-30,76.2-443.2,96.9-466.3,20.9-22.9,59.6-81.6,99.4-78.3h0Z"/>
      <path class="cls-20" d="M235.6,261.8l139.6-126.8s122.3-77.3,127-77.3,122.3-45,138.5-25.4,16.2,35.8-8.1,47.3-113.1,56.6-117.7,60-84.2,61.2-87.7,69.2-52,158.1-139.7,121.2-51.9-68.2-51.9-68.2h0Z"/>
      <path class="cls-3" d="M587.9,589.4s-15.1-2.4-15.1,0-2.1,44.3-1.5,49.2c1.2,8.9,8.9,14.5,11.1,11.9,2.3-2.8,5.5-61.1,5.5-61.1Z"/>
      <path class="cls-3" d="M537.9,663.5s-21.8,36.9-20.4,37.3,8.4,1.8,12-3.1c3.6-4.9,17.9-30.7,17.9-30.7,0,0,1.1-11.5-9.5-3.5Z"/>
      <path class="cls-14" d="M703.4,496.9c-14.9,8-63.1,27.3-63.1,27.3l-22.2-27.3h85.3Z"/>
      <path class="cls-13" d="M495.4,487.1l101.1,9.8s-70.2,44.4-75.6,44.9c-5.3,.4-61.9,20.5-61.9,20.5,0,0,9.1-30.7,6.8-33.4s-9-18.3-9-18.3l39.2-38.3-.6,14.8h0Z"/>
      <path class="cls-5" d="M528.4,2.3h97.2c2,0,3.6,1.6,3.6,3.6V48.7c0,2-1.6,3.6-3.6,3.6h-97.2c-2,0-3.6-1.6-3.6-3.6V5.9c-.1-2,1.6-3.6,3.6-3.6Z"/>
      <path class="cls-5" d="M642.6,2.3h97.2c2,0,3.6,1.6,3.6,3.6V48.7c0,2-1.6,3.6-3.6,3.6h-97.2c-2,0-3.6-1.6-3.6-3.6V5.9c-.1-2,1.6-3.6,3.6-3.6Z"/>
      <path class="cls-5" d="M804.4,2.3h97.2c2,0,3.6,1.6,3.6,3.6V48.7c0,2-1.6,3.6-3.6,3.6h-97.2c-2,0-3.6-1.6-3.6-3.6V5.9c-.1-2,1.5-3.6,3.6-3.6Z"/>
      <path class="cls-1" d="M469.9,11.6h975.4c10.5,0,19,8.5,19,19V478c0,10.5-8.5,19-19,19H469.9c-10.5,0-19-8.5-19-19V30.5c.1-10.4,8.5-18.9,19-18.9Z"/>
      <path class="cls-10" d="M505.1,27.3h927.7c5.4,0,9.7,4.3,9.7,9.7V469.4c0,5.4-4.3,9.7-9.7,9.7H505.1c-5.4,0-9.7-4.3-9.7-9.7V37c0-5.4,4.3-9.7,9.7-9.7Z"/>
      <path class="cls-10" d="M474.6,159.3h0c3.7,0,6.7,3,6.7,6.7v157.6c0,3.7-3,6.7-6.7,6.7h0c-3.7,0-6.7-3-6.7-6.7V165.9c0-3.6,3-6.6,6.7-6.6Z"/>
      <circle class="cls-10" cx="473.2" cy="109" r="8.4"/>
      <g class="cls-11">
        <path class="cls-15" d="M668.9,121.7v21.2h-20.3v62.7h-21.1v-40.9h-42v61.4h-20.6v-40.6h-21v40.2h-21v-40.3h-20.6v19.6h-13.9V1344h12.6v-40.4h20.6v20.5h104.9v25.59h24.6v-20.2h41.1v-25.59h20v-41.5h21v19.6h18.8v21.3h-20v21.2h20v20.6h41.8v-38.41h20.6v20h21.6v-20h20.9v-20.9h20.5v41h20.6v-20h63.3v-42.4h20.3v39.6h42.1v20.9h21v-19.7h21.5v-21.3h20.4v20.6h63.7v42.2h38.41v25.59h20.9v-27.29h38.41v-20.4h20.5v-20.9h-19.4v-20.9h19.5v-25.59h20v41.1h21.2v-20.4h20.5v-25.59h19.9v20h20.8v25.59h19.9v-20.4h42.4v-493.11h-.3V205.6h-19.9v-20.5h20.1v-20.6h-11.21v-21.3h-20.4v-20.4h-20.6v41h19.5v20.9h-40.9v-20.9h-20.9v-40.9h-21.2v40.8h-20.5v20.6h-20.3v21h19.3v20.7h-40.7v-40.7h-25.59v-19.9h-21.5v-21.3h-20.4v41.5h-41.81v20.6h-37v25.6h-19.9v-40.4h-21v20.9h-19.9v-20.5h-21.2v-20h-41.5v21.2h-19.8v-19.5h-21.7v40.8h-25.6v-20.3h-41.6v-21.2h-21.1v61.7h-20.9v-40.3h-39.8v11.8h-41.6v-25.6h-25.6v-20.3h24.2v-21.2h-20v-20.4h-20.5v-25.6h-19.8v19.9l-22.8,8.9h0Zm104,1181.5v20.6h-20.6v-20.6h20.6Zm439.3,20.9v20.6h-20.6v-25.59h13l7.6,4.99h0Zm-20.9-20.9s0,.1,0,0v25.59h-20v-20.6l20-4.99h0Zm20.9-20.9v20.7h-20.7v-20.6l20.7-.1h0Zm-689.4-.7v-40.8h19.7v19.8h25.59v20l-45.29,1h0Zm83.5,20.7v-40.7h20.5v40.7h-20.5Zm41.1,21.5h-20.6v-25.59h25.59v25.39q-4.99,0-4.99,.2,0-.1,0,0h0Zm41.2-42.1h-19.6v21.1h-21.3v-61.5h20.3v19.6h20.6v20.8h0Zm84.7,21.1v-20.6h20.6v20.6h-20.6Zm83.3-41.4h0v25.59h-20.9v20.9h-20.6v-20.89h-20.9v-20.6l62.4-5h0Zm20.3-.4h-20.1v-20h20l.1,20h0Zm355.7,1v20h-20.2v-20h20.2Zm-104.6-.1v19.9h-19.3v-19.9h19.3Zm-62.2,0v20.2h-20v-20l20-.2h0Zm-42.5-.6v20h-19.9v-20h19.9Zm376.6-20.2v19.4h-19.7v-19.4h19.7Zm-230.2,19.6h-19.5v-19.5h19.5v19.5Zm-166.6-19.8v20.2h-25.6v-19.7l25.6-.5h0Zm-63.5-.1v19.7h-19.4v-19.7h19.4Zm146.5-20.6v19.5h-19.6v-19.5h19.6Zm127.4-994.1v-19.5h19.7v19.5h-19.7Zm-209.5-20.5v-20.6h21v20.6h-21Zm-104.9,21.2v20h-20v-20h20Zm188,63.6v19.3h-19.9v-19.3h19.9Zm-104.8-.2v19.3h-19.9v-19.3h19.9Zm-417.2-1.2v-19.5h19.5v19.5h-19.5Zm375.2-19.6v19.1h-19.9v-19.1h19.9Zm-291.3-1.3v-19.8h40.5v19.8h-40.5Zm62.7-.4v-40.8h20v41.3l-20-.5h0Zm627.2-41.8v-19.6h-21.2v-42.2h20.6v20.9h20.9v40.9h-20.3Zm61.9-20h22.3v40.9h-41v-19.8h19.7l-1-21.1h0Zm-397.1,20h-20v-20h20.4l-.4,20h0Zm-42.6,.1h-20v-20.1h20v20.1h0Zm-61.7-20.1h21v20.6h-20.6l-.4-20.6h0Zm-146.3,.4v20.3h-21.1v-20.3h23.9c-3,0-2.9,0-2.8,0q-.1,0,0,0h0Zm-126,19.6h-20v-20h20.4l-.4,20h0Zm104.6-82.7v20.6h-20v-20.6h20Zm-42.5,0v61.8h-20v-61.5l20-.3h0Z"/>
      </g>
      <rect class="cls-9" x="1151.5" y="231.2" width="11.3" height="11.3"/>
      <rect class="cls-9" x="1163.1" y="242.1" width="11.3" height="11.3"/>
      <rect class="cls-9" x="1162.9" y="219.8" width="11.3" height="11.3"/>
      <rect class="cls-9" x="1173.8" y="231.2" width="11.3" height="11.3"/>
      <rect class="cls-9" x="1385.1" y="392.2" width="11.3" height="11.3"/>
      <rect class="cls-9" x="1396.6" y="403.2" width="11.3" height="11.3"/>
      <rect class="cls-9" x="1396.4" y="380.9" width="11.3" height="11.3"/>
      <rect class="cls-9" x="1407.4" y="392.2" width="11.3" height="11.3"/>
      <rect class="cls-9" x="560.1" y="331.6" width="11.3" height="11.3"/>
      <rect class="cls-9" x="571.7" y="342.6" width="11.3" height="11.3"/>
      <rect class="cls-9" x="571.5" y="320.3" width="11.3" height="11.3"/>
      <rect class="cls-9" x="582.4" y="331.6" width="11.3" height="11.3"/>
      <path class="cls-20" d="M292.9,502s64.6-63.1,70.8-75.4,92.3-157,113.9-178.5,47.7-72.3,72.3-61.6,43.1,43.1,32.3,76.9c-10.8,33.9-27.7,80-44.6,101.6-16.9,21.5-60,60-66.2,100s-9.2,290.8-120,346.2c0,0-90.8,56.9-104.6,29.2s-55.5-272.3,46.1-338.4h0Z"/>
      <path class="cls-6" d="M337.4,454c11.5-12.2,21.2-23.1,23.4-27.5,6.2-12.3,92.3-157,113.9-178.5s47.7-72.3,72.3-61.6,43.1,43.1,32.3,76.9c-10.8,33.9-27.7,80-44.6,101.6-16.9,21.5-60,60-66.2,100s-9.2,290.8-120,346.2c0,0-17.1,10.7-37.5,20.6"/>
      <path class="cls-3" d="M481.2,247.1s39.1,42.3,59.1,28.1,37.8-73.3,36.7-78.7-24.7-43.9-54-11c-.1,0-44.4,53.9-41.8,61.6h0Z"/>
      <path class="cls-6" d="M467.9,272.6s36.7,10.5,48.5,29.5"/>
      <path class="cls-4" d="M446.7,90.3c-11.8-1.4-89.6,61.2-89.6,61.2l-115.9,110.3c-34.1,9.1-65.6,44.1-84.4,72.7-19.3,29.2-20.6,66.4-27.4,99.7-8.3,41.2-16.6,82.4-24.9,123.6-16.7,83-33.4,165.9-50.1,248.9l-329.4,892.7"/>
      <path class="cls-6" d="M451,187.6l-23.8,21.2s-14.4,65.2-63.7,106.7"/>
      <path class="cls-6" d="M425.6,210.8s1.3-19.8-10.7-29.2"/>
      <line class="cls-6" x1="392.9" y1="283.2" x2="451" y2="259.7"/>
      <path class="cls-6" d="M305.6,397.9s28,26.5,13.8,54.6"/>
      <path class="cls-6" d="M174.5,354.5s-10.1,6-10.1,25.4"/>
      <path class="cls-6" d="M368.8,800.3s-33.5,100.3-102.8,129.8"/>
      <line class="cls-4" x1="124.6" y1="1674.9" x2="266" y2="894.8"/>
      <path class="cls-20" d="M1579.2,517.6s-74.3-51.4-82.4-62.5-117.3-139.3-142.1-157c-24.8-17.6-59.1-63.3-81.6-48.6-22.5,14.7-35.3,49.7-19,81.3s40.7,74.3,61,92.7,69.2,49.1,81.9,87.6c12.8,38.4,57.7,285.2,176.2,321.3,0,0,99,41,108.1,11.3s9.1-277.9-102.1-326.1h0Z"/>
      <path class="cls-6" d="M1527.4,477.8c-13.4-10.1-24.8-19.2-27.7-23.2-8.1-11.1-117.3-139.3-142.1-157-24.8-17.6-59.1-63.3-81.6-48.6-22.5,14.7-35.3,49.7-19,81.3s40.7,74.3,61,92.7,69.2,49.1,81.9,87.6c12.8,38.4,57.7,285.2,176.2,321.3,0,0,18.6,7.7,40.4,14"/>
      <path class="cls-3" d="M1351,297.8s-31.4,48.3-53.5,37.6c-22.1-10.7-49.5-66-49.3-71.4s17-47.4,51.4-19.9c0-.1,52.7,45.7,51.4,53.7h0Z"/>
      <path class="cls-6" d="M1368.4,320.7s-34.4,16.5-42.9,37.2"/>
    </g>
  </g>
  <g>
    <path class="cls-19" d="M632.77,120.83c.6,3.67,1.33,7.83,1.33,9.76,0,3.61-1.45,4.58-5.48,4.58h-9.15c-4.04,0-5.48-.96-5.48-4.58,0-1.93,.72-6.08,1.33-9.76l2.77-15.24h11.93l2.77,15.24h-.02Zm-1.03-23.07c0,3.55-1.38,4.58-5.96,4.58h-3.31c-4.64,0-6.02-1.02-6.02-4.58v-2.11c0-3.55,1.39-4.58,6.02-4.58h3.31c4.58,0,5.96,1.02,5.96,4.58v2.11Z"/>
    <path class="cls-19" d="M643.12,84.63h20.66l6.57,22.1h.12l6.99-22.1h20.18v43h-14.76l.6-25.9h-.12l-8.67,25.9h-8.61l-8.67-25.9h-.12l.6,25.9h-14.76v-43h0Z"/>
    <path class="cls-19" d="M706.6,84.63h16.56v43h-16.56v-43Z"/>
    <path class="cls-19" d="M732.43,116.49c1.99,.36,5.72,.96,14.94,.96,3.43,0,5.06-.48,5.06-2.89s-.78-2.95-4.34-2.95h-3.79c-7.77,0-13.55-1.39-13.55-14.15s9.39-13.91,19.03-13.91c6.32,0,13.73,.9,17.47,1.45v12.77c-4.04-.3-8.43-.9-13.97-.9-5,0-6.38,.78-6.38,3.01,0,1.63,.84,2.59,4.52,2.59,13.01,0,17.16,1.63,17.16,12.29,0,12.35-7.41,13.97-18.07,13.97-5.96,0-12.11-.48-18.07-1.2v-11.04Z"/>
    <path class="cls-19" d="M776.16,84.63h16.56v43h-16.56v-43Z"/>
    <path class="cls-19" d="M823.13,83.55c16.08,0,22.4,5.24,22.4,21.08s-5.84,24.09-22.4,24.09-22.4-8.07-22.4-24.09,6.32-21.08,22.4-21.08Zm-3.85-8.37h14.51l-4.52,6.69h-12.89l2.89-6.69h.01Zm10.54,31.86c0-5.3-.9-8.85-6.69-8.85s-6.68,3.55-6.68,8.85c0,6.38,2.17,9.15,6.68,9.15s6.69-2.77,6.69-9.15Z"/>
    <path class="cls-19" d="M851.92,84.63h18.79l9.64,23.79h.12l-1.08-23.79h15.42v43h-17.16l-11.26-26.32h-.12l1.08,26.32h-15.42v-43h-.01Z"/>
    <path class="cls-19" d="M958.94,100.47c-2.17-.3-5.48-1.08-11.08-1.08s-9.39,1.63-9.39,7.77,3.97,7.35,9.27,7.35c3.61,0,7.29-.66,11.2-1.39v13.07c-5.3,1.45-10.42,2.53-15.6,2.53-16.08,0-22.28-7.41-22.28-23.13,0-14.15,5.9-22.04,21.92-22.04,5.9,0,13.01,1.99,15.96,2.83v14.09Z"/>
    <path class="cls-19" d="M1008.68,113.84c0,11.68-7.77,14.88-21.44,14.88s-21.44-3.19-21.44-14.88v-29.21h16.56v28.61c0,3.61,2.35,4.22,4.88,4.22s4.88-.6,4.88-4.22v-28.61h16.56v29.21h0Z"/>
    <path class="cls-19" d="M1016.03,84.63h20.66l6.57,22.1h.12l6.99-22.1h20.18v43h-14.76l.6-25.9h-.12l-8.67,25.9h-8.61l-8.67-25.9h-.12l.6,25.9h-14.76v-43h0Z"/>
    <path class="cls-19" d="M1077.88,84.63h27.82c9.88,0,15.54,2.53,15.54,15.18,0,10-4.82,15.84-15.96,15.84h-10.84v11.98h-16.56v-43Zm16.56,20.96h4.82c3.98,0,5.84-1.39,5.84-4.94s-1.63-4.76-4.88-4.76h-5.78v9.7h0Z"/>
    <path class="cls-19" d="M1128.1,84.63h16.56v29.21h16.8v13.79h-33.37v-43h0Z"/>
    <path class="cls-19" d="M1168.39,84.63h16.56v43h-16.56v-43Z"/>
    <path class="cls-19" d="M1193.93,84.63h20.9c13.85,0,22.95,3.01,22.95,20.48,0,14.15-5.96,22.52-19.21,22.52h-24.63v-43h-.01Zm15.72,30.96h4.46c6.32,0,7.53-3.43,7.53-9.27s-1.26-7.89-8.01-7.89h-3.98v17.16Z"/>
    <path class="cls-19" d="M1271.68,121.01h-12.41l-1.39,6.62h-16.56l12.05-43h24.75l11.74,43h-16.8l-1.38-6.62h0Zm-6.15-29.27h-.12l-3.92,18.43h7.95l-3.92-18.43h.01Z"/>
    <path class="cls-19" d="M1297.39,97.88c-.6-3.67-1.33-7.83-1.33-9.76,0-3.61,1.45-4.58,5.48-4.58h9.15c4.04,0,5.48,.96,5.48,4.58,0,1.93-.72,6.08-1.33,9.76l-2.77,15.24h-11.93l-2.77-15.24h.02Zm1.09,23.07c0-3.55,1.38-4.58,5.96-4.58h3.31c4.64,0,6.02,1.02,6.02,4.58v2.11c0,3.55-1.38,4.58-6.02,4.58h-3.31c-4.58,0-5.96-1.02-5.96-4.58v-2.11Z"/>
  </g>
  <g>
    <path class="cls-7" d="M881.41,365.01c-.68-.27-1.34-.64-1.94-1.12-3.27-2.6-3.82-7.37-1.21-10.64,23.8-29.94,23.63-54.99,23.62-55.24-.13-4.18,3.16-7.65,7.34-7.77,4.18-.13,7.67,3.18,7.8,7.36,.04,1.23,.59,30.49-26.91,65.07-2.12,2.67-5.68,3.52-8.7,2.34h0Z"/>
    <path class="cls-7" d="M912.56,377.24c-.92-.54-1.73-1.28-2.38-2.21-2.38-3.44-1.53-8.15,1.91-10.54,4.3-2.98,12.04-16.86,14.37-31.83,2.61-16.71,11.98-30.9,12.38-31.5,2.32-3.48,7.03-4.41,10.5-2.09,3.48,2.32,4.41,7.02,2.1,10.49-.16,.25-7.95,12.17-10.02,25.44-2.38,15.2-10.77,35.04-20.7,41.93-2.51,1.74-5.69,1.75-8.16,.3h0Z"/>
    <path class="cls-7" d="M977.47,407.74c-3.02-1.19-5.04-4.24-4.77-7.64,3.44-44.05,23.78-65.09,24.64-65.96,2.94-2.97,7.73-3,10.71-.06,2.96,2.93,3,7.7,.09,10.68-.34,.36-17.38,18.58-20.34,56.52-.33,4.17-3.97,7.28-8.14,6.96-.77-.06-1.5-.23-2.19-.5h0Z"/>
    <path class="cls-7" d="M942.46,393.96c-2.66-1.05-4.62-3.57-4.79-6.61-.7-12.07,9.75-30.91,20.26-42.15,9.22-9.86,13.81-23.44,13.86-23.57,1.32-3.96,5.6-6.11,9.57-4.8,3.97,1.32,6.12,5.58,4.81,9.55-.22,.68-5.62,16.81-17.17,29.16-10.34,11.06-16.51,25.71-16.21,30.94,.24,4.17-2.95,7.75-7.12,8-1.13,.06-2.22-.12-3.2-.51h-.01Z"/>
    <path class="cls-7" d="M908.74,292.38s-32.4,6.78-2.04,21.62,103.02,48.45,108.59,34.76c14.38-35.34-89.06-56.73-106.55-56.38h0Z"/>
    <path class="cls-7" d="M1041.12,319.21c-14.88,37.82-47.76,24.12-89.96,7.52s-77.73-29.82-62.85-67.64c14.88-37.82,59.18-50.01,101.38-33.41s66.32,55.71,51.44,93.52h-.01Z"/>
    <g>
      <circle class="cls-2" cx="924.33" cy="219.82" r="26.25"/>
      <path class="cls-10" d="M927.09,216.63c1.38-3.51,5.34-5.23,8.85-3.85,.47,.18,.9,.42,1.3,.68-.08-4.89-1.81-8.73-4.98-9.98-5.26-2.07-12.5,3.79-16.16,13.1-3.66,9.3-2.36,18.52,2.9,20.6,4.91,1.93,11.54-3.05,15.38-11.29-1.13,.16-2.31,.04-3.45-.4-3.51-1.38-5.23-5.34-3.85-8.85h0Z"/>
    </g>
    <g>
      <circle class="cls-2" cx="1027.3" cy="247.31" r="26.25"/>
      <path class="cls-10" d="M1030.62,244.72c2.03-3.17,6.25-4.1,9.43-2.07,.42,.27,.8,.58,1.14,.92,.87-4.81-.08-8.92-2.95-10.75-4.76-3.05-12.99,1.3-18.39,9.73s-5.9,17.72-1.13,20.77c4.45,2.85,11.91-.76,17.27-8.1-1.14-.06-2.27-.41-3.3-1.06-3.17-2.03-4.1-6.25-2.07-9.43h0Z"/>
    </g>
    <path class="cls-8" d="M945.57,296.07s26.84,27.54,38.65,5.45l-38.65-5.45Z"/>
  </g>
  <rect class="cls-10" x="870.47" y="421.9" width="81.91" height="11.94"/>
  <rect class="cls-10" x="913.04" y="433.84" width="81.91" height="11.94"/>
  <rect class="cls-10" x="968.25" y="427.86" width="81.91" height="11.94"/>
  <rect class="cls-10" x="875.99" y="445.78" width="81.91" height="11.94"/>
</svg>