<?xml version="1.0" encoding="UTF-8"?>
<svg id="Capa_1" data-name="Capa 1" xmlns="http://www.w3.org/2000/svg" viewBox="0 0 1857.8 928.5">
  <defs>
    <style>
      .cls-1 {
        fill: #373151;
      }

      .cls-2 {
        fill: #fffefe;
        stroke-width: 1.51px;
      }

      .cls-2, .cls-3, .cls-4 {
        stroke: #373151;
        stroke-miterlimit: 10;
      }

      .cls-5 {
        fill: #ffda25;
      }

      .cls-3 {
        fill: #e74f00;
        stroke-width: 4px;
      }

      .cls-4 {
        fill: #fff;
        stroke-width: 1.77px;
      }
    </style>
  </defs>
  <g>
    <path class="cls-5" d="M632.77,120.83c.6,3.67,1.33,7.83,1.33,9.76,0,3.61-1.45,4.58-5.48,4.58h-9.15c-4.04,0-5.48-.96-5.48-4.58,0-1.93,.72-6.08,1.33-9.76l2.77-15.24h11.93l2.77,15.24h-.02Zm-1.03-23.07c0,3.55-1.38,4.58-5.96,4.58h-3.31c-4.64,0-6.02-1.02-6.02-4.58v-2.11c0-3.55,1.39-4.58,6.02-4.58h3.31c4.58,0,5.96,1.02,5.96,4.58v2.11Z"/>
    <path class="cls-5" d="M643.12,84.63h20.66l6.57,22.1h.12l6.99-22.1h20.18v43h-14.76l.6-25.9h-.12l-8.67,25.9h-8.61l-8.67-25.9h-.12l.6,25.9h-14.76v-43h0Z"/>
    <path class="cls-5" d="M706.6,84.63h16.56v43h-16.56v-43Z"/>
    <path class="cls-5" d="M732.43,116.49c1.99,.36,5.72,.96,14.94,.96,3.43,0,5.06-.48,5.06-2.89s-.78-2.95-4.34-2.95h-3.79c-7.77,0-13.55-1.39-13.55-14.15s9.39-13.91,19.03-13.91c6.32,0,13.73,.9,17.47,1.45v12.77c-4.04-.3-8.43-.9-13.97-.9-5,0-6.38,.78-6.38,3.01,0,1.63,.84,2.59,4.52,2.59,13.01,0,17.16,1.63,17.16,12.29,0,12.35-7.41,13.97-18.07,13.97-5.96,0-12.11-.48-18.07-1.2v-11.04h-.01Z"/>
    <path class="cls-5" d="M776.16,84.63h16.56v43h-16.56v-43Z"/>
    <path class="cls-5" d="M823.13,83.55c16.08,0,22.4,5.24,22.4,21.08s-5.84,24.09-22.4,24.09-22.4-8.07-22.4-24.09,6.32-21.08,22.4-21.08Zm-3.85-8.37h14.51l-4.52,6.69h-12.89l2.89-6.69h.01Zm10.54,31.86c0-5.3-.9-8.85-6.69-8.85s-6.68,3.55-6.68,8.85c0,6.38,2.17,9.15,6.68,9.15s6.69-2.77,6.69-9.15Z"/>
    <path class="cls-5" d="M851.92,84.63h18.79l9.64,23.79h.12l-1.08-23.79h15.42v43h-17.16l-11.26-26.32h-.12l1.08,26.32h-15.42v-43h-.01Z"/>
    <path class="cls-5" d="M958.94,100.47c-2.17-.3-5.48-1.08-11.08-1.08s-9.39,1.63-9.39,7.77,3.97,7.35,9.27,7.35c3.61,0,7.29-.66,11.2-1.39v13.07c-5.3,1.45-10.42,2.53-15.6,2.53-16.08,0-22.28-7.41-22.28-23.13,0-14.15,5.9-22.04,21.92-22.04,5.9,0,13.01,1.99,15.96,2.83v14.09Z"/>
    <path class="cls-5" d="M1008.68,113.84c0,11.68-7.77,14.88-21.44,14.88s-21.44-3.19-21.44-14.88v-29.21h16.56v28.61c0,3.61,2.35,4.22,4.88,4.22s4.88-.6,4.88-4.22v-28.61h16.56v29.21h0Z"/>
    <path class="cls-5" d="M1016.03,84.63h20.66l6.57,22.1h.12l6.99-22.1h20.18v43h-14.76l.6-25.9h-.12l-8.67,25.9h-8.61l-8.67-25.9h-.12l.6,25.9h-14.76v-43h0Z"/>
    <path class="cls-5" d="M1077.88,84.63h27.82c9.88,0,15.54,2.53,15.54,15.18,0,10-4.82,15.84-15.96,15.84h-10.84v11.98h-16.56s0-43,0-43Zm16.56,20.96h4.82c3.98,0,5.84-1.39,5.84-4.94s-1.63-4.76-4.88-4.76h-5.78v9.7h0Z"/>
    <path class="cls-5" d="M1128.1,84.63h16.56v29.21h16.8v13.79h-33.37v-43h0Z"/>
    <path class="cls-5" d="M1168.39,84.63h16.56v43h-16.56v-43Z"/>
    <path class="cls-5" d="M1193.93,84.63h20.9c13.85,0,22.95,3.01,22.95,20.48,0,14.15-5.96,22.52-19.21,22.52h-24.63v-43s-.01,0-.01,0Zm15.72,30.96h4.46c6.32,0,7.53-3.43,7.53-9.27s-1.26-7.89-8.01-7.89h-3.98v17.16Z"/>
    <path class="cls-5" d="M1271.68,121.01h-12.41l-1.39,6.62h-16.56l12.05-43h24.75l11.74,43h-16.8l-1.38-6.62h0Zm-6.15-29.27h-.12l-3.92,18.43h7.95l-3.92-18.43h.01Z"/>
    <path class="cls-5" d="M1297.39,97.88c-.6-3.67-1.33-7.83-1.33-9.76,0-3.61,1.45-4.58,5.48-4.58h9.15c4.04,0,5.48,.96,5.48,4.58,0,1.93-.72,6.08-1.33,9.76l-2.77,15.24h-11.93l-2.77-15.24h.02Zm1.09,23.07c0-3.55,1.38-4.58,5.96-4.58h3.31c4.64,0,6.02,1.02,6.02,4.58v2.11c0,3.55-1.38,4.58-6.02,4.58h-3.31c-4.58,0-5.96-1.02-5.96-4.58v-2.11Z"/>
  </g>
  <g>
    <path class="cls-3" d="M881.41,365.01c-.68-.27-1.34-.64-1.94-1.12-3.27-2.6-3.82-7.37-1.21-10.64,23.8-29.94,23.63-54.99,23.62-55.24-.13-4.18,3.16-7.65,7.34-7.77,4.18-.13,7.67,3.18,7.8,7.36,.04,1.23,.59,30.49-26.91,65.07-2.12,2.67-5.68,3.52-8.7,2.34h0Z"/>
    <path class="cls-3" d="M912.56,377.24c-.92-.54-1.73-1.28-2.38-2.21-2.38-3.44-1.53-8.15,1.91-10.54,4.3-2.98,12.04-16.86,14.37-31.83,2.61-16.71,11.98-30.9,12.38-31.5,2.32-3.48,7.03-4.41,10.5-2.09,3.48,2.32,4.41,7.02,2.1,10.49-.16,.25-7.95,12.17-10.02,25.44-2.38,15.2-10.77,35.04-20.7,41.93-2.51,1.74-5.69,1.75-8.16,.3h0Z"/>
    <path class="cls-3" d="M977.47,407.74c-3.02-1.19-5.04-4.24-4.77-7.64,3.44-44.05,23.78-65.09,24.64-65.96,2.94-2.97,7.73-3,10.71-.06,2.96,2.93,3,7.7,.09,10.68-.34,.36-17.38,18.58-20.34,56.52-.33,4.17-3.97,7.28-8.14,6.96-.77-.06-1.5-.23-2.19-.5h0Z"/>
    <path class="cls-3" d="M942.46,393.96c-2.66-1.05-4.62-3.57-4.79-6.61-.7-12.07,9.75-30.91,20.26-42.15,9.22-9.86,13.81-23.44,13.86-23.57,1.32-3.96,5.6-6.11,9.57-4.8,3.97,1.32,6.12,5.58,4.81,9.55-.22,.68-5.62,16.81-17.17,29.16-10.34,11.06-16.51,25.71-16.21,30.94,.24,4.17-2.95,7.75-7.12,8-1.13,.06-2.22-.12-3.2-.51h-.01Z"/>
    <path class="cls-3" d="M908.74,292.38s-32.4,6.78-2.04,21.62,103.02,48.45,108.59,34.76c14.38-35.34-89.06-56.73-106.55-56.38h0Z"/>
    <path class="cls-3" d="M1041.12,319.21c-14.88,37.82-47.76,24.12-89.96,7.52s-77.73-29.82-62.85-67.64,59.18-50.01,101.38-33.41,66.32,55.71,51.44,93.52h-.01Z"/>
    <g>
      <circle class="cls-2" cx="924.33" cy="219.82" r="26.25"/>
      <path class="cls-1" d="M927.09,216.63c1.38-3.51,5.34-5.23,8.85-3.85,.47,.18,.9,.42,1.3,.68-.08-4.89-1.81-8.73-4.98-9.98-5.26-2.07-12.5,3.79-16.16,13.1-3.66,9.3-2.36,18.52,2.9,20.6,4.91,1.93,11.54-3.05,15.38-11.29-1.13,.16-2.31,.04-3.45-.4-3.51-1.38-5.23-5.34-3.85-8.85h0Z"/>
    </g>
    <g>
      <circle class="cls-2" cx="1027.3" cy="247.31" r="26.25"/>
      <path class="cls-1" d="M1030.62,244.72c2.03-3.17,6.25-4.1,9.43-2.07,.42,.27,.8,.58,1.14,.92,.87-4.81-.08-8.92-2.95-10.75-4.76-3.05-12.99,1.3-18.39,9.73s-5.9,17.72-1.13,20.77c4.45,2.85,11.91-.76,17.27-8.1-1.14-.06-2.27-.41-3.3-1.06-3.17-2.03-4.1-6.25-2.07-9.43h0Z"/>
    </g>
    <path class="cls-4" d="M945.57,296.07s26.84,27.54,38.65,5.45l-38.65-5.45Z"/>
  </g>
  <rect class="cls-1" x="870.47" y="421.9" width="81.91" height="11.94"/>
  <rect class="cls-1" x="913.04" y="433.84" width="81.91" height="11.94"/>
  <rect class="cls-1" x="968.25" y="427.86" width="81.91" height="11.94"/>
  <rect class="cls-1" x="875.99" y="445.78" width="81.91" height="11.94"/>
</svg>