<?xml version="1.0" encoding="utf-8"?>
<!-- Generator: Adobe Illustrator 27.9.1, SVG Export Plug-In . SVG Version: 6.00 Build 0)  -->
<svg version="1.1" id="Capa_2_00000093144760603156221550000001814595549924705167_"
	 xmlns="http://www.w3.org/2000/svg" xmlns:xlink="http://www.w3.org/1999/xlink" x="0px" y="0px" viewBox="0 0 704.3 610.4"
	 style="enable-background:new 0 0 704.3 610.4;" xml:space="preserve">
<style type="text/css">
	.st0{fill:#31333E;}
	.st1{fill:#FE2960;}
	.st2{fill:#FF52A6;}
	.st3{fill:#772960;}
	.st4{fill:#FFFFFF;}
</style>
<g id="Capa_1-2">
	<rect x="657.3" y="234.8" class="st0" width="47" height="47"/>
	<rect x="657.3" y="187.8" class="st0" width="47" height="47"/>
	<rect x="657.3" y="140.9" class="st0" width="47" height="47"/>
	<rect x="610.4" y="281.7" class="st0" width="47" height="47"/>
	<rect x="610.4" y="234.8" class="st1" width="47" height="47"/>
	<rect x="610.4" y="187.8" class="st1" width="47" height="47"/>
	<rect x="610.4" y="140.9" class="st1" width="47" height="47"/>
	<rect x="610.4" y="93.9" class="st0" width="47" height="47"/>
	<rect x="563.4" y="328.7" class="st0" width="47" height="47"/>
	<rect x="563.4" y="281.7" class="st1" width="47" height="47"/>
	<rect x="563.4" y="234.8" class="st1" width="47" height="47"/>
	<rect x="563.4" y="187.8" class="st1" width="47" height="47"/>
	<rect x="563.4" y="140.9" class="st1" width="47" height="47"/>
	<rect x="563.4" y="93.9" class="st1" width="47" height="47"/>
	<rect x="563.4" y="47" class="st0" width="47" height="47"/>
	<rect x="516.5" y="375.6" class="st0" width="47" height="47"/>
	<rect x="516.5" y="328.7" class="st1" width="47" height="47"/>
	<rect x="516.5" y="281.7" class="st1" width="47" height="47"/>
	<rect x="516.5" y="234.8" class="st1" width="47" height="47"/>
	<rect x="516.5" y="187.8" class="st1" width="47" height="47"/>
	<rect x="516.5" y="140.9" class="st1" width="47" height="47"/>
	<rect x="516.5" y="93.9" class="st1" width="47" height="47"/>
	<rect x="516.5" y="47" class="st1" width="47" height="47"/>
	<rect x="516.5" class="st0" width="47" height="47"/>
	<rect x="469.5" y="422.6" class="st0" width="47" height="47"/>
	<rect x="469.5" y="375.6" class="st1" width="47" height="47"/>
	<rect x="469.5" y="328.7" class="st1" width="47" height="47"/>
	<rect x="469.5" y="281.7" class="st1" width="47" height="47"/>
	<rect x="469.5" y="234.8" class="st1" width="47" height="47"/>
	<rect x="469.5" y="187.8" class="st1" width="47" height="47"/>
	<rect x="469.5" y="140.9" class="st1" width="47" height="47"/>
	<rect x="469.5" y="93.9" class="st1" width="47" height="47"/>
	<rect x="469.5" y="47" class="st1" width="47" height="47"/>
	<rect x="469.5" class="st0" width="47" height="47"/>
	<rect x="422.6" y="469.5" class="st0" width="47" height="47"/>
	<rect x="422.6" y="422.6" class="st1" width="47" height="47"/>
	<rect x="422.6" y="375.6" class="st1" width="47" height="47"/>
	<rect x="422.6" y="328.7" class="st1" width="47" height="47"/>
	<rect x="422.6" y="281.7" class="st1" width="47" height="47"/>
	<rect x="422.6" y="234.8" class="st1" width="47" height="47"/>
	<rect x="422.6" y="187.8" class="st1" width="47" height="47"/>
	<rect x="422.6" y="140.9" class="st1" width="47" height="47"/>
	<rect x="422.6" y="93.9" class="st1" width="47" height="47"/>
	<rect x="422.6" y="47" class="st1" width="47" height="47"/>
	<rect x="422.6" class="st0" width="47" height="47"/>
	<rect x="375.6" y="516.5" class="st0" width="47" height="47"/>
	<rect x="375.6" y="469.5" class="st1" width="47" height="47"/>
	<rect x="375.6" y="422.6" class="st1" width="47" height="47"/>
	<rect x="375.6" y="375.6" class="st1" width="47" height="47"/>
	<rect x="375.6" y="328.7" class="st1" width="47" height="47"/>
	<rect x="375.6" y="281.7" class="st1" width="47" height="47"/>
	<rect x="375.6" y="234.8" class="st1" width="47" height="47"/>
	<rect x="375.6" y="187.8" class="st1" width="47" height="47"/>
	<rect x="375.6" y="140.9" class="st1" width="47" height="47"/>
	<rect x="375.6" y="93.9" class="st1" width="47" height="47"/>
	<rect x="375.6" y="47" class="st0" width="47" height="47"/>
	<rect x="328.7" y="563.4" class="st0" width="47" height="47"/>
	<rect x="328.7" y="516.5" class="st1" width="47" height="47"/>
	<rect x="328.7" y="469.5" class="st1" width="47" height="47"/>
	<rect x="328.7" y="422.6" class="st1" width="47" height="47"/>
	<rect x="328.7" y="375.6" class="st1" width="47" height="47"/>
	<rect x="328.7" y="328.7" class="st1" width="47" height="47"/>
	<rect x="328.7" y="281.7" class="st1" width="47" height="47"/>
	<rect x="328.7" y="234.8" class="st1" width="47" height="47"/>
	<rect x="328.7" y="187.8" class="st1" width="47" height="47"/>
	<rect x="328.7" y="140.9" class="st1" width="47" height="47"/>
	<rect x="328.7" y="93.9" class="st0" width="47" height="47"/>
	<rect x="281.7" y="516.5" class="st0" width="47" height="47"/>
	<rect x="281.7" y="469.5" class="st1" width="47" height="47"/>
	<rect x="281.7" y="422.6" class="st1" width="47" height="47"/>
	<rect x="281.7" y="375.6" class="st1" width="47" height="47"/>
	<rect x="281.7" y="328.7" class="st1" width="47" height="47"/>
	<rect x="281.7" y="281.7" class="st1" width="47" height="47"/>
	<rect x="281.7" y="234.8" class="st1" width="47" height="47"/>
	<rect x="281.7" y="187.8" class="st1" width="47" height="47"/>
	<rect x="281.7" y="140.9" class="st1" width="47" height="47"/>
	<rect x="281.7" y="93.9" class="st1" width="47" height="47"/>
	<rect x="281.7" y="47" class="st0" width="47" height="47"/>
	<rect x="234.8" y="469.5" class="st0" width="47" height="47"/>
	<rect x="234.8" y="422.6" class="st1" width="47" height="47"/>
	<rect x="234.8" y="375.6" class="st1" width="47" height="47"/>
	<rect x="234.8" y="328.7" class="st1" width="47" height="47"/>
	<rect x="234.8" y="281.7" class="st1" width="47" height="47"/>
	<rect x="234.8" y="234.8" class="st1" width="47" height="47"/>
	<rect x="234.8" y="187.8" class="st1" width="47" height="47"/>
	<rect x="234.8" y="140.9" class="st2" width="47" height="47"/>
	<rect x="234.8" y="93.9" class="st1" width="47" height="47"/>
	<rect x="234.8" y="47" class="st1" width="47" height="47"/>
	<rect x="234.8" class="st0" width="47" height="47"/>
	<rect x="187.8" y="422.6" class="st0" width="47" height="47"/>
	<rect x="187.8" y="375.6" class="st1" width="47" height="47"/>
	<rect x="187.8" y="328.7" class="st1" width="47" height="47"/>
	<rect x="187.8" y="281.7" class="st1" width="47" height="47"/>
	<rect x="187.8" y="234.8" class="st1" width="47" height="47"/>
	<rect x="187.8" y="187.8" class="st1" width="47" height="47"/>
	<rect x="187.8" y="140.9" class="st2" width="47" height="47"/>
	<rect x="187.8" y="93.9" class="st2" width="47" height="47"/>
	<rect x="187.8" y="47" class="st1" width="47" height="47"/>
	<rect x="187.8" class="st0" width="47" height="47"/>
	<rect x="140.9" y="375.6" class="st0" width="47" height="47"/>
	<rect x="140.9" y="328.7" class="st1" width="47" height="47"/>
	<rect x="140.9" y="281.7" class="st1" width="47" height="47"/>
	<rect x="140.9" y="234.8" class="st2" width="47" height="47"/>
	<rect x="140.9" y="187.8" class="st2" width="47" height="47"/>
	<rect x="140.9" y="140.9" class="st2" width="47" height="47"/>
	<rect x="140.9" y="93.9" class="st1" width="47" height="47"/>
	<rect x="140.9" y="47" class="st1" width="47" height="47"/>
	<rect x="140.9" class="st0" width="47" height="47"/>
	<rect x="93.9" y="328.7" class="st0" width="47" height="47"/>
	<rect x="93.9" y="281.7" class="st1" width="47" height="47"/>
	<rect x="93.9" y="234.8" class="st1" width="47" height="47"/>
	<rect x="93.9" y="187.8" class="st2" width="47" height="47"/>
	<rect x="93.9" y="140.9" class="st1" width="47" height="47"/>
	<rect x="93.9" y="93.9" class="st1" width="47" height="47"/>
	<rect x="93.9" y="47" class="st0" width="47" height="47"/>
	<rect x="47" y="281.7" class="st0" width="47" height="47"/>
	<rect x="47" y="234.8" class="st1" width="47" height="47"/>
	<rect x="47" y="187.8" class="st1" width="47" height="47"/>
	<rect x="47" y="140.9" class="st1" width="47" height="47"/>
	<rect x="47" y="93.9" class="st0" width="47" height="47"/>
	<rect y="234.8" class="st0" width="47" height="47"/>
	<rect y="187.8" class="st0" width="47" height="47"/>
	<rect y="140.9" class="st0" width="47" height="47"/>
	<path class="st3" d="M236.1,185.6c0.1-2.4-0.3-4.2-1.2-5.4c-0.9-1.2-2-2-3.3-2.3c-1.3-0.3-2.7-0.1-4.3,0.4
		c-1.5,0.6-2.9,1.4-4.1,2.5c-2.9,2.5-5.2,5.7-7,9.6c-1.8,3.9-3,8-3.6,12.2c-0.6,4.3-0.7,8.5-0.1,12.7c0.5,4.2,1.7,7.9,3.5,11
		c1.2,2,2.5,3.5,4.1,4.4c1.6,1,3.3,1.5,5.1,1.6c1.8,0.1,3.6-0.2,5.4-0.9c1.8-0.7,3.4-1.8,4.8-3.2c2.1-2.2,3.9-3.7,5.2-4.6
		c1.3-0.9,2.8-1.4,4.5-1.5c4.7,0,7.8,1.3,9.3,4c1.5,2.7,1.6,5.9,0.3,9.8c-1.1,3-2.7,5.6-4.9,7.9c-2.2,2.3-4.7,4.1-7.6,5.4
		c-2.9,1.4-6,2.3-9.3,2.9c-3.3,0.5-6.6,0.7-9.8,0.4c-3.2-0.3-6.3-0.9-9.2-2.1c-2.9-1.1-5.4-2.6-7.4-4.6c-2.3-2.2-4.3-4.7-6.1-7.5
		c-1.7-2.8-3.2-5.8-4.3-8.9c-1.2-3.1-2-6.4-2.6-9.8c-0.6-3.4-0.9-6.8-0.9-10.2c0.2-7.7,1.8-15.1,4.8-22.3
		c3.1-7.2,7.1-13.4,12.1-18.8c2.3-2.4,5.1-4.5,8.2-6.2c3.2-1.7,6.4-2.8,9.8-3.3c3.3-0.5,6.6-0.3,9.8,0.5c3.2,0.8,6.1,2.6,8.5,5.3
		c1.9,2,3.4,4.3,4.6,6.9c1.2,2.6,2,5.2,2.6,7.8c0.3,1.7,0.5,3.3,0.4,4.8c0,1.5-0.4,2.9-1.1,4.3c-0.9,1.7-2.3,2.9-4.2,3.6
		c-1.9,0.7-3.8,0.9-5.6,0.7c-1.9-0.3-3.5-1-4.8-2.2C236.6,189.3,236,187.7,236.1,185.6z"/>
	<path class="st3" d="M307.8,161.6c3.1,1.8,5.8,4.1,8,6.8c2.2,2.7,4.1,5.6,5.6,8.8c1.5,3.2,2.7,6.5,3.7,10.1
		c0.9,3.5,1.6,7.1,2.1,10.7c1.2,7.1,1.8,14.3,2,21.5c0.2,7.3,0,14.6-0.4,21.9c-0.2,2.1-0.3,3.8-0.5,5.1c-0.2,1.3-0.5,2.4-0.9,3.3
		c-0.5,0.8-1.1,1.5-1.9,2c-0.8,0.5-2,1-3.5,1.4c-1.4,0.2-2.9,0.3-4.4,0.4c-1.5,0.1-3-0.3-4.3-1.3c-1.2-0.8-2.3-2.3-3.1-4.3
		c-0.8-2-1.3-4.9-1.4-8.6v-1.3c-2.1-0.3-4.5-0.5-7.4-0.6c-2.8-0.2-5.8-0.3-8.7-0.3c-3,0-5.8-0.1-8.6-0.1h-7c-0.1,0.8-0.2,2-0.3,3.8
		c-0.1,1.8-0.4,3.5-0.8,5.3c-0.4,1.8-1,3.3-1.7,4.8c-0.7,1.4-1.7,2.2-2.9,2.3c-1.2,0.1-2.5,0.2-4,0.3c-1.5,0.1-2.9-0.1-4.3-0.5
		c-1.4-0.3-2.6-1-3.5-2c-1-1-1.5-2.6-1.5-4.8c0-2.6,0-5.6,0.1-8.9c0.1-3.3,0.2-7,0.5-10.9c0.2-3.3,0.4-6.8,0.8-10.7
		c0.4-3.9,0.9-7.9,1.6-12c0.7-4.1,1.6-8.2,2.7-12.3c1.1-4.1,2.5-8,4.2-11.6c1.7-3.7,3.7-7.1,6-10.1c2.3-3.1,5.1-5.7,8.3-7.8
		c3.8-2.4,8-3.6,12.5-3.6C299.5,158.2,303.8,159.3,307.8,161.6L307.8,161.6z M277.8,218.5c5.2-0.4,10.4-0.7,15.5-0.9
		c5.2-0.2,10.3-0.2,15.5-0.1c0.2-5.9,0-11.2-0.7-15.9c-0.7-4.7-1.8-8.6-3.1-11.8c-1.3-3.2-2.9-5.7-4.7-7.4c-1.8-1.7-3.7-2.6-5.6-2.6
		c-1.7,0-3.4,0.9-5.1,2.6c-1.8,1.7-3.4,4.2-5,7.5c-1.5,3.3-2.9,7.4-4.1,12.2C279.3,207,278.3,212.4,277.8,218.5L277.8,218.5z"/>
	<path class="st3" d="M422.1,247c-0.2,1-0.5,1.9-0.9,2.8c-0.4,0.7-1,1.3-1.9,2c-0.8,0.7-1.9,1.1-3.3,1.3c-1.4,0.2-2.9,0.3-4.4,0.4
		c-1.5,0.1-3-0.1-4.3-0.4c-1.3-0.4-2.5-1-3.5-2c-1-1-1.6-2.4-1.9-4.3c-0.1-0.8-0.1-2.6-0.1-5.2c0-2.6,0-5.8,0.1-9.5
		c0-3.7,0.1-7.8,0.2-12.4c0.1-4.5,0.2-9.2,0.4-13.8c-1.3,2.7-2.6,5.3-3.9,7.8c-1.3,2.5-2.5,4.8-3.6,7c-1.2,2.2-2.2,4.2-3.2,5.9
		c-1,1.8-1.8,3.3-2.5,4.4c-0.5,0.8-0.9,1.6-1.4,2.3c-0.4,0.7-1.1,1.3-2,1.8c-1,0.6-2.1,1-3.4,1.3c-1.3,0.3-2.6,0.4-3.8,0.3
		c-1.3-0.1-2.5-0.4-3.6-0.9c-1.2-0.5-2.1-1.1-2.8-2.1c-0.5-0.6-1.3-1.9-2.4-3.8c-1.1-2-2.4-4.3-3.9-7.1c-1.5-2.8-3.1-5.9-4.9-9.3
		c-1.8-3.4-3.5-6.9-5.2-10.5l0.4,44.2c-0.2,1-0.5,1.9-0.9,2.8c-0.4,0.7-1,1.3-1.9,2c-0.8,0.7-2,1.1-3.4,1.3c-1.5,0.2-3,0.3-4.5,0.4
		c-1.5,0.1-3-0.1-4.3-0.4c-1.3-0.4-2.5-1-3.5-2c-1-1-1.6-2.4-1.9-4.3c-0.2-0.9-0.2-2.8-0.2-5.7c0-2.9,0-6.4,0.1-10.5
		c0.1-4.1,0.2-8.6,0.3-13.5c0.1-4.9,0.3-9.9,0.4-14.9c0.3-11.8,0.8-24.8,1.5-39.1c-0.1-0.8,0-1.4,0.2-2c0.2-0.5,0.5-1,1.1-1.4
		c0.6-0.4,1.5-0.7,2.6-0.8c0.7,0,1.7,0,3-0.1c1.3-0.1,2.7-0.1,4.1,0.1c1.4,0.1,2.7,0.4,4,0.7c1.2,0.3,2.1,0.9,2.6,1.6
		c3.9,7.6,7.9,15.2,11.9,22.7c4,7.5,8.1,15,12.3,22.5c4-7.3,8-14.7,12-22c4-7.3,7.8-14.7,11.6-22.2c0.2-0.8,0.8-1.5,1.8-2.1
		c0.9-0.7,1.9-1,2.8-1.1c1.1,0,2.4,0,3.9-0.1c1.5-0.1,3,0,4.3,0.1c1.4,0.2,2.5,0.5,3.5,1c1,0.5,1.5,1.3,1.6,2.4L422.1,247L422.1,247
		z"/>
	<path class="st3" d="M450,247.1c-0.2,1-0.5,1.9-0.9,2.8c-0.4,0.7-1,1.3-1.9,1.9c-0.8,0.6-1.9,1-3.3,1.2c-1.5,0.2-3,0.3-4.5,0.4
		c-1.5,0.1-3-0.1-4.3-0.4c-1.3-0.4-2.5-1-3.4-2c-0.9-1-1.5-2.4-1.8-4.3c-0.2-0.9-0.2-2.8-0.2-5.8c0-2.9,0.1-6.4,0.2-10.5
		c0.1-4.1,0.2-8.6,0.4-13.5c0.2-4.9,0.3-9.9,0.5-14.9c0.4-11.8,0.9-24.8,1.6-39.1c-0.2-0.8-0.1-1.4,0.2-2c0.2-0.5,0.5-0.9,1.1-1.3
		c0.6-0.4,1.4-0.6,2.6-0.7c1.2,0,2.5,0,4-0.1c1.5,0,3,0,4.4,0.2c1.4,0.2,2.6,0.5,3.6,1c1,0.5,1.5,1.3,1.5,2.3
		C449.9,162.2,450,247.1,450,247.1z"/>
	<path class="st4" d="M221.8,177.1c0.1-2.4-0.3-4.2-1.2-5.4c-0.9-1.2-2-2-3.3-2.3c-1.3-0.3-2.7-0.1-4.3,0.4
		c-1.5,0.6-2.9,1.4-4.1,2.5c-2.9,2.5-5.2,5.7-7,9.6c-1.8,3.9-3,8-3.6,12.2c-0.6,4.3-0.7,8.5-0.1,12.7c0.5,4.2,1.7,7.9,3.5,11
		c1.2,2,2.5,3.5,4.1,4.4c1.6,1,3.3,1.5,5.1,1.6c1.8,0.1,3.6-0.2,5.4-0.9c1.8-0.7,3.4-1.8,4.8-3.2c2.1-2.2,3.9-3.7,5.2-4.6
		c1.3-0.9,2.8-1.4,4.5-1.5c4.7,0,7.8,1.3,9.3,4c1.5,2.7,1.6,5.9,0.3,9.8c-1.1,3-2.7,5.6-4.9,7.9c-2.2,2.3-4.7,4.1-7.6,5.4
		c-2.9,1.4-6,2.3-9.3,2.9c-3.3,0.5-6.6,0.7-9.8,0.4c-3.2-0.3-6.3-0.9-9.2-2.1c-2.9-1.1-5.4-2.6-7.4-4.6c-2.3-2.2-4.3-4.7-6.1-7.5
		c-1.7-2.8-3.2-5.8-4.3-8.9c-1.2-3.1-2-6.4-2.6-9.8c-0.6-3.4-0.9-6.8-0.9-10.2c0.2-7.7,1.8-15.1,4.8-22.3
		c3.1-7.2,7.1-13.4,12.1-18.8c2.3-2.4,5.1-4.5,8.2-6.2c3.2-1.7,6.4-2.8,9.8-3.3c3.3-0.5,6.6-0.3,9.8,0.5c3.2,0.8,6.1,2.6,8.5,5.3
		c1.9,2,3.4,4.3,4.6,6.9c1.2,2.6,2,5.2,2.6,7.8c0.3,1.7,0.5,3.3,0.4,4.8c0,1.5-0.4,2.9-1.1,4.3c-0.9,1.7-2.3,2.9-4.2,3.6
		c-1.9,0.7-3.8,0.9-5.6,0.7c-1.9-0.3-3.5-1-4.8-2.2C222.3,180.8,221.7,179.2,221.8,177.1z"/>
	<path class="st4" d="M293.5,153.1c3.1,1.8,5.8,4.1,8,6.8c2.2,2.7,4.1,5.6,5.6,8.8c1.5,3.2,2.7,6.5,3.7,10.1
		c0.9,3.5,1.6,7.1,2.1,10.7c1.2,7.1,1.8,14.3,2,21.5c0.2,7.3,0,14.6-0.4,21.9c-0.2,2.1-0.3,3.8-0.5,5.1c-0.2,1.3-0.5,2.4-0.9,3.3
		c-0.5,0.8-1.1,1.5-1.9,2s-2,1-3.5,1.4c-1.4,0.2-2.9,0.3-4.4,0.4c-1.5,0.1-3-0.3-4.3-1.3c-1.2-0.8-2.3-2.3-3.1-4.3
		c-0.8-2-1.3-4.9-1.4-8.6v-1.3c-2.1-0.3-4.5-0.5-7.4-0.6c-2.8-0.2-5.8-0.3-8.7-0.3c-3,0-5.8-0.1-8.6-0.1h-7c-0.1,0.8-0.2,2-0.3,3.8
		c-0.1,1.8-0.4,3.5-0.8,5.3c-0.4,1.8-1,3.3-1.7,4.8c-0.7,1.4-1.7,2.2-2.9,2.3c-1.2,0.1-2.5,0.2-4,0.3c-1.5,0.1-2.9-0.1-4.3-0.5
		c-1.4-0.3-2.6-1-3.5-2c-1-1-1.5-2.6-1.5-4.8c0-2.6,0-5.6,0.1-8.9c0.1-3.3,0.2-7,0.5-10.9c0.2-3.3,0.4-6.8,0.8-10.7
		c0.4-3.9,0.9-7.9,1.6-12c0.7-4.1,1.6-8.2,2.7-12.3c1.1-4.1,2.5-8,4.2-11.6c1.7-3.7,3.7-7.1,6-10.1c2.3-3.1,5.1-5.7,8.3-7.8
		c3.8-2.4,8-3.6,12.5-3.6C285.2,149.7,289.5,150.8,293.5,153.1z M263.4,210c5.2-0.4,10.4-0.7,15.5-0.9c5.2-0.2,10.3-0.2,15.5-0.1
		c0.2-5.9,0-11.2-0.7-15.9c-0.7-4.7-1.8-8.6-3.1-11.8c-1.3-3.2-2.9-5.7-4.7-7.4c-1.8-1.7-3.7-2.6-5.6-2.6c-1.7,0-3.4,0.9-5.1,2.6
		c-1.8,1.7-3.4,4.2-5,7.5c-1.5,3.3-2.9,7.4-4.1,12.2C264.9,198.5,264,203.9,263.4,210L263.4,210z"/>
	<path class="st4" d="M407.8,238.5c-0.2,1-0.5,1.9-0.9,2.8c-0.4,0.7-1,1.3-1.9,2c-0.8,0.7-1.9,1.1-3.3,1.3c-1.4,0.2-2.9,0.3-4.4,0.4
		c-1.5,0.1-3-0.1-4.3-0.4c-1.3-0.4-2.5-1-3.5-2c-1-1-1.6-2.4-1.9-4.3c-0.1-0.8-0.1-2.6-0.1-5.2c0-2.6,0-5.8,0.1-9.5
		c0-3.7,0.1-7.8,0.2-12.4c0.1-4.5,0.2-9.2,0.4-13.8c-1.3,2.7-2.6,5.3-3.9,7.8c-1.3,2.5-2.5,4.8-3.6,7c-1.2,2.2-2.2,4.2-3.2,5.9
		c-1,1.8-1.8,3.3-2.5,4.4c-0.5,0.8-0.9,1.6-1.4,2.3c-0.4,0.7-1.1,1.3-2,1.8c-1,0.6-2.1,1-3.4,1.3c-1.3,0.3-2.6,0.4-3.8,0.3
		c-1.3-0.1-2.5-0.4-3.6-0.9c-1.2-0.5-2.1-1.1-2.8-2.1c-0.5-0.6-1.3-1.9-2.4-3.8c-1.1-2-2.4-4.3-3.9-7.1c-1.5-2.8-3.1-5.9-4.9-9.3
		c-1.8-3.4-3.5-6.9-5.2-10.5l0.4,44.2c-0.2,1-0.5,1.9-0.9,2.8c-0.4,0.7-1,1.3-1.9,2c-0.8,0.7-2,1.1-3.4,1.3c-1.5,0.2-3,0.3-4.5,0.4
		c-1.5,0.1-3-0.1-4.3-0.4c-1.3-0.4-2.5-1-3.5-2c-1-1-1.6-2.4-1.9-4.3c-0.2-0.9-0.2-2.8-0.2-5.7c0-2.9,0-6.4,0.1-10.5
		c0.1-4.1,0.2-8.6,0.3-13.5c0.1-4.9,0.3-9.9,0.4-14.9c0.3-11.8,0.8-24.8,1.5-39.1c-0.1-0.8,0-1.4,0.2-2c0.2-0.5,0.5-1,1.1-1.4
		c0.6-0.4,1.5-0.7,2.6-0.8c0.7,0,1.7,0,3-0.1c1.3-0.1,2.7-0.1,4.1,0.1c1.4,0.1,2.7,0.4,4,0.7c1.2,0.3,2.1,0.9,2.6,1.6
		c3.9,7.6,7.9,15.2,11.9,22.7c4,7.5,8.1,15,12.3,22.5c4-7.3,8-14.7,12-22c4-7.3,7.8-14.7,11.6-22.2c0.2-0.8,0.8-1.5,1.8-2.1
		c0.9-0.7,1.9-1,2.8-1.1c1.1,0,2.4,0,3.9-0.1c1.5-0.1,3,0,4.3,0.1c1.4,0.2,2.5,0.5,3.5,1s1.5,1.3,1.6,2.4L407.8,238.5L407.8,238.5z"
		/>
	<path class="st4" d="M435.7,238.6c-0.2,1-0.5,1.9-0.9,2.8c-0.4,0.7-1,1.3-1.9,1.9c-0.8,0.6-1.9,1-3.3,1.2c-1.5,0.2-3,0.3-4.5,0.4
		c-1.5,0.1-3-0.1-4.3-0.4c-1.3-0.4-2.5-1-3.4-2c-0.9-1-1.5-2.4-1.8-4.3c-0.2-0.9-0.2-2.8-0.2-5.8c0-2.9,0.1-6.4,0.2-10.5
		c0.1-4.1,0.2-8.6,0.4-13.5c0.2-4.9,0.3-9.9,0.5-14.9c0.4-11.8,0.9-24.8,1.6-39.1c-0.2-0.8-0.1-1.4,0.2-2c0.2-0.5,0.5-0.9,1.1-1.3
		c0.6-0.4,1.4-0.6,2.6-0.7c1.2,0,2.5,0,4-0.1c1.5,0,3,0,4.4,0.2c1.4,0.2,2.6,0.5,3.6,1c1,0.5,1.5,1.3,1.5,2.3L435.7,238.6
		L435.7,238.6z"/>
	<path class="st3" d="M511.4,209.6h2.1c0.8,0,1.5,0.1,2.3,0.2c0.7,0.1,1.3,0.3,1.8,0.6c0.5,0.3,0.8,0.8,0.8,1.4c0,3.9-0.1,7-0.1,9.3
		c0,2.3-0.1,4.2-0.1,5.5c0,1.4-0.1,2.4-0.1,3.1c0,0.7-0.1,1.3-0.1,1.9c-0.3,2.8-0.7,5.5-1.3,8.1c-0.6,2.6-1.6,5-2.9,7.2
		c-1.3,2.2-2.9,4.2-4.9,5.9c-2,1.8-4.4,3.2-7.3,4.4c-0.6,0.2-1.5,0.4-2.6,0.6c-1.1,0.2-2.2,0.3-3.4,0.4c-1.2,0-2.3-0.1-3.3-0.4
		c-1.1-0.3-1.9-0.9-2.4-1.7c-0.4-0.6-0.7-1.4-0.9-2.5c-0.2-1.1-0.2-2.1-0.2-3.2c0.1-1,0.3-1.9,0.8-2.6s1-1,1.8-0.9
		c1.2,0.2,2.6,0.3,4.1,0.2c1.6-0.1,3.1-0.3,4.6-0.8c1.5-0.5,2.8-1.2,4-2.2c1.2-1,2-2.3,2.5-3.9c-2.8,1-5.4,1.4-7.6,1.2
		c-2.2-0.2-4.1-0.9-5.7-2c-1.6-1.2-2.9-2.7-3.9-4.6c-1-1.9-1.8-4.1-2.4-6.6c-0.5-2.5-0.8-5.1-0.8-7.9c0-2.8,0.2-5.7,0.6-8.6
		c0.1-0.7,0.4-1.3,0.8-1.7c0.5-0.5,1.1-0.6,1.8-0.5c0.5,0,1.2,0.1,2,0.1c0.8,0,1.6,0.1,2.3,0.3c0.7,0.2,1.3,0.4,1.8,0.6
		c0.5,0.3,0.7,0.6,0.7,1.1c0,0.3-0.1,0.7-0.1,0.9c0,0.3-0.1,0.6-0.1,0.9c-0.1,1-0.2,2.4-0.3,4c-0.1,1.6-0.1,3.3,0.1,5
		c0.1,1.7,0.5,3.3,1,4.8c0.5,1.5,1.3,2.7,2.4,3.5c0.8,0.6,1.8,0.9,2.8,1c1,0.1,2-0.1,2.9-0.6c0.9-0.5,1.8-1.4,2.6-2.5
		c0.8-1.2,1.4-2.7,1.7-4.6c0.2-1,0.3-2,0.3-3.1c0-1.1,0-2.1,0-3.2c0-1-0.1-2.1-0.2-3c-0.1-1-0.1-1.8-0.1-2.6c0-0.5,0-0.9,0.2-1.2
		c0.1-0.3,0.3-0.6,0.6-0.8C510.4,209.8,510.9,209.6,511.4,209.6L511.4,209.6z"/>
	<path class="st4" d="M497.1,201.1h2.1c0.8,0,1.5,0.1,2.3,0.2c0.7,0.1,1.3,0.3,1.8,0.6c0.5,0.3,0.8,0.8,0.8,1.4c0,3.9-0.1,7-0.1,9.3
		c0,2.3-0.1,4.2-0.1,5.5c0,1.4-0.1,2.4-0.1,3.1c0,0.7-0.1,1.3-0.1,1.9c-0.3,2.8-0.7,5.5-1.3,8.1c-0.6,2.6-1.6,5-2.9,7.2
		c-1.3,2.2-2.9,4.2-4.9,5.9c-2,1.8-4.4,3.2-7.3,4.4c-0.6,0.2-1.5,0.4-2.6,0.6c-1.1,0.2-2.2,0.3-3.4,0.4c-1.2,0-2.3-0.1-3.3-0.4
		c-1.1-0.3-1.9-0.9-2.4-1.7c-0.4-0.6-0.7-1.4-0.9-2.5c-0.2-1.1-0.2-2.1-0.2-3.2c0.1-1,0.3-1.9,0.8-2.6c0.4-0.7,1-1,1.8-0.9
		c1.2,0.2,2.6,0.3,4.1,0.2c1.6-0.1,3.1-0.3,4.6-0.8c1.5-0.5,2.8-1.2,4-2.2c1.2-1,2-2.3,2.5-3.9c-2.8,1-5.4,1.4-7.6,1.2
		c-2.2-0.2-4.1-0.9-5.7-2c-1.6-1.2-2.9-2.7-3.9-4.6c-1-1.9-1.8-4.1-2.4-6.6c-0.5-2.5-0.8-5.1-0.8-7.9c0-2.8,0.2-5.7,0.6-8.6
		c0.1-0.7,0.4-1.3,0.8-1.7c0.5-0.5,1.1-0.6,1.8-0.5c0.5,0,1.2,0.1,2,0.1c0.8,0,1.6,0.1,2.3,0.3c0.7,0.2,1.3,0.4,1.8,0.6
		c0.5,0.3,0.7,0.6,0.7,1.1c0,0.3-0.1,0.7-0.1,0.9c0,0.3-0.1,0.6-0.1,0.9c-0.1,1-0.2,2.4-0.3,4c-0.1,1.6-0.1,3.3,0.1,5
		c0.1,1.7,0.5,3.3,1,4.8c0.5,1.5,1.3,2.7,2.4,3.5c0.8,0.6,1.8,0.9,2.8,1c1,0.1,2-0.1,2.9-0.6c0.9-0.5,1.8-1.4,2.6-2.5
		c0.8-1.2,1.4-2.7,1.7-4.6c0.2-1,0.3-2,0.3-3.1c0-1.1,0-2.1,0-3.2c0-1-0.1-2.1-0.2-3c-0.1-1-0.1-1.8-0.1-2.6c0-0.5,0-0.9,0.2-1.2
		c0.1-0.3,0.3-0.6,0.6-0.8C496.1,201.3,496.5,201.1,497.1,201.1L497.1,201.1z"/>
	<path class="st3" d="M205.6,308.9c2.5,2.1,5.3,3.9,8.3,5.5c3,1.6,6,3.1,8.9,4.7c3,1.6,5.7,3.3,8.4,5.3c2.6,1.9,4.8,4.3,6.6,7.1
		c1.6,2.6,2.7,5.4,3.2,8.4c0.5,3,0.6,6,0.1,8.9c-0.5,3-1.4,5.8-2.9,8.6c-1.5,2.8-3.4,5.2-5.8,7.3c-3.5,2.9-7.5,4.9-11.9,6
		c-4.4,1.1-8.9,1.6-13.6,1.3c-3.3-0.2-6.5-0.8-9.7-1.8c-3.2-1-6.1-2.4-8.7-4.2c-2.7-1.8-4.9-4.1-6.8-6.7c-1.9-2.7-3.2-5.7-3.9-9.2
		c-0.2-1.1-0.3-2.2-0.4-3.2c-0.1-1.1,0-2.1,0.1-3.1c0.4-1.7,1.2-3.2,2.3-4.6c1.1-1.3,2.3-2.5,3.7-3.5c1.3-1,2.7-1.8,4-2.3
		c1.3-0.5,2.4-0.9,3.2-1.1c0.8-0.1,1.5,0,2.1,0.2c0.5,0.2,0.9,0.5,1.2,0.9c0.3,0.4,0.4,0.8,0.5,1.1c0.1,0.4,0.1,0.7,0.1,0.8
		c0.1,1.7,0.4,3.4,1.1,5.3c0.6,1.8,1.5,3.5,2.5,5.1c1,1.6,2.2,3,3.7,4.3c1.4,1.3,3,2.2,4.8,2.7c1.9,0.6,3.7,0.6,5.6,0.1
		c2.4-0.7,4.2-1.8,5.3-3.4c1.1-1.6,1.6-3.1,1.5-4.6c-0.1-1.4-0.6-2.9-1.5-4.4c-0.9-1.5-2.1-2.9-3.6-4.2c-2.8-2.4-5.9-4.5-9.2-6.5
		c-3.4-1.9-6.7-4-9.9-6.1c-3.2-2.1-6.1-4.5-8.8-7.1c-2.7-2.6-4.7-5.8-6-9.6c-1.6-5.1-1.7-9.5-0.3-13.4c1.4-3.9,3.7-7.1,6.9-9.8
		c3.2-2.6,7-4.6,11.3-5.9c4.3-1.3,8.6-1.8,12.9-1.6c3.6,0.2,7.2,0.8,10.6,2c3.4,1.1,6.5,2.7,9.4,4.6c2.8,1.9,5.2,4.2,7.2,6.8
		c2,2.6,3.3,5.5,4,8.6c0.3,1.9,0,3.7-0.9,5.4c-0.9,1.6-2.1,3.1-3.6,4.3c-1.5,1.2-3.1,2.2-4.8,2.8c-1.7,0.6-3.2,0.8-4.4,0.6
		c-1.6-0.6-2.8-1.9-3.7-3.9c-2.1-5.1-4.5-8.6-7.3-10.6c-2.7-2-5.3-2.9-7.7-2.9c-2.4,0.1-4.4,1-6,2.7c-1.6,1.7-2.3,3.8-2.2,6.3
		c0.1,0.9,0.5,1.9,1.2,3C203.5,306.9,204.4,307.9,205.6,308.9z"/>
	<path class="st3" d="M301,352.2c2.4,0,4,0.4,4.7,1.3c0.7,0.9,0.9,2.7,0.8,5.4c-0.1,1.5-0.2,3.1-0.3,4.6c-0.1,1.6-0.4,3-0.7,4.3
		c-0.3,1.3-0.8,2.4-1.3,3.4c-0.5,0.9-1.2,1.5-2,1.8c-0.4,0.2-1.3,0.2-2.5,0.1c-1.3-0.1-2.8-0.3-4.6-0.4c-5-0.4-10-0.6-15-0.6
		c-5,0-10.3,0.2-15.9,0.6c-1.4,0.2-2.7,0.3-4.1,0.3c-1.4,0-2.7-0.2-3.9-0.6c-1.3-0.4-2.4-1-3.4-1.8c-1-0.8-1.8-2.1-2.4-3.8
		c-0.3-1-0.6-3-0.8-6.1c-0.2-3-0.3-6.7-0.3-10.9c0-11.1,0-22.4,0.1-33.7c0.1-11.3,0.5-22.5,1.4-33.7c0-2.1,0.8-3.6,2.5-4.4
		c1.7-0.8,3.6-1.2,5.7-1.2c3.4-0.2,7-0.3,10.8-0.4c3.8-0.1,7.6-0.2,11.5-0.3c3.8-0.1,7.6-0.1,11.3-0.1H303c0.3,0.1,0.5,0.2,0.8,0.4
		c0.5,0.3,1,0.9,1.4,1.6c0.5,0.9,0.9,2.3,1.1,4.2c0.2,1.9,0.3,3.8,0.1,5.8c-0.1,2-0.5,3.8-1.1,5.4c-0.6,1.6-1.4,2.7-2.4,3.2
		c-0.4,0.1-1.3,0.1-2.7,0.1s-3,0-4.9-0.1c-1.9,0-4-0.1-6.3-0.3c-2.3-0.1-4.6-0.3-6.8-0.4c-2.2-0.1-4.4-0.2-6.5-0.3
		c-2.1-0.1-3.8-0.1-5.3-0.1l-0.5,20.3l23.6-0.1c1.6,0.3,2.7,1.3,3.3,3.2c0.6,1.9,0.9,3.9,0.8,6.1c0,2.2-0.4,4.3-1,6.2
		c-0.6,1.9-1.4,3-2.2,3.4c-0.4,0.2-1.5,0.2-3.4,0.2c-1.8,0-3.9-0.1-6.4-0.2c-2.4-0.1-5-0.2-7.7-0.3c-2.7-0.1-5.1-0.3-7.2-0.4
		c-0.1,3.3-0.1,6.5-0.1,9.8c0,3.2,0.1,6.4,0.3,9.6c2.2-0.3,4.6-0.4,7.2-0.6c2.6-0.1,5.3-0.2,8-0.3c2.7-0.1,5.5-0.1,8.2-0.1
		C296.1,352.1,298.6,352.1,301,352.2z"/>
	<path class="st3" d="M367,322.8c3.7,2.9,6.5,6.4,8.3,10.7c1.8,4.3,2.4,8.7,1.7,13.2c-0.8,5.2-2.8,9.5-6.1,13
		c-3.3,3.5-7.2,6.3-11.7,8.3c-4.5,2-9.3,3.4-14.5,4.1s-10.1,0.8-14.6,0.3c-0.4,0.2-0.8,0.3-1.1,0.3c-0.3,0-0.7,0.1-1.1,0.2
		c-1.5,0.1-3.1,0.1-4.7,0c-1.6-0.1-3.1-0.4-4.4-0.8c-1.3-0.5-2.4-1.2-3.4-2.3c-0.9-1.1-1.5-2.6-1.6-4.5c-0.2-0.9-0.2-2.8-0.1-5.6
		c0.1-2.8,0.2-6.3,0.3-10.3c0.2-4.1,0.3-8.6,0.4-13.5c0.1-4.9,0.2-9.7,0.3-14.6c0.1-6.4,0.2-12.9,0.3-19.4c0.1-6.5-0.2-13-0.8-19.6
		c-0.2-0.8-0.1-1.4,0.3-2c0.2-0.5,0.5-1,1.1-1.5c0.6-0.5,1.5-0.8,2.7-1c0.8-0.1,1.8-0.2,2.8-0.4c1-0.2,2.1-0.3,3.2-0.4
		c1.1-0.1,2.2-0.1,3.2,0c1,0.1,1.9,0.3,2.7,0.5c4.3-0.6,8.8-0.6,13.6-0.1c4.7,0.5,9.2,1.7,13.4,3.4c4.2,1.7,7.8,3.9,10.9,6.8
		c3.1,2.8,5.1,6.3,6.1,10.3c0.4,1.8,0.7,3.6,0.8,5.6c0.1,1.9-0.1,3.9-0.6,6c-0.5,2.1-1.3,4.2-2.5,6.5
		C370.5,318.1,368.9,320.4,367,322.8z M334.1,315.3c4.1,0.2,7.5-0.3,10.3-1.3c2.8-1,4.9-2.3,6.3-4c1.4-1.6,2.1-3.4,2-5.4
		c0-1.9-0.8-3.7-2.2-5.2c-1.4-1.5-3.6-2.7-6.5-3.5c-2.9-0.8-6.5-0.9-10.9-0.3c0.3,3.3,0.4,6.5,0.6,9.8
		C333.7,308.7,333.9,311.9,334.1,315.3z M334.4,352.1c4.6,0.5,8.4,0.3,11.5-0.6c3.1-0.9,5.5-2.2,7-3.8c1.6-1.6,2.4-3.3,2.4-5.2
		c0-1.9-0.7-3.5-2.2-4.8c-1.5-1.3-3.8-2.3-7-2.7c-3.1-0.5-7.1-0.1-11.8,1V352.1z"/>
	<path class="st3" d="M433.9,279.5c3.2,1.9,6,4.1,8.2,6.8c2.3,2.7,4.2,5.7,5.8,8.9c1.6,3.2,2.8,6.6,3.7,10.2
		c0.9,3.6,1.6,7.2,2.2,10.8c1.2,7.2,1.9,14.4,2,21.8c0.2,7.3,0,14.7-0.4,22.2c-0.2,2.1-0.3,3.8-0.5,5.2c-0.2,1.4-0.5,2.5-1,3.3
		c-0.5,0.8-1.1,1.5-2,2c-0.8,0.5-2,1-3.5,1.4c-1.4,0.2-2.9,0.3-4.5,0.4c-1.6,0.1-3-0.3-4.4-1.3c-1.3-0.8-2.3-2.3-3.2-4.3
		c-0.8-2-1.3-4.9-1.4-8.7v-1.3c-2.1-0.3-4.6-0.5-7.5-0.6c-2.9-0.2-5.9-0.3-8.9-0.3c-3,0-6-0.1-8.8-0.1h-7.2c-0.1,0.8-0.2,2-0.3,3.8
		c-0.1,1.8-0.4,3.5-0.8,5.3c-0.4,1.8-1,3.4-1.7,4.8c-0.7,1.4-1.7,2.2-3,2.3c-1.2,0.1-2.5,0.2-4.1,0.3c-1.5,0.1-3-0.1-4.4-0.5
		c-1.4-0.3-2.6-1-3.6-2c-1-1-1.5-2.6-1.6-4.8c0-2.6,0-5.6,0.1-9c0.1-3.4,0.3-7,0.5-11c0.2-3.3,0.4-6.9,0.8-10.8
		c0.4-3.9,0.9-8,1.6-12.1c0.7-4.1,1.6-8.3,2.8-12.4c1.1-4.1,2.6-8.1,4.3-11.8c1.7-3.7,3.8-7.1,6.1-10.3c2.4-3.1,5.2-5.7,8.5-7.9
		c3.9-2.4,8.1-3.7,12.8-3.7C425.3,276.1,429.7,277.2,433.9,279.5z M403.1,337.1c5.3-0.4,10.6-0.7,15.9-1c5.3-0.2,10.6-0.2,15.9-0.1
		c0.3-6,0-11.4-0.8-16.1c-0.8-4.7-1.8-8.7-3.2-12c-1.4-3.3-3-5.7-4.8-7.5c-1.9-1.7-3.8-2.6-5.7-2.6c-1.7,0-3.4,0.9-5.3,2.6
		c-1.8,1.7-3.5,4.3-5.1,7.6c-1.6,3.3-3,7.5-4.2,12.3C404.6,325.4,403.7,330.9,403.1,337.1z"/>
	<path class="st3" d="M489.7,308.9c2.5,2.1,5.3,3.9,8.3,5.5c3,1.6,6,3.1,8.9,4.7c3,1.6,5.7,3.3,8.4,5.3c2.6,1.9,4.8,4.3,6.6,7.1
		c1.6,2.6,2.7,5.4,3.2,8.4c0.5,3,0.6,6,0.1,8.9c-0.5,3-1.4,5.8-2.9,8.6c-1.5,2.8-3.4,5.2-5.8,7.3c-3.5,2.9-7.5,4.9-11.9,6
		c-4.4,1.1-8.9,1.6-13.6,1.3c-3.3-0.2-6.5-0.8-9.7-1.8c-3.2-1-6.1-2.4-8.7-4.2c-2.7-1.8-4.9-4.1-6.8-6.7c-1.9-2.7-3.2-5.7-3.9-9.2
		c-0.2-1.1-0.3-2.2-0.4-3.2c-0.1-1.1,0-2.1,0.1-3.1c0.4-1.7,1.2-3.2,2.3-4.6c1.1-1.3,2.3-2.5,3.7-3.5c1.3-1,2.7-1.8,4-2.3
		c1.3-0.5,2.4-0.9,3.2-1.1c0.8-0.1,1.5,0,2.1,0.2c0.5,0.2,0.9,0.5,1.2,0.9c0.3,0.4,0.4,0.8,0.5,1.1c0.1,0.4,0.1,0.7,0.1,0.8
		c0.1,1.7,0.4,3.4,1.1,5.3c0.6,1.8,1.5,3.5,2.5,5.1c1,1.6,2.2,3,3.7,4.3c1.4,1.3,3,2.2,4.8,2.7c1.9,0.6,3.7,0.6,5.6,0.1
		c2.4-0.7,4.2-1.8,5.3-3.4c1.1-1.6,1.6-3.1,1.5-4.6c-0.1-1.4-0.6-2.9-1.5-4.4c-0.9-1.5-2.1-2.9-3.6-4.2c-2.8-2.4-5.9-4.5-9.2-6.5
		c-3.4-1.9-6.7-4-9.9-6.1c-3.2-2.1-6.1-4.5-8.8-7.1c-2.7-2.6-4.7-5.8-6-9.6c-1.6-5.1-1.7-9.5-0.3-13.4c1.4-3.9,3.7-7.1,6.9-9.8
		c3.2-2.6,7-4.6,11.3-5.9c4.3-1.3,8.6-1.8,12.9-1.6c3.6,0.2,7.2,0.8,10.6,2c3.4,1.1,6.5,2.7,9.4,4.6c2.8,1.9,5.2,4.2,7.2,6.8
		c2,2.6,3.3,5.5,4,8.6c0.3,1.9,0,3.7-0.9,5.4c-0.9,1.6-2.1,3.1-3.6,4.3c-1.5,1.2-3.1,2.2-4.8,2.8c-1.7,0.6-3.2,0.8-4.4,0.6
		c-1.6-0.6-2.8-1.9-3.7-3.9c-2.1-5.1-4.5-8.6-7.3-10.6c-2.7-2-5.3-2.9-7.7-2.9c-2.4,0.1-4.4,1-6,2.7c-1.6,1.7-2.3,3.8-2.2,6.3
		c0.1,0.9,0.5,1.9,1.2,3C487.6,306.9,488.5,307.9,489.7,308.9z"/>
	<path class="st4" d="M192.5,298.6c2.5,2.1,5.3,3.9,8.3,5.5c3,1.6,6,3.1,8.9,4.7c3,1.6,5.7,3.3,8.4,5.3c2.6,1.9,4.8,4.3,6.6,7.1
		c1.6,2.6,2.7,5.4,3.2,8.4c0.5,3,0.6,6,0.1,8.9c-0.5,3-1.4,5.8-2.9,8.6c-1.5,2.8-3.4,5.2-5.8,7.3c-3.5,2.9-7.5,4.9-11.9,6
		c-4.4,1.1-8.9,1.6-13.6,1.3c-3.3-0.2-6.5-0.8-9.7-1.8c-3.2-1-6.1-2.4-8.7-4.2c-2.7-1.8-4.9-4.1-6.8-6.7c-1.9-2.7-3.2-5.7-3.9-9.2
		c-0.2-1.1-0.3-2.2-0.4-3.2c-0.1-1.1,0-2.1,0.1-3.1c0.4-1.7,1.2-3.2,2.3-4.6c1.1-1.3,2.3-2.5,3.7-3.5c1.3-1,2.7-1.8,4-2.3
		c1.3-0.5,2.4-0.9,3.2-1.1c0.8-0.1,1.5,0,2.1,0.2c0.5,0.2,0.9,0.5,1.2,0.9c0.3,0.4,0.4,0.8,0.5,1.1c0.1,0.4,0.1,0.7,0.1,0.8
		c0.1,1.7,0.4,3.4,1.1,5.3c0.6,1.8,1.5,3.5,2.5,5.1c1,1.6,2.2,3,3.7,4.3c1.4,1.3,3,2.2,4.8,2.7c1.9,0.6,3.7,0.6,5.6,0.1
		c2.4-0.7,4.2-1.8,5.3-3.4c1.1-1.6,1.6-3.1,1.5-4.6c-0.1-1.4-0.6-2.9-1.5-4.4c-0.9-1.5-2.1-2.9-3.6-4.2c-2.8-2.4-5.9-4.5-9.2-6.5
		c-3.4-1.9-6.7-4-9.9-6.1c-3.2-2.1-6.1-4.5-8.8-7.1c-2.7-2.6-4.7-5.8-6-9.6c-1.6-5.1-1.7-9.5-0.3-13.4c1.4-3.9,3.7-7.1,6.9-9.8
		c3.2-2.6,7-4.6,11.3-5.9c4.3-1.3,8.6-1.8,12.9-1.6c3.6,0.2,7.2,0.8,10.6,2c3.4,1.1,6.5,2.7,9.4,4.6c2.8,1.9,5.2,4.2,7.2,6.8
		c2,2.6,3.3,5.5,4,8.6c0.3,1.9,0,3.7-0.9,5.4c-0.9,1.6-2.1,3.1-3.6,4.3c-1.5,1.2-3.1,2.2-4.8,2.8c-1.7,0.6-3.2,0.8-4.4,0.6
		c-1.6-0.6-2.8-1.9-3.7-3.9c-2.1-5.1-4.5-8.6-7.3-10.6c-2.7-2-5.3-2.9-7.7-2.9c-2.4,0.1-4.4,1-6,2.7c-1.6,1.7-2.3,3.8-2.2,6.3
		c0.1,0.9,0.5,1.9,1.2,3C190.4,296.7,191.3,297.7,192.5,298.6z"/>
	<path class="st4" d="M287.9,341.9c2.4,0,4,0.4,4.7,1.3c0.7,0.9,0.9,2.7,0.8,5.4c-0.1,1.5-0.2,3.1-0.3,4.6c-0.1,1.6-0.4,3-0.7,4.3
		c-0.3,1.3-0.8,2.4-1.3,3.4c-0.5,0.9-1.2,1.5-2,1.8c-0.4,0.2-1.3,0.2-2.5,0.1c-1.3-0.1-2.8-0.3-4.6-0.4c-5-0.4-10-0.6-15-0.6
		c-5,0-10.3,0.2-15.9,0.6c-1.4,0.2-2.7,0.3-4.1,0.3c-1.4,0-2.7-0.2-3.9-0.6c-1.3-0.4-2.4-1-3.4-1.8c-1-0.8-1.8-2.1-2.4-3.8
		c-0.3-1-0.6-3-0.8-6.1c-0.2-3-0.3-6.7-0.3-10.9c0-11.1,0-22.4,0.1-33.7c0.1-11.3,0.5-22.5,1.4-33.7c0-2.1,0.8-3.6,2.5-4.4
		c1.7-0.8,3.6-1.2,5.7-1.2c3.4-0.2,7-0.3,10.8-0.4c3.8-0.1,7.6-0.2,11.5-0.3c3.8-0.1,7.6-0.1,11.3-0.1h10.5c0.3,0.1,0.5,0.2,0.8,0.4
		c0.5,0.3,1,0.9,1.4,1.6c0.5,0.9,0.9,2.3,1.1,4.2c0.2,1.9,0.3,3.8,0.1,5.8c-0.1,2-0.5,3.8-1.1,5.4c-0.6,1.6-1.4,2.7-2.4,3.2
		c-0.4,0.1-1.3,0.1-2.7,0.1s-3,0-4.9-0.1c-1.9,0-4-0.1-6.3-0.3c-2.3-0.1-4.6-0.3-6.8-0.4c-2.2-0.1-4.4-0.2-6.5-0.3
		c-2.1-0.1-3.8-0.1-5.3-0.1l-0.5,20.3l23.6-0.1c1.6,0.3,2.7,1.3,3.3,3.2c0.6,1.9,0.9,3.9,0.8,6.1c0,2.2-0.4,4.3-1,6.2
		c-0.6,1.9-1.4,3-2.2,3.4c-0.4,0.2-1.5,0.2-3.4,0.2c-1.8,0-3.9-0.1-6.4-0.2c-2.4-0.1-5-0.2-7.7-0.3c-2.7-0.1-5.1-0.3-7.2-0.4
		c-0.1,3.3-0.1,6.5-0.1,9.8c0,3.2,0.1,6.4,0.3,9.6c2.2-0.3,4.6-0.4,7.2-0.6c2.6-0.1,5.3-0.2,8-0.3c2.7-0.1,5.5-0.1,8.2-0.1
		C282.9,341.8,285.5,341.9,287.9,341.9z"/>
	<path class="st4" d="M353.9,312.6c3.7,2.9,6.5,6.4,8.3,10.7c1.8,4.3,2.4,8.7,1.7,13.2c-0.8,5.2-2.8,9.5-6.1,13
		c-3.3,3.5-7.2,6.3-11.7,8.3c-4.5,2-9.3,3.4-14.5,4.1s-10.1,0.8-14.6,0.3c-0.4,0.2-0.8,0.3-1.1,0.3c-0.3,0-0.7,0.1-1.1,0.2
		c-1.5,0.1-3.1,0.1-4.7,0c-1.6-0.1-3.1-0.4-4.4-0.8c-1.3-0.5-2.4-1.2-3.4-2.3c-0.9-1.1-1.5-2.6-1.6-4.5c-0.2-0.9-0.2-2.8-0.1-5.6
		c0.1-2.8,0.2-6.3,0.3-10.3c0.2-4.1,0.3-8.6,0.4-13.5c0.1-4.9,0.2-9.7,0.3-14.6c0.1-6.4,0.2-12.9,0.3-19.4c0.1-6.5-0.2-13-0.8-19.6
		c-0.2-0.8-0.1-1.4,0.3-2c0.2-0.5,0.5-1,1.1-1.5c0.6-0.5,1.5-0.8,2.7-1c0.8-0.1,1.8-0.2,2.8-0.4c1-0.2,2.1-0.3,3.2-0.4
		c1.1-0.1,2.2-0.1,3.2,0c1,0.1,1.9,0.3,2.7,0.5c4.3-0.6,8.8-0.6,13.6-0.1c4.7,0.5,9.2,1.7,13.4,3.4c4.2,1.7,7.8,3.9,10.9,6.8
		c3.1,2.8,5.1,6.3,6.1,10.3c0.4,1.8,0.7,3.6,0.8,5.6c0.1,1.9-0.1,3.9-0.6,6c-0.5,2.1-1.3,4.2-2.5,6.5
		C357.3,307.9,355.8,310.2,353.9,312.6z M320.9,305.1c4.1,0.2,7.5-0.3,10.3-1.3c2.8-1,4.9-2.3,6.3-4c1.4-1.6,2.1-3.4,2-5.4
		c0-1.9-0.8-3.7-2.2-5.2c-1.4-1.5-3.6-2.7-6.5-3.5c-2.9-0.8-6.5-0.9-10.9-0.3c0.3,3.3,0.4,6.5,0.6,9.8
		C320.6,298.4,320.8,301.7,320.9,305.1z M321.3,341.8c4.6,0.5,8.4,0.3,11.5-0.6c3.1-0.9,5.5-2.2,7-3.8c1.6-1.6,2.4-3.3,2.4-5.2
		c0-1.9-0.7-3.5-2.2-4.8c-1.5-1.3-3.8-2.3-7-2.7c-3.1-0.5-7.1-0.1-11.8,1V341.8z"/>
	<path class="st4" d="M420.7,269.2c3.2,1.9,6,4.1,8.2,6.8c2.3,2.7,4.2,5.7,5.8,8.9c1.6,3.2,2.8,6.6,3.7,10.2
		c0.9,3.6,1.6,7.2,2.2,10.8c1.2,7.2,1.9,14.4,2,21.8c0.2,7.3,0,14.7-0.4,22.2c-0.2,2.1-0.3,3.8-0.5,5.2c-0.2,1.4-0.5,2.5-1,3.3
		c-0.5,0.8-1.1,1.5-2,2c-0.8,0.5-2,1-3.5,1.4c-1.4,0.2-2.9,0.3-4.5,0.4c-1.6,0.1-3-0.3-4.4-1.3c-1.3-0.8-2.3-2.3-3.2-4.3
		c-0.8-2-1.3-4.9-1.4-8.7v-1.3c-2.1-0.3-4.6-0.5-7.5-0.6c-2.9-0.2-5.9-0.3-8.9-0.3c-3,0-6-0.1-8.8-0.1h-7.2c-0.1,0.8-0.2,2-0.3,3.8
		c-0.1,1.8-0.4,3.5-0.8,5.3c-0.4,1.8-1,3.4-1.7,4.8c-0.7,1.4-1.7,2.2-3,2.3c-1.2,0.1-2.5,0.2-4.1,0.3c-1.5,0.1-3-0.1-4.4-0.5
		c-1.4-0.3-2.6-1-3.6-2c-1-1-1.5-2.6-1.6-4.8c0-2.6,0-5.6,0.1-9c0.1-3.4,0.3-7,0.5-11c0.2-3.3,0.4-6.9,0.8-10.8
		c0.4-3.9,0.9-8,1.6-12.1c0.7-4.1,1.6-8.3,2.8-12.4c1.1-4.1,2.6-8.1,4.3-11.8c1.7-3.7,3.8-7.1,6.1-10.3c2.4-3.1,5.2-5.7,8.5-7.9
		c3.9-2.4,8.1-3.7,12.8-3.7C412.2,265.8,416.6,267,420.7,269.2z M390,326.9c5.3-0.4,10.6-0.7,15.9-1c5.3-0.2,10.6-0.2,15.9-0.1
		c0.3-6,0-11.4-0.8-16.1c-0.8-4.7-1.8-8.7-3.2-12c-1.4-3.3-3-5.7-4.8-7.5c-1.9-1.7-3.8-2.6-5.7-2.6c-1.7,0-3.4,0.9-5.3,2.6
		c-1.8,1.7-3.5,4.3-5.1,7.6c-1.6,3.3-3,7.5-4.2,12.3C391.5,315.2,390.5,320.7,390,326.9z"/>
	<path class="st4" d="M476.6,298.6c2.5,2.1,5.3,3.9,8.3,5.5c3,1.6,6,3.1,8.9,4.7c3,1.6,5.7,3.3,8.4,5.3c2.6,1.9,4.8,4.3,6.6,7.1
		c1.6,2.6,2.7,5.4,3.2,8.4c0.5,3,0.6,6,0.1,8.9c-0.5,3-1.4,5.8-2.9,8.6c-1.5,2.8-3.4,5.2-5.8,7.3c-3.5,2.9-7.5,4.9-11.9,6
		c-4.4,1.1-8.9,1.6-13.6,1.3c-3.3-0.2-6.5-0.8-9.7-1.8c-3.2-1-6.1-2.4-8.7-4.2c-2.7-1.8-4.9-4.1-6.8-6.7c-1.9-2.7-3.2-5.7-3.9-9.2
		c-0.2-1.1-0.3-2.2-0.4-3.2c-0.1-1.1,0-2.1,0.1-3.1c0.4-1.7,1.2-3.2,2.3-4.6c1.1-1.3,2.3-2.5,3.7-3.5c1.3-1,2.7-1.8,4-2.3
		c1.3-0.5,2.4-0.9,3.2-1.1c0.8-0.1,1.5,0,2.1,0.2c0.5,0.2,0.9,0.5,1.2,0.9c0.3,0.4,0.4,0.8,0.5,1.1c0.1,0.4,0.1,0.7,0.1,0.8
		c0.1,1.7,0.4,3.4,1.1,5.3c0.6,1.8,1.5,3.5,2.5,5.1c1,1.6,2.2,3,3.7,4.3c1.4,1.3,3,2.2,4.8,2.7c1.9,0.6,3.7,0.6,5.6,0.1
		c2.4-0.7,4.2-1.8,5.3-3.4c1.1-1.6,1.6-3.1,1.5-4.6c-0.1-1.4-0.6-2.9-1.5-4.4c-0.9-1.5-2.1-2.9-3.6-4.2c-2.8-2.4-5.9-4.5-9.2-6.5
		c-3.4-1.9-6.7-4-9.9-6.1c-3.2-2.1-6.1-4.5-8.8-7.1c-2.7-2.6-4.7-5.8-6-9.6c-1.6-5.1-1.7-9.5-0.3-13.4c1.4-3.9,3.7-7.1,6.9-9.8
		c3.2-2.6,7-4.6,11.3-5.9c4.3-1.3,8.6-1.8,12.9-1.6c3.6,0.2,7.2,0.8,10.6,2c3.4,1.1,6.5,2.7,9.4,4.6c2.8,1.9,5.2,4.2,7.2,6.8
		c2,2.6,3.3,5.5,4,8.6c0.3,1.9,0,3.7-0.9,5.4c-0.9,1.6-2.1,3.1-3.6,4.3c-1.5,1.2-3.1,2.2-4.8,2.8c-1.7,0.6-3.2,0.8-4.4,0.6
		c-1.6-0.6-2.8-1.9-3.7-3.9c-2.1-5.1-4.5-8.6-7.3-10.6c-2.7-2-5.3-2.9-7.7-2.9c-2.4,0.1-4.4,1-6,2.7c-1.6,1.7-2.3,3.8-2.2,6.3
		c0.1,0.9,0.5,1.9,1.2,3C474.5,296.7,475.4,297.7,476.6,298.6z"/>
</g>
</svg>
