<?xml version="1.0" encoding="UTF-8"?><svg xmlns="http://www.w3.org/2000/svg" xmlns:xlink="http://www.w3.org/1999/xlink" viewBox="0 0 1935.3333333333 1145.9753577177"><defs><style>.cls-1{clip-path:url(#clippath);}.cls-2{fill:none;}.cls-2,.cls-3,.cls-4,.cls-5,.cls-6,.cls-7{stroke-width:0px;}.cls-8{mix-blend-mode:overlay;}.cls-9{isolation:isolate;}.cls-3{fill:#2b1845;}.cls-4{fill:#1c0838;}.cls-5{fill:#93278f;}.cls-6{fill:#fff;}.cls-7{fill:#fcee21;}</style><clipPath id="clippath"><rect class="cls-2" x="7.6666666667" y="11.6543455255" width="1920" height="1080"/></clipPath></defs><g class="cls-9"><g id="Capa_2"><g id="Capa_1-2"><g class="cls-1"><rect class="cls-3" width="1935.3333333333" height="1096.6666666667"/><g class="cls-8"><rect class="cls-7" x="1831.1197168692" y="435.5367684058" width="21.3783522599" height="57.602724549"/><rect class="cls-5" x="1704.1246060927" y="237.432516899" width="10.6891764" height="10.6891764"/><rect class="cls-7" x="712.0285235338" y="265.9341940899" width="10.68917613" height="10.6891764"/><rect class="cls-7" x="150.4876880509" y="132.5623885442" width="10.6891764" height="10.6891764"/><path class="cls-7" d="m-92.8379217041,1009.4030467041H174.3906006033c1.6325913434,0,2.9580483788,1.3254570354,2.9580483788,2.9580483788v.0000030326H-92.8379217041v-2.9580514114h0Z" transform="translate(1053.1374360488 968.6267087708) rotate(90)"/><rect class="cls-7" x="1310.8325849557" y="262.434493025" width="4.9667256888" height="4.9665476613"/><rect class="cls-7" x="260.7461181332" y="528.0230010062" width="4.9665476613" height="4.9665476613"/><rect class="cls-6" x="469.0608778056" y="366.1001501461" width="4.9665475358" height="4.9665476613"/><rect class="cls-7" x="1663.5865989469" y="124.5899102442" width="4.9665475359" height="4.9665476613"/><rect class="cls-5" x="1233.4269160106" y="207.5083382465" width="4.9665475359" height="4.9665476613"/><rect class="cls-5" x="317.4390156176" y="363.6168763154" width="4.9665476613" height="4.9665476613"/><rect class="cls-5" x="1268.1244382632" y="747.287631636" width="4.9665475359" height="4.9665476613"/><rect class="cls-5" x="325.5667090463" y="791.3077486087" width="4.9665476613" height="4.9665476613"/><rect class="cls-5" x="380.1073695539" y="974.3822936017" width="15.8372826385" height="15.8372103902" transform="translate(603.3017618421 2016.2910302468) rotate(-170.2060287405)"/><polygon class="cls-5" points="161.1782496407 463.0461149755 165.4170424351 454.7940707947 156.0458417219 449.98002205 143.5548268023 453.9932733293 161.1782496407 463.0461149755"/><polygon class="cls-5" points="151.7612636232 425.1966321078 139.2706050094 429.2098833871 134.3313148727 438.8255101707 124.7156926855 433.8862199092 112.2248556033 437.8992930356 122.0154285739 442.9287286848 146.7321844069 434.9873832313 151.7612636232 425.1966321078"/><polygon class="cls-5" points="142.583358845 443.064659378 143.3795243138 441.514550647 128.5425959897 446.2815670156 130.0925265677 447.0777325044 126.5301803794 454.0132264586 149.5186744711 446.6271837192 142.583358845 443.064659378"/><polygon class="cls-5" points="146.0601915342 415.9918260038 142.6232651026 422.6827159714 152.7510813328 419.4287525223 146.0601915342 415.9918260038"/><polygon class="cls-5" points="111.4976353022 427.096276907 108.0607087837 433.7873450275 118.1885252698 430.5333815784 111.4976353022 427.096276907"/><polygon class="cls-5" points="118.3636496098 469.9117729772 126.6156937906 474.1505658786 135.6681745007 456.527142595 123.1773420486 460.5403938744 118.3636496098 469.9117729772"/><polygon class="cls-5" points="105.2141811084 434.7018040685 104.4123147255 436.2629582817 109.378149775 438.8139302296 121.8689868573 434.8006789502 115.3419975945 431.4478406194 105.2141811084 434.7018040685"/><polygon class="cls-5" points="139.7767374992 423.5971750124 136.4238992531 430.1243424282 148.9147360197 426.1112693017 151.4655297502 421.1452560992 149.9045537294 420.3432115633 139.7767374992 423.5971750124"/><polygon class="cls-5" points="130.3241253897 445.7091616193 145.1610536688 440.9421452508 148.5138919149 434.4149778351 123.7971361269 442.3563232885 130.3241253897 445.7091616193"/><polygon class="cls-5" points="123.1960481073 455.0844600869 119.8432097765 461.6116275026 132.3342204657 457.5983762232 135.0104338628 452.3881153399 140.2206946144 455.0645069576 152.711709534 451.0512556782 146.1845422832 447.6984173474 123.1960481073 455.0844600869"/><polygon class="cls-7" points="165.8446094803 461.5467798324 170.0834022746 453.2947356516 160.7122015615 448.4808650599 148.2211866418 452.4939381863 165.8446094803 461.5467798324"/><polygon class="cls-7" points="156.4278067702 423.6972969647 143.936964849 427.7105482441 138.9976747122 437.3263531806 129.3820526429 432.3868847662 116.8912155607 436.4001360455 126.6817885314 441.4293935417 151.3987223994 433.4882262412 156.4278067702 423.6972969647"/><polygon class="cls-7" points="147.2497186846 441.565324235 148.0458841533 440.015393657 133.208951379 444.7822318725 134.759064678 445.5785755143 131.1965358196 452.5138913156 154.1850343106 445.1278485761 147.2497186846 441.565324235"/><polygon class="cls-7" points="150.7265513738 414.4924908608 147.2896249421 421.1833808284 157.4174411723 417.9294173793 150.7265513738 414.4924908608"/><polygon class="cls-7" points="116.1641734126 425.5971199169 112.7270687412 432.2880098844 122.8548852272 429.0340464353 116.1641734126 425.5971199169"/><polygon class="cls-7" points="123.0301877202 468.4124378341 131.2822273816 472.6514088885 140.3347124932 455.0278074519 127.843702006 459.0410587313 123.0301877202 468.4124378341"/><polygon class="cls-7" points="109.8805410658 433.2026470784 109.0786746829 434.7636231387 114.0446878854 437.3145950866 126.5355249676 433.3015219601 120.0083575519 429.9486836293 109.8805410658 433.2026470784"/><polygon class="cls-7" points="144.4430973387 422.0980180223 141.0904372455 428.625185438 153.5812740122 424.6119341587 156.1320728898 419.6459209562 154.5709135689 418.8440545732 144.4430973387 422.0980180223"/><polygon class="cls-7" points="134.9906635 444.2098264763 149.8275916612 439.4429882607 153.1802517544 432.915820845 128.4634960843 440.8569881455 134.9906635 444.2098264763"/><polygon class="cls-7" points="127.8624080647 453.5851249438 124.5097478869 460.1122923595 137.0005803053 456.0990410801 139.6769718553 450.8887801969 144.8872326069 453.5651718145 157.3780693736 449.5519205351 150.8510802757 446.1990822043 127.8624080647 453.5851249438"/><polygon class="cls-6" points="163.6216224874 462.2609949689 167.8604099454 454.0089507881 158.4892092323 449.1950801963 145.9981943127 453.2081533228 163.6216224874 462.2609949689"/><polygon class="cls-6" points="154.2048092865 424.4116902541 141.7139725198 428.4247633805 136.7746823831 438.0405683171 127.1590602576 433.1010999026 114.6682231754 437.114351182 124.458796146 442.1436086782 149.1757300703 434.2024413777 154.2048092865 424.4116902541"/><polygon class="cls-6" points="145.0267263554 442.2795393714 145.8228918242 440.7296087934 130.9859590499 445.496447009 132.5358895887 446.2927906508 128.9735479515 453.228106452 151.9620419815 445.8422418655 145.0267263554 442.2795393714"/><polygon class="cls-6" points="148.503563999 415.2067059973 145.066632613 421.8975959648 155.1944488432 418.6436325157 148.503563999 415.2067059973"/><polygon class="cls-6" points="113.9410028743 426.3113350533 110.5040763558 433.0022250209 120.6318928419 429.7482615718 113.9410028743 426.3113350533"/><polygon class="cls-6" points="120.8070171819 469.1266529706 129.0590613627 473.365624025 138.111720164 455.7422007413 125.6207096207 459.7552738678 120.8070171819 469.1266529706"/><polygon class="cls-6" points="107.6575486805 433.9168622149 106.8556822976 435.4780164281 111.8216955001 438.028810223 124.3125325823 434.0157370966 117.7853651666 430.6628987658 107.6575486805 433.9168622149"/><polygon class="cls-6" points="142.2201098052 422.8122331588 138.8674449164 429.3394005745 151.3581035301 425.3261492951 153.9090754135 420.3601360926 152.3479212398 419.5582697097 142.2201098052 422.8122331588"/><polygon class="cls-6" points="132.7676665578 444.9240416128 147.6045993321 440.1572033972 150.9572594252 433.6300359815 126.240503699 441.571203282 132.7676665578 444.9240416128"/><polygon class="cls-6" points="125.6394156794 454.2993400803 122.2867555015 460.826507496 134.7775879761 456.8132562166 137.4539795261 451.6029953334 142.6642402777 454.279386951 155.1550770444 450.2663138245 148.6279097936 446.9132973408 125.6394156794 454.2993400803"/><polygon class="cls-5" points="1417.7948893196 836.716436752 1412.8667666003 828.8565891722 1403.9406231782 834.4528764888 1401.0088073124 847.2409997007 1417.7948893196 836.716436752"/><polygon class="cls-5" points="1380.4469111696 825.4740390044 1377.5152773431 838.261855923 1383.2576953277 847.4205403911 1374.0990131007 853.1629543607 1371.1671349467 865.9508336776 1380.4926930071 860.1040816815 1386.2939984165 834.799381682 1380.4469111696 825.4740390044"/><polygon class="cls-5" points="1391.1178491864 842.492599945 1390.192086921 841.0162257514 1386.7096902961 856.2060842399 1388.1859734873 855.2804751314 1392.3279439605 861.886189881 1397.7236259735 838.3508737886 1391.1178491864 842.492599945"/><polygon class="cls-5" points="1369.6214108488 825.6720823772 1373.6171888386 832.0450118535 1375.9943403134 821.676304577 1369.6214108488 825.6720823772"/><polygon class="cls-5" points="1361.5089331141 861.0566387282 1365.5048642062 867.4296592988 1367.8820158118 857.0609518023 1361.5089331141 861.0566387282"/><polygon class="cls-5" points="1401.8225641081 877.0291154393 1409.6824117801 872.1009927747 1399.1576640439 855.3152208136 1396.2259414021 868.1031871699 1401.8225641081 877.0291154393"/><polygon class="cls-5" points="1364.8366542502 870.343840247 1365.7689989693 871.8307583679 1370.4989871177 868.8652587921 1373.430712125 856.0772884555 1367.2138058557 859.9751327505 1364.8366542502 870.343840247"/><polygon class="cls-5" points="1372.9489789193 834.9591927399 1376.8469764041 841.176189956 1379.7788543969 828.3883109104 1376.8131106219 823.6583849444 1375.3261303941 824.5904854633 1372.9489789193 834.9591927399"/><polygon class="cls-5" points="1387.1278264487 854.3821716601 1390.6102230506 839.1923132104 1386.7122255658 832.9753159942 1380.9109201794 858.2800159551 1387.1278264487 854.3821716601"/><polygon class="cls-5" points="1391.5453823184 865.2996304869 1395.44337976 871.5166277759 1398.3751934645 858.7285082006 1395.2635634533 853.765979078 1400.2262457134 850.6544402342 1403.1580615791 837.8663170223 1396.9410643745 841.7643143222 1391.5453823184 865.2996304869"/><polygon class="cls-7" points="1418.8900843238 831.9390454214 1413.9619616045 824.0791978415 1405.035971329 829.6755761778 1402.1040023166 842.46360837 1418.8900843238 831.9390454214"/><polygon class="cls-7" points="1381.542199827 820.6964900961 1378.6104723473 833.4844645924 1384.3530434786 842.6432400801 1375.1942081652 848.3855629288 1372.2624831578 861.1735332653 1381.5878880716 855.3266902495 1387.389437587 830.0219282243 1381.542199827 820.6964900961"/><polygon class="cls-7" points="1392.2130441906 837.7152086143 1391.2874350719 836.2389254404 1387.8048830267 851.4286967348 1389.281412718 850.5030215724 1393.4231367171 857.1088023321 1398.8188209777 833.573482458 1392.2130441906 837.7152086143"/><polygon class="cls-7" points="1370.716605853 820.8946910465 1374.7123838428 827.2676205229 1377.0895353176 816.8989132464 1370.716605853 820.8946910465"/><polygon class="cls-7" points="1362.6043723448 856.2791851692 1366.6000592707 862.6522678669 1368.9772108762 852.2835603704 1362.6043723448 856.2791851692"/><polygon class="cls-7" points="1402.9178501922 872.2515708607 1410.7778487018 867.3235431008 1400.2529500677 850.5376763364 1397.3211364665 863.3257957379 1402.9178501922 872.2515708607"/><polygon class="cls-7" points="1365.9320024613 865.5665398347 1366.8641940337 867.0533669359 1371.5942732017 864.0877142134 1374.5261513557 851.2998348966 1368.3091540668 855.1978323382 1365.9320024613 865.5665398347"/><polygon class="cls-7" points="1374.0443270701 830.1818924289 1377.9424155746 836.3987364984 1380.8741404208 823.6107664331 1377.9083992754 818.8808360425 1376.421478545 819.8131851524 1374.0443270701 830.1818924289"/><polygon class="cls-7" points="1388.2231125327 849.6046270815 1391.7056622211 834.4148597527 1387.8075737166 828.1980156833 1382.0061152438 853.5026245231 1388.2231125327 849.6046270815"/><polygon class="cls-7" points="1392.6405773829 860.522239055 1396.5386658441 866.7390831973 1399.4703884687 853.9511168699 1396.3588494772 848.9884346008 1401.3215317372 845.876895757 1404.2532565834 833.0889256917 1398.0363503983 836.9867698449 1392.6405773829 860.522239055"/><polygon class="cls-6" points="1418.3683090068 834.2149023919 1413.4401835612 826.3550593993 1404.5141932857 831.9514377356 1401.5822242733 844.7394699278 1418.3683090068 834.2149023919"/><polygon class="cls-6" points="1381.0205722968 822.9724471046 1378.088694304 835.7603261502 1383.8312654353 844.9191016379 1374.6724300932 850.6614245348 1371.7407050858 863.4493948713 1381.0661099996 857.6025518556 1386.8676595437 832.2977897821 1381.0205722968 822.9724471046"/><polygon class="cls-6" points="1391.6912661473 839.9910701721 1390.7656570286 838.5147869982 1387.2831049834 853.7045582925 1388.7595413012 852.7790402374 1392.9013609529 859.3846600551 1398.297196081 835.8494350354 1391.6912661473 839.9910701721"/><polygon class="cls-6" points="1370.1948303409 823.1705483453 1374.1906057995 829.5434820807 1376.5677572743 819.1747748042 1370.1948303409 823.1705483453"/><polygon class="cls-6" points="1362.0825032532 858.5551999219 1366.0782811987 864.9281294729 1368.4554328042 854.5594219764 1362.0825032532 858.5551999219"/><polygon class="cls-6" points="1402.3959811006 874.5275856134 1410.2559819191 869.5995539685 1399.7313251711 852.8136289138 1396.7993583945 865.601657344 1402.3959811006 874.5275856134"/><polygon class="cls-6" points="1365.4102243893 867.8424014407 1366.3425691084 869.3293195616 1371.0724951297 866.3635758195 1374.0043732837 853.5756965026 1367.7873759948 857.4736939442 1365.4102243893 867.8424014407"/><polygon class="cls-6" points="1373.522551477 832.4577498642 1377.4206375313 838.6745980562 1380.3522713578 825.8867811376 1377.3866186024 821.1567020249 1375.8997005017 822.0890467101 1373.522551477 832.4577498642"/><polygon class="cls-6" points="1387.7013321326 851.8804926048 1391.1838841778 836.6907213105 1387.2857956733 830.473877241 1381.4843371718 855.7784861292 1387.7013321326 851.8804926048"/><polygon class="cls-6" points="1392.1187993109 862.798100661 1396.0168877721 869.0149448033 1398.9486104254 856.2269784277 1395.8370714339 851.2642961585 1400.7997536939 848.1527573147 1403.7316316867 835.3648782691 1397.5144813354 839.2627845493 1392.1187993109 862.798100661"/><path class="cls-5" d="m1756.8287267921,931.3366626122l-5.4297451682-3.0102502272c-.1229255255.2563620807-.2364089454.5153964554-.3760808468.7674828655-.7984814569,1.440010214-1.8198322361,2.6753227-2.9844179755,3.7137761872l5.6440631496,3.1292563911c1.043976202-1.1483738512,1.9856926191-2.4178917017,2.7700999941-3.8326041982.1396719014-.2520864101.2481670391-.5123678554.3760808468-.7676610185Z"/><path class="cls-5" d="m1748.4687221408,904.252071144c-4.3275129562-2.399185643-9.1565082305-3.0595985916-13.6780298477-2.214975503l22.8028450511,12.6424452342c-1.6787351112-4.2822622188-4.7973022471-8.0281059352-9.1248152034-10.4274697311Z"/><path class="cls-5" d="m1752.6617296307,924.1460536479l5.6846820189,3.1518818145c.5984157103-2.3152756082.795452857-4.6806121926.5791751933-6.9994508597l-7.4596197152-4.1358205021c1.1446326106,2.4724065013,1.5755845616,5.2439317889,1.1957625031,7.9833895473Z"/><path class="cls-5" d="m1729.3746468198,911.2351319332c2.1221577677-1.7735125177,4.701099662-2.8762792163,7.4043923052-3.2153042611l-7.4596197152-4.1356423492c-2.0813607454,1.045045146-3.982965179,2.4651022308-5.6296327618,4.1992429487l5.6848601718,3.1517036615Z"/><path class="cls-5" d="m1726.4980113703,914.5206284526l-5.4297451682-3.0102502272c-.1485618175.2437132219-.3119457901.4735305145-.4516176915.7256169246-.784407375,1.4147124965-1.3621573448,2.8858994751-1.7831150534,4.379711877l5.6440454716,3.1292563911c.2636663445-1.537994331.7703332931-3.0585296739,1.56881475-4.4985398879.1396719014-.2520864101.2992969316-.4856449144.4516176915-.7257950776Z"/><path class="cls-5" d="m1731.6108224662,934.6583241785c-3.9182956634-2.1723969504-6.4092300075-5.9291079961-7.1303930904-10.0314357455l-6.3793003144-3.5368703178c-.3876607877,7.5729251735,3.4328289141,15.0802900651,10.4992651007,18.9980513687,7.0664361866,3.9177613035,15.4578140697,3.1809207437,21.6753516757-1.1595974865l-6.3794969396-3.5368703178c-3.861286724,1.561688672-8.3671307687,1.4391194493-12.285426432-.733277501Z"/><path class="cls-5" d="m1755.4425188009,913.4869850948l-22.8026849793-12.6424452342c-1.8985578548.3548806565-3.7412116455.9784159465-5.4712548021,1.846911529l7.4596197152,4.1358205021c2.8997953311-.3636101505,5.9330272109.139493752,8.6792547117,1.6619887773,2.7460677134,1.5224950252,4.7796651065,3.8286848335,6.007495138,6.4808476513l7.4596197152,4.1358205021c-.17973768-1.9276148108-.627098333-3.8208461042-1.3320494987-5.6189437276Z"/><path class="cls-5" d="m1754.0080499309,924.8925144665c-.1970557132,1.4211260024-.6151806529,2.8281779225-1.2627665734,4.1801805842l5.42976384,3.0104283801c.6587908836-1.3138779325,1.1626073852-2.6651679824,1.5176661857-4.0389053027l-5.6846634523-3.1517036615Z"/><path class="cls-5" d="m1722.4145679357,912.2566608911l5.4297451682,3.0104283801c.803665818-1.2655984858,1.7756503081-2.3655147373,2.8764572966-3.2854965195l-5.6846820188-3.1517036615c-.9769906983,1.0288332285-1.856175435,2.1720406445-2.6215204459,3.4267718009Z"/><path class="cls-5" d="m1741.3770064849,933.994704477l6.3792820669,3.5368703178c1.2308586314-.8592316296,2.3747786302-1.8561754819,3.4068185855-2.9913660155l-5.6440447974-3.1292563911c-1.2356871128,1.1018759339-2.6363254917,1.9748253399-4.142055855,2.5837520888Z"/><path class="cls-5" d="m1716.3140769654,915.2189879774c-.4161652573,1.4767097197-.6556028026,2.975154098-.7323867178,4.4743110881l6.3794784673,3.5368703178c-.2813034852-1.5998134012-.2829068616-3.2502222374-.0030285999-4.8819250148l-5.6440631496-3.1292563911Z"/><path class="cls-7" d="m1760.3549078444,933.2917129757l-5.4297451682-3.0104283801c-.1229255255.2565402336-.2364089454.5155746084-.3760808468.7676610185-.7984814569,1.440010214-1.8198322361,2.6753227-2.9844179755,3.7137761872l5.6440631496,3.1292563911c1.043976202-1.1485520042,1.9855144661-2.4178917017,2.7699218411-3.8327823512.1398500544-.2519082572.2483451921-.5121897025.3762589998-.7674828655Z"/><path class="cls-7" d="m1751.9949217089,906.2071215075c-4.327531472-2.3993637959-9.1567230945-3.0597767445-13.6780664446-2.214975503l22.8028631322,12.6424452342c-1.6787351112-4.2822622188-4.7973022471-8.0281059352-9.1247966876-10.4274697311Z"/><path class="cls-7" d="m1756.1879106831,926.1011040114l5.6846820189,3.1517036615c.5984157103-2.3150974553.7954716424-4.6804340397.5791751933-6.9994508597l-7.4596197152-4.1358205021c1.1446326106,2.4725846543,1.5755845616,5.2441099418,1.1957625031,7.9835677002Z"/><path class="cls-7" d="m1732.9006497192,913.1901822967c2.1223359206-1.7735125177,4.701295967-2.8762792163,7.4045704582-3.2153042611l-7.4596197152-4.1358205021c-2.0813607454,1.045045146-3.9831433319,2.4652803837-5.6296327618,4.1994211017l5.6846820188,3.1517036615Z"/><path class="cls-7" d="m1730.0241924227,916.4756788162l-5.4297451682-3.0104283801c-.1485795482.2437132219-.3119457901.4737086675-.4516176915.7257950776-.784407375,1.4147124965-1.3621573448,2.8858994751-1.7831327314,4.379711877l5.6440631496,3.1292563911c.2636663445-1.537994331.7703332931-3.0587078269,1.5688326993-4.4987180409.1396539521-.2519082572.2992969392-.4854667615.4515997422-.7256169246Z"/><path class="cls-7" d="m1735.1370035186,936.613374542c-3.9182776725-2.1723969504-6.4092300075-5.9291079961-7.1303751807-10.0314357455l-6.3793182241-3.5368703178c-.3876607877,7.5727470206,3.4328289141,15.0802900651,10.4992651007,18.9980513687,7.0664361866,3.9177613035,15.4577957545,3.1809207437,21.6753332034-1.1597756394l-6.3794784673-3.5368703178c-3.8612684213,1.561688672-8.3671307687,1.4392976023-12.285426432-.7330993481Z"/><path class="cls-7" d="m1758.9686998533,915.4420354583l-22.8028631322-12.6424452342c-1.8983976807.3547025035-3.7410154712.9782377935-5.4712548021,1.846911529l7.4596378813,4.1358205021c2.899955318-.3636101505,5.9331871978.139493752,8.6792365456,1.6619887773,2.7462275007,1.5224950252,4.7798432594,3.8286848335,6.007691828,6.4806694984l7.4596011781,4.1358205021c-.1797563119-1.9274366579-.627098333-3.8206679512-1.3320494987-5.6187655747Z"/><path class="cls-7" d="m1757.5342124166,926.8475648301c-.1970371467,1.4211260024-.6151434462,2.8279997696-1.2627480068,4.1801805842l5.4297451682,3.0104283801c.6588095555-1.3138779325,1.1626260571-2.6651679824,1.5176848575-4.0389053027l-5.6846820188-3.1517036615Z"/><path class="cls-7" d="m1725.9407489881,914.2117112547l5.4297451682,3.0104283801c.803647892-1.2655984858,1.7756503081-2.3655147373,2.8764572966-3.2854965195l-5.6846820189-3.1518818145c-.9769906983,1.0290113814-1.8561575581,2.1722187974-2.6215204459,3.4269499538Z"/><path class="cls-7" d="m1744.9031692897,935.9497548405l6.3793003144,3.5368703178c1.2308771602-.8592316296,2.3747786302-1.8561754819,3.4068185856-2.9915441685l-5.6440631496-3.1292563911c-1.2356687606,1.1018759339-2.6363071395,1.9748253399-4.1420557504,2.5839302418Z"/><path class="cls-7" d="m1719.8402580178,917.174038341c-.4161652573,1.4767097197-.6556028026,2.975154098-.7323690329,4.4741329352l6.3794607824,3.5368703178c-.2812856462-1.5996352483-.2829068616-3.2500440844-.0030285999-4.8819250148l-5.6440631495-3.1290782382Z"/><path class="cls-6" d="m1758.6751038156,932.3603294054l-5.4297451682-3.0102502272c-.1229255255.2563620807-.2364089454.5153964554-.3760808468.7674828655-.7984814569,1.440010214-1.8198322361,2.6753227-2.9844179755,3.7137761872l5.6440631496,3.1292563911c1.043976202-1.1483738512,1.9855144661-2.4178917017,2.7699218411-3.8326041982.1398687329-.2520864101.2483451921-.5123678554.3762589998-.7676610185Z"/><path class="cls-6" d="m1750.3150991643,905.2757379372c-4.3274945923-2.399185643-9.1567045788-3.0595985916-13.6780479288-2.214975503l22.802881836,12.6424452342c-1.678753815-4.2822622188-4.7973209509-8.0281059352-9.1248339071-10.4274697311Z"/><path class="cls-6" d="m1754.5081066542,925.1697204411l5.6846820189,3.1517036615c.5984157103-2.3150974553.795452857-4.6804340397.5791751933-6.9992727067l-7.4596197152-4.1358205021c1.1446511885,2.4724065013,1.5755845616,5.2439317889,1.1957625031,7.9833895473Z"/><path class="cls-6" d="m1731.2208456904,912.2587987264c2.1223359206-1.7735125177,4.7012778149-2.8762792163,7.4045704582-3.2153042611l-7.4596197152-4.1358205021c-2.0813428085,1.045045146-3.9831433319,2.4652803837-5.6296327618,4.1994211017l5.6846820189,3.1517036615Z"/><path class="cls-6" d="m1728.3443883938,915.5442952459l-5.4297451681-3.0102502272c-.1485795482.2437132219-.3119457901.4735305145-.4516176915.7256169246-.7843896251,1.4147124965-1.3623354978,2.8858994751-1.7831327314,4.379711877l5.6440631496,3.1292563911c.2636663445-1.537994331.7703332931-3.0585296739,1.56881475-4.4987180409.1396719014-.2519082572.2991366931-.4854667615.4516176915-.7256169246Z"/><path class="cls-6" d="m1733.4571994897,935.6819909717c-3.9182956634-2.1723969504-6.4092300075-5.9291079961-7.1303930904-10.0314357455l-6.3793003144-3.5368703178c-.3876607877,7.5729251735,3.4328289141,15.0802900651,10.4992651007,18.9980513687,7.0664361866,3.9177613035,15.4577957545,3.1809207437,21.6753332034-1.1595974865l-6.3794784673-3.5368703178c-3.861286724,1.561688672-8.3671307687,1.4391194493-12.2854264321-.733277501Z"/><path class="cls-6" d="m1757.2888958244,914.510651888l-22.8028450588-12.6424452342c-1.8984157541.3548806565-3.741051566.9784159465-5.4712728755,1.846911529l7.4596197152,4.1358205021c2.8999734841-.3636101505,5.9332053639.139493752,8.6792547117,1.6619887773,2.7462275007,1.5224950252,4.7798432594,3.8286848335,6.0076732909,6.4808476513l7.4596197152,4.1358205021c-.1797563119-1.9276148108-.627098333-3.8208461042-1.3320494987-5.6189437276Z"/><path class="cls-6" d="m1755.8544083878,925.9161812597c-.1972152996,1.4211260024-.6151620863,2.8281779225-1.2627480068,4.1801805842l5.4297451682,3.0104283801c.6588095555-1.3138779325,1.1626448049-2.6651679824,1.5176848575-4.0389053027l-5.6846820188-3.1517036615Z"/><path class="cls-6" d="m1724.2609449593,913.2803276844l5.4297451682,3.0104283801c.803647892-1.2655984858,1.7756683053-2.3655147373,2.8764572966-3.2854965195l-5.6846641375-3.1517036615c-.9770085796,1.0288332285-1.8561933163,2.1720406445-2.6215383272,3.4267718009Z"/><path class="cls-6" d="m1743.2233652609,935.0183712702l6.3793003144,3.5368703178c1.2308586314-.8592316296,2.3747786302-1.8561754819,3.4068185855-2.9913660155l-5.6440631496-3.1292563911c-1.2356687606,1.1018759339-2.6363071395,1.9748253399-4.1420557504,2.5837520888Z"/><path class="cls-6" d="m1718.160453989,916.2426547707c-.4161652573,1.4767097197-.6556028026,2.975154098-.7323867178,4.4743110881l6.379496271,3.5368703178c-.2813212888-1.5998134012-.2829246652-3.2502222374-.0030464036-4.8819250148l-5.6440631496-3.1292563911Z"/><path class="cls-5" d="m1285.8161715999,232.1358443662l-4.7157082027-2.6143943945c-.1067136084.2228693279-.2052321817.4476983382-.3267217749.6666483015-.6933819338,1.2506336388-1.5802165778,2.3234706435-2.5917796145,3.2254589787l4.9016998673,2.7175449468c.9066202888-.9973001581,1.7245204156-2.0998887038,2.4057880689-3.328609531.1213113211-.2187718103.2155650574-.4448478912.3267216558-.6666483015Z"/><path class="cls-5" d="m1278.5555487137,208.6134209333c-3.7583143273-2.0836767862-7.9523907348-2.657329253-11.8790492335-1.9236954461l19.8038262633,10.9797438451c-1.4580036241-3.7191207754-4.1662845496-6.9723716128-7.9247770298-9.056048399Z"/><path class="cls-5" d="m1282.197183613,225.8910493604l4.9369634038,2.7371417702c.5198611484-2.0106340808.6908879708-4.064915632.5031038899-6.0787564657l-6.4785314994-3.5919195763c.9940933801,2.1472773858,1.3682145446,4.5543017582,1.0384642058,6.9335342719Z"/><path class="cls-5" d="m1261.9725390186,214.6781033168c1.8431702707-1.5403103192,4.0829089758-2.4980605247,6.4307865127-2.7923691816l-6.4785314994-3.5919195763c-1.8077178365.9075110764-3.4591955486,2.1410420329-4.8892291619,3.6469688347l4.9369741486,2.7373199231Z"/><path class="cls-5" d="m1259.474478557,217.5314008038l-4.7157082027-2.6143943945c-.1291608782.2116456927-.2709706149.4113551385-.392292764.6303051017-.6812568253,1.2287208272-1.1829354917,2.5064337129-1.5486834683,3.8037434219l4.9018780203,2.7177230997c.2291148073-1.3357907441.6691525691-2.6564384883,1.3625136507-3.9070721271.1213221491-.2189499633.2599251329-.421688009.392292764-.6303051017Z"/><path class="cls-5" d="m1263.9147623214,235.0206749236c-3.4030773739-1.8866396346-5.5662103168-5.1491544248-6.192596038-8.7120350719l-5.5403781411-3.0717129915c-.3367090481,6.576872086,2.9813893756,13.0969133841,9.1185798506,16.4994563852,6.1370123221,3.4025430011,13.4248926075,2.7626176406,18.8245299296-1.0070985698l-5.5403781411-3.0718911444c-3.3535508578,1.3564564852-7.2666697172,1.25009918-10.66975746-.6367186076Z"/><path class="cls-5" d="m1284.6122140618,216.6336881392l-19.803836616-10.9797438451c-1.648805418.3082045862-3.2491532376.8497895238-4.7516950956,1.6040890718l6.4785314994,3.5919195763c2.5185480492-.3158651626,5.1528955064.1211439992,7.5378288539,1.4433951199s4.1511415501,3.3250464721,5.217565022,5.6283858334l6.4785423345,3.5919195763c-.1562509594-1.6741031772-.5448025118-3.3182766604-1.1569359981-4.8799653325Z"/><path class="cls-5" d="m1283.3663905839,226.5391697561c-.171204971,1.2342435683-.5341025006,2.4561945838-1.0967094709,3.6305787643l4.7157082027,2.6143943945c.5720490759-1.1410695807,1.0097708384-2.3145629965,1.3181535698-3.5076532357l-4.9371523015-2.7373199231Z"/><path class="cls-5" d="m1255.92798807,215.565304958l4.7157082027,2.6143943945c.6980032013-1.0992036398,1.5420918097-2.0542815511,2.4982488779-2.85347564l-4.9371625649-2.7371417702c-.8485424318.893615147-1.6121059133,1.8864614817-2.2767945157,2.9762230156Z"/><path class="cls-5" d="m1272.3964454276,234.4443501627l5.5403781411,3.0717129915c1.068917613-.7461045127,2.0624765343-1.6119278011,2.9589421057-2.598004324l-4.9018674322-2.7177230997c-1.0732038715.9570375937-2.2896321151,1.7150783534-3.5974528146,2.2440144322Z"/><path class="cls-5" d="m1250.6298979212,218.1380115645c-.3614723061,1.2825230151-.5695549348,2.5839302418-.6361841327,3.8856937743l5.5403781411,3.0717129915c-.2440695216-1.3892366261-.2454947451-2.8226551814-.0024941411-4.2398618191l-4.9016998673-2.7175449468Z"/><path class="cls-7" d="m1288.8784424082,233.8338200374l-4.7155300497-2.6143943945c-.1067136084.222691175-.2054103346.4476983382-.3267216975.6664701485-.6933820111,1.2506336388-1.580405477,2.3234706435-2.5917796918,3.2254589787l4.9016998673,2.7177230997c.9066202888-.9974783111,1.7245204156-2.0998887038,2.4057881463-3.328609531.1213112438-.2189499633.2155650574-.4450260441.3265434255-.6666483015Z"/><path class="cls-7" d="m1281.6179976749,210.3112184515c-3.7583143273-2.0836767862-7.9523907348-2.657329253-11.8790491561-1.9235172932l19.8038261859,10.9795656922c-1.4580036241-3.7189426225-4.1662845496-6.9721934598-7.9247770298-9.056048399Z"/><path class="cls-7" d="m1285.2596326516,227.5888468786l4.9369633264,2.7373199231c.5198612258-2.0108122338.6908880482-4.064915632.5031038898-6.0789346187l-6.4786988565-3.5919195763c.9942607371,2.1472773858,1.3683819017,4.5543017582,1.0386316402,6.9335342719Z"/><path class="cls-7" d="m1265.0349879798,216.375900835c1.8431702707-1.5401321663,4.0829089758-2.4978823717,6.4307865127-2.7923691816l-6.4785314994-3.5919195763c-1.8077178365.9076892293-3.4593634789,2.1410420329-4.8892291619,3.6471469877l4.9369741486,2.7371417702Z"/><path class="cls-7" d="m1262.5369275182,219.229376475l-4.7157082027-2.6143943945c-.1291608782.2116456927-.2709706149.4113551385-.392292764.6301269488-.6812568254,1.2287208272-1.1831136447,2.5064337129-1.5486834683,3.8037434219l4.9018780203,2.7177230997c.2291148846-1.3356125912.6689642728-2.6564384883,1.3623354978-3.9070721271.121500302-.2187718103.2599353777-.421509856.3924709169-.6301269488Z"/><path class="cls-7" d="m1266.9772112826,236.7186505948c-3.4030773739-1.8868177875-5.5662103168-5.1493325778-6.192596038-8.7122132248l-5.5403781411-3.0717129915c-.3367090481,6.576872086,2.9813893756,13.0969133841,9.1185798506,16.4994563852,6.1370123221,3.4025430011,13.4247144546,2.7626176406,18.8245299296-1.0070985698l-5.5403781411-3.0717129915c-3.3535508578,1.3562783322-7.266858239,1.249921027-10.66975746-.6367186076Z"/><path class="cls-7" d="m1287.6746630231,218.3316638103l-19.803836616-10.9797438451c-1.648805418.3080264333-3.2491532376.8496113709-4.7516950956,1.6040890718l6.4785314994,3.5917414233c2.5185480492-.3158651626,5.1528955064.1211439992,7.5378288539,1.4433951199s4.1511415501,3.3252246251,5.217565022,5.6285639864l6.4785424118,3.5917414233c-.1562510368-1.6739250242-.5448025891-3.3180985075-1.1569360755-4.8797871795Z"/><path class="cls-7" d="m1286.4288395451,228.2371454273c-.171204971,1.2342435683-.5342806536,2.4561945838-1.0967094709,3.6304006113l4.7157082027,2.6145725474c.5720490759-1.1410695807,1.0095926855-2.3147411494,1.3179754168-3.5078313886l-4.9369741486-2.7371417702Z"/><path class="cls-7" d="m1258.9904370312,217.2631024762l4.7157082027,2.6145725474c.6978250483-1.0992036398,1.5419136567-2.0544597041,2.4980604616-2.85347564l-4.9369741486-2.7373199231c-.8485424318.893615147-1.6121059133,1.8864614817-2.2767945157,2.9762230157Z"/><path class="cls-7" d="m1275.4588943888,236.1423258339l5.5403781411,3.0717129915c1.068917613-.7462826657,2.0624765343-1.6121059541,2.9587639528-2.598182477l-4.9016892019-2.7175449468c-1.0732039489.9568594407-2.2896321925,1.7150783534-3.597452892,2.2440144322Z"/><path class="cls-7" d="m1253.6921687295,219.8358090827c-.3614723061,1.2825230151-.5693767818,2.5839302418-.6360059797,3.8858719273l5.5403781411,3.0717129915c-.2442476746-1.3894147791-.2456728981-2.8226551814-.0024941411-4.2398618191l-4.9018780203-2.7177230997Z"/><path class="cls-6" d="m1287.4195480194,233.0250056898l-4.7155300497-2.6145725474c-.1067136084.2228693279-.2054103346.4478764912-.3267324837.6666483015-.693371225,1.2506336388-1.5803839814,2.3234706435-2.5917689057,3.2254589787l4.9016998673,2.7175449468c.9066202888-.9973001581,1.7245204156-2.0997105508,2.405777241-3.328431378.1213221491-.2189499633.215565052-.4450260441.3265543308-.6666483015Z"/><path class="cls-6" d="m1280.1591139794,209.5024041039c-3.7583250206-2.0836767862-7.9524014281-2.657329253-11.8790702795-1.9236954461l19.803836616,10.9797438451c-1.4580036241-3.7191207754-4.1662845496-6.9721934598-7.9247663365-9.056048399Z"/><path class="cls-6" d="m1283.8007274406,226.780032531l4.9369741486,2.7373199231c.5198502658-2.0108122338.6908770839-4.064915632.5031038899-6.0789346187l-6.4785314994-3.5919195763c.9940933801,2.1472773858,1.3682145446,4.5543017582,1.038453461,6.9335342719Z"/><path class="cls-6" d="m1263.576093591,215.5670864874c1.8431702707-1.5403103192,4.0829089758-2.4980605247,6.4307865127-2.7923691816l-6.4785314994-3.5919195763c-1.8077178365.9076892293-3.4593737015,2.1410420329-4.8892291619,3.6469688347l4.9369741486,2.7373199231Z"/><path class="cls-6" d="m1261.0780331294,218.4205621274l-4.7157082027-2.6145725474c-.1291507894.2118238457-.2709706149.4113551385-.392292764.6303051017-.6812568253,1.2287208272-1.1831136446,2.5064337129-1.5486734252,3.8037434219l4.9018679772,2.7177230997c.2291046751-1.3357907441.6689744566-2.6564384883,1.3623354978-3.9070721271.121500302-.2187718103.2599251329-.421688009.3924709169-.6301269488Z"/><path class="cls-6" d="m1265.5183168938,235.9098362472c-3.4030773739-1.8868177875-5.5662103168-5.1493325778-6.192596038-8.7122132248l-5.5403681141-3.0717129915c-.3367090566,6.576872086,2.9813793486,13.0969133841,9.1185698236,16.4994563852,6.1370123221,3.4025430011,13.4247144546,2.7626176406,18.8245299296-1.0070985698l-5.5403675481-3.0717129915c-3.3535614508,1.3562783322-7.2668584226,1.249921027-10.669768053-.6367186076Z"/><path class="cls-6" d="m1286.2157686343,217.5228494627l-19.803836616-10.9797438451c-1.6487951137.3080264333-3.2491532376.8496113709-4.7516950956,1.6039109188l6.4785314994,3.5919195763c2.5185480492-.3158651626,5.1528955064.1211439992,7.5378288539,1.4433951199s4.151152235,3.3250464721,5.217565022,5.6283858334l6.4785314994,3.5919195763c-.1562401244-1.6739250242-.5447916768-3.3180985075-1.1569251631-4.8797871795Z"/><path class="cls-6" d="m1284.9699451563,227.4283310797c-.171204971,1.2342435683-.5342806536,2.4561945838-1.0967094709,3.6304006113l4.7157082027,2.6143943945c.5720490759-1.1408914278,1.0095926855-2.3145629965,1.3179754168-3.5076532357l-4.9369741486-2.7371417702Z"/><path class="cls-6" d="m1257.5315426424,216.4542881286l4.7157082027,2.6143943945c.6978250484-1.0990254869,1.5419136568-2.0542815511,2.4980707655-2.853297487l-4.9369844525-2.7373199231c-.8485424318.893615147-1.6121059133,1.8864614817-2.2767945157,2.9762230156Z"/><path class="cls-6" d="m1274,235.3333333333l5.5403781411,3.0718911444c1.068917613-.7462826657,2.0624765343-1.6121059541,2.9587639528-2.598182477l-4.9016998673-2.7175449468c-1.0731932834.9568594407-2.289621527,1.7150783534-3.5974422265,2.2438362793Z"/><path class="cls-6" d="m1252.2332743407,219.0269947351c-.3614723061,1.2825230151-.5693767819,2.5839302418-.6360059797,3.8858719273l5.5403781411,3.0717129915c-.2442476746-1.3894147791-.245672898-2.8228333343-.0024941411-4.2398618191l-4.9018780203-2.7177230997Z"/><rect class="cls-5" x="1627.3648272969" y="150.1921198694" width="5.9974866408" height="6.9199371069" transform="translate(595.653087629 1422.9308415211) rotate(-56.1971165868)"/><polygon class="cls-5" points="1650.9252698209 183.1845903631 1625.9500097932 166.4635117206 1629.0039074136 161.9024401507 1623.2534869615 158.0525551173 1616.349882558 168.3640472845 1652.8256271839 192.7848959938 1659.7292315874 182.4732256737 1653.9789892883 178.6233406403 1650.9252698209 183.1845903631"/><rect class="cls-5" x="1663.7887816228" y="161.562503556" width="6.9200362854" height="6.9200362188" transform="translate(602.5671646457 1458.6237000874) rotate(-56.1970198853)"/><rect class="cls-5" x="1658.0902425622" y="170.762874668" width="5.9974916943" height="6.9201767086" transform="translate(592.2074888579 1457.6023333472) rotate(-56.1978391581)"/><rect class="cls-5" x="1655.3285664025" y="124.1155806666" width="4.7291105703" height="43.895988401" transform="translate(614.0886317108 1442.277570353) rotate(-56.1973252611)"/><rect class="cls-5" x="1633.0633771111" y="140.9914731339" width="6.9200363124" height="6.9201697112" transform="translate(606.0290520401 1423.9657175202) rotate(-56.1970198853)"/><polygon class="cls-5" points="1635.9306716987 134.3389735798 1633.3642005099 138.1726466956 1639.114442809 142.022531729 1640.4621697661 140.00958166 1665.4372516408 156.7306603025 1664.0895246838 158.7434322186 1669.8399451358 162.593317252 1672.4064163246 158.7598222891 1635.9306716987 134.3389735798"/><rect class="cls-5" x="1663.116462518" y="167.2800179264" width="4.6133410053" height="6.9201102377" transform="translate(597.0337298114 1459.6661638876) rotate(-56.1982456052)"/><rect class="cls-5" x="1632.3910492677" y="146.7090542505" width="4.6133410053" height="6.9201102377" transform="translate(600.4862684784 1425.0001061872) rotate(-56.1978391581)"/><rect class="cls-5" x="1622.5179917352" y="152.8683358451" width="4.6133410053" height="6.9201102377" transform="translate(590.9877208549 1419.5286630784) rotate(-56.1978391581)"/><rect class="cls-5" x="1653.2434247456" y="173.4393365305" width="4.6133905616" height="6.9200362188" transform="translate(587.4941328064 1454.1604828964) rotate(-56.1964070385)"/><rect class="cls-7" x="1630.9860548794" y="152.6163942103" width="5.9974915038" height="6.920176993" transform="translate(595.2420472504 1427.0130229979) rotate(-56.1969778054)"/><polygon class="cls-7" points="1654.5464244202 185.6090737236 1629.5713245131 168.887995081 1632.6250439805 164.3267453582 1626.8748016814 160.4768603248 1619.9710191249 170.788530645 1656.4467637508 195.2092012013 1663.3505463073 184.8977090341 1657.6001258553 181.0478240007 1654.5464244202 185.6090737236"/><rect class="cls-7" x="1667.4099332473" y="163.9868238211" width="6.9201843232" height="6.9201842566" transform="translate(602.1777492972 1462.7236934954) rotate(-56.1978404963)"/><rect class="cls-7" x="1661.7114661907" y="173.1874282734" width="5.9974866408" height="6.9200362188" transform="translate(591.7810652047 1461.6717470331) rotate(-56.1970185471)"/><rect class="cls-7" x="1658.9497029694" y="126.5400245067" width="4.7291105703" height="43.8958892886" transform="translate(613.6850114276 1446.3657379934) rotate(-56.1975184896)"/><rect class="cls-7" x="1636.6845940159" y="143.4160232405" width="6.9200362854" height="6.9200362188" transform="translate(605.6210074743 1428.0504368428) rotate(-56.1970198853)"/><polygon class="cls-7" points="1639.5519864186 136.7634569402 1636.9853370769 140.5969519032 1642.7357575289 144.4468369366 1644.083306333 142.4340650204 1669.0583882078 159.15496551 1667.7108394037 161.1679155791 1673.4610817028 165.0178006125 1676.0277310445 161.1843056496 1639.5519864186 136.7634569402"/><rect class="cls-7" x="1666.7376881614" y="169.7045012869" width="4.6133410053" height="6.9201102377" transform="translate(596.5843115172 1463.716563129) rotate(-56.1964070385)"/><rect class="cls-7" x="1636.0122749111" y="149.133537611" width="4.6133410053" height="6.9201102377" transform="translate(600.0599692695 1429.070020205) rotate(-56.1970185471)"/><rect class="cls-7" x="1626.1392173787" y="155.2928192056" width="4.6133410053" height="6.9201102377" transform="translate(590.5615882255 1423.5985824612) rotate(-56.1970185471)"/><rect class="cls-7" x="1656.864630629" y="175.8637828815" width="4.6133410053" height="6.9201102377" transform="translate(587.086054606 1458.2451293847) rotate(-56.1964070385)"/><rect class="cls-6" x="1629.2609783055" y="151.461462078" width="5.9974370851" height="6.9201102377" transform="translate(595.4394878014 1425.0696379125) rotate(-56.1971165868)"/><polygon class="cls-6" points="1652.8213515134 184.4541082135 1627.8462696387 167.733029571 1630.8999891061 163.1717798482 1625.149746807 159.3218948148 1618.2459813657 169.6335651349 1654.7217088764 194.0542356913 1661.6253132799 183.7427435241 1655.8750709808 179.8928584907 1652.8213515134 184.4541082135"/><rect class="cls-6" x="1665.684798447" y="162.831939945" width="6.9201843503" height="6.9200209886" transform="translate(602.3720725275 1460.7777299076) rotate(-56.1978398272)"/><rect class="cls-6" x="1659.9863915558" y="172.0324257539" width="5.9974370851" height="6.9201102377" transform="translate(591.9754305915 1459.7258528322) rotate(-56.197018547)"/><rect class="cls-6" x="1657.2246549684" y="125.3850626666" width="4.7291056563" height="43.8958819488" transform="translate(613.8793916334 1444.4198677241) rotate(-56.1975184896)"/><rect class="cls-6" x="1634.9595193812" y="142.2610207211" width="6.9199867295" height="6.9201102377" transform="translate(605.815372844 1426.1045425982) rotate(-56.1970198853)"/><polygon class="cls-6" points="1637.8269315442 135.6084914302 1635.2602822024 139.4419863931 1641.0107026545 143.2918714265 1642.3582514586 141.2790995104 1667.3333333333 158 1665.9857845292 160.0129500691 1671.7360268283 163.8628351025 1674.3026761701 160.0293401395 1637.8269315442 135.6084914302"/><rect class="cls-6" x="1665.012633287" y="168.5495357769" width="4.6133410053" height="6.9201102377" transform="translate(596.778705106 1461.7707264242) rotate(-56.1964070385)"/><rect class="cls-6" x="1634.2872200367" y="147.978572101" width="4.6133410053" height="6.9201102377" transform="translate(600.2543544172 1427.1241630142) rotate(-56.1970185471)"/><rect class="cls-6" x="1624.4141625042" y="154.1378536956" width="4.6133410053" height="6.9201102377" transform="translate(590.7559733721 1421.6527252694) rotate(-56.197018547)"/><rect class="cls-6" x="1655.1395757546" y="174.7088173715" width="4.6133410053" height="6.9201102377" transform="translate(587.2804481943 1456.2992926796) rotate(-56.1964070385)"/><rect class="cls-5" x="309.6924295219" y="1012.5761009102" width="6.9200964127" height="5.9973794398" transform="translate(-238.1942208763 107.0190974508) rotate(-14.1138480959)"/><polygon class="cls-5" points="348.8512983043 1020.1075358825 319.7028050262 1027.4367478341 318.364341988 1022.1133598339 311.6531425852 1023.8008244816 314.6790702711 1035.8354118845 357.2499576509 1025.1312706375 354.2240300415 1013.0966832346 347.5128352661 1014.7841478823 348.8512983043 1020.1075358825"/><rect class="cls-5" x="342.8521252864" y="992.3601648717" width="6.9200942143" height="6.9200958599" transform="translate(-232.3765062427 114.5090134002) rotate(-14.1138751305)"/><rect class="cls-5" x="345.5521112725" y="1003.5594256576" width="6.9201136929" height="5.9974658229" transform="translate(-234.9358396666 115.5062272652) rotate(-14.1153149195)"/><rect class="cls-5" x="303.8890617953" y="987.8411485477" width="43.8958995984" height="4.7290596234" transform="translate(-231.624197063 109.3458459104) rotate(-14.1137912538)"/><rect class="cls-5" x="306.9924326398" y="1001.3768411946" width="6.9200964127" height="6.9200964127" transform="translate(-235.6577185244 106.0368185799) rotate(-14.1138751305)"/><polygon class="cls-5" points="302.5500618101 998.4991876369 303.6750976262 1002.9733205721 310.3862970289 1001.2858559244 309.7955418799 998.9365531046 338.944035158 991.607341153 339.534790307 993.9566439728 346.2459897097 992.2691793251 345.1209538936 987.79504639 302.5500618101 998.4991876369"/><rect class="cls-5" x="345.8719943928" y="998.7005295435" width="6.9200055752" height="4.6133903654" transform="translate(-233.528087624 115.3874249532) rotate(-14.1124446096)"/><rect class="cls-5" x="310.0123031257" y="1007.7172143129" width="6.9200964127" height="4.6131958722" transform="translate(-236.8313881584 106.9297913063) rotate(-14.1138751305)"/><rect class="cls-5" x="307.9665729157" y="1019.1726291964" width="6.9200964127" height="4.6133686482" transform="translate(-239.6865651922 106.7767475656) rotate(-14.1138751305)"/><rect class="cls-5" x="343.8261764516" y="1010.1559308781" width="6.9200920128" height="4.6134120862" transform="translate(-236.4165559824 115.2562069891) rotate(-14.1145903841)"/><rect class="cls-7" x="313.9187517176" y="1011.5134186231" width="6.9200964127" height="5.9973794398" transform="translate(-237.8075068792 108.0176045792) rotate(-14.1138480957)"/><polygon class="cls-7" points="353.0776159015 1019.0448535954 323.9291272218 1026.374065547 322.5906641836 1021.0506775468 315.8794647808 1022.7381421945 318.9053924668 1034.7727295974 361.4762797398 1024.0685883504 358.4503521303 1012.0340009476 351.7391528971 1013.7214655952 353.0776159015 1019.0448535954"/><rect class="cls-7" x="347.0784474465" y="991.2974823108" width="6.9200919331" height="6.9200964075" transform="translate(-231.9897913105 115.5075220547) rotate(-14.1138751305)"/><rect class="cls-7" x="349.7784312679" y="1002.4967439316" width="6.9201180528" height="5.9974647006" transform="translate(-234.5489341325 116.5047409339) rotate(-14.1153059757)"/><rect class="cls-7" x="308.1153730615" y="986.7785539939" width="43.8959169025" height="4.7289732331" transform="translate(-231.240977162 110.3465734688) rotate(-14.1140182156)"/><rect class="cls-7" x="311.2187548354" y="1000.3141589075" width="6.9200964127" height="6.9200964127" transform="translate(-235.271003557 107.0353275213) rotate(-14.1138751305)"/><polygon class="cls-7" points="306.7763840057 997.4365053498 307.9014198218 1001.910638285 314.6126192245 1000.2231736373 314.0218640755 997.8738708175 343.1703573536 990.5446588659 343.7611125026 992.8939616857 350.4723073728 991.206497038 349.3472715851 986.7323641029 306.7763840057 997.4365053498"/><rect class="cls-7" x="350.0983121293" y="997.6378472582" width="6.9200098608" height="4.613390362" transform="translate(-233.1414189088 116.3858339594) rotate(-14.1124442673)"/><rect class="cls-7" x="314.2386253213" y="1006.6545320258" width="6.9200964127" height="4.6131958722" transform="translate(-236.4446731907 107.9283002476) rotate(-14.1138751305)"/><rect class="cls-7" x="312.1928951113" y="1018.1099469093" width="6.9200964127" height="4.6133686482" transform="translate(-239.2998502233 107.7752565062) rotate(-14.1138751305)"/><rect class="cls-7" x="348.0524986456" y="1009.093248591" width="6.9200919092" height="4.6134120862" transform="translate(-236.0298152856 116.2547638494) rotate(-14.1145903842)"/><rect class="cls-6" x="311.9054344814" y="1012.0196415465" width="6.920118135" height="5.9974658274" transform="translate(-237.9917350443 107.5419435944) rotate(-14.1138480959)"/><polygon class="cls-6" points="351.0643095774 1019.5511642508 321.9158208469 1026.8803762025 320.5773578087 1021.5569882023 313.8661584059 1023.24445285 316.8920860918 1035.2790402529 359.4629734157 1024.5748990059 356.4368676533 1012.540311603 349.7256684201 1014.2277762507 351.0643095774 1019.5511642508"/><rect class="cls-6" x="345.0651410723" y="991.8037929663" width="6.9200919824" height="6.9200964075" transform="translate(-232.1740307971 115.0318615566) rotate(-14.1138751305)"/><rect class="cls-6" x="347.765048877" y="1003.003030959" width="6.9200919163" height="5.9974228803" transform="translate(-234.7111105157 116.0144749559) rotate(-14.1138845285)"/><rect class="cls-6" x="306.1019789893" y="987.2847003208" width="43.8960055161" height="4.7291237373" transform="translate(-231.4251765006 109.8708810161) rotate(-14.1140167706)"/><rect class="cls-6" x="309.2054484605" y="1000.820469563" width="6.9200964127" height="6.9200964127" transform="translate(-235.4552430439 106.5596670167) rotate(-14.1138751305)"/><polygon class="cls-6" points="304.7630776307 997.9428160053 305.8881134468 1002.4167707875 312.5993128496 1000.7293061399 312.0085577005 998.380181473 341.1570509786 991.0509695214 341.7476279747 993.4002723412 348.4588273775 991.7128076935 347.3339697143 987.2386747584 304.7630776307 997.9428160053"/><rect class="cls-6" x="348.0849224807" y="998.1439688986" width="6.9200919084" height="4.6134120862" transform="translate(-233.3587233623 115.9321114591) rotate(-14.1145903843)"/><rect class="cls-6" x="312.2252298699" y="1007.1606454961" width="6.9200964127" height="4.6134120897" transform="translate(-236.6288936466 107.4526153336) rotate(-14.1138751305)"/><rect class="cls-6" x="310.1794996599" y="1018.616235844" width="6.9200964127" height="4.6134120897" transform="translate(-239.4840923977 107.2995742795) rotate(-14.1138751304)"/><rect class="cls-6" x="346.0391922714" y="1009.5995592465" width="6.9200919585" height="4.6134120862" transform="translate(-236.2140670305 115.779080518) rotate(-14.1145903842)"/><rect class="cls-5" x="375.612697574" y="144.7921242835" width="5.1515938421" height="5.9439209026" transform="translate(23.819125709 345.9637632716) rotate(-50.5597498154)"/><polygon class="cls-5" points="393.2727930012 174.7434768919 373.3348067212 158.3428953884 376.3300921014 154.7016274478 371.7396252964 150.9256758845 364.9682101999 159.1574106301 394.0873082429 183.1100734131 400.8585451865 174.8781605145 396.2680783815 171.1022089512 393.2727930012 174.7434768919"/><rect class="cls-5" x="405.7867040274" y="157.6236769558" width="5.9439774903" height="5.9441028707" transform="translate(25.0571229652 374.2490977117) rotate(-50.5591985925)"/><rect class="cls-5" x="400.1412234908" y="164.9686229532" width="5.1515372551" height="5.9439896965" transform="translate(17.1898964524 372.2782926335) rotate(-50.5616157229)"/><rect class="cls-5" x="400.1590696409" y="124.7309535653" width="4.0621593912" height="37.7047431765" transform="translate(35.8041230227 362.9787836468) rotate(-50.5603249458)"/><rect class="cls-5" x="381.2582509423" y="137.4471438891" width="5.9439774903" height="5.9441028707" transform="translate(31.6978854587 347.9556179778) rotate(-50.5605248204)"/><polygon class="cls-5" points="384.5769698469 131.7248864701 382.0594906518 134.7853758263 386.6501356097 138.5613273896 387.9718522716 136.9543878708 407.9098385516 153.3549693743 406.5879437369 154.9619088931 411.1785886948 158.7378604564 413.695889737 155.6775492531 384.5769698469 131.7248864701"/><rect class="cls-5" x="404.7343886715" y="162.3570790058" width="3.9626705232" height="5.9439896965" transform="translate(20.6541185553 374.3932257525) rotate(-50.5585354975)"/><rect class="cls-5" x="380.2059355864" y="142.180545939" width="3.9626705232" height="5.9439896965" transform="translate(27.3010587235 348.1110255549) rotate(-50.5616157228)"/><rect class="cls-5" x="371.2466789141" y="146.6124728718" width="3.9627393155" height="5.9440462843" transform="translate(20.602178481 342.7934332583) rotate(-50.5591985925)"/><rect class="cls-5" x="395.7751663953" y="166.7890221835" width="3.9626705232" height="5.9441028707" transform="translate(13.9707994473 369.1039729308) rotate(-50.5605248203)"/><rect class="cls-7" x="378.5035853313" y="147.1699640624" width="5.1515938421" height="5.9440340781" transform="translate(23.037090342 349.0636422408) rotate(-50.5597498154)"/><polygon class="cls-7" points="396.1636807586 177.121462335 376.2256944785 160.7208808315 379.2209798588 157.0796128909 374.6303349008 153.3036613276 367.8590979573 161.5353960732 396.9781960003 185.4880588562 403.7494329438 177.2561459576 399.1589661389 173.4801943943 396.1636807586 177.121462335"/><rect class="cls-7" x="408.6775573878" y="160.0016461546" width="5.9440462843" height="5.944046283" transform="translate(24.2750462566 377.3489575893) rotate(-50.5591985925)"/><rect class="cls-7" x="403.0320384164" y="167.3464971291" width="5.151593842" height="5.9440340781" transform="translate(16.3992178688 375.3618375018) rotate(-50.5591985925)"/><rect class="cls-7" x="403.0499411535" y="127.1088843284" width="4.0621028043" height="37.7046743836" transform="translate(35.0206147407 366.0762039475) rotate(-50.5599438911)"/><rect class="cls-7" x="384.1490314712" y="139.8251474841" width="5.9441028707" height="5.9439774903" transform="translate(30.9149538957 351.0540655286) rotate(-50.5602895049)"/><polygon class="cls-7" points="387.4676794514 134.1028719132 384.9503784092 137.1631831165 389.5410233671 140.9393128328 390.8627400289 139.332373314 410.800726309 155.7329548174 409.4788314942 157.3398943362 414.0694764522 161.1158458995 416.5867774944 158.0555346962 387.4676794514 134.1028719132"/><rect class="cls-7" x="407.6252420327" y="164.7349916168" width="3.9627393155" height="5.9440462843" transform="translate(19.8780251013 377.5041737844) rotate(-50.5601718545)"/><rect class="cls-7" x="383.0966998702" y="144.5584585507" width="3.9627393174" height="5.944046283" transform="translate(26.5151020036 351.2041446432) rotate(-50.5605248204)"/><rect class="cls-7" x="374.1376010676" y="148.9904420705" width="3.9626705232" height="5.9439896965" transform="translate(19.8245907933 345.9015403479) rotate(-50.5605248204)"/><rect class="cls-7" x="398.6660197566" y="169.1669913816" width="3.9627393155" height="5.9440462843" transform="translate(13.1887394497 372.2039178259) rotate(-50.5605248203)"/><rect class="cls-6" x="377.1264468604" y="146.0372007842" width="5.1515372551" height="5.9439896965" transform="translate(23.4149404805 347.5964321237) rotate(-50.561280066)"/><polygon class="cls-6" points="394.7865585324 175.9885877895 374.8485722523 159.588184439 377.8438576326 155.9469164984 373.2532126746 152.1707867821 366.4819757311 160.4025215278 395.6008956212 184.3551843108 402.3723107176 176.1234495651 397.7816657597 172.3473198489 394.7865585324 175.9885877895"/><rect class="cls-6" x="407.3003623301" y="158.8688950819" width="5.9441028707" height="5.9439774903" transform="translate(24.6516712107 375.8795908088) rotate(-50.5602895049)"/><rect class="cls-6" x="401.6548999455" y="166.2137338509" width="5.1515372551" height="5.9439896965" transform="translate(16.7765058826 373.8940969314) rotate(-50.5605248203)"/><rect class="cls-6" x="401.6727804922" y="125.9761495004" width="4.0620905979" height="37.704662178" transform="translate(35.3931255947 364.5994883885) rotate(-50.5599438911)"/><rect class="cls-6" x="382.771893" y="138.6923276188" width="5.9440462843" height="5.944046283" transform="translate(31.2835384698 349.570574278) rotate(-50.5591985925)"/><polygon class="cls-6" points="386.0905572252 132.9701755207 383.5732561829 136.030486724 388.1637229879 139.8064382873 389.4856178027 138.1996769214 409.4236040828 154.6000802719 408.101709268 156.2070197908 412.692176073 159.9829713541 415.2096552682 156.9226601507 386.0905572252 132.9701755207"/><rect class="cls-6" x="406.24803073" y="163.6022061478" width="3.9627393155" height="5.9440462843" transform="translate(20.2518430649 376.0297907302) rotate(-50.5605248204)"/><rect class="cls-6" x="381.719577645" y="143.425673081" width="3.9627393155" height="5.9440462843" transform="translate(26.8829536245 349.7191702683) rotate(-50.5591985924)"/><rect class="cls-6" x="372.760389765" y="147.8576000144" width="3.9626705232" height="5.9441028707" transform="translate(20.1963212137 344.4233002803) rotate(-50.5602895049)"/><rect class="cls-6" x="397.2889156824" y="168.0341674775" width="3.962613935" height="5.9440340781" transform="translate(13.5613156097 370.727152038) rotate(-50.5605248204)"/><rect class="cls-6" x="1826.6658934817" y="423.3630435568" width="21.3783522599" height="57.602724549"/><rect class="cls-5" x="1819.2429732712" y="453.921439202" width="10.68917613" height="10.6891764"/><rect class="cls-5" x="1871.2041273566" y="507.5182167422" width="10.68917613" height="10.6891764"/><rect class="cls-6" x="1755.7751303315" y="825.0996106667" width="10.68917613" height="10.6891764"/><rect class="cls-7" x="410.9165697879" y="435.7305141333" width="49.5788930319" height="4.9761679201"/><rect class="cls-5" x="1298.9165697879" y="726.1633249284" width="49.5788930319" height="4.9761679201"/><rect class="cls-5" x="66.7911049299" y="767.287631636" width="4.9665475358" height="4.9665476613"/><rect class="cls-5" x="97.5832364545" y="746.1633249284" width="49.5788930319" height="4.9761679201"/><rect class="cls-7" x="1592.0399337491" y="698.8775400649" width="34.6605443661" height="4.9761679201"/><rect class="cls-7" x="1606.698357282" y="836.8637619066" width="49.5790711848" height="4.9761679201"/><rect class="cls-5" x="1366.5437977409" y="452.8453384498" width="49.5790711848" height="4.9759897671"/><rect class="cls-5" x="440.3164361216" y="675.5304285733" width="49.5790711848" height="4.9761679201"/><rect class="cls-5" x="1418.7996869255" y="1027.422554325" width="49.5788930319" height="4.9761679201"/><rect class="cls-7" x="1340.3327609436" y="959.5304285733" width="49.5788930319" height="4.9761679201"/><rect class="cls-5" x="1195.9958547521" y="527.8425597545" width="28.4004283656" height="4.9761679201"/><rect class="cls-7" x="1280.6277630669" y="423.2135162455" width="28.4004415515" height="4.9761679201"/><rect class="cls-7" x="1663.9642094667" y="836.8637619066" width="11.5799411" height="4.9761679201"/><rect class="cls-7" x="394.0387169845" y="435.7305141333" width="11.5799408075" height="4.9761679201"/><rect class="cls-7" x="1621.2295796189" y="873.3851146066" width="11.5799408075" height="4.9761679201"/><rect class="cls-5" x="424.1260754963" y="675.5304285733" width="11.5799408075" height="4.9761679201"/><rect class="cls-5" x="1350.2808208619" y="967.5473108733" width="11.5799408075" height="4.9761679201"/><rect class="cls-5" x="1621.2295796189" y="905.8705906039" width="11.5799408075" height="4.9761679201"/><rect class="cls-5" x="1364.9807644518" y="917.6644876733" width="11.5799411" height="4.9761679201"/><rect class="cls-5" x="447.2987841226" y="739.4383419748" width="11.5799408075" height="4.9761679201"/></g><rect class="cls-4" x="1186.0339223873" y="738.9000356913" width="35.0202570002" height="35.0202570002"/><rect class="cls-4" x="1186.0339223873" y="703.8797786912" width="35.0202570002" height="35.0202570002"/><rect class="cls-4" x="1186.0339223873" y="668.859521691" width="35.0202570002" height="35.0202570002"/><rect class="cls-4" x="1151.0136653872" y="773.9202926915" width="35.0202570002" height="35.049735331"/><rect class="cls-4" x="1151.0136653872" y="738.9000356913" width="35.0202570002" height="35.0202570002"/><rect class="cls-4" x="1151.0136653872" y="703.8797786912" width="35.0202570002" height="35.0202570002"/><rect class="cls-4" x="1151.0136653872" y="668.859521691" width="35.0202570002" height="35.0202570002"/><rect class="cls-4" x="1151.0136653872" y="633.8392646908" width="35.0202570002" height="35.0202570002"/><rect class="cls-4" x="1115.993408387" y="808.9700280225" width="35.0202570002" height="35.0202570002"/><rect class="cls-4" x="1115.993408387" y="773.9202926915" width="35.0202570002" height="35.049735331"/><rect class="cls-4" x="1115.993408387" y="738.9000356913" width="35.0202570002" height="35.0202570002"/><rect class="cls-4" x="1115.993408387" y="703.8797786912" width="35.0202570002" height="35.0202570002"/><rect class="cls-4" x="1115.993408387" y="668.859521691" width="35.0202570002" height="35.0202570002"/><rect class="cls-4" x="1115.993408387" y="633.8392646908" width="35.0202570002" height="35.0202570002"/><rect class="cls-4" x="1115.993408387" y="598.8190076906" width="35.0202570002" height="35.0202570002"/><rect class="cls-4" x="1080.9731513868" y="843.9902850226" width="35.0202570002" height="35.0202570002"/><rect class="cls-4" x="1080.9731513868" y="808.9700280225" width="35.0202570002" height="35.0202570002"/><rect class="cls-4" x="1080.9731513868" y="773.9202926915" width="35.0202570002" height="35.049735331"/><rect class="cls-4" x="1080.9731513868" y="738.9000356913" width="35.0202570002" height="35.0202570002"/><rect class="cls-4" x="1080.9731513868" y="703.8797786912" width="35.0202570002" height="35.0202570002"/><rect class="cls-4" x="1080.9731513868" y="668.859521691" width="35.0202570002" height="35.0202570002"/><rect class="cls-4" x="1080.9731513868" y="633.8392646908" width="35.0202570002" height="35.0202570002"/><rect class="cls-4" x="1080.9731513868" y="598.8190076906" width="35.0202570002" height="35.0202570002"/><rect class="cls-4" x="1080.9731513868" y="563.7987506905" width="35.0202570002" height="35.0202570002"/><rect class="cls-4" x="1045.9528943867" y="879.0105420228" width="35.0202570002" height="35.0202570002"/><rect class="cls-4" x="1045.9528943867" y="843.9902850226" width="35.0202570002" height="35.0202570002"/><rect class="cls-4" x="1045.9528943867" y="808.9700280225" width="35.0202570002" height="35.0202570002"/><rect class="cls-4" x="1045.9528943867" y="773.9202926915" width="35.0202570002" height="35.049735331"/><rect class="cls-4" x="1045.9528943867" y="738.9000356913" width="35.0202570002" height="35.0202570002"/><rect class="cls-4" x="1045.9528943867" y="703.8797786912" width="35.0202570002" height="35.0202570002"/><rect class="cls-4" x="1045.9528943867" y="668.859521691" width="35.0202570002" height="35.0202570002"/><rect class="cls-4" x="1045.9528943867" y="633.8392646908" width="35.0202570002" height="35.0202570002"/><rect class="cls-4" x="1045.9528943867" y="598.8190076906" width="35.0202570002" height="35.0202570002"/><rect class="cls-4" x="1045.9528943867" y="563.7987506905" width="35.0202570002" height="35.0202570002"/><rect class="cls-4" x="1010.9326373865" y="914.030799023" width="35.0202570002" height="35.0202570002"/><rect class="cls-4" x="1010.9326373865" y="879.0105420228" width="35.0202570002" height="35.0202570002"/><rect class="cls-4" x="1010.9326373865" y="843.9902850226" width="35.0202570002" height="35.0202570002"/><rect class="cls-4" x="1010.9326373865" y="808.9700280225" width="35.0202570002" height="35.0202570002"/><rect class="cls-4" x="1010.9326373865" y="773.9202926915" width="35.0202570002" height="35.049735331"/><rect class="cls-4" x="1010.9326373865" y="738.9000356913" width="35.0202570002" height="35.0202570002"/><rect class="cls-4" x="1010.9326373865" y="703.8797786912" width="35.0202570002" height="35.0202570002"/><rect class="cls-4" x="1010.9326373865" y="668.859521691" width="35.0202570002" height="35.0202570002"/><rect class="cls-4" x="1010.9326373865" y="633.8392646908" width="35.0202570002" height="35.0202570002"/><rect class="cls-4" x="1010.9326373865" y="598.8190076906" width="35.0202570002" height="35.0202570002"/><rect class="cls-4" x="1010.9326373865" y="563.7987506905" width="35.0202570002" height="35.0202570002"/><rect class="cls-4" x="975.9123803863" y="949.0510560231" width="35.0202570002" height="35.0202570002"/><rect class="cls-4" x="975.9123803863" y="914.030799023" width="35.0202570002" height="35.0202570002"/><rect class="cls-4" x="975.9123803863" y="879.0105420228" width="35.0202570002" height="35.0202570002"/><rect class="cls-4" x="975.9123803863" y="843.9902850226" width="35.0202570002" height="35.0202570002"/><rect class="cls-4" x="975.9123803863" y="808.9700280225" width="35.0202570002" height="35.0202570002"/><rect class="cls-4" x="975.9123803863" y="773.9202926915" width="35.0202570002" height="35.049735331"/><rect class="cls-4" x="975.9123803863" y="738.9000356913" width="35.0202570002" height="35.0202570002"/><rect class="cls-4" x="975.9123803863" y="703.8797786912" width="35.0202570002" height="35.0202570002"/><rect class="cls-4" x="975.9123803863" y="668.859521691" width="35.0202570002" height="35.0202570002"/><rect class="cls-4" x="975.9123803863" y="633.8392646908" width="35.0202570002" height="35.0202570002"/><rect class="cls-4" x="975.9123803863" y="598.8190076906" width="35.0202570002" height="35.0202570002"/><rect class="cls-4" x="940.8626450554" y="984.0713130233" width="35.049735331" height="35.0202570002"/><rect class="cls-4" x="940.8626450554" y="949.0510560231" width="35.049735331" height="35.0202570002"/><rect class="cls-4" x="940.8626450554" y="914.030799023" width="35.049735331" height="35.0202570002"/><rect class="cls-4" x="940.8626450554" y="879.0105420228" width="35.049735331" height="35.0202570002"/><rect class="cls-4" x="940.8626450554" y="843.9902850226" width="35.049735331" height="35.0202570002"/><rect class="cls-4" x="940.8626450554" y="808.9700280225" width="35.049735331" height="35.0202570002"/><rect class="cls-4" x="940.8626450554" y="773.9202926915" width="35.049735331" height="35.049735331"/><rect class="cls-4" x="940.8626450554" y="738.9000356913" width="35.049735331" height="35.0202570002"/><rect class="cls-4" x="940.8626450554" y="703.8797786912" width="35.049735331" height="35.0202570002"/><rect class="cls-4" x="940.8626450554" y="668.859521691" width="35.049735331" height="35.0202570002"/><rect class="cls-4" x="940.8626450554" y="633.8392646908" width="35.049735331" height="35.0202570002"/><rect class="cls-4" x="905.8423880552" y="949.0510560231" width="35.0202570002" height="35.0202570002"/><rect class="cls-4" x="905.8423880552" y="914.030799023" width="35.0202570002" height="35.0202570002"/><rect class="cls-4" x="905.8423880552" y="879.0105420228" width="35.0202570002" height="35.0202570002"/><rect class="cls-4" x="905.8423880552" y="843.9902850226" width="35.0202570002" height="35.0202570002"/><rect class="cls-4" x="905.8423880552" y="808.9700280225" width="35.0202570002" height="35.0202570002"/><rect class="cls-4" x="905.8423880552" y="773.9202926915" width="35.0202570002" height="35.049735331"/><rect class="cls-4" x="905.8423880552" y="738.9000356913" width="35.0202570002" height="35.0202570002"/><rect class="cls-4" x="905.8423880552" y="703.8797786912" width="35.0202570002" height="35.0202570002"/><rect class="cls-4" x="905.8423880552" y="668.859521691" width="35.0202570002" height="35.0202570002"/><rect class="cls-4" x="905.8423880552" y="633.8392646908" width="35.0202570002" height="35.0202570002"/><rect class="cls-4" x="905.8423880552" y="598.8190076906" width="35.0202570002" height="35.0202570002"/><rect class="cls-4" x="870.822131055" y="914.030799023" width="35.0202570002" height="35.0202570002"/><rect class="cls-4" x="870.822131055" y="879.0105420228" width="35.0202570002" height="35.0202570002"/><rect class="cls-4" x="870.822131055" y="843.9902850226" width="35.0202570002" height="35.0202570002"/><rect class="cls-4" x="870.822131055" y="808.9700280225" width="35.0202570002" height="35.0202570002"/><rect class="cls-4" x="870.822131055" y="773.9202926915" width="35.0202570002" height="35.049735331"/><rect class="cls-4" x="870.822131055" y="738.9000356913" width="35.0202570002" height="35.0202570002"/><rect class="cls-4" x="870.822131055" y="703.8797786912" width="35.0202570002" height="35.0202570002"/><rect class="cls-4" x="870.822131055" y="668.859521691" width="35.0202570002" height="35.0202570002"/><rect class="cls-4" x="870.822131055" y="633.8392646908" width="35.0202570002" height="35.0202570002"/><rect class="cls-4" x="870.822131055" y="598.8190076906" width="35.0202570002" height="35.0202570002"/><rect class="cls-4" x="870.822131055" y="563.7987506905" width="35.0202570002" height="35.0202570002"/><rect class="cls-4" x="835.8018740549" y="879.0105420228" width="35.0202570002" height="35.0202570002"/><rect class="cls-4" x="835.8018740549" y="843.9902850226" width="35.0202570002" height="35.0202570002"/><rect class="cls-4" x="835.8018740549" y="808.9700280225" width="35.0202570002" height="35.0202570002"/><rect class="cls-4" x="835.8018740549" y="773.9202926915" width="35.0202570002" height="35.049735331"/><rect class="cls-4" x="835.8018740549" y="738.9000356913" width="35.0202570002" height="35.0202570002"/><rect class="cls-4" x="835.8018740549" y="703.8797786912" width="35.0202570002" height="35.0202570002"/><rect class="cls-4" x="835.8018740549" y="668.859521691" width="35.0202570002" height="35.0202570002"/><rect class="cls-4" x="835.8018740549" y="633.8392646908" width="35.0202570002" height="35.0202570002"/><rect class="cls-4" x="835.8018740549" y="598.8190076906" width="35.0202570002" height="35.0202570002"/><rect class="cls-4" x="835.8018740549" y="563.7987506905" width="35.0202570002" height="35.0202570002"/><rect class="cls-4" x="800.7816170547" y="843.9902850226" width="35.0202570002" height="35.0202570002"/><rect class="cls-4" x="800.7816170547" y="808.9700280225" width="35.0202570002" height="35.0202570002"/><rect class="cls-4" x="800.7816170547" y="773.9202926915" width="35.0202570002" height="35.049735331"/><rect class="cls-4" x="800.7816170547" y="738.9000356913" width="35.0202570002" height="35.0202570002"/><rect class="cls-4" x="800.7816170547" y="703.8797786912" width="35.0202570002" height="35.0202570002"/><rect class="cls-4" x="800.7816170547" y="668.859521691" width="35.0202570002" height="35.0202570002"/><rect class="cls-4" x="800.7816170547" y="633.8392646908" width="35.0202570002" height="35.0202570002"/><rect class="cls-4" x="800.7816170547" y="598.8190076906" width="35.0202570002" height="35.0202570002"/><rect class="cls-4" x="800.7816170547" y="563.7987506905" width="35.0202570002" height="35.0202570002"/><rect class="cls-4" x="765.7613600545" y="808.9700280225" width="35.0202570002" height="35.0202570002"/><rect class="cls-4" x="765.7613600545" y="773.9202926915" width="35.0202570002" height="35.049735331"/><rect class="cls-4" x="765.7613600545" y="738.9000356913" width="35.0202570002" height="35.0202570002"/><rect class="cls-4" x="765.7613600545" y="703.8797786912" width="35.0202570002" height="35.0202570002"/><rect class="cls-4" x="765.7613600545" y="668.859521691" width="35.0202570002" height="35.0202570002"/><rect class="cls-4" x="765.7613600545" y="633.8392646908" width="35.0202570002" height="35.0202570002"/><rect class="cls-4" x="765.7613600545" y="598.8190076906" width="35.0202570002" height="35.0202570002"/><rect class="cls-4" x="730.7411030543" y="773.9202926915" width="35.0202570002" height="35.049735331"/><rect class="cls-4" x="730.7411030543" y="738.9000356913" width="35.0202570002" height="35.0202570002"/><rect class="cls-4" x="730.7411030543" y="703.8797786912" width="35.0202570002" height="35.0202570002"/><rect class="cls-4" x="730.7411030543" y="668.859521691" width="35.0202570002" height="35.0202570002"/><rect class="cls-4" x="730.7411030543" y="633.8392646908" width="35.0202570002" height="35.0202570002"/><rect class="cls-4" x="695.7208460542" y="738.9000356913" width="35.0202570002" height="35.0202570002"/><rect class="cls-4" x="695.7208460542" y="703.8797786912" width="35.0202570002" height="35.0202570002"/><rect class="cls-4" x="695.7208460542" y="668.859521691" width="35.0202570002" height="35.0202570002"/></g></g></g></g></svg>