<?xml version="1.0" encoding="utf-8"?>
<!-- Generator: Adobe Illustrator 26.3.0, SVG Export Plug-In . SVG Version: 6.00 Build 0)  -->
<svg version="1.1" id="Capa_1" xmlns="http://www.w3.org/2000/svg" xmlns:xlink="http://www.w3.org/1999/xlink" x="0px" y="0px"
	 viewBox="0 0 2000 1100" style="enable-background:new 0 0 2000 1100;" xml:space="preserve">
<style type="text/css">
	.st0{clip-path:url(#SVGID_00000165926709724653668690000016871531048362203806_);}
	.st1{fill:#2B1845;}
	.st2{fill:#FCEE21;}
	.st3{fill:#93278F;}
	.st4{fill:#FFFFFF;}
	.st5{fill:#1C0838;}
</style>
<g>
	<g>
		<g id="Capa_2_00000140719239712230967190000007502628825322054308_">
			<g id="Capa_1-2_00000020389695276608633580000004714635304528482998_">
				<g>
					<defs>
						<rect id="SVGID_1_" width="2000" height="1100"/>
					</defs>
					<clipPath id="SVGID_00000096738321138684393240000000707311137084813219_">
						<use xlink:href="#SVGID_1_"  style="overflow:visible;"/>
					</clipPath>
					<g style="clip-path:url(#SVGID_00000096738321138684393240000000707311137084813219_);">
						<rect x="-7.3" y="-11.2" class="st1" width="2015.6" height="1117.3"/>
						<g>
							<rect x="1900" y="431.9" class="st2" width="21.9" height="59.1"/>
							<rect x="1766.7" y="230.2" class="st3" width="11.5" height="11.2"/>
							<rect x="733.3" y="259.7" class="st2" width="11.5" height="11.2"/>
							<rect x="149" y="123.2" class="st2" width="11.5" height="11.2"/>
							<path class="st2" d="M37.5,881v272.2c0,1.7-1.4,3-3.1,3l0,0V881H37.5L37.5,881z"/>
							<rect x="1357.3" y="255.6" class="st2" width="5.2" height="5.1"/>
							<rect x="263.5" y="526.6" class="st2" width="5.2" height="5.1"/>
							<rect x="481.2" y="361.6" class="st4" width="5.2" height="5.1"/>
							<rect x="1725" y="115.1" class="st2" width="5.2" height="5.1"/>
							<rect x="1277.1" y="199.6" class="st3" width="5.2" height="5.1"/>
							<rect x="322.9" y="358.5" class="st3" width="5.2" height="5.1"/>
							<rect x="1313.5" y="749.6" class="st3" width="5.2" height="5.1"/>
							<rect x="331.2" y="794.4" class="st3" width="5.2" height="5.1"/>
							<polygon class="st3" points="403.1,998.4 386.8,995.6 389.6,979.8 405.9,982.5 							"/>
							<polygon class="st3" points="160.1,460.2 164.5,451.8 154.7,446.9 141.7,451 							"/>
							<polygon class="st3" points="150.2,421.7 137.2,425.7 132.1,435.5 122.1,430.5 109.1,434.6 119.3,439.7 145,431.6 							"/>
							<polygon class="st3" points="140.7,439.9 141.5,438.3 126.1,443.1 127.7,443.9 124,451 147.9,443.5 							"/>
							<polygon class="st3" points="144.3,412.3 140.7,419.1 151.3,415.8 							"/>
							<polygon class="st3" points="108.3,423.6 104.7,430.4 115.3,427.1 							"/>
							<polygon class="st3" points="115.5,467.2 124.1,471.5 133.5,453.6 120.5,457.7 							"/>
							<polygon class="st3" points="101.8,431.3 100.9,432.9 106.1,435.5 119.1,431.4 112.3,428 							"/>
							<polygon class="st3" points="137.8,420 134.3,426.7 147.3,422.6 149.9,417.5 148.3,416.7 							"/>
							<polygon class="st3" points="127.9,442.5 143.4,437.7 146.9,431 121.1,439.1 							"/>
							<polygon class="st3" points="120.5,452.1 117,458.7 130,454.7 132.8,449.3 138.2,452.1 151.2,448 144.4,444.6 							"/>
							<polygon class="st2" points="164.9,458.7 169.3,450.3 159.6,445.4 146.6,449.5 							"/>
							<polygon class="st2" points="155.1,420.1 142.1,424.2 136.9,434 126.9,429 113.9,433.1 124.1,438.2 149.9,430.1 							"/>
							<polygon class="st2" points="145.5,438.3 146.4,436.7 130.9,441.6 132.5,442.4 128.8,449.5 152.8,442 							"/>
							<polygon class="st2" points="149.2,410.8 145.6,417.6 156.1,414.3 							"/>
							<polygon class="st2" points="113.2,422.1 109.6,428.9 120.1,425.6 							"/>
							<polygon class="st2" points="120.3,465.7 128.9,470 138.3,452 125.3,456.1 							"/>
							<polygon class="st2" points="106.6,429.8 105.8,431.4 111,434 124,429.9 117.2,426.5 							"/>
							<polygon class="st2" points="142.6,418.5 139.1,425.1 152.1,421.1 154.8,416 153.2,415.2 							"/>
							<polygon class="st2" points="132.8,441 148.2,436.2 151.7,429.5 126,437.6 							"/>
							<polygon class="st2" points="125.4,450.6 121.9,457.2 134.9,453.1 137.7,447.8 143.1,450.5 156.1,446.5 149.3,443 							"/>
							<polygon class="st4" points="162.6,459.4 167,451 157.3,446.1 144.2,450.2 							"/>
							<polygon class="st4" points="152.8,420.9 139.8,424.9 134.6,434.7 124.6,429.7 111.6,433.8 121.8,438.9 147.6,430.8 							
								"/>
							<polygon class="st4" points="143.2,439.1 144.1,437.5 128.6,442.3 130.2,443.1 126.5,450.2 150.5,442.7 							"/>
							<polygon class="st4" points="146.9,411.5 143.3,418.3 153.8,415 							"/>
							<polygon class="st4" points="110.8,422.8 107.3,429.6 117.8,426.3 							"/>
							<polygon class="st4" points="118,466.4 126.6,470.7 136,452.8 123,456.9 							"/>
							<polygon class="st4" points="104.3,430.5 103.5,432.1 108.6,434.7 121.7,430.6 114.9,427.2 							"/>
							<polygon class="st4" points="140.3,419.2 136.8,425.9 149.8,421.8 152.5,416.7 150.9,415.9 							"/>
							<polygon class="st4" points="130.5,441.7 145.9,436.9 149.4,430.2 123.7,438.3 							"/>
							<polygon class="st4" points="123,451.3 119.5,457.9 132.6,453.9 135.3,448.5 140.8,451.3 153.8,447.2 147,443.8 							"/>
							<polygon class="st3" points="1469,840.8 1463.9,832.8 1454.6,838.5 1451.5,851.5 							"/>
							<polygon class="st3" points="1430.1,829.3 1427.1,842.4 1433.1,851.7 1423.5,857.5 1420.5,870.6 1430.2,864.6 1436.2,838.8 
															"/>
							<polygon class="st3" points="1441.2,846.7 1440.3,845.2 1436.6,860.6 1438.2,859.7 1442.5,866.4 1448.1,842.5 							"/>
							<polygon class="st3" points="1418.8,829.5 1423,836 1425.5,825.5 							"/>
							<polygon class="st3" points="1410.4,865.6 1414.6,872.1 1417,861.5 							"/>
							<polygon class="st3" points="1452.4,881.9 1460.6,876.8 1449.6,859.7 1446.6,872.8 							"/>
							<polygon class="st3" points="1413.9,875 1414.8,876.6 1419.8,873.5 1422.8,860.5 1416.3,864.5 							"/>
							<polygon class="st3" points="1422.3,839 1426.4,845.3 1429.4,832.3 1426.3,827.5 1424.8,828.4 							"/>
							<polygon class="st3" points="1437.1,858.8 1440.7,843.3 1436.7,837 1430.6,862.8 							"/>
							<polygon class="st3" points="1441.7,869.9 1445.7,876.2 1448.8,863.2 1445.6,858.2 1450.7,855 1453.8,842 1447.3,845.9 
															"/>
							<polygon class="st2" points="1470.2,835.9 1465,827.9 1455.7,833.6 1452.7,846.6 							"/>
							<polygon class="st2" points="1431.3,824.5 1428.2,837.5 1434.2,846.8 1424.7,852.7 1421.6,865.7 1431.3,859.7 1437.4,834 
															"/>
							<polygon class="st2" points="1442.4,841.8 1441.4,840.3 1437.8,855.8 1439.3,854.8 1443.6,861.6 1449.3,837.6 							"/>
							<polygon class="st2" points="1420,824.7 1424.2,831.2 1426.6,820.6 							"/>
							<polygon class="st2" points="1411.5,860.7 1415.7,867.2 1418.2,856.6 							"/>
							<polygon class="st2" points="1453.5,877 1461.7,872 1450.8,854.9 1447.7,867.9 							"/>
							<polygon class="st2" points="1415,870.2 1416,871.7 1420.9,868.7 1424,855.6 1417.5,859.6 							"/>
							<polygon class="st2" points="1423.5,834.1 1427.5,840.5 1430.6,827.4 1427.5,822.6 1425.9,823.6 							"/>
							<polygon class="st2" points="1438.2,853.9 1441.9,838.4 1437.8,832.1 1431.7,857.9 							"/>
							<polygon class="st2" points="1442.8,865 1446.9,871.4 1449.9,858.3 1446.7,853.3 1451.9,850.1 1454.9,837.1 1448.4,841.1 
															"/>
							<polygon class="st4" points="1469.6,838.2 1464.5,830.2 1455.2,835.9 1452.1,849 							"/>
							<polygon class="st4" points="1430.7,826.8 1427.7,839.8 1433.7,849.1 1424.1,855 1421.1,868 1430.8,862.1 1436.8,836.3 
															"/>
							<polygon class="st4" points="1441.8,844.1 1440.9,842.6 1437.2,858.1 1438.8,857.2 1443.1,863.9 1448.7,839.9 							"/>
							<polygon class="st4" points="1419.4,827 1423.6,833.5 1426.1,822.9 							"/>
							<polygon class="st4" points="1411,863 1415.2,869.5 1417.6,859 							"/>
							<polygon class="st4" points="1453,879.3 1461.2,874.3 1450.2,857.2 1447.2,870.2 							"/>
							<polygon class="st4" points="1414.5,872.5 1415.4,874 1420.4,871 1423.4,858 1416.9,861.9 							"/>
							<polygon class="st4" points="1422.9,836.5 1427,842.8 1430,829.8 1426.9,824.9 1425.4,825.9 							"/>
							<polygon class="st4" points="1437.7,856.2 1441.3,840.8 1437.2,834.4 1431.2,860.2 							"/>
							<polygon class="st4" points="1442.3,867.4 1446.3,873.7 1449.4,860.7 1446.2,855.6 1451.3,852.4 1454.4,839.4 1447.9,843.4 
															"/>
							<path class="st3" d="M1822.2,937.2l-5.7-3.1c-0.1,0.3-0.2,0.5-0.4,0.8c-0.8,1.5-1.9,2.7-3.1,3.8l5.9,3.2
								c1.1-1.2,2.1-2.5,2.9-3.9C1821.9,937.7,1822.1,937.4,1822.2,937.2L1822.2,937.2z"/>
							<path class="st3" d="M1813.5,909.6c-4.5-2.4-9.5-3.1-14.2-2.3l23.8,12.9C1821.2,915.8,1818,912,1813.5,909.6L1813.5,909.6z"
								/>
							<path class="st3" d="M1817.8,929.8l5.9,3.2c0.6-2.4,0.8-4.8,0.6-7.1l-7.8-4.2C1817.8,924.2,1818.2,927.1,1817.8,929.8
								L1817.8,929.8z"/>
							<path class="st3" d="M1793.6,916.7c2.2-1.8,4.9-2.9,7.7-3.3l-7.8-4.2c-2.2,1.1-4.1,2.5-5.9,4.3L1793.6,916.7z"/>
							<path class="st3" d="M1790.6,920l-5.7-3.1c-0.2,0.2-0.3,0.5-0.5,0.7c-0.8,1.4-1.4,2.9-1.9,4.5l5.9,3.2
								c0.3-1.6,0.8-3.1,1.6-4.6C1790.3,920.5,1790.4,920.3,1790.6,920L1790.6,920z"/>
							<path class="st3" d="M1795.9,940.5c-4.1-2.2-6.7-6-7.4-10.2l-6.6-3.6c-0.4,7.7,3.6,15.4,10.9,19.3s16.1,3.2,22.6-1.2
								l-6.6-3.6C1804.7,942.9,1800,942.8,1795.9,940.5z"/>
							<path class="st3" d="M1820.7,919l-23.8-12.9c-2,0.4-3.9,1-5.7,1.9l7.8,4.2c3-0.4,6.2,0.1,9,1.7s5,3.9,6.3,6.6l7.8,4.2
								C1821.9,922.7,1821.5,920.8,1820.7,919L1820.7,919z"/>
							<path class="st3" d="M1819.3,930.6c-0.2,1.4-0.6,2.9-1.3,4.3l5.7,3.1c0.7-1.3,1.2-2.7,1.6-4.1L1819.3,930.6z"/>
							<path class="st3" d="M1786.3,917.7l5.7,3.1c0.8-1.3,1.8-2.4,3-3.3l-5.9-3.2C1788.1,915.3,1787.1,916.5,1786.3,917.7
								L1786.3,917.7z"/>
							<path class="st3" d="M1806.1,939.9l6.6,3.6c1.3-0.9,2.5-1.9,3.5-3l-5.9-3.2C1809.1,938.4,1807.7,939.3,1806.1,939.9
								L1806.1,939.9z"/>
							<path class="st3" d="M1780,920.7c-0.4,1.5-0.7,3-0.8,4.6l6.6,3.6c-0.3-1.6-0.3-3.3,0-5L1780,920.7z"/>
							<path class="st2" d="M1825.9,939.2l-5.7-3.1c-0.1,0.3-0.2,0.5-0.4,0.8c-0.8,1.5-1.9,2.7-3.1,3.8l5.9,3.2
								c1.1-1.2,2.1-2.5,2.9-3.9C1825.6,939.7,1825.7,939.4,1825.9,939.2L1825.9,939.2z"/>
							<path class="st2" d="M1817.2,911.6c-4.5-2.4-9.5-3.1-14.2-2.3l23.8,12.9C1824.9,917.8,1821.7,914,1817.2,911.6z"/>
							<path class="st2" d="M1821.5,931.8l5.9,3.2c0.6-2.4,0.8-4.8,0.6-7.1l-7.8-4.2C1821.5,926.2,1821.9,929,1821.5,931.8
								L1821.5,931.8z"/>
							<path class="st2" d="M1797.3,918.7c2.2-1.8,4.9-2.9,7.7-3.3l-7.8-4.2c-2.2,1.1-4.1,2.5-5.9,4.3L1797.3,918.7z"/>
							<path class="st2" d="M1794.3,922l-5.7-3.1c-0.2,0.2-0.3,0.5-0.5,0.7c-0.8,1.4-1.4,2.9-1.9,4.5l5.9,3.2
								c0.3-1.6,0.8-3.1,1.6-4.6C1793.9,922.5,1794.1,922.3,1794.3,922L1794.3,922z"/>
							<path class="st2" d="M1799.6,942.5c-4.1-2.2-6.7-6-7.4-10.2l-6.6-3.6c-0.4,7.7,3.6,15.4,10.9,19.3c7.4,4,16.1,3.2,22.6-1.2
								l-6.6-3.6C1808.4,944.9,1803.7,944.8,1799.6,942.5z"/>
							<path class="st2" d="M1824.4,921l-23.8-12.9c-2,0.4-3.9,1-5.7,1.9l7.8,4.2c3-0.4,6.2,0.1,9,1.7c2.9,1.6,5,3.9,6.3,6.6
								l7.8,4.2C1825.6,924.7,1825.2,922.8,1824.4,921L1824.4,921z"/>
							<path class="st2" d="M1822.9,932.6c-0.2,1.4-0.6,2.9-1.3,4.3l5.7,3.1c0.7-1.3,1.2-2.7,1.6-4.1L1822.9,932.6z"/>
							<path class="st2" d="M1790,919.7l5.7,3.1c0.8-1.3,1.8-2.4,3-3.3l-5.9-3.2C1791.7,917.3,1790.8,918.4,1790,919.7z"/>
							<path class="st2" d="M1809.8,941.9l6.6,3.6c1.3-0.9,2.5-1.9,3.5-3l-5.9-3.2C1812.8,940.4,1811.3,941.2,1809.8,941.9z"/>
							<path class="st2" d="M1783.7,922.7c-0.4,1.5-0.7,3-0.8,4.6l6.6,3.6c-0.3-1.6-0.3-3.3,0-5L1783.7,922.7z"/>
							<path class="st4" d="M1824.1,938.2l-5.7-3.1c-0.1,0.3-0.2,0.5-0.4,0.8c-0.8,1.5-1.9,2.7-3.1,3.8l5.9,3.2
								c1.1-1.2,2.1-2.5,2.9-3.9C1823.9,938.7,1824,938.5,1824.1,938.2L1824.1,938.2z"/>
							<path class="st4" d="M1815.4,910.6c-4.5-2.4-9.5-3.1-14.2-2.3l23.8,12.9C1823.2,916.9,1819.9,913.1,1815.4,910.6
								L1815.4,910.6z"/>
							<path class="st4" d="M1819.8,930.9l5.9,3.2c0.6-2.4,0.8-4.8,0.6-7.1l-7.8-4.2C1819.7,925.3,1820.2,928.1,1819.8,930.9
								L1819.8,930.9z"/>
							<path class="st4" d="M1795.5,917.7c2.2-1.8,4.9-2.9,7.7-3.3l-7.8-4.2c-2.2,1.1-4.1,2.5-5.9,4.3L1795.5,917.7z"/>
							<path class="st4" d="M1792.5,921.1l-5.7-3.1c-0.2,0.2-0.3,0.5-0.5,0.7c-0.8,1.4-1.4,2.9-1.9,4.5l5.9,3.2
								c0.3-1.6,0.8-3.1,1.6-4.6C1792.2,921.6,1792.4,921.3,1792.5,921.1L1792.5,921.1z"/>
							<path class="st4" d="M1797.8,941.6c-4.1-2.2-6.7-6-7.4-10.2l-6.6-3.6c-0.4,7.7,3.6,15.4,10.9,19.3c7.4,4,16.1,3.2,22.6-1.2
								l-6.6-3.6C1806.6,943.9,1801.9,943.8,1797.8,941.6z"/>
							<path class="st4" d="M1822.7,920l-23.8-12.9c-2,0.4-3.9,1-5.7,1.9l7.8,4.2c3-0.4,6.2,0.1,9,1.7c2.9,1.6,5,3.9,6.3,6.6
								l7.8,4.2C1823.9,923.8,1823.4,921.9,1822.7,920L1822.7,920z"/>
							<path class="st4" d="M1821.2,931.6c-0.2,1.4-0.6,2.9-1.3,4.3l5.7,3.1c0.7-1.3,1.2-2.7,1.6-4.1L1821.2,931.6z"/>
							<path class="st4" d="M1788.3,918.8l5.7,3.1c0.8-1.3,1.8-2.4,3-3.3l-5.9-3.2C1790,916.3,1789.1,917.5,1788.3,918.8
								L1788.3,918.8z"/>
							<path class="st4" d="M1808,940.9l6.6,3.6c1.3-0.9,2.5-1.9,3.5-3l-5.9-3.2C1811,939.4,1809.6,940.3,1808,940.9L1808,940.9z"/>
							<path class="st4" d="M1781.9,921.8c-0.4,1.5-0.7,3-0.8,4.6l6.6,3.6c-0.3-1.6-0.3-3.3,0-5L1781.9,921.8z"/>
							<path class="st3" d="M1331.6,225l-4.9-2.7c-0.1,0.2-0.2,0.5-0.3,0.7c-0.7,1.3-1.6,2.4-2.7,3.3l5.1,2.8c0.9-1,1.8-2.1,2.5-3.4
								C1331.3,225.5,1331.4,225.2,1331.6,225z"/>
							<path class="st3" d="M1324,201.1c-3.9-2.1-8.3-2.7-12.4-2l20.6,11.2C1330.7,206.5,1327.9,203.2,1324,201.1z"/>
							<path class="st3" d="M1327.8,218.7l5.1,2.8c0.5-2,0.7-4.1,0.5-6.2l-6.7-3.7C1327.7,213.8,1328.1,216.2,1327.8,218.7z"/>
							<path class="st3" d="M1306.7,207.2c1.9-1.6,4.3-2.5,6.7-2.8l-6.7-3.7c-1.9,0.9-3.6,2.2-5.1,3.7L1306.7,207.2z"/>
							<path class="st3" d="M1304.1,210.1l-4.9-2.7c-0.1,0.2-0.3,0.4-0.4,0.6c-0.7,1.3-1.2,2.6-1.6,3.9l5.1,2.8
								c0.2-1.4,0.7-2.7,1.4-4C1303.8,210.6,1304,210.4,1304.1,210.1z"/>
							<path class="st3" d="M1308.7,228c-3.5-1.9-5.8-5.2-6.5-8.9l-5.8-3.1c-0.4,6.7,3.1,13.3,9.5,16.8c6.4,3.5,14,2.8,19.6-1
								l-5.8-3.1C1316.4,230,1312.3,229.9,1308.7,228L1308.7,228z"/>
							<path class="st3" d="M1330.3,209.2l-20.6-11.2c-1.7,0.3-3.4,0.9-4.9,1.6l6.7,3.7c2.6-0.3,5.4,0.1,7.9,1.5s4.3,3.4,5.4,5.7
								l6.7,3.7C1331.3,212.5,1330.9,210.8,1330.3,209.2L1330.3,209.2z"/>
							<path class="st3" d="M1329,219.3c-0.2,1.3-0.6,2.5-1.1,3.7l4.9,2.7c0.6-1.2,1.1-2.4,1.4-3.6L1329,219.3z"/>
							<path class="st3" d="M1300.4,208.1l4.9,2.7c0.7-1.1,1.6-2.1,2.6-2.9l-5.1-2.8C1301.9,206,1301.1,207,1300.4,208.1
								L1300.4,208.1z"/>
							<path class="st3" d="M1317.6,227.4l5.8,3.1c1.1-0.8,2.1-1.6,3.1-2.6l-5.1-2.8C1320.2,226.1,1318.9,226.8,1317.6,227.4
								L1317.6,227.4z"/>
							<path class="st3" d="M1294.9,210.8c-0.4,1.3-0.6,2.6-0.7,4l5.8,3.1c-0.3-1.4-0.3-2.9,0-4.3L1294.9,210.8z"/>
							<path class="st2" d="M1334.7,226.7l-4.9-2.7c-0.1,0.2-0.2,0.5-0.3,0.7c-0.7,1.3-1.6,2.4-2.7,3.3l5.1,2.8
								c0.9-1,1.8-2.1,2.5-3.4C1334.5,227.2,1334.6,227,1334.7,226.7L1334.7,226.7z"/>
							<path class="st2" d="M1327.2,202.8c-3.9-2.1-8.3-2.7-12.4-2l20.6,11.2C1333.9,208.2,1331.1,204.9,1327.2,202.8z"/>
							<path class="st2" d="M1331,220.4l5.1,2.8c0.5-2,0.7-4.1,0.5-6.2l-6.7-3.7C1330.9,215.5,1331.3,218,1331,220.4L1331,220.4z"/>
							<path class="st2" d="M1309.9,209c1.9-1.6,4.3-2.5,6.7-2.8l-6.7-3.7c-1.9,0.9-3.6,2.2-5.1,3.7L1309.9,209L1309.9,209z"/>
							<path class="st2" d="M1307.3,211.9l-4.9-2.7c-0.1,0.2-0.3,0.4-0.4,0.6c-0.7,1.3-1.2,2.6-1.6,3.9l5.1,2.8
								c0.2-1.4,0.7-2.7,1.4-4C1307,212.3,1307.2,212.1,1307.3,211.9L1307.3,211.9z"/>
							<path class="st2" d="M1311.9,229.7c-3.5-1.9-5.8-5.2-6.5-8.9l-5.8-3.1c-0.4,6.7,3.1,13.3,9.5,16.8c6.4,3.5,14,2.8,19.6-1
								l-5.8-3.1C1319.5,231.7,1315.5,231.6,1311.9,229.7L1311.9,229.7z"/>
							<path class="st2" d="M1333.5,211l-20.6-11.2c-1.7,0.3-3.4,0.9-4.9,1.6l6.7,3.7c2.6-0.3,5.4,0.1,7.9,1.5
								c2.5,1.3,4.3,3.4,5.4,5.7l6.7,3.7C1334.5,214.2,1334.1,212.5,1333.5,211L1333.5,211z"/>
							<path class="st2" d="M1332.2,221c-0.2,1.3-0.6,2.5-1.1,3.7l4.9,2.7c0.6-1.2,1.1-2.4,1.4-3.6L1332.2,221L1332.2,221z"/>
							<path class="st2" d="M1303.6,209.9l4.9,2.7c0.7-1.1,1.6-2.1,2.6-2.9l-5.1-2.8C1305.1,207.7,1304.3,208.8,1303.6,209.9
								L1303.6,209.9z"/>
							<path class="st2" d="M1320.8,229.1l5.8,3.1c1.1-0.8,2.1-1.6,3.1-2.6l-5.1-2.8C1323.4,227.8,1322.1,228.6,1320.8,229.1
								L1320.8,229.1z"/>
							<path class="st2" d="M1298.1,212.5c-0.4,1.3-0.6,2.6-0.7,4l5.8,3.1c-0.3-1.4-0.3-2.9,0-4.3L1298.1,212.5L1298.1,212.5z"/>
							<path class="st4" d="M1333.2,225.9l-4.9-2.7c-0.1,0.2-0.2,0.5-0.3,0.7c-0.7,1.3-1.6,2.4-2.7,3.3l5.1,2.8
								c0.9-1,1.8-2.1,2.5-3.4C1333,226.4,1333.1,226.1,1333.2,225.9L1333.2,225.9z"/>
							<path class="st4" d="M1325.7,202c-3.9-2.1-8.3-2.7-12.4-2l20.6,11.2C1332.4,207.4,1329.6,204.1,1325.7,202L1325.7,202z"/>
							<path class="st4" d="M1329.5,219.6l5.1,2.8c0.5-2,0.7-4.1,0.5-6.2l-6.7-3.7C1329.4,214.7,1329.8,217.1,1329.5,219.6z"/>
							<path class="st4" d="M1308.4,208.1c1.9-1.6,4.3-2.5,6.7-2.8l-6.7-3.7c-1.9,0.9-3.6,2.2-5.1,3.7L1308.4,208.1z"/>
							<path class="st4" d="M1305.8,211l-4.9-2.7c-0.1,0.2-0.3,0.4-0.4,0.6c-0.7,1.3-1.2,2.6-1.6,3.9l5.1,2.8c0.2-1.4,0.7-2.7,1.4-4
								C1305.5,211.5,1305.6,211.3,1305.8,211L1305.8,211z"/>
							<path class="st4" d="M1310.4,228.9c-3.5-1.9-5.8-5.2-6.5-8.9l-5.8-3.1c-0.4,6.7,3.1,13.3,9.5,16.8c6.4,3.5,14,2.8,19.6-1
								l-5.8-3.1C1318,230.9,1314,230.8,1310.4,228.9L1310.4,228.9z"/>
							<path class="st4" d="M1332,210.1l-20.6-11.2c-1.7,0.3-3.4,0.9-4.9,1.6l6.7,3.7c2.6-0.3,5.4,0.1,7.9,1.5s4.3,3.4,5.4,5.7
								l6.7,3.7C1333,213.4,1332.6,211.7,1332,210.1L1332,210.1z"/>
							<path class="st4" d="M1330.7,220.2c-0.2,1.3-0.6,2.5-1.1,3.7l4.9,2.7c0.6-1.2,1.1-2.4,1.4-3.6L1330.7,220.2z"/>
							<path class="st4" d="M1302.1,209l4.9,2.7c0.7-1.1,1.6-2.1,2.6-2.9l-5.1-2.8C1303.6,206.9,1302.8,207.9,1302.1,209z"/>
							<path class="st4" d="M1319.2,228.3l5.8,3.1c1.1-0.8,2.1-1.6,3.1-2.6l-5.1-2.8C1321.9,227,1320.6,227.7,1319.2,228.3z"/>
							<path class="st4" d="M1296.6,211.7c-0.4,1.3-0.6,2.6-0.7,4l5.8,3.1c-0.3-1.4-0.3-2.9,0-4.3L1296.6,211.7L1296.6,211.7z"/>
							<polygon class="st3" points="1685.7,145.7 1689.2,140.6 1695.2,144.5 1691.7,149.6 							"/>
							<polygon class="st3" points="1711.9,175.2 1685.9,158.1 1689,153.5 1683,149.6 1675.9,160.1 1713.9,184.9 1721,174.4 
								1715.1,170.5 							"/>
							<polygon class="st3" points="1723.9,157.6 1727.9,151.8 1733.9,155.7 1729.9,161.5 							"/>
							<polygon class="st3" points="1717.7,166.6 1721.2,161.5 1727.2,165.5 1723.7,170.5 							"/>
							<polygon class="st3" points="1698.6,126.9 1701.3,122.9 1739.3,147.8 1736.6,151.8 							"/>
							<polygon class="st3" points="1691.9,136.7 1695.9,130.8 1701.9,134.7 1697.9,140.6 							"/>
							<polygon class="st3" points="1696.3,125.4 1693.6,129.3 1699.6,133.2 1701,131.2 1727,148.2 1725.6,150.3 1731.6,154.2 
								1734.2,150.3 							"/>
							<polygon class="st3" points="1722.6,162.5 1725.3,158.6 1731.3,162.5 1728.6,166.4 							"/>
							<polygon class="st3" points="1690.6,141.5 1693.3,137.6 1699.3,141.5 1696.6,145.4 							"/>
							<polygon class="st3" points="1680.4,147.8 1683,143.9 1689,147.8 1686.3,151.7 							"/>
							<polygon class="st3" points="1712.4,168.7 1715,164.8 1721,168.8 1718.3,172.7 							"/>
							<polygon class="st2" points="1689.5,148.1 1693,143.1 1699,147 1695.5,152 							"/>
							<polygon class="st2" points="1715.6,177.6 1689.6,160.6 1692.8,156 1686.8,152 1679.6,162.5 1717.6,187.4 1724.8,176.9 
								1718.8,173 							"/>
							<polygon class="st2" points="1727.6,160.1 1731.7,154.2 1737.6,158.2 1733.6,164 							"/>
							<polygon class="st2" points="1721.5,169.1 1725,164 1731,167.9 1727.5,173 							"/>
							<polygon class="st2" points="1702.3,129.4 1705.1,125.4 1743.1,150.3 1740.3,154.3 							"/>
							<polygon class="st2" points="1695.6,139.1 1699.7,133.3 1705.6,137.2 1701.6,143.1 							"/>
							<polygon class="st2" points="1700,127.9 1697.4,131.8 1703.3,135.7 1704.7,133.7 1730.8,150.7 1729.4,152.7 1735.3,156.7 
								1738,152.8 							"/>
							<polygon class="st2" points="1726.4,164.9 1729.1,161 1735.1,165 1732.4,168.9 							"/>
							<polygon class="st2" points="1694.4,144 1697.1,140.1 1703.1,144 1700.4,147.9 							"/>
							<polygon class="st2" points="1684.1,150.3 1686.8,146.4 1692.8,150.3 1690.1,154.2 							"/>
							<polygon class="st2" points="1716.1,171.2 1718.8,167.3 1724.8,171.2 1722.1,175.1 							"/>
							<polygon class="st4" points="1687.7,146.9 1691.2,141.9 1697.2,145.8 1693.7,150.9 							"/>
							<polygon class="st4" points="1713.8,176.5 1687.8,159.4 1691,154.8 1685,150.9 1677.8,161.4 1715.8,186.2 1723,175.7 
								1717,171.8 							"/>
							<polygon class="st4" points="1725.9,158.9 1729.9,153.1 1735.9,157 1731.8,162.8 							"/>
							<polygon class="st4" points="1719.7,167.9 1723.2,162.8 1729.2,166.7 1725.7,171.8 							"/>
							<polygon class="st4" points="1700.5,128.2 1703.3,124.2 1741.3,149.1 1738.5,153.1 							"/>
							<polygon class="st4" points="1693.8,138 1697.9,132.1 1703.8,136 1699.8,141.9 							"/>
							<polygon class="st4" points="1698.2,126.7 1695.6,130.6 1701.5,134.5 1702.9,132.5 1729,149.5 1727.6,151.6 1733.6,155.5 
								1736.2,151.6 							"/>
							<polygon class="st4" points="1724.6,163.8 1727.3,159.9 1733.3,163.8 1730.6,167.7 							"/>
							<polygon class="st4" points="1692.6,142.8 1695.3,138.9 1701.3,142.8 1698.6,146.7 							"/>
							<polygon class="st4" points="1682.3,149.1 1685,145.2 1691,149.1 1688.3,153 							"/>
							<polygon class="st4" points="1714.3,170 1717,166.1 1723,170.1 1720.3,174 							"/>
							<polygon class="st3" points="314.1,1020.9 321.1,1019.1 322.6,1025.1 315.6,1026.8 							"/>
							<polygon class="st3" points="355.5,1027.6 325.2,1035 323.8,1029.6 316.8,1031.3 320,1043.6 364.3,1032.7 361.1,1020.4 
								354.2,1022.2 							"/>
							<polygon class="st3" points="348.5,1000.3 355.5,998.6 357.3,1005.4 350.3,1007.1 							"/>
							<polygon class="st3" points="351.5,1011.7 358.4,1010 360,1015.9 353,1017.6 							"/>
							<polygon class="st3" points="308.8,1000.2 353.1,989.3 354.3,994 310,1004.9 							"/>
							<polygon class="st3" points="311.2,1009.5 318.2,1007.7 319.9,1014.6 312.9,1016.3 							"/>
							<polygon class="st3" points="307.3,1005.6 308.5,1010.1 315.5,1008.4 314.9,1006 345.2,998.6 345.8,1000.9 352.8,999.2 
								351.7,994.7 							"/>
							<polygon class="st3" points="352,1006.7 359,1005 360.1,1009.5 353.1,1011.3 							"/>
							<polygon class="st3" points="314.6,1015.9 321.6,1014.2 322.8,1018.7 315.8,1020.4 							"/>
							<polygon class="st3" points="312.5,1027.6 319.5,1025.8 320.6,1030.4 313.7,1032.1 							"/>
							<polygon class="st3" points="349.8,1018.4 356.8,1016.7 358,1021.2 351,1022.9 							"/>
							<polygon class="st2" points="318.5,1019.8 325.5,1018.1 327,1024 320,1025.7 							"/>
							<polygon class="st2" points="359.9,1026.5 329.6,1034 328.2,1028.5 321.2,1030.3 324.4,1042.5 368.7,1031.6 365.5,1019.4 
								358.6,1021.1 							"/>
							<polygon class="st2" points="352.9,999.2 359.9,997.5 361.7,1004.3 354.7,1006 							"/>
							<polygon class="st2" points="355.9,1010.6 362.9,1008.9 364.4,1014.8 357.4,1016.5 							"/>
							<polygon class="st2" points="313.2,999.2 357.5,988.3 358.7,992.9 314.4,1003.8 							"/>
							<polygon class="st2" points="315.6,1008.4 322.6,1006.7 324.3,1013.5 317.3,1015.2 							"/>
							<polygon class="st2" points="311.7,1004.5 312.9,1009 319.9,1007.3 319.3,1004.9 349.6,997.5 350.2,999.9 357.2,998.1 
								356.1,993.6 							"/>
							<polygon class="st2" points="356.4,1005.6 363.4,1003.9 364.5,1008.5 357.5,1010.2 							"/>
							<polygon class="st2" points="319,1014.8 326,1013.1 327.2,1017.6 320.2,1019.4 							"/>
							<polygon class="st2" points="316.9,1026.5 323.9,1024.8 325,1029.3 318.1,1031 							"/>
							<polygon class="st2" points="354.2,1017.3 361.2,1015.6 362.4,1020.1 355.4,1021.8 							"/>
							<polygon class="st4" points="316.4,1020.3 323.4,1018.6 324.9,1024.5 317.9,1026.2 							"/>
							<polygon class="st4" points="357.9,1027 327.5,1034.5 326.1,1029.1 319.1,1030.8 322.3,1043 366.6,1032.1 363.4,1019.9 
								356.5,1021.6 							"/>
							<polygon class="st4" points="350.8,999.7 357.8,998 359.6,1004.8 352.6,1006.6 							"/>
							<polygon class="st4" points="353.8,1011.1 360.8,1009.4 362.3,1015.3 355.3,1017 							"/>
							<polygon class="st4" points="311.1,999.7 355.5,988.8 356.7,993.4 312.3,1004.3 							"/>
							<polygon class="st4" points="313.5,1008.9 320.5,1007.2 322.2,1014 315.2,1015.7 							"/>
							<polygon class="st4" points="309.6,1005 310.8,1009.6 317.8,1007.8 317.2,1005.5 347.5,998 348.1,1000.4 355.1,998.7 
								354,994.1 							"/>
							<polygon class="st4" points="354.3,1006.1 361.3,1004.4 362.4,1009 355.4,1010.7 							"/>
							<polygon class="st4" points="316.9,1015.3 323.9,1013.6 325.1,1018.2 318.1,1019.9 							"/>
							<polygon class="st4" points="314.8,1027 321.8,1025.3 322.9,1029.8 316,1031.5 							"/>
							<polygon class="st4" points="352.1,1017.8 359.1,1016.1 360.3,1020.6 353.3,1022.4 							"/>
							<polygon class="st3" points="382,139.2 385.4,135.1 390.2,139 386.8,143 							"/>
							<polygon class="st3" points="401.8,166.6 381.1,149.9 384.2,146.1 379.4,142.3 372.3,150.7 402.7,175.1 409.7,166.7 
								404.9,162.9 							"/>
							<polygon class="st3" points="413.6,152.6 417.5,147.9 422.3,151.7 418.4,156.4 							"/>
							<polygon class="st3" points="407.6,159.7 411,155.7 415.8,159.5 412.3,163.6 							"/>
							<polygon class="st3" points="394.6,124.2 397.3,121 427.6,145.4 424.9,148.6 							"/>
							<polygon class="st3" points="388,132 392,127.3 396.8,131.2 392.8,135.9 							"/>
							<polygon class="st3" points="392.8,122.7 390.1,125.9 394.9,129.7 396.3,128.1 417.1,144.8 415.7,146.4 420.5,150.3 
								423.1,147.1 							"/>
							<polygon class="st3" points="412.1,156.6 414.7,153.5 419.5,157.3 416.9,160.5 							"/>
							<polygon class="st3" points="386.6,136.1 389.2,132.9 394,136.8 391.4,139.9 							"/>
							<polygon class="st3" points="377.2,140.6 379.9,137.5 384.6,141.3 382,144.4 							"/>
							<polygon class="st3" points="402.8,161.1 405.4,158 410.2,161.9 407.6,165 							"/>
							<polygon class="st2" points="385,141.6 388.4,137.6 393.2,141.4 389.8,145.5 							"/>
							<polygon class="st2" points="404.8,169 384.1,152.3 387.2,148.6 382.4,144.7 375.3,153.1 405.7,177.5 412.7,169.1 408,165.3 
															"/>
							<polygon class="st2" points="416.6,155 420.5,150.3 425.3,154.2 421.4,158.8 							"/>
							<polygon class="st2" points="410.6,162.2 414,158.1 418.8,162 415.4,166 							"/>
							<polygon class="st2" points="397.6,126.6 400.3,123.5 430.6,147.8 427.9,151 							"/>
							<polygon class="st2" points="391.1,134.4 395,129.8 399.8,133.6 395.8,138.3 							"/>
							<polygon class="st2" points="395.8,125.2 393.2,128.3 397.9,132.1 399.3,130.5 420.1,147.2 418.7,148.8 423.5,152.7 
								426.1,149.6 							"/>
							<polygon class="st2" points="415.1,159 417.8,155.9 422.5,159.8 419.9,162.9 							"/>
							<polygon class="st2" points="389.6,138.5 392.2,135.4 397,139.2 394.4,142.3 							"/>
							<polygon class="st2" points="380.2,143 382.9,139.9 387.7,143.7 385,146.8 							"/>
							<polygon class="st2" points="405.8,163.5 408.4,160.4 413.2,164.3 410.6,167.4 							"/>
							<polygon class="st4" points="383.6,140.5 387,136.4 391.8,140.2 388.4,144.3 							"/>
							<polygon class="st4" points="403.4,167.8 382.6,151.1 385.7,147.4 381,143.6 373.9,152 404.2,176.4 411.3,168 406.5,164.1 
															"/>
							<polygon class="st4" points="415.2,153.8 419.1,149.2 423.9,153 420,157.7 							"/>
							<polygon class="st4" points="409.1,161 412.5,157 417.3,160.8 413.9,164.8 							"/>
							<polygon class="st4" points="396.2,125.5 398.9,122.3 429.2,146.7 426.5,149.9 							"/>
							<polygon class="st4" points="389.6,133.3 393.6,128.6 398.3,132.5 394.4,137.1 							"/>
							<polygon class="st4" points="394.3,124 391.7,127.1 396.5,131 397.9,129.3 418.6,146 417.3,147.7 422,151.5 424.7,148.4 
															"/>
							<polygon class="st4" points="413.7,157.9 416.3,154.8 421.1,158.6 418.5,161.7 							"/>
							<polygon class="st4" points="388.1,137.3 390.8,134.2 395.6,138.1 392.9,141.2 							"/>
							<polygon class="st4" points="378.8,141.8 381.4,138.7 386.2,142.6 383.6,145.7 							"/>
							<polygon class="st4" points="404.4,162.4 407,159.3 411.8,163.1 409.1,166.2 							"/>
							<rect x="1894.8" y="419.6" class="st4" width="21.9" height="59.1"/>
							<rect x="1887.5" y="451.2" class="st3" width="11.5" height="11.2"/>
							<rect x="1941.7" y="505.2" class="st3" width="11.5" height="11.2"/>
							<rect x="1820.8" y="829.1" class="st4" width="11.5" height="11.2"/>
							<rect x="419.8" y="432.9" class="st2" width="52.1" height="5.1"/>
							<rect x="1344.8" y="728.2" class="st3" width="52.1" height="5.1"/>
							<rect x="61.5" y="770" class="st3" width="5.2" height="5.1"/>
							<rect x="93.8" y="748.6" class="st3" width="52.1" height="5.1"/>
							<rect x="1650" y="700.7" class="st2" width="36.5" height="5.1"/>
							<rect x="1665.6" y="841.3" class="st2" width="52.1" height="5.1"/>
							<rect x="1415.6" y="450.2" class="st3" width="52.1" height="5.1"/>
							<rect x="451" y="676.3" class="st3" width="52.1" height="5.1"/>
							<rect x="1469.8" y="1034.8" class="st3" width="52.1" height="5.1"/>
							<rect x="1388.5" y="965.6" class="st2" width="52.1" height="5.1"/>
							<rect x="1238.5" y="526.6" class="st3" width="29.2" height="5.1"/>
							<rect x="1326" y="419.6" class="st2" width="29.2" height="5.1"/>
							<rect x="1725" y="841.3" class="st2" width="12.5" height="5.1"/>
							<rect x="402.1" y="432.9" class="st2" width="12.5" height="5.1"/>
							<rect x="1680.2" y="878" class="st2" width="12.5" height="5.1"/>
							<rect x="433.3" y="676.3" class="st3" width="12.5" height="5.1"/>
							<rect x="1399" y="973.7" class="st3" width="12.5" height="5.1"/>
							<rect x="1680.2" y="911.6" class="st3" width="12.5" height="5.1"/>
							<rect x="1413.5" y="922.8" class="st3" width="12.5" height="5.1"/>
							<rect x="458.3" y="741.5" class="st3" width="12.5" height="5.1"/>
						</g>
						<rect x="1228.1" y="741.5" class="st5" width="36.5" height="35.6"/>
						<rect x="1228.1" y="705.8" class="st5" width="36.5" height="35.6"/>
						<rect x="1228.1" y="670.2" class="st5" width="36.5" height="35.6"/>
						<rect x="1190.6" y="777.1" class="st5" width="36.5" height="35.6"/>
						<rect x="1190.6" y="741.5" class="st5" width="36.5" height="35.6"/>
						<rect x="1190.6" y="705.8" class="st5" width="36.5" height="35.6"/>
						<rect x="1190.6" y="670.2" class="st5" width="36.5" height="35.6"/>
						<rect x="1190.6" y="634.5" class="st5" width="36.5" height="35.6"/>
						<rect x="1154.2" y="812.8" class="st5" width="36.5" height="35.6"/>
						<rect x="1154.2" y="777.1" class="st5" width="36.5" height="35.6"/>
						<rect x="1154.2" y="741.5" class="st5" width="36.5" height="35.6"/>
						<rect x="1154.2" y="705.8" class="st5" width="36.5" height="35.6"/>
						<rect x="1154.2" y="670.2" class="st5" width="36.5" height="35.6"/>
						<rect x="1154.2" y="634.5" class="st5" width="36.5" height="35.6"/>
						<rect x="1154.2" y="598.9" class="st5" width="36.5" height="35.6"/>
						<rect x="1117.7" y="848.4" class="st5" width="36.5" height="35.6"/>
						<rect x="1117.7" y="812.8" class="st5" width="36.5" height="35.6"/>
						<rect x="1117.7" y="777.1" class="st5" width="36.5" height="35.6"/>
						<rect x="1117.7" y="741.5" class="st5" width="36.5" height="35.6"/>
						<rect x="1117.7" y="705.8" class="st5" width="36.5" height="35.6"/>
						<rect x="1117.7" y="670.2" class="st5" width="36.5" height="35.6"/>
						<rect x="1117.7" y="634.5" class="st5" width="36.5" height="35.6"/>
						<rect x="1117.7" y="598.9" class="st5" width="36.5" height="35.6"/>
						<rect x="1117.7" y="563.2" class="st5" width="36.5" height="35.6"/>
						<rect x="1081.2" y="884.1" class="st5" width="36.5" height="35.6"/>
						<rect x="1081.2" y="848.4" class="st5" width="36.5" height="35.6"/>
						<rect x="1081.2" y="812.8" class="st5" width="36.5" height="35.6"/>
						<rect x="1081.2" y="777.1" class="st5" width="36.5" height="35.6"/>
						<rect x="1081.2" y="741.5" class="st5" width="36.5" height="35.6"/>
						<rect x="1081.2" y="705.8" class="st5" width="36.5" height="35.6"/>
						<rect x="1081.2" y="670.2" class="st5" width="36.5" height="35.6"/>
						<rect x="1081.2" y="634.5" class="st5" width="36.5" height="35.6"/>
						<rect x="1081.2" y="598.9" class="st5" width="36.5" height="35.6"/>
						<rect x="1081.2" y="563.2" class="st5" width="36.5" height="35.6"/>
						<rect x="1044.8" y="919.7" class="st5" width="36.5" height="35.6"/>
						<rect x="1044.8" y="884.1" class="st5" width="36.5" height="35.6"/>
						<rect x="1044.8" y="848.4" class="st5" width="36.5" height="35.6"/>
						<rect x="1044.8" y="812.8" class="st5" width="36.5" height="35.6"/>
						<rect x="1044.8" y="777.1" class="st5" width="36.5" height="35.6"/>
						<rect x="1044.8" y="741.5" class="st5" width="36.5" height="35.6"/>
						<rect x="1044.8" y="705.8" class="st5" width="36.5" height="35.6"/>
						<rect x="1044.8" y="670.2" class="st5" width="36.5" height="35.6"/>
						<rect x="1044.8" y="634.5" class="st5" width="36.5" height="35.6"/>
						<rect x="1044.8" y="598.9" class="st5" width="36.5" height="35.6"/>
						<rect x="1044.8" y="563.2" class="st5" width="36.5" height="35.6"/>
						<rect x="1008.3" y="955.4" class="st5" width="36.5" height="35.6"/>
						<rect x="1008.3" y="919.7" class="st5" width="36.5" height="35.6"/>
						<rect x="1008.3" y="884.1" class="st5" width="36.5" height="35.6"/>
						<rect x="1008.3" y="848.4" class="st5" width="36.5" height="35.6"/>
						<rect x="1008.3" y="812.8" class="st5" width="36.5" height="35.6"/>
						<rect x="1008.3" y="777.1" class="st5" width="36.5" height="35.6"/>
						<rect x="1008.3" y="741.5" class="st5" width="36.5" height="35.6"/>
						<rect x="1008.3" y="705.8" class="st5" width="36.5" height="35.6"/>
						<rect x="1008.3" y="670.2" class="st5" width="36.5" height="35.6"/>
						<rect x="1008.3" y="634.5" class="st5" width="36.5" height="35.6"/>
						<rect x="1008.3" y="598.9" class="st5" width="36.5" height="35.6"/>
						<rect x="971.9" y="991" class="st5" width="36.5" height="35.6"/>
						<rect x="971.9" y="955.4" class="st5" width="36.5" height="35.6"/>
						<rect x="971.9" y="919.7" class="st5" width="36.5" height="35.6"/>
						<rect x="971.9" y="884.1" class="st5" width="36.5" height="35.6"/>
						<rect x="971.9" y="848.4" class="st5" width="36.5" height="35.6"/>
						<rect x="971.9" y="812.8" class="st5" width="36.5" height="35.6"/>
						<rect x="971.9" y="777.1" class="st5" width="36.5" height="35.6"/>
						<rect x="971.9" y="741.5" class="st5" width="36.5" height="35.6"/>
						<rect x="971.9" y="705.8" class="st5" width="36.5" height="35.6"/>
						<rect x="971.9" y="670.2" class="st5" width="36.5" height="35.6"/>
						<rect x="971.9" y="634.5" class="st5" width="36.5" height="35.6"/>
						<rect x="935.4" y="955.4" class="st5" width="36.5" height="35.6"/>
						<rect x="935.4" y="919.7" class="st5" width="36.5" height="35.6"/>
						<rect x="935.4" y="884.1" class="st5" width="36.5" height="35.6"/>
						<rect x="935.4" y="848.4" class="st5" width="36.5" height="35.6"/>
						<rect x="935.4" y="812.8" class="st5" width="36.5" height="35.6"/>
						<rect x="935.4" y="777.1" class="st5" width="36.5" height="35.6"/>
						<rect x="935.4" y="741.5" class="st5" width="36.5" height="35.6"/>
						<rect x="935.4" y="705.8" class="st5" width="36.5" height="35.6"/>
						<rect x="935.4" y="670.2" class="st5" width="36.5" height="35.6"/>
						<rect x="935.4" y="634.5" class="st5" width="36.5" height="35.6"/>
						<rect x="935.4" y="598.9" class="st5" width="36.5" height="35.6"/>
						<rect x="899" y="919.7" class="st5" width="36.5" height="35.6"/>
						<rect x="899" y="884.1" class="st5" width="36.5" height="35.6"/>
						<rect x="899" y="848.4" class="st5" width="36.5" height="35.6"/>
						<rect x="899" y="812.8" class="st5" width="36.5" height="35.6"/>
						<rect x="899" y="777.1" class="st5" width="36.5" height="35.6"/>
						<rect x="899" y="741.5" class="st5" width="36.5" height="35.6"/>
						<rect x="899" y="705.8" class="st5" width="36.5" height="35.6"/>
						<rect x="899" y="670.2" class="st5" width="36.5" height="35.6"/>
						<rect x="899" y="634.5" class="st5" width="36.5" height="35.6"/>
						<rect x="899" y="598.9" class="st5" width="36.5" height="35.6"/>
						<rect x="899" y="563.2" class="st5" width="36.5" height="35.6"/>
						<rect x="862.5" y="884.1" class="st5" width="36.5" height="35.6"/>
						<rect x="862.5" y="848.4" class="st5" width="36.5" height="35.6"/>
						<rect x="862.5" y="812.8" class="st5" width="36.5" height="35.6"/>
						<rect x="862.5" y="777.1" class="st5" width="36.5" height="35.6"/>
						<rect x="862.5" y="741.5" class="st5" width="36.5" height="35.6"/>
						<rect x="862.5" y="705.8" class="st5" width="36.5" height="35.6"/>
						<rect x="862.5" y="670.2" class="st5" width="36.5" height="35.6"/>
						<rect x="862.5" y="634.5" class="st5" width="36.5" height="35.6"/>
						<rect x="862.5" y="598.9" class="st5" width="36.5" height="35.6"/>
						<rect x="862.5" y="563.2" class="st5" width="36.5" height="35.6"/>
						<rect x="826" y="848.4" class="st5" width="36.5" height="35.6"/>
						<rect x="826" y="812.8" class="st5" width="36.5" height="35.6"/>
						<rect x="826" y="777.1" class="st5" width="36.5" height="35.6"/>
						<rect x="826" y="741.5" class="st5" width="36.5" height="35.6"/>
						<rect x="826" y="705.8" class="st5" width="36.5" height="35.6"/>
						<rect x="826" y="670.2" class="st5" width="36.5" height="35.6"/>
						<rect x="826" y="634.5" class="st5" width="36.5" height="35.6"/>
						<rect x="826" y="598.9" class="st5" width="36.5" height="35.6"/>
						<rect x="826" y="563.2" class="st5" width="36.5" height="35.6"/>
						<rect x="789.6" y="812.8" class="st5" width="36.5" height="35.6"/>
						<rect x="789.6" y="777.1" class="st5" width="36.5" height="35.6"/>
						<rect x="789.6" y="741.5" class="st5" width="36.5" height="35.6"/>
						<rect x="789.6" y="705.8" class="st5" width="36.5" height="35.6"/>
						<rect x="789.6" y="670.2" class="st5" width="36.5" height="35.6"/>
						<rect x="789.6" y="634.5" class="st5" width="36.5" height="35.6"/>
						<rect x="789.6" y="598.9" class="st5" width="36.5" height="35.6"/>
						<rect x="753.1" y="777.1" class="st5" width="36.5" height="35.6"/>
						<rect x="753.1" y="741.5" class="st5" width="36.5" height="35.6"/>
						<rect x="753.1" y="705.8" class="st5" width="36.5" height="35.6"/>
						<rect x="753.1" y="670.2" class="st5" width="36.5" height="35.6"/>
						<rect x="753.1" y="634.5" class="st5" width="36.5" height="35.6"/>
						<rect x="716.7" y="741.5" class="st5" width="36.5" height="35.6"/>
						<rect x="716.7" y="705.8" class="st5" width="36.5" height="35.6"/>
						<rect x="716.7" y="670.2" class="st5" width="36.5" height="35.6"/>
					</g>
				</g>
			</g>
		</g>
	</g>
</g>
</svg>
