<?xml version="1.0" encoding="utf-8"?>
<!-- Generator: Adobe Illustrator 28.1.0, SVG Export Plug-In . SVG Version: 6.00 Build 0)  -->
<svg version="1.1" id="Capa_2_00000129189991677308004650000010927974108206426274_"
	 xmlns="http://www.w3.org/2000/svg" xmlns:xlink="http://www.w3.org/1999/xlink" x="0px" y="0px" viewBox="0 0 1740.6 877.8"
	 style="enable-background:new 0 0 1740.6 877.8;" xml:space="preserve">
<style type="text/css">
	.st0{fill:#2B2547;}
	.st1{fill:#4AA4A9;}
	.st2{fill:none;}
	.st3{fill:#744339;}
	.st4{fill:#FFFFFF;}
	.st5{fill:#B5487E;}
	.st6{fill:#AD8384;}
	.st7{fill:#723151;}
	.st8{fill:#D9830B;}
</style>
<g id="Capa_1-2">
	<g>
		<g>
			<path class="st0" d="M1593.8,413.9c3.6-0.4,10.8,4.2,13.9,5.8c12.2,6,21.5,14.4,25.7,27.5c5.3,16.7,7.5,34.5,10.4,51.7
				c0,10.9,4,23.1,5.8,33.8c1.9,10.9,3.7,21.8,5.5,32.7c3.8,23.2,7.3,46.4,10.8,69.6c0.2,1,0.3,2,0.4,3.1
				c0.9,6.2,63.5,121.2,63.3,124.1c-0.2,3-34.6,27.9-43.6,22.5c-9.1-5.3-8.6-50.7-8.6-50.7s-43.7-69.1-58.5-97.6
				c-14.8-28.6-40.3-195.3-38.5-209.9C1580.5,426.5,1579.8,415.4,1593.8,413.9L1593.8,413.9z"/>
			<g>
				<polygon class="st0" points="1710.1,496.2 1655.5,496.2 1686.1,410.2 1740.6,410.2 				"/>
				<polygon class="st1" points="1651.3,496.2 1655.5,496.2 1686.1,410.2 1681.9,410.2 				"/>
				<path class="st0" d="M1728.6,421.5h-3.8c-2.1,0-3.3-1.5-2.7-3.3l0,0c0.7-1.8,2.9-3.3,5-3.3h3.8c2.1,0,3.3,1.5,2.7,3.3l0,0
					C1733,420.1,1730.7,421.5,1728.6,421.5z"/>
				<path class="st0" d="M1728.6,421.5h-11.4c-2.1,0-3.3-1.5-2.7-3.3l0,0c0.7-1.8,2.9-3.3,5-3.3h11.4c2.1,0,3.3,1.5,2.7,3.3l0,0
					C1733,420.1,1730.7,421.5,1728.6,421.5z"/>
				<polygon class="st0" points="1730.3,419.1 1724.8,419.1 1725.4,417.4 1730.9,417.4 				"/>
			</g>
			<g>
				<path class="st0" d="M1653.4,651.5c-16.5,5.5-34.2,7.4-51.7,8.5c-18.3,1.2-36.6,1.5-54.8-0.2c-19.5-1.8-38.7-6-57.2-12.5
					c-2,8.9-68.6,78.2-65.8,133.9c2.8,56.2,15.1,96.7,15.1,96.7l238.4-0.1C1677.5,877.8,1659.4,720,1653.4,651.5L1653.4,651.5z"/>
				<path class="st0" d="M1590.4,623c20.7-1,41.5-4.4,61-11.3c0.4-35.9,6.8-67.1,2.3-93.6c-5.2-30.4-80.5-107.8-80.5-107.8
					l-74.5-7.1c0,0-78.4,58.7-74.7,85.5s36.7,77.4,46.5,101.7c3,7.3,5.9,14.7,8.7,21.7c9.6,2.9,19.6,4.4,29.5,5.8
					C1535.8,621.5,1563.1,624.3,1590.4,623L1590.4,623z"/>
				<path class="st0" d="M1601.7,660c17.4-1.1,35.2-3.1,51.7-8.5c-0.9-10-1.5-18.1-1.8-23.5c-0.3-5.5-0.3-11-0.3-16.3
					c-19.5,7-40.3,10.4-61,11.3c-27.3,1.3-54.6-1.6-81.6-5.3c-9.9-1.4-19.9-2.9-29.5-5.8c6.2,16,11,29.7,10.6,35.1
					c0,0.1,0,0.2-0.1,0.3c18.5,6.4,37.7,10.7,57.2,12.5C1565.1,661.5,1583.5,661.2,1601.7,660L1601.7,660z"/>
			</g>
			<path class="st0" d="M1627.5,277.3c0.9,13.2-0.5,26.5-1.9,39.7c-1,9.1-1.9,18.1-3.3,27.2c-1.5,9.9-7.1,23.7-11.6,32.6
				c-10.6,21-32.1,29.6-55.2,25.3c0.9,17.1,2.6,51.4,2.6,51.4l-66.1-45.2c0,0,3-26.2,1.2-40.4c-3.1-24.6-11.7-45.4-12.9-63.4
				c-0.5-7.5-0.3-15.2,1.6-22.5c5.2-19.7,22.7-34.3,42-41c19.3-6.6,40.2-6.5,60.5-5.3c7.2,0.4,14.4,1,21.2,3.2
				c6.8,2.3,13.2,6.4,16.8,12.6C1626.3,258.1,1627,269.8,1627.5,277.3L1627.5,277.3z"/>
			<path class="st0" d="M1508.2,219.9c-14.4,6.8-27.2,17.4-35.7,31c-8.5,13.5-12.5,30-10.3,45.8c3.6,25.8,22.4,46.8,31,71.4
				c1.8-0.6,2.1-1.2,3.3-2.6c4.2-5.2,7.6-11.1,9.9-17.5c-1.3,0.5-3.2-0.1-4.6-0.5c-5.8-1.5-10.5-6.1-12.6-11.7s-2-11.9-0.2-17.5
				c1.3-4.3,4-8.6,8.3-9.9c3.8-1.1,7.9,0.5,10.6,3.4c2.7,2.8,4.1,6.6,4.9,10.5c5.1-2.6,8.5-6.1,10.7-11.5c2.2-5.3,2.9-11.2,2.9-17
				c0-3.7-0.3-7.5-1.8-10.9c10.9,5,23.3,4.7,35,1.9c11.7-2.8,22.5-9.5,30.1-18.9c-0.8,7.6-4.6,14.6-9.8,20.1
				c13.5,2,27.7-1.9,38.3-10.5c3.4-2.8,4.9-6.1,6.6-10.1c1.9,8.3,3.2,16.3,2.4,24.8c3.2-2.2,6.3-4.6,8.8-7.6s4.4-6.6,4.7-10.5
				c0.1,6-1,11.9-3.3,17.5c12.8-8.8,22.2-22.2,22.9-37.7s-8.7-31.6-23.4-36.4c-13.5-4.5-28,0.6-41.3,5.5
				C1567.5,210.7,1535.1,207.2,1508.2,219.9L1508.2,219.9z"/>
			<path class="st0" d="M1480.3,242.2c-5.1-3.1-10.8-6.3-16.7-5.1c-4.7,0.9-8.5,4.6-10.6,8.9c-2.1,4.3-2.8,9.1-3.1,13.9
				c-1.8,23.7,3.1,47.3,4.2,71.1c0.4,10.5,0.1,21.1-2.9,31.1c-5.4,17.9-19.8,32.9-37.7,38.4c-17.8,5.5-41.3,2.4-55.1-10.2
				c25.8-11.5,45.2-38.5,46.7-66.7c-1.5,15-15.7,27.5-30.8,27.2c9.8-3,15.5-13.3,18.4-23.1c8.5-28,3.7-58.4,8.2-87.4
				c1.1-6.6,2.6-13.3,6-19.1c8.5-14.6,27.5-20.9,43.9-17.4s30.2,15.6,39,29.9"/>
			<path class="st0" d="M1600,445.6c18.3,19.3,36.9,39.2,47.8,63.5"/>
			<path class="st0" d="M1615.4,769.6c-4.7,9.5-16.9,13.3-21.8,22.7c-1.8,3.4-2.4,7.3-3,11.1c-4,24.8-7.9,49.7-11.9,74.5"/>
			<g>
				<path class="st0" d="M1459.8,558.6c14.8,24.2,38.3,41.3,60,59.7c19.1,16.2,37.5,30.5,60.2,41.3c12.4-13.6,24.3-24.3,35.5-39
					c24.9-32.5,46.7-67.4,64.8-104.1c3.6-0.6,6-0.5,9.6-1.1c5.8-0.9,11.7-2,16.6-5.2s8.2-9.5,6.4-15c2.9-0.4,5.1-2.9,6.1-5.6
					c0.9-2.8,0.8-5.7,0.5-8.6c8.6-5.4,11.1-18.4,5.2-26.6c-17.6,9-60.3,5.8-60.3,5.8s2.1-6.8,3.5-10c-5.6-0.6-10,3.6-13.1,8.3
					c-3.1,4.7-4.3,10.3-5.2,15.9c-1.8,11.6-1.4,35-1.4,35l-76.9,91.2c0,0-49-63.9-74.8-95.3C1477.7,517.3,1462.6,536.4,1459.8,558.6
					L1459.8,558.6z"/>
				<line class="st2" x1="1496.5" y1="505.1" x2="1464.4" y2="467.8"/>
				<path class="st0" d="M1519.8,618.2c0,0,46.3,45.1,60.2,41.3c13.9-3.8,35.5-39,35.5-39"/>
				<path class="st0" d="M1571.3,600.2c-5.3,5.7-9.7,12.2-12.8,19.3"/>
				<path class="st0" d="M1664.1,546.1c-3.8,7.2-7.6,14.3-11.4,21.4"/>
			</g>
			<path class="st0" d="M1555.6,402.4c0,0-12.4-3.5-20.8-11.5c-8.4-8-12.2-13.4-12.2-13.4s4.4,14.9,14.9,24.9s18.8,12.4,18.8,12.4
				L1555.6,402.4z"/>
			<path class="st0" d="M1589.3,306.5c-0.1,8.6-0.2,17.2-0.4,25.8c0,0.7,0,1.5,0.3,2.1c0.3,0.5,0.7,0.9,1.2,1.3
				c2.9,2.4,5.9,4.4,9.2,6.2c-2.7,4.9-6.7,9.1-11.4,12.2"/>
			<path class="st0" d="M1570.1,326.4c-1.2,3.4-3.7,5.6-5.5,4.9c-1.8-0.7-2.4-3.9-1.2-7.3c1.2-3.4,3.7-5.6,5.5-4.9
				C1570.8,319.7,1571.3,323,1570.1,326.4z"/>
			<path class="st0" d="M1610.2,326.4c-1.2,3.4-3.7,5.6-5.5,4.9c-1.8-0.7-2.4-3.9-1.2-7.3c1.2-3.4,3.7-5.6,5.5-4.9
				C1610.9,319.7,1611.4,323,1610.2,326.4z"/>
			<path class="st0" d="M1551.9,313.8c2-4.4,5.4-8.1,9.6-10.5c4.2-2.3,9.2-3.2,14-2.5"/>
			<path class="st0" d="M1618.9,313.8c-2-4.4-5.4-8.1-9.6-10.5c-4.2-2.3-9.2-3.2-14-2.5"/>
			<g>
				<path class="st0" d="M1570.8,364.7c3.4,4.9,8.7,10.5,15.3,10.5c0.2,0,0.4,0,0.5,0C1583.2,369.6,1577.2,365.8,1570.8,364.7z"/>
				<path class="st0" d="M1605.4,356c0,0-7.7,9.6-17.6,9.7s-21.1-8.1-21.1-8.1s1.5,3.4,4.1,7.1c6.4,1,12.4,4.9,15.8,10.5
					C1598,374.6,1605.4,356,1605.4,356L1605.4,356z"/>
			</g>
			<g>
				<path class="st0" d="M1524.9,282.7c-6.9-2.5-13.1-6.9-17.8-12.5"/>
				<path class="st0" d="M1614,232.7c4.6,0.3,8.6,3.8,10.6,8s2.3,9,2.1,13.6c-0.3,6.2-1.7,12.9-6.6,16.6"/>
			</g>
			<path class="st0" d="M1493.1,320.5c0-2.7,1.9-5.3,4.5-6.1s5.6,0.2,7.2,2.4c1,1.4,1.4,3,1.6,4.7c0.4,3.3,0.2,6.6,0,9.9
				c-0.9-0.8-1.8-1.5-2.9-1.8s-2.4-0.2-3.3,0.5c-0.9,0.8-1.2,2.1-1,3.3c0.2,1.2,0.9,2.3,1.5,3.3c1.1,1.7,2.5,3.3,4.4,4"/>
			<path class="st0" d="M1620.5,652c0.9-2.5,1.8-5,2.8-7.6"/>
			<path class="st0" d="M1512.8,347.9c0,3.5-2.8,6.3-6.3,6.3s-6.3-2.8-6.3-6.3s2.8-6.3,6.3-6.3S1512.8,344.4,1512.8,347.9z"/>
			<path class="st3" d="M1626.2,312.4c0,0,0.3,109.6-72.2,88C1554,400.4,1624.1,397.7,1626.2,312.4L1626.2,312.4z"/>
			<path class="st4" d="M1504,417.4c0,0,57.1,44.3,58.8,43.1c1.7-1.2,0-39,0-39s-1.2-11-4-11.3l-2.8-0.3c0,0,6.2,43.1,4.9,43.3
				S1502.2,409.3,1504,417.4L1504,417.4z"/>
			<path class="st3" d="M1544.5,328.6C1544.5,328.6,1544.5,328.5,1544.5,328.6c0.2-0.3,0.5-0.3,0.8-0.4c5.7-0.6,28.1-5.3,30.2,3.1
				c1.1,4.3-2.1,8.9-5.5,11.3c-5.6,3.9-13.4,0.7-18.4-2.9C1549.6,338.1,1542.8,331.7,1544.5,328.6L1544.5,328.6z"/>
			<path class="st5" d="M1566.7,409.9c0.9,0.4,28.3,2.5,31.1,5.8s20.8,44.5,14.9,70.7c0,0-12.7-53.8-32.3-60s-21.6-16.2-21.6-16.2
				S1562.8,408.2,1566.7,409.9L1566.7,409.9z"/>
			<path class="st3" d="M1602.1,417.4c0,0,26,6.1,36.4,43.1c0,0-28.1-31.5-31.5-32.3L1602.1,417.4L1602.1,417.4z"/>
			<path class="st0" d="M1728.6,759.5c0,0,1.7,16.8,1.1,23c-0.7,6.2-2,18.2-6,22.2s-11.6,9.8-11.6,9.8s-8.4,0.3,4.4-14.7
				c0,0,3.4-11.4,3.1-14.4s-5.3-11.8-4.4-15.8C1716.1,765.5,1725.1,755.1,1728.6,759.5L1728.6,759.5z"/>
			<path class="st0" d="M1718.4,765.2c0,0,1.7,16.8,1.1,23c-0.7,6.2-2,18.2-6,22.2s-11.6,9.8-11.6,9.8s-8.4,0.3,4.4-14.7
				c0,0,3.4-11.4,3.1-14.4c-0.4-3-5.3-11.8-4.4-15.8C1705.9,771.3,1714.9,760.9,1718.4,765.2L1718.4,765.2z"/>
			<path class="st0" d="M1696.8,779.9l3.7,15.9c0,0-11.7,24.4-6.9,24.4s13.4-23.4,14.5-24.4s-3.4-21.9-3.4-21.9L1696.8,779.9
				L1696.8,779.9z"/>
			<path class="st0" d="M1686.8,780.7v12.6c0,2.9-6.7,24.3-1.8,21.2c4.9-3.1,7.5-16.7,7.5-16.7s0.8-18.4,0-19.3
				S1686.8,780.7,1686.8,780.7L1686.8,780.7z"/>
		</g>
		<g>
			<polygon class="st0" points="394.1,878.2 48.7,877.8 55.3,767.4 369,737.2 			"/>
			<path class="st0" d="M64,338.4c0,0-35.1,22.3-41.6,59C15.9,434.1,8,559,8,559l72.9-2.2L64,338.4L64,338.4z"/>
			<path class="st0" d="M238.2,278.3c-5.9-3.3-11.8-6.5-17.7-9.8c-1.9-1-24.1-62.6-28.7-100.7c-1.6-13.1,4.8-50.5-0.6-62.4
				c-5.5-12-14-22.8-25.3-29.4c-7.7-4.5-16.5-6.9-25.4-8.2c-27.9-4.2-58.2,2.3-79.2,21.1c-10,8.9-18.1,21.6-16.2,34.9
				c2.5,17.2,5,34.4,7.4,51.6c2.6,17.9,5.2,35.8,10.6,53c3.6,11.2,8.7,22.6,18,29.8c8.3,6.4,19.1,8.9,29.6,8.8s14.3-1,24.5-3.4
				c0.4,7.1,0.9,14.8,1.3,22c0.1,2.1,0.2,4.3-0.4,6.3c-0.6,1.8-1.8,3.3-3.1,4.7c-3.5,3.8-7.7,7-12.4,9.4
				c6.3,17.1,21.6,33.2,39.8,35.1c10.9,1.1,21.9-2.4,31.6-7.5C213.5,322.2,230.2,301.3,238.2,278.3L238.2,278.3z"/>
			<path class="st6" d="M114.2,189.6c0,0,33.8-9.2,34-3.1s-31.7,34.1-32,22.8C115.9,197.9,114.2,189.6,114.2,189.6L114.2,189.6z"/>
			<path class="st0" d="M184.2,184.2l-15.6,1l-3.3-53.9c-6.3,0.9-13.2,1-18.8-2.1c-5.9-3.2-9.5-10.2-8.8-16.9
				c-4.3,2.3-10,3.4-14.8,3.1c-4.1-0.3-8.1-2.3-10.7-5.5s-3.9-7.4-3.5-11.5c0.9,4.4-1.1,8.4-3.8,12.1c-2.6,3.7-6.5,6.4-10.8,8
				c-2,0.8-4.1,1.3-6.2,1.1c-1.4-0.2-2.7-0.7-3.9-1.2c-2.3-0.9-4.5-1.8-6.5-3.2c-2-1.4-3.7-3.4-4.2-5.8c0.5,4.2-1.9,7.8-4.7,10.9
				c-2.8,3.1-6.7,5.2-10.7,6.5c-3.8,1.2-7.9,1.8-11.7,0.6l2.5,22.5c-4.9,3.8-12.7,4.9-18.7,3.4s-11.4-5.1-15.4-9.8
				c-4.3-4.9-7.2-11-7.8-17.5c-0.5-6.5,1.6-13.2,6.3-17.8C2.3,100.8-3,86.7,1.7,74.5s17.6-20.5,30.7-20.4
				c-2.3-11.7,1.5-23.8,11.2-30.6c9.8-6.8,23.5-7.2,33.7-1c3.2-11.8,12.6-20.6,24.7-22.2s25,5.3,30,16.4c4.8-11,17.3-16.7,29.1-14.1
				c11.7,2.5,20.9,14.1,20.7,26.1c9.6-6.7,23.2-4.9,31.9,2.9c8.7,7.7,11.2,21.6,5.7,31.9c6.1-2.9,13.3-0.8,17.7,4.4s6,12.2,6.1,18.9
				c0.1,3.2-0.1,6.4-1.3,9.4c-2.5,6.5-8.8,10.6-15.1,13.4c3.5,0.9,4.8,3.3,6.5,6.6c1.7,3.3,2.2,7,1.9,10.7
				c-0.3,4.6-1.8,9.3-4.8,12.9c-2.9,3.6-7.4,6.1-12,6.2c3.7,5.9,3.8,13.1,0.7,19.4s-8.7,11.1-15.1,14.1
				C197.7,182.3,191.2,183.8,184.2,184.2L184.2,184.2z"/>
			<g>
				
					<ellipse transform="matrix(0.2649 -0.9643 0.9643 0.2649 -23.3564 310.0936)" class="st0" cx="191.7" cy="170.4" rx="24.7" ry="17.4"/>
				<path class="st0" d="M202.7,165.3c0.9-3.4-0.6-7.2-3.5-9.1c-2.9-1.9-7.1-1.7-9.8,0.5c-1.6,1.4-2.7,3.3-3.5,5.2
					c-1.7,3.9-2.5,8.1-3.4,12.3c1.3-0.6,2.7-1.2,4.2-1.2s3,0.5,3.9,1.8c0.9,1.3,0.8,3.1,0.1,4.5c-0.7,1.4-1.8,2.5-3,3.5
					c-2,1.7-4.2,3.3-6.8,3.5"/>
				<path class="st0" d="M204.7,183.5c-2.8,6.5-9.2,11.3-16.3,12.1c-2.4,0.2-5,0-6.9-1.5"/>
			</g>
			<path class="st0" d="M172,207.2c0,0-0.6,21.8-8.7,34.3c-8,12.6-28.2,22-28.2,22l0.6,9.6c0,0,29.3-15.5,33.7-32.9
				C172,230.1,172,207.2,172,207.2L172,207.2z"/>
			<path class="st0" d="M86.3,155.4c-1.1,17.2-1.5,34.4-0.9,51.6c0,0.4,0,0.7,0.3,1c0.3,0.3,0.8,0.4,1.3,0.3
				c4.1-0.1,8.2-0.2,12.4-0.4"/>
			<path class="st0" d="M76.4,211.7c3.7,5.5,9,9.9,15,12.4c2.2,0.9,4.7,1.7,7.1,1.4c1.9-0.2,3.7-1,5.3-1.9
				c5.7-3.2,10.2-8.6,12.4-14.9"/>
			<path class="st0" d="M115.9,173.8c1.6,3.7,4.5,6,6.6,5.1c2-0.9,2.4-4.6,0.8-8.3c-1.6-3.7-4.5-6-6.6-5.1S114.3,170.1,115.9,173.8z
				"/>
			<path class="st0" d="M64.5,176.9c1.6,3.7,4.5,6,6.6,5.1c2-0.9,2.4-4.6,0.8-8.3c-1.6-3.7-4.5-6-6.6-5.1
				C63.3,169.5,62.9,173.2,64.5,176.9z"/>
			<g>
				<path class="st0" d="M138.5,153.6c-2.7-5.2-7.1-9.4-12.4-11.9c-5.3-2.5-11.3-3.2-17-1.9"/>
				<path class="st0" d="M53.8,158.7c2-5.4,5.9-10.2,10.8-13.3s10.9-4.5,16.7-4"/>
			</g>
			<path class="st0" d="M228.4,272.9c0,0,89.2,28.9,109.5,60.3s6.7,177.6,14.7,239.8c8,62.2,34.1,163.1,34.1,163.1
				s-71.8,38.5-156.2,47.8c-84.4,9.3-175.1-16.6-175.1-16.6l12.9-346.8L64,338.4l68.9-41.9c0,0,2.8,29.2,32.6,26.5
				S228.4,272.9,228.4,272.9L228.4,272.9z"/>
			<path class="st0" d="M115.7,307c0,0,12.2,41.9,50.6,39.5s83.7-65.9,83.7-65.9"/>
			<g>
				<polygon class="st0" points="53.9,433.5 131.2,428.8 92,310.3 14.7,315 				"/>
				<polygon class="st7" points="137.1,428.4 131.2,428.8 92,310.3 97.9,309.9 				"/>
				<path class="st0" d="M31.2,329.9l5.3-0.3c3-0.2,4.8-2.4,4-4.9l0,0c-0.8-2.5-4-4.4-7-4.2l-5.4,0.3c-3,0.2-4.8,2.4-4,4.9l0,0
					C25.1,328.2,28.2,330.1,31.2,329.9z"/>
				<path class="st0" d="M31.2,329.9l16.2-1c3-0.2,4.8-2.4,4-4.9l0,0c-0.8-2.5-4-4.4-7-4.2l-16.2,1c-3,0.2-4.8,2.4-4,4.9l0,0
					C25.1,328.2,28.2,330.1,31.2,329.9z"/>
				<polygon class="st0" points="28.8,326.7 36.7,326.2 35.9,323.8 28,324.3 				"/>
			</g>
			<g>
				<path class="st0" d="M323,576.3c2.1,0.9,39.9,24.3,39.9,24.3l-16.4-40.3L323,576.3L323,576.3z"/>
				<path class="st0" d="M343.7,571.8c-21.4,32.4-47.5,61.7-77,87C207.9,602.3,165.2,530.9,124,460.6c-9.7-2.2-19.4-4.3-29.1-6.5
					c-5.6-1.2-12.2-3.5-13.3-9.1c-1-5.2,3.5-10.3,2.5-15.5c-0.5-2.6-2.4-4.8-3.1-7.4c-0.6-2.4-0.2-5,1.2-7c0.8-1.1,1.8-2.2,2-3.5
					c0.1-1.2-0.6-2.4-1.2-3.5c-2.9-5.8-1.5-14.8,4.7-16.5c-5.7-5-11.5-10-17.2-15.1c-1.2-1-2.4-2.1-3.8-2.8c-1.7-0.9-3.7-1.3-5.5-2
					c-6-2.2-10.4-8.2-10.8-14.7c29.2,1.3,74.4,35.1,74.4,35.1l-6.7-20.9c0,0,33.4,25.5,41.6,70l107.1,116.2l15.7-50.2
					c0,0,21.7,13.2,34.8,27.8S343.7,571.8,343.7,571.8L343.7,571.8z"/>
				<path class="st0" d="M35.8,445.4c0,0-18.3-40-13.4-48c4.9-8,50.3-35.2,50.3-35.2l10,7.9l-30.2,22.2l41.6-6.2l-0.7,55.7
					l-24.1,4.9c0,0,6.8,114.8,1,151.3s-25.1,53.6-25.1,53.6S9.6,623,16,573.8C22.5,524.5,35.8,445.4,35.8,445.4L35.8,445.4z"/>
				<path class="st0" d="M328.4,322.6c0,0,44.5,29.2,58.5,83.4s-23.9,194.6-23.9,194.6s-35.8-51.7-55.6-68.2
					c-19.8-16.5-27.5-16.5-27.5-16.5L328.4,322.6L328.4,322.6z"/>
				<path class="st0" d="M294.9,591.9c-5.7-7.1-22.8-27-28-34.5"/>
				<line class="st2" x1="315.4" y1="374.5" x2="279.8" y2="515.8"/>
			</g>
			<path class="st0" d="M83.4,387.8c0,0,0.5,3.7-0.2,5.8c-0.8,2.1-2.4,3.9-3.4,5.9c-1.8,3.7-1.6,8.3,0.7,11.7
				c0.6,0.9,1.3,1.7,1.3,2.8c0,1-0.7,1.9-1.3,2.8c-3.1,4.8-2.4,11.7,1.6,15.7c0.5,0.5,1.1,1,1.2,1.7c0.1,0.7-0.2,1.3-0.6,1.9
				c-1.2,2.5-1.6,5.5-1.1,8.3"/>
			<g>
				<line class="st2" x1="82.5" y1="172.6" x2="97" y2="171.7"/>
				<line class="st2" x1="145.9" y1="168.7" x2="174.8" y2="166.9"/>
			</g>
			<path class="st0" d="M165.1,132c3.8,2.8,8.5,4.8,13.1,3.8c5.5-1.1,9.4-5.8,12.8-10.3"/>
			<path class="st0" d="M24.3,108c-1,3.8,0.2,8.2,3.2,10.9c3,2.7,7.4,3.5,11.2,2c1,3.2,4.1,5.7,7.5,5.8"/>
			<path class="st0" d="M161.3,52.9c4.2-1.8,9.4-2,13.3,0.4s6.2,7.6,4.5,11.9c4.4,0.5,8.8,2.5,11.4,6.1c2.6,3.6,3.1,8.8,0.6,12.5"/>
			<path class="st0" d="M56.9,74.9c-1-7.1,3.1-14.6,9.7-17.4s14.9-0.8,19.3,4.8c2.6-5,9.9-6.9,14.6-3.7"/>
			<path class="st8" d="M218.9,270.7c0,0-17.2,30.2-50.1,33.8C168.9,304.5,212.1,306.5,218.9,270.7L218.9,270.7z"/>
			<path class="st6" d="M181.4,148.3c0,0,15.6-28.2,29.5-7C210.9,141.3,196.4,116.3,181.4,148.3z"/>
			<path class="st6" d="M186.6,201.5c0,0-2.3,57.5-73.8,65.4C112.8,266.9,163.5,256.2,186.6,201.5L186.6,201.5z"/>
			<path class="st6" d="M192.8,208.8l18.1,68.1l9.5-8.4l-22.7-69.9C197.7,198.6,189,194.7,192.8,208.8L192.8,208.8z"/>
			<path class="st8" d="M230.2,276.9c0,0,1.2,39.8-72.3,43.6c0,0,27.8-2.8,46.8-0.7s58,10.1,58,10.1s55.4-15.9,84.8,16.7
				s39.4,59.3,39.4,59.3S361.7,304.8,230.2,276.9L230.2,276.9z"/>
			<path class="st8" d="M305.7,357c0,0-32.4,55.9-38.9,64.2c-6.5,8.3-16.9,40.3-16.9,40.3s58.5,44.4,55.8,50.6s-7.1-29.3-47.1-56
				c0,0,26.3,2.7,30.2,5.4l-22-17.2c0,0,37.4-88.7,76.8-87.4"/>
			<path class="st6" d="M156.4,441.3c0,0-16.9-46.9-23.1-49.8L119.6,376c-0.2-1.2-0.6-2.5-0.6-2.5s8.8,2.2,15.5,14.2
				c6.8,12,26.5,48.5,27,53.6C161.9,446.4,156.4,441.3,156.4,441.3L156.4,441.3z"/>
		</g>
	</g>
</g>
</svg>
