<?xml version="1.0" encoding="UTF-8"?>
<svg id="Capa_2" data-name="Capa 2" xmlns="http://www.w3.org/2000/svg" viewBox="0 0 797.5 1035.97">
  <defs>
    <style>
      .cls-1 {
        fill: #004350;
      }

      .cls-1, .cls-2 {
        stroke-width: 0px;
      }

      .cls-2 {
        fill: #10687c;
      }
    </style>
  </defs>
  <g id="Capa_1-2" data-name="Capa 1">
    <g>
      <g>
        <rect class="cls-1" x="57.24" y="55.95" width="5.94" height="5.94"/>
        <rect class="cls-1" x="57.24" y="38.12" width="5.94" height="5.94"/>
        <rect class="cls-2" x="57.24" y="44.06" width="11.89" height="11.89"/>
        <rect class="cls-1" x="69.13" y="55.95" width="5.94" height="5.94"/>
        <rect class="cls-1" x="69.13" y="38.12" width="5.94" height="5.94"/>
        <rect class="cls-1" x="66.16" y="47.04" width="23.78" height="5.94" transform="translate(128.06 -28.04) rotate(90)"/>
        <rect class="cls-1" x="63.19" y="67.84" width="5.94" height="5.94" transform="translate(132.32 141.63) rotate(180)"/>
        <rect class="cls-1" x="63.19" y="26.23" width="5.94" height="5.94" transform="translate(132.32 58.41) rotate(180)"/>
        <rect class="cls-1" x="57.24" y="61.9" width="17.83" height="5.94" transform="translate(132.32 129.74) rotate(180)"/>
        <rect class="cls-1" x="57.24" y="32.18" width="17.83" height="5.94" transform="translate(132.32 70.3) rotate(180)"/>
        <g>
          <rect class="cls-2" x="51.3" y="55.95" width="5.94" height="5.94"/>
          <rect class="cls-2" x="51.3" y="38.12" width="5.94" height="5.94"/>
          <rect class="cls-2" x="63.19" y="55.95" width="5.94" height="5.94"/>
          <rect class="cls-2" x="63.19" y="38.12" width="5.94" height="5.94"/>
          <rect class="cls-2" x="36.44" y="47.04" width="23.78" height="5.94" transform="translate(98.33 1.69) rotate(90)"/>
          <rect class="cls-2" x="60.21" y="47.04" width="23.78" height="5.94" transform="translate(122.11 -22.09) rotate(90)"/>
          <rect class="cls-2" x="57.24" y="67.84" width="5.94" height="5.94" transform="translate(120.43 141.63) rotate(180)"/>
          <rect class="cls-2" x="57.24" y="26.23" width="5.94" height="5.94" transform="translate(120.43 58.41) rotate(180)"/>
          <rect class="cls-2" x="51.3" y="61.9" width="17.83" height="5.94" transform="translate(120.43 129.74) rotate(180)"/>
          <rect class="cls-2" x="51.3" y="32.18" width="17.83" height="5.94" transform="translate(120.43 70.3) rotate(180)"/>
        </g>
        <rect class="cls-1" x="63.19" y="50.01" width="5.94" height="5.94"/>
        <rect class="cls-1" x="63.19" y="44.07" width="5.94" height="5.94"/>
        <rect class="cls-1" x="48.31" y="47.05" width="11.91" height="5.94" transform="translate(104.29 -4.25) rotate(90)"/>
      </g>
      <g>
        <rect class="cls-1" x="133.94" y="98.86" width="5.94" height="5.94"/>
        <rect class="cls-1" x="133.94" y="81.03" width="5.94" height="5.94"/>
        <rect class="cls-2" x="133.94" y="86.97" width="11.89" height="11.89"/>
        <rect class="cls-1" x="145.83" y="98.86" width="5.94" height="5.94"/>
        <rect class="cls-1" x="145.83" y="81.03" width="5.94" height="5.94"/>
        <rect class="cls-1" x="142.86" y="89.94" width="23.78" height="5.94" transform="translate(247.67 -61.83) rotate(90)"/>
        <rect class="cls-1" x="139.89" y="110.75" width="5.94" height="5.94" transform="translate(285.72 227.45) rotate(180)"/>
        <rect class="cls-1" x="139.89" y="69.14" width="5.94" height="5.94" transform="translate(285.72 144.22) rotate(180)"/>
        <rect class="cls-1" x="133.94" y="104.81" width="17.83" height="5.94" transform="translate(285.72 215.56) rotate(180)"/>
        <rect class="cls-1" x="133.94" y="75.08" width="17.83" height="5.94" transform="translate(285.72 156.11) rotate(180)"/>
        <g>
          <rect class="cls-2" x="128" y="98.86" width="5.94" height="5.94"/>
          <rect class="cls-2" x="128" y="81.03" width="5.94" height="5.94"/>
          <rect class="cls-2" x="139.89" y="98.86" width="5.94" height="5.94"/>
          <rect class="cls-2" x="139.89" y="81.03" width="5.94" height="5.94"/>
          <rect class="cls-2" x="113.14" y="89.94" width="23.78" height="5.94" transform="translate(217.94 -32.11) rotate(90)"/>
          <rect class="cls-2" x="136.92" y="89.94" width="23.78" height="5.94" transform="translate(241.72 -55.89) rotate(90)"/>
          <rect class="cls-2" x="133.94" y="110.75" width="5.94" height="5.94" transform="translate(273.83 227.45) rotate(180)"/>
          <rect class="cls-2" x="133.94" y="69.14" width="5.94" height="5.94" transform="translate(273.83 144.22) rotate(180)"/>
          <rect class="cls-2" x="128" y="104.81" width="17.83" height="5.94" transform="translate(273.83 215.56) rotate(180)"/>
          <rect class="cls-2" x="128" y="75.08" width="17.83" height="5.94" transform="translate(273.83 156.11) rotate(180)"/>
        </g>
        <rect class="cls-1" x="139.89" y="92.92" width="5.94" height="5.94"/>
        <rect class="cls-1" x="139.89" y="86.97" width="5.94" height="5.94"/>
        <rect class="cls-1" x="125.02" y="89.96" width="11.91" height="5.94" transform="translate(223.9 -38.04) rotate(90)"/>
      </g>
      <g>
        <rect class="cls-1" x="361.22" y="64.69" width="5.94" height="5.94"/>
        <rect class="cls-1" x="361.22" y="46.86" width="5.94" height="5.94"/>
        <rect class="cls-2" x="361.22" y="52.81" width="11.89" height="11.89"/>
        <rect class="cls-1" x="373.11" y="64.69" width="5.94" height="5.94"/>
        <rect class="cls-1" x="373.11" y="46.86" width="5.94" height="5.94"/>
        <rect class="cls-1" x="370.14" y="55.78" width="23.78" height="5.94" transform="translate(440.78 -323.28) rotate(90)"/>
        <rect class="cls-1" x="367.17" y="76.58" width="5.94" height="5.94" transform="translate(740.28 159.11) rotate(180)"/>
        <rect class="cls-1" x="367.17" y="34.97" width="5.94" height="5.94" transform="translate(740.28 75.89) rotate(180)"/>
        <rect class="cls-1" x="361.22" y="70.64" width="17.83" height="5.94" transform="translate(740.28 147.22) rotate(180)"/>
        <rect class="cls-1" x="361.22" y="40.92" width="17.83" height="5.94" transform="translate(740.28 87.78) rotate(180)"/>
        <g>
          <rect class="cls-2" x="355.28" y="64.69" width="5.94" height="5.94"/>
          <rect class="cls-2" x="355.28" y="46.86" width="5.94" height="5.94"/>
          <rect class="cls-2" x="367.17" y="64.69" width="5.94" height="5.94"/>
          <rect class="cls-2" x="367.17" y="46.86" width="5.94" height="5.94"/>
          <rect class="cls-2" x="340.42" y="55.78" width="23.78" height="5.94" transform="translate(411.06 -293.56) rotate(90)"/>
          <rect class="cls-2" x="364.19" y="55.78" width="23.78" height="5.94" transform="translate(434.83 -317.33) rotate(90)"/>
          <rect class="cls-2" x="361.22" y="76.58" width="5.94" height="5.94" transform="translate(728.39 159.11) rotate(180)"/>
          <rect class="cls-2" x="361.22" y="34.97" width="5.94" height="5.94" transform="translate(728.39 75.89) rotate(180)"/>
          <rect class="cls-2" x="355.28" y="70.64" width="17.83" height="5.94" transform="translate(728.39 147.22) rotate(180)"/>
          <rect class="cls-2" x="355.28" y="40.92" width="17.83" height="5.94" transform="translate(728.39 87.78) rotate(180)"/>
        </g>
        <rect class="cls-1" x="367.17" y="58.75" width="5.94" height="5.94"/>
        <rect class="cls-1" x="367.17" y="52.81" width="5.94" height="5.94"/>
        <rect class="cls-1" x="352.29" y="55.79" width="11.91" height="5.94" transform="translate(417.01 -299.49) rotate(90)"/>
      </g>
      <g>
        <rect class="cls-1" x="149.31" y="374.84" width="5.94" height="5.94"/>
        <rect class="cls-1" x="149.31" y="357.01" width="5.94" height="5.94"/>
        <rect class="cls-2" x="149.31" y="362.95" width="11.89" height="11.89"/>
        <rect class="cls-1" x="161.2" y="374.84" width="5.94" height="5.94"/>
        <rect class="cls-1" x="161.2" y="357.01" width="5.94" height="5.94"/>
        <rect class="cls-1" x="158.23" y="365.93" width="23.78" height="5.94" transform="translate(539.02 198.78) rotate(90)"/>
        <rect class="cls-1" x="155.26" y="386.73" width="5.94" height="5.94" transform="translate(316.46 779.41) rotate(180)"/>
        <rect class="cls-1" x="155.26" y="345.12" width="5.94" height="5.94" transform="translate(316.46 696.18) rotate(180)"/>
        <rect class="cls-1" x="149.31" y="380.79" width="17.83" height="5.94" transform="translate(316.46 767.52) rotate(180)"/>
        <rect class="cls-1" x="149.31" y="351.06" width="17.83" height="5.94" transform="translate(316.46 708.07) rotate(180)"/>
        <g>
          <rect class="cls-2" x="143.37" y="374.84" width="5.94" height="5.94"/>
          <rect class="cls-2" x="143.37" y="357.01" width="5.94" height="5.94"/>
          <rect class="cls-2" x="155.26" y="374.84" width="5.94" height="5.94"/>
          <rect class="cls-2" x="155.26" y="357.01" width="5.94" height="5.94"/>
          <rect class="cls-2" x="128.51" y="365.93" width="23.78" height="5.94" transform="translate(509.3 228.5) rotate(90)"/>
          <rect class="cls-2" x="152.29" y="365.93" width="23.78" height="5.94" transform="translate(533.07 204.72) rotate(90)"/>
          <rect class="cls-2" x="149.31" y="386.73" width="5.94" height="5.94" transform="translate(304.57 779.41) rotate(180)"/>
          <rect class="cls-2" x="149.31" y="345.12" width="5.94" height="5.94" transform="translate(304.57 696.18) rotate(180)"/>
          <rect class="cls-2" x="143.37" y="380.79" width="17.83" height="5.94" transform="translate(304.57 767.52) rotate(180)"/>
          <rect class="cls-2" x="143.37" y="351.06" width="17.83" height="5.94" transform="translate(304.57 708.07) rotate(180)"/>
        </g>
        <rect class="cls-1" x="155.26" y="368.9" width="5.94" height="5.94"/>
        <rect class="cls-1" x="155.26" y="362.95" width="5.94" height="5.94"/>
        <rect class="cls-1" x="140.39" y="365.94" width="11.91" height="5.94" transform="translate(515.25 222.57) rotate(90)"/>
      </g>
      <g>
        <rect class="cls-1" x="761.22" y="109.42" width="5.94" height="5.94"/>
        <rect class="cls-1" x="761.22" y="91.58" width="5.94" height="5.94"/>
        <rect class="cls-2" x="761.22" y="97.53" width="11.89" height="11.89"/>
        <rect class="cls-1" x="773.11" y="109.42" width="5.94" height="5.94"/>
        <rect class="cls-1" x="773.11" y="91.58" width="5.94" height="5.94"/>
        <rect class="cls-1" x="770.14" y="100.5" width="23.78" height="5.94" transform="translate(885.5 -678.56) rotate(90)"/>
        <rect class="cls-1" x="767.17" y="121.31" width="5.94" height="5.94" transform="translate(1540.28 248.56) rotate(180)"/>
        <rect class="cls-1" x="767.17" y="79.69" width="5.94" height="5.94" transform="translate(1540.28 165.33) rotate(180)"/>
        <rect class="cls-1" x="761.22" y="115.36" width="17.83" height="5.94" transform="translate(1540.28 236.67) rotate(180)"/>
        <rect class="cls-1" x="761.22" y="85.64" width="17.83" height="5.94" transform="translate(1540.28 177.22) rotate(180)"/>
        <g>
          <rect class="cls-2" x="755.28" y="109.42" width="5.94" height="5.94"/>
          <rect class="cls-2" x="755.28" y="91.58" width="5.94" height="5.94"/>
          <rect class="cls-2" x="767.17" y="109.42" width="5.94" height="5.94"/>
          <rect class="cls-2" x="767.17" y="91.58" width="5.94" height="5.94"/>
          <rect class="cls-2" x="740.42" y="100.5" width="23.78" height="5.94" transform="translate(855.78 -648.83) rotate(90)"/>
          <rect class="cls-2" x="764.19" y="100.5" width="23.78" height="5.94" transform="translate(879.56 -672.61) rotate(90)"/>
          <rect class="cls-2" x="761.22" y="121.31" width="5.94" height="5.94" transform="translate(1528.39 248.56) rotate(180)"/>
          <rect class="cls-2" x="761.22" y="79.69" width="5.94" height="5.94" transform="translate(1528.39 165.33) rotate(180)"/>
          <rect class="cls-2" x="755.28" y="115.36" width="17.83" height="5.94" transform="translate(1528.39 236.67) rotate(180)"/>
          <rect class="cls-2" x="755.28" y="85.64" width="17.83" height="5.94" transform="translate(1528.39 177.22) rotate(180)"/>
        </g>
        <rect class="cls-1" x="767.17" y="103.47" width="5.94" height="5.94"/>
        <rect class="cls-1" x="767.17" y="97.53" width="5.94" height="5.94"/>
        <rect class="cls-1" x="752.29" y="100.51" width="11.91" height="5.94" transform="translate(861.73 -654.77) rotate(90)"/>
      </g>
      <g>
        <rect class="cls-1" x="335.05" y="187.24" width="5.94" height="5.94"/>
        <rect class="cls-1" x="335.05" y="169.4" width="5.94" height="5.94"/>
        <rect class="cls-2" x="335.05" y="175.35" width="11.89" height="11.89"/>
        <rect class="cls-1" x="346.93" y="187.24" width="5.94" height="5.94"/>
        <rect class="cls-1" x="346.93" y="169.4" width="5.94" height="5.94"/>
        <rect class="cls-1" x="343.96" y="178.32" width="23.78" height="5.94" transform="translate(537.14 -174.56) rotate(90)"/>
        <rect class="cls-1" x="340.99" y="199.13" width="5.94" height="5.94" transform="translate(687.92 404.2) rotate(180)"/>
        <rect class="cls-1" x="340.99" y="157.51" width="5.94" height="5.94" transform="translate(687.92 320.97) rotate(180)"/>
        <rect class="cls-1" x="335.05" y="193.18" width="17.83" height="5.94" transform="translate(687.92 392.31) rotate(180)"/>
        <rect class="cls-1" x="335.05" y="163.46" width="17.83" height="5.94" transform="translate(687.92 332.86) rotate(180)"/>
        <g>
          <rect class="cls-2" x="329.1" y="187.24" width="5.94" height="5.94"/>
          <rect class="cls-2" x="329.1" y="169.4" width="5.94" height="5.94"/>
          <rect class="cls-2" x="340.99" y="187.24" width="5.94" height="5.94"/>
          <rect class="cls-2" x="340.99" y="169.4" width="5.94" height="5.94"/>
          <rect class="cls-2" x="314.24" y="178.32" width="23.78" height="5.94" transform="translate(507.42 -144.84) rotate(90)"/>
          <rect class="cls-2" x="338.02" y="178.32" width="23.78" height="5.94" transform="translate(531.2 -168.61) rotate(90)"/>
          <rect class="cls-2" x="335.05" y="199.13" width="5.94" height="5.94" transform="translate(676.04 404.2) rotate(180)"/>
          <rect class="cls-2" x="335.05" y="157.51" width="5.94" height="5.94" transform="translate(676.04 320.97) rotate(180)"/>
          <rect class="cls-2" x="329.1" y="193.18" width="17.83" height="5.94" transform="translate(676.04 392.31) rotate(180)"/>
          <rect class="cls-2" x="329.1" y="163.46" width="17.83" height="5.94" transform="translate(676.04 332.86) rotate(180)"/>
        </g>
        <rect class="cls-1" x="340.99" y="181.29" width="5.94" height="5.94"/>
        <rect class="cls-1" x="340.99" y="175.35" width="5.94" height="5.94"/>
        <rect class="cls-1" x="326.12" y="178.33" width="11.91" height="5.94" transform="translate(513.38 -150.77) rotate(90)"/>
      </g>
      <g>
        <rect class="cls-1" x="529.22" y="151.25" width="5.94" height="5.94"/>
        <rect class="cls-1" x="529.22" y="133.42" width="5.94" height="5.94"/>
        <rect class="cls-2" x="529.22" y="139.36" width="11.89" height="11.89"/>
        <rect class="cls-1" x="541.11" y="151.25" width="5.94" height="5.94"/>
        <rect class="cls-1" x="541.11" y="133.42" width="5.94" height="5.94"/>
        <rect class="cls-1" x="538.14" y="142.33" width="23.78" height="5.94" transform="translate(695.33 -404.72) rotate(90)"/>
        <rect class="cls-1" x="535.17" y="163.14" width="5.94" height="5.94" transform="translate(1076.28 332.22) rotate(180)"/>
        <rect class="cls-1" x="535.17" y="121.53" width="5.94" height="5.94" transform="translate(1076.28 249) rotate(180)"/>
        <rect class="cls-1" x="529.22" y="157.2" width="17.83" height="5.94" transform="translate(1076.28 320.33) rotate(180)"/>
        <rect class="cls-1" x="529.22" y="127.47" width="17.83" height="5.94" transform="translate(1076.28 260.89) rotate(180)"/>
        <g>
          <rect class="cls-2" x="523.28" y="151.25" width="5.94" height="5.94"/>
          <rect class="cls-2" x="523.28" y="133.42" width="5.94" height="5.94"/>
          <rect class="cls-2" x="535.17" y="151.25" width="5.94" height="5.94"/>
          <rect class="cls-2" x="535.17" y="133.42" width="5.94" height="5.94"/>
          <rect class="cls-2" x="508.42" y="142.33" width="23.78" height="5.94" transform="translate(665.61 -375) rotate(90)"/>
          <rect class="cls-2" x="532.19" y="142.33" width="23.78" height="5.94" transform="translate(689.39 -398.78) rotate(90)"/>
          <rect class="cls-2" x="529.22" y="163.14" width="5.94" height="5.94" transform="translate(1064.39 332.22) rotate(180)"/>
          <rect class="cls-2" x="529.22" y="121.53" width="5.94" height="5.94" transform="translate(1064.39 249) rotate(180)"/>
          <rect class="cls-2" x="523.28" y="157.2" width="17.83" height="5.94" transform="translate(1064.39 320.33) rotate(180)"/>
          <rect class="cls-2" x="523.28" y="127.47" width="17.83" height="5.94" transform="translate(1064.39 260.89) rotate(180)"/>
        </g>
        <rect class="cls-1" x="535.17" y="145.31" width="5.94" height="5.94"/>
        <rect class="cls-1" x="535.17" y="139.36" width="5.94" height="5.94"/>
        <rect class="cls-1" x="520.29" y="142.34" width="11.91" height="5.94" transform="translate(671.57 -380.93) rotate(90)"/>
      </g>
      <g>
        <rect class="cls-1" x="652.19" y="29.72" width="5.94" height="5.94"/>
        <rect class="cls-1" x="652.19" y="11.89" width="5.94" height="5.94"/>
        <rect class="cls-2" x="652.19" y="17.83" width="11.89" height="11.89"/>
        <rect class="cls-1" x="664.08" y="29.72" width="5.94" height="5.94"/>
        <rect class="cls-1" x="664.08" y="11.89" width="5.94" height="5.94"/>
        <rect class="cls-1" x="661.11" y="20.81" width="23.78" height="5.94" transform="translate(696.78 -649.22) rotate(90)"/>
        <rect class="cls-1" x="658.14" y="41.61" width="5.94" height="5.94" transform="translate(1322.22 89.17) rotate(180)"/>
        <rect class="cls-1" x="658.14" width="5.94" height="5.94" transform="translate(1322.22 5.94) rotate(180)"/>
        <rect class="cls-1" x="652.19" y="35.67" width="17.83" height="5.94" transform="translate(1322.22 77.28) rotate(180)"/>
        <rect class="cls-1" x="652.19" y="5.94" width="17.83" height="5.94" transform="translate(1322.22 17.83) rotate(180)"/>
        <g>
          <rect class="cls-2" x="646.25" y="29.72" width="5.94" height="5.94"/>
          <rect class="cls-2" x="646.25" y="11.89" width="5.94" height="5.94"/>
          <rect class="cls-2" x="658.14" y="29.72" width="5.94" height="5.94"/>
          <rect class="cls-2" x="658.14" y="11.89" width="5.94" height="5.94"/>
          <rect class="cls-2" x="631.39" y="20.81" width="23.78" height="5.94" transform="translate(667.06 -619.5) rotate(90)"/>
          <rect class="cls-2" x="655.17" y="20.81" width="23.78" height="5.94" transform="translate(690.83 -643.28) rotate(90)"/>
          <rect class="cls-2" x="652.19" y="41.61" width="5.94" height="5.94" transform="translate(1310.33 89.17) rotate(180)"/>
          <rect class="cls-2" x="652.19" width="5.94" height="5.94" transform="translate(1310.33 5.94) rotate(180)"/>
          <rect class="cls-2" x="646.25" y="35.67" width="17.83" height="5.94" transform="translate(1310.33 77.28) rotate(180)"/>
          <rect class="cls-2" x="646.25" y="5.94" width="17.83" height="5.94" transform="translate(1310.33 17.83) rotate(180)"/>
        </g>
        <rect class="cls-1" x="658.14" y="23.78" width="5.94" height="5.94"/>
        <rect class="cls-1" x="658.14" y="17.83" width="5.94" height="5.94"/>
        <rect class="cls-1" x="643.27" y="20.82" width="11.91" height="5.94" transform="translate(673.01 -625.43) rotate(90)"/>
      </g>
      <g>
        <rect class="cls-1" x="57.24" y="621.29" width="5.94" height="5.94"/>
        <rect class="cls-1" x="57.24" y="603.45" width="5.94" height="5.94"/>
        <rect class="cls-2" x="57.24" y="609.4" width="11.89" height="11.89"/>
        <rect class="cls-1" x="69.13" y="621.29" width="5.94" height="5.94"/>
        <rect class="cls-1" x="69.13" y="603.45" width="5.94" height="5.94"/>
        <rect class="cls-1" x="66.16" y="612.37" width="23.78" height="5.94" transform="translate(693.39 537.3) rotate(90)"/>
        <rect class="cls-1" x="63.19" y="633.18" width="5.94" height="5.94" transform="translate(132.32 1272.3) rotate(180)"/>
        <rect class="cls-1" x="63.19" y="591.56" width="5.94" height="5.94" transform="translate(132.32 1189.07) rotate(180)"/>
        <rect class="cls-1" x="57.24" y="627.23" width="17.83" height="5.94" transform="translate(132.32 1260.41) rotate(180)"/>
        <rect class="cls-1" x="57.24" y="597.51" width="17.83" height="5.94" transform="translate(132.32 1200.96) rotate(180)"/>
        <g>
          <rect class="cls-2" x="51.3" y="621.29" width="5.94" height="5.94"/>
          <rect class="cls-2" x="51.3" y="603.45" width="5.94" height="5.94"/>
          <rect class="cls-2" x="63.19" y="621.29" width="5.94" height="5.94"/>
          <rect class="cls-2" x="63.19" y="603.45" width="5.94" height="5.94"/>
          <rect class="cls-2" x="36.44" y="612.37" width="23.78" height="5.94" transform="translate(663.67 567.02) rotate(90)"/>
          <rect class="cls-2" x="60.21" y="612.37" width="23.78" height="5.94" transform="translate(687.45 543.24) rotate(90)"/>
          <rect class="cls-2" x="57.24" y="633.18" width="5.94" height="5.94" transform="translate(120.43 1272.3) rotate(180)"/>
          <rect class="cls-2" x="57.24" y="591.56" width="5.94" height="5.94" transform="translate(120.43 1189.07) rotate(180)"/>
          <rect class="cls-2" x="51.3" y="627.23" width="17.83" height="5.94" transform="translate(120.43 1260.41) rotate(180)"/>
          <rect class="cls-2" x="51.3" y="597.51" width="17.83" height="5.94" transform="translate(120.43 1200.96) rotate(180)"/>
        </g>
        <rect class="cls-1" x="63.19" y="615.34" width="5.94" height="5.94"/>
        <rect class="cls-1" x="63.19" y="609.4" width="5.94" height="5.94"/>
        <rect class="cls-1" x="48.31" y="612.38" width="11.91" height="5.94" transform="translate(669.62 561.09) rotate(90)"/>
      </g>
      <g>
        <rect class="cls-1" x="134.56" y="702.14" width="5.94" height="5.94"/>
        <rect class="cls-1" x="134.56" y="684.31" width="5.94" height="5.94"/>
        <rect class="cls-2" x="134.56" y="690.25" width="11.89" height="11.89"/>
        <rect class="cls-1" x="146.44" y="702.14" width="5.94" height="5.94"/>
        <rect class="cls-1" x="146.44" y="684.31" width="5.94" height="5.94"/>
        <rect class="cls-1" x="143.47" y="693.22" width="23.78" height="5.94" transform="translate(851.56 540.83) rotate(90)"/>
        <rect class="cls-1" x="140.5" y="714.03" width="5.94" height="5.94" transform="translate(286.95 1434) rotate(180)"/>
        <rect class="cls-1" x="140.5" y="672.42" width="5.94" height="5.94" transform="translate(286.95 1350.78) rotate(180)"/>
        <rect class="cls-1" x="134.56" y="708.08" width="17.83" height="5.94" transform="translate(286.94 1422.11) rotate(180)"/>
        <rect class="cls-1" x="134.56" y="678.36" width="17.83" height="5.94" transform="translate(286.94 1362.67) rotate(180)"/>
        <g>
          <rect class="cls-2" x="128.61" y="702.14" width="5.94" height="5.94"/>
          <rect class="cls-2" x="128.61" y="684.31" width="5.94" height="5.94"/>
          <rect class="cls-2" x="140.5" y="702.14" width="5.94" height="5.94"/>
          <rect class="cls-2" x="140.5" y="684.31" width="5.94" height="5.94"/>
          <rect class="cls-2" x="113.75" y="693.22" width="23.78" height="5.94" transform="translate(821.83 570.56) rotate(90)"/>
          <rect class="cls-2" x="137.53" y="693.22" width="23.78" height="5.94" transform="translate(845.61 546.78) rotate(90)"/>
          <rect class="cls-2" x="134.56" y="714.03" width="5.94" height="5.94" transform="translate(275.06 1434) rotate(180)"/>
          <rect class="cls-2" x="134.56" y="672.42" width="5.94" height="5.94" transform="translate(275.06 1350.78) rotate(180)"/>
          <rect class="cls-2" x="128.61" y="708.08" width="17.83" height="5.94" transform="translate(275.06 1422.11) rotate(180)"/>
          <rect class="cls-2" x="128.61" y="678.36" width="17.83" height="5.94" transform="translate(275.06 1362.67) rotate(180)"/>
        </g>
        <rect class="cls-1" x="140.5" y="696.19" width="5.94" height="5.94"/>
        <rect class="cls-1" x="140.5" y="690.25" width="5.94" height="5.94"/>
        <rect class="cls-1" x="125.63" y="693.23" width="11.91" height="5.94" transform="translate(827.79 564.62) rotate(90)"/>
      </g>
      <g>
        <rect class="cls-1" x="361.53" y="595.06" width="5.94" height="5.94"/>
        <rect class="cls-1" x="361.53" y="577.22" width="5.94" height="5.94"/>
        <rect class="cls-2" x="361.53" y="583.17" width="11.89" height="11.89"/>
        <rect class="cls-1" x="373.42" y="595.06" width="5.94" height="5.94"/>
        <rect class="cls-1" x="373.42" y="577.22" width="5.94" height="5.94"/>
        <rect class="cls-1" x="370.44" y="586.14" width="23.78" height="5.94" transform="translate(971.45 206.78) rotate(90)"/>
        <rect class="cls-1" x="367.47" y="606.95" width="5.94" height="5.94" transform="translate(740.89 1219.83) rotate(180)"/>
        <rect class="cls-1" x="367.47" y="565.33" width="5.94" height="5.94" transform="translate(740.89 1136.61) rotate(180)"/>
        <rect class="cls-1" x="361.53" y="601" width="17.83" height="5.94" transform="translate(740.89 1207.95) rotate(180)"/>
        <rect class="cls-1" x="361.53" y="571.28" width="17.83" height="5.94" transform="translate(740.89 1148.5) rotate(180)"/>
        <g>
          <rect class="cls-2" x="355.58" y="595.06" width="5.94" height="5.94"/>
          <rect class="cls-2" x="355.58" y="577.22" width="5.94" height="5.94"/>
          <rect class="cls-2" x="367.47" y="595.06" width="5.94" height="5.94"/>
          <rect class="cls-2" x="367.47" y="577.22" width="5.94" height="5.94"/>
          <rect class="cls-2" x="340.72" y="586.14" width="23.78" height="5.94" transform="translate(941.72 236.5) rotate(90)"/>
          <rect class="cls-2" x="364.5" y="586.14" width="23.78" height="5.94" transform="translate(965.5 212.72) rotate(90)"/>
          <rect class="cls-2" x="361.53" y="606.95" width="5.94" height="5.94" transform="translate(729 1219.83) rotate(180)"/>
          <rect class="cls-2" x="361.53" y="565.33" width="5.94" height="5.94" transform="translate(729 1136.61) rotate(180)"/>
          <rect class="cls-2" x="355.58" y="601" width="17.83" height="5.94" transform="translate(729 1207.95) rotate(180)"/>
          <rect class="cls-2" x="355.58" y="571.28" width="17.83" height="5.94" transform="translate(729 1148.5) rotate(180)"/>
        </g>
        <rect class="cls-1" x="367.47" y="589.11" width="5.94" height="5.94"/>
        <rect class="cls-1" x="367.47" y="583.17" width="5.94" height="5.94"/>
        <rect class="cls-1" x="352.6" y="586.15" width="11.91" height="5.94" transform="translate(947.68 230.57) rotate(90)"/>
      </g>
      <g>
        <rect class="cls-1" x="11.89" y="320.69" width="5.94" height="5.94"/>
        <rect class="cls-1" x="11.89" y="302.86" width="5.94" height="5.94"/>
        <rect class="cls-2" x="11.89" y="308.81" width="11.89" height="11.89"/>
        <rect class="cls-1" x="23.78" y="320.69" width="5.94" height="5.94"/>
        <rect class="cls-1" x="23.78" y="302.86" width="5.94" height="5.94"/>
        <rect class="cls-1" x="20.81" y="311.78" width="23.78" height="5.94" transform="translate(347.45 282.06) rotate(90)"/>
        <rect class="cls-1" x="17.83" y="332.58" width="5.94" height="5.94" transform="translate(41.61 671.11) rotate(180)"/>
        <rect class="cls-1" x="17.83" y="290.97" width="5.94" height="5.94" transform="translate(41.61 587.89) rotate(180)"/>
        <rect class="cls-1" x="11.89" y="326.64" width="17.83" height="5.94" transform="translate(41.61 659.22) rotate(180)"/>
        <rect class="cls-1" x="11.89" y="296.92" width="17.83" height="5.94" transform="translate(41.61 599.78) rotate(180)"/>
        <g>
          <rect class="cls-2" x="5.94" y="320.69" width="5.94" height="5.94"/>
          <rect class="cls-2" x="5.94" y="302.86" width="5.94" height="5.94"/>
          <rect class="cls-2" x="17.83" y="320.69" width="5.94" height="5.94"/>
          <rect class="cls-2" x="17.83" y="302.86" width="5.94" height="5.94"/>
          <rect class="cls-2" x="-8.92" y="311.78" width="23.78" height="5.94" transform="translate(317.72 311.78) rotate(90)"/>
          <rect class="cls-2" x="14.86" y="311.78" width="23.78" height="5.94" transform="translate(341.5 288) rotate(90)"/>
          <rect class="cls-2" x="11.89" y="332.58" width="5.94" height="5.94" transform="translate(29.72 671.11) rotate(180)"/>
          <rect class="cls-2" x="11.89" y="290.97" width="5.94" height="5.94" transform="translate(29.72 587.89) rotate(180)"/>
          <rect class="cls-2" x="5.94" y="326.64" width="17.83" height="5.94" transform="translate(29.72 659.22) rotate(180)"/>
          <rect class="cls-2" x="5.94" y="296.92" width="17.83" height="5.94" transform="translate(29.72 599.78) rotate(180)"/>
        </g>
        <rect class="cls-1" x="17.83" y="314.75" width="5.94" height="5.94"/>
        <rect class="cls-1" x="17.83" y="308.81" width="5.94" height="5.94"/>
        <rect class="cls-1" x="2.96" y="311.79" width="11.91" height="5.94" transform="translate(323.68 305.84) rotate(90)"/>
      </g>
      <g>
        <rect class="cls-1" x="761.22" y="476.28" width="5.94" height="5.94"/>
        <rect class="cls-1" x="761.22" y="458.44" width="5.94" height="5.94"/>
        <rect class="cls-2" x="761.22" y="464.39" width="11.89" height="11.89"/>
        <rect class="cls-1" x="773.11" y="476.28" width="5.94" height="5.94"/>
        <rect class="cls-1" x="773.11" y="458.44" width="5.94" height="5.94"/>
        <rect class="cls-1" x="770.14" y="467.36" width="23.78" height="5.94" transform="translate(1252.36 -311.69) rotate(90)"/>
        <rect class="cls-1" x="767.17" y="488.17" width="5.94" height="5.94" transform="translate(1540.28 982.28) rotate(180)"/>
        <rect class="cls-1" x="767.17" y="446.56" width="5.94" height="5.94" transform="translate(1540.28 899.06) rotate(180)"/>
        <rect class="cls-1" x="761.22" y="482.22" width="17.83" height="5.94" transform="translate(1540.28 970.39) rotate(180)"/>
        <rect class="cls-1" x="761.22" y="452.5" width="17.83" height="5.94" transform="translate(1540.28 910.95) rotate(180)"/>
        <g>
          <rect class="cls-2" x="755.28" y="476.28" width="5.94" height="5.94"/>
          <rect class="cls-2" x="755.28" y="458.44" width="5.94" height="5.94"/>
          <rect class="cls-2" x="767.17" y="476.28" width="5.94" height="5.94"/>
          <rect class="cls-2" x="767.17" y="458.44" width="5.94" height="5.94"/>
          <rect class="cls-2" x="740.42" y="467.36" width="23.78" height="5.94" transform="translate(1222.64 -281.97) rotate(90)"/>
          <rect class="cls-2" x="764.19" y="467.36" width="23.78" height="5.94" transform="translate(1246.42 -305.75) rotate(90)"/>
          <rect class="cls-2" x="761.22" y="488.17" width="5.94" height="5.94" transform="translate(1528.39 982.28) rotate(180)"/>
          <rect class="cls-2" x="761.22" y="446.56" width="5.94" height="5.94" transform="translate(1528.39 899.06) rotate(180)"/>
          <rect class="cls-2" x="755.28" y="482.22" width="17.83" height="5.94" transform="translate(1528.39 970.39) rotate(180)"/>
          <rect class="cls-2" x="755.28" y="452.5" width="17.83" height="5.94" transform="translate(1528.39 910.95) rotate(180)"/>
        </g>
        <rect class="cls-1" x="767.17" y="470.33" width="5.94" height="5.94"/>
        <rect class="cls-1" x="767.17" y="464.39" width="5.94" height="5.94"/>
        <rect class="cls-1" x="752.29" y="467.37" width="11.91" height="5.94" transform="translate(1228.59 -287.91) rotate(90)"/>
      </g>
      <g>
        <rect class="cls-1" x="335.05" y="792.69" width="5.94" height="5.94"/>
        <rect class="cls-1" x="335.05" y="774.86" width="5.94" height="5.94"/>
        <rect class="cls-2" x="335.05" y="780.81" width="11.89" height="11.89"/>
        <rect class="cls-1" x="346.93" y="792.69" width="5.94" height="5.94"/>
        <rect class="cls-1" x="346.93" y="774.86" width="5.94" height="5.94"/>
        <rect class="cls-1" x="343.96" y="783.78" width="23.78" height="5.94" transform="translate(1142.6 430.9) rotate(90)"/>
        <rect class="cls-1" x="340.99" y="804.58" width="5.94" height="5.94" transform="translate(687.92 1615.11) rotate(180)"/>
        <rect class="cls-1" x="340.99" y="762.97" width="5.94" height="5.94" transform="translate(687.92 1531.89) rotate(180)"/>
        <rect class="cls-1" x="335.05" y="798.64" width="17.83" height="5.94" transform="translate(687.92 1603.22) rotate(180)"/>
        <rect class="cls-1" x="335.05" y="768.92" width="17.83" height="5.94" transform="translate(687.92 1543.78) rotate(180)"/>
        <g>
          <rect class="cls-2" x="329.1" y="792.69" width="5.94" height="5.94"/>
          <rect class="cls-2" x="329.1" y="774.86" width="5.94" height="5.94"/>
          <rect class="cls-2" x="340.99" y="792.69" width="5.94" height="5.94"/>
          <rect class="cls-2" x="340.99" y="774.86" width="5.94" height="5.94"/>
          <rect class="cls-2" x="314.24" y="783.78" width="23.78" height="5.94" transform="translate(1112.88 460.62) rotate(90)"/>
          <rect class="cls-2" x="338.02" y="783.78" width="23.78" height="5.94" transform="translate(1136.66 436.84) rotate(90)"/>
          <rect class="cls-2" x="335.05" y="804.58" width="5.94" height="5.94" transform="translate(676.04 1615.11) rotate(180)"/>
          <rect class="cls-2" x="335.05" y="762.97" width="5.94" height="5.94" transform="translate(676.04 1531.89) rotate(180)"/>
          <rect class="cls-2" x="329.1" y="798.64" width="17.83" height="5.94" transform="translate(676.04 1603.22) rotate(180)"/>
          <rect class="cls-2" x="329.1" y="768.92" width="17.83" height="5.94" transform="translate(676.04 1543.78) rotate(180)"/>
        </g>
        <rect class="cls-1" x="340.99" y="786.75" width="5.94" height="5.94"/>
        <rect class="cls-1" x="340.99" y="780.81" width="5.94" height="5.94"/>
        <rect class="cls-1" x="326.12" y="783.79" width="11.91" height="5.94" transform="translate(1118.83 454.69) rotate(90)"/>
      </g>
      <g>
        <rect class="cls-1" x="567.06" y="494.75" width="5.94" height="5.94"/>
        <rect class="cls-1" x="567.06" y="476.92" width="5.94" height="5.94"/>
        <rect class="cls-2" x="567.06" y="482.86" width="11.89" height="11.89"/>
        <rect class="cls-1" x="578.95" y="494.75" width="5.94" height="5.94"/>
        <rect class="cls-1" x="578.95" y="476.92" width="5.94" height="5.94"/>
        <rect class="cls-1" x="575.97" y="485.83" width="23.78" height="5.94" transform="translate(1076.67 -99.06) rotate(90)"/>
        <rect class="cls-1" x="573" y="506.64" width="5.94" height="5.94" transform="translate(1151.95 1019.22) rotate(180)"/>
        <rect class="cls-1" x="573" y="465.03" width="5.94" height="5.94" transform="translate(1151.95 936) rotate(180)"/>
        <rect class="cls-1" x="567.06" y="500.69" width="17.83" height="5.94" transform="translate(1151.95 1007.33) rotate(180)"/>
        <rect class="cls-1" x="567.06" y="470.97" width="17.83" height="5.94" transform="translate(1151.95 947.89) rotate(180)"/>
        <g>
          <rect class="cls-2" x="561.11" y="494.75" width="5.94" height="5.94"/>
          <rect class="cls-2" x="561.11" y="476.92" width="5.94" height="5.94"/>
          <rect class="cls-2" x="573" y="494.75" width="5.94" height="5.94"/>
          <rect class="cls-2" x="573" y="476.92" width="5.94" height="5.94"/>
          <rect class="cls-2" x="546.25" y="485.83" width="23.78" height="5.94" transform="translate(1046.95 -69.33) rotate(90)"/>
          <rect class="cls-2" x="570.03" y="485.83" width="23.78" height="5.94" transform="translate(1070.72 -93.11) rotate(90)"/>
          <rect class="cls-2" x="567.06" y="506.64" width="5.94" height="5.94" transform="translate(1140.06 1019.22) rotate(180)"/>
          <rect class="cls-2" x="567.06" y="465.03" width="5.94" height="5.94" transform="translate(1140.06 936) rotate(180)"/>
          <rect class="cls-2" x="561.11" y="500.69" width="17.83" height="5.94" transform="translate(1140.06 1007.33) rotate(180)"/>
          <rect class="cls-2" x="561.11" y="470.97" width="17.83" height="5.94" transform="translate(1140.06 947.89) rotate(180)"/>
        </g>
        <rect class="cls-1" x="573" y="488.81" width="5.94" height="5.94"/>
        <rect class="cls-1" x="573" y="482.86" width="5.94" height="5.94"/>
        <rect class="cls-1" x="558.13" y="485.84" width="11.91" height="5.94" transform="translate(1052.9 -75.27) rotate(90)"/>
      </g>
      <g>
        <rect class="cls-1" x="773.72" y="762.75" width="5.94" height="5.94"/>
        <rect class="cls-1" x="773.72" y="744.92" width="5.94" height="5.94"/>
        <rect class="cls-2" x="773.72" y="750.86" width="11.89" height="11.89"/>
        <rect class="cls-1" x="785.61" y="762.75" width="5.94" height="5.94"/>
        <rect class="cls-1" x="785.61" y="744.92" width="5.94" height="5.94"/>
        <rect class="cls-1" x="782.64" y="753.83" width="23.78" height="5.94" transform="translate(1551.33 -37.72) rotate(90)"/>
        <rect class="cls-1" x="779.67" y="774.64" width="5.94" height="5.94" transform="translate(1565.28 1555.22) rotate(180)"/>
        <rect class="cls-1" x="779.67" y="733.03" width="5.94" height="5.94" transform="translate(1565.28 1472) rotate(180)"/>
        <rect class="cls-1" x="773.72" y="768.69" width="17.83" height="5.94" transform="translate(1565.28 1543.33) rotate(180)"/>
        <rect class="cls-1" x="773.72" y="738.97" width="17.83" height="5.94" transform="translate(1565.28 1483.89) rotate(180)"/>
        <g>
          <rect class="cls-2" x="767.78" y="762.75" width="5.94" height="5.94"/>
          <rect class="cls-2" x="767.78" y="744.92" width="5.94" height="5.94"/>
          <rect class="cls-2" x="779.67" y="762.75" width="5.94" height="5.94"/>
          <rect class="cls-2" x="779.67" y="744.92" width="5.94" height="5.94"/>
          <rect class="cls-2" x="752.92" y="753.83" width="23.78" height="5.94" transform="translate(1521.61 -8) rotate(90)"/>
          <rect class="cls-2" x="776.69" y="753.83" width="23.78" height="5.94" transform="translate(1545.39 -31.78) rotate(90)"/>
          <rect class="cls-2" x="773.72" y="774.64" width="5.94" height="5.94" transform="translate(1553.39 1555.22) rotate(180)"/>
          <rect class="cls-2" x="773.72" y="733.03" width="5.94" height="5.94" transform="translate(1553.39 1472) rotate(180)"/>
          <rect class="cls-2" x="767.78" y="768.69" width="17.83" height="5.94" transform="translate(1553.39 1543.33) rotate(180)"/>
          <rect class="cls-2" x="767.78" y="738.97" width="17.83" height="5.94" transform="translate(1553.39 1483.89) rotate(180)"/>
        </g>
        <rect class="cls-1" x="779.67" y="756.81" width="5.94" height="5.94"/>
        <rect class="cls-1" x="779.67" y="750.86" width="5.94" height="5.94"/>
        <rect class="cls-1" x="764.79" y="753.84" width="11.91" height="5.94" transform="translate(1527.57 -13.93) rotate(90)"/>
      </g>
      <g>
        <rect class="cls-1" x="633.22" y="988.19" width="5.94" height="5.94"/>
        <rect class="cls-1" x="633.22" y="970.36" width="5.94" height="5.94"/>
        <rect class="cls-2" x="633.22" y="976.31" width="11.89" height="11.89"/>
        <rect class="cls-1" x="645.11" y="988.19" width="5.94" height="5.94"/>
        <rect class="cls-1" x="645.11" y="970.36" width="5.94" height="5.94"/>
        <rect class="cls-1" x="642.14" y="979.28" width="23.78" height="5.94" transform="translate(1636.28 328.22) rotate(90)"/>
        <rect class="cls-1" x="639.17" y="1000.08" width="5.94" height="5.94" transform="translate(1284.28 2006.11) rotate(180)"/>
        <rect class="cls-1" x="639.17" y="958.47" width="5.94" height="5.94" transform="translate(1284.28 1922.89) rotate(180)"/>
        <rect class="cls-1" x="633.22" y="994.14" width="17.83" height="5.94" transform="translate(1284.28 1994.22) rotate(180)"/>
        <rect class="cls-1" x="633.22" y="964.42" width="17.83" height="5.94" transform="translate(1284.28 1934.78) rotate(180)"/>
        <g>
          <rect class="cls-2" x="627.28" y="988.19" width="5.94" height="5.94"/>
          <rect class="cls-2" x="627.28" y="970.36" width="5.94" height="5.94"/>
          <rect class="cls-2" x="639.17" y="988.19" width="5.94" height="5.94"/>
          <rect class="cls-2" x="639.17" y="970.36" width="5.94" height="5.94"/>
          <rect class="cls-2" x="612.42" y="979.28" width="23.78" height="5.94" transform="translate(1606.56 357.94) rotate(90)"/>
          <rect class="cls-2" x="636.19" y="979.28" width="23.78" height="5.94" transform="translate(1630.33 334.17) rotate(90)"/>
          <rect class="cls-2" x="633.22" y="1000.08" width="5.94" height="5.94" transform="translate(1272.39 2006.11) rotate(180)"/>
          <rect class="cls-2" x="633.22" y="958.47" width="5.94" height="5.94" transform="translate(1272.39 1922.89) rotate(180)"/>
          <rect class="cls-2" x="627.28" y="994.14" width="17.83" height="5.94" transform="translate(1272.39 1994.22) rotate(180)"/>
          <rect class="cls-2" x="627.28" y="964.42" width="17.83" height="5.94" transform="translate(1272.39 1934.78) rotate(180)"/>
        </g>
        <rect class="cls-1" x="639.17" y="982.25" width="5.94" height="5.94"/>
        <rect class="cls-1" x="639.17" y="976.31" width="5.94" height="5.94"/>
        <rect class="cls-1" x="624.29" y="979.29" width="11.91" height="5.94" transform="translate(1612.51 352.01) rotate(90)"/>
      </g>
      <g>
        <rect class="cls-1" x="79.89" y="1018.14" width="5.94" height="5.94"/>
        <rect class="cls-1" x="79.89" y="1000.31" width="5.94" height="5.94"/>
        <rect class="cls-2" x="79.89" y="1006.25" width="11.89" height="11.89"/>
        <rect class="cls-1" x="91.78" y="1018.14" width="5.94" height="5.94"/>
        <rect class="cls-1" x="91.78" y="1000.31" width="5.94" height="5.94"/>
        <rect class="cls-1" x="88.81" y="1009.22" width="23.78" height="5.94" transform="translate(1112.89 911.5) rotate(90)"/>
        <rect class="cls-1" x="85.83" y="1030.03" width="5.94" height="5.94" transform="translate(177.61 2066) rotate(180)"/>
        <rect class="cls-1" x="85.83" y="988.42" width="5.94" height="5.94" transform="translate(177.61 1982.78) rotate(180)"/>
        <rect class="cls-1" x="79.89" y="1024.08" width="17.83" height="5.94" transform="translate(177.61 2054.11) rotate(180)"/>
        <rect class="cls-1" x="79.89" y="994.36" width="17.83" height="5.94" transform="translate(177.61 1994.67) rotate(180)"/>
        <g>
          <rect class="cls-2" x="73.94" y="1018.14" width="5.94" height="5.94"/>
          <rect class="cls-2" x="73.94" y="1000.31" width="5.94" height="5.94"/>
          <rect class="cls-2" x="85.83" y="1018.14" width="5.94" height="5.94"/>
          <rect class="cls-2" x="85.83" y="1000.31" width="5.94" height="5.94"/>
          <rect class="cls-2" x="59.08" y="1009.22" width="23.78" height="5.94" transform="translate(1083.17 941.22) rotate(90)"/>
          <rect class="cls-2" x="82.86" y="1009.22" width="23.78" height="5.94" transform="translate(1106.95 917.44) rotate(90)"/>
          <rect class="cls-2" x="79.89" y="1030.03" width="5.94" height="5.94" transform="translate(165.72 2066) rotate(180)"/>
          <rect class="cls-2" x="79.89" y="988.42" width="5.94" height="5.94" transform="translate(165.72 1982.78) rotate(180)"/>
          <rect class="cls-2" x="73.94" y="1024.08" width="17.83" height="5.94" transform="translate(165.72 2054.11) rotate(180)"/>
          <rect class="cls-2" x="73.94" y="994.36" width="17.83" height="5.94" transform="translate(165.72 1994.67) rotate(180)"/>
        </g>
        <rect class="cls-1" x="85.83" y="1012.19" width="5.94" height="5.94"/>
        <rect class="cls-1" x="85.83" y="1006.25" width="5.94" height="5.94"/>
        <rect class="cls-1" x="70.96" y="1009.23" width="11.91" height="5.94" transform="translate(1089.12 935.29) rotate(90)"/>
      </g>
      <g>
        <rect class="cls-1" x="351.28" y="328.19" width="5.94" height="5.94"/>
        <rect class="cls-1" x="351.28" y="310.36" width="5.94" height="5.94"/>
        <rect class="cls-2" x="351.28" y="316.31" width="11.89" height="11.89"/>
        <rect class="cls-1" x="363.17" y="328.19" width="5.94" height="5.94"/>
        <rect class="cls-1" x="363.17" y="310.36" width="5.94" height="5.94"/>
        <rect class="cls-1" x="360.19" y="319.28" width="23.78" height="5.94" transform="translate(694.33 -49.83) rotate(90)"/>
        <rect class="cls-1" x="357.22" y="340.08" width="5.94" height="5.94" transform="translate(720.39 686.11) rotate(180)"/>
        <rect class="cls-1" x="357.22" y="298.47" width="5.94" height="5.94" transform="translate(720.39 602.89) rotate(180)"/>
        <rect class="cls-1" x="351.28" y="334.14" width="17.83" height="5.94" transform="translate(720.39 674.22) rotate(180)"/>
        <rect class="cls-1" x="351.28" y="304.42" width="17.83" height="5.94" transform="translate(720.39 614.78) rotate(180)"/>
        <g>
          <rect class="cls-2" x="345.33" y="328.19" width="5.94" height="5.94"/>
          <rect class="cls-2" x="345.33" y="310.36" width="5.94" height="5.94"/>
          <rect class="cls-2" x="357.22" y="328.19" width="5.94" height="5.94"/>
          <rect class="cls-2" x="357.22" y="310.36" width="5.94" height="5.94"/>
          <rect class="cls-2" x="330.47" y="319.28" width="23.78" height="5.94" transform="translate(664.61 -20.11) rotate(90)"/>
          <rect class="cls-2" x="354.25" y="319.28" width="23.78" height="5.94" transform="translate(688.39 -43.89) rotate(90)"/>
          <rect class="cls-2" x="351.28" y="340.08" width="5.94" height="5.94" transform="translate(708.5 686.11) rotate(180)"/>
          <rect class="cls-2" x="351.28" y="298.47" width="5.94" height="5.94" transform="translate(708.5 602.89) rotate(180)"/>
          <rect class="cls-2" x="345.33" y="334.14" width="17.83" height="5.94" transform="translate(708.5 674.22) rotate(180)"/>
          <rect class="cls-2" x="345.33" y="304.42" width="17.83" height="5.94" transform="translate(708.5 614.78) rotate(180)"/>
        </g>
        <rect class="cls-1" x="357.22" y="322.25" width="5.94" height="5.94"/>
        <rect class="cls-1" x="357.22" y="316.31" width="5.94" height="5.94"/>
        <rect class="cls-1" x="342.35" y="319.29" width="11.91" height="5.94" transform="translate(670.57 -26.04) rotate(90)"/>
      </g>
    </g>
  </g>
</svg>