<?xml version="1.0" encoding="UTF-8"?><svg id="Capa_2" xmlns="http://www.w3.org/2000/svg" xmlns:xlink="http://www.w3.org/1999/xlink" viewBox="0 0 1299.1705255103 902.1296668705"><defs><style>.cls-1{clip-path:url(#clippath);}.cls-2{fill:none;}.cls-2,.cls-3,.cls-4,.cls-5,.cls-6,.cls-7,.cls-8,.cls-9,.cls-10,.cls-11,.cls-12,.cls-13,.cls-14,.cls-15,.cls-16,.cls-17,.cls-18{stroke-width:0px;}.cls-19{stroke-width:4.206476342px;}.cls-19,.cls-20{fill:#4aa4a9;stroke:#373151;stroke-linecap:round;stroke-linejoin:round;}.cls-3{opacity:.5;}.cls-3,.cls-4{fill:#19021e;}.cls-20{stroke-width:3.040013682px;}.cls-4{opacity:.3;}.cls-5{fill:#631a75;}.cls-6{fill:#604600;}.cls-7{fill:#2d0533;}.cls-8{fill:#706619;}.cls-9{fill:#373151;}.cls-10{fill:#21201e;}.cls-11{fill:#b52338;}.cls-12{fill:#9d6447;}.cls-13{fill:#ff97a6;}.cls-14{fill:#ff9c31;}.cls-15{fill:#fff;}.cls-16{fill:#fff576;}.cls-17{fill:#ff3e51;}.cls-18{fill:#ffce33;}</style><clipPath id="clippath"><rect class="cls-2" x="128.515279512" y="274.730937087" width="796.8001207247" height="380.1387644594" rx="8.1626442041" ry="8.1626442041" transform="translate(991.715659191 -62.1150205576) rotate(90)"/></clipPath></defs><g id="Capa_1-2"><rect class="cls-20" x="673.4654552734" y="113.590347166" width="87.8805275318" height="42.1250107592" rx="3.0617837267" ry="3.0617837267" transform="translate(852.0585715849 -582.7528664937) rotate(90)"/><rect class="cls-20" x="673.4654552734" y="209.6730572674" width="87.8805275318" height="42.1250107592" rx="3.0617837267" ry="3.0617837267" transform="translate(948.1412816863 -486.6701563923) rotate(90)"/><rect class="cls-20" x="673.4654552734" y="345.7759403945" width="87.8805275318" height="42.1250107592" rx="3.0617837267" ry="3.0617837267" transform="translate(1084.2441648134 -350.5672732652) rotate(90)"/><rect class="cls-19" x="100.206562763" y="250.747722563" width="852.5125646421" height="408.3045025748" rx="15.9508667567" ry="15.9508667567" transform="translate(981.3628189345 -71.5628712336) rotate(90)"/><rect class="cls-9" x="128.9362764472" y="274.36527162" width="796.8001207247" height="380.1387644594" rx="8.1626442041" ry="8.1626442041" transform="translate(991.7709906593 -62.9016829599) rotate(90)"/><rect class="cls-9" x="528.8403414623" y="-23.4089985537" width="11.2172705851" height="143.8269891075" rx="5.6086296771" ry="5.6086296771" transform="translate(582.9534731097 -485.9444807226) rotate(90.000000038)"/><circle class="cls-9" cx="648.6614637342" cy="47.3391425084" r="7.0606449348"/><rect class="cls-9" x="349.2837551998" y="381.5620940194" width="76.9218340467" height="11.2172705874" transform="translate(774.9154015363 -.57394291) rotate(90)"/><rect class="cls-9" x="338.0664846124" y="421.5374433577" width="76.9218340467" height="11.2172705874" transform="translate(803.6734802872 50.6186770157) rotate(90)"/><rect class="cls-9" x="343.6751199061" y="473.3750671279" width="76.9218340467" height="11.2172705874" transform="translate(861.1197393511 96.8476654922) rotate(90)"/><rect class="cls-9" x="326.849214025" y="386.7416290852" width="76.9218340467" height="11.2172705874" transform="translate(757.6603954272 27.0401333305) rotate(90)"/><g class="cls-1"><rect class="cls-7" x="41.1266460035" width="962.9290186781" height="902.1296668705" transform="translate(1045.1823106852 902.1296668705) rotate(180)"/><rect class="cls-4" x="41.1266460035" width="962.9290186781" height="428.8066014005" transform="translate(1045.1823106852 428.8066014005) rotate(180)"/><rect class="cls-4" x="41.1266460035" width="962.9290186781" height="365.8581694289" transform="translate(1045.1823106852 365.8581694289) rotate(180)"/><rect class="cls-12" x="28.3668052517" y="492.8764900962" width="622.1573466446" height="406.7027969469"/><path class="cls-8" d="m43.3470282498,466.5282964541s635.7564143308,0,635.7564173687.0000911353c.5654486382,16.9634591442,1.1124781246,33.9274197696,1.7502768392,50.8883293527-9.2626137981-5.3433053726-19.4586886779-9.3281244963-29.9275321603-11.5468903311-14.6231250105-3.0993516829-25.9395067597.3262964135-40.0349810618,3.7199314152-20.2517392849,4.8758211176-41.2749179489,9.0068224147-62.0092472996,5.2408496114-14.7571725299-2.686083513-27.8962814773-10.5233471348-43.2141592016-10.9109660817-20.16728467-.5103318083-40.1886837346,4.1655042712-59.4104348779,9.8383690488-18.6412690406,5.5015483319-37.1408907094,12.4290697551-56.6988128958,13.7640962369-10.0620542073.6868378785-20.3500458169-.2744219617-29.9507282071-3.453958336-10.1032825536-3.345986574-18.1586980773-10.1479136464-27.7762654479-14.4720255839-12.1922612894-5.4817110123-26.1264972648-6.2532095206-39.3196513426-4.0988934162-13.1931540777,2.1543161043-25.77077124,7.0936184082-37.9188104373,12.6726448517-8.4157836313,3.8649785717-16.8856329915,8.1138706228-26.0825600117,9.200826542-19.4726541413,2.3013722559-34.3780737031-10.2752431389-51.2859095601-17.3435842348-19.7262998506-8.2465985116-44.0061239454-2.8157513794-62.4824963516,6.6477418826-34.8476109459,17.8487763382-71.3951053527,5.9495921127-73.0949888134-1.6998834608-1.6998834608-7.6494755735-10.1993007647-33.1477274852-41.6471447891-3.3997669216v-46.7467951714l43.3470282498,1.6998834608Z"/><rect class="cls-6" x="75.8150746433" y="496.5550136563" width="7.9653215468" height="18.865235215" rx="3.9826567856" ry="3.9826567856" transform="translate(568.4080857386 352.1985317547) rotate(81.4908373795)"/><rect class="cls-6" x="590.0860423232" y="477.2232151132" width="6.4775634584" height="8.4921750612" rx="2.5702258056" ry="2.5702258056" transform="translate(-161.2442024772 361.1670980615) rotate(-30.0000023253)"/><rect class="cls-6" x="417.4821947836" y="497.8928818901" width="7.9653215198" height="18.8652352506" rx="3.9826583127" ry="3.9826583127" transform="translate(1022.0030680678 234.6248537242) rotate(105.2958861351)"/><rect class="cls-6" x="84.4586789436" y="486.0139137833" width="4.0809797612" height="9.6654783953" rx="2.0404878264" ry="2.0404878264" transform="translate(559.1437174977 332.6705689508) rotate(81.4908746151)"/><rect class="cls-6" x="545.1270968152" y="488.9887098296" width="4.0809797324" height="9.6654784234" rx="2.0404902376" ry="2.0404902376" transform="translate(954.5894271632 -120.3930373936) rotate(81.490774982)"/><rect class="cls-6" x="219.6880590108" y="513.5420027899" width="4.0809797908" height="9.6654784494" rx="2.0404923484" ry="2.0404923484" transform="translate(701.587874412 222.3832720633) rotate(81.4907167386)"/><rect class="cls-12" x="646.6836083043" y="492.8764900962" width="622.1573466446" height="406.7027969469"/><path class="cls-8" d="m661.6638313024,466.5282964541s635.7564143308,0,635.7564173687.0000911353c.5654486382,16.9634591442,1.1124781246,33.9274197696,1.7502768392,50.8883293527-9.2626137981-5.3433053726-19.4586886779-9.3281244963-29.9275321603-11.5468903311-14.6231250105-3.0993516829-25.9395067597.3262964135-40.0349810618,3.7199314152-20.2517392849,4.8758211176-41.2749179489,9.0068224147-62.0092472996,5.2408496114-14.7571725299-2.686083513-27.8962814773-10.5233471348-43.2141592016-10.9109660817-20.16728467-.5103318083-40.1886837346,4.1655042712-59.4104348779,9.8383690488-18.6412690406,5.5015483319-37.1408907094,12.4290697551-56.6988128958,13.7640962369-10.0620542073.6868378785-20.3500458169-.2744219617-29.9507282071-3.453958336-10.1032825536-3.345986574-18.1586980773-10.1479136464-27.7762654479-14.4720255839-12.1922612894-5.4817110123-26.1264972648-6.2532095206-39.3196513426-4.0988934162-13.1931540777,2.1543161043-25.7707712401,7.0936184082-37.9188104373,12.6726448517-8.4157836314,3.8649785717-16.8856329915,8.1138706228-26.0825600117,9.200826542-19.4726541413,2.3013722559-34.3780737031-10.2752431389-51.2859095601-17.3435842348-19.7262998506-8.2465985116-44.0061239454-2.8157513794-62.4824963516,6.6477418826-34.8476109459,17.8487763382-39.5797699287,13.481914543-53.7613479803,8.1244295013-7.3304300191-2.7692735628-21.7450863459-13.5512856938-34.3509335029-18.9087707356l-1.2605847157-39.3932723657,17.9777608463.0310515071Z"/><rect class="cls-6" x="694.1318776984" y="496.5550136351" width="7.9653215421" height="18.8652352571" rx="3.9826549399" ry="3.9826549399" transform="translate(1095.2344764552 -259.3117524212) rotate(81.4908690376)"/><rect class="cls-6" x="1208.4028453758" y="477.2232151132" width="6.4775634584" height="8.4921750612" rx="2.5702258056" ry="2.5702258056" transform="translate(-78.4054459078 670.3255213214) rotate(-30.0000023254)"/><rect class="cls-6" x="1035.7989978186" y="497.8928818866" width="7.9653215431" height="18.8652352506" rx="3.9826574722" ry="3.9826574722" transform="translate(1803.4343764758 -361.7887544623) rotate(105.2958984681)"/><rect class="cls-6" x="702.775481976" y="486.0139137754" width="4.0809797612" height="9.6654784234" rx="2.0404878586" ry="2.0404878586" transform="translate(1085.9707777182 -278.839649932) rotate(81.4909263483)"/><rect class="cls-6" x="1163.4438998468" y="488.9887098353" width="4.0809797714" height="9.6654784129" rx="2.0404875568" ry="2.0404875568" transform="translate(1481.4163479503 -731.9030240845) rotate(81.490850656)"/><rect class="cls-6" x="838.0048620594" y="513.5420028105" width="4.0809797788" height="9.6654784143" rx="2.0404851573" ry="2.0404851573" transform="translate(1228.4157532569 -389.1256700376) rotate(81.4909186831)"/><rect class="cls-3" x="41.1266460035" width="962.9290186781" height="297.8587311244" transform="translate(1045.1823106852 297.8587311244) rotate(180)"/><rect class="cls-15" x="660.9317524335" y="341.9232994662" width="4.7632130032" height="4.7632130032" transform="translate(1326.6267178702 688.6098119355) rotate(180)"/><rect class="cls-5" x="660.9317524335" y="337.160086463" width="4.7632130032" height="4.7632130032" transform="translate(1326.6267178702 679.0833859292) rotate(180)"/><rect class="cls-5" x="656.1685394304" y="341.9232994662" width="4.7632130031" height="4.7632130032" transform="translate(1317.1002918639 688.6098119355) rotate(180)"/><rect class="cls-5" x="665.6949654367" y="341.9232994662" width="4.7632130032" height="4.7632130032" transform="translate(1336.1531438765 688.6098119355) rotate(180)"/><rect class="cls-5" x="660.9317524335" y="346.6865124693" width="4.7632130032" height="4.7632130032" transform="translate(1326.6267178702 698.1362379418) rotate(180)"/><rect class="cls-15" x="252.6987105963" y="381.6170720596" width="4.7632128828" height="4.7632130032" transform="translate(510.1606340755 767.9973571224) rotate(180)"/><rect class="cls-5" x="252.6987105963" y="376.8538590565" width="4.7632128828" height="4.7632130032" transform="translate(510.1606340755 758.4709311161) rotate(180)"/><rect class="cls-5" x="247.9354977135" y="381.6170720596" width="4.7632128828" height="4.7632130032" transform="translate(500.6342083099 767.9973571224) rotate(180)"/><rect class="cls-5" x="257.4619234792" y="381.6170720596" width="4.7632128828" height="4.7632130032" transform="translate(519.6870598411 767.9973571224) rotate(180)"/><rect class="cls-5" x="252.6987105963" y="386.3802850628" width="4.7632128828" height="4.7632130032" transform="translate(510.1606340755 777.5237831287) rotate(180)"/><rect class="cls-15" x="270.6620427951" y="226.5651520281" width="4.7632128828" height="4.7632130032" transform="translate(546.0872984731 457.8935170593) rotate(180)"/><rect class="cls-5" x="270.6620427951" y="221.8019390249" width="4.7632128828" height="4.7632130032" transform="translate(546.0872984731 448.367091053) rotate(180)"/><rect class="cls-5" x="265.8988299123" y="226.5651520281" width="4.7632128828" height="4.7632130032" transform="translate(536.5608727074 457.8935170593) rotate(180)"/><rect class="cls-5" x="275.4252556779" y="226.5651520281" width="4.7632128828" height="4.7632130032" transform="translate(555.6137242387 457.8935170593) rotate(180)"/><rect class="cls-5" x="270.6620427951" y="231.3283650312" width="4.7632128828" height="4.7632130032" transform="translate(546.0872984731 467.4199430656) rotate(180)"/><rect class="cls-10" x="595.4543640391" y="350.5271854718" width="6.3727922374" height="6.3727923984"/><rect class="cls-10" x="595.4543640391" y="344.1543930735" width="6.3727922374" height="6.3727923984"/><rect class="cls-10" x="595.4543640391" y="337.7816006751" width="6.3727922374" height="6.3727923984"/><rect class="cls-10" x="589.0815718017" y="356.8999778702" width="6.3727922374" height="6.3727923984"/><rect class="cls-10" x="589.0815718017" y="350.5271854718" width="6.3727922374" height="6.3727923984"/><rect class="cls-18" x="589.0815718017" y="344.1543930735" width="6.3727922374" height="6.3727923984"/><rect class="cls-10" x="589.0815718017" y="337.7816006751" width="6.3727922374" height="6.3727923984"/><rect class="cls-10" x="589.0815718017" y="331.4088082767" width="6.3727922374" height="6.3727923984"/><rect class="cls-10" x="589.0815718017" y="325.0360158783" width="6.3727922374" height="6.3727923984"/><rect class="cls-10" x="582.7087795643" y="388.7639398621" width="6.3727922374" height="6.3727923984"/><rect class="cls-10" x="582.7087795643" y="382.3911474638" width="6.3727922374" height="6.3727923984"/><rect class="cls-10" x="582.7087795643" y="376.0183550654" width="6.3727922374" height="6.3727923984"/><rect class="cls-10" x="582.7087795643" y="369.645562667" width="6.3727922374" height="6.3727923984"/><rect class="cls-10" x="582.7087795643" y="356.8999778702" width="6.3727922374" height="6.3727923984"/><rect class="cls-18" x="582.7087795643" y="350.5271854718" width="6.3727922374" height="6.3727923984"/><rect class="cls-18" x="582.7087795643" y="344.1543930735" width="6.3727922374" height="6.3727923984"/><rect class="cls-18" x="582.7087795643" y="337.7816006751" width="6.3727922374" height="6.3727923984"/><rect class="cls-18" x="582.7087795643" y="331.4088082767" width="6.3727922374" height="6.3727923984"/><rect class="cls-10" x="582.7087795643" y="325.0360158783" width="6.3727922374" height="6.3727923984"/><rect class="cls-10" x="582.7087795643" y="318.6632234799" width="6.3727922374" height="6.3727923984"/><rect class="cls-10" x="582.7087795643" y="312.2904310815" width="6.3727922374" height="6.3727923984"/><rect class="cls-10" x="576.3359873269" y="465.2374486428" width="6.3727922374" height="6.3727923984"/><rect class="cls-10" x="576.3359873269" y="458.8646562444" width="6.3727922374" height="6.3727923984"/><rect class="cls-10" x="576.3359873269" y="452.491863846" width="6.3727922374" height="6.3727923984"/><rect class="cls-10" x="576.3359873269" y="446.1190714476" width="6.3727922374" height="6.3727923984"/><rect class="cls-10" x="576.3359873269" y="439.7462790492" width="6.3727922374" height="6.3727923984"/><rect class="cls-10" x="576.3359873269" y="433.3734866508" width="6.3727922374" height="6.3727923984"/><rect class="cls-10" x="576.3359873269" y="427.0006942525" width="6.3727922374" height="6.3727923984"/><rect class="cls-10" x="576.3359873269" y="420.6279018541" width="6.3727922374" height="6.3727923984"/><rect class="cls-10" x="576.3359873269" y="414.2551094557" width="6.3727922374" height="6.3727923984"/><rect class="cls-10" x="576.3359873269" y="407.8823170573" width="6.3727922374" height="6.3727923984"/><rect class="cls-10" x="576.3359873269" y="401.5095246589" width="6.3727922374" height="6.3727923984"/><rect class="cls-10" x="576.3359873269" y="395.1367322605" width="6.3727922374" height="6.3727923984"/><rect class="cls-17" x="576.3359873269" y="388.7639398621" width="6.3727922374" height="6.3727923984"/><rect class="cls-17" x="576.3359873269" y="382.3911474638" width="6.3727922374" height="6.3727923984"/><rect class="cls-17" x="576.3359873269" y="376.0183550654" width="6.3727922374" height="6.3727923984"/><rect class="cls-13" x="576.3359873269" y="369.645562667" width="6.3727922374" height="6.3727923984"/><rect class="cls-10" x="576.3359873269" y="363.2727702686" width="6.3727922374" height="6.3727923984"/><rect class="cls-10" x="576.3359873269" y="356.8999778702" width="6.3727922374" height="6.3727923984"/><rect class="cls-18" x="576.3359873269" y="350.5271854718" width="6.3727922374" height="6.3727923984"/><rect class="cls-18" x="576.3359873269" y="344.1543930735" width="6.3727922374" height="6.3727923984"/><rect class="cls-18" x="576.3359873269" y="337.7816006751" width="6.3727922374" height="6.3727923984"/><rect class="cls-18" x="576.3359873269" y="331.4088082767" width="6.3727922374" height="6.3727923984"/><rect class="cls-18" x="576.3359873269" y="325.0360158783" width="6.3727922374" height="6.3727923984"/><rect class="cls-16" x="576.3359873269" y="318.6632234799" width="6.3727922374" height="6.3727923984"/><rect class="cls-10" x="576.3359873269" y="312.2904310815" width="6.3727922374" height="6.3727923984"/><rect class="cls-10" x="569.9631950895" y="465.2374486428" width="6.3727922374" height="6.3727923984"/><rect class="cls-13" x="569.9631950895" y="458.8646562444" width="6.3727922374" height="6.3727923984"/><rect class="cls-13" x="569.9631950895" y="452.491863846" width="6.3727922374" height="6.3727923984"/><rect class="cls-13" x="569.9631950895" y="446.1190714476" width="6.3727922374" height="6.3727923984"/><rect class="cls-13" x="569.9631950895" y="439.7462790492" width="6.3727922374" height="6.3727923984"/><rect class="cls-13" x="569.9631950895" y="433.3734866508" width="6.3727922374" height="6.3727923984"/><rect class="cls-13" x="569.9631950895" y="427.0006942525" width="6.3727922374" height="6.3727923984"/><rect class="cls-13" x="569.9631950895" y="420.6279018541" width="6.3727922374" height="6.3727923984"/><rect class="cls-13" x="569.9631950895" y="414.2551094557" width="6.3727922374" height="6.3727923984"/><rect class="cls-17" x="569.9631950895" y="407.8823170573" width="6.3727922374" height="6.3727923984"/><rect class="cls-11" x="569.9631950895" y="401.5095246589" width="6.3727922374" height="6.3727923984"/><rect class="cls-10" x="569.9631950895" y="395.1367322605" width="6.3727922374" height="6.3727923984"/><rect class="cls-17" x="569.9631950895" y="388.7639398621" width="6.3727922374" height="6.3727923984"/><rect class="cls-17" x="569.9631950895" y="382.3911474638" width="6.3727922374" height="6.3727923984"/><rect class="cls-17" x="569.9631950895" y="376.0183550654" width="6.3727922374" height="6.3727923984"/><rect class="cls-13" x="569.9631950895" y="369.645562667" width="6.3727922374" height="6.3727923984"/><rect class="cls-10" x="569.9631950895" y="363.2727702686" width="6.3727922374" height="6.3727923984"/><rect class="cls-18" x="569.9631950895" y="356.8999778702" width="6.3727922374" height="6.3727923984"/><rect class="cls-18" x="569.9631950895" y="350.5271854718" width="6.3727922374" height="6.3727923984"/><rect class="cls-18" x="569.9631950895" y="344.1543930735" width="6.3727922374" height="6.3727923984"/><rect class="cls-18" x="569.9631950895" y="337.7816006751" width="6.3727922374" height="6.3727923984"/><rect class="cls-18" x="569.9631950895" y="331.4088082767" width="6.3727922374" height="6.3727923984"/><rect class="cls-18" x="569.9631950895" y="325.0360158783" width="6.3727922374" height="6.3727923984"/><rect class="cls-16" x="569.9631950895" y="318.6632234799" width="6.3727922374" height="6.3727923984"/><rect class="cls-10" x="569.9631950895" y="312.2904310815" width="6.3727922374" height="6.3727923984"/><rect class="cls-10" x="569.9631950895" y="305.9176386831" width="6.3727922374" height="6.3727923984"/><rect class="cls-10" x="563.5904028521" y="465.2374486428" width="6.3727922374" height="6.3727923984"/><rect class="cls-17" x="563.5904028521" y="458.8646562444" width="6.3727922374" height="6.3727923984"/><rect class="cls-17" x="563.5904028521" y="452.491863846" width="6.3727922374" height="6.3727923984"/><rect class="cls-17" x="563.5904028521" y="446.1190714476" width="6.3727922374" height="6.3727923984"/><rect class="cls-17" x="563.5904028521" y="439.7462790492" width="6.3727922374" height="6.3727923984"/><rect class="cls-17" x="563.5904028521" y="433.3734866508" width="6.3727922374" height="6.3727923984"/><rect class="cls-17" x="563.5904028521" y="427.0006942525" width="6.3727922374" height="6.3727923984"/><rect class="cls-17" x="563.5904028521" y="420.6279018541" width="6.3727922374" height="6.3727923984"/><rect class="cls-17" x="563.5904028521" y="414.2551094557" width="6.3727922374" height="6.3727923984"/><rect class="cls-17" x="563.5904028521" y="407.8823170573" width="6.3727922374" height="6.3727923984"/><rect class="cls-11" x="563.5904028521" y="401.5095246589" width="6.3727922374" height="6.3727923984"/><rect class="cls-10" x="563.5904028521" y="395.1367322605" width="6.3727922374" height="6.3727923984"/><rect class="cls-17" x="563.5904028521" y="388.7639398621" width="6.3727922374" height="6.3727923984"/><rect class="cls-17" x="563.5904028521" y="382.3911474638" width="6.3727922374" height="6.3727923984"/><rect class="cls-17" x="563.5904028521" y="376.0183550654" width="6.3727922374" height="6.3727923984"/><rect class="cls-13" x="563.5904028521" y="369.645562667" width="6.3727922374" height="6.3727923984"/><rect class="cls-10" x="563.5904028521" y="363.2727702686" width="6.3727922374" height="6.3727923984"/><rect class="cls-18" x="563.5904028521" y="356.8999778702" width="6.3727922374" height="6.3727923984"/><rect class="cls-18" x="563.5904028521" y="350.5271854718" width="6.3727922374" height="6.3727923984"/><rect class="cls-18" x="563.5904028521" y="344.1543930735" width="6.3727922374" height="6.3727923984"/><rect class="cls-18" x="563.5904028521" y="337.7816006751" width="6.3727922374" height="6.3727923984"/><rect class="cls-18" x="563.5904028521" y="331.4088082767" width="6.3727922374" height="6.3727923984"/><rect class="cls-18" x="563.5904028521" y="325.0360158783" width="6.3727922374" height="6.3727923984"/><rect class="cls-16" x="563.5904028521" y="318.6632234799" width="6.3727922374" height="6.3727923984"/><rect class="cls-16" x="563.5904028521" y="312.2904310815" width="6.3727922374" height="6.3727923984"/><rect class="cls-10" x="563.5904028521" y="305.9176386831" width="6.3727922374" height="6.3727923984"/><rect class="cls-10" x="557.2176106147" y="465.2374486428" width="6.3727922374" height="6.3727923984"/><rect class="cls-17" x="557.2176106147" y="458.8646562444" width="6.3727922374" height="6.3727923984"/><rect class="cls-17" x="557.2176106147" y="452.491863846" width="6.3727922374" height="6.3727923984"/><rect class="cls-17" x="557.2176106147" y="446.1190714476" width="6.3727922374" height="6.3727923984"/><rect class="cls-17" x="557.2176106147" y="439.7462790492" width="6.3727922374" height="6.3727923984"/><rect class="cls-17" x="557.2176106147" y="433.3734866508" width="6.3727922374" height="6.3727923984"/><rect class="cls-17" x="557.2176106147" y="427.0006942525" width="6.3727922374" height="6.3727923984"/><rect class="cls-17" x="557.2176106147" y="420.6279018541" width="6.3727922374" height="6.3727923984"/><rect class="cls-17" x="557.2176106147" y="414.2551094557" width="6.3727922374" height="6.3727923984"/><rect class="cls-17" x="557.2176106147" y="407.8823170573" width="6.3727922374" height="6.3727923984"/><rect class="cls-11" x="557.2176106147" y="401.5095246589" width="6.3727922374" height="6.3727923984"/><rect class="cls-10" x="557.2176106147" y="395.1367322605" width="6.3727922374" height="6.3727923984"/><rect class="cls-17" x="557.2176106147" y="388.7639398621" width="6.3727922374" height="6.3727923984"/><rect class="cls-17" x="557.2176106147" y="382.3911474638" width="6.3727922374" height="6.3727923984"/><rect class="cls-17" x="557.2176106147" y="376.0183550654" width="6.3727922374" height="6.3727923984"/><rect class="cls-13" x="557.2176106147" y="369.645562667" width="6.3727922374" height="6.3727923984"/><rect class="cls-10" x="557.2176106147" y="363.2727702686" width="6.3727922374" height="6.3727923984"/><rect class="cls-18" x="557.2176106147" y="356.8999778702" width="6.3727922374" height="6.3727923984"/><rect class="cls-14" x="557.2176106147" y="350.5271854718" width="6.3727922374" height="6.3727923984"/><rect class="cls-14" x="557.2176106147" y="344.1543930735" width="6.3727922374" height="6.3727923984"/><rect class="cls-14" x="557.2176106147" y="337.7816006751" width="6.3727922374" height="6.3727923984"/><rect class="cls-18" x="557.2176106147" y="331.4088082767" width="6.3727922374" height="6.3727923984"/><rect class="cls-18" x="557.2176106147" y="325.0360158783" width="6.3727922374" height="6.3727923984"/><rect class="cls-16" x="557.2176106147" y="318.6632234799" width="6.3727922374" height="6.3727923984"/><rect class="cls-16" x="557.2176106147" y="312.2904310815" width="6.3727922374" height="6.3727923984"/><rect class="cls-10" x="557.2176106147" y="305.9176386831" width="6.3727922374" height="6.3727923984"/><rect class="cls-10" x="550.8448183774" y="465.2374486428" width="6.3727922374" height="6.3727923984"/><rect class="cls-17" x="550.8448183774" y="458.8646562444" width="6.3727922374" height="6.3727923984"/><rect class="cls-17" x="550.8448183774" y="452.491863846" width="6.3727922374" height="6.3727923984"/><rect class="cls-17" x="550.8448183774" y="446.1190714476" width="6.3727922374" height="6.3727923984"/><rect class="cls-17" x="550.8448183774" y="439.7462790492" width="6.3727922374" height="6.3727923984"/><rect class="cls-17" x="550.8448183774" y="433.3734866508" width="6.3727922374" height="6.3727923984"/><rect class="cls-17" x="550.8448183774" y="427.0006942525" width="6.3727922374" height="6.3727923984"/><rect class="cls-17" x="550.8448183774" y="420.6279018541" width="6.3727922374" height="6.3727923984"/><rect class="cls-17" x="550.8448183774" y="414.2551094557" width="6.3727922374" height="6.3727923984"/><rect class="cls-17" x="550.8448183774" y="407.8823170573" width="6.3727922374" height="6.3727923984"/><rect class="cls-11" x="550.8448183774" y="401.5095246589" width="6.3727922374" height="6.3727923984"/><rect class="cls-10" x="550.8448183774" y="395.1367322605" width="6.3727922374" height="6.3727923984"/><rect class="cls-17" x="550.8448183774" y="388.7639398621" width="6.3727922374" height="6.3727923984"/><rect class="cls-17" x="550.8448183774" y="382.3911474638" width="6.3727922374" height="6.3727923984"/><rect class="cls-17" x="550.8448183774" y="376.0183550654" width="6.3727922374" height="6.3727923984"/><rect class="cls-13" x="550.8448183774" y="369.645562667" width="6.3727922374" height="6.3727923984"/><rect class="cls-10" x="550.8448183774" y="363.2727702686" width="6.3727922374" height="6.3727923984"/><rect class="cls-14" x="550.8448183774" y="356.8999778702" width="6.3727922374" height="6.3727923984"/><rect class="cls-14" x="550.8448183774" y="350.5271854718" width="6.3727922374" height="6.3727923984"/><rect class="cls-10" x="550.8448183774" y="344.1543930735" width="6.3727922374" height="6.3727923984"/><rect class="cls-14" x="550.8448183774" y="337.7816006751" width="6.3727922374" height="6.3727923984"/><rect class="cls-16" x="550.8448183774" y="331.4088082767" width="6.3727922374" height="6.3727923984"/><rect class="cls-16" x="550.8448183774" y="325.0360158783" width="6.3727922374" height="6.3727923984"/><rect class="cls-16" x="550.8448183774" y="318.6632234799" width="6.3727922374" height="6.3727923984"/><rect class="cls-10" x="550.8448183774" y="312.2904310815" width="6.3727922374" height="6.3727923984"/><rect class="cls-10" x="544.47202614" y="465.2374486428" width="6.3727922374" height="6.3727923984"/><rect class="cls-17" x="544.47202614" y="458.8646562444" width="6.3727922374" height="6.3727923984"/><rect class="cls-17" x="544.47202614" y="452.491863846" width="6.3727922374" height="6.3727923984"/><rect class="cls-17" x="544.47202614" y="446.1190714476" width="6.3727922374" height="6.3727923984"/><rect class="cls-17" x="544.47202614" y="439.7462790492" width="6.3727922374" height="6.3727923984"/><rect class="cls-17" x="544.47202614" y="433.3734866508" width="6.3727922374" height="6.3727923984"/><rect class="cls-17" x="544.47202614" y="427.0006942525" width="6.3727922374" height="6.3727923984"/><rect class="cls-17" x="544.47202614" y="420.6279018541" width="6.3727922374" height="6.3727923984"/><rect class="cls-17" x="544.47202614" y="414.2551094557" width="6.3727922374" height="6.3727923984"/><rect class="cls-17" x="544.47202614" y="407.8823170573" width="6.3727922374" height="6.3727923984"/><rect class="cls-11" x="544.47202614" y="401.5095246589" width="6.3727922374" height="6.3727923984"/><rect class="cls-10" x="544.47202614" y="395.1367322605" width="6.3727922374" height="6.3727923984"/><rect class="cls-17" x="544.47202614" y="388.7639398621" width="6.3727922374" height="6.3727923984"/><rect class="cls-17" x="544.47202614" y="382.3911474638" width="6.3727922374" height="6.3727923984"/><rect class="cls-17" x="544.47202614" y="376.0183550654" width="6.3727922374" height="6.3727923984"/><rect class="cls-13" x="544.47202614" y="369.645562667" width="6.3727922374" height="6.3727923984"/><rect class="cls-10" x="544.47202614" y="363.2727702686" width="6.3727922374" height="6.3727923984"/><rect class="cls-14" x="544.47202614" y="356.8999778702" width="6.3727922374" height="6.3727923984"/><rect class="cls-10" x="544.47202614" y="350.5271854718" width="6.3727922374" height="6.3727923984"/><rect class="cls-14" x="544.47202614" y="344.1543930735" width="6.3727922374" height="6.3727923984"/><rect class="cls-14" x="544.47202614" y="337.7816006751" width="6.3727922374" height="6.3727923984"/><rect class="cls-16" x="544.47202614" y="331.4088082767" width="6.3727922374" height="6.3727923984"/><rect class="cls-10" x="544.47202614" y="325.0360158783" width="6.3727922374" height="6.3727923984"/><rect class="cls-10" x="544.47202614" y="318.6632234799" width="6.3727922374" height="6.3727923984"/><rect class="cls-10" x="544.47202614" y="312.2904310815" width="6.3727922374" height="6.3727923984"/><rect class="cls-10" x="538.0992339026" y="465.2374486428" width="6.3727922374" height="6.3727923984"/><rect class="cls-11" x="538.0992339026" y="458.8646562444" width="6.3727922374" height="6.3727923984"/><rect class="cls-11" x="538.0992339026" y="452.491863846" width="6.3727922374" height="6.3727923984"/><rect class="cls-11" x="538.0992339026" y="446.1190714476" width="6.3727922374" height="6.3727923984"/><rect class="cls-11" x="538.0992339026" y="439.7462790492" width="6.3727922374" height="6.3727923984"/><rect class="cls-11" x="538.0992339026" y="433.3734866508" width="6.3727922374" height="6.3727923984"/><rect class="cls-11" x="538.0992339026" y="427.0006942525" width="6.3727922374" height="6.3727923984"/><rect class="cls-11" x="538.0992339026" y="420.6279018541" width="6.3727922374" height="6.3727923984"/><rect class="cls-11" x="538.0992339026" y="414.2551094557" width="6.3727922374" height="6.3727923984"/><rect class="cls-11" x="538.0992339026" y="407.8823170573" width="6.3727922374" height="6.3727923984"/><rect class="cls-11" x="538.0992339026" y="401.5095246589" width="6.3727922374" height="6.3727923984"/><rect class="cls-10" x="538.0992339026" y="395.1367322605" width="6.3727922374" height="6.3727923984"/><rect class="cls-11" x="538.0992339026" y="388.7639398621" width="6.3727922374" height="6.3727923984"/><rect class="cls-11" x="538.0992339026" y="382.3911474638" width="6.3727922374" height="6.3727923984"/><rect class="cls-11" x="538.0992339026" y="376.0183550654" width="6.3727922374" height="6.3727923984"/><rect class="cls-13" x="538.0992339026" y="369.645562667" width="6.3727922374" height="6.3727923984"/><rect class="cls-10" x="538.0992339026" y="363.2727702686" width="6.3727922374" height="6.3727923984"/><rect class="cls-10" x="538.0992339026" y="356.8999778702" width="6.3727922374" height="6.3727923984"/><rect class="cls-14" x="538.0992339026" y="350.5271854718" width="6.3727922374" height="6.3727923984"/><rect class="cls-14" x="538.0992339026" y="344.1543930735" width="6.3727922374" height="6.3727923984"/><rect class="cls-10" x="538.0992339026" y="337.7816006751" width="6.3727922374" height="6.3727923984"/><rect class="cls-10" x="538.0992339026" y="331.4088082767" width="6.3727922374" height="6.3727923984"/><rect class="cls-10" x="538.0992339026" y="325.0360158783" width="6.3727922374" height="6.3727923984"/><rect class="cls-10" x="531.7264416652" y="465.2374486428" width="6.3727922374" height="6.3727923984"/><rect class="cls-10" x="531.7264416652" y="458.8646562444" width="6.3727922374" height="6.3727923984"/><rect class="cls-10" x="531.7264416652" y="452.491863846" width="6.3727922374" height="6.3727923984"/><rect class="cls-10" x="531.7264416652" y="446.1190714476" width="6.3727922374" height="6.3727923984"/><rect class="cls-10" x="531.7264416652" y="439.7462790492" width="6.3727922374" height="6.3727923984"/><rect class="cls-10" x="531.7264416652" y="433.3734866508" width="6.3727922374" height="6.3727923984"/><rect class="cls-10" x="531.7264416652" y="427.0006942525" width="6.3727922374" height="6.3727923984"/><rect class="cls-10" x="531.7264416652" y="420.6279018541" width="6.3727922374" height="6.3727923984"/><rect class="cls-10" x="531.7264416652" y="414.2551094557" width="6.3727922374" height="6.3727923984"/><rect class="cls-10" x="531.7264416652" y="407.8823170573" width="6.3727922374" height="6.3727923984"/><rect class="cls-10" x="531.7264416652" y="401.5095246589" width="6.3727922374" height="6.3727923984"/><rect class="cls-10" x="531.7264416652" y="395.1367322605" width="6.3727922374" height="6.3727923984"/><rect class="cls-10" x="531.7264416652" y="388.7639398621" width="6.3727922374" height="6.3727923984"/><rect class="cls-10" x="531.7264416652" y="382.3911474638" width="6.3727922374" height="6.3727923984"/><rect class="cls-10" x="531.7264416652" y="376.0183550654" width="6.3727922374" height="6.3727923984"/><rect class="cls-10" x="531.7264416652" y="369.645562667" width="6.3727922374" height="6.3727923984"/><rect class="cls-10" x="531.7264416652" y="363.2727702686" width="6.3727922374" height="6.3727923984"/><rect class="cls-10" x="531.7264416652" y="356.8999778702" width="6.3727922374" height="6.3727923984"/><rect class="cls-10" x="531.7264416652" y="350.5271854718" width="6.3727922374" height="6.3727923984"/><rect class="cls-10" x="531.7264416652" y="344.1543930735" width="6.3727922374" height="6.3727923984"/><rect class="cls-10" x="531.7264416652" y="337.7816006751" width="6.3727922374" height="6.3727923984"/><rect class="cls-10" x="525.3536494278" y="465.2374486428" width="6.3727922374" height="6.3727923984"/><rect class="cls-18" x="525.3536494278" y="458.8646562444" width="6.3727922374" height="6.3727923984"/><rect class="cls-18" x="525.3536494278" y="452.491863846" width="6.3727922374" height="6.3727923984"/><rect class="cls-18" x="525.3536494278" y="446.1190714476" width="6.3727922374" height="6.3727923984"/><rect class="cls-18" x="525.3536494278" y="439.7462790492" width="6.3727922374" height="6.3727923984"/><rect class="cls-18" x="525.3536494278" y="433.3734866508" width="6.3727922374" height="6.3727923984"/><rect class="cls-18" x="525.3536494278" y="427.0006942525" width="6.3727922374" height="6.3727923984"/><rect class="cls-14" x="525.3536494278" y="420.6279018541" width="6.3727922374" height="6.3727923984"/><rect class="cls-14" x="525.3536494278" y="414.2551094557" width="6.3727922374" height="6.3727923984"/><rect class="cls-14" x="525.3536494278" y="407.8823170573" width="6.3727922374" height="6.3727923984"/><rect class="cls-14" x="525.3536494278" y="401.5095246589" width="6.3727922374" height="6.3727923984"/><rect class="cls-10" x="525.3536494278" y="395.1367322605" width="6.3727922374" height="6.3727923984"/><rect class="cls-14" x="525.3536494278" y="388.7639398621" width="6.3727922374" height="6.3727923984"/><rect class="cls-18" x="525.3536494278" y="382.3911474638" width="6.3727922374" height="6.3727923984"/><rect class="cls-18" x="525.3536494278" y="376.0183550654" width="6.3727922374" height="6.3727923984"/><rect class="cls-16" x="525.3536494278" y="369.645562667" width="6.3727922374" height="6.3727923984"/><rect class="cls-10" x="525.3536494278" y="363.2727702686" width="6.3727922374" height="6.3727923984"/><rect class="cls-18" x="525.3536494278" y="356.8999778702" width="6.3727922374" height="6.3727923984"/><rect class="cls-16" x="525.3536494278" y="350.5271854718" width="6.3727922374" height="6.3727923984"/><rect class="cls-10" x="525.3536494278" y="344.1543930735" width="6.3727922374" height="6.3727923984"/><rect class="cls-10" x="518.9808571904" y="465.2374486428" width="6.3727922374" height="6.3727923984"/><rect class="cls-18" x="518.9808571904" y="458.8646562444" width="6.3727922374" height="6.3727923984"/><rect class="cls-18" x="518.9808571904" y="452.491863846" width="6.3727922374" height="6.3727923984"/><rect class="cls-18" x="518.9808571904" y="446.1190714476" width="6.3727922374" height="6.3727923984"/><rect class="cls-18" x="518.9808571904" y="439.7462790492" width="6.3727922374" height="6.3727923984"/><rect class="cls-18" x="518.9808571904" y="433.3734866508" width="6.3727922374" height="6.3727923984"/><rect class="cls-18" x="518.9808571904" y="427.0006942525" width="6.3727922374" height="6.3727923984"/><rect class="cls-18" x="518.9808571904" y="420.6279018541" width="6.3727922374" height="6.3727923984"/><rect class="cls-18" x="518.9808571904" y="414.2551094557" width="6.3727922374" height="6.3727923984"/><rect class="cls-18" x="518.9808571904" y="407.8823170573" width="6.3727922374" height="6.3727923984"/><rect class="cls-14" x="518.9808571904" y="401.5095246589" width="6.3727922374" height="6.3727923984"/><rect class="cls-10" x="518.9808571904" y="395.1367322605" width="6.3727922374" height="6.3727923984"/><rect class="cls-18" x="518.9808571904" y="388.7639398621" width="6.3727922374" height="6.3727923984"/><rect class="cls-18" x="518.9808571904" y="382.3911474638" width="6.3727922374" height="6.3727923984"/><rect class="cls-18" x="518.9808571904" y="376.0183550654" width="6.3727922374" height="6.3727923984"/><rect class="cls-16" x="518.9808571904" y="369.645562667" width="6.3727922374" height="6.3727923984"/><rect class="cls-10" x="518.9808571904" y="363.2727702686" width="6.3727922374" height="6.3727923984"/><rect class="cls-18" x="518.9808571904" y="356.8999778702" width="6.3727922374" height="6.3727923984"/><rect class="cls-16" x="518.9808571904" y="350.5271854718" width="6.3727922374" height="6.3727923984"/><rect class="cls-10" x="518.9808571904" y="344.1543930735" width="6.3727922374" height="6.3727923984"/><rect class="cls-10" x="512.608064953" y="465.2374486428" width="6.3727922374" height="6.3727923984"/><rect class="cls-18" x="512.608064953" y="458.8646562444" width="6.3727922374" height="6.3727923984"/><rect class="cls-18" x="512.608064953" y="452.491863846" width="6.3727922374" height="6.3727923984"/><rect class="cls-18" x="512.608064953" y="446.1190714476" width="6.3727922374" height="6.3727923984"/><rect class="cls-18" x="512.608064953" y="439.7462790492" width="6.3727922374" height="6.3727923984"/><rect class="cls-18" x="512.608064953" y="433.3734866508" width="6.3727922374" height="6.3727923984"/><rect class="cls-18" x="512.608064953" y="427.0006942525" width="6.3727922374" height="6.3727923984"/><rect class="cls-18" x="512.608064953" y="420.6279018541" width="6.3727922374" height="6.3727923984"/><rect class="cls-18" x="512.608064953" y="414.2551094557" width="6.3727922374" height="6.3727923984"/><rect class="cls-18" x="512.608064953" y="407.8823170573" width="6.3727922374" height="6.3727923984"/><rect class="cls-14" x="512.608064953" y="401.5095246589" width="6.3727922374" height="6.3727923984"/><rect class="cls-10" x="512.608064953" y="395.1367322605" width="6.3727922374" height="6.3727923984"/><rect class="cls-18" x="512.608064953" y="388.7639398621" width="6.3727922374" height="6.3727923984"/><rect class="cls-18" x="512.608064953" y="382.3911474638" width="6.3727922374" height="6.3727923984"/><rect class="cls-18" x="512.608064953" y="376.0183550654" width="6.3727922374" height="6.3727923984"/><rect class="cls-16" x="512.608064953" y="369.645562667" width="6.3727922374" height="6.3727923984"/><rect class="cls-10" x="512.608064953" y="363.2727702686" width="6.3727922374" height="6.3727923984"/><rect class="cls-18" x="512.608064953" y="356.8999778702" width="6.3727922374" height="6.3727923984"/><rect class="cls-18" x="512.608064953" y="350.5271854718" width="6.3727922374" height="6.3727923984"/><rect class="cls-10" x="512.608064953" y="344.1543930735" width="6.3727922374" height="6.3727923984"/><rect class="cls-10" x="506.2352727156" y="465.2374486428" width="6.3727922374" height="6.3727923984"/><rect class="cls-10" x="506.2352727156" y="458.8646562444" width="6.3727922374" height="6.3727923984"/><rect class="cls-10" x="506.2352727156" y="452.491863846" width="6.3727922374" height="6.3727923984"/><rect class="cls-10" x="506.2352727156" y="446.1190714476" width="6.3727922374" height="6.3727923984"/><rect class="cls-10" x="506.2352727156" y="439.7462790492" width="6.3727922374" height="6.3727923984"/><rect class="cls-10" x="506.2352727156" y="433.3734866508" width="6.3727922374" height="6.3727923984"/><rect class="cls-10" x="506.2352727156" y="427.0006942525" width="6.3727922374" height="6.3727923984"/><rect class="cls-10" x="506.2352727156" y="420.6279018541" width="6.3727922374" height="6.3727923984"/><rect class="cls-10" x="506.2352727156" y="414.2551094557" width="6.3727922374" height="6.3727923984"/><rect class="cls-10" x="506.2352727156" y="407.8823170573" width="6.3727922374" height="6.3727923984"/><rect class="cls-10" x="506.2352727156" y="401.5095246589" width="6.3727922374" height="6.3727923984"/><rect class="cls-10" x="506.2352727156" y="395.1367322605" width="6.3727922374" height="6.3727923984"/><rect class="cls-10" x="506.2352727156" y="388.7639398621" width="6.3727922374" height="6.3727923984"/><rect class="cls-10" x="506.2352727156" y="382.3911474638" width="6.3727922374" height="6.3727923984"/><rect class="cls-10" x="506.2352727156" y="376.0183550654" width="6.3727922374" height="6.3727923984"/><rect class="cls-10" x="506.2352727156" y="369.645562667" width="6.3727922374" height="6.3727923984"/><rect class="cls-10" x="506.2352727156" y="363.2727702686" width="6.3727922374" height="6.3727923984"/><rect class="cls-10" x="506.2352727156" y="356.8999778702" width="6.3727922374" height="6.3727923984"/><rect class="cls-10" x="506.2352727156" y="350.5271854718" width="6.3727922374" height="6.3727923984"/><rect class="cls-10" x="506.2352727156" y="344.1543930735" width="6.3727922374" height="6.3727923984"/><rect class="cls-10" x="499.8624804782" y="465.2374486428" width="6.3727922374" height="6.3727923984"/><rect class="cls-11" x="499.8624804782" y="458.8646562444" width="6.3727922374" height="6.3727923984"/><rect class="cls-11" x="499.8624804782" y="452.491863846" width="6.3727922374" height="6.3727923984"/><rect class="cls-11" x="499.8624804782" y="446.1190714476" width="6.3727922374" height="6.3727923984"/><rect class="cls-11" x="499.8624804782" y="439.7462790492" width="6.3727922374" height="6.3727923984"/><rect class="cls-11" x="499.8624804782" y="433.3734866508" width="6.3727922374" height="6.3727923984"/><rect class="cls-11" x="499.8624804782" y="427.0006942525" width="6.3727922374" height="6.3727923984"/><rect class="cls-11" x="499.8624804782" y="420.6279018541" width="6.3727922374" height="6.3727923984"/><rect class="cls-11" x="499.8624804782" y="414.2551094557" width="6.3727922374" height="6.3727923984"/><rect class="cls-11" x="499.8624804782" y="407.8823170573" width="6.3727922374" height="6.3727923984"/><rect class="cls-11" x="499.8624804782" y="401.5095246589" width="6.3727922374" height="6.3727923984"/><rect class="cls-10" x="499.8624804782" y="395.1367322605" width="6.3727922374" height="6.3727923984"/><rect class="cls-11" x="499.8624804782" y="388.7639398621" width="6.3727922374" height="6.3727923984"/><rect class="cls-11" x="499.8624804782" y="382.3911474638" width="6.3727922374" height="6.3727923984"/><rect class="cls-11" x="499.8624804782" y="376.0183550654" width="6.3727922374" height="6.3727923984"/><rect class="cls-13" x="499.8624804782" y="369.645562667" width="6.3727922374" height="6.3727923984"/><rect class="cls-10" x="499.8624804782" y="363.2727702686" width="6.3727922374" height="6.3727923984"/><rect class="cls-10" x="499.8624804782" y="356.8999778702" width="6.3727922374" height="6.3727923984"/><rect class="cls-10" x="499.8624804782" y="350.5271854718" width="6.3727922374" height="6.3727923984"/><rect class="cls-10" x="499.8624804782" y="344.1543930735" width="6.3727922374" height="6.3727923984"/><rect class="cls-10" x="499.8624804782" y="337.7816006751" width="6.3727922374" height="6.3727923984"/><rect class="cls-10" x="493.4896882408" y="465.2374486428" width="6.3727922374" height="6.3727923984"/><rect class="cls-17" x="493.4896882408" y="458.8646562444" width="6.3727922374" height="6.3727923984"/><rect class="cls-17" x="493.4896882408" y="452.491863846" width="6.3727922374" height="6.3727923984"/><rect class="cls-17" x="493.4896882408" y="446.1190714476" width="6.3727922374" height="6.3727923984"/><rect class="cls-17" x="493.4896882408" y="439.7462790492" width="6.3727922374" height="6.3727923984"/><rect class="cls-17" x="493.4896882408" y="433.3734866508" width="6.3727922374" height="6.3727923984"/><rect class="cls-17" x="493.4896882408" y="427.0006942525" width="6.3727922374" height="6.3727923984"/><rect class="cls-17" x="493.4896882408" y="420.6279018541" width="6.3727922374" height="6.3727923984"/><rect class="cls-17" x="493.4896882408" y="414.2551094557" width="6.3727922374" height="6.3727923984"/><rect class="cls-17" x="493.4896882408" y="407.8823170573" width="6.3727922374" height="6.3727923984"/><rect class="cls-11" x="493.4896882408" y="401.5095246589" width="6.3727922374" height="6.3727923984"/><rect class="cls-10" x="493.4896882408" y="395.1367322605" width="6.3727922374" height="6.3727923984"/><rect class="cls-17" x="493.4896882408" y="388.7639398621" width="6.3727922374" height="6.3727923984"/><rect class="cls-17" x="493.4896882408" y="382.3911474638" width="6.3727922374" height="6.3727923984"/><rect class="cls-17" x="493.4896882408" y="376.0183550654" width="6.3727922374" height="6.3727923984"/><rect class="cls-13" x="493.4896882408" y="369.645562667" width="6.3727922374" height="6.3727923984"/><rect class="cls-10" x="493.4896882408" y="363.2727702686" width="6.3727922374" height="6.3727923984"/><rect class="cls-10" x="493.4896882408" y="356.8999778702" width="6.3727922374" height="6.3727923984"/><rect class="cls-14" x="493.4896882408" y="350.5271854718" width="6.3727922374" height="6.3727923984"/><rect class="cls-14" x="493.4896882408" y="344.1543930735" width="6.3727922374" height="6.3727923984"/><rect class="cls-16" x="493.4896882408" y="337.7816006751" width="6.3727922374" height="6.3727923984"/><rect class="cls-10" x="493.4896882408" y="331.4088082767" width="6.3727922374" height="6.3727923984"/><rect class="cls-10" x="493.4896882408" y="325.0360158783" width="6.3727922374" height="6.3727923984"/><rect class="cls-10" x="487.1168960034" y="465.2374486428" width="6.3727922374" height="6.3727923984"/><rect class="cls-17" x="487.1168960034" y="458.8646562444" width="6.3727922374" height="6.3727923984"/><rect class="cls-17" x="487.1168960034" y="452.491863846" width="6.3727922374" height="6.3727923984"/><rect class="cls-17" x="487.1168960034" y="446.1190714476" width="6.3727922374" height="6.3727923984"/><rect class="cls-17" x="487.1168960034" y="439.7462790492" width="6.3727922374" height="6.3727923984"/><rect class="cls-17" x="487.1168960034" y="433.3734866508" width="6.3727922374" height="6.3727923984"/><rect class="cls-17" x="487.1168960034" y="427.0006942525" width="6.3727922374" height="6.3727923984"/><rect class="cls-17" x="487.1168960034" y="420.6279018541" width="6.3727922374" height="6.3727923984"/><rect class="cls-17" x="487.1168960034" y="414.2551094557" width="6.3727922374" height="6.3727923984"/><rect class="cls-17" x="487.1168960034" y="407.8823170573" width="6.3727922374" height="6.3727923984"/><rect class="cls-11" x="487.1168960034" y="401.5095246589" width="6.3727922374" height="6.3727923984"/><rect class="cls-10" x="487.1168960034" y="395.1367322605" width="6.3727922374" height="6.3727923984"/><rect class="cls-17" x="487.1168960034" y="388.7639398621" width="6.3727922374" height="6.3727923984"/><rect class="cls-17" x="487.1168960034" y="382.3911474638" width="6.3727922374" height="6.3727923984"/><rect class="cls-17" x="487.1168960034" y="376.0183550654" width="6.3727922374" height="6.3727923984"/><rect class="cls-13" x="487.1168960034" y="369.645562667" width="6.3727922374" height="6.3727923984"/><rect class="cls-10" x="487.1168960034" y="363.2727702686" width="6.3727922374" height="6.3727923984"/><rect class="cls-14" x="487.1168960034" y="356.8999778702" width="6.3727922374" height="6.3727923984"/><rect class="cls-10" x="487.1168960034" y="350.5271854718" width="6.3727922374" height="6.3727923984"/><rect class="cls-14" x="487.1168960034" y="344.1543930735" width="6.3727922374" height="6.3727923984"/><rect class="cls-14" x="487.1168960034" y="337.7816006751" width="6.3727922374" height="6.3727923984"/><rect class="cls-16" x="487.1168960034" y="331.4088082767" width="6.3727922374" height="6.3727923984"/><rect class="cls-10" x="487.1168960034" y="325.0360158783" width="6.3727922374" height="6.3727923984"/><rect class="cls-10" x="487.1168960034" y="318.6632234799" width="6.3727922374" height="6.3727923984"/><rect class="cls-10" x="480.744103766" y="465.2374486428" width="6.3727922374" height="6.3727923984"/><rect class="cls-17" x="480.744103766" y="458.8646562444" width="6.3727922374" height="6.3727923984"/><rect class="cls-17" x="480.744103766" y="452.491863846" width="6.3727922374" height="6.3727923984"/><rect class="cls-17" x="480.744103766" y="446.1190714476" width="6.3727922374" height="6.3727923984"/><rect class="cls-17" x="480.744103766" y="439.7462790492" width="6.3727922374" height="6.3727923984"/><rect class="cls-17" x="480.744103766" y="433.3734866508" width="6.3727922374" height="6.3727923984"/><rect class="cls-17" x="480.744103766" y="427.0006942525" width="6.3727922374" height="6.3727923984"/><rect class="cls-17" x="480.744103766" y="420.6279018541" width="6.3727922374" height="6.3727923984"/><rect class="cls-17" x="480.744103766" y="414.2551094557" width="6.3727922374" height="6.3727923984"/><rect class="cls-17" x="480.744103766" y="407.8823170573" width="6.3727922374" height="6.3727923984"/><rect class="cls-11" x="480.744103766" y="401.5095246589" width="6.3727922374" height="6.3727923984"/><rect class="cls-10" x="480.744103766" y="395.1367322605" width="6.3727922374" height="6.3727923984"/><rect class="cls-17" x="480.744103766" y="388.7639398621" width="6.3727922374" height="6.3727923984"/><rect class="cls-17" x="480.744103766" y="382.3911474638" width="6.3727922374" height="6.3727923984"/><rect class="cls-17" x="480.744103766" y="376.0183550654" width="6.3727922374" height="6.3727923984"/><rect class="cls-13" x="480.744103766" y="369.645562667" width="6.3727922374" height="6.3727923984"/><rect class="cls-10" x="480.744103766" y="363.2727702686" width="6.3727922374" height="6.3727923984"/><rect class="cls-14" x="480.744103766" y="356.8999778702" width="6.3727922374" height="6.3727923984"/><rect class="cls-14" x="480.744103766" y="350.5271854718" width="6.3727922374" height="6.3727923984"/><rect class="cls-10" x="480.744103766" y="344.1543930735" width="6.3727922374" height="6.3727923984"/><rect class="cls-14" x="480.744103766" y="337.7816006751" width="6.3727922374" height="6.3727923984"/><rect class="cls-16" x="480.744103766" y="331.4088082767" width="6.3727922374" height="6.3727923984"/><rect class="cls-16" x="480.744103766" y="325.0360158783" width="6.3727922374" height="6.3727923984"/><rect class="cls-10" x="480.744103766" y="318.6632234799" width="6.3727922374" height="6.3727923984"/><rect class="cls-10" x="474.3713115286" y="465.2374486428" width="6.3727922374" height="6.3727923984"/><rect class="cls-17" x="474.3713115286" y="458.8646562444" width="6.3727922374" height="6.3727923984"/><rect class="cls-17" x="474.3713115286" y="452.491863846" width="6.3727922374" height="6.3727923984"/><rect class="cls-17" x="474.3713115286" y="446.1190714476" width="6.3727922374" height="6.3727923984"/><rect class="cls-17" x="474.3713115286" y="439.7462790492" width="6.3727922374" height="6.3727923984"/><rect class="cls-17" x="474.3713115286" y="433.3734866508" width="6.3727922374" height="6.3727923984"/><rect class="cls-17" x="474.3713115286" y="427.0006942525" width="6.3727922374" height="6.3727923984"/><rect class="cls-17" x="474.3713115286" y="420.6279018541" width="6.3727922374" height="6.3727923984"/><rect class="cls-17" x="474.3713115286" y="414.2551094557" width="6.3727922374" height="6.3727923984"/><rect class="cls-17" x="474.3713115286" y="407.8823170573" width="6.3727922374" height="6.3727923984"/><rect class="cls-11" x="474.3713115286" y="401.5095246589" width="6.3727922374" height="6.3727923984"/><rect class="cls-10" x="474.3713115286" y="395.1367322605" width="6.3727922374" height="6.3727923984"/><rect class="cls-17" x="474.3713115286" y="388.7639398621" width="6.3727922374" height="6.3727923984"/><rect class="cls-17" x="474.3713115286" y="382.3911474638" width="6.3727922374" height="6.3727923984"/><rect class="cls-17" x="474.3713115286" y="376.0183550654" width="6.3727922374" height="6.3727923984"/><rect class="cls-13" x="474.3713115286" y="369.645562667" width="6.3727922374" height="6.3727923984"/><rect class="cls-10" x="474.3713115286" y="363.2727702686" width="6.3727922374" height="6.3727923984"/><rect class="cls-18" x="474.3713115286" y="356.8999778702" width="6.3727922374" height="6.3727923984"/><rect class="cls-14" x="474.3713115286" y="350.5271854718" width="6.3727922374" height="6.3727923984"/><rect class="cls-14" x="474.3713115286" y="344.1543930735" width="6.3727922374" height="6.3727923984"/><rect class="cls-14" x="474.3713115286" y="337.7816006751" width="6.3727922374" height="6.3727923984"/><rect class="cls-18" x="474.3713115286" y="331.4088082767" width="6.3727922374" height="6.3727923984"/><rect class="cls-16" x="474.3713115286" y="325.0360158783" width="6.3727922374" height="6.3727923984"/><rect class="cls-10" x="474.3713115286" y="318.6632234799" width="6.3727922374" height="6.3727923984"/><rect class="cls-10" x="467.9985192912" y="465.2374486428" width="6.3727922374" height="6.3727923984"/><rect class="cls-17" x="467.9985192912" y="458.8646562444" width="6.3727922374" height="6.3727923984"/><rect class="cls-17" x="467.9985192912" y="452.491863846" width="6.3727922374" height="6.3727923984"/><rect class="cls-17" x="467.9985192912" y="446.1190714476" width="6.3727922374" height="6.3727923984"/><rect class="cls-17" x="467.9985192912" y="439.7462790492" width="6.3727922374" height="6.3727923984"/><rect class="cls-17" x="467.9985192912" y="433.3734866508" width="6.3727922374" height="6.3727923984"/><rect class="cls-17" x="467.9985192912" y="427.0006942525" width="6.3727922374" height="6.3727923984"/><rect class="cls-17" x="467.9985192912" y="420.6279018541" width="6.3727922374" height="6.3727923984"/><rect class="cls-17" x="467.9985192912" y="414.2551094557" width="6.3727922374" height="6.3727923984"/><rect class="cls-17" x="467.9985192912" y="407.8823170573" width="6.3727922374" height="6.3727923984"/><rect class="cls-11" x="467.9985192912" y="401.5095246589" width="6.3727922374" height="6.3727923984"/><rect class="cls-10" x="467.9985192912" y="395.1367322605" width="6.3727922374" height="6.3727923984"/><rect class="cls-17" x="467.9985192912" y="388.7639398621" width="6.3727922374" height="6.3727923984"/><rect class="cls-17" x="467.9985192912" y="382.3911474638" width="6.3727922374" height="6.3727923984"/><rect class="cls-17" x="467.9985192912" y="376.0183550654" width="6.3727922374" height="6.3727923984"/><rect class="cls-13" x="467.9985192912" y="369.645562667" width="6.3727922374" height="6.3727923984"/><rect class="cls-10" x="467.9985192912" y="363.2727702686" width="6.3727922374" height="6.3727923984"/><rect class="cls-18" x="467.9985192912" y="356.8999778702" width="6.3727922374" height="6.3727923984"/><rect class="cls-18" x="467.9985192912" y="350.5271854718" width="6.3727922374" height="6.3727923984"/><rect class="cls-18" x="467.9985192912" y="344.1543930735" width="6.3727922374" height="6.3727923984"/><rect class="cls-18" x="467.9985192912" y="337.7816006751" width="6.3727922374" height="6.3727923984"/><rect class="cls-18" x="467.9985192912" y="331.4088082767" width="6.3727922374" height="6.3727923984"/><rect class="cls-16" x="467.9985192912" y="325.0360158783" width="6.3727922374" height="6.3727923984"/><rect class="cls-10" x="467.9985192912" y="318.6632234799" width="6.3727922374" height="6.3727923984"/><rect class="cls-10" x="461.6257270538" y="465.2374486428" width="6.3727922374" height="6.3727923984"/><rect class="cls-10" x="461.6257270538" y="458.8646562444" width="6.3727922374" height="6.3727923984"/><rect class="cls-10" x="461.6257270538" y="452.491863846" width="6.3727922374" height="6.3727923984"/><rect class="cls-10" x="461.6257270538" y="446.1190714476" width="6.3727922374" height="6.3727923984"/><rect class="cls-10" x="461.6257270538" y="439.7462790492" width="6.3727922374" height="6.3727923984"/><rect class="cls-10" x="461.6257270538" y="433.3734866508" width="6.3727922374" height="6.3727923984"/><rect class="cls-10" x="461.6257270538" y="427.0006942525" width="6.3727922374" height="6.3727923984"/><rect class="cls-10" x="461.6257270538" y="420.6279018541" width="6.3727922374" height="6.3727923984"/><rect class="cls-10" x="461.6257270538" y="414.2551094557" width="6.3727922374" height="6.3727923984"/><rect class="cls-10" x="461.6257270538" y="407.8823170573" width="6.3727922374" height="6.3727923984"/><rect class="cls-10" x="461.6257270538" y="401.5095246589" width="6.3727922374" height="6.3727923984"/><rect class="cls-10" x="461.6257270538" y="395.1367322605" width="6.3727922374" height="6.3727923984"/><rect class="cls-17" x="461.6257270538" y="388.7639398621" width="6.3727922374" height="6.3727923984"/><rect class="cls-17" x="461.6257270538" y="382.3911474638" width="6.3727922374" height="6.3727923984"/><rect class="cls-17" x="461.6257270538" y="376.0183550654" width="6.3727922374" height="6.3727923984"/><rect class="cls-13" x="461.6257270538" y="369.645562667" width="6.3727922374" height="6.3727923984"/><rect class="cls-10" x="461.6257270538" y="363.2727702686" width="6.3727922374" height="6.3727923984"/><rect class="cls-10" x="461.6257270538" y="356.8999778702" width="6.3727922374" height="6.3727923984"/><rect class="cls-18" x="461.6257270538" y="350.5271854718" width="6.3727922374" height="6.3727923984"/><rect class="cls-18" x="461.6257270538" y="344.1543930735" width="6.3727922374" height="6.3727923984"/><rect class="cls-18" x="461.6257270538" y="337.7816006751" width="6.3727922374" height="6.3727923984"/><rect class="cls-18" x="461.6257270538" y="331.4088082767" width="6.3727922374" height="6.3727923984"/><rect class="cls-16" x="461.6257270538" y="325.0360158783" width="6.3727922374" height="6.3727923984"/><rect class="cls-10" x="461.6257270538" y="318.6632234799" width="6.3727922374" height="6.3727923984"/><rect class="cls-10" x="455.2529348164" y="388.7639398621" width="6.3727922374" height="6.3727923984"/><rect class="cls-10" x="455.2529348164" y="382.3911474638" width="6.3727922374" height="6.3727923984"/><rect class="cls-10" x="455.2529348164" y="376.0183550654" width="6.3727922374" height="6.3727923984"/><rect class="cls-10" x="455.2529348164" y="369.645562667" width="6.3727922374" height="6.3727923984"/><rect class="cls-10" x="455.2529348164" y="356.8999778702" width="6.3727922374" height="6.3727923984"/><rect class="cls-18" x="455.2529348164" y="350.5271854718" width="6.3727922374" height="6.3727923984"/><rect class="cls-18" x="455.2529348164" y="344.1543930735" width="6.3727922374" height="6.3727923984"/><rect class="cls-18" x="455.2529348164" y="337.7816006751" width="6.3727922374" height="6.3727923984"/><rect class="cls-10" x="455.2529348164" y="331.4088082767" width="6.3727922374" height="6.3727923984"/><rect class="cls-10" x="455.2529348164" y="325.0360158783" width="6.3727922374" height="6.3727923984"/><rect class="cls-10" x="448.880142579" y="356.8999778702" width="6.3727922374" height="6.3727923984"/><rect class="cls-10" x="448.880142579" y="350.5271854718" width="6.3727922374" height="6.3727923984"/><rect class="cls-10" x="448.880142579" y="344.1543930735" width="6.3727922374" height="6.3727923984"/><rect class="cls-10" x="448.880142579" y="337.7816006751" width="6.3727922374" height="6.3727923984"/><rect class="cls-10" x="448.880142579" y="331.4088082767" width="6.3727922374" height="6.3727923984"/></g></g></svg>