<?xml version="1.0" encoding="UTF-8"?><svg id="Capa_2" xmlns="http://www.w3.org/2000/svg" viewBox="0 0 107.6528969193 102.8773451992"><defs><style>.cls-1{fill:#2d2749;}.cls-1,.cls-2{stroke-width:0px;}.cls-2{fill:#747087;}</style></defs><g id="Capa_1-2"><rect class="cls-2" x="41.8812683208" y="7.8593294444" width="4.2954024884" height="8.5909276328" transform="translate(1.4848454601 -4.467079808) rotate(5.9075637539)"/><rect class="cls-2" x="76.0624805195" y="11.396174709" width="4.2954024884" height="8.5909276328" transform="translate(2.0303994518 -7.9663583896) rotate(5.9075637538)"/><rect class="cls-2" x="56.982402059" y="31.0023552755" width="4.2954024884" height="4.2955250358" transform="translate(3.7259635909 -5.9098454568) rotate(5.9075637539)"/><rect class="cls-2" x="46.7942080975" y="4.4822341626" width="12.8864523431" height="4.2955250359" transform="translate(.9651160904 -5.4441913155) rotate(5.9075637539)"/><rect class="cls-2" x="63.8848141969" y="6.250656795" width="12.8864523431" height="4.2955250358" transform="translate(1.2378930862 -7.1938306064) rotate(5.9075637539)"/><rect class="cls-2" x="68.6224447528" y="1.9780671692" width="4.2954177919" height="4.2954025969" transform="translate(.800483374 -7.2620256363) rotate(5.9075637539)"/><rect class="cls-2" x="53.1289976309" y="26.7297656274" width="12.8864374736" height="4.2954025969" transform="translate(3.2885538752 -5.9780404645) rotate(5.9075637539)"/><rect class="cls-2" x="51.5318386546" y=".2096445145" width="4.2954173579" height="4.2954025969" transform="translate(.5277063746 -5.5123863232) rotate(5.9075637539)"/><rect class="cls-2" x="58.2745006297" y="18.8476232342" width="17.1818548315" height="4.2954025969" transform="translate(2.516025949 -6.7705460599) rotate(5.9075637539)"/><rect class="cls-2" x="45.864372393" y="13.9117487444" width="30.0683071746" height="4.2955250358" transform="translate(1.9763242558 -6.1826224595) rotate(5.9075637539)"/><rect class="cls-2" x="45.4564851608" y="17.521299959" width="17.1818548315" height="4.2954025969" transform="translate(2.3114422302 -5.4583103578) rotate(5.9075637539)"/><rect class="cls-2" x="46.3064780622" y="9.639158331" width="30.0683071746" height="4.2954025969" transform="translate(1.5389144221 -6.2508167102) rotate(5.9075637539)"/><rect class="cls-2" x="49.2756859412" y="22.4570527974" width="21.4772726234" height="4.2955250358" transform="translate(2.8511440448 -6.0462347373) rotate(5.9075637539)"/><rect class="cls-2" x="84.2523278356" y="93.0783934445" width="2.8211523896" height="5.6422245081" transform="translate(-37.2228624266 58.0321487479) rotate(-31.1002276382)"/><rect class="cls-2" x="103.5773601868" y="81.4207081622" width="2.821071976" height="5.6422245081" transform="translate(-28.4235626617 66.3385999975) rotate(-31.1002276383)"/><rect class="cls-2" x="100.4723073991" y="99.5303482192" width="2.821071976" height="2.8211524609" transform="translate(-37.4955679289 67.1349713585) rotate(-31.1002276381)"/><rect class="cls-2" x="84.0766669739" y="87.951045694" width="8.4633767553" height="2.8211524609" transform="translate(-33.4655614553 58.4588990125) rotate(-31.1002276382)"/><rect class="cls-2" x="93.7391458323" y="82.122213437" width="8.4633767553" height="2.8211524609" transform="translate(-29.0659194109 62.612117238) rotate(-31.1002276382)"/><rect class="cls-2" x="95.1030892946" y="79.706630899" width="2.8210834726" height="2.8210720472" transform="translate(-28.0276125871 61.512208815) rotate(-31.1002276383)"/><rect class="cls-2" x="96.1939573142" y="97.1147657548" width="8.4633655437" height="2.8210720473" transform="translate(-36.4572611607 66.0350628829) rotate(-31.1002276382)"/><rect class="cls-2" x="85.4406104568" y="85.5354632297" width="2.8210831876" height="2.8210720472" transform="translate(-32.4272546872 57.3589905371) rotate(-31.1002276384)"/><rect class="cls-2" x="95.492441504" y="90.0977066187" width="11.2844487312" height="2.8210720472" transform="translate(-32.7307805764 65.3927039755) rotate(-31.1002276382)"/><rect class="cls-1" x="86.1800982396" y="89.8678691168" width="19.7478254865" height="2.8211524609" transform="translate(-33.3423495984 62.735329203) rotate(-31.1002276382)"/><rect class="cls-2" x="88.2455479326" y="94.4693515797" width="11.2844487312" height="2.8210720472" transform="translate(-36.0305277858 62.2777755083) rotate(-31.1002276382)"/><rect class="cls-1" x="84.7228901385" y="87.452289548" width="19.7478254865" height="2.8210720472" transform="translate(-32.3040450158 61.6354186642) rotate(-31.1002276382)"/><rect class="cls-2" x="91.9156660051" y="94.6991056987" width="14.1055322039" height="2.8211524609" transform="translate(-35.4189565225 64.9351523966) rotate(-31.1002276382)"/><rect class="cls-1" x="98.2864848634" y="94.4963653183" width="2.821071976" height="5.6422245082" transform="translate(-35.938103656 65.485097712) rotate(-31.1002276381)"/><rect class="cls-1" x="90.4584579041" y="92.28352613" width="14.1055322039" height="2.8210720472" transform="translate(-34.3806519399 63.8352418576) rotate(-31.1002276382)"/><rect class="cls-1" x="86.1800982396" y="89.8678691168" width="19.7478254865" height="2.8211524609" transform="translate(-33.3423495984 62.735329203) rotate(-31.1002276382)"/><rect class="cls-1" x="93.2795411121" y="89.4623737427" width="8.4633655437" height="8.4633769691" transform="translate(-34.3806519955 63.8352418052) rotate(-31.1002276382)"/><rect class="cls-1" x="84.7228901385" y="87.452289548" width="19.7478254865" height="2.8210720472" transform="translate(-32.3040450158 61.6354186642) rotate(-31.1002276382)"/><rect class="cls-1" x="86.8978185578" y="87.9510427984" width="2.8210831876" height="2.8211524609" transform="translate(-33.4655592697 58.4589010756) rotate(-31.1002276382)"/><rect class="cls-1" x="96.5602973957" y="82.1222104678" width="2.8210834726" height="2.8211524609" transform="translate(-29.0659171697 62.6121193537) rotate(-31.1002276382)"/><rect class="cls-2" x="93.1862668938" y="87.452289548" width="2.821071976" height="2.8210720472" transform="translate(-32.3040450158 61.6354186643) rotate(-31.1002276382)"/><rect class="cls-2" x="1.0390206948" y="62.9600874422" width="2.821071976" height="5.6422245082" transform="translate(27.3807376299 4.8582747993) rotate(24.3881940542)"/><rect class="cls-2" x="21.5940639251" y="72.2791803388" width="2.8211523896" height="5.6422245082" transform="translate(33.0629029171 -2.7977097184) rotate(24.3881940543)"/><rect class="cls-2" x="6.0745682691" y="80.5923740328" width="2.8211523896" height="2.8211524609" transform="translate(34.5283022433 4.22648302) rotate(24.3881940543)"/><rect class="cls-2" x="5.1039651601" y="62.8463028542" width="8.4633767552" height="2.8211524609" transform="translate(27.3657750254 1.8788728981) rotate(24.3881940542)"/><rect class="cls-2" x="15.381565395" y="67.5058576035" width="8.4632963416" height="2.8211524609" transform="translate(30.2068627303 -1.9491261804) rotate(24.3881940542)"/><rect class="cls-2" x="19.3675219372" y="64.9365168932" width="2.8211523896" height="2.8210720472" transform="translate(29.2498663462 -2.6593955939) rotate(24.3881940541)"/><rect class="cls-2" x="4.4183040334" y="78.0230167204" width="8.4633767553" height="2.8210720472" transform="translate(33.5712957364 3.5162272457) rotate(24.3881940542)"/><rect class="cls-2" x="9.0900021159" y="60.2769621439" width="2.821071976" height="2.8210720472" transform="translate(26.4087786416 1.1686034847) rotate(24.3881940543)"/><rect class="cls-2" x="9.1916267658" y="74.6315899924" width="11.2844487312" height="2.8210720472" transform="translate(32.7227121231 .6601870595) rotate(24.3881940542)"/><rect class="cls-1" x="2.2707333665" y="70.3148337621" width="19.7478254865" height="2.8211524609" transform="translate(30.7003065844 1.3854190054) rotate(24.3881940542)"/><rect class="cls-2" x="1.4834440022" y="71.1369363819" width="11.2845291449" height="2.8210720472" transform="translate(30.5919039366 3.5311761389) rotate(24.3881940542)"/><rect class="cls-1" x="3.4356179327" y="67.7454930518" width="19.7478254865" height="2.8210720472" transform="translate(29.7433102004 .6751495919) rotate(24.3881940542)"/><rect class="cls-2" x="2.7621130359" y="75.4536121985" width="14.1056011209" height="2.8211524609" transform="translate(32.6143094752 2.8059441931) rotate(24.3881940542)"/><rect class="cls-1" x="2.2707333665" y="70.3148337621" width="19.7478254865" height="2.8211524609" transform="translate(30.7003065844 1.3854190054) rotate(24.3881940542)"/><rect class="cls-1" x="3.4356179327" y="67.7454930518" width="19.7478254865" height="2.8210720472" transform="translate(29.7433102004 .6751495919) rotate(24.3881940542)"/><rect class="cls-1" x="7.9251175497" y="62.8463028542" width="2.821071976" height="2.8211524609" transform="translate(27.3657750253 1.878872898) rotate(24.388194054)"/><rect class="cls-1" x="18.202637371" y="67.5058576035" width="2.8211523896" height="2.8211524609" transform="translate(30.2068627304 -1.9491261804) rotate(24.3881940542)"/><rect class="cls-2" x="11.8989911002" y="67.7455096539" width="2.8211523896" height="2.8210720472" transform="translate(29.7433203232 .6751359527) rotate(24.3881940541)"/></g></svg>