<?xml version="1.0" encoding="UTF-8"?><svg id="Capa_2" xmlns="http://www.w3.org/2000/svg" viewBox="0 0 492.5897853936 734.7478179126"><defs><style>.cls-1{fill:#10687c;}.cls-1,.cls-2,.cls-3{stroke-width:0px;}.cls-2{fill:#004350;}.cls-3{fill:#005e73;}</style></defs><g id="Capa_1-2"><rect class="cls-3" width="492.5897853936" height="734.7478179126" rx="21.0379991508" ry="21.0379991508"/><rect class="cls-2" x="41.4553706759" y="71.9125355336" width="3.7001679195" height="3.7000699234"/><rect class="cls-2" x="41.4553706759" y="60.8122202943" width="3.7001679195" height="3.7000699234"/><rect class="cls-1" x="41.4553706759" y="64.5122902176" width="7.4002377494" height="7.4002453159"/><rect class="cls-2" x="48.8556084253" y="71.9125355336" width="3.7000698299" height="3.7000699234"/><rect class="cls-2" x="48.8556084253" y="60.8122202943" width="3.7000698299" height="3.7000699234"/><rect class="cls-2" x="47.0055205888" y="66.3623779606" width="14.8003851627" height="3.7000698299" transform="translate(122.6181260458 13.8066997054) rotate(90)"/><rect class="cls-2" x="45.1555385954" y="79.3127808495" width="3.7000698299" height="3.7000699234" transform="translate(94.0111470207 162.3256316224) rotate(180)"/><rect class="cls-2" x="45.1555385954" y="53.4120804475" width="3.7000698299" height="3.7000699234" transform="translate(94.0111470207 110.5242308184) rotate(180)"/><rect class="cls-2" x="41.4553706759" y="75.6126054569" width="11.1003075793" height="3.7001753926" transform="translate(94.0110489312 154.9253863064) rotate(180)"/><rect class="cls-2" x="41.4553706759" y="57.1121503709" width="11.1003075793" height="3.7000699234" transform="translate(94.0110489312 117.9243706651) rotate(180)"/><rect class="cls-1" x="37.7552934664" y="71.9125355336" width="3.7000772095" height="3.7000699234"/><rect class="cls-1" x="37.7552934664" y="60.8122202943" width="3.7000772095" height="3.7000699234"/><rect class="cls-1" x="45.1555385954" y="71.9125355336" width="3.7000698299" height="3.7000699234"/><rect class="cls-1" x="45.1555385954" y="60.8122202943" width="3.7000698299" height="3.7000699234"/><rect class="cls-1" x="28.5050659701" y="66.3623779606" width="14.8003851627" height="3.7000698299" transform="translate(104.1176714271 32.3071543241) rotate(90)"/><rect class="cls-1" x="43.3054507589" y="66.3623779606" width="14.8003851627" height="3.7000698299" transform="translate(118.9180562159 17.5067695353) rotate(90)"/><rect class="cls-1" x="41.4553706759" y="79.3127808495" width="3.7001679195" height="3.7000699234" transform="translate(86.6109092713 162.3256316224) rotate(180)"/><rect class="cls-1" x="41.4553706759" y="53.4120804475" width="3.7001679195" height="3.7000699234" transform="translate(86.6109092713 110.5242308184) rotate(180)"/><rect class="cls-1" x="37.7552934664" y="75.6126054569" width="11.1003149589" height="3.7001753926" transform="translate(86.6109018917 154.9253863064) rotate(180)"/><rect class="cls-1" x="37.7552934664" y="57.1121503709" width="11.1003149589" height="3.7000699234" transform="translate(86.6109018917 117.9243706651) rotate(180)"/><rect class="cls-2" x="45.1555385954" y="68.2124656102" width="3.7000698299" height="3.7000699234"/><rect class="cls-2" x="45.1555385954" y="64.5123956868" width="3.7000698299" height="3.7000699234"/><rect class="cls-2" x="35.8983539162" y="66.3692297678" width="7.4139563099" height="3.7000772095" transform="translate(107.8246004438 28.6139363014) rotate(90)"/><rect class="cls-2" x="122.8526465122" y="53.880910258" width="3.7001679195" height="3.7000699234"/><rect class="cls-2" x="122.8526465122" y="42.7805950187" width="3.7001679195" height="3.7000699234"/><rect class="cls-1" x="122.8526465122" y="46.4806649421" width="7.4002377494" height="7.4002453159"/><rect class="cls-2" x="130.2528842616" y="53.880910258" width="3.7000698299" height="3.7000699234"/><rect class="cls-2" x="130.2528842616" y="42.7805950187" width="3.7000698299" height="3.7000699234"/><rect class="cls-2" x="128.4027964251" y="48.3307526851" width="14.8003851627" height="3.7000698299" transform="translate(185.9837766065 -85.6222014064) rotate(90)"/><rect class="cls-2" x="126.5528144317" y="61.2811555739" width="3.7000698299" height="3.7000699234" transform="translate(256.8056986933 126.2623810713) rotate(180)"/><rect class="cls-2" x="126.5528144317" y="35.380455172" width="3.7000698299" height="3.7000699234" transform="translate(256.8056986933 74.4609802673) rotate(180)"/><rect class="cls-2" x="122.8526465122" y="57.5809801814" width="11.1003075793" height="3.7001753926" transform="translate(256.8056006037 118.8621357553) rotate(180)"/><rect class="cls-2" x="122.8526465122" y="39.0805250953" width="11.1003075793" height="3.7000699234" transform="translate(256.8056006037 81.861120114) rotate(180)"/><rect class="cls-1" x="119.1525693027" y="53.880910258" width="3.7000772095" height="3.7000699234"/><rect class="cls-1" x="119.1525693027" y="42.7805950187" width="3.7000772095" height="3.7000699234"/><rect class="cls-1" x="126.5528144317" y="53.880910258" width="3.7000698299" height="3.7000699234"/><rect class="cls-1" x="126.5528144317" y="42.7805950187" width="3.7000698299" height="3.7000699234"/><rect class="cls-1" x="109.9023418064" y="48.3307526851" width="14.8003851627" height="3.7000698299" transform="translate(167.4833219878 -67.1217467877) rotate(90)"/><rect class="cls-1" x="124.7027265952" y="48.3307526851" width="14.8003851627" height="3.7000698299" transform="translate(182.2837067766 -81.9221315765) rotate(90)"/><rect class="cls-1" x="122.8526465122" y="61.2811555739" width="3.7001679195" height="3.7000699234" transform="translate(249.4054609439 126.2623810713) rotate(180)"/><rect class="cls-1" x="122.8526465122" y="35.380455172" width="3.7001679195" height="3.7000699234" transform="translate(249.4054609439 74.4609802673) rotate(180)"/><rect class="cls-1" x="119.1525693027" y="57.5809801814" width="11.1003149589" height="3.7001753926" transform="translate(249.4054535643 118.8621357553) rotate(180)"/><rect class="cls-1" x="119.1525693027" y="39.0805250953" width="11.1003149589" height="3.7000699234" transform="translate(249.4054535643 81.861120114) rotate(180)"/><rect class="cls-2" x="126.5528144317" y="50.1808403346" width="3.7000698299" height="3.7000699234"/><rect class="cls-2" x="126.5528144317" y="46.4807704113" width="3.7000698299" height="3.7000699234"/><rect class="cls-2" x="117.2956297525" y="48.3376044923" width="7.4139563099" height="3.7000772095" transform="translate(171.1902510045 -70.8149648104) rotate(90)"/><rect class="cls-2" x="230.6646550145" y="77.3530957133" width="3.7001679195" height="3.7000699234"/><rect class="cls-2" x="230.6646550145" y="66.252780474" width="3.7001679195" height="3.7000699234"/><rect class="cls-1" x="230.6646550145" y="69.9528503973" width="7.4002377494" height="7.4002453159"/><rect class="cls-2" x="238.0648927639" y="77.3530957133" width="3.7000698299" height="3.7000699234"/><rect class="cls-2" x="238.0648927639" y="66.252780474" width="3.7000698299" height="3.7000699234"/><rect class="cls-2" x="236.2148049274" y="71.8029381404" width="14.8003851627" height="3.7000698299" transform="translate(317.2679705641 -169.9620244535) rotate(90)"/><rect class="cls-2" x="234.364822934" y="84.7533410292" width="3.7000698299" height="3.7000699234" transform="translate(472.4297156979 173.2067519818) rotate(180)"/><rect class="cls-2" x="234.364822934" y="58.8526406272" width="3.7000698299" height="3.7000699234" transform="translate(472.4297156979 121.4053511778) rotate(180)"/><rect class="cls-2" x="230.6646550145" y="81.0531656366" width="11.1003075793" height="3.7001753926" transform="translate(472.4296176084 165.8065066658) rotate(180)"/><rect class="cls-2" x="230.6646550145" y="62.5527105506" width="11.1003075793" height="3.7000699234" transform="translate(472.4296176084 128.8054910246) rotate(180)"/><rect class="cls-1" x="226.964577805" y="77.3530957133" width="3.7000772095" height="3.7000699234"/><rect class="cls-1" x="226.964577805" y="66.252780474" width="3.7000772095" height="3.7000699234"/><rect class="cls-1" x="234.364822934" y="77.3530957133" width="3.7000698299" height="3.7000699234"/><rect class="cls-1" x="234.364822934" y="66.252780474" width="3.7000698299" height="3.7000699234"/><rect class="cls-1" x="217.7143503087" y="71.8029381404" width="14.8003851627" height="3.7000698299" transform="translate(298.7675159454 -151.4615698348) rotate(90)"/><rect class="cls-1" x="232.5147350975" y="71.8029381404" width="14.8003851627" height="3.7000698299" transform="translate(313.5679007342 -166.2619546236) rotate(90)"/><rect class="cls-1" x="230.6646550145" y="84.7533410292" width="3.7001679195" height="3.7000699234" transform="translate(465.0294779486 173.2067519818) rotate(180)"/><rect class="cls-1" x="230.6646550145" y="58.8526406272" width="3.7001679195" height="3.7000699234" transform="translate(465.0294779486 121.4053511778) rotate(180)"/><rect class="cls-1" x="226.964577805" y="81.0531656366" width="11.1003149589" height="3.7001753926" transform="translate(465.029470569 165.8065066658) rotate(180)"/><rect class="cls-1" x="226.964577805" y="62.5527105506" width="11.1003149589" height="3.7000699234" transform="translate(465.029470569 128.8054910246) rotate(180)"/><rect class="cls-2" x="234.364822934" y="73.6530257899" width="3.7000698299" height="3.7000699234"/><rect class="cls-2" x="234.364822934" y="69.9529558665" width="3.7000698299" height="3.7000699234"/><rect class="cls-2" x="225.1076382548" y="71.8097899475" width="7.4139563099" height="3.7000772095" transform="translate(302.4744449621 -155.1547878575) rotate(90)"/><rect class="cls-2" x="130.2528389066" y="295.558950798" width="3.7001679195" height="3.7000699234"/><rect class="cls-2" x="130.2528389066" y="284.4586355586" width="3.7001679195" height="3.7000699234"/><rect class="cls-1" x="130.2528389066" y="288.158705482" width="7.4002377494" height="7.4002453159"/><rect class="cls-2" x="137.653076656" y="295.558950798" width="3.7000698299" height="3.7000699234"/><rect class="cls-2" x="137.653076656" y="284.4586355586" width="3.7000698299" height="3.7000699234"/><rect class="cls-2" x="135.8029888195" y="290.008793225" width="14.8003851627" height="3.7000698299" transform="translate(435.0620095408 148.6556467392) rotate(90)"/><rect class="cls-2" x="133.9530068261" y="302.9591961139" width="3.7000698299" height="3.7000699234" transform="translate(271.606083482 609.6184621511) rotate(180)"/><rect class="cls-2" x="133.9530068261" y="277.0584957119" width="3.7000698299" height="3.7000699234" transform="translate(271.606083482 557.8170613472) rotate(180)"/><rect class="cls-2" x="130.2528389066" y="299.2590207213" width="11.1003075793" height="3.7001753926" transform="translate(271.6059853925 602.2182168352) rotate(180)"/><rect class="cls-2" x="130.2528389066" y="280.7585656353" width="11.1003075793" height="3.7000699234" transform="translate(271.6059853925 565.2172011939) rotate(180)"/><rect class="cls-1" x="126.5527616971" y="295.558950798" width="3.7000772095" height="3.7000699234"/><rect class="cls-1" x="126.5527616971" y="284.4586355586" width="3.7000772095" height="3.7000699234"/><rect class="cls-1" x="133.9530068261" y="295.558950798" width="3.7000698299" height="3.7000699234"/><rect class="cls-1" x="133.9530068261" y="284.4586355586" width="3.7000698299" height="3.7000699234"/><rect class="cls-1" x="117.3025342008" y="290.008793225" width="14.8003851627" height="3.7000698299" transform="translate(416.5615549221 167.1561013579) rotate(90)"/><rect class="cls-1" x="132.1029189896" y="290.008793225" width="14.8003851627" height="3.7000698299" transform="translate(431.3619397109 152.3557165691) rotate(90)"/><rect class="cls-1" x="130.2528389066" y="302.9591961139" width="3.7001679195" height="3.7000699234" transform="translate(264.2058457326 609.6184621511) rotate(180)"/><rect class="cls-1" x="130.2528389066" y="277.0584957119" width="3.7001679195" height="3.7000699234" transform="translate(264.2058457326 557.8170613472) rotate(180)"/><rect class="cls-1" x="126.5527616971" y="299.2590207213" width="11.1003149589" height="3.7001753926" transform="translate(264.2058383531 602.2182168352) rotate(180)"/><rect class="cls-1" x="126.5527616971" y="280.7585656353" width="11.1003149589" height="3.7000699234" transform="translate(264.2058383531 565.2172011939) rotate(180)"/><rect class="cls-2" x="133.9530068261" y="291.8588808746" width="3.7000698299" height="3.7000699234"/><rect class="cls-2" x="133.9530068261" y="288.1588109512" width="3.7000698299" height="3.7000699234"/><rect class="cls-2" x="124.6958221469" y="290.0156450322" width="7.4139563099" height="3.7000772095" transform="translate(420.2684839388 163.4628833351) rotate(90)"/><rect class="cls-2" x="175.0384488765" y="691.1694034386" width="3.7001679195" height="3.7000699234"/><rect class="cls-2" x="175.0384488765" y="680.0690881993" width="3.7001679195" height="3.7000699234"/><rect class="cls-1" x="175.0384488765" y="683.7691581227" width="7.4002377494" height="7.4002453159"/><rect class="cls-2" x="182.4386866259" y="691.1694034386" width="3.7000698299" height="3.7000699234"/><rect class="cls-2" x="182.4386866259" y="680.0690881993" width="3.7000698299" height="3.7000699234"/><rect class="cls-2" x="180.5885987894" y="685.6192458657" width="14.8003851627" height="3.7000698299" transform="translate(875.4580721513 499.4804894099) rotate(90)"/><rect class="cls-2" x="178.738616796" y="698.5696487545" width="3.7000698299" height="3.7000699234" transform="translate(361.1773034218 1400.8393674324) rotate(180)"/><rect class="cls-2" x="178.738616796" y="672.6689483525" width="3.7000698299" height="3.7000699234" transform="translate(361.1773034218 1349.0379666284) rotate(180)"/><rect class="cls-2" x="175.0384488765" y="694.869473362" width="11.1003075793" height="3.7001753926" transform="translate(361.1772053322 1393.4391221165) rotate(180)"/><rect class="cls-2" x="175.0384488765" y="676.3690182759" width="11.1003075793" height="3.7000699234" transform="translate(361.1772053322 1356.4381064752) rotate(180)"/><rect class="cls-1" x="171.338371667" y="691.1694034386" width="3.7000772095" height="3.7000699234"/><rect class="cls-1" x="171.338371667" y="680.0690881993" width="3.7000772095" height="3.7000699234"/><rect class="cls-1" x="178.738616796" y="691.1694034386" width="3.7000698299" height="3.7000699234"/><rect class="cls-1" x="178.738616796" y="680.0690881993" width="3.7000698299" height="3.7000699234"/><rect class="cls-1" x="162.0881441707" y="685.6192458657" width="14.8003851627" height="3.7000698299" transform="translate(856.9576175326 517.9809440286) rotate(90)"/><rect class="cls-1" x="176.8885289595" y="685.6192458657" width="14.8003851627" height="3.7000698299" transform="translate(871.7580023214 503.1805592398) rotate(90)"/><rect class="cls-1" x="175.0384488765" y="698.5696487545" width="3.7001679195" height="3.7000699234" transform="translate(353.7770656724 1400.8393674324) rotate(180)"/><rect class="cls-1" x="175.0384488765" y="672.6689483525" width="3.7001679195" height="3.7000699234" transform="translate(353.7770656724 1349.0379666284) rotate(180)"/><rect class="cls-1" x="171.338371667" y="694.869473362" width="11.1003149589" height="3.7001753926" transform="translate(353.7770582928 1393.4391221165) rotate(180)"/><rect class="cls-1" x="171.338371667" y="676.3690182759" width="11.1003149589" height="3.7000699234" transform="translate(353.7770582928 1356.4381064752) rotate(180)"/><rect class="cls-2" x="178.738616796" y="687.4693335152" width="3.7000698299" height="3.7000699234"/><rect class="cls-2" x="178.738616796" y="683.7692635918" width="3.7000698299" height="3.7000699234"/><rect class="cls-2" x="169.4814321168" y="685.6260976728" width="7.4139563099" height="3.7000772095" transform="translate(860.6645465493 514.2877260059) rotate(90)"/><rect class="cls-2" x="260.5030653171" y="630.9526663965" width="3.7001679195" height="3.7000699234"/><rect class="cls-2" x="260.5030653171" y="619.8523511572" width="3.7001679195" height="3.7000699234"/><rect class="cls-1" x="260.5030653171" y="623.5524210805" width="7.4002377494" height="7.4002453159"/><rect class="cls-2" x="267.9033030665" y="630.9526663965" width="3.7000698299" height="3.7000699234"/><rect class="cls-2" x="267.9033030665" y="619.8523511572" width="3.7000698299" height="3.7000699234"/><rect class="cls-2" x="266.05321523" y="625.4025088236" width="14.8003851627" height="3.7000698299" transform="translate(900.7059515499 353.7991359272) rotate(90)"/><rect class="cls-2" x="264.2032332366" y="638.3529117124" width="3.7000698299" height="3.7000699234" transform="translate(532.1065363031 1280.4058933482) rotate(180)"/><rect class="cls-2" x="264.2032332366" y="612.4522113104" width="3.7000698299" height="3.7000699234" transform="translate(532.1065363031 1228.6044925442) rotate(180)"/><rect class="cls-2" x="260.5030653171" y="634.6527363199" width="11.1003075793" height="3.7001753926" transform="translate(532.1064382135 1273.0056480323) rotate(180)"/><rect class="cls-2" x="260.5030653171" y="616.1522812338" width="11.1003075793" height="3.7000699234" transform="translate(532.1064382135 1236.004632391) rotate(180)"/><rect class="cls-1" x="256.8029881076" y="630.9526663965" width="3.7000772095" height="3.7000699234"/><rect class="cls-1" x="256.8029881076" y="619.8523511572" width="3.7000772095" height="3.7000699234"/><rect class="cls-1" x="264.2032332366" y="630.9526663965" width="3.7000698299" height="3.7000699234"/><rect class="cls-1" x="264.2032332366" y="619.8523511572" width="3.7000698299" height="3.7000699234"/><rect class="cls-1" x="247.5527606113" y="625.4025088236" width="14.8003851627" height="3.7000698299" transform="translate(882.2054969312 372.2995905458) rotate(90)"/><rect class="cls-1" x="262.3531454001" y="625.4025088236" width="14.8003851627" height="3.7000698299" transform="translate(897.00588172 357.4992057571) rotate(90)"/><rect class="cls-1" x="260.5030653171" y="638.3529117124" width="3.7001679195" height="3.7000699234" transform="translate(524.7062985537 1280.4058933482) rotate(180)"/><rect class="cls-1" x="260.5030653171" y="612.4522113104" width="3.7001679195" height="3.7000699234" transform="translate(524.7062985537 1228.6044925442) rotate(180)"/><rect class="cls-1" x="256.8029881076" y="634.6527363199" width="11.1003149589" height="3.7001753926" transform="translate(524.7062911741 1273.0056480323) rotate(180)"/><rect class="cls-1" x="256.8029881076" y="616.1522812338" width="11.1003149589" height="3.7000699234" transform="translate(524.7062911741 1236.004632391) rotate(180)"/><rect class="cls-2" x="264.2032332366" y="627.2525964731" width="3.7000698299" height="3.7000699234"/><rect class="cls-2" x="264.2032332366" y="623.5525265497" width="3.7000698299" height="3.7000699234"/><rect class="cls-2" x="254.9460485574" y="625.4093606307" width="7.4139563099" height="3.7000772095" transform="translate(885.9124259479 368.6063725231) rotate(90)"/><rect class="cls-2" x="335.2340659261" y="131.2286347677" width="3.7001679195" height="3.7000699234"/><rect class="cls-2" x="335.2340659261" y="120.1283195284" width="3.7001679195" height="3.7000699234"/><rect class="cls-1" x="335.2340659261" y="123.8283894518" width="7.4002377494" height="7.4002453159"/><rect class="cls-2" x="342.6343036755" y="131.2286347677" width="3.7000698299" height="3.7000699234"/><rect class="cls-2" x="342.6343036755" y="120.1283195284" width="3.7000698299" height="3.7000699234"/><rect class="cls-2" x="340.784215839" y="125.6784771948" width="14.8003851627" height="3.7000698299" transform="translate(475.7129205301 -220.6558963107) rotate(90)"/><rect class="cls-2" x="338.9342338456" y="138.6288800836" width="3.7000698299" height="3.7000699234" transform="translate(681.5685375212 280.9578300906) rotate(180)"/><rect class="cls-2" x="338.9342338456" y="112.7281796816" width="3.7000698299" height="3.7000699234" transform="translate(681.5685375212 229.1564292867) rotate(180)"/><rect class="cls-2" x="335.2340659261" y="134.9287046911" width="11.1003075793" height="3.7001753926" transform="translate(681.5684394316 273.5575847747) rotate(180)"/><rect class="cls-2" x="335.2340659261" y="116.428249605" width="11.1003075793" height="3.7000699234" transform="translate(681.5684394316 236.5565691334) rotate(180)"/><rect class="cls-1" x="331.5339887166" y="131.2286347677" width="3.7000772095" height="3.7000699234"/><rect class="cls-1" x="331.5339887166" y="120.1283195284" width="3.7000772095" height="3.7000699234"/><rect class="cls-1" x="338.9342338456" y="131.2286347677" width="3.7000698299" height="3.7000699234"/><rect class="cls-1" x="338.9342338456" y="120.1283195284" width="3.7000698299" height="3.7000699234"/><rect class="cls-1" x="322.2837612204" y="125.6784771948" width="14.8003851627" height="3.7000698299" transform="translate(457.2124659114 -202.155441692) rotate(90)"/><rect class="cls-1" x="337.0841460091" y="125.6784771948" width="14.8003851627" height="3.7000698299" transform="translate(472.0128507002 -216.9558264808) rotate(90)"/><rect class="cls-1" x="335.2340659261" y="138.6288800836" width="3.7001679195" height="3.7000699234" transform="translate(674.1682997718 280.9578300906) rotate(180)"/><rect class="cls-1" x="335.2340659261" y="112.7281796816" width="3.7001679195" height="3.7000699234" transform="translate(674.1682997718 229.1564292867) rotate(180)"/><rect class="cls-1" x="331.5339887166" y="134.9287046911" width="11.1003149589" height="3.7001753926" transform="translate(674.1682923922 273.5575847747) rotate(180)"/><rect class="cls-1" x="331.5339887166" y="116.428249605" width="11.1003149589" height="3.7000699234" transform="translate(674.1682923922 236.5565691334) rotate(180)"/><rect class="cls-2" x="338.9342338456" y="127.5285648443" width="3.7000698299" height="3.7000699234"/><rect class="cls-2" x="338.9342338456" y="123.8284949209" width="3.7000698299" height="3.7000699234"/><rect class="cls-2" x="329.6770491665" y="125.685329002" width="7.4139563099" height="3.7000772095" transform="translate(460.9193949281 -205.8486597147) rotate(90)"/><rect class="cls-2" x="411.7765372065" y="55.5850777208" width="3.7001679195" height="3.7000699234"/><rect class="cls-2" x="411.7765372065" y="44.4847624815" width="3.7001679195" height="3.7000699234"/><rect class="cls-1" x="411.7765372065" y="48.1848324049" width="7.4002377494" height="7.4002453159"/><rect class="cls-2" x="419.1767749559" y="55.5850777208" width="3.7000698299" height="3.7000699234"/><rect class="cls-2" x="419.1767749559" y="44.4847624815" width="3.7000698299" height="3.7000699234"/><rect class="cls-2" x="417.3266871194" y="50.0349201479" width="14.8003851627" height="3.7000698299" transform="translate(476.6118347636 -372.8419246379) rotate(90)"/><rect class="cls-2" x="415.476705126" y="62.9853230367" width="3.7000698299" height="3.7000699234" transform="translate(834.6534800819 129.6707159968) rotate(180)"/><rect class="cls-2" x="415.476705126" y="37.0846226347" width="3.7000698299" height="3.7000699234" transform="translate(834.6534800819 77.8693151929) rotate(180)"/><rect class="cls-2" x="411.7765372065" y="59.2851476442" width="11.1003075793" height="3.7001753926" transform="translate(834.6533819924 122.2704706809) rotate(180)"/><rect class="cls-2" x="411.7765372065" y="40.7846925581" width="11.1003075793" height="3.7000699234" transform="translate(834.6533819924 85.2694550396) rotate(180)"/><rect class="cls-1" x="408.076459997" y="55.5850777208" width="3.7000772095" height="3.7000699234"/><rect class="cls-1" x="408.076459997" y="44.4847624815" width="3.7000772095" height="3.7000699234"/><rect class="cls-1" x="415.476705126" y="55.5850777208" width="3.7000698299" height="3.7000699234"/><rect class="cls-1" x="415.476705126" y="44.4847624815" width="3.7000698299" height="3.7000699234"/><rect class="cls-1" x="398.8262325007" y="50.0349201479" width="14.8003851627" height="3.7000698299" transform="translate(458.1113801449 -354.3414700192) rotate(90)"/><rect class="cls-1" x="413.6266172895" y="50.0349201479" width="14.8003851627" height="3.7000698299" transform="translate(472.9117649337 -369.141854808) rotate(90)"/><rect class="cls-1" x="411.7765372065" y="62.9853230367" width="3.7001679195" height="3.7000699234" transform="translate(827.2532423325 129.6707159968) rotate(180)"/><rect class="cls-1" x="411.7765372065" y="37.0846226347" width="3.7001679195" height="3.7000699234" transform="translate(827.2532423325 77.8693151929) rotate(180)"/><rect class="cls-1" x="408.076459997" y="59.2851476442" width="11.1003149589" height="3.7001753926" transform="translate(827.253234953 122.2704706809) rotate(180)"/><rect class="cls-1" x="408.076459997" y="40.7846925581" width="11.1003149589" height="3.7000699234" transform="translate(827.253234953 85.2694550396) rotate(180)"/><rect class="cls-2" x="415.476705126" y="51.8850077974" width="3.7000698299" height="3.7000699234"/><rect class="cls-2" x="415.476705126" y="48.1849378741" width="3.7000698299" height="3.7000699234"/><rect class="cls-2" x="406.2195204468" y="50.0417719551" width="7.4139563099" height="3.7000772095" transform="translate(461.8183091616 -358.034688042) rotate(90)"/><rect class="cls-2" x="30.0614044306" y="481.0301487448" width="3.7001679195" height="3.7000699234"/><rect class="cls-2" x="30.0614044306" y="469.9298335055" width="3.7001679195" height="3.7000699234"/><rect class="cls-1" x="30.0614044306" y="473.6299034289" width="7.4002377494" height="7.4002453159"/><rect class="cls-2" x="37.46164218" y="481.0301487448" width="3.7000698299" height="3.7000699234"/><rect class="cls-2" x="37.46164218" y="469.9298335055" width="3.7000698299" height="3.7000699234"/><rect class="cls-2" x="35.6115543435" y="475.4799911719" width="14.8003851627" height="3.7000698299" transform="translate(520.3417730116 434.318279162) rotate(90)"/><rect class="cls-2" x="33.7615723501" y="488.4303940607" width="3.7000698299" height="3.7000699234" transform="translate(71.22321453 980.5608580448) rotate(180)"/><rect class="cls-2" x="33.7615723501" y="462.5296936587" width="3.7000698299" height="3.7000699234" transform="translate(71.22321453 928.7594572408) rotate(180)"/><rect class="cls-2" x="30.0614044306" y="484.7302186682" width="11.1003075793" height="3.7001753926" transform="translate(71.2231164405 973.1606127289) rotate(180)"/><rect class="cls-2" x="30.0614044306" y="466.2297635821" width="11.1003075793" height="3.7000699234" transform="translate(71.2231164405 936.1595970876) rotate(180)"/><rect class="cls-1" x="26.3613272211" y="481.0301487448" width="3.7000772095" height="3.7000699234"/><rect class="cls-1" x="26.3613272211" y="469.9298335055" width="3.7000772095" height="3.7000699234"/><rect class="cls-1" x="33.7615723501" y="481.0301487448" width="3.7000698299" height="3.7000699234"/><rect class="cls-1" x="33.7615723501" y="469.9298335055" width="3.7000698299" height="3.7000699234"/><rect class="cls-1" x="17.1110997248" y="475.4799911719" width="14.8003851627" height="3.7000698299" transform="translate(501.8413183929 452.8187337807) rotate(90)"/><rect class="cls-1" x="31.9114845136" y="475.4799911719" width="14.8003851627" height="3.7000698299" transform="translate(516.6417031817 438.0183489919) rotate(90)"/><rect class="cls-1" x="30.0614044306" y="488.4303940607" width="3.7001679195" height="3.7000699234" transform="translate(63.8229767806 980.5608580448) rotate(180)"/><rect class="cls-1" x="30.0614044306" y="462.5296936587" width="3.7001679195" height="3.7000699234" transform="translate(63.8229767806 928.7594572408) rotate(180)"/><rect class="cls-1" x="26.3613272211" y="484.7302186682" width="11.1003149589" height="3.7001753926" transform="translate(63.822969401 973.1606127289) rotate(180)"/><rect class="cls-1" x="26.3613272211" y="466.2297635821" width="11.1003149589" height="3.7000699234" transform="translate(63.822969401 936.1595970876) rotate(180)"/><rect class="cls-2" x="33.7615723501" y="477.3300788214" width="3.7000698299" height="3.7000699234"/><rect class="cls-2" x="33.7615723501" y="473.630008898" width="3.7000698299" height="3.7000699234"/><rect class="cls-2" x="24.5043876709" y="475.486842979" width="7.4139563099" height="3.7000772095" transform="translate(505.5482474096 449.125515758) rotate(90)"/><rect class="cls-2" x="89.5789418798" y="474.1220281995" width="3.7001679195" height="3.7000699234"/><rect class="cls-2" x="89.5789418798" y="463.0217129602" width="3.7001679195" height="3.7000699234"/><rect class="cls-1" x="89.5789418798" y="466.7217828836" width="7.4002377494" height="7.4002453159"/><rect class="cls-2" x="96.9791796292" y="474.1220281995" width="3.7000698299" height="3.7000699234"/><rect class="cls-2" x="96.9791796292" y="463.0217129602" width="3.7000698299" height="3.7000699234"/><rect class="cls-2" x="95.1290917927" y="468.5718706266" width="14.8003851627" height="3.7000698299" transform="translate(572.9511899156 367.8926211675) rotate(90)"/><rect class="cls-2" x="93.2791097993" y="481.5222735154" width="3.7000698299" height="3.7000699234" transform="translate(190.2582894285 966.7446169542) rotate(180)"/><rect class="cls-2" x="93.2791097993" y="455.6215731134" width="3.7000698299" height="3.7000699234" transform="translate(190.2582894285 914.9432161502) rotate(180)"/><rect class="cls-2" x="89.5789418798" y="477.8220981229" width="11.1003075793" height="3.7001753926" transform="translate(190.2581913389 959.3443716383) rotate(180)"/><rect class="cls-2" x="89.5789418798" y="459.3216430368" width="11.1003075793" height="3.7000699234" transform="translate(190.2581913389 922.343355997) rotate(180)"/><rect class="cls-1" x="85.8788646703" y="474.1220281995" width="3.7000772095" height="3.7000699234"/><rect class="cls-1" x="85.8788646703" y="463.0217129602" width="3.7000772095" height="3.7000699234"/><rect class="cls-1" x="93.2791097993" y="474.1220281995" width="3.7000698299" height="3.7000699234"/><rect class="cls-1" x="93.2791097993" y="463.0217129602" width="3.7000698299" height="3.7000699234"/><rect class="cls-1" x="76.628637174" y="468.5718706266" width="14.8003851627" height="3.7000698299" transform="translate(554.4507352969 386.3930757862) rotate(90)"/><rect class="cls-1" x="91.4290219628" y="468.5718706266" width="14.8003851627" height="3.7000698299" transform="translate(569.2511200857 371.5926909974) rotate(90)"/><rect class="cls-1" x="89.5789418798" y="481.5222735154" width="3.7001679195" height="3.7000699234" transform="translate(182.8580516791 966.7446169542) rotate(180)"/><rect class="cls-1" x="89.5789418798" y="455.6215731134" width="3.7001679195" height="3.7000699234" transform="translate(182.8580516791 914.9432161502) rotate(180)"/><rect class="cls-1" x="85.8788646703" y="477.8220981229" width="11.1003149589" height="3.7001753926" transform="translate(182.8580442995 959.3443716383) rotate(180)"/><rect class="cls-1" x="85.8788646703" y="459.3216430368" width="11.1003149589" height="3.7000699234" transform="translate(182.8580442995 922.343355997) rotate(180)"/><rect class="cls-2" x="93.2791097993" y="470.4219582761" width="3.7000698299" height="3.7000699234"/><rect class="cls-2" x="93.2791097993" y="466.7218883527" width="3.7000698299" height="3.7000699234"/><rect class="cls-2" x="84.0219251201" y="468.5787224337" width="7.4139563099" height="3.7000772095" transform="translate(558.1576643136 382.6998577634) rotate(90)"/><rect class="cls-2" x="230.8548580103" y="407.469444598" width="3.7001679195" height="3.7000699234"/><rect class="cls-2" x="230.8548580103" y="396.3691293587" width="3.7001679195" height="3.7000699234"/><rect class="cls-1" x="230.8548580103" y="400.069199282" width="7.4002377494" height="7.4002453159"/><rect class="cls-2" x="238.2550957596" y="407.469444598" width="3.7000698299" height="3.7000699234"/><rect class="cls-2" x="238.2550957596" y="396.3691293587" width="3.7000698299" height="3.7000699234"/><rect class="cls-2" x="236.4050079232" y="401.919287025" width="14.8003851627" height="3.7000698299" transform="translate(647.5745224445 159.9641214355) rotate(90)"/><rect class="cls-2" x="234.5550259297" y="414.8696899139" width="3.7000698299" height="3.7000699234" transform="translate(472.8101216894 833.4394497512) rotate(180)"/><rect class="cls-2" x="234.5550259297" y="388.9689895119" width="3.7000698299" height="3.7000699234" transform="translate(472.8101216894 781.6380489472) rotate(180)"/><rect class="cls-2" x="230.8548580103" y="411.1695145213" width="11.1003075793" height="3.7001753926" transform="translate(472.8100235998 826.0392044352) rotate(180)"/><rect class="cls-2" x="230.8548580103" y="392.6690594353" width="11.1003075793" height="3.7000699234" transform="translate(472.8100235998 789.0381887939) rotate(180)"/><rect class="cls-1" x="227.1547808008" y="407.469444598" width="3.7000772095" height="3.7000699234"/><rect class="cls-1" x="227.1547808008" y="396.3691293587" width="3.7000772095" height="3.7000699234"/><rect class="cls-1" x="234.5550259297" y="407.469444598" width="3.7000698299" height="3.7000699234"/><rect class="cls-1" x="234.5550259297" y="396.3691293587" width="3.7000698299" height="3.7000699234"/><rect class="cls-1" x="217.9045533045" y="401.919287025" width="14.8003851627" height="3.7000698299" transform="translate(629.0740678258 178.4645760542) rotate(90)"/><rect class="cls-1" x="232.7049380933" y="401.919287025" width="14.8003851627" height="3.7000698299" transform="translate(643.8744526146 163.6641912654) rotate(90)"/><rect class="cls-1" x="230.8548580103" y="414.8696899139" width="3.7001679195" height="3.7000699234" transform="translate(465.40988394 833.4394497512) rotate(180)"/><rect class="cls-1" x="230.8548580103" y="388.9689895119" width="3.7001679195" height="3.7000699234" transform="translate(465.40988394 781.6380489472) rotate(180)"/><rect class="cls-1" x="227.1547808008" y="411.1695145213" width="11.1003149589" height="3.7001753926" transform="translate(465.4098765604 826.0392044352) rotate(180)"/><rect class="cls-1" x="227.1547808008" y="392.6690594353" width="11.1003149589" height="3.7000699234" transform="translate(465.4098765604 789.0381887939) rotate(180)"/><rect class="cls-2" x="234.5550259297" y="403.7693746746" width="3.7000698299" height="3.7000699234"/><rect class="cls-2" x="234.5550259297" y="400.0693047512" width="3.7000698299" height="3.7000699234"/><rect class="cls-2" x="225.2978412506" y="401.9261388322" width="7.4139563099" height="3.7000772095" transform="translate(632.7809968425 174.7713580315) rotate(90)"/><rect class="cls-2" x="46.3021602262" y="236.6969072249" width="3.7001679195" height="3.7000699234"/><rect class="cls-2" x="46.3021602262" y="225.5965919856" width="3.7001679195" height="3.7000699234"/><rect class="cls-1" x="46.3021602262" y="229.296661909" width="7.4002377494" height="7.4002453159"/><rect class="cls-2" x="53.7023979756" y="236.6969072249" width="3.7000698299" height="3.7000699234"/><rect class="cls-2" x="53.7023979756" y="225.5965919856" width="3.7000698299" height="3.7000699234"/><rect class="cls-2" x="51.8523101391" y="231.146749652" width="14.8003851627" height="3.7000698299" transform="translate(292.2492872874 173.7442818465) rotate(90)"/><rect class="cls-2" x="50.0023281457" y="244.0971525409" width="3.7000698299" height="3.7000699234" transform="translate(103.7047261213 491.8943750051) rotate(180)"/><rect class="cls-2" x="50.0023281457" y="218.1964521389" width="3.7000698299" height="3.7000699234" transform="translate(103.7047261213 440.0929742011) rotate(180)"/><rect class="cls-2" x="46.3021602262" y="240.3969771483" width="11.1003075793" height="3.7001753926" transform="translate(103.7046280317 484.4941296892) rotate(180)"/><rect class="cls-2" x="46.3021602262" y="221.8965220623" width="11.1003075793" height="3.7000699234" transform="translate(103.7046280317 447.4931140479) rotate(180)"/><rect class="cls-1" x="42.6020830167" y="236.6969072249" width="3.7000772095" height="3.7000699234"/><rect class="cls-1" x="42.6020830167" y="225.5965919856" width="3.7000772095" height="3.7000699234"/><rect class="cls-1" x="50.0023281457" y="236.6969072249" width="3.7000698299" height="3.7000699234"/><rect class="cls-1" x="50.0023281457" y="225.5965919856" width="3.7000698299" height="3.7000699234"/><rect class="cls-1" x="33.3518555204" y="231.146749652" width="14.8003851627" height="3.7000698299" transform="translate(273.7488326687 192.2447364652) rotate(90)"/><rect class="cls-1" x="48.1522403092" y="231.146749652" width="14.8003851627" height="3.7000698299" transform="translate(288.5492174575 177.4443516764) rotate(90)"/><rect class="cls-1" x="46.3021602262" y="244.0971525409" width="3.7001679195" height="3.7000699234" transform="translate(96.3044883719 491.8943750051) rotate(180)"/><rect class="cls-1" x="46.3021602262" y="218.1964521389" width="3.7001679195" height="3.7000699234" transform="translate(96.3044883719 440.0929742011) rotate(180)"/><rect class="cls-1" x="42.6020830167" y="240.3969771483" width="11.1003149589" height="3.7001753926" transform="translate(96.3044809923 484.4941296892) rotate(180)"/><rect class="cls-1" x="42.6020830167" y="221.8965220623" width="11.1003149589" height="3.7000699234" transform="translate(96.3044809923 447.4931140479) rotate(180)"/><rect class="cls-2" x="50.0023281457" y="232.9968373016" width="3.7000698299" height="3.7000699234"/><rect class="cls-2" x="50.0023281457" y="229.2967673782" width="3.7000698299" height="3.7000699234"/><rect class="cls-2" x="40.7451434665" y="231.1536014592" width="7.4139563099" height="3.7000772095" transform="translate(277.4557616854 188.5515184425) rotate(90)"/><rect class="cls-2" x="440.5706893336" y="337.2379957949" width="3.7001679195" height="3.7000699234"/><rect class="cls-2" x="440.5706893336" y="326.1376805556" width="3.7001679195" height="3.7000699234"/><rect class="cls-1" x="440.5706893336" y="329.837750479" width="7.4002377494" height="7.4002453159"/><rect class="cls-2" x="447.9709270829" y="337.2379957949" width="3.7000698299" height="3.7000699234"/><rect class="cls-2" x="447.9709270829" y="326.1376805556" width="3.7000698299" height="3.7000699234"/><rect class="cls-2" x="446.1208392465" y="331.687838222" width="14.8003851627" height="3.7000698299" transform="translate(787.0589049647 -119.9831586909) rotate(90)"/><rect class="cls-2" x="444.270857253" y="344.6382411108" width="3.7000698299" height="3.7000699234" transform="translate(892.241784336 692.976552145) rotate(180)"/><rect class="cls-2" x="444.270857253" y="318.7375407088" width="3.7000698299" height="3.7000699234" transform="translate(892.241784336 641.1751513411) rotate(180)"/><rect class="cls-2" x="440.5706893336" y="340.9380657183" width="11.1003075793" height="3.7001753926" transform="translate(892.2416862464 685.5763068291) rotate(180)"/><rect class="cls-2" x="440.5706893336" y="322.4376106322" width="11.1003075793" height="3.7000699234" transform="translate(892.2416862464 648.5752911878) rotate(180)"/><rect class="cls-1" x="436.8706121241" y="337.2379957949" width="3.7000772095" height="3.7000699234"/><rect class="cls-1" x="436.8706121241" y="326.1376805556" width="3.7000772095" height="3.7000699234"/><rect class="cls-1" x="444.270857253" y="337.2379957949" width="3.7000698299" height="3.7000699234"/><rect class="cls-1" x="444.270857253" y="326.1376805556" width="3.7000698299" height="3.7000699234"/><rect class="cls-1" x="427.6203846278" y="331.687838222" width="14.8003851627" height="3.7000698299" transform="translate(768.558450346 -101.4827040722) rotate(90)"/><rect class="cls-1" x="442.4207694166" y="331.687838222" width="14.8003851627" height="3.7000698299" transform="translate(783.3588351348 -116.283088861) rotate(90)"/><rect class="cls-1" x="440.5706893336" y="344.6382411108" width="3.7001679195" height="3.7000699234" transform="translate(884.8415465866 692.976552145) rotate(180)"/><rect class="cls-1" x="440.5706893336" y="318.7375407088" width="3.7001679195" height="3.7000699234" transform="translate(884.8415465866 641.1751513411) rotate(180)"/><rect class="cls-1" x="436.8706121241" y="340.9380657183" width="11.1003149589" height="3.7001753926" transform="translate(884.841539207 685.5763068291) rotate(180)"/><rect class="cls-1" x="436.8706121241" y="322.4376106322" width="11.1003149589" height="3.7000699234" transform="translate(884.841539207 648.5752911878) rotate(180)"/><rect class="cls-2" x="444.270857253" y="333.5379258715" width="3.7000698299" height="3.7000699234"/><rect class="cls-2" x="444.270857253" y="329.8378559482" width="3.7000698299" height="3.7000699234"/><rect class="cls-2" x="435.0136725739" y="331.6946900292" width="7.4139563099" height="3.7000772095" transform="translate(772.2653793627 -105.1759220949) rotate(90)"/><rect class="cls-2" x="320.9503309421" y="685.6192985535" width="3.7001679195" height="3.7000699234"/><rect class="cls-2" x="320.9503309421" y="674.5189833142" width="3.7001679195" height="3.7000699234"/><rect class="cls-1" x="320.9503309421" y="678.2190532376" width="7.4002377494" height="7.4002453159"/><rect class="cls-2" x="328.3505686915" y="685.6192985535" width="3.7000698299" height="3.7000699234"/><rect class="cls-2" x="328.3505686915" y="674.5189833142" width="3.7000698299" height="3.7000699234"/><rect class="cls-2" x="326.500480855" y="680.0691409806" width="14.8003851627" height="3.7000698299" transform="translate(1015.8198493319 348.0185024592) rotate(90)"/><rect class="cls-2" x="324.6504988616" y="693.0195438695" width="3.7000698299" height="3.7000699234" transform="translate(653.0010675531 1389.7391576623) rotate(180)"/><rect class="cls-2" x="324.6504988616" y="667.1188434675" width="3.7000698299" height="3.7000699234" transform="translate(653.0010675531 1337.9377568583) rotate(180)"/><rect class="cls-2" x="320.9503309421" y="689.3193684769" width="11.1003075793" height="3.7001753926" transform="translate(653.0009694635 1382.3389123464) rotate(180)"/><rect class="cls-2" x="320.9503309421" y="670.8189133908" width="11.1003075793" height="3.7000699234" transform="translate(653.0009694635 1345.3378967051) rotate(180)"/><rect class="cls-1" x="317.2502537326" y="685.6192985535" width="3.7000772095" height="3.7000699234"/><rect class="cls-1" x="317.2502537326" y="674.5189833142" width="3.7000772095" height="3.7000699234"/><rect class="cls-1" x="324.6504988616" y="685.6192985535" width="3.7000698299" height="3.7000699234"/><rect class="cls-1" x="324.6504988616" y="674.5189833142" width="3.7000698299" height="3.7000699234"/><rect class="cls-1" x="308.0000262363" y="680.0691409806" width="14.8003851627" height="3.7000698299" transform="translate(997.3193947132 366.5189570779) rotate(90)"/><rect class="cls-1" x="322.8004110251" y="680.0691409806" width="14.8003851627" height="3.7000698299" transform="translate(1012.119779502 351.7185722891) rotate(90)"/><rect class="cls-1" x="320.9503309421" y="693.0195438695" width="3.7001679195" height="3.7000699234" transform="translate(645.6008298037 1389.7391576623) rotate(180)"/><rect class="cls-1" x="320.9503309421" y="667.1188434675" width="3.7001679195" height="3.7000699234" transform="translate(645.6008298037 1337.9377568583) rotate(180)"/><rect class="cls-1" x="317.2502537326" y="689.3193684769" width="11.1003149589" height="3.7001753926" transform="translate(645.6008224241 1382.3389123464) rotate(180)"/><rect class="cls-1" x="317.2502537326" y="670.8189133908" width="11.1003149589" height="3.7000699234" transform="translate(645.6008224241 1345.3378967051) rotate(180)"/><rect class="cls-2" x="324.6504988616" y="681.9192286302" width="3.7000698299" height="3.7000699234"/><rect class="cls-2" x="324.6504988616" y="678.2191587068" width="3.7000698299" height="3.7000699234"/><rect class="cls-2" x="315.3933141824" y="680.0759927878" width="7.4139563099" height="3.7000772095" transform="translate(1001.0263237299 362.8257390552) rotate(90)"/><rect class="cls-2" x="358.7831202793" y="345.0355973189" width="3.7001679195" height="3.7000699234"/><rect class="cls-2" x="358.7831202793" y="333.9352820796" width="3.7001679195" height="3.7000699234"/><rect class="cls-1" x="358.7831202793" y="337.635352003" width="7.4002377494" height="7.4002453159"/><rect class="cls-2" x="366.1833580287" y="345.0355973189" width="3.7000698299" height="3.7000699234"/><rect class="cls-2" x="366.1833580287" y="333.9352820796" width="3.7000698299" height="3.7000699234"/><rect class="cls-2" x="364.3332701922" y="339.485439746" width="14.8003851627" height="3.7000698299" transform="translate(713.0689374344 -30.3979881126) rotate(90)"/><rect class="cls-2" x="362.4832881988" y="352.4358426348" width="3.7000698299" height="3.7000699234" transform="translate(728.6666462274 708.571755193) rotate(180)"/><rect class="cls-2" x="362.4832881988" y="326.5351422328" width="3.7000698299" height="3.7000699234" transform="translate(728.6666462274 656.7703543891) rotate(180)"/><rect class="cls-2" x="358.7831202793" y="348.7356672423" width="11.1003075793" height="3.7001753926" transform="translate(728.6665481378 701.1715098771) rotate(180)"/><rect class="cls-2" x="358.7831202793" y="330.2352121562" width="11.1003075793" height="3.7000699234" transform="translate(728.6665481378 664.1704942358) rotate(180)"/><rect class="cls-1" x="355.0830430698" y="345.0355973189" width="3.7000772095" height="3.7000699234"/><rect class="cls-1" x="355.0830430698" y="333.9352820796" width="3.7000772095" height="3.7000699234"/><rect class="cls-1" x="362.4832881988" y="345.0355973189" width="3.7000698299" height="3.7000699234"/><rect class="cls-1" x="362.4832881988" y="333.9352820796" width="3.7000698299" height="3.7000699234"/><rect class="cls-1" x="345.8328155735" y="339.485439746" width="14.8003851627" height="3.7000698299" transform="translate(694.5684828157 -11.8975334939) rotate(90)"/><rect class="cls-1" x="360.6332003623" y="339.485439746" width="14.8003851627" height="3.7000698299" transform="translate(709.3688676045 -26.6979182827) rotate(90)"/><rect class="cls-1" x="358.7831202793" y="352.4358426348" width="3.7001679195" height="3.7000699234" transform="translate(721.266408478 708.571755193) rotate(180)"/><rect class="cls-1" x="358.7831202793" y="326.5351422328" width="3.7001679195" height="3.7000699234" transform="translate(721.266408478 656.7703543891) rotate(180)"/><rect class="cls-1" x="355.0830430698" y="348.7356672423" width="11.1003149589" height="3.7001753926" transform="translate(721.2664010984 701.1715098771) rotate(180)"/><rect class="cls-1" x="355.0830430698" y="330.2352121562" width="11.1003149589" height="3.7000699234" transform="translate(721.2664010984 664.1704942358) rotate(180)"/><rect class="cls-2" x="362.4832881988" y="341.3355273955" width="3.7000698299" height="3.7000699234"/><rect class="cls-2" x="362.4832881988" y="337.6354574722" width="3.7000698299" height="3.7000699234"/><rect class="cls-2" x="353.2261035196" y="339.4922915532" width="7.4139563099" height="3.7000772095" transform="translate(698.2754118324 -15.5907515166) rotate(90)"/><rect class="cls-2" x="366.8831373461" y="513.6987401634" width="3.7001679195" height="3.7000699234"/><rect class="cls-2" x="366.8831373461" y="502.5984249241" width="3.7001679195" height="3.7000699234"/><rect class="cls-1" x="366.8831373461" y="506.2984948475" width="7.4002377494" height="7.4002453159"/><rect class="cls-2" x="374.2833750954" y="513.6987401634" width="3.7000698299" height="3.7000699234"/><rect class="cls-2" x="374.2833750954" y="502.5984249241" width="3.7000698299" height="3.7000699234"/><rect class="cls-2" x="372.433287259" y="508.1485825905" width="14.8003851627" height="3.7000698299" transform="translate(889.8320973457 130.1651376651) rotate(90)"/><rect class="cls-2" x="370.5833052655" y="521.0989854793" width="3.7000698299" height="3.7000699234" transform="translate(744.866680361 1045.898040882) rotate(180)"/><rect class="cls-2" x="370.5833052655" y="495.1982850773" width="3.7000698299" height="3.7000699234" transform="translate(744.866680361 994.0966400781) rotate(180)"/><rect class="cls-2" x="366.8831373461" y="517.3988100868" width="11.1003075793" height="3.7001753926" transform="translate(744.8665822714 1038.4977955661) rotate(180)"/><rect class="cls-2" x="366.8831373461" y="498.8983550007" width="11.1003075793" height="3.7000699234" transform="translate(744.8665822714 1001.4967799248) rotate(180)"/><rect class="cls-1" x="363.1830601366" y="513.6987401634" width="3.7000772095" height="3.7000699234"/><rect class="cls-1" x="363.1830601366" y="502.5984249241" width="3.7000772095" height="3.7000699234"/><rect class="cls-1" x="370.5833052655" y="513.6987401634" width="3.7000698299" height="3.7000699234"/><rect class="cls-1" x="370.5833052655" y="502.5984249241" width="3.7000698299" height="3.7000699234"/><rect class="cls-1" x="353.9328326403" y="508.1485825905" width="14.8003851627" height="3.7000698299" transform="translate(871.331642727 148.6655922838) rotate(90)"/><rect class="cls-1" x="368.7332174291" y="508.1485825905" width="14.8003851627" height="3.7000698299" transform="translate(886.1320275158 133.865207495) rotate(90)"/><rect class="cls-1" x="366.8831373461" y="521.0989854793" width="3.7001679195" height="3.7000699234" transform="translate(737.4664426116 1045.898040882) rotate(180)"/><rect class="cls-1" x="366.8831373461" y="495.1982850773" width="3.7001679195" height="3.7000699234" transform="translate(737.4664426116 994.0966400781) rotate(180)"/><rect class="cls-1" x="363.1830601366" y="517.3988100868" width="11.1003149589" height="3.7001753926" transform="translate(737.466435232 1038.4977955661) rotate(180)"/><rect class="cls-1" x="363.1830601366" y="498.8983550007" width="11.1003149589" height="3.7000699234" transform="translate(737.466435232 1001.4967799248) rotate(180)"/><rect class="cls-2" x="370.5833052655" y="509.99867024" width="3.7000698299" height="3.7000699234"/><rect class="cls-2" x="370.5833052655" y="506.2986003166" width="3.7000698299" height="3.7000699234"/><rect class="cls-2" x="361.3261205864" y="508.1554343977" width="7.4139563099" height="3.7000772095" transform="translate(875.0385717437 144.9723742611) rotate(90)"/><rect class="cls-2" x="399.9675107762" y="652.173553432" width="3.7001679195" height="3.7000699234"/><rect class="cls-2" x="399.9675107762" y="641.0732381927" width="3.7001679195" height="3.7000699234"/><rect class="cls-1" x="399.9675107762" y="644.7733081161" width="7.4002377494" height="7.4002453159"/><rect class="cls-2" x="407.3677485256" y="652.173553432" width="3.7000698299" height="3.7000699234"/><rect class="cls-2" x="407.3677485256" y="641.0732381927" width="3.7000698299" height="3.7000699234"/><rect class="cls-2" x="405.5176606891" y="646.6233958591" width="14.8003851627" height="3.7000698299" transform="translate(1061.3912840445 235.5555775036) rotate(90)"/><rect class="cls-2" x="403.6676786957" y="659.5737987479" width="3.7000698299" height="3.7000699234" transform="translate(811.0354272212 1322.8476674192) rotate(180)"/><rect class="cls-2" x="403.6676786957" y="633.673098346" width="3.7000698299" height="3.7000699234" transform="translate(811.0354272212 1271.0462666153) rotate(180)"/><rect class="cls-2" x="399.9675107762" y="655.8736233554" width="11.1003075793" height="3.7001753926" transform="translate(811.0353291317 1315.4474221033) rotate(180)"/><rect class="cls-2" x="399.9675107762" y="637.3731682693" width="11.1003075793" height="3.7000699234" transform="translate(811.0353291317 1278.446406462) rotate(180)"/><rect class="cls-1" x="396.2674335667" y="652.173553432" width="3.7000772095" height="3.7000699234"/><rect class="cls-1" x="396.2674335667" y="641.0732381927" width="3.7000772095" height="3.7000699234"/><rect class="cls-1" x="403.6676786957" y="652.173553432" width="3.7000698299" height="3.7000699234"/><rect class="cls-1" x="403.6676786957" y="641.0732381927" width="3.7000698299" height="3.7000699234"/><rect class="cls-1" x="387.0172060704" y="646.6233958591" width="14.8003851627" height="3.7000698299" transform="translate(1042.8908294258 254.0560321223) rotate(90)"/><rect class="cls-1" x="401.8175908592" y="646.6233958591" width="14.8003851627" height="3.7000698299" transform="translate(1057.6912142146 239.2556473335) rotate(90)"/><rect class="cls-1" x="399.9675107762" y="659.5737987479" width="3.7001679195" height="3.7000699234" transform="translate(803.6351894719 1322.8476674192) rotate(180)"/><rect class="cls-1" x="399.9675107762" y="633.673098346" width="3.7001679195" height="3.7000699234" transform="translate(803.6351894719 1271.0462666153) rotate(180)"/><rect class="cls-1" x="396.2674335667" y="655.8736233554" width="11.1003149589" height="3.7001753926" transform="translate(803.6351820923 1315.4474221033) rotate(180)"/><rect class="cls-1" x="396.2674335667" y="637.3731682693" width="11.1003149589" height="3.7000699234" transform="translate(803.6351820923 1278.446406462) rotate(180)"/><rect class="cls-2" x="403.6676786957" y="648.4734835086" width="3.7000698299" height="3.7000699234"/><rect class="cls-2" x="403.6676786957" y="644.7734135853" width="3.7000698299" height="3.7000699234"/><rect class="cls-2" x="394.4104940165" y="646.6302476663" width="7.4139563099" height="3.7000772095" transform="translate(1046.5977584425 250.3628140996) rotate(90)"/><rect class="cls-2" x="55.5523875356" y="670.8121106285" width="3.7001679195" height="3.7000699234"/><rect class="cls-2" x="55.5523875356" y="659.7117953892" width="3.7001679195" height="3.7000699234"/><rect class="cls-1" x="55.5523875356" y="663.4118653125" width="7.4002377494" height="7.4002453159"/><rect class="cls-2" x="62.952625285" y="670.8121106285" width="3.7000698299" height="3.7000699234"/><rect class="cls-2" x="62.952625285" y="659.7117953892" width="3.7000698299" height="3.7000699234"/><rect class="cls-2" x="61.1025374485" y="665.2619530555" width="14.8003851627" height="3.7000698299" transform="translate(735.6147180003 598.6092579407) rotate(90)"/><rect class="cls-2" x="59.2525554551" y="678.2123559444" width="3.7000698299" height="3.7000699234" transform="translate(122.20518074 1360.1247818122) rotate(180)"/><rect class="cls-2" x="59.2525554551" y="652.3116555424" width="3.7000698299" height="3.7000699234" transform="translate(122.20518074 1308.3233810082) rotate(180)"/><rect class="cls-2" x="55.5523875356" y="674.5121805518" width="11.1003075793" height="3.7001753926" transform="translate(122.2050826504 1352.7245364962) rotate(180)"/><rect class="cls-2" x="55.5523875356" y="656.0117254658" width="11.1003075793" height="3.7000699234" transform="translate(122.2050826504 1315.7235208549) rotate(180)"/><rect class="cls-1" x="51.8523103261" y="670.8121106285" width="3.7000772095" height="3.7000699234"/><rect class="cls-1" x="51.8523103261" y="659.7117953892" width="3.7000772095" height="3.7000699234"/><rect class="cls-1" x="59.2525554551" y="670.8121106285" width="3.7000698299" height="3.7000699234"/><rect class="cls-1" x="59.2525554551" y="659.7117953892" width="3.7000698299" height="3.7000699234"/><rect class="cls-1" x="42.6020828298" y="665.2619530555" width="14.8003851627" height="3.7000698299" transform="translate(717.1142633816 617.1097125594) rotate(90)"/><rect class="cls-1" x="57.4024676186" y="665.2619530555" width="14.8003851627" height="3.7000698299" transform="translate(731.9146481704 602.3093277706) rotate(90)"/><rect class="cls-1" x="55.5523875356" y="678.2123559444" width="3.7001679195" height="3.7000699234" transform="translate(114.8049429906 1360.1247818122) rotate(180)"/><rect class="cls-1" x="55.5523875356" y="652.3116555424" width="3.7001679195" height="3.7000699234" transform="translate(114.8049429906 1308.3233810082) rotate(180)"/><rect class="cls-1" x="51.8523103261" y="674.5121805518" width="11.1003149589" height="3.7001753926" transform="translate(114.804935611 1352.7245364962) rotate(180)"/><rect class="cls-1" x="51.8523103261" y="656.0117254658" width="11.1003149589" height="3.7000699234" transform="translate(114.804935611 1315.7235208549) rotate(180)"/><rect class="cls-2" x="59.2525554551" y="667.1120407051" width="3.7000698299" height="3.7000699234"/><rect class="cls-2" x="59.2525554551" y="663.4119707817" width="3.7000698299" height="3.7000699234"/><rect class="cls-2" x="49.9953707759" y="665.2688048627" width="7.4139563099" height="3.7000772095" transform="translate(720.8211923983 613.4164945367) rotate(90)"/><rect class="cls-2" x="224.4748373058" y="241.3651534221" width="3.7001679195" height="3.7000699234"/><rect class="cls-2" x="224.4748373058" y="230.2648381828" width="3.7001679195" height="3.7000699234"/><rect class="cls-1" x="224.4748373058" y="233.9649081062" width="7.4002377494" height="7.4002453159"/><rect class="cls-2" x="231.8750750552" y="241.3651534221" width="3.7000698299" height="3.7000699234"/><rect class="cls-2" x="231.8750750552" y="230.2648381828" width="3.7000698299" height="3.7000699234"/><rect class="cls-2" x="230.0249872187" y="235.8149958492" width="14.8003851627" height="3.7000698299" transform="translate(475.0902105642 .2398509641) rotate(90)"/><rect class="cls-2" x="228.1750052253" y="248.765398738" width="3.7000698299" height="3.7000699234" transform="translate(460.0500802804 501.2308673995) rotate(180)"/><rect class="cls-2" x="228.1750052253" y="222.8646983361" width="3.7000698299" height="3.7000699234" transform="translate(460.0500802804 449.4294665955) rotate(180)"/><rect class="cls-2" x="224.4748373058" y="245.0652233455" width="11.1003075793" height="3.7001753926" transform="translate(460.0499821909 493.8306220835) rotate(180)"/><rect class="cls-2" x="224.4748373058" y="226.5647682594" width="11.1003075793" height="3.7000699234" transform="translate(460.0499821909 456.8296064422) rotate(180)"/><rect class="cls-1" x="220.7747600963" y="241.3651534221" width="3.7000772095" height="3.7000699234"/><rect class="cls-1" x="220.7747600963" y="230.2648381828" width="3.7000772095" height="3.7000699234"/><rect class="cls-1" x="228.1750052253" y="241.3651534221" width="3.7000698299" height="3.7000699234"/><rect class="cls-1" x="228.1750052253" y="230.2648381828" width="3.7000698299" height="3.7000699234"/><rect class="cls-1" x="211.5245326" y="235.8149958492" width="14.8003851627" height="3.7000698299" transform="translate(456.5897559455 18.7403055828) rotate(90)"/><rect class="cls-1" x="226.3249173888" y="235.8149958492" width="14.8003851627" height="3.7000698299" transform="translate(471.3901407343 3.939920794) rotate(90)"/><rect class="cls-1" x="224.4748373058" y="248.765398738" width="3.7001679195" height="3.7000699234" transform="translate(452.649842531 501.2308673995) rotate(180)"/><rect class="cls-1" x="224.4748373058" y="222.8646983361" width="3.7001679195" height="3.7000699234" transform="translate(452.649842531 449.4294665955) rotate(180)"/><rect class="cls-1" x="220.7747600963" y="245.0652233455" width="11.1003149589" height="3.7001753926" transform="translate(452.6498351515 493.8306220835) rotate(180)"/><rect class="cls-1" x="220.7747600963" y="226.5647682594" width="11.1003149589" height="3.7000699234" transform="translate(452.6498351515 456.8296064422) rotate(180)"/><rect class="cls-2" x="228.1750052253" y="237.6650834987" width="3.7000698299" height="3.7000699234"/><rect class="cls-2" x="228.1750052253" y="233.9650135754" width="3.7000698299" height="3.7000699234"/><rect class="cls-2" x="218.9178205461" y="235.8218476564" width="7.4139563099" height="3.7000772095" transform="translate(460.2966849622 15.0470875601) rotate(90)"/></g></svg>