<?xml version="1.0" encoding="UTF-8"?><svg id="Capa_2" xmlns="http://www.w3.org/2000/svg" viewBox="0 0 154.2708507072 335.826592474"><defs><style>.cls-1{fill:#723151;}.cls-1,.cls-2,.cls-3,.cls-4{stroke-width:0px;}.cls-2{fill:#2b2547;}.cls-3{fill:#d9830b;}.cls-4{fill:#ad8384;}</style></defs><g id="Capa_1-2"><polygon class="cls-2" points="154.2708507072 335.826592474 19.0675975535 333.1383989024 21.6466002379 300.3833711112 144.4325211521 288.568480831 154.2708507072 335.826592474"/><path class="cls-2" d="m25.0689509404,132.4632988174s-13.7229597696,8.7400247484-16.2806193312,23.0928101226c-2.5575899975,14.3527067415-5.6580104592,63.2573756395-5.6580104592,63.2573756395l28.5562441256-.8813221014-6.6176143352-85.4688636607Z"/><path class="cls-2" d="m93.235715803,108.9444505773c-2.3146671425-1.2813192223-4.6293216233-2.5625648435-6.9439227949-3.8438881027-.7268006357-.402301212-9.4300497157-24.4875531597-11.2214286367-39.4113104687-.6136297024-5.1126092229,1.8805580203-19.7551466235-.2562299618-24.4401558877-2.1367925164-4.6850833626-5.464146468-8.9391189292-9.920303425-11.5194946219-3.0291183429-1.7540663405-6.4729728496-2.6843286942-9.9340144766-3.2075213182-10.9285143603-1.652081742-22.7660644125.9083314506-31.0226490793,8.2560808024-3.9317547656,3.4990020208-7.085823862,8.4420240294-6.3358095212,13.6515294188.9702069395,6.7391822942,1.9404879775,13.4783600542,2.9107690154,20.2175378141,1.005787421,6.9863874068,2.019931652,14.0096745139,4.1512650806,20.7386439991,1.3924602483,4.396162556,3.3989647525,8.8310598457,7.0448002719,11.6546960016,3.2478065485,2.515309189,7.4867438273,3.4735999475,11.5945705982,3.4464004984,4.1079054036-.0271298849,5.6028919085-.3815307066,9.6041320841-1.3118994112.1733705955,2.7955191208.3390160598,5.8051185301.512382121,8.6005635525.0511514691.8249711164.0992214474,1.674823594-.1678336694,2.4569395834-.2376598799.695974956-.7083933152,1.2865414635-1.2052183925,1.8287239843-1.3784317129,1.5043343219-3.0298501585,2.7578433067-4.849421878,3.6809260482,2.4710968773,6.7108560256,8.4585105895,12.9936758495,15.570650321,13.7414888574,4.2731687347.4493243299,8.5595349782-.9215420516,12.3607288008-2.9247393292,8.438919885-4.4471650294,14.9652407727-12.607874925,18.1075335425-21.6145214207Z"/><path class="cls-4" d="m44.7091220795,74.2108653035s13.2470782795-3.6109120028,13.3025056235-1.2193940547-12.4099269725,13.3405128635-12.5272381358,8.9098491025c-.1173111633-4.430663761-.7752674877-7.6904550478-.7752674877-7.6904550478Z"/><path class="cls-2" d="m72.1177129847,72.0921451997l-6.1174104576.3743399436-1.2914694571-21.1050113606c-2.4830327599.3551380484-5.1528446127.3792045932-7.3501544483-.83053195-2.3132277644-1.2735978326-3.7352079609-4.0032727253-3.453256059-6.6287399364-1.6722343601.8841676833-3.9182889269,1.3427645999-5.8048843131,1.2045883829-1.6076220465-.1176874804-3.1551516015-.9099971146-4.1906433767-2.1453845959-1.0354106008-1.2353924486-1.5450097617-2.8975991342-1.3799917623-4.5011261621.3682555385,1.7371991598-.4445389912,3.3012293339-1.4758864205,4.746764857-1.0312617969,1.4456046589-2.5588745588,2.4933259004-4.215785446,3.1320079615-.773344545.2980440636-1.6035833975.5147067398-2.4261376644.4133141087-.5354593197-.0660794423-1.0446201412-.2639259714-1.5472074398-.4600922261-.8839467731-.345010091-1.7779631822-.6953540669-2.5519733652-1.2444107053-.7740056487-.54898254-1.4279391138-1.3259858809-1.6344094631-2.2521983454.1905650172,1.636211151-.7496219323,3.0363772285-1.8538311171,4.2587067362-1.1042091848,1.2223295077-2.605283272,2.0339195859-4.1730723622,2.5392215191-1.4772007404.4761070667-3.0946235166.6941570969-4.5763310456.2324367928l.9933826714,8.7952244714c-1.9207001791,1.4752644886-4.9676261481,1.9023940508-7.3250073847,1.3474404386-2.3573982998-.5550269439-4.4473276724-2.0008583808-6.0354301168-3.8293446179-1.6666709693-1.9188795732-2.8353014019-4.321184712-3.0339402764-6.8550651007-.1985693104-2.5339590213.6390979028-5.1865149111,2.4566432798-6.9632345442C.8830742015,39.4609184372-1.156521684,33.9419349115.6721311808,29.1586338217c1.828636264-4.7833744499,6.9022617882-8.0432929897,12.0228714943-7.9815585196-.9025669087-4.5654464283.5777204227-9.3241576035,4.3962000525-11.98440803s9.2192023731-2.8209342552,13.1891608002-.3924327683C31.5219411539,4.1782558021,35.2059124209.7200759688,39.9501537292.090907173c4.7442367741-.6292428942,9.8007753695,2.0608400507,11.7415649093,6.4354978341C53.5742593772,2.2167789899,58.4749198191-.0020773623,63.070215591.997923925c4.5953003061,1.0000753857,8.1664068353,5.5085102233,8.0878430843,10.210676085,3.7413870008-2.6074117285,9.0650103132-1.9045591969,12.4720957101,1.126617757,3.4070691027,3.031177951,4.3737168079,8.4712311734,2.2194141776,12.4906120545,2.3811442004-1.1522372601,5.2221328366-.2944909469,6.9419717227,1.7153694038,1.7198388861,2.0098603507,2.3315008324,4.7578828077,2.3929938714,7.4024223541.0289035213,1.241573142-.0549888215,2.5081218928-.4984700221,3.6681532576-.9677270179,2.5313980286-3.4569390118,4.1345698241-5.923321017,5.2575869639,1.3870180317.3714953165,1.8750856541,1.2882855947,2.5295566453,2.5663264418.6543968928,1.2780453814.8514906583,2.7547669841.757166344,4.1875148342-.1195291789,1.8156154092-.7134021684,3.6282754911-1.8637835725,5.0380313639-1.1503777226,1.4096812716-2.8866998533,2.3782453664-4.7058532146,2.4148162254,1.4595865113,2.3281238667,1.4858708717,5.1119670707.2894804584,7.5855848577-1.1964021197,2.4736928792-3.4157192054,4.3549520338-5.9013864467,5.5262292273-2.4855886085,1.1713467577-5.0075311111,1.7364489129-7.7502103473,1.9042804485Z"/><ellipse class="cls-2" cx="75.0371252238" cy="66.6878485995" rx="9.6528969927" ry="6.8183495725" transform="translate(-9.1430924017 121.3827320275) rotate(-74.6417142689)"/><path class="cls-2" d="m79.3542772611,64.7158517778c.3621162789-1.3142168512-.2139360004-2.8312660299-1.3570265986-3.5740227967-1.1431522599-.7426786178-2.7633567959-.6526080302-3.8171481136.2122351441-.6446643494.5291395422-1.0603177968,1.2856894757-1.3850301034,2.0539296964-.6509964065,1.5402210422-.9955289949,3.1893178164-1.3362592857,4.8262817752.5181940879-.256176066,1.071034775-.4760942843,1.6489141211-.4898128097s1.1885705581.2122023874,1.5116147513.6915711151c.3416147654.5069414421.2973439178,1.2006769205.0314405882,1.7511158949-.2658292312.5504344401-.7207203036.9842140148-1.184724323,1.3821070459-.7659673038.6568282001-1.6425651542,1.2754287494-2.6481767457,1.3572693059"/><path class="cls-2" d="m80.1203846426,71.8231145942c-1.0822867525,2.5553659348-3.6194793168,4.4330945491-6.3796299218,4.7213685123-.9426406758.0984405764-1.9614542426.00221497-2.7157096392-.5716276726"/><path class="cls-2" d="m67.3372369175,81.1076283344s-.2523505279,8.5227798705-3.3998980349,13.4362474559c-3.1474779428,4.9133889527-11.0304439248,8.6311935111-11.0304439248,8.6311935111l.2307173566,3.7703504377s11.4578879389-6.0567967619,13.1888123395-12.8709758345c1.014788197-3.9950947588,1.0108122636-12.9668155701,1.0108122636-12.9668155701Z"/><path class="cls-2" d="m33.7727673701,60.8248809053c-.445205712,6.7178755809-.5697366737,13.4569606221-.3731797673,20.1866613513.0039349788.1360158467.0124689392.2838735406.1017488399.3865528259.1153698309.132692531.3161125128.137589406.4918367521.1321914561,1.6152890018-.0498299383,3.2305893292-.0995861938,4.8459592207-.149421082"/><path class="cls-2" d="m29.9156072433,82.8652449947c1.4357976454,2.1472098757,3.5058950138,3.8584380594,5.8765773288,4.8579405987.882633311.3721632906,1.8351835976.6507971102,2.7866147807.5513723649.7391827459-.0772141114,1.4382128834-.379115163,2.0859025316-.7457797505,2.2386190407-1.2668310147,3.9955352093-3.3730445976,4.8488409677-5.8125780025"/><path class="cls-2" d="m45.3799662082,68.032813254c.6208262885,1.4538417409,1.7687599221,2.3571772091,2.5638120481,2.0176418204s.9362813254-1.7933755623.3153764041-3.2472868674c-.6208262885-1.4538417409-1.7687599221-2.3571772091-2.5638120481-2.0176418204s-.9362813254,1.7933755623-.3153764041,3.2472868674Z"/><path class="cls-2" d="m25.2526100477,69.2644574967c.6209003869,1.4538372067,1.7687599221,2.3571772091,2.5638861465,2.0176372862.7950521259-.3395353887.9362813254-1.7933755623.3153764041-3.2472868674-.6209003869-1.4538372066-1.7687599221-2.3571772091-2.5638120481-2.0176418204-.7951262244.339539923-.9363554238,1.7933800966-.3154505026,3.2472914017Z"/><path class="cls-2" d="m54.1993327576,60.1048555328c-1.0516035977-2.0201085034-2.7806039971-3.680139039-4.8419163775-4.6485921125-2.061309747-.9685276106-4.442774213-1.2398253662-6.6690784851-.7599011246"/><path class="cls-2" d="m21.0525927939,62.1331890662c.7974420942-2.1332563239,2.3111371271-3.9917156609,4.2389877488-5.2042757898,1.9278460874-1.2126342274,4.2584627807-1.7722762436,6.5266660736-1.5673823796"/><path class="cls-2" d="m89.3925383696,106.8169997506s34.9245700051,11.3247645991,42.851166785,23.6065612865c7.9265922456,12.281722589,2.6243311824,69.5349783475,5.7445824156,93.8771540251,3.1202512331,24.3421756776,13.3648045178,63.8442783877,13.3648045178,63.8442783877,0,0-28.1036770743,15.0774974907-61.1463414213,18.7301538505-33.0425902485,3.6526518256-68.5601504288-6.4917761892-68.5601504288-6.4917761892l5.0658290693-135.7328752695-1.6434783668-32.1871970243,26.9772740765-16.4020023957s1.0920781197,11.4229842082,12.7693732762,10.3822824479,24.5769400766-19.626579119,24.5769400766-19.626579119Z"/><path class="cls-2" d="m45.2746223007,120.1783975709s4.7742501127,16.4020415312,19.7895560634,15.4832166752c15.0153059507-.918824856,32.7702581244-25.8046148846,32.7702581244-25.8046148846"/><polygon class="cls-2" points="21.1111868994 169.6995335991 51.3604670393 167.8485773959 36.0088449948 121.4638652467 5.7595648549 123.3148214498 21.1111868994 169.6995335991"/><polygon class="cls-1" points="53.6792291655 167.7066864292 51.3604670393 167.8485773959 36.0088449948 121.4638652467 38.327607121 121.32197428 53.6792291655 167.7066864292"/><path class="cls-2" d="m12.2157095205,129.1456108422l2.0929842142-.1280750406c1.1802397707-.0722218809,1.8728515899-.9287231012,1.5470984607-1.9130127592h0c-.3258317619-.9843592221-1.5466636644-1.7237719424-2.7268293367-1.6515545958l-2.0929842142.1280750406c-1.1801656723.0722173466-1.8727774915.9287185669-1.5470243623,1.9130082249l.0000045343.0000740984c.3257531292.984289658,1.5465850317,1.7237023782,2.726750704,1.6514850317Z"/><path class="cls-2" d="m12.2157095205,129.1456108422l6.3400097478-.3879613617c1.1801656723-.0722173466,1.8727774915-.9287185669,1.5470243623-1.9130082249h0c-.3257576635-.9843637564-1.546589566-1.7237764766-2.7267552383-1.6515591301l-6.3400097478.3879613617c-1.1801656723.0722173466-1.8727774915.9287185669-1.5470243623,1.9130082249l.0000045343.0000740984c.3257531292.984289658,1.5465850317,1.7237023782,2.726750704,1.6514850317Z"/><polygon class="cls-2" points="11.284661415 127.8667929911 14.3731580175 127.6778000092 14.0682260095 126.756645778 10.9798035054 126.9456342257 11.284661415 127.8667929911"/><path class="cls-2" d="m126.4304255746,225.5684668452c.838114338.3568885537,15.6359192292,9.5049858793,15.6359192292,9.5049858793l-6.4311943242-15.7821001563-9.204724905,6.2771142771Z"/><path class="cls-2" d="m134.5234777005,223.8192547756c-8.3749070002,12.6837994838-18.5919024014,24.1481744139-30.1305283236,34.0414603008-23.0273668202-22.0905554683-39.7450921033-50.0340653363-55.8521427564-77.5806630961-3.7937289416-.8500956886-7.5873813137-1.7002704386-11.3810291515-2.5503710901-2.1745226489-.4873047476-4.7605502972-1.3729991722-5.1972024429-3.5582184055-.40523343-2.0279030353,1.380494132-4.0157625918.9862847808-6.0458277365-.2009110383-1.034695203-.9433108257-1.8900323209-1.2182208866-2.9076298089-.2500099195-.9254819404-.0793060974-1.9559931305.4557980447-2.7513879357.2975852225-.4423013469.7153310491-.8498588714.7655578427-1.3806293458.0459911729-.4857369977-.2312068238-.934218891-.4495705831-1.3706076876-1.1283186725-2.2551276192-.5965841807-5.7929273229,1.8341542696-6.4640866868-2.2428078059-1.9666277891-4.4856201461-3.9333296766-6.728427952-5.8999574656-.461809966-.4049058781-.9293707377-.8138480275-1.4739886333-1.0976602824-.6800642878-.3544367685-1.4480415773-.4973983136-2.1662873601-.76597453-2.3534862378-.8801402385-4.0827457027-3.2288013249-4.2244373617-5.7374573637,11.4181454844.5037296451,29.1295158861,13.7389216207,29.1295158861,13.7389216207l-2.6058722624-8.1782265157s13.0637107797,9.9891191756,16.2917555878,27.3854277672l41.9046511835,45.4916490157,6.131882183-19.6640186407s8.4833298189,5.1731680996,13.6153178379,10.8817166947c5.1319925533,5.7086226935,10.3127900976,14.4135411919,10.3127900976,14.4135411919Z"/><path class="cls-2" d="m14.0122313967,174.3449511605s-7.1566284994-15.6371527806-5.2238997875-18.7888422205c1.932798276-3.1517680726,19.7043821497-13.7834688407,19.7043821497-13.7834688407l3.9098514121,3.1052070544-11.8134243466,8.6939812583,16.2719481075-2.4128059045-.260025675,21.8036604363-9.4490430129,1.9003169284s2.6595090482,44.9248173924.3914360259,59.2345200481c-2.2680034582,14.3096240229-9.8313910445,20.9721984008-9.8313910445,20.9721984008,0,0-13.9700134788-11.1903896858-11.4303419495-30.4764686465,2.5397456277-19.2860834951,7.7305081209-50.248298514,7.7305081209-50.248298514Z"/><path class="cls-2" d="m128.5537414799,126.262669087s17.4083895679,11.4452822796,22.8853494069,32.632731882c5.476959839,21.1874496024-9.372746083,76.1780517555-9.372746083,76.1780517555,0,0-14.0044949624-20.2241326778-21.7607679625-26.6778442224-7.7563470985-6.4537070104-10.7684264583-6.4780889533-10.7684264583-6.4780889533l19.0165910969-75.6548504618Z"/><path class="cls-2" d="m115.4399971534,231.6995204289c-2.2447312926-2.7759429418-8.9334332653-10.5839905008-10.9765095714-13.5115048992"/><line class="cls-2" x1="123.4465631823" y1="146.5808927278" x2="109.537150383" y2="201.9175195488"/><path class="cls-2" d="m32.6608154288,151.7818285999s.2129688078,1.4335046606-.0990057,2.2751181893c-.3120486061.841618063-.9463803202,1.5225959079-1.3478219796,2.3254305028-.7172217511,1.4339740889-.6082823783,3.2470628126.2755753415,4.5848477879.2218123571.3358446869.4992089224.6745356095.5028617136,1.0769831768.0037508791.4089122677-.2759237301.7561808642-.5009151331,1.0976488514-1.2290423716,1.8646922492-.9486355362,4.5802525421.6355120594,6.1543921009.1979783117.196732713.4257131198.3997515226.467290112.6756706681.0390702782.2592635856-.0983385333.5078317433-.2134887127.7433608231-.4859243164.9937952876-.6384038678,2.1471015278-.4276590491,3.2331093507"/><line class="cls-2" x1="32.2930614011" y1="67.5584596223" x2="37.9720390674" y2="67.2109484991"/><line class="cls-2" x1="57.116034982" y1="66.0394785772" x2="68.4116735362" y2="65.3482696533"/><path class="cls-2" d="m64.6416571185,51.6627905234c1.4820338541,1.089358506,3.3393765735,1.8604042299,5.1438777191,1.5041698737,2.1481288065-.4241186222,3.6682553658-2.2856490529,4.9987075903-4.0246783693"/><path class="cls-2" d="m9.5034644333,42.2662729712c-.4113824951,1.5021300494.0926581026,3.2170375071,1.2515934473,4.2575182844,1.1588532599,1.0405601761,2.9179107317,1.3576796957,4.3672595623.7874064308.3732428428,1.2608138756,1.6111211608,2.2131629296,2.9254783606,2.2506198535"/><path class="cls-2" d="m63.1368802222,20.7091090585c1.6591149221-.7096227828,3.6657499402-.7744750744,5.2100207262.1590506674,1.5443494186.933595306,2.435042677,2.9809542826,1.7576280624,4.6535447442,1.7291770764.1946658581,3.447544439.9831409458,4.4754967085,2.3871536853,1.0280342396,1.4040077236,1.2209902448,3.4621557632.216394594,4.8829977495"/><path class="cls-2" d="m22.2710969171,29.3213321319c-.4076053766-2.7631123551,1.2232506937-5.700572085,3.7840533203-6.8156818988,2.5608071608-1.1150357154,5.8222673668-.3079350542,7.5674409151,1.8728527025,1.0213049948-1.9730642251,3.876549852-2.7030743635,5.7194949985-1.4623563547"/><path class="cls-3" d="m85.69342821,105.9515873017s-6.7269282676,11.8301152292-19.6008771935,13.2218934915c0,0,16.9333021909.811870653,19.6008771935-13.2218934915Z"/><path class="cls-4" d="m71.0250450817,58.0512187755s6.085750511-11.029400221,11.5368820382-2.731143586c0,0-5.6765357981-9.7948607744-11.5368820382,2.731143586Z"/><path class="cls-4" d="m73.0514423278,78.8699019485s-.8908334328,22.5056966868-28.8898849513,25.605561673c0,0,19.8433262467-4.2069708907,28.8898849513-25.605561673Z"/><path class="cls-4" d="m75.4581422304,81.7162002054l7.1037848895,26.6709990553,3.7298658883-3.286636786-8.8952230417-27.3455739746s-3.4005596623-1.5283294095-1.9384277361,3.9612117053Z"/><path class="cls-3" d="m90.1007260405,108.3871992606s.4639260874,15.5647540257-28.2994913326,17.0608987612c0,0,10.8904020177-1.0880652022,18.3191499348-.2598863207s22.7245341959,3.9622695722,22.7245341959,3.9622695722c0,0,21.6998692604-6.2084331963,33.1844898565,6.5483438051,11.4846205962,12.7567770014,15.4096821918,23.1965758905,15.4096821918,23.1965758905,0,0-9.8425691427-39.605938654-61.3383648464-50.5082017084Z"/><path class="cls-3" d="m119.6760141135,139.7502436418s-12.6798802192,21.8851972675-15.2125265315,25.1263183208c-2.5326463123,3.2411210534-6.6290510934,15.7914989431-6.6290510934,15.7914989431,0,0,22.8854113216,17.3728547489,21.841577625,19.8084667078-1.0438336967,2.435611959-2.7835565245-11.4821706637-18.441061975-21.9205076306,0,0,10.2823972168,1.0552765199,11.8301152292,2.1120409228l-8.6015797858-6.7196708549s14.6362765013-34.7300205381,30.0599901185-34.1981464091"/><path class="cls-4" d="m61.2064852496,172.7540484597s-6.6109467457-18.3540758336-9.0465587047-19.4848956717l-5.3424394222-6.0659405655c-.0782305403-.4541127746-.248471475-.9799368871-.248471475-.9799368871,0,0,3.4262671669.8527418449,6.0743395771,5.5585532645,2.6480724102,4.7058114196,10.389838994,18.9715386078,10.5638112768,20.9722198598.1739722828,2.000681252-2.000681252,0-2.000681252,0Z"/></g></svg>