<?xml version="1.0" encoding="UTF-8"?><svg id="Capa_2" xmlns="http://www.w3.org/2000/svg" xmlns:xlink="http://www.w3.org/1999/xlink" viewBox="0 0 1081.504724665 1822.8194173049"><defs><style>.cls-1{clip-path:url(#clippath);}.cls-2,.cls-3,.cls-4,.cls-5{fill:none;}.cls-2,.cls-6,.cls-7,.cls-8,.cls-9,.cls-10,.cls-11,.cls-12,.cls-13,.cls-14,.cls-15,.cls-16,.cls-17,.cls-18,.cls-19,.cls-20{stroke-width:0px;}.cls-21{fill:#b390f1;stroke-width:5.9759212163px;}.cls-21,.cls-22,.cls-3,.cls-4,.cls-23{stroke:#373151;}.cls-21,.cls-22,.cls-3,.cls-23{stroke-linecap:round;stroke-linejoin:round;}.cls-22{stroke-width:4.196620532px;}.cls-22,.cls-23,.cls-8{fill:#4aa4a9;}.cls-24{letter-spacing:.0878889898em;}.cls-25{font-family:OpenSans-SemiBold, 'Open Sans';font-size:20.1639099121px;letter-spacing:-.0400041772em;}.cls-25,.cls-26{font-weight:600;}.cls-25,.cls-26,.cls-7,.cls-17{fill:#fff;}.cls-3{stroke-width:5.1222181854px;}.cls-4{stroke-width:7.9732855127px;}.cls-4,.cls-5{stroke-miterlimit:10;}.cls-26{font-family:OpenSans-Semibold, 'Open Sans';font-size:14.4354400635px;}.cls-27{letter-spacing:.0000330038em;}.cls-28{fill:#2c444a;font-family:RobotoFlex-Regular, 'Roboto Flex';font-size:29.5894393921px;font-variation-settings:'wght' 400, 'wdth' 100, 'opsz' 14, 'GRAD' 0, 'slnt' 0, 'XTRA' 468, 'XOPQ' 96, 'YOPQ' 79, 'YTLC' 514, 'YTUC' 712, 'YTAS' 750, 'YTDE' -203, 'YTFI' 738;}.cls-23{stroke-width:3.032890904px;}.cls-7{opacity:.6;}.cls-5{stroke:#000;stroke-width:1.8948420324px;}.cls-9{fill:#5f271c;}.cls-10{fill:#6db546;}.cls-11{fill:#724036;}.cls-12{fill:#2e6fff;}.cls-13{fill:#373151;}.cls-14{fill:#dce5d3;}.cls-15{fill:#7c8b8f;}.cls-16{fill:#744339;}.cls-18{fill:#ff9e00;}.cls-19{fill:#fe786d;}.cls-20{fill:#005e73;}</style><clipPath id="clippath"><rect class="cls-2" x="505.504724665" width="576" height="1102.8944666839"/></clipPath></defs><g id="Capa_1-2"><g class="cls-1"><path class="cls-16" d="m991.1522690185,153.0342091841s26.2784627328-12.3296556051,43.7886479881-37.4475469324c17.5104363519-25.1187503941,26.9109443989-45.7254658216,12.1691023946-65.7929322005-13.4502770159-18.3099141027-32.9917307778-14.8425518288-37.6119600509-13.841335121-10.6706902478,2.3117096063-20.0475288724,5.3997595762-20.0475288724,5.3997595762l1.7017385406,111.6820546776Z"/><path class="cls-11" d="m1022.6228939855,130.1346933972c-15.3869923575,15.3145103298-31.4703738703,22.8986567201-31.4703738703,22.8986567201l-1.7019896373-111.6811956108s9.3768386246-3.0880499699,20.0466698056-5.4000106729c1.0263120283-.2221967244,2.817637407-.5574056634,5.0833129806-.7576965883-.0414407788,10.9405612411.3729761932,25.1036048221,1.7704608662,43.0908097298,1.8368746262,23.6395266692,4.2168570232,40.4602009275,6.2719198552,51.8494364222Z"/><path class="cls-3" d="m992.1008279275,153.0342091841s26.2784627328-12.3296556051,43.7886479881-37.4475469324c17.5104363519-25.1187503941,26.9109443989-45.7254658216,12.1691023946-65.7929322005-13.4502770159-18.3099141027-32.9917307778-14.8425518288-37.6119600509-13.841335121-10.6706902478,2.3117096063-20.0475288724,5.3997595762-20.0475288724,5.3997595762l1.7017385406,111.6820546776Z"/><path class="cls-19" d="m538.8204417095,1005.0922738423c-2.0462971229-.5981123377-3.4298038057-2.5960715753-3.1867211924-4.7834388148.0015558837-.0181944286,2.7838491044-25.2392381069,7.9273198191-75.8771452824,6.9840698887-68.6941011453,6.0038015162-103.628968774,5.9941877077-103.9693292781-.0785584341-2.4716015443,1.8630484271-4.5364234249,4.3312136527-4.6159862811,2.49097977-.0458530543,4.5382076699,1.8728945568,4.6112943732,4.3345046294.0116492721.349347589,1.0216359763,35.7759158186-6.032641183,105.1600305183-5.1528136895,50.6985835898-7.9383444773,75.9466547563-7.9383444773,75.9466547563-.2681990939,2.4616288309-2.4789617477,4.2286510686-4.9358987718,3.9571610552-.266270182-.0237454571-.5229986891-.0801354535-.7704099282-.1524513029Z"/><path class="cls-16" d="m364.4307760885,878.148667773c4.6021842741-25.2392589276,27.4358997209-140.9141863074,27.4706497748-185.4532333287.0338909871-44.5392981181-24.8372948775-169.0629337513-10.9441362285-235.8765133557,13.8920484855-66.8129716343,56.6573055288-108.2832491822,65.2157434495-133.7610944466,8.5577848641-25.4789686062,15.0279236227-41.2346148507,43.5747547172-75.9647120321,28.5474390646-34.7289870179,27.8858364766-126.3550456537,60.705088533-125.3642466028,32.818141893.9914070209,27.5513408015,56.2375308775,29.3719921904,77.8302284774,1.8204002922,21.5935566668-2.4781617425,82.0473257428-4.6342182519,87.2990888665-2.1571666729,5.2523710938-24.9499278721,34.9062221295-24.9499278721,34.9062221295,0,0,5.0220031254,27.2780059764,3.6558963659,35.4992982933l-1.3661067595,8.2212923169,73.6881904549-37.538385188,65.7888503691,346.257107206c-.0735945544,28.9602751517,37.4837151424,55.4492913135,66.9430407265,55.401137153l18.2613733815,19.2460497063s-29.9972694067,39.0001515894-53.9090344172,59.8663545744c-23.9120161072,20.8670620518-49.9011024743,52.2027757594-54.761839027,75.7616989368-4.8596263892,23.5583152072-256.9949987972,935.9519782266-256.9949987972,935.9519782266L0,1796.7000525312s339.1838866008-780.1145859288,364.4307760885-918.5513847583Z"/><path class="cls-3" d="m772.8119053312,759.9960534263c-10.7143547891,13.1479104973-29.1265973099,34.7901896935-44.89311407,48.5485776225-23.9120161072,20.8670620518-49.9011024743,52.2027757594-54.761839027,75.7616989368-4.8596263892,23.5583152072-256.9949987972,935.9519782266-256.9949987972,935.9519782266l-411.5460946979-23.7308861745s339.1838866008-780.1145859288,364.4307760885-918.5513847583c4.6021842741-25.2392589276,27.4358997209-140.9141863074,27.4706497748-185.4532333287.0338909871-44.5392981181-24.8372948775-169.0629337513-10.9441362285-235.8765133557,13.8920484855-66.8129716343,56.6573055288-108.2832491822,65.2157434495-133.7610944466,8.5577848641-25.4789686062,15.0279236227-41.2346148507,43.5747547172-75.9647120321,28.5474390646-34.7289870179,27.8858364766-126.3550456537,60.705088533-125.3642466028,32.818141893.9914070209,27.5513408015,56.2375308775,29.3719921904,77.8302284774,1.8204002922,21.5935566668-2.4781617425,82.0473257428-4.6342182519,87.2990888665-2.1571666729,5.2523710938-24.9499278721,34.9062221296-24.9499278721,34.9062221296,0,0,5.0220031254,27.2780059764,3.6558963659,35.4992982933l-1.3661067595,8.2212923169,13.9609319628-8.9457002421"/><path class="cls-21" d="m548.5755427568,164.1356202626c4.3070698727-17.3046084493-3.5293092072-33.0053447362-7.3285297973-39.3254723199-.0948215635-.2022498025-.2171772137-.3894208338-.3753487828-.5628497266-.8267411859-.9050957781-2.2238638592-.9788462611-3.1416616642-.1630448489l-.0566044014.0477762616c-.0050959824.0075443666-.0104838863.016087472-.0200613599.0241287176l-1.1914315902,1.0621244177c-12.5286342742,11.9095084833-18.3166994158,38.642611033-24.4492870705,66.9401362984l-2.0163453449,9.244914972c-.1548333145.7052778175.0367819794,1.4442457644.5249104886,1.9822431069.3758177069.4227811001.8925514687.6749966124,1.4444169493.7278949545.1573188034.0156289159.3143709714.0123894438.470475354-.0073880255,3.6406043781-.4214173343,10.4340784288-1.5217228638,15.0529605492-4.1675315845,6.8639131396-3.930084073,16.0098881334-15.403126693,21.08650667-35.8029322233Z"/><path class="cls-3" d="m553.0253612749,318.7930686565s-15.9874325315-14.3210892512-31.5145757993-9.2113976958"/><rect class="cls-23" x="936.0671654893" y="90.7098995205" width="87.6746154735" height="42.0263080328" rx="3.0546096893" ry="3.0546096893" transform="translate(1091.6275267629 -868.1814196892) rotate(90)"/><rect class="cls-23" x="936.0671654893" y="186.5674791049" width="87.6746154735" height="42.0263080328" rx="3.0546096893" ry="3.0546096893" transform="translate(1187.4851063473 -772.3238401048) rotate(90)"/><rect class="cls-23" x="936.0671654893" y="322.3514608144" width="87.6746154735" height="42.0263080328" rx="3.0546096893" ry="3.0546096893" transform="translate(1323.2690880569 -636.5398583953) rotate(90)"/><rect class="cls-22" x="364.1514706338" y="227.5459027289" width="850.5150502685" height="407.3478080385" rx="15.913492427" ry="15.913492427" transform="translate(1220.6288025162 -358.1891890199) rotate(90)"/><rect class="cls-20" x="392.8138679893" y="251.1081137232" width="794.9331456676" height="379.2480648059" rx="8.1435183873" ry="8.1435183873" transform="translate(1231.0125869493 -349.548294697) rotate(90)"/><rect class="cls-13" x="784.2471328778" y="-45.968444283" width="11.1909875154" height="143.489989401" rx="5.5954881793" ry="5.5954881793" transform="translate(815.6191803477 -764.0660761105) rotate(90.000000239)"/><circle class="cls-13" cx="911.3212919553" cy="24.6139274531" r="7.0441012024"/><path class="cls-8" d="m873.3181126445,33.1567327715h-168.0989359819c-2.8196089271,0-5.1053535843,2.2857446572-5.1053535843,5.1053535843v.3021545785c0,2.8196089271,2.2857446572,5.1053535843,5.1053535843,5.1053535843h6.5757740867c2.8196089271,0,5.1053535843,2.2857446572,5.1053535843,5.1053535843v.0000102107c0,2.8196089271,2.2857446572,5.1053535843,5.1053535843,5.1053535843h134.5261783844c2.8196089271,0,5.1053535843-2.2857446572,5.1053535843-5.1053535843v-.0000102107c0-2.8196089271,2.2857446572-5.1053535843,5.1053535843-5.1053535843h6.5755691736c2.8196089271,0,5.1053535843-2.2857446572,5.1053535843-5.1053535843v-.3021545785c0-2.8196089271-2.2857446572-5.1053535843-5.1053535843-5.1053535843Z"/><path class="cls-17" d="m794.8259540281,826.5917278653h-12.8575496504c-3.4710396644,0-6.2947131749-2.8234740853-6.2947131749-6.2953118234v-12.8575499752c0-3.4718377381,2.8236735105-6.2953118234,6.2947131749-6.2953118234h12.8575496504c3.4708401679,0,6.2945136784,2.8234740853,6.2945136784,6.2953118234v12.8575499752c0,3.4718377381-2.8236735105,6.2953118234-6.2945136784,6.2953118234Zm-12.8575496504-22.2338858765c-1.6983137343,0-3.080226014,1.3829097972-3.080226014,3.0810240779v12.8575499752c0,1.6983137772,1.3819122797,3.0810240778,3.080226014,3.0810240778h12.8575496504c1.6981142378,0,3.0800265175-1.3827103007,3.0800265175-3.0810240778v-12.8575499752c0-1.6981142807-1.3819122798-3.0810240779-3.0800265175-3.0810240779h-12.8575496504Z"/><path class="cls-17" d="m913.4721105604,826.5917278653c-.4809860699,0-.9573837203-.2148577397-1.2743836643-.6262195403-.5414335105-.7046216682-.4103643077-1.7122785328.2934593566-2.2537120569l11.2260672448-8.6417897568c.4809860699-.3704650164.7463164196-.8257160488.7463164196-1.2791716128,0-.4536550604-.2653303496-.9089060929-.7463164196-1.2791716127l-11.2260672448-8.6417897568c-.7038236643-.5416330207-.8348928671-1.5492898853-.2934593566-2.2539115535.5430294825-.7048211647,1.5522822937-.8350923847,2.2539114965-.291863392l11.2258677483,8.6417897568c1.2713912168.9777323883,2.0003514406,2.371414997,2.0003514406,3.8249465582,0,1.4533320647-.7289602238,2.8470146733-2.0003514406,3.8249465582l-11.2258677483,8.6417897568c-.2920628811.2260295442-.6373913287.3341566518-.9795278322.3341566518Z"/><path class="cls-17" d="m672.9565499682,806.1231865928h-22.2331048083c-.8875599441,0-1.6071438322-.7189854168-1.6071438322-1.6071438728,0-.8883579525.7195838881-1.6073433693,1.6071438322-1.6073433693h22.2331048083c.8875424647,0,1.6071263528.7189854168,1.6071263528,1.6073433693,0,.888158456-.7195838881,1.6071438728-1.6071263528,1.6071438728Z"/><path class="cls-17" d="m672.9565499682,815.3973802817h-22.2331048083c-.8875599441,0-1.6071438322-.7187859203-1.6071438322-1.6071438728s.7195838881-1.6071438728,1.6071438322-1.6071438728h22.2331048083c.8875424647,0,1.6071263528.7187859203,1.6071263528,1.6071438728s-.7195838881,1.6071438728-1.6071263528,1.6071438728Z"/><path class="cls-17" d="m672.9565499682,824.6717734671h-22.2331048083c-.8875599441,0-1.6071438322-.7187859203-1.6071438322-1.6071438728s.7195838881-1.6071438728,1.6071438322-1.6071438728h22.2331048083c.8875424647,0,1.6071263528.7187859203,1.6071263528,1.6071438728s-.7195838881,1.6071438728-1.6071263528,1.6071438728Z"/><rect class="cls-15" x="604.8005627914" y="786.762268068" width="367.1932736143" height="2.2543105465"/><rect class="cls-14" x="599.6741478833" y="75.0883354453" width="379.2185291732" height="77.4891143388"/><rect class="cls-17" x="620.534856219" y="50.3780230966" width="1.6031539021" height="13.7461074243"/><rect class="cls-17" x="616.9275604428" y="54.3988752262" width="1.6031539021" height="9.7252552947"/><rect class="cls-17" x="613.3202646665" y="58.0494618359" width="1.6033533986" height="6.074668685"/><rect class="cls-17" x="609.7131849298" y="60.9303909157" width="1.6031373591" height="3.1937396052"/><path class="cls-17" d="m627.7699959114,55.6351550896c-.1260647943,0-.2467771748-.0369068541-.3501163637-.1065311355-.1390320762-.0931648695-.2342088951-.2354058801-.2671258182-.4001899961-.0327174266-.1657815986,0-.3335581623.0941793356-.4728067252,1.5628386225-2.3404930382,4.1754619237-3.73856457,6.9877470421-3.73856457,2.8003324196,0,5.4057567553,1.3876977134,6.9706073287,3.7130290169.0943618462.1390490664.128094097.3070251266.0963568112.4718092427-.0327174266.164784116-.1268797762.3080226092-.2671258182.4011874787-.1033391888.070621764-.225032056.1075286181-.3511138462.1075286181-.2108678042,0-.4061748811-.104735667-.5218828532-.2786966224-1.3316391608-1.9760129171-3.5472473287-3.1560347651-5.9268416224-3.1560347651-2.3895691189,0-4.6103641958,1.1882012048-5.9418038602,3.1797748496-.1167054545.174958438-.3120125315.2794946085-.5228803357.2794946085Z"/><path class="cls-17" d="m629.030614317,57.8926575802c-.1246853147,0-.245563171-.0369068541-.3489193846-.1065311356-.140246042-.092965373-.2354058741-.2364033626-.2681233007-.4021849612-.0327174266-.164784116.001196979-.3323611832.0951598322-.4718092427,1.2813660419-1.916762454,3.421365035-3.0620719095,5.7241531748-3.0620719095,2.2934118042,0,4.4294208672,1.1371300987,5.7117843916,3.0417232657.1933121119.2876739653.1165059581.6794851081-.169971021.8739942039-.1055336504.070621764-.2272265175.1073291216-.3531088112.1073291216-.2096708252,0-.4053768951-.104336674-.5220650694-.2782976294-1.0469749307-1.5556737736-2.7917713503-2.4847290138-4.6666394901-2.4847290138-1.8810525315,0-3.6302378741.9354391285-4.678193007,2.5030826926-.116505958.1751579345-.3132095105.2794946085-.5240773147.2794946085Z"/><path class="cls-17" d="m630.8883257576,59.9907623605c-.1258822937,0-.2467771748-.0369068541-.3499168671-.1065311356-.287673958-.1925141307-.3654775944-.5843252735-.1729634685-.8729967213.8636203636-1.2947323404,2.3085735385-2.0683798005,3.8652447553-2.0683798005,1.5496888392,0,2.9914500699.7676625649,3.8572648951,2.0542155484.1925141259.2874744688.1167054545.6784876255-.1697715245.8729967214-.1043366713.0716192466-.2260295385.1083266041-.3521113287.1083266041-.2108678042,0-.4061576448-.1045361705-.5228803357-.2784971259-.6316059301-.9372345971-1.682354014-1.4970218001-2.8125017063-1.4970218001-1.1337386294,0-2.1880776504.5637771331-2.8182700138,1.5083931011-.1189170072.174958438-.3142240841.2794946085-.5240944058.2794946085Z"/><path class="cls-17" d="m634.2268997436,63.5848914583c-1.0587279441,0-1.9203533427-.8614259239-1.9203533427-1.9201538947,0-1.0595259568.8616253986-1.9209518807,1.9203533427-1.9209518807,1.0593264336,0,1.9209518322.8614259239,1.9209518322,1.9209518807,0,1.0587279708-.8616253986,1.9201538947-1.9209518322,1.9201538947Z"/><polygon class="cls-7" points="968.2800638453 58.0302087677 970.5000851846 58.0302087677 970.5000851846 50.7396088632 968.2800638453 50.7396088632 968.2800638453 49.144833774 951.151294055 49.144833774 951.151294055 59.6251833535 968.2800638453 59.6251833535 968.2800638453 58.0302087677"/><rect class="cls-17" x="951.151294055" y="49.144833774" width="12.8053056496" height="10.4803495795"/><text class="cls-26" transform="translate(647.512013653 62.5274181793)"><tspan x="0" y="0">21:18</tspan></text><text class="cls-26" transform="translate(917.3547870905 60.5518322418)"><tspan x="0" y="0">85%</tspan></text><text class="cls-25" transform="translate(766.672169903 179.9717541168)"><tspan x="0" y="0">Hoy</tspan></text><text class="cls-28" transform="translate(689.5911152155 129.2266369293)"><tspan x="0" y="0">Sebas </tspan><tspan class="cls-24" x="88.0458984375" y="0">(</tspan><tspan class="cls-27" x="100.759765625" y="0">juegos)</tspan></text><circle class="cls-17" cx="647.8879504604" cy="116.1706751972" r="26.3072235698"/><path class="cls-12" d="m638.1301642483,126.8942557045l-5.7217691202,7.8438653964-1.3634841484,1.8046113729s6.4163959926,6.3762935177,18.0862162042,6.135678668c0,0,9.624593989-.2406148497,15.7602726569-6.135678668l-7.1953679265-9.6690112208s-4.1135300105,1.3677989054-5.1962968343,1.6084137551-3.0918689717.4207908313-3.0918689717.4207908313l-4.0062690951-.1801759816-7.2714327649-1.8284941533Z"/><path class="cls-6" d="m656.7906309785,118.319296193c-.2838777385.7994099175-.6555403652,1.8460265362-1.0244599724,2.8849045175,3.3873565119,2.6517909781,3.710842792,3.4991862316,2.104780051,5.7861333042,2.2938831587,2.1265387131,4.4228133488,4.4284631271,5.8590319537,7.2447073799-.1247082449.107646801-.2494164897.2152894702-.3741164725.3229362712-.2863481086-.3167511456-.5808509169-.6265569365-.8576976022-.9514061757-1.5742536286-1.8472329868-3.1112864646-3.7282424609-4.7478694292-5.5183012545-.2766483948-.3025918769-1.0070599748-.3775653493-1.4744308503-.2857552793-1.9706695282.3870888726-3.9211216803.8771598791-6.1894831901,1.4013089854v5.2872618186c-.1678694925-.0040738369-.3357307228-.0081518054-.5036002153-.012229774v-5.4593173852h-2.7042454952c-.0926430071,1.0661470719-.1799486931,2.0709304267-.267254379,3.0757137814-.1897640764-.0064578165-.3795364148-.0129156329-.5693004911-.0193693177-.0564632401-1.0149431568-.112918218-2.029882182-.1589216305-2.8568380126-2.2365441353-.5735185553-4.3486691995-1.1438143999-6.4803754576-1.6278324946-.2877857152-.0653466571-.7696235404.2198177919-.9992688078.4838982759-1.5911992103,1.8297477154-3.1376012757,3.6984282552-4.7031466434,5.5505944684-.2786395626.3296502518-.5794380965.6405715964-1.0494363222.8049918177,1.1967992648-3.013073375,3.3678001043-5.2714416143,5.6542473666-7.4198286533-1.568577561-2.4172850623-1.3511189016-3.0065122665,2.1056393101-5.8260288101-.3513130569-1.0141994543-.7041463414-2.027775025-1.0937212164-3.1469108979-1.4295345602.4453538295-2.4654540752-.1013625151-2.9754491614-1.4608671583-.8014409149-2.136454746-1.2418112244-4.264960139,1.143673916-6.1033967783-1.4157781519-.1043869051-2.5723740034-.1896627226-3.728969855-.2749385401.0094601127-.1813249916.0189202253-.3626499831.0283886001-.5439770405,1.0713722166-.0621652632,2.1427444332-.1243284605,3.3610003902-.1950153145,0-1.674055669-.0060313382-3.2863551112.001156695-4.8985967099.0194407381-4.36185011,2.6258628849-6.9488708004,7.0078779488-6.9559401055,2.7963349411-.004511795,5.5928433865-.0206336119,8.3889800371.0035387843,3.7630427847.0325266539,6.4408825856,2.7408865341,6.4599928393,6.5124372688.0100549844,1.9845803723-.0256621047,3.9695718468.0041310536,5.9537039318.0050977201.3392378162.1467845951.7627061347.377470888.9982470363,1.4776200237,1.5086521079,1.3741619183,5.326477663-.3243042287,6.6106121925-.5333603251.4032478747-1.3734265908.4007234179-2.2703196292.6355598681Zm-19.1290665868-6.7546529002c-1.5931490676,1.1410668325-1.4298898308,4.815923851.1948370101,5.6816885556.1508247655.080369447.3716956751.170163257.506739816.1178727099,1.719600617-.6658285587,1.7999826572.6717905735,2.1396378809,1.716833022,1.2714969753,3.9121146334,3.6923274099,5.6881009236,7.6994411011,5.660546747,3.8816205461-.0266865237,6.3196857362-1.8863847902,7.5184844309-5.7363837406.0802002738-.2575689557.1636723421-.5149643808.2258033876-.7771360284.1820472683-.768079385.5263127478-1.0931889201,1.4348966678-.985207453.5109617527.0607315701,1.4068798625-.3508168505,1.580921149-.7747974974.4138489456-1.0082126495.6374133022-2.1468955024.6656862328-3.2399108919.0150618213-.5820091585-.5358472194-1.1786733874-.8700329282-1.8460595896-1.9026723866,1.7644258484-2.3222304483,1.6720249481-3.3920659129-.3117228906-.1814276103-.3364138126-.7104503292-.6840657959-1.0827326139-.6883131634-4.1449091137-.0473036088-8.2908179424-.0465082603-12.4356279108.0061830597-.3549896945.0045076633-.8528229591.3959203395-1.0311357549.7391596881-.9720947374,1.8713082885-1.5604228612,1.9884042425-3.1548525554.4372474726Zm15.0376711409-2.0837923477c0-2.5009887754.0281159505-4.8432425218-.0083943008-7.184490204-.0325444399-2.0870047292-1.2780157778-3.5258438335-3.2520479836-3.8659885535-2.8998260949-.4996668341-4.8711070191.3406962994-5.6731262814,2.4221211942-.0804646612.2088337196-.197761796.4258006521-.1988606563.6395035571-.0136737873,2.6452216062-.0089230757,5.290540307-.0089230757,7.9888540062h9.1413522978Zm-8.2262495753-10.9910342059c-2.9299414754-.354830778-5.6613445167,1.1580976191-6.2167646678,3.8127952343-.4854566281,2.3202380874-.3407375597,4.772359413-.4727742936,7.1367114519h4.9105668426c0-2.22244741.036791163-4.3369092213-.0115999984-6.4494208795-.0389971456-1.7023845356.3800982381-3.1956812533,1.7905721172-4.5000858068Zm7.1930896041-.0097404365c1.6030635961,1.3777584072,1.8445071525,3.0086421477,1.7884818041,4.7843516153-.0647666577,2.0527675597-.0150700834,4.1091482738-.0150700834,6.2087174431h4.6911170154c0-2.2644851922.2363871468-4.4869677215-.057999992-6.6367388734-.3952922531-2.8865613213-3.1949072507-4.7136420371-6.4065287441-4.356330185Zm3.8100211258,23.5993341337c-1.058136321.8899887467-1.952220243,1.6280721321-2.826714709,2.3886773073-.185649547.1614702014-.3535933984.3853039867-.4376933868.6142114755-.3473472454.9454854777-.6593161482,1.9039650903-1.097472213,3.1898307939,1.7686610091-.4651900271,3.5357770042-.7406450272,5.1461856135-1.3993505689,2.2357592351-.9145020065,2.3420016706-2.3996510504.456530991-3.9477173234-.4107671797-.3372649388-.8805423284-.6026592971-1.2408362957-.8456516844Zm-14.7619646263.0037970143c-.405545528.2731577858-.9100545751.5619250601-1.3563901259.9226827337-1.6913607349,1.367082145-1.6365664405,2.8943164854.3272290146,3.7384642382,1.667301479.7166978077,3.5072479483,1.0316475406,5.3229038227,1.5389146009-.5287170209-2.8827477803-2.1546501295-4.6178552247-4.2937427114-6.2000615727Zm10.5661857191,3.282686179h-6.3049213508c.0494239248,1.5142236789,1.2722075165,2.7495919846,2.9406161178,2.8473723328,1.6908236979.0990942225,3.0659935933-1.0898629174,3.364305233-2.8473723328Z"/><path class="cls-17" d="m637.6615643917,111.5646432929c1.5944296942,1.5511567699,2.182757818,1.4340608159,3.1548525554-.4372474726.1783127959-.3432393486.6761460604-.7346520248,1.0311357549-.7391596881,4.1448099684-.05269132,8.2907187971-.0534866685,12.4356279108-.0061830597.3722822847.0042473674.9013050036.3518993507,1.0827326139.6883131634,1.0698354647,1.9837478387,1.4893935263,2.076148739,3.3920659129.3117228906.3341857088.6673862022.8850947495,1.2640504311.8700329282,1.8460595896-.0282729306,1.0930153895-.2518372871,2.2316982424-.6656862328,3.2399108919-.1740412865.4239806469-1.0699593963.8355290674-1.580921149.7747974974-.90858392-.1079814671-1.2528493995.217128068-1.4348966678.985207453-.0621310455.2621716476-.1456031138.5195670728-.2258033876.7771360284-1.1987986947,3.8499989504-3.6368638848,5.709697217-7.5184844309,5.7363837406-4.0071136912.0275541765-6.4279441258-1.7484321136-7.6994411011-5.660546747-.3396552237-1.0450424485-.4200372639-2.3826615806-2.1396378809-1.716833022-.1350441409.052290547-.3559150505-.0375032629-.506739816-.1178727099-1.624726841-.8657647046-1.7879860777-4.5406217231-.1948370101-5.6816885556Zm7.873284097,1.0510623068c-.5782318289-.4236625075-.9285864814-.8742222543-1.2117123681-.8353348785-.3062267383.0420687698-.6735848072.5075066977-.7677397799.8550801791-.0463338967.1710887534.4589022158.6901434978.7228104414.6962914382.326642405.0076064236.6618691393-.3537296852,1.2566417067-.7160367388Zm7.52165708.0007478342c-.5493970751-.4118830867-.8541201099-.80216988-1.2005915719-.8436478194-.2340737568-.0280210564-.7645919171.4643926128-.7392272483.6723607454.0406082565.3328977526.4007782922.8313064901.6843999054.8743957849.3034424082.0461054215.6746588811-.3540147711,1.2554189148-.7031087109Z"/><path class="cls-17" d="m652.6992355326,109.4808509452h-9.1413522978c0-2.6983136993-.0047507116-5.3436324.0089230757-7.9888540062.0010988602-.213702905.118395995-.4306698374.1988606563-.6395035571.8020192624-2.0814248949,2.7733001865-2.9217880284,5.6731262814-2.4221211942,1.9740322058.34014472,3.2195035436,1.7789838243,3.2520479836,3.8659885535.0365102514,2.3412476822.0083943008,4.6835014286.0083943008,7.184490204Z"/><path class="cls-17" d="m644.4729859573,98.4898167393c-1.4104738791,1.3044045535-1.8295692628,2.7977012711-1.7905721172,4.5000858068.0483911614,2.1125116581.0115999984,4.2269734694.0115999984,6.4494208795h-4.9105668426c.1320367339-2.364352039-.0126823344-4.8164733645.4727742936-7.1367114519.5554201512-2.6546976152,3.2868231924-4.1676260123,6.2167646678-3.8127952343Z"/><path class="cls-17" d="m651.6660755614,98.4800763028c3.2116214934-.3573118521,6.0112364911,1.4697688637,6.4065287441,4.356330185.2943871388,2.1497711519.057999992,4.3722536812.057999992,6.6367388734h-4.6911170154c0-2.0995691693-.0496965743-4.1559498835.0150700834-6.2087174431.0560253484-1.7757094676-.185418208-3.4065932081-1.7884818041-4.7843516153Z"/><path class="cls-17" d="m655.4760966872,122.0794104365c.3602939673.2429923873.8300691161.5083867456,1.2408362957.8456516844,1.8854706796,1.548066273,1.7792282441,3.0332153169-.456530991,3.9477173234-1.6104086093.6587055417-3.3775246044.9341605418-5.1461856135,1.3993505689.4381560648-1.2858657035.7501249675-2.2443453161,1.097472213-3.1898307939.0840999884-.2289074888.2520438398-.4527412741.4376933868-.6142114755.874494466-.7606051752,1.768578388-1.4986885606,2.826714709-2.3886773073Z"/><path class="cls-17" d="m640.7141320609,122.0832074508c2.1390925818,1.582206348,3.7650256904,3.3173137924,4.2937427114,6.2000615727-1.8156558744-.5072670602-3.6556023437-.8222167932-5.3229038227-1.5389146009-1.9637954551-.8441477527-2.0185897495-2.3713820932-.3272290146-3.7384642382.4463355509-.3607576735.9508445979-.6495249478,1.3563901259-.9226827337Z"/><path class="cls-17" d="m651.28031778,125.3658936298c-.2983116397,1.7575094154-1.6734815351,2.9464665554-3.364305233,2.8473723328-1.6684086013-.0977803482-2.891192193-1.333148654-2.9406161178-2.8473723328h6.3049213508Z"/><path class="cls-6" d="m645.5348484886,112.6157055997c-.5947725674.3623070536-.9299993017.7236431624-1.2566417067.7160367388-.2639082256-.0061479404-.7691443381-.5252026848-.7228104414-.6962914382.0941549727-.3475734814.4615130416-.8130114093.7677397799-.8550801791.2831258868-.0388873759.6334805392.411672371,1.2117123681.8353348785Z"/><path class="cls-6" d="m653.0565055687,112.6164534339c-.5807600337.3490939397-.9519765066.7492141324-1.2554189148.7031087109-.2836216132-.0430892948-.6437916489-.5414980323-.6843999054-.8743957849-.0253646689-.2079681326.5051534914-.7003818018.7392272483-.6723607454.3464714621.0414779395.6511944969.4317647327,1.2005915719.8436478194Z"/><circle class="cls-5" cx="647.8879504604" cy="116.1706751972" r="26.3072235698"/><path class="cls-3" d="m562.4304622709,398.5061535502s30.7333086496,63.7431586806,18.2123310516,144.5603777221"/><path class="cls-16" d="m994.7769499513,570.3880492903l-1.3561854428-88.9777500158s19.4372310449-1.5825529078,29.4117048427-.647658047c9.975546135.9342758345,5.3913025946,93.3485274586,5.3913025946,93.3485274586-12.0779698039,4.2455124057-33.3289519566,4.0101967478-33.3289519566,4.0101967478l-.117870038-7.7333161437"/><path class="cls-9" d="m1026.9671814516,322.1969702822c-9.8851111085-.5068848174-36.735944326-1.2162038645-36.735944326-1.2162038645l2.9553589518,22.693640774,33.7805853741-21.4774369095Z"/><path class="cls-16" d="m1075.0442390943,521.2951514478c1.433370793,28.8067692094-17.0307145689,40.2706402177-26.6298220041,46.3810979449-9.5982483684,6.1107088239-29.4378867999,8.8978701831-41.9056548535,6.1059336821-12.4686271204-2.7921875977-35.8325998744-19.3356121494-34.490189568-45.4493440201,1.3418389187-26.1148313415,7.1074220358-39.1251766275,27.1416675755-45.3950740358,20.033994443-6.2690383416,49.4738263281,1.2654683382,57.5032506505,6.3314424329,9.7152662588,6.1284619573,17.4416978415,13.1498263794,18.3807481996,32.025943996Z"/><path class="cls-16" d="m1011.8829599317,328.3934320266c2.0420511675-1.0632549518,3.9307139706-2.010232575,5.5436700449-2.8013575189"/><path class="cls-16" d="m1041.5786885851,327.0382314148c10.4837934939,5.1045189804,20.6353731957,13.583203853,25.7539156339,30.6043343089,4.3214510896,14.3735034341,1.8725309936,25.071017557-9.3180109222,40.8978444151-11.1905419158,15.8268268581-21.9404188081,27.9192743685-31.5780152308,31.5455984955-9.6357018463,3.6259454329-35.2389488318,3.2710263992-47.3311448418-7.4797096242-12.09219601-10.7507360234-20.5259552234-26.029704056-13.8644686951-45.5152084351,6.6614154439-19.4855251564,18.4168304852-30.8486050741,29.7282856223-38.7244381182,5.2380292038-3.6470090522,11.59596606-7.2043782811,16.9137097804-9.9732204301"/><path class="cls-16" d="m999.5416173757,207.1716521586s33.3436932675-1.2532663881,47.3628736775,13.6301645404c14.01918041,14.8834309285,17.0047018773,27.3260316417,17.1632453851,37.760908066.1594395358,10.4351383244-.3094325305,16.4066364694-1.9121159567,21.2774533915-1.6033656688,4.8696850495-2.7798701765,13.2750756887-3.0845640565,17.7532052754-.3046567182,4.4781404488-1.3078665656,24.2505167269-31.4445578226,28.0645706539-30.1366912569,3.814053927-39.7030810595-12.4421654941-43.7066206146-18.3455268129-4.004398622-5.9036124154-4.9561288895-7.1935127159-5.4266556902-25.8254526589-.4696326713-18.6316785978,3.6314323205-30.8091152534,9.6447644385-39.8465662095,6.0127241479-9.0385611196,11.3767945632-18.6014703905,11.3767945632-18.6014703905l.0268360763-15.8672858555Z"/><path class="cls-3" d="m990.631124158,564.9960071314c-9.7390853884-7.8280903016-18.5007099845-20.3866140012-17.6639925803-36.6631680766,1.3418389187-26.1148313415,7.1074220358-39.1251766275,27.1416675755-45.3950740358,20.033994443-6.2690383416,49.4738263281,1.2654683382,57.5032506505,6.3314424329,9.7152662588,6.1284619573,17.4416978415,13.1498263794,18.3807481995,32.025943996,1.433370793,28.8067692094-17.0307145689,40.2706402177-26.6298220041,46.3810979449-9.5982483684,6.1107088239-29.4378867999,8.8978701831-41.9056548535,6.1059336821-4.696996295-1.0518315028-10.9401160589-4.0550568295-16.8261969876-8.7861759434"/><path class="cls-3" d="m1042.787840806,327.1658461788c10.3911240886,5.1180311871,20.4172016156,13.5966577312,25.4933223219,30.4767195449,4.3214510896,14.3735034341,1.8725309936,25.071017557-9.3180109222,40.8978444151-11.1905419158,15.8268268581-21.9404188081,27.9192743685-31.5780152309,31.5455984955-9.6357018463,3.6259454329-35.2389488317,3.2710263992-47.3311448418-7.4797096242-12.0921960101-10.7507360234-20.5259552234-26.029704056-13.8644686951-45.5152084351,6.6614154439-19.4855251564,18.4168304852-30.8486050741,29.7282856223-38.7244381182,5.2627018789-3.6641875492,11.6558864535-7.2378888259,16.9887847811-10.0122940817"/><path class="cls-3" d="m1040.0103825678,325.8766925996c.9265567221.4055076922,1.8534507389.8340440878,2.7774582382,1.2891535792"/><path class="cls-3" d="m1000.4901762847,207.1716521586s33.3436932675-1.2532663881,47.3628736775,13.6301645404c14.01918041,14.8834309285,17.0047018773,27.3260316417,17.163245385,37.760908066.1594395359,10.4351383244-.3094325305,16.4066364694-1.9121159567,21.2774533915-1.6033656688,4.8696850495-2.7798701765,13.2750756887-3.0845640564,17.7532052754-.3046567182,4.4781404488-1.3078665656,24.2505167269-31.4445578226,28.0645706539-30.1366912569,3.814053927-39.7030810595-12.4421654941-43.7066206146-18.3455268129-4.0043986219-5.9036124154-4.9561288895-7.1935127159-5.4266556902-25.8254526589-.4696326713-18.6316785978,3.6314323205-30.8091152534,9.6447644385-39.8465662095,6.0127241479-9.0385611196,11.3767945632-18.6014703905,11.3767945632-18.6014703905l.0268360763-15.8672858555Z"/><path class="cls-21" d="m1065.4174870592,275.2042870985c-.0726877264-.4212240721-1.8275622348-10.4320174461-8.4261488314-20.4284295924-10.6797809868-16.1890938046-31.2228435528-17.1397137912-32.0873324916-17.1742078951-.9486399625-.0404341761-1.8221953274.5332517509-2.1669800485,1.4161340713-.3462436862.8910108404-.0954058976,1.9022820912.6307418844,2.5154642883.0902474138.0805557169,9.2455661692,7.9653242775,18.5203116407,20.5201359713,9.1769427027,12.407873064,14.9556430085,35.8326001631,15.0136889779,36.0677019708.1922707603.7938854482.7977933905,1.3987307017,1.5442624723,1.6169501987.2603210619.0760746098.5395044585.1035865234.8183231139.0844115533,1.102352359-.0962916978,1.9671018272-.9812582541,2.042134319-2.0800674121.4879599779-7.1669628819,2.2552058644-15.0146686603,2.9733188061-17.1974471252.464836708-1.4212404492.8378107194-2.9141786129,1.1345538034-4.567394516.0486669079-.2590705204.0484063784-.5231432069.0031263538-.7732515129Z"/><path class="cls-3" d="m1005.2607099439,324.3744688199c-13.1155924718-3.9093082663-18.5662326679-12.9712567005-21.3414399261-17.0631517104-4.0037906519-5.9025022519-4.9555209194-7.1924025524-5.4260477201-25.8243424954-.4696326713-18.6316785978,3.6314323205-30.8091152534,9.6447644385-39.8465662095,2.9877288541-4.4912703781,5.8152362023-9.1117957804,7.9040484686-12.6241798577"/><path class="cls-3" d="m992.6884057833,429.594911721c-5.2047647969-1.5237160319-9.9900558892-3.7952082481-13.5827214624-6.9894717778-12.0924471068-10.7498769566-20.5262063201-26.0288449891-13.8647197918-45.5143493683,3.1054119523-9.0842828848,7.3182674874-16.4024404357,12.0767607504-22.4251652398"/><path class="cls-3" d="m996.970553608,569.9054547975c-12.0959994361-6.7531193108-25.9969514709-21.2523359349-24.9519809392-41.5726157427,1.1427691069-22.2409864858,5.5282236334-34.9584465211,19.1738391363-42.1186896876"/><path class="cls-21" d="m1047.2095502716,360.4119027131c-3.6251114729-5.2799947647-10.3121217769-11.0433238308-19.3598418547-13.8253618886-.1743463317-.0535648622-.3472858042-.1087971131-.5233516305-.1600693159-2.3979654903-.6994695626-4.9492265299-1.1992693276-7.659723191-1.4137372-13.6397085773-1.0635855716-22.1540726925,6.4465415889-22.5056832861,6.7625117489-.5703511496.5158483813-.8372896605,1.2761776317-.7122355074,2.031504716.1231262348.7465732936.6239160118,1.3843494741,1.3227081978,1.6892731839.1292226248.0554406745,13.3392659746,5.8748356859,25.6975342246,21.5885152854,11.9923285347,15.2522297748,9.5179236933,27.2049057217,9.4946323573,27.3166207651-.2343202193,1.005643814.2426571628,2.0375490001,1.1611799168,2.506502074.1275552361.0641944652.2590705204.111923467.3888142041.14985656.8306722115.2428134805,1.7385653626-.0110464502,2.3230893162-.6869641473.7419879747-.857246219,7.3071225853-8.4905517202,8.9963436633-11.7302879782,1.0999033818-2.110497256,10.4741711168-20.9876300801,1.3765335895-34.2283638033Z"/><path class="cls-21" d="m1047.2237751815,516.9313480389c-1.442603867-18.0880411184-28.4424207778-28.9302361864-29.5891673611-29.3837659148-.9363429708-.4556139642-1.9161943658-.0956664271-2.5266149503.6369424861-.6224570467.7290657122-.7063996469,1.7786869033-.212644166,2.5971663349.053669074.0969169686,5.471223407,9.2752665305,7.8391759006,27.250342064,2.3882216876,18.1547366667.4214846016,29.9909038277.3999648661,30.1124147798-.1440728055.850159817.2098304476,1.7099071191.9123742582,2.2061636831.208110953.1429785816.4312284044.2538599307.6657570472.3224312912.5660784661.1652799056,1.1865033828.1006685932,1.7171498389-.1900823126.3175333369-.180286404,7.8560582113-4.41545372,12.6653283016-9.9939110633,4.2963917452-4.9815321861,9.1680325943-10.6331462089,8.1286762649-23.5577013485Z"/><path class="cls-10" d="m380.8767664145,809.3833147111l-3.1651113104,18.7378960601-.0218585038.1175091875c-6.4889594136.6510481363-12.6873340535,2.9586321437-17.2923979714,6.6075089218-6.8757419784,5.4395535024-10.0226689174,13.7362092751-8.1486660722,21.4616006897,1.1663413098,4.785016044,4.1143664218,9.235502073,7.7789811046,13.1817583044,1.5305265305,1.6464658129,3.1849795043,3.2170781171,4.949176547,4.6991211699,8.033278502,6.8410743466,18.1758720835,12.0957961824,28.3633525577,16.8423340403,63.685181064,29.628043899,137.5764988106,44.687229806,210.3443504527,42.8346883567,15.1490124727-.3900569035,30.325712369-1.5031473505,44.9153932931-4.563481525.3166712676-.0526124139.6496183993-.1280249752.9668386949-.1924847903,10.1034174074-2.1843193861,20.1205398657-5.4429041422,27.6132715424-11.214361897,7.4777026705-5.7723436385,12.035006137-14.4372958731,9.6241665614-22.6814013998-2.3462081743-8.0739791431-10.353010148-13.8443141126-19.67210242-18.1238731598,2.4047024241-5.5843010042,4.9851759786-11.1107221362,7.7710322697-16.577517942,16.1416556369,5.0618670371,30.2534872948,12.64139374,36.9061754486,24.4143494976,9.2100412032,16.2598124649.5545655943,35.9333342933-15.6057617084,47.6564725579-14.6784693709,10.6462694562-34.2344850826,15.8848541672-53.9773756885,18.9740661098-1.9898578587.3222592087-3.9928000358.6081078725-5.9950443829.8821179063-87.1399478877,11.8634830542-179.2825390984-7.1701852938-256.2392051135-44.1975443143-7.8413135283-3.7647799867-15.6091496406-7.762824123-22.7922245299-12.3085079609-5.7311158543-3.5928754671-11.0834740793-7.5316977605-15.8247998228-11.95721238-10.6853619756-9.9792218874-17.9914399212-22.8242310933-17.0069043674-35.7270197462.9763873692-12.5112367498,9.9339005397-24.1362348311,22.8536119714-31.0371307688,9.8057465424-5.2430850458,21.6941880998-7.8211363681,33.6551014476-7.8288869177Z"/><path class="cls-18" d="m446.7824950107,960.1200422261c10.540481393,9.450483227,26.3409087049,14.5661287118,41.9916229895,15.2604487951,27.2633557489,1.2094210549,53.3638048204-15.5767437425,57.4782531804-36.9663169009,4.1146041403-21.3896827735-14.302087395-44.5484481363-40.5570198452-51.0002474216-12.3351597953-3.0311753375-25.7365292332-2.633735825-37.78606407.5797722278-21.9304654726,5.8487111941-33.9301645023,19.2842482221-35.0585442848,38.8222987711-.65242706,11.298893262,3.7870997648,24.2084735721,13.9317520302,33.3040445285Z"/><path class="cls-4" d="m421.3239549162,920.4933775785c-14.3974197733-5.3377448073-28.4336011464-11.3051700363-41.9979918494-17.8316165479-7.8413135283-3.7647799867-15.6091496406-7.762824123-22.7922245299-12.3085079609-5.7311158543-3.5928754671-11.0834740793-7.5316977604-15.8247998228-11.95721238-10.6853619756-9.9792218875-17.9914399212-22.8242310933-17.0069043674-35.7270197462.9763873692-12.5112367498,9.9339005397-24.1362348311,22.8536119714-31.0371307688,6.3460885116-3.3932227017,13.5644985717-5.6702155531,21.1103253333-6.8566575155"/><path class="cls-4" d="m691.4069327558,861.8569903292c8.590132874,4.4790426837,15.6030070061,10.1749528273,19.7364172042,17.4896584419,9.2100412032,16.2598124649.5545655943,35.9333342933-15.6057617084,47.6564725579-14.6784693709,10.6462694562-34.2344850826,15.8848541671-53.9773756885,18.9740661098-1.9898578587.3222592087-3.9928000357.6081078725-5.9950443828.8821179063-27.5861422012,3.7556567162-55.6736411787,4.4148511778-83.621985995,2.3869639566"/><path class="cls-4" d="m558.8998799069,927.3587003164c14.6898670488.9854062747,29.4271781481,1.3007398278,44.118694663.9267196708,15.1490124727-.3900569035,30.3257123691-1.5031473505,44.9153932931-4.563481525.3166712676-.0526124139.6496183993-.1280249752.9668386949-.1924847903,10.1034174074-2.1843193861,20.1205398657-5.4429041423,27.6132715424-11.214361897,7.4777026704-5.7723436385,12.035006137-14.4372958731,9.6241665613-22.6814013998-1.6944537235-5.8311040652-6.3413967256-10.4606584405-12.3028461346-14.1948662859"/><path class="cls-4" d="m371.9884055493,823.5099927085c-4.6034654489,1.1059098175-8.8629903088,3.0666207977-12.2570255692,5.7559247177-6.8757419784,5.4395535024-10.0226689174,13.7362092751-8.1486660722,21.4616006897,1.1663413098,4.785016044,4.1143664218,9.235502073,7.7789811046,13.1817583044,1.5305265305,1.6464658129,3.1849795043,3.2170781171,4.949176547,4.6991211699,8.033278502,6.8410743466,18.1758720835,12.0957961824,28.3633525577,16.8423340403,12.2541358886,5.7009506762,24.8861483679,10.8624974075,37.8153236747,15.4679492466"/><path class="cls-4" d="m446.1164763618,954.5397307718c10.5404813931,9.450483227,26.3409087049,14.5661287118,41.9916229895,15.2604487951,27.2633557489,1.2094210549,53.3638048204-15.5767437426,57.4782531804-36.9663169009,4.1146041403-21.3896827735-14.302087395-44.5484481363-40.5570198452-51.0002474216-12.3351597954-3.0311753375-25.7365292332-2.6337358249-37.78606407.5797722278-21.9304654726,5.8487111942-33.9301645023,19.2842482221-35.0585442848,38.8222987711-.6524270599,11.298893262,3.7870997648,24.2084735721,13.9317520302,33.3040445285Z"/></g></g></svg>