<?xml version="1.0" encoding="UTF-8"?><svg xmlns="http://www.w3.org/2000/svg" viewBox="0 0 589.0015941256 1085.6338821006"><defs><style>.cls-1{mix-blend-mode:overlay;}.cls-2{isolation:isolate;}.cls-3{fill:#2b1845;}.cls-3,.cls-4,.cls-5,.cls-6{stroke-width:0px;}.cls-4{fill:#93278f;}.cls-5{fill:#fff;}.cls-6{fill:#fcee21;}</style></defs><g class="cls-2"><g id="Capa_2"><g id="Capa_1-2"><rect class="cls-3" width="589.0015941256" height="1085.6338821006"/><g class="cls-1"><rect class="cls-6" x="528.6568976045" y="973.4522685576" width="14.5638842778" height="39.2415376179"/><rect class="cls-4" x="442.1421805346" y="838.4948425222" width="7.2819423228" height="7.2819423228"/><rect class="cls-6" x="480.941089575" y="181.1661993934" width="7.2819421389" height="7.2819423228"/><rect class="cls-6" x="98.3945001197" y="90.3073942682" width="7.2819423228" height="7.2819423228"/><rect class="cls-6" x="-67.3697261833" y="687.6502446394" width="184.0631074146" height="2.0151561721" transform="translate(713.3196502495 663.9959952015) rotate(90)"/><rect class="cls-6" x="174.2141656172" y="855.527300524" width="3.3835544148" height="3.3834331346"/><rect class="cls-6" x="173.5074460026" y="359.7127500356" width="3.3834331346" height="3.3834331346"/><rect class="cls-5" x="315.4207242726" y="249.4037031466" width="3.3834330491" height="3.3834331346"/><rect class="cls-6" x="414.525887298" y="761.621440637" width="3.3834330491" height="3.3834331346"/><rect class="cls-4" x="121.4819816185" y="818.1091612638" width="3.3834330491" height="3.3834331346"/><rect class="cls-4" x="212.1291689631" y="247.7119865793" width="3.3834331346" height="3.3834331346"/><rect class="cls-4" x="185.1905055598" y="398.8708235638" width="3.3834330491" height="3.3834331346"/><rect class="cls-4" x="217.6661151739" y="539.0740286581" width="3.3834331346" height="3.3834331346"/><rect class="cls-4" x="254.8216385935" y="663.792550229" width="10.7890612343" height="10.7890120156" transform="translate(402.807288882 1372.885531114) rotate(-170.2060287406)"/><polygon class="cls-4" points="105.6773860954 315.4476056795 108.5650402506 309.8259462063 102.1809615775 306.5464021155 93.6715267254 309.2804073606 105.6773860954 315.4476056795"/><polygon class="cls-4" points="99.2621164368 289.6628547429 90.7529243161 292.396859988 87.3880602194 298.9474525702 80.8374707685 295.5825883885 72.3281570671 298.3164722679 78.997930772 301.7427474965 95.8360840261 296.3327498135 99.2621164368 289.6628547429"/><polygon class="cls-4" points="93.0097195506 301.8353495297 93.5521028743 300.7793465272 83.4445274857 304.0268500718 84.5004091226 304.5692334092 82.0735804778 309.2940003196 97.734364976 304.2622995402 93.0097195506 301.8353495297"/><polygon class="cls-4" points="95.378292597 283.3921314773 93.036905468 287.9502632743 99.9364242788 285.7335186655 95.378292597 283.3921314773"/><polygon class="cls-4" points="71.8327422577 290.9569772594 69.4913550695 295.5152304221 76.3908740547 293.2984858133 71.8327422577 290.9569772594"/><polygon class="cls-4" points="76.5101765431 320.1247972335 82.1318360163 323.0124514616 88.2987884496 311.0065917882 79.7894779025 313.7405970334 76.5101765431 320.1247972335"/><polygon class="cls-4" points="67.552173829 296.1382005878 67.005906789 297.201728264 70.3888544608 298.9395637994 78.8981681622 296.2055585542 74.4516928142 293.921455979 67.552173829 296.1382005878"/><polygon class="cls-4" points="91.0977242764 288.57323344 88.8136217588 293.0198301537 97.3229352452 290.2859462743 99.0606493709 286.9028772368 97.9972430873 286.3564888312 91.0977242764 288.57323344"/><polygon class="cls-4" points="84.6581845396 303.6369020604 94.7657598974 300.3893985158 97.049862415 295.9428018021 80.2117091915 301.3527994852 84.6581845396 303.6369020604"/><polygon class="cls-4" points="79.8022213016 310.0237723061 77.5181187263 314.4703690198 86.0275506965 311.7363637747 87.8507062766 308.1869023551 91.4001676065 310.0101793471 99.9096024586 307.276174102 95.4630058572 304.9920715267 79.8022213016 310.0237723061"/><polygon class="cls-6" points="108.8563179362 314.4261919031 111.7439720913 308.8045324298 105.3598934182 305.5251097047 96.8504585661 308.2589935841 108.8563179362 314.4261919031"/><polygon class="cls-6" points="102.4411731547 288.6414409664 93.9318561568 291.3754462115 90.5669920601 297.9261601594 84.0164026895 294.5611746121 75.5070889881 297.2951798572 82.176862693 300.7213337201 99.0151372326 295.3114574027 102.4411731547 288.6414409664"/><polygon class="cls-6" points="96.1886513914 300.8139357533 96.731034715 299.7580541165 86.6234562948 303.0054362953 87.6794624093 303.5479409984 85.2525093215 308.2725865431 100.9132968168 303.2408857638 96.1886513914 300.8139357533"/><polygon class="cls-6" points="98.5572244377 282.3707177008 96.2158373087 286.9288494978 103.1153561196 284.712104889 98.5572244377 282.3707177008"/><polygon class="cls-6" points="75.0117955445 289.9356848486 72.6702869906 294.4938166456 79.5698059758 292.2770720368 75.0117955445 289.9356848486"/><polygon class="cls-6" points="79.6892298298 319.103383457 85.3108862243 321.9911590508 91.477841656 309.9851780118 82.9684098235 312.7191832569 79.6892298298 319.103383457"/><polygon class="cls-6" points="70.73110575 295.116908177 70.1848387101 296.1803144875 73.5679077476 297.9181500229 82.0772214489 295.1842661435 77.6306247352 292.9001635682 70.73110575 295.116908177"/><polygon class="cls-6" points="94.2766561171 287.5519410292 91.9926749652 291.9985377429 100.5019884516 289.2645324978 102.2397060838 285.8814634603 101.176174928 285.3351964204 94.2766561171 287.5519410292"/><polygon class="cls-6" points="87.8372378263 302.6154882839 97.9448131039 299.3681061051 100.2287942557 294.9215093913 83.3906411125 300.3313857087 87.8372378263 302.6154882839"/><polygon class="cls-6" points="82.9811532226 309.0023585296 80.697172013 313.4489552433 89.2064825372 310.7149499982 91.0297594831 307.1654885786 94.579220813 308.9887655706 103.0885342994 306.2547603255 98.6420590636 303.9706577502 82.9811532226 309.0023585296"/><polygon class="cls-5" points="107.341920338 314.9127470159 110.2295708579 309.2910875427 103.8454921847 306.0116648176 95.3360573326 308.745548697 107.341920338 314.9127470159"/><polygon class="cls-5" points="100.9267684097 289.128117445 92.4174549233 291.8620013244 89.0525908267 298.4127152723 82.5020014177 295.0477297249 73.9926877164 297.78173497 80.6624614213 301.2078888329 97.5007359991 295.7980125156 100.9267684097 289.128117445"/><polygon class="cls-5" points="94.6742501579 301.3004908661 95.2166334815 300.2446092293 85.1090550613 303.4919914082 86.1649366715 304.0344961112 83.7381111271 308.759141656 99.3988955833 303.7275622423 94.6742501579 301.3004908661"/><polygon class="cls-5" points="97.0428265794 282.8572728137 94.7014360752 287.4154046106 101.6009548861 285.1986600019 97.0428265794 282.8572728137"/><polygon class="cls-5" points="73.497272907 290.4222399615 71.1558857188 294.9803717584 78.055404704 292.7636271497 73.497272907 290.4222399615"/><polygon class="cls-5" points="78.1747071924 319.5899385699 83.7963666656 322.4777141637 89.9634404225 310.4718544903 81.4540085518 313.2057383697 78.1747071924 319.5899385699"/><polygon class="cls-5" points="69.2167044783 295.6034632899 68.6704374383 296.6669909661 72.0535064758 298.4047051358 80.5628201772 295.6708212563 76.1162234634 293.3867186811 69.2167044783 295.6034632899"/><polygon class="cls-5" points="92.7622581506 288.0384961421 90.4782737318 292.4850928558 98.9874658524 289.7510876107 100.7253013439 286.3680185732 99.6617736945 285.8217515333 92.7622581506 288.0384961421"/><polygon class="cls-5" points="86.3228334502 303.1020433968 96.4304118704 299.8546612179 98.7143930222 295.4080645042 81.8762398408 300.8179408215 86.3228334502 303.1020433968"/><polygon class="cls-5" points="81.4667519509 309.4889136425 79.1827707413 313.9355103562 87.6920813037 311.2015051111 89.5153582496 307.6520436915 93.0648195795 309.4753206835 101.5741330659 306.7414368041 97.1275364645 304.4572128631 81.4667519509 309.4889136425"/><polygon class="cls-4" points="287.1526728252 459.7937026039 283.7954164699 454.4392248967 277.7145306156 458.2516646896 275.7172472668 466.9635029232 287.1526728252 459.7937026039"/><polygon class="cls-4" points="261.7095692047 452.1348812967 259.7124098692 460.8465108697 263.6244003718 467.0858140258 257.3850987423 470.9978017933 255.3877729601 479.7094738747 261.7407578284 475.7264064036 265.6928650636 458.4877194367 261.7095692047 452.1348812967"/><polygon class="cls-4" points="268.9790867298 463.7286818431 268.348416305 462.7229100866 265.9760528582 473.0709171982 266.9817626199 472.4403511107 269.8034571042 476.9404577613 273.4792356432 460.9071537984 268.9790867298 463.7286818431"/><polygon class="cls-4" points="254.3347569645 452.2697972495 257.0568586277 456.6113202198 258.6762799269 449.5476957155 254.3347569645 452.2697972495"/><polygon class="cls-4" points="248.8081763611 476.375330625 251.5303823244 480.7169156528 253.1498037126 473.6532909986 248.8081763611 476.375330625"/><polygon class="cls-4" points="276.2716145847 487.2564920738 281.6260923547 483.8992357558 274.4561661499 472.4640214146 272.4589463095 481.1757527911 276.2716145847 487.2564920738"/><polygon class="cls-4" points="251.0751679863 482.7021853115 251.7103226713 483.7151400603 254.9326009457 481.6949098703 256.9298223976 472.9831757822 252.6945893745 475.6385606573 251.0751679863 482.7021853115"/><polygon class="cls-4" points="256.6016443147 458.5965898363 259.2571335495 462.8318848165 261.254459222 454.1202129199 259.2340626726 450.897977007 258.2210656138 451.532965332 256.6016443147 458.5965898363"/><polygon class="cls-4" points="266.2609058003 471.8283868375 268.6332692315 461.4803797522 265.9777799966 457.2450847721 262.0256727771 474.4837717126 266.2609058003 471.8283868375"/><polygon class="cls-4" points="269.2703413122 479.2658453015 271.9258305176 483.5011403313 273.9231123939 474.7893045751 271.8033316528 471.4086090479 275.1841315042 469.288890414 277.1814148529 460.5770521805 272.9461198806 463.2325412893 269.2703413122 479.2658453015"/><polygon class="cls-6" points="287.8987683666 456.5391311738 284.5415120113 451.1846534665 278.4607304872 454.9971552661 276.4633428082 463.708931493 287.8987683666 456.5391311738"/><polygon class="cls-6" points="262.4557285468 448.8802025177 260.4585054106 457.5919394395 264.3706002435 463.8313046023 258.1311943247 467.7432302941 256.1339728728 476.4549643821 262.4868534108 472.4718349044 266.4391269419 455.2331056829 262.4557285468 448.8802025177"/><polygon class="cls-6" points="269.7251822712 460.474110413 269.0946161767 459.468400663 266.7221468507 469.8163483742 267.7280245392 469.1857372878 270.5495511143 473.6858889075 274.2253311845 457.6525823683 269.7251822712 460.474110413"/><polygon class="cls-6" points="255.0808525059 449.0152258193 257.8029541691 453.3567487896 259.4223754682 446.2931242853 255.0808525059 449.0152258193"/><polygon class="cls-6" points="249.5544382804 473.1207168021 252.2764779068 477.4623441536 253.895899295 470.3987194994 249.5544382804 473.1207168021"/><polygon class="cls-6" points="277.0177721737 484.0018162444 282.372352701 480.6446245796 275.2023236979 469.2093456542 273.2050418919 477.9211812919 277.0177721737 484.0018162444"/><polygon class="cls-6" points="251.821367899 479.4476758189 252.4564182537 480.4605685611 255.6787585347 478.4402340408 257.676084317 469.7285619594 253.4407892872 472.3840511647 251.821367899 479.4476758189"/><polygon class="cls-6" points="257.3478441863 455.3420804128 260.0033954278 459.5772710627 262.0006167699 450.8655371595 259.980222012 447.6432982323 258.9672654855 448.2784559085 257.3478441863 455.3420804128"/><polygon class="cls-6" points="267.0070633893 468.573711008 269.3795311098 458.2257659984 266.7239798683 453.9905753485 262.7717683595 471.2292002134 267.0070633893 468.573711008"/><polygon class="cls-6" points="270.0164368946 476.0112738023 272.6719881066 480.2464645018 274.6692079353 471.534733145 272.5494892008 468.1539332874 275.9302890522 466.0342146535 277.9275103943 457.3224807503 273.6922774286 459.9778655288 270.0164368946 476.0112738023"/><polygon class="cls-5" points="287.5433118167 458.0895461519 284.1860536041 452.7350715697 278.1052720801 456.5475733693 276.107884401 465.2593495962 287.5433118167 458.0895461519"/><polygon class="cls-5" points="262.1003726759 450.4306856461 260.1030470034 459.1423575427 264.0151418363 465.3817227055 257.7757358981 469.2936484302 255.7785144461 478.0053825182 262.1313949841 474.0222530404 266.0836685347 456.783523786 262.1003726759 450.4306856461"/><polygon class="cls-5" points="269.3697238641 462.0245285162 268.7391577696 461.0188187662 266.3666884435 471.3667664773 267.3725025219 470.7362624194 270.1940942599 475.2363043982 273.8699771077 459.2030624781 269.3697238641 462.0245285162"/><polygon class="cls-5" points="254.7253958231 450.5656410211 257.447495762 454.9071668928 259.0669170611 447.8435423885 254.7253958231 450.5656410211"/><polygon class="cls-5" points="249.1989178471 474.6712392685 251.9210194801 479.0127622897 253.5404408683 471.9491376355 249.1989178471 474.6712392685"/><polygon class="cls-5" points="276.6622517404 485.5523387107 282.0168338407 482.1951443993 274.8469696211 470.759825764 272.8495834652 479.471599428 276.6622517404 485.5523387107"/><polygon class="cls-5" points="251.4659094723 480.998093955 252.1010641573 482.0110487038 255.323300108 479.9906521768 257.3206258903 471.2789800954 253.0853308605 473.9344693008 251.4659094723 480.998093955"/><polygon class="cls-5" points="256.9923874484 456.8924957075 259.6479370207 461.1276891658 261.6450963562 452.4160595929 259.6247618134 449.1937193497 258.6118070784 449.8288740116 256.9923874484 456.8924957075"/><polygon class="cls-5" points="266.6516033766 470.1241318127 269.0240727026 459.7761841016 266.3685214612 455.5409934517 262.4163099328 472.7796183495 266.6516033766 470.1241318127"/><polygon class="cls-5" points="269.660978468 477.5616919384 272.3165296799 481.7968826378 274.3137495282 473.0851512482 272.1940307937 469.7043513906 275.574830645 467.5846327567 277.5721563175 458.8729608601 273.3367570148 461.5283879623 269.660978468 477.5616919384"/><path class="cls-4" d="m518.1176001105,524.253208323l-3.6989838751-2.0507163238c-.0837423346.17464525-.161052287.3511109857-.2562029976.5228434588-.5439610778.9809989966-1.2397506491,1.8225487977-2.0331182452,2.5299894944l3.844986815,2.131788615c.7112030156-.7823233369,1.352742118-1.6471753534,1.8871153053-2.6109404199.0951507106-.1717324731.1690624233-.3490477687.2562029976-.5229648245Z"/><path class="cls-4" d="m512.4223931636,505.8019801339c-2.9480942749-1.6344319544-6.2378206064-2.0843346242-9.318082209-1.508939815l15.5343121158,8.6125959166c-1.1436290129-2.9172674602-3.2681356319-5.4691027816-6.2162299069-7.1036561016Z"/><path class="cls-4" d="m515.2788563333,519.3546457224l3.8726581952,2.1472020596c.4076673941-1.5772687071.5418978608-3.1886411775.3945598982-4.7683371987l-5.0818246873-2.8175048504c.7797746374,1.6843132593,1.0733582713,3.5723995379.8146065939,5.4386399895Z"/><path class="cls-4" d="m499.414659921,510.5591516878c1.445708246-1.2081955971,3.2025981527-1.9594493134,5.0442013196-2.1904082507l-5.0818246873-2.8173834847c-1.4179155001.7119312278-2.7133730066,1.6793372654-3.8351561931,2.8607110415l3.8727795609,2.1470806939Z"/><path class="cls-4" d="m497.4549679257,512.7973780264l-3.6989838751-2.0507163238c-.1012069168.166028285-.2125113448.3225900449-.3076620554.494322518-.5343731873.9637650664-.9279621599,1.9660030615-1.2147372714,2.9836545011l3.844974772,2.131788615c.1796212394-1.0477501346.5247852968-2.08360643,1.0687463746-3.0646054266.0951507106-.1717324731.2038943799-.3308429129.3076620554-.4944438837Z"/><path class="cls-4" d="m500.9380422164,526.5160718998c-2.6693172567-1.4799334114-4.3662525065-4.0391720408-4.8575408694-6.8338601386l-4.3458630685-2.4094733489c-.2640917682,5.1590134043,2.3385957179,10.2733642291,7.1525663002,12.9423174561s10.5305503699,2.1669846696,14.7662134877-.7899693763l-4.3459970184-2.4094733489c-2.630480232,1.0638917734-5.7000615749.9803921681-8.3693788316-.4995412433Z"/><path class="cls-4" d="m517.1732535808,512.0932142038l-15.5342030678-8.6125959166c-1.2933820416.2417604851-2.5486797486.666540454-3.7272620838,1.2581982677l5.0818246873,2.8175048504c1.9754695366-.2477074047,4.0418419842.0950293473,5.9126942854,1.1322206655,1.870743447,1.0371913182,3.2561204274,2.6082703743,4.0925728478,4.4150416303l5.0818246873,2.8175048504c-.1224453007-1.3131769322-.4272072721-2.6029302833-.9074513562-3.8278743477Z"/><path class="cls-4" d="m516.1960295941,519.8631680279c-.1342431151.9681342318-.4190884185,1.9266805729-.8602527464,2.8477249111l3.6989965952,2.0508376895c.4487976471-.8950720772.7920198532-1.8156309525,1.0339016979-2.7514819067l-3.8726455468-2.1470806939Z"/><path class="cls-4" d="m494.6731446629,511.2550626424l3.6989838751,2.0508376895c.5474928951-.862181971,1.209651955-1.611493836,1.9595706296-2.2382263386l-3.8726581952-2.1470806939c-.6655695115.7008869486-1.2645092524,1.47969068-1.7858963096,2.334469343Z"/><path class="cls-4" d="m507.5912010826,526.0639846472l4.3458506375,2.4094733489c.8385156373-.5853467971,1.6178048119-1.2645092844,2.3208763254-2.037851559l-3.8449743127-2.131788615c-.8418050136.7506468878-1.7959821651,1.3453388441-2.8217526501,1.7601668251Z"/><path class="cls-4" d="m490.5172189186,513.2731315915c-.2835102806,1.0060003319-.4466257845,2.0268072799-.4989344022,3.0480996906l4.3459844342,2.4094733489c-.191636444-1.0898640343-.1927287353-2.214195929-.0020632169-3.3257844245l-3.844986815-2.131788615Z"/><path class="cls-6" d="m520.5197914564,525.5850755738l-3.6989838752-2.0508376895c-.0837423346.1747666157-.161052287.3512323514-.2562029976.5229648245-.5439610778.9809989966-1.2397506491,1.8225487977-2.0331182452,2.5299894944l3.844986815,2.131788615c.7112030156-.7824447026,1.3526207523-1.6471753534,1.8869939396-2.6110617856.0952720763-.1716111074.169183789-.348926403.2563243633-.5228434588Z"/><path class="cls-6" d="m514.8245971233,507.1338473848c-2.9481068887-1.6345533201-6.2379669813-2.0844559899-9.3181071404-1.508939815l15.5343244335,8.6125959166c-1.1436290129-2.9172674602-3.2681356319-5.4691027816-6.2162172931-7.1036561016Z"/><path class="cls-6" d="m517.6810476792,520.6865129732l3.8726581952,2.1470806939c.4076673941-1.5771473414.5419106583-3.1885198118.3945598982-4.7683371987l-5.0818246873-2.8175048504c.7797746374,1.684434625,1.0733582713,3.5725209036.8146065939,5.4387613552Z"/><path class="cls-6" d="m501.8167299012,511.8910189386c1.4458296117-1.2081955971,3.2027318844-1.9594493134,5.0443226853-2.1904082507l-5.0818246873-2.8175048504c-1.4179155001.7119312278-2.7134943724,1.6794586311-3.8351561931,2.8608324072l3.8726581952,2.1470806939Z"/><path class="cls-6" d="m499.8571592716,514.1292452772l-3.6989838752-2.0508376895c-.1012189957.166028285-.2125113448.3227114106-.3076620554.4944438837-.5343731873.9637650664-.9279621599,1.9660030615-1.2147493145,2.9836545011l3.844986815,2.131788615c.1796212394-1.0477501346.5247852968-2.0837277957,1.0687586024-3.0647267923.0951384827-.1716111074.203894385-.3307215472.3076498275-.494322518Z"/><path class="cls-6" d="m503.3402335623,527.8479391506c-2.6693050005-1.4799334114-4.3662525065-4.0391720408-4.8575286685-6.8338601386l-4.3458752694-2.4094733489c-.2640917682,5.1588920386,2.3385957179,10.2733642291,7.1525663002,12.9423174561,4.8139705823,2.668953227,10.5305378927,2.1669846696,14.7662009035-.790090742l-4.3459844342-2.4094733489c-2.6304677634,1.0638917734-5.7000615749.9805135338-8.3693788316-.4994198776Z"/><path class="cls-6" d="m519.5754449267,513.4250814546l-15.5343244335-8.6125959166c-1.2932729239.2416391194-2.548546106.6664190882-3.7272620838,1.2581982677l5.0818370629,2.8175048504c1.9755785267-.2477074047,4.0419509743.0950293473,5.9126819098,1.1322206655,1.8708523012,1.0371913182,3.2562417931,2.6082703743,4.0927068418,4.4149202646l5.081812059,2.8175048504c-.1224579936-1.3130555665-.4272072721-2.6028089176-.9074513562-3.827752982Z"/><path class="cls-6" d="m518.5982082916,521.1950352788c-.1342304668.9681342318-.4190630716,1.9265592072-.860240098,2.8477249111l3.6989838752,2.0508376895c.4488103672-.8950720772.7920325733-1.8156309525,1.033914418-2.7514819067l-3.8726581952-2.1470806939Z"/><path class="cls-6" d="m497.0753360088,512.5869298933l3.6989838752,2.0508376895c.5474806831-.862181971,1.209651955-1.611493836,1.9595706296-2.2382263386l-3.8726581952-2.1472020596c-.6655695115.7010083143-1.2644970739,1.4798120457-1.7858963096,2.3345907087Z"/><path class="cls-6" d="m509.9933799975,527.3958518981l4.3458630685,2.4094733489c.83852826-.5853467971,1.6178048119-1.2645092844,2.3208763254-2.0379729248l-3.844986815-2.131788615c-.8417925113.7506468878-1.7959696629,1.3453388441-2.8217525788,1.7602881908Z"/><path class="cls-6" d="m492.9194102645,514.6049988423c-.2835102806,1.0060003319-.4466257845,2.0268072799-.4989223545,3.0479783249l4.3459723864,2.4094733489c-.1916242912-1.0897426686-.1927287353-2.2140745633-.0020632169-3.3257844245l-3.844986815-2.1316672493Z"/><path class="cls-5" d="m519.3754342493,524.9505756661l-3.6989838751-2.0507163238c-.0837423346.17464525-.161052287.3511109857-.2562029976.5228434588-.5439610778.9809989966-1.2397506491,1.8225487977-2.0331182452,2.5299894944l3.844986815,2.131788615c.7112030156-.7823233369,1.3526207523-1.6471753534,1.8869939396-2.6109404199.095284801-.1717324731.169183789-.3490477687.2563243633-.5229648245Z"/><path class="cls-5" d="m513.6802273024,506.4993474771c-2.9480817646-1.6344319544-6.2379543676-2.0843346242-9.3180945266-1.508939815l15.5343371753,8.6125959166c-1.1436417548-2.9172674602-3.2681483738-5.4691027816-6.2162426487-7.1036561016Z"/><path class="cls-5" d="m516.5366904721,520.0520130655l3.8726581952,2.1470806939c.4076673941-1.5771473414.5418978608-3.1885198118.3945598982-4.768215833l-5.0818246873-2.8175048504c.7797872935,1.6843132593,1.0733582713,3.5723995379.8146065939,5.4386399895Z"/><path class="cls-5" d="m500.672372694,511.2565190309c1.4458296117-1.2081955971,3.2027195184-1.9594493134,5.0443226853-2.1904082507l-5.0818246873-2.8175048504c-1.4179032807.7119312278-2.7134943724,1.6794586311-3.8351561931,2.8608324072l3.8726581951,2.1470806939Z"/><path class="cls-5" d="m498.7128020645,513.4947453695l-3.6989838751-2.0507163238c-.1012189957.166028285-.2125113448.3225900449-.3076620554.494322518-.5343610953.9637650664-.9280835256,1.9660030615-1.2147493145,2.9836545011l3.844986815,2.131788615c.1796212394-1.0477501346.5247852968-2.08360643,1.0687463746-3.0647267923.0951507106-.1716111074.2037852183-.3307215472.3076620554-.494322518Z"/><path class="cls-5" d="m502.1958763552,527.2134392429c-2.6693172567-1.4799334114-4.3662525065-4.0391720408-4.8575408694-6.8338601386l-4.3458630685-2.4094733489c-.2640917682,5.1590134043,2.3385957179,10.2733642291,7.1525663002,12.9423174561,4.8139705823,2.668953227,10.5305378927,2.1669846696,14.7662009035-.7899693763l-4.3459844342-2.4094733489c-2.630480232,1.0638917734-5.7000615749.9803921681-8.3693788316-.4995412433Z"/><path class="cls-5" d="m518.4310877195,512.7905815469l-15.534312121-8.6125959166c-1.2932852363.2417604851-2.5485706953.666540454-3.7272743962,1.2581982677l5.0818246873,2.8175048504c1.9755909023-.2477074047,4.0419633499.0950293473,5.9126942854,1.1322206655,1.8708523012,1.0371913182,3.2562417931,2.6082703743,4.0926942135,4.4150416303l5.0818246873,2.8175048504c-.1224579936-1.3131769322-.4272072721-2.6029302833-.9074513562-3.8278743477Z"/><path class="cls-5" d="m517.4538510845,520.5605353711c-.1343518325.9681342318-.4190757701,1.9266805729-.860240098,2.8477249111l3.6989838751,2.0508376895c.4488103672-.8950720772.7920453452-1.8156309525,1.033914418-2.7514819067l-3.8726581952-2.1470806939Z"/><path class="cls-5" d="m495.9309788017,511.9524299855l3.6989838751,2.0508376895c.5474806831-.862181971,1.2096642154-1.611493836,1.9595706296-2.2382263386l-3.8726460136-2.1470806939c-.6655816931.7008869486-1.264521434,1.47969068-1.7859084911,2.334469343Z"/><path class="cls-5" d="m508.8490227904,526.7613519904l4.3458630685,2.4094733489c.8385156373-.5853467971,1.6178048119-1.2645092844,2.3208763254-2.037851559l-3.844986815-2.131788615c-.8417925113.7506468878-1.7959696629,1.3453388441-2.8217525788,1.7601668251Z"/><path class="cls-5" d="m491.7750530574,513.9704989346c-.2835102806,1.0060003319-.4466257845,2.0268072799-.4989344022,3.0480996906l4.3459965628,2.4094733489c-.1916485726-1.0898640343-.1927408639-2.214195929-.0020753456-3.3257844245l-3.844986815-2.131788615Z"/><path class="cls-4" d="m157.1718723325,834.8865136442l-3.2125501403-1.7810417265c-.0726980557.1518284974-.1398132891.3049920176-.2225774027.4541504695-.4723626087.8519872518-1.0765138067,1.5828515296-1.7656355326,2.1973260959l3.3392559335,1.8513124699c.6176300591-.6794052187,1.1748199984-1.4305375693,1.6389298205-2.2675968393.0826426668-.1490370862.1468525035-.3030501663.2225773216-.4541504695Z"/><path class="cls-4" d="m152.2256131347,818.8619927343c-2.560330856-1.4194932901-5.4175222199-1.8102908615-8.0925366119-1.3105068867l13.491247148,7.4798897883c-.9932569077-2.5336304655-2.8382583143-4.7498896115-5.3987105361-6.1693829016Z"/><path class="cls-4" d="m154.7064567755,830.6322815735l3.3632790227,1.8646626975c.3541525331-1.3697333509.4706636102-2.7692012997.3427367433-4.1411192333l-4.4134637647-2.4469753519c.6772206189,1.4628208469.9320885938,3.1025928924.7074479986,4.7234318877Z"/><path class="cls-4" d="m140.9285294661,822.9935240768c1.2556495561-1.0493278887,2.7814591656-1.7017899208,4.3809377565-1.9022860661l-4.4134637647-2.4469753519c-1.2314977814.6182369032-2.3565578418,1.4585730473-3.3307603343,2.4844773549l3.3632863425,1.8647840632Z"/><path class="cls-4" d="m139.2267395883,824.9373172142l-3.2125501403-1.7810417265c-.0879901342.144182458-.1845972332.2802334137-.2672472765.4293918656-.4641024457.83705927-.8058682634,1.707494109-1.0550320502,2.5912791756l3.3393772992,1.8514338356c.1560831957-.910000059.455856488-1.8096840329.9282048913-2.6616712847.0826500433-.1491584519.1770725597-.2872726246.2672472765-.4293918656Z"/><path class="cls-4" d="m142.2516583528,836.8517885114c-2.3183276456-1.28526282-3.7919500031-3.5078329826-4.2186718125-5.9350257245l-3.7743519763-2.0925874922c-.2293811774,4.4804577455,2.0310550282,8.9221998311,6.2119821073,11.2401634381,4.1808057133,2.3179636071,9.1456338636,1.8820179933,12.8241069351-.6860803325l-3.7743519763-2.0927088579c-2.2845879804.9240784808-4.950378568.8516231547-7.2687132773-.433761031Z"/><path class="cls-4" d="m156.3516829163,824.3257554248l-13.4912542007-7.4798897883c-1.1232395749.2099626703-2.2134676788.5789144147-3.2370660121,1.0927768113l4.4134637647,2.4469753519c1.7157469336-.2151813956,3.5103815738.0825286797,5.1351042306.983304945,1.6247226569.9007762653,2.8279422296,2.2651695252,3.5544373237,3.8343067301l4.413471146,2.4469753519c-.1064451022-1.1404735335-.371143699-2.2605576284-.7881562521-3.3244494018Z"/><path class="cls-4" d="m155.50297256,831.0738100097c-.1166324399.8408216069-.3638543755,1.6732689801-.7471272635,2.4733117099l3.2125501403,1.7810417265c.3897052701-.777347343.6879008007-1.5767832443.8979848314-2.3895693732l-3.3634077082-1.8647840632Z"/><path class="cls-4" d="m136.8107125523,823.5979252896l3.2125501403,1.7810417265c.4755108217-.7488264022,1.0505415192-1.3994679487,1.7019182354-1.9439145031l-3.3634147001-1.8646626975c-.5780648401.6087703782-1.0982382402,1.2851414543-1.5510536756,2.0275354741Z"/><path class="cls-4" d="m148.0297580742,836.4591704545l3.7743519763,2.0925874922c.7281942139-.5082795741,1.4050507357-1.0981169023,2.0157629497-1.7698760816l-3.3393700861-1.8514338356c-.7311142038.6519765693-1.5597992192,1.1683876457-2.4507448399,1.528722425Z"/><path class="cls-4" d="m133.2014179311,825.350567441c-.24625101.873711713-.3880061503,1.7602881908-.433396923,2.6471074001l3.7743519763,2.0925874922c-.1662710122-.9464097706-.1672419378-1.9229182361-.0016991198-2.8883824224l-3.3392559335-1.8513124699Z"/><path class="cls-6" d="m159.2580273896,836.0432501822l-3.2124287746-1.7810417265c-.0726980557.1517071317-.1399346548.3049920176-.22257735.4540291038-.4723626614.8519872518-1.0766424932,1.5828515296-1.7656355853,2.1973260959l3.3392559335,1.8514338356c.6176300591-.6795265844,1.1748199984-1.4305375693,1.6389298732-2.2675968393.0826426141-.1491584519.1468525035-.303171532.2224559032-.4541504695Z"/><path class="cls-6" d="m154.3118895575,820.0186079065c-2.560330856-1.4194932901-5.4175222199-1.8102908615-8.0925365592-1.310385521l13.4912470953,7.4797684226c-.9932569077-2.5335090998-2.8382583143-4.7497682458-5.3987105361-6.1693829016Z"/><path class="cls-6" d="m156.792733251,831.7888967458l3.36327897,1.8647840632c.3541525858-1.3698547166.470663663-2.7692012997.3427367433-4.141240599l-4.4135777757-2.4469753519c.67733463,1.4628208469.9322026048,3.1025928924.7075620624,4.7234318877Z"/><path class="cls-6" d="m143.0148058889,824.1501392491c1.2556495562-1.049206523,2.7814591657-1.7016685551,4.3809377565-1.9022860661l-4.4134637647-2.4469753519c-1.2314977814.6183582689-2.3566722434,1.4585730473-3.3307603343,2.4845987205l3.3632863426,1.8646626975Z"/><path class="cls-6" d="m141.3130160111,826.0940537522l-3.2125501403-1.7810417265c-.0879901342.144182458-.1845972332.2802334137-.2672472765.4292704999-.4641024457.83705927-.8059896291,1.707494109-1.0550320502,2.5912791756l3.3393772992,1.8514338356c.1560832484-.9098786932.4557282122-1.8096840329.9280835256-2.6616712847.082771409-.1490370862.1770795389-.2871512589.2673686422-.4292704999Z"/><path class="cls-6" d="m144.3379347755,838.0085250494c-2.3183276456-1.2853841857-3.7919500031-3.5079543483-4.2186718124-5.9351470902l-3.7743519763-2.0925874922c-.2293811774,4.4804577455,2.0310550282,8.922199831,6.2119821073,11.2401634381,4.1808057133,2.3179636071,9.1455124979,1.8820179933,12.8241069351-.6860803325l-3.7743519763-2.0925874922c-2.2845879804.9239571151-4.9505069974.8515017889-7.2687132773-.433761031Z"/><path class="cls-6" d="m158.4379593391,825.4824919628l-13.4912542007-7.4798897883c-1.1232395749.2098413046-2.2134676788.578793049-3.2370660121,1.0927768113l4.4134637647,2.4468539862c1.7157469336-.2151813956,3.5103815738.0825286797,5.1351042306.983304945,1.6247226569.9007762653,2.8279422296,2.2652908909,3.5544373237,3.8344280958l4.4134711987,2.4468539862c-.1064451549-1.1403521678-.3711437517-2.2604362627-.7881563048-3.3243280361Z"/><path class="cls-6" d="m157.5892489828,832.2305465476c-.1166324399.8408216069-.3639757412,1.6732689801-.7471272635,2.4731903443l3.2125501403,1.7811630922c.3897052701-.777347343.687779435-1.57690461.8978634657-2.3896907389l-3.3632863425-1.8646626975Z"/><path class="cls-6" d="m138.8969889751,824.7545404619l3.2125501403,1.7811630922c.475389456-.7488264022,1.0504201535-1.3995893144,1.7017898779-1.9439145031l-3.3632863425-1.8647840632c-.5780648401.6087703782-1.0982382403,1.2851414543-1.5510536756,2.0275354741Z"/><path class="cls-6" d="m150.1160344971,837.6159069925l3.7743519763,2.0925874922c.7281942139-.5084009398,1.4050507357-1.098238268,2.015641584-1.7699974473l-3.3392486677-1.8513124699c-.7311142565.6518552036-1.5597992719,1.1683876457-2.4507448926,1.528722425Z"/><path class="cls-6" d="m135.2875729882,826.5071826133c-.24625101.873711713-.3878847846,1.7602881908-.4332755573,2.6472287658l3.7743519763,2.0925874922c-.1663923779-.9465311363-.1673633035-1.9229182361-.0016991198-2.8883824224l-3.3393772992-1.8514338356Z"/><path class="cls-5" d="m158.2641636533,835.4922498798l-3.2124287746-1.7811630922c-.0726980557.1518284974-.1399346548.3051133833-.222584698.4541504695-.4723553134.8519872518-1.0766278495,1.5828515296-1.7656282373,2.1973260959l3.3392559335,1.8513124699c.6176300591-.6794052187,1.1748199984-1.4304162036,1.6389224441-2.2674754736.0826500433-.1491584519.1468524998-.303171532.2224633323-.4541504695Z"/><path class="cls-5" d="m153.318033106,819.4676076041c-2.5603381408-1.4194932901-5.4175295047-1.8102908615-8.0925509494-1.3105068867l13.4912542007,7.4798897883c-.9932569077-2.5336304655-2.8382583143-4.7497682458-5.3987032513-6.1693829016Z"/><path class="cls-5" d="m155.7988621422,831.2378964433l3.3632863425,1.8647840632c.3541451194-1.3698547166.4706561936-2.7692012997.3427367433-4.141240599l-4.4134637647-2.4469753519c.6772206189,1.4628208469.9320885938,3.1025928924.7074406788,4.7234318877Z"/><path class="cls-5" d="m142.0209421527,823.5991389467c1.2556495561-1.0493278887,2.7814591656-1.7017899208,4.3809377565-1.9022860661l-4.4134637647-2.4469753519c-1.2314977814.6183582689-2.3566792075,1.4585730473-3.3307603343,2.4844773549l3.3632863425,1.8647840632Z"/><path class="cls-5" d="m140.3191522748,825.5430534498l-3.2125501403-1.7811630922c-.0879832612.1443038237-.1845972332.2802334137-.2672472765.4293918656-.4641024456.83705927-.8059896291,1.707494109-1.0550252084,2.5912791756l3.3393704574,1.8514338356c.1560762932-.9100000589.4557351499-1.8096840329.9280835256-2.6616712847.082771409-.1490370862.1770725597-.2872726246.2673686422-.4292704999Z"/><path class="cls-5" d="m143.3440710393,837.457524747c-2.3183276456-1.2853841857-3.7919500031-3.5079543483-4.2186718125-5.9351470902l-3.7743451454-2.0925874922c-.2293811832,4.4804577455,2.0310481974,8.9221998311,6.2119752764,11.2401634381,4.1808057133,2.3179636071,9.1455124979,1.8820179933,12.8241069351-.6860803325l-3.7743447599-2.0925874922c-2.2845951968.9239571151-4.9505071225.8515017889-7.2687204937-.433761031Z"/><path class="cls-5" d="m157.4440956028,824.9314916604l-13.4912542007-7.4798897883c-1.1232325551.2098413046-2.2134676788.578793049-3.2370660121,1.0926554456l4.4134637647,2.4469753519c1.7157469336-.2151813956,3.5103815737.0825286797,5.1351042306.983304945s2.8279495087,2.2651695252,3.5544373237,3.8343067301l4.4134637647,2.4469753519c-.1064377209-1.1403521678-.3711363177-2.2604362627-.7881488708-3.3243280361Z"/><path class="cls-5" d="m156.5953852465,831.6795462452c-.1166324399.8408216069-.3639757412,1.6732689801-.7471272635,2.4731903443l3.2125501403,1.7810417265c.3897052701-.7772259773.687779435-1.5767832443.8978634657-2.3895693732l-3.3632863426-1.8646626975Z"/><path class="cls-5" d="m137.9031252388,824.2035401595l3.2125501403,1.7810417265c.475389456-.7487050365,1.0504201535-1.3994679487,1.7017968973-1.9437931374l-3.363293362-1.8647840632c-.5780648401.6087703782-1.0982382403,1.2851414543-1.5510536756,2.0275354741Z"/><path class="cls-5" d="m149.1221707608,837.0647853244l3.7743519763,2.0927088579c.7281942139-.5084009398,1.4050507357-1.098238268,2.015641584-1.7699974473l-3.3392559335-1.8513124699c-.7311069907.6518552036-1.5597920062,1.1683876457-2.4507376268,1.5286010593Z"/><path class="cls-5" d="m134.293709252,825.9561823109c-.24625101.873711713-.3878847846,1.7602881908-.4332755573,2.6472287658l3.7743519763,2.0925874922c-.1663923779-.9465311363-.1673633035-1.9230396018-.0016991198-2.8883824224l-3.3393772992-1.8514338356Z"/><rect class="cls-4" x="389.850005629" y="779.0628043915" width="4.0857546144" height="4.7141688943" transform="translate(-475.4577124727 672.3326805492) rotate(-56.1971165869)"/><polygon class="cls-4" points="405.9004268345 801.5387425024 388.886169027 790.1476001268 390.9666198961 787.0403953376 387.0491777568 784.4176824444 382.3461354264 791.4423294718 407.1950347811 808.078897634 411.8980771115 801.0541292408 407.9807563379 798.4314163476 405.9004268345 801.5387425024"/><rect class="cls-4" x="414.6636231281" y="786.808815412" width="4.714236459" height="4.7142364137" transform="translate(-470.7458922311 696.6479689124) rotate(-56.1970198853)"/><rect class="cls-4" x="410.7815249" y="793.0765173639" width="4.085758057" height="4.7143321216" transform="translate(-477.8172881064 695.9544915565) rotate(-56.197839158)"/><rect class="cls-4" x="408.9001482852" y="761.2983062348" width="3.2216804291" height="29.9038994005" transform="translate(-462.9021465398 685.5131242924) rotate(-56.1973252611)"/><rect class="cls-4" x="393.732111183" y="772.7949146726" width="4.7142364775" height="4.7143273546" transform="translate(-468.3875005851 673.0374099093) rotate(-56.1970198853)"/><polygon class="cls-4" points="395.6854397678 768.2629361326 393.9370454603 770.8746047466 397.8543662339 773.4973176399 398.7724977719 772.1260065348 415.7866342137 783.5171489104 414.8685026757 784.8883386498 418.785944815 787.5110515431 420.5343391225 784.8995042947 395.6854397678 768.2629361326"/><rect class="cls-4" x="414.2056094552" y="790.7038404651" width="3.1428130531" height="4.7142868387" transform="translate(-474.5363459361 697.3616172776) rotate(-56.1982456052)"/><rect class="cls-4" x="393.274091557" y="776.6899851962" width="3.1428130531" height="4.7142868387" transform="translate(-472.1774152626 673.744404559) rotate(-56.197839158)"/><rect class="cls-4" x="386.5481257004" y="780.8859617284" width="3.1428130531" height="4.7142868387" transform="translate(-478.6482483145 670.0170141939) rotate(-56.1978391581)"/><rect class="cls-4" x="407.4796570601" y="794.8998422098" width="3.142846813" height="4.7142364137" transform="translate(-481.0038961215 693.6056892507) rotate(-56.1964070386)"/><rect class="cls-6" x="392.3169468981" y="780.7143278826" width="4.0857579273" height="4.7143323154" transform="translate(-475.735372784 675.113250604) rotate(-56.1969778055)"/><polygon class="cls-6" points="408.3673183842 803.1904083869 391.353169658 791.7992660113 393.4334991614 788.6919398565 389.5161783877 786.0692269632 384.8130146916 793.0939953563 409.6619140464 809.7304421528 414.3650777425 802.7057951254 410.4476356032 800.0830822321 408.3673183842 803.1904083869"/><rect class="cls-6" x="417.1305126513" y="788.4603701887" width="4.714337309" height="4.7143372636" transform="translate(-471.0251260506 699.4433936386) rotate(-56.1978404964)"/><rect class="cls-6" x="413.2484634754" y="794.7282311023" width="4.0857546144" height="4.7142364137" transform="translate(-478.0938400959 698.7244302457) rotate(-56.197018547)"/><rect class="cls-6" x="411.3670275505" y="762.9499451964" width="3.2216804291" height="29.9038318808" transform="translate(-463.1803946577 688.298713803) rotate(-56.1975184896)"/><rect class="cls-6" x="396.199045178" y="774.4466260276" width="4.714236459" height="4.7142364137" transform="translate(-468.6654786895 675.8201023647) rotate(-56.1970198854)"/><polygon class="cls-6" points="398.1524403988 769.9146020171 396.4039247255 772.5261492655 400.3213668648 775.1488621587 401.2393770371 773.7776724193 418.2535134789 785.1686934293 417.3355033066 786.5400045344 421.2528240802 789.1627174276 423.0013397535 786.5511701793 398.1524403988 769.9146020171"/><rect class="cls-6" x="416.6725494033" y="792.3555063497" width="3.1428130531" height="4.7142868387" transform="translate(-474.8112621333 700.1157160718) rotate(-56.1964070385)"/><rect class="cls-6" x="395.7410315051" y="778.3416510808" width="3.1428130531" height="4.7142868387" transform="translate(-472.4538824753 676.5146840971) rotate(-56.197018547)"/><rect class="cls-6" x="389.0150656485" y="782.5376276129" width="3.1428130531" height="4.7142868387" transform="translate(-478.9246020458 672.7872973867) rotate(-56.1970185471)"/><rect class="cls-6" x="409.9465835468" y="796.5514828818" width="3.1428130531" height="4.7142868387" transform="translate(-481.2818971392 696.3883320873) rotate(-56.1964070386)"/><rect class="cls-5" x="391.1417480199" y="779.927536753" width="4.0857208548" height="4.7142868387" transform="translate(-475.6032261743 673.7897237656) rotate(-56.1971165869)"/><polygon class="cls-5" points="407.1921220043 802.403594519 390.1779855625 791.0124521433 392.2583150658 787.9051259885 388.3409942922 785.2824130952 383.6378422558 792.3071814883 408.4867299508 808.9436282848 413.1897722813 801.9189812574 409.2724515076 799.2962683641 407.1921220043 802.403594519"/><rect class="cls-5" x="415.9552741067" y="787.6736119334" width="4.7143373275" height="4.7142260382" transform="translate(-470.8927330531 698.1177148063) rotate(-56.1978398273)"/><rect class="cls-5" x="412.0732659182" y="793.9413920219" width="4.0857208548" height="4.7142868387" transform="translate(-477.9614297502 697.3988005808) rotate(-56.197018547)"/><rect class="cls-5" x="410.1918481374" y="762.1631338285" width="3.2216770815" height="29.9038268806" transform="translate(-463.0479742171 686.9731004408) rotate(-56.1975184896)"/><rect class="cls-5" x="395.0238476209" y="773.6597869471" width="4.7142026993" height="4.7142868387" transform="translate(-468.5330683562 674.494472668) rotate(-56.1970198853)"/><polygon class="cls-5" points="396.9772563032 769.1277881491 395.22874063 771.7393353975 399.1461827693 774.3620482908 400.0641929416 772.9908585514 417.0783293834 784.3818795613 416.1603192111 785.7531906664 420.0776399847 788.3759035597 421.826155658 785.7643563113 396.9772563032 769.1277881491"/><rect class="cls-5" x="415.4973653078" y="791.5686924817" width="3.1428130531" height="4.7142868387" transform="translate(-474.6788325759 698.7901255755) rotate(-56.1964070385)"/><rect class="cls-5" x="394.5658474096" y="777.5548372128" width="3.1428130531" height="4.7142868387" transform="translate(-472.3214586683 675.1890796456) rotate(-56.1970185471)"/><rect class="cls-5" x="387.839881553" y="781.7508137449" width="3.1428130531" height="4.7142868387" transform="translate(-478.7921782386 671.4616929335) rotate(-56.1970185471)"/><rect class="cls-5" x="408.7713994512" y="795.7646690138" width="3.1428130531" height="4.7142868387" transform="translate(-481.1494675814 695.0627415879) rotate(-56.1964070385)"/><rect class="cls-4" x="206.8518500157" y="689.8118702872" width="4.7142774204" height="4.0856815843" transform="translate(-162.3929989987 71.9004345996) rotate(-14.1138480959)"/><polygon class="cls-4" points="233.5286128672 694.9426187213 213.6713629813 699.9356038407 212.7595424368 696.3090751982 208.1875749494 697.4586511596 210.2489714553 705.6571472895 239.2501531115 698.3650102474 237.1887566577 690.1665141175 232.6167923227 691.3160900788 233.5286128672 694.9426187213"/><rect class="cls-4" x="229.4417094177" y="676.0398756334" width="4.7142759228" height="4.7142770439" transform="translate(-158.4297135439 77.002896541) rotate(-14.1138751304)"/><rect class="cls-4" x="231.2810599427" y="683.6693101239" width="4.7142891925" height="4.0857404323" transform="translate(-160.1732705637 77.68214246) rotate(-14.1153149195)"/><rect class="cls-4" x="202.8983378383" y="672.961320748" width="29.9038389042" height="3.2216457218" transform="translate(-157.9172056031 73.4855230914) rotate(-14.1137912538)"/><rect class="cls-4" x="205.0124920678" y="682.1824365259" width="4.7142774204" height="4.7142774204" transform="translate(-160.6650212692 71.2312606618) rotate(-14.1138751304)"/><polygon class="cls-4" points="201.9861515016 680.22205095 202.7525759311 683.2700292749 207.3245434184 682.1204533136 206.9220947394 680.5200037567 226.7793446253 675.5270186374 227.1817933043 677.1274681942 231.7537607917 675.9778922328 230.9873363622 672.9299139079 201.9861515016 680.22205095"/><rect class="cls-4" x="231.4989785498" y="680.3592140107" width="4.7142155379" height="3.1428466794" transform="translate(-159.2141968837 77.601409422) rotate(-14.1124446095)"/><rect class="cls-4" x="207.0697621397" y="686.5017806573" width="4.7142774204" height="3.1427141819" transform="translate(-161.4645772188 71.8395933949) rotate(-14.1138751305)"/><rect class="cls-4" x="205.6761197448" y="694.3057187105" width="4.7142774204" height="3.1428318846" transform="translate(-163.4096507875 71.735333193) rotate(-14.1138751306)"/><rect class="cls-4" x="230.1052763886" y="688.1631428338" width="4.714274423" height="3.1428614765" transform="translate(-161.1819876486 77.5118681102) rotate(-14.1145903842)"/><rect class="cls-6" x="209.7310086444" y="689.0879238546" width="4.7142774204" height="4.0856815843" transform="translate(-162.129552227 72.5806620606) rotate(-14.1138480958)"/><polygon class="cls-6" points="236.4077683633 694.2186722887 216.5505216101 699.2116574081 215.6387010656 695.5851287656 211.0667335782 696.734704727 213.128130084 704.9332008569 242.1293116675 697.6410638148 240.0679152137 689.4425676849 235.4959478418 690.5921436463 236.4077683633 694.2186722887"/><rect class="cls-6" x="232.3208680223" y="675.3159290143" width="4.7142743687" height="4.7142774169" transform="translate(-158.1662661345 77.6831250412) rotate(-14.1138751304)"/><rect class="cls-6" x="234.1602170726" y="682.9453640736" width="4.7142921627" height="4.0857396678" transform="translate(-159.9096931507 78.3623750005) rotate(-14.1153059757)"/><rect class="cls-6" x="205.7774890215" y="672.2374340832" width="29.9038506926" height="3.2215868689" transform="translate(-157.6561431482 74.1672473631) rotate(-14.1140182156)"/><rect class="cls-6" x="207.8916506965" y="681.4584900933" width="4.7142774204" height="4.7142774204" transform="translate(-160.4015738369 71.9114893582) rotate(-14.1138751305)"/><polygon class="cls-6" points="204.8653101303 679.4981045174 205.6317345598 682.5460828423 210.2037020472 681.396506881 209.8012533682 679.7960573241 229.658503254 674.8030722048 230.0609519331 676.4035217616 234.6329163326 675.2539458003 233.8664919225 672.2059674753 204.8653101303 679.4981045174"/><rect class="cls-6" x="234.3781341409" y="679.6352675793" width="4.7142184574" height="3.142846677" transform="translate(-158.9507809555 78.2815700626) rotate(-14.1124442674)"/><rect class="cls-6" x="209.9489207684" y="685.7778342247" width="4.7142774204" height="3.1427141819" transform="translate(-161.2011297855 72.5198220907) rotate(-14.1138751305)"/><rect class="cls-6" x="208.5552783735" y="693.5817722779" width="4.7142774204" height="3.1428318846" transform="translate(-163.1462033529 72.415561888) rotate(-14.1138751305)"/><rect class="cls-6" x="232.9844350162" y="687.4391964012" width="4.7142743525" height="3.1428614765" transform="translate(-160.9185226867 78.1921294501) rotate(-14.1145903842)"/><rect class="cls-5" x="208.3594474088" y="689.4327854223" width="4.7142922187" height="4.0857404354" transform="translate(-162.2550566448 72.256620644) rotate(-14.1138480958)"/><polygon class="cls-5" points="235.0362145614 694.5635936234 215.1789677736 699.5565787428 214.267147229 695.9300501003 209.6951797417 697.0796260617 211.7565762475 705.2781221915 240.7577578657 697.9859851495 238.6962400462 689.7874890196 234.1242726743 690.9370649809 235.0362145614 694.5635936234"/><rect class="cls-5" x="230.9493141863" y="675.660850349" width="4.7142744023" height="4.7142774169" transform="translate(-158.2917782672 77.3590839575) rotate(-14.1138751305)"/><rect class="cls-5" x="232.7886114506" y="683.2902693118" width="4.7142743573" height="4.0857111779" transform="translate(-160.0201499629 78.0284832468) rotate(-14.1138845285)"/><rect class="cls-5" x="204.4058754416" y="672.58224347" width="29.9039110601" height="3.2216893991" transform="translate(-157.7816279039 73.8431846106) rotate(-14.1140167706)"/><rect class="cls-5" x="206.52009686" y="681.803411428" width="4.7142774204" height="4.7142774204" transform="translate(-160.5270859678 71.5874482688) rotate(-14.1138751304)"/><polygon class="cls-5" points="203.4937562938 679.8430258521 204.2601807233 682.8908828113 208.8321482107 681.74130685 208.4296995316 680.1409786588 228.2869494175 675.1479935394 228.6892767308 676.7484430963 233.2612442182 675.5988671349 232.4949411545 672.55088881 203.4937562938 679.8430258521"/><rect class="cls-5" x="233.0065235746" y="679.9800601485" width="4.7142743519" height="3.1428614765" transform="translate(-159.0988560813 77.9723242926) rotate(-14.1145903842)"/><rect class="cls-5" x="208.5773062491" y="686.122621228" width="4.7142774204" height="3.1428614789" transform="translate(-161.3266289526 72.1957643731) rotate(-14.1138751306)"/><rect class="cls-5" x="207.1836638542" y="693.9266788154" width="4.7142774204" height="3.1428614789" transform="translate(-163.2717173152 72.0915060009) rotate(-14.1138751304)"/><rect class="cls-5" x="231.6128811802" y="687.7841177359" width="4.7142743861" height="3.1428614765" transform="translate(-161.0440431679 77.8680728097) rotate(-14.1145903841)"/><rect class="cls-4" x="251.7596681579" y="98.6388341232" width="3.5094948221" height="4.0492632514" transform="translate(14.7223665392 232.500674298) rotate(-50.5597498153)"/><polygon class="cls-4" points="263.7905105264 119.0430274889 250.2078676087 107.8702220173 252.2483892132 105.389628365 249.1211590827 102.8172822395 244.5081699869 108.4251060223 264.3453945314 124.7427251107 268.9582622615 119.1347799622 265.8310321309 116.5624338366 263.7905105264 119.0430274889"/><rect class="cls-4" x="272.3155432244" y="107.3802584366" width="4.0493018015" height="4.0493872162" transform="translate(15.5657759692 251.7699272056) rotate(-50.5591985925)"/><rect class="cls-4" x="268.4695908223" y="112.3839622877" width="3.5094562726" height="4.0493101169" transform="translate(10.2061370286 250.4272166093) rotate(-50.5616157229)"/><rect class="cls-4" x="268.4817484134" y="84.9722724882" width="2.7673236259" height="25.6861478223" transform="translate(22.887047722 244.0920365538) rotate(-50.5603249458)"/><rect class="cls-4" x="255.6056701762" y="93.6351068394" width="4.0493018015" height="4.0493872162" transform="translate(20.0896849728 233.8575788634) rotate(-50.5605248204)"/><polygon class="cls-4" points="257.866529081 89.7368506107 256.1515102983 91.8217920634 259.2788617945 94.3941381889 260.1792739628 93.2994195264 273.7619168804 104.472224998 272.8613833465 105.5669436606 275.9887348428 108.1392897861 277.7036322598 106.0544696991 257.866529081 89.7368506107"/><rect class="cls-4" x="271.5986592064" y="110.6048624125" width="2.6995473846" height="4.0493101169" transform="translate(12.5662904218 251.8681439606) rotate(-50.5585354976)"/><rect class="cls-4" x="254.8887861582" y="96.8597108153" width="2.6995473846" height="4.0493101169" transform="translate(17.0943104219 233.9633995309) rotate(-50.5616157228)"/><rect class="cls-4" x="248.7853420852" y="99.8789365344" width="2.699594249" height="4.049348667" transform="translate(12.5308696703 230.3409297126) rotate(-50.5591985925)"/><rect class="cls-4" x="265.4952385656" y="113.6240991984" width="2.6995473846" height="4.0493872162" transform="translate(8.0132056394 248.2647787476) rotate(-50.5605248203)"/><rect class="cls-6" x="253.7290694591" y="100.2587243257" width="3.5094948221" height="4.0493403516" transform="translate(14.1896092695 234.6124497074) rotate(-50.5597498155)"/><polygon class="cls-6" points="265.7599118276 120.6630169243 252.1772689099 109.4902114527 254.2177905145 107.0096178004 251.0904390182 104.4372716749 246.4775712881 110.0450954577 266.3147958326 126.3627145461 270.9276635627 120.7547693976 267.8004334321 118.1824232721 265.7599118276 120.6630169243"/><rect class="cls-6" x="274.2849210929" y="109.0002368056" width="4.049348667" height="4.0493486661" transform="translate(15.0329905355 253.8816896083) rotate(-50.5591985925)"/><rect class="cls-6" x="270.4389425073" y="114.0038759229" width="3.5094948221" height="4.0493403516" transform="translate(9.6676259913 252.5279750356) rotate(-50.5591985925)"/><rect class="cls-6" x="270.4511386479" y="86.5922246731" width="2.7672850763" height="25.6861009575" transform="translate(22.3533082208 246.2021544337) rotate(-50.5599438912)"/><rect class="cls-6" x="257.5749984286" y="95.2551086407" width="4.0493872162" height="4.0493018015" transform="translate(19.5563302563 235.9683898872) rotate(-50.5602895049)"/><polygon class="cls-6" points="259.8358090165 91.3568400461 258.1209115995 93.4416601331 261.2482630957 96.0141276244 262.148675264 94.9194089618 275.7313181816 106.0922144335 274.8307846477 107.186933096 277.958136144 109.7592792215 279.673033561 107.6744591345 259.8358090165 91.3568400461"/><rect class="cls-6" x="273.5680370754" y="112.2248022314" width="2.699594249" height="4.049348667" transform="translate(12.0374900783 253.9873852764) rotate(-50.5601718546)"/><rect class="cls-6" x="256.8581033437" y="98.4796506347" width="2.6995942503" height="4.0493486661" transform="translate(16.5589423993 236.0706196935) rotate(-50.5605248204)"/><rect class="cls-6" x="250.7547668186" y="101.4989149035" width="2.6995473846" height="4.0493101169" transform="translate(12.0010686289 232.4582498354) rotate(-50.5605248205)"/><rect class="cls-6" x="267.4646164347" y="115.244077567" width="2.699594249" height="4.049348667" transform="translate(7.48043159 250.3765990682) rotate(-50.5605248203)"/><rect class="cls-5" x="252.7909014898" y="99.4870356054" width="3.5094562726" height="4.0493101169" transform="translate(14.4469325154 233.6128509499) rotate(-50.5612800659)"/><polygon class="cls-5" points="264.821754925 119.8912524038 251.2391120073 108.7185682979 253.2796336119 106.2379746456 250.1522821156 103.6655071544 245.5394143855 109.2733309372 265.3765175643 125.5909500256 269.9895066601 119.9831262428 266.8621551638 117.4106587516 264.821754925 119.8912524038"/><rect class="cls-5" x="273.3467145742" y="108.2285564003" width="4.0493872162" height="4.0493018015" transform="translate(15.2895035564 252.880641726) rotate(-50.5602895049)"/><rect class="cls-5" x="269.5007745381" y="113.2321872026" width="3.5094562726" height="4.0493101169" transform="translate(9.924577636 251.5280242391) rotate(-50.5605248204)"/><rect class="cls-5" x="269.5129555617" y="85.8205553344" width="2.7672767608" height="25.6860926425" transform="translate(22.6070791805 245.1961501237) rotate(-50.5599438911)"/><rect class="cls-5" x="256.6368304592" y="94.4833813708" width="4.049348667" height="4.0493486661" transform="translate(19.8074871063 234.9578195621) rotate(-50.5591985925)"/><polygon class="cls-5" points="258.8976521139 90.5851968913 257.1827546969 92.6700169783 260.3099848274 95.2423631038 261.2105183614 94.147765807 274.793161279 105.3204499129 273.8926277451 106.4151685755 277.0198578757 108.987514701 278.7348766584 106.902694614 258.8976521139 90.5851968913"/><rect class="cls-5" x="272.62981949" y="111.4530983938" width="2.699594249" height="4.049348667" transform="translate(12.2921318764 252.982953831) rotate(-50.5605248204)"/><rect class="cls-5" x="255.9199464417" y="97.7079467966" width="2.699594249" height="4.049348667" transform="translate(16.8096130109 235.059049759) rotate(-50.5591985924)"/><rect class="cls-5" x="249.8165492332" y="100.7271725162" width="2.6995473846" height="4.0493872162" transform="translate(12.2543210045 231.4512177234) rotate(-50.560289505)"/><rect class="cls-5" x="266.526471898" y="114.4723475457" width="2.6995088343" height="4.0493403516" transform="translate(7.734247039 249.3705605398) rotate(-50.5605248203)"/><rect class="cls-5" x="525.6227550466" y="965.1589858118" width="14.5638842778" height="39.2415376178"/><rect class="cls-4" x="520.565931694" y="985.9767238901" width="7.2819421389" height="7.2819423228"/><rect class="cls-4" x="555.9641806253" y="1022.4892322567" width="7.2819421389" height="7.2819423228"/><rect class="cls-5" x="517.399843347" y="451.8798040618" width="7.2819421389" height="7.2819423228"/><rect class="cls-6" x="275.8102359111" y="296.8390036318" width="33.77534676" height="3.3899868827"/><rect class="cls-4" x="206.1674749136" y="384.480006414" width="33.77534676" height="3.3899868827"/><rect class="cls-4" x="41.3766656206" y="522.7104567759" width="3.3834330491" height="3.3834331346"/><rect class="cls-4" x="62.3536349744" y="508.319639626" width="33.77534676" height="3.3899868827"/><rect class="cls-6" x="405.8561459549" y="365.8917163368" width="23.6123042138" height="3.3899868827"/><rect class="cls-6" x="415.8421159414" y="459.894067051" width="33.7754681257" height="3.3899868827"/><rect class="cls-4" x="212.167121304" y="985.2436362023" width="33.7754681257" height="3.389865517"/><rect class="cls-4" x="295.8387323013" y="460.2013695081" width="33.7754681257" height="3.3899868827"/><rect class="cls-4" x="287.8371856388" y="589.7111908006" width="33.77534676" height="3.3899868827"/><rect class="cls-6" x="234.3820261514" y="543.4600555027" width="33.77534676" height="3.3899868827"/><rect class="cls-4" x="95.9822780897" y="1036.3350785621" width="19.3476348002" height="3.3899868827"/><rect class="cls-6" x="153.6372977057" y="965.0571211577" width="19.347643783" height="3.3899868827"/><rect class="cls-6" x="454.8541611236" y="459.894067051" width="7.8887708497" height="3.3899868827"/><rect class="cls-6" x="264.3122920052" y="296.8390036318" width="7.8887706505" height="3.3899868827"/><rect class="cls-6" x="425.7414308164" y="484.774036654" width="7.8887706505" height="3.3899868827"/><rect class="cls-4" x="284.8091386406" y="460.2013695081" width="7.8887706505" height="3.3899868827"/><rect class="cls-4" x="241.1590869686" y="548.9215122449" width="7.8887706505" height="3.3899868827"/><rect class="cls-4" x="425.7414308164" y="506.9045875673" width="7.8887706505" height="3.3899868827"/><rect class="cls-4" x="251.1733422644" y="514.9391147383" width="7.8887708497" height="3.3899868827"/><rect class="cls-4" x="300.5954182721" y="503.7382821708" width="7.8887706504" height="3.3899868827"/></g></g></g></g></svg>