<?xml version="1.0" encoding="UTF-8"?><svg id="Capa_2" xmlns="http://www.w3.org/2000/svg" viewBox="0 0 173.4205623538 184.0190267674"><defs><style>.cls-1{fill:#2d2749;}.cls-1,.cls-2{stroke-width:0px;}.cls-2{fill:#747087;}</style></defs><g id="Capa_1-2"><rect class="cls-2" x="96.0042847563" y="6.1925771483" width="1.73997008" height="3.4799898452" transform="translate(1.1817326958 24.9762862051) rotate(-14.7802341428)"/><rect class="cls-2" x="109.4636525889" y="2.6414256554" width="1.73997008" height="3.4799898452" transform="translate(2.5330257004 28.2924328225) rotate(-14.7802341425)"/><rect class="cls-2" x="104.7314882746" y="12.8578690719" width="1.73997008" height="1.7400197212" transform="translate(-.0079503677 27.3944606442) rotate(-14.7802341425)"/><rect class="cls-2" x="96.9632629522" y="3.6511308157" width="5.2200094346" height="1.7400197212" transform="translate(2.1413364073 25.5519542107) rotate(-14.7802341425)"/><rect class="cls-2" x="103.6929468685" y="1.8755550693" width="5.2200094346" height="1.7400197212" transform="translate(2.8169829097 27.2100275195) rotate(-14.7802341425)"/><rect class="cls-2" x="104.9890724954" y=".1931580556" width="1.7399762792" height="1.739970124" transform="translate(3.2315015482 27.041116628) rotate(-14.7802341424)"/><rect class="cls-2" x="102.5475805731" y="11.1754720807" width="5.2200034113" height="1.739970124" transform="translate(.4065682623 27.2255497319) rotate(-14.7802341425)"/><rect class="cls-2" x="98.259388582" y="1.9687338244" width="1.7399761033" height="1.739970124" transform="translate(2.5558550373 25.383043298) rotate(-14.7802341424)"/><rect class="cls-2" x="103.3134451715" y="7.1447867377" width="6.9599795147" height="1.739970124" transform="translate(1.4889732874 27.5095061994) rotate(-14.7802341425)"/><rect class="cls-2" x="97.7359030487" y="6.1281849856" width="12.1799889493" height="1.7400197212" transform="translate(1.6501229831 26.7188141248) rotate(-14.7802341425)"/><rect class="cls-2" x="98.2661582562" y="8.476474874" width="6.9599795147" height="1.739970124" transform="translate(.9822360033 26.2659453099) rotate(-14.7802341425)"/><rect class="cls-2" x="97.2920091009" y="4.4457887627" width="12.1799889493" height="1.739970124" transform="translate(2.0646413208 26.549902495) rotate(-14.7802341425)"/><rect class="cls-2" x="100.3637105191" y="9.493026238" width="8.6999557938" height="1.7400197212" transform="translate(.8210866086 27.0566381229) rotate(-14.7802341425)"/><rect class="cls-2" x=".4151074083" y="175.4205586783" width="1.73997008" height="3.4799898452" transform="translate(-45.1532982834 6.1898277996) rotate(-14.7802341428)"/><rect class="cls-2" x="13.8744752409" y="171.8694071854" width="1.7399700801" height="3.4799898452" transform="translate(-43.8020052775 9.5059744171) rotate(-14.7802341424)"/><rect class="cls-2" x="9.1423109266" y="182.0858506019" width="1.73997008" height="1.7400197212" transform="translate(-46.3429813457 8.6080022389) rotate(-14.7802341424)"/><rect class="cls-2" x="1.3740856042" y="172.8791123456" width="5.2200094346" height="1.7400197212" transform="translate(-44.1936945709 6.7654958053) rotate(-14.7802341425)"/><rect class="cls-2" x="8.1037695205" y="171.1035365992" width="5.2200094346" height="1.7400197212" transform="translate(-43.5180480686 8.4235691143) rotate(-14.7802341425)"/><rect class="cls-2" x="9.3998951474" y="169.4211395855" width="1.7399762791" height="1.739970124" transform="translate(-43.10352943 8.2546582229) rotate(-14.7802341425)"/><rect class="cls-2" x="6.9584032251" y="180.4034536106" width="5.2200034113" height="1.739970124" transform="translate(-45.9284627159 8.4390913266) rotate(-14.7802341425)"/><rect class="cls-2" x="2.670211234" y="171.1967153544" width="1.7399761033" height="1.739970124" transform="translate(-43.7791759403 6.5965848928) rotate(-14.7802341423)"/><rect class="cls-2" x="7.7242678234" y="176.3727682676" width="6.9599795147" height="1.739970124" transform="translate(-44.8460576907 8.7230477941) rotate(-14.7802341425)"/><rect class="cls-2" x="2.1467257007" y="175.3561665156" width="12.1799889493" height="1.7400197212" transform="translate(-44.6849079951 7.9323557195) rotate(-14.7802341425)"/><rect class="cls-2" x="2.6769809082" y="177.7044564039" width="6.9599795147" height="1.739970124" transform="translate(-45.3527949748 7.4794869047) rotate(-14.7802341425)"/><rect class="cls-2" x="1.7028317528" y="173.6737702926" width="12.1799889493" height="1.739970124" transform="translate(-44.2703896574 7.7634440897) rotate(-14.7802341425)"/><rect class="cls-2" x="4.774533171" y="178.721007768" width="8.6999557938" height="1.7400197212" transform="translate(-45.5139443697 8.2701797177) rotate(-14.7802341425)"/><rect class="cls-2" x="152.1907409886" y="91.4898528851" width="2.4945898998" height="4.9891088201" transform="translate(60.2699977254 -59.9506970274) rotate(27.3274498567)"/><rect class="cls-2" x="169.9200528169" y="100.6513740874" width="2.4945187944" height="4.9891088201" transform="translate(66.4544585752 -67.0673189863) rotate(27.3274498569)"/><rect class="cls-2" x="155.9020920064" y="107.2905656736" width="2.4945187944" height="2.4945899628" transform="translate(67.3653201416 -60.0302667371) rotate(27.3274498569)"/><rect class="cls-2" x="155.8463197684" y="91.7032555994" width="7.4836985939" height="2.4945899628" transform="translate(60.4817505887 -62.8894519077) rotate(27.3274498569)"/><rect class="cls-2" x="164.7109421137" y="96.2840080399" width="7.4836985939" height="2.4945899628" transform="translate(63.5739755043 -66.4477565477) rotate(27.3274498569)"/><rect class="cls-2" x="168.3507195852" y="94.0678902837" width="2.4945289602" height="2.4945188574" transform="translate(62.6844008967 -67.2208146086) rotate(27.3274498568)"/><rect class="cls-2" x="154.5526996063" y="105.0744478596" width="7.4836886801" height="2.4945188574" transform="translate(66.4757454949 -60.803324753) rotate(27.3274498568)"/><rect class="cls-2" x="159.486097254" y="89.4871377854" width="2.4945287082" height="2.4945188574" transform="translate(59.5921759419 -63.6625099236) rotate(27.3274498568)"/><rect class="cls-2" x="158.9200562986" y="102.3599246252" width="9.9782173882" height="2.4945188574" transform="translate(65.8561814462 -63.6838060616) rotate(27.3274498569)"/><rect class="cls-1" x="152.9991459688" y="98.4259431043" width="17.4619159821" height="2.4945899628" transform="translate(63.8070154114 -63.1224917308) rotate(27.3274498569)"/><rect class="cls-2" x="152.2715579547" y="98.9243439735" width="9.9782173882" height="2.4945188574" transform="translate(63.5370017416 -61.0150649031) rotate(27.3274498568)"/><rect class="cls-1" x="154.1443341079" y="96.2098230147" width="17.4619159821" height="2.4945188574" transform="translate(62.9174392289 -63.8955479792) rotate(27.3274498569)"/><rect class="cls-2" x="153.2033590232" y="102.8582567224" width="12.4727463485" height="2.4945899628" transform="translate(65.5861693515 -61.5763810465) rotate(27.3274498569)"/><rect class="cls-1" x="157.6198823757" y="102.719056989" width="2.4945187944" height="4.9891088201" transform="translate(66.0309495286 -61.1898566186) rotate(27.3274498569)"/><rect class="cls-1" x="154.3485471622" y="100.6421366328" width="12.4727463485" height="2.4945188574" transform="translate(64.6965931691 -62.349437295) rotate(27.3274498569)"/><rect class="cls-1" x="152.9991459688" y="98.4259431043" width="17.4619159821" height="2.4945899628" transform="translate(63.8070154114 -63.1224917308) rotate(27.3274498569)"/><rect class="cls-1" x="156.8430758844" y="98.1475466122" width="7.4836886801" height="7.4836987829" transform="translate(64.69659313 -62.34943725) rotate(27.3274498569)"/><rect class="cls-1" x="154.1443341079" y="96.2098230147" width="17.4619159821" height="2.4945188574" transform="translate(62.9174392289 -63.8955479792) rotate(27.3274498569)"/><rect class="cls-1" x="158.3409091149" y="91.703257875" width="2.4945287082" height="2.4945899628" transform="translate(60.481752125 -62.8894536755) rotate(27.327449857)"/><rect class="cls-1" x="167.2055314462" y="96.2840103734" width="2.4945289602" height="2.4945899628" transform="translate(63.5739770791 -66.4477583601) rotate(27.3274498568)"/><rect class="cls-2" x="161.6280327017" y="96.2098230147" width="2.4945187944" height="2.4945188574" transform="translate(62.9174392294 -63.8955479795) rotate(27.3274498571)"/><rect class="cls-2" x="4.678557075" y="90.6387987761" width="2.4945187944" height="4.9891088201" transform="translate(-2.3276539872 .1773582104) rotate(-1.4332662921)"/><rect class="cls-2" x="24.6287481864" y="90.1396354264" width="2.4945898997" height="4.9891088202" transform="translate(-2.3089268988 .6762092194) rotate(-1.4332662921)"/><rect class="cls-2" x="14.9344310716" y="102.8584411044" width="2.4945898997" height="2.4945899628" transform="translate(-2.5988931817 .4373181113) rotate(-1.4332662921)"/><rect class="cls-2" x="7.0779215476" y="88.0205888889" width="7.4836985939" height="2.4945899628" transform="translate(-2.2294373793 .2985594009) rotate(-1.4332662922)"/><rect class="cls-2" x="17.0530882031" y="87.7710067694" width="7.4836274885" height="2.4945899628" transform="translate(-2.2200738185 .5479853498) rotate(-1.4332662922)"/><rect class="cls-2" x="19.4852116883" y="85.2772683688" width="2.4945898997" height="2.4945188574" transform="translate(-2.1577175517 .5456444678) rotate(-1.4332662921)"/><rect class="cls-2" x="12.3774458739" y="100.3647035931" width="7.4836985939" height="2.4945188574" transform="translate(-2.5365369485 .4349763406) rotate(-1.4332662921)"/><rect class="cls-2" x="9.5101161382" y="85.5268504883" width="2.4945187944" height="2.4945188574" transform="translate(-2.1670811126 .296218519) rotate(-1.4332662921)"/><rect class="cls-2" x="14.7460744647" y="95.2835622805" width="9.9782173882" height="2.4945188574" transform="translate(-2.4083130758 .5238294187) rotate(-1.4332662921)"/><rect class="cls-1" x="7.2011512523" y="92.8833461804" width="17.4619159821" height="2.4945899628" transform="translate(-2.3494681487 .4279536948) rotate(-1.4332662922)"/><rect class="cls-2" x="7.264717241" y="95.4707482031" width="9.9782884936" height="2.4945188574" transform="translate(-2.4153357215 .3367606236) rotate(-1.4332662922)"/><rect class="cls-1" x="7.1387559432" y="90.3896077798" width="17.4619159821" height="2.4945188574" transform="translate(-2.2871118821 .4256128129) rotate(-1.4332662922)"/><rect class="cls-2" x="9.8205317592" y="97.8708931978" width="12.472807288" height="2.4945899628" transform="translate(-2.4741806486 .4326363474) rotate(-1.4332662922)"/><rect class="cls-1" x="7.2011512523" y="92.8833461804" width="17.4619159821" height="2.4945899628" transform="translate(-2.3494681487 .4279536948) rotate(-1.4332662922)"/><rect class="cls-1" x="7.1387559432" y="90.3896077798" width="17.4619159821" height="2.4945188574" transform="translate(-2.2871118821 .4256128129) rotate(-1.4332662922)"/><rect class="cls-1" x="9.5725114473" y="88.0205888889" width="2.4945187944" height="2.4945899628" transform="translate(-2.2294373796 .2985594009) rotate(-1.4332662924)"/><rect class="cls-1" x="19.5476069974" y="87.7710067694" width="2.4945898997" height="2.4945899628" transform="translate(-2.2200738183 .5479853497) rotate(-1.4332662921)"/><rect class="cls-2" x="14.6224545259" y="90.3896068906" width="2.4945898997" height="2.4945188574" transform="translate(-2.2871118491 .4256137017) rotate(-1.4332662924)"/></g></svg>