<?xml version="1.0" encoding="UTF-8"?>
<svg xmlns="http://www.w3.org/2000/svg" xmlns:xlink="http://www.w3.org/1999/xlink" width="577" height="1080">
<defs>
<style>.cls-1{fill:none;}.cls-1,.cls-2,.cls-3{stroke-width:0px;}.cls-2{fill:url(#Degradado_sin_nombre_184);mix-blend-mode:overlay;}.cls-4{isolation:isolate;}.cls-3{opacity:.71;}</style>
<linearGradient id="Degradado_sin_nombre_184" x1="208.7924257149" y1="494.1066265446" x2="208.7924257149" y2="378.6796139817" gradientUnits="userSpaceOnUse">
<stop offset=".0055865922" stop-color="#efffff"/><stop offset="1" stop-color="#00000e" stop-opacity="0"/>
</linearGradient>
</defs>
<g class="cls-4">
<g id="Capa_2">
<g id="Capa_1-2">
<polygon class="cls-2" points="170.7271034108 488.4919208326 137.4199463947 389.8922107669 280.164905035 389.8922107669 238.6631300229 488.4919208326 170.7271034108 488.4919208326"/>
<path class="cls-1" d="m166.6297782786,423.3315350074c0,7.3549505476-5.3649881865,13.4541450707-12.3943468116,14.6050248477l16.4916719438,50.5553609774h67.9359943438l41.5018072805-98.5997181327h-142.7449586403l7.1819718977,20.5198056161c2.1373118553-1.1978181598,4.6003245389-1.8836340367,7.2246629559-1.8836340367,8.1756280582,0,14.8031970302,6.627568972,14.8031970302,14.8031607283Z"/>
<path class="cls-3" d="m0,0v1079.4612702835h577.3438212375V0H0Zm295.3646642418,466.4193731826c-4.2296093295,4.4938147049-29.0776928943,2.379082644-30.1350952266,2.6433969252-1.0574023324.2643505831-1.5861034986,2.379082644-3.9651861426.2643505831s-4.2294641218-10.8380108877-5.5511444334-12.6884286674-2.6435058309-7.4015985151,2.9077838102-6.0798819016l3.7828052953,8.223510291c1.3786017225,2.9969050244,4.4169272379,4.8796315131,7.7140128406,4.7737388118,9.6248007137-.3092197565,28.4155458693-.5034350297,25.2468238565,2.8633139579Zm-198.5011012687,22.0725476499h-13.4813715109s11.827601233-4.5645671474-6.1798936918-11.7985959988l12.1276003018-.0967809193s10.705871898,2.379082644,7.5336649009,11.8953769181Zm40.5563834216-98.5997181327h142.7449586403l-41.5018072805,98.5997181327h-67.9359943438l-16.4916719438-50.5553609774c-.7842666846.1283998918-16.8154850722-48.0443571553-16.8154850722-48.0443571553Zm76.5272067847,111.6847452786c0,1.0218990544-.8285550273,1.8503814778-1.8503814778,1.8503814778h-30.6637963928c-1.0219716582,0-1.8503814778-.8284824234-1.8503814778-1.8503814778v-.0000726038c0-1.0218990544.8284098196-1.8503814778,1.8503814778-1.8503814778h30.6637963928c1.0218264506,0,1.8503814778.8284824234,1.8503814778,1.8503814778v.0000726038Zm29.3419708735-6.6086193697h-90.4051404722c-1.4599180239,0-2.6433606233-1.1834425994-2.6433606233-2.6433606233s1.1834425994-2.6435058309,2.6433606233-2.6435058309h90.4051404722c1.4599180239,0,2.6433606233,1.1835878071,2.6433606233,2.6435058309s-1.1834425994,2.6433606233-2.6433606233,2.6433606233Zm9.2520525968-.5287011662c-6.0799908073-1.3216803116-2.1148046648-3.1720617894-2.1148046648-3.1720617894l31.9854767044.5287011662,1.3216803116,2.6433606233s-25.1125067517,1.3217529155-31.1923523513,0Zm186.6129587361,87.4512307333c-3.4116173081-1.2843652836-5.7741567565-4.3905217254-7.6620941867-7.5090617159-2.3013264601-3.8010446747-4.2625583895-8.3675537416-8.7298983882-9.9505337019-3.3936964003-1.2026137268-7.3640835856-.8172135304-10.3514385039-2.8271742203-2.4956374264-1.6791286509-3.7488928195-4.708668178-4.261551597-7.6724641502-1.3845411444-8.0058131707-.7965742826-16.2078502136-4.4041134251-23.7452028007-5.2087420483-10.8822195477-18.8938721153-15.1290719731-28.8965576724-20.1990780051-5.5750131859-2.8256640314-16.9334456199-7.2037015289-17.9780935922-14.3755884125-.3290198124-2.2591418514.9204097689-4.516219778,2.657932389-5.9972619904,3.4637691633-2.9523688765,8.51686108-4.1344943744,12.9205717881-4.868999895,2.5842351727-.4310078999,5.2010904248-.67359457,7.8108981288-.8834604816,2.5191963726-.202617005,8.5980085613.6721850604,10.6260915175-.5694418785-.000402717.0002516981-22.3695020853,10.996842882-6.6075603016,12.8296080793,15.7621431421,1.8328658766,39.5981392871,17.5950090187,34.8327886873,26.0259906923-4.7653505998,8.4308809944-8.5744637468,14.2740314912-1.9763479497,20.8721472883,6.5981157971,6.5981157971,4.5422594976,12.4849041933,14.8071138404,17.9840052192,4.6928615346,2.5145651268,8.19972142,7.2530343649,10.1889421829,12.1094996924,1.2518458835,3.0563202095,3.4723269001,11.2048965669-2.9766829171,8.7770162805Zm35.6504136005-103.0474069089c-2.9077112064.5287011662-14.0100726771,0-25.1125067517,0-11.1023614707,0-23.526475857,2.9077838102-35.9505176393,1.8504177797-12.4241143862-1.0573660305-20.6187646506-2.1147683628-20.6187646506-2.1147683628-7.9302270775-2.1147320609,7.9302270775-2.9077475083,16.9178564873-1.5860308947,8.9877020137,1.3217166135,14.538919051,0,22.9978472946-.2643505831,8.4589282436-.2643505831,40.7087555312-1.3217166136,45.9956219854-.5287011662,5.2867938504.7930517493-1.3217529155,2.1147683628-4.2295367257,2.6434332271Z"/>
            </g>
        </g>
    </g>
</svg>