<?xml version="1.0" encoding="UTF-8"?><svg id="Capa_2" xmlns="http://www.w3.org/2000/svg" viewBox="0 0 216.9448882737 382.985140701"><defs><style>.cls-1{fill:#4aa4a9;}.cls-1,.cls-2,.cls-3,.cls-4,.cls-5{stroke-width:0px;}.cls-2{fill:#2b2547;}.cls-3{fill:#b5487e;}.cls-4{fill:#744339;}.cls-5{fill:#fff;}</style></defs><g id="Capa_1-2"><path class="cls-2" d="m133.6598346694,119.7422857344c2.0659712936-.2072627514,6.1030718686,2.3880751951,7.8979326945,3.2669568331,6.906685912,3.3819666096,12.21060222,8.1688260237,14.5762256354,15.5855937011,3.0180097899,9.4621497752,4.2325746784,19.5791715434,5.9205000372,29.3394783152,0,6.1631617582,2.2644285398,13.0938948784,3.317017812,19.1804165054,1.0688807305,6.1807258106,2.0909868769,12.3632104809,3.0964853235,18.5534266012,2.1353669006,13.146099485,4.165260751,26.3092904286,6.09817699,39.4866637991.08495595.5791747467.1707197575,1.1582433586.2535356625,1.7379396043.504411255,3.5308787852,36.0507959602,68.7557520494,35.9319975335,70.443280759-.1187984267,1.6875287097-19.6047218791,15.8110438504-24.7418921762,12.7845763202-5.137170297-3.0264675301-4.8858116649-28.7514415365-4.8858116649-28.7514415365,0,0-24.8181502287-39.1889123271-33.2156158865-55.4076552704-8.3974656578-16.2187429433-22.8611646706-110.8094911249-21.8484324585-119.1186389686,0,0-.3818573463-6.2764936781,7.5998804975-7.1005966632Z"/><polygon class="cls-2" points="199.6077307635 166.4255851267 168.6726566716 166.4255851267 186.0098141818 117.646310688 216.9448882737 117.646310688 199.6077307635 166.4255851267"/><polygon class="cls-1" points="166.3014353732 166.4255851267 168.6726566716 166.4255851267 186.0098141818 117.646310688 183.6385928834 117.646310688 166.3014353732 166.4255851267"/><path class="cls-2" d="m210.1269350131,124.063556156h-2.1404180982c-1.2069919217,0-1.8870882002-.8391195138-1.5192157711-1.8742976649h0c.3678724291-1.0351781511,1.6445443905-1.8742976649,2.8515363122-1.8742976649h2.1404180982c1.2068964696,0,1.8870882002.8391195137,1.5192157711,1.8742976649h0c-.3679678812,1.0351781511-1.6446398426,1.8742976649-2.8515363122,1.8742976649Z"/><path class="cls-2" d="m210.1269350131,124.063556156h-6.483679974c-1.2069919217,0-1.8870882002-.8391195138-1.5192157711-1.8742976649h0c.3678724291-1.0351781511,1.6445443905-1.8742976649,2.8515363122-1.8742976649h6.483679974c1.2068964696,0,1.8870882002.8391195137,1.5192157711,1.8742976649h0c-.3679678812,1.0351781511-1.6446398426,1.8742976649-2.8515363122,1.8742976649Z"/><polygon class="cls-2" points="211.1252686239 122.6867548972 207.9668537804 122.6867548972 208.3111495385 121.7180114158 211.469564382 121.7180114158 211.1252686239 122.6867548972"/><path class="cls-2" d="m167.4771190031,254.5703603943c-9.3658564133,3.092362062-19.4377720788,4.2085790559-29.3419783883,4.8378948282-10.3614219129.6584286663-20.7777287886.8523873573-31.1138558926-.1249468142-11.0444772068-1.0442461017-21.9598077098-3.4347487866-32.4346267285-7.0876056484-1.1434208169,5.0749978737-38.9220293347,44.3912454128-37.3506012599,75.9723401781,1.588132194,31.9148907998,8.0297177878,54.3083380076,8.0297177878,54.3083380076h135.8582279953s-10.2565200448-89.0710425593-13.6468835138-127.9060205514Z"/><path class="cls-2" d="m131.6934648906,238.4021090058c11.7658989269-.5481814774,23.5631114674-2.4910137584,34.6308789888-6.4385312889.2169626444-20.3707215093,3.8805100501-38.0799517888,1.3308887595-53.1224409722-2.9278979996-17.2751140755-45.6764114906-61.1948260567-45.6764114906-61.1948260567l-42.2930160256-4.0150976256s-44.4789647798,33.2949374304-42.3774911422,48.5204083119c2.1014736376,15.2254708815,20.8405362765,43.9196165291,26.4036761088,57.6811383738,1.6834888511,4.1642892761,3.3788137638,8.3536824576,4.9161654356,12.2957592178,5.4411520366,1.622208638,11.1087164763,2.4925409922,16.7468816664,3.2698075376,15.3490809784,2.1157915074,30.8409583122,3.7250186582,46.3184276993,3.0037825024Z"/><path class="cls-2" d="m138.1351406148,259.4082552225c9.9042063095-.6293157723,19.976121975-1.7455327662,29.3419783883-4.8378948282-.4946328302-5.6662282534-.843892098-10.2690245306-.9930837448-13.3632956348-.1513870453-3.1407562826-.1919541917-6.2201368574-.1596913788-9.2434870427-11.0677675215,3.9475175305-22.8649800619,5.8903498116-34.6308789888,6.4385312889-15.4774693871.7212361558-30.9693467209-.8879909949-46.3184276993-3.0037825024-5.6381651901-.7772665454-11.3057296299-1.6475988996-16.7468816664-3.2698075376,3.5430868438,9.0850365373,6.2421861375,16.8491113011,5.988378979,19.9119786606-.0037226323.0460079178-.0177502129.1015610468-.0298765102.1552051336,10.4748190187,3.6528568618,21.3901495217,6.0433595466,32.4346267285,7.0876056484,10.3361271039.9773341715,20.7524339797.7833754805,31.1138558926.1249468142Z"/><path class="cls-2" d="m152.7910483757,42.2317926505c.5263229305,7.5069267749-.2667886454,15.0366666046-1.0588502481,22.5201121601-.545126996,5.1498323292-1.0904448963,10.3013827964-1.8485255481,15.4241067259-.8285243084,5.5982663499-4.0428740879,13.4651430379-6.5829501676,18.5222913667-5.9943924619,11.9346638793-18.2218076588,16.8226710662-31.3513407404,14.3766152523.5161095548,9.7022298914,1.4715851686,29.1504067414,1.4715851686,29.1504067414l-37.5143970794-25.6673591863s1.6837752074-14.8687663402.6834371023-22.9162384235c-1.7348420859-13.9565305088-6.6600754719-25.7575614318-7.3230858229-35.9601512926-.277765638-4.2732001356-.1866088736-8.6168439295.8997315819-12.7589883157,2.9331478656-11.1835512125,12.9064615022-19.4834941313,23.8363961779-23.2532798299,10.9300301278-3.7697856986,22.7826048916-3.6864560051,34.3253421088-3.0226820205,4.06740528.2339531257,8.1809139288.5442679408,12.0473980599,1.8281942949,3.8664730489,1.2840218063,7.5155117341,3.6535250265,9.5624822172,7.1760897559,2.1449997994,3.6913240628,2.5542088391,10.3220004525,2.8527771896,14.5808827713Z"/><path class="cls-2" d="m85.0576589281,9.606833592c-8.1952317452,3.8527335836-15.4263971868,9.8983839809-20.2279246392,17.5762654879-4.8016229045,7.677881507-7.0806374653,17.0013574192-5.8455826235,25.9724241352,2.0164258082,14.6469356326,12.6995251351,26.5390278701,17.6058551977,40.486204072,1.008837298-.3154692291,1.196778546-.6656830268,1.8619842954-1.4870484478,2.4004296438-2.9639789718,4.3106172544-6.3241796592,5.6294790482-9.9030611344-.7681985754.2841609365-1.8337304711-.0628074895-2.6275102118-.2646887057-3.2778254322-.8340605518-5.9392211427-3.48552931-7.1700760917-6.6358308038-1.2309504011-3.1503014938-1.1244258471-6.7265103099-.1085290482-9.9526007803.7610396672-2.4170383719,2.2564878631-4.8759802208,4.6884167029-5.5882438781,2.1307774351-.6240659062,4.5019987335.3120329531,6.0357232252,1.9175374715,1.5338199438,1.6055045184,2.3436356388,3.7748446605,2.8056238477,5.9465711054,2.9183527887-1.4953527815,4.815177104-3.4785613058,6.0615907468-6.5115521544,1.2463181907-3.0329908485,1.6354764402-6.3584469673,1.6232585702-9.6376088118-.0079225251-2.0995646485-.1863225173-4.2452326668-1.0281146689-6.1686881692,6.216414068,2.8653769404,13.218971708,2.6519460187,19.8831516206,1.0892040463,6.6642804141-1.5628374245,12.7720649324-5.4045940153,17.0665507804-10.7348308355-.442797034,4.287231596-2.6062243914,8.2883932132-5.590916396,11.3979366553,7.6422830402,1.1126852658,15.7098955191-1.091494897,21.7247091646-5.9354986604,1.9496093318-1.5701872371,2.7670611955-3.4508801934,3.7646311894-5.7467898356,1.0896871217,4.7164797422,1.7948814626,9.2277374443,1.3517927714,14.0481645361,1.8005131371-1.2681767557,3.5705770513-2.6175832585,4.9899499161-4.3014539606,1.4193728648-1.6838707021,2.4775549481-3.7407682566,2.6463142773-5.9365486336.0512577827,3.3812001519-.5876926097,6.7714682545-1.8663750925,9.9020111611,7.2460559707-4.9759185817,12.5730472846-12.5914698598,12.9725206843-21.3723959693.3993653028-8.7810215616-4.9233306662-17.9026162577-13.2666086329-20.6694866189-7.6365505497-2.532535427-15.9028941163.3134647348-23.4378836218,3.1336928263-15.8561225828-5.8463463881-34.2483122566-7.8136144098-49.5420310116-.6236840977Z"/><path class="cls-2" d="m69.2156632575,22.3075961196c-2.8988805584-1.7560324985-6.158760994-3.5777360499-9.4833579598-2.918830123-2.6659774118.5284228902-4.8194724489,2.6292284161-6.0203520838,5.0673617047-1.2008863385,2.4381332886-1.5780176222,5.1936448485-1.7834305613,7.9038166553-1.0186649101,13.4439526691,1.7811363589,26.8624196245,2.3526081371,40.3329079807.2518026643,5.9349259477.0569882768,11.9715083944-1.6653529504,17.6566361659-3.0700261903,10.1333870798-11.260389878,18.6438019049-21.3690546055,21.794389755-10.1085692754,3.1506833022-23.439981376,1.3347068776-31.2467232338-5.8183789194,14.6351950229-6.5071613572,25.6490323809-21.8744740767,26.4797494449-37.8694798825-.8751049377,8.4858836323-8.9179951166,15.6038430522-17.4473070211,15.4409062975,5.5714443065-1.7002884653,8.7710920973-7.5249672241,10.4660352016-13.0981296685,4.8415218862-15.9194077334,2.0761788286-33.1362005687,4.673621626-49.5715269657.5942848323-3.7604313916,1.4947800311-7.5402395619,3.4099311514-10.8305693035C32.3864214184,2.1426693631,43.1720325049-1.4753474779,52.5048624883.5520553741c9.3328299835,2.027402852,17.1105542027,8.84287453,22.1117674677,16.9792125293"/><path class="cls-2" d="m137.1768014378,137.6913495923c10.3690580817,10.9732702105,20.9291158339,22.2273605336,27.1023855486,36.0050137851"/><path class="cls-2" d="m145.922410045,321.5626613579c-2.6879313969,5.3668904312-9.6152727748,7.5346078873-12.3761295832,12.864367447-1.0048243542,1.9396823614-1.363628833,4.1390899187-1.7088791122,6.2962121904-2.2545788209,14.0872999019-4.5091576417,28.1745998037-6.7636410105,42.2618997056"/><path class="cls-2" d="m57.6168991026,201.8294415125c8.3817417163,13.7174229691,21.751627209,23.4617472418,34.0224691157,33.8466506359,10.8591137948,9.1900338601,21.304815336,17.3273263806,34.1458921434,23.4498157278,7.0630742772-7.7245575896,13.7745029839-13.8095342569,20.1393450819-22.1141543291,14.1321620373-18.4394389338,26.481660482-38.2369705125,36.7751204931-59.0734028747,2.0556566251-.3346551036,3.3797682849-.2792928788,5.43542491-.6138525302,3.272200588-.5326227832,6.6595027592-1.1095353461,9.407568985-2.9639789718,2.7480662258-1.8544436257,4.6719989401-5.370135803,3.6301391675-8.5173828292,1.6346173712-.2057947528,2.9153054718-1.6193450746,3.4428621291-3.1801780047.5275638079-1.560737478.4419432659-3.2549170082.309264834-4.8970751375,4.8671030515-3.0640127848,6.3100525872-10.444656416,2.955292755-15.1161782136-9.9811407096,5.0891247862-34.235521674,3.2695211813-34.235521674,3.2695211813,0,0,1.2023147683-3.8741148566,1.9635453397-5.6792097405-3.1692963839-.3518364836-5.6589737499,2.0351344731-7.4264604572,4.6891804382-1.7674867073,2.6541414173-2.4537873729,5.8703048681-2.9346750994,9.0226108563-1.0027244079,6.5722596974-.7882435183,19.8876383721-.7882435183,19.8876383721l-43.6185594669,51.7420125331s-27.7855362946-36.2488939305-42.4188219056-54.0798256523c-10.6352740144,6.8933606011-19.2418088984,17.750751948-20.804642833,30.3278085389Z"/><line class="cls-2" x1="78.4215419356" y1="171.5016329736" x2="60.1988787235" y2="150.2892147435"/><path class="cls-2" d="m91.6393682183,235.6760921484s26.271093129,25.5870839604,34.1458921434,23.4498157278c7.8747990144-2.1372682325,20.1393450819-22.1141543291,20.1393450819-22.1141543291"/><path class="cls-2" d="m120.901357739,225.454220961c-3.0211547104,3.212918079-5.4905962292,6.9433775076-7.26820086,10.9794745978"/><path class="cls-2" d="m173.5465368228,194.75023565c-2.148811559,4.0560465815-4.2977312197,8.1121886151-6.4466445556,12.1682351966"/><path class="cls-2" d="m111.9493816715,113.2036830542s-7.0228889392-2.0036352762-11.7991215827-6.5354151823c-4.7762326434-4.5317799061-6.9471954166-7.617269416-6.9471954166-7.617269416,0,0,2.4966453699,8.4427392778,8.4668930115,14.1526845984,5.970238515,5.7100407726,10.6910134829,7.0525747234,10.6910134829,7.0525747234l-.4115894952-7.0525747234Z"/><path class="cls-2" d="m131.0871477708,58.7890113941c-.068152806,4.8878162826-.1362101599,9.7757280174-.2043629659,14.6635443-.0056316744.4024261028-.0072543603.8228926548.1736273868,1.1823653073.151100689.3002923433.4144530584.5263229438.6739873435.7399447697,1.6201140142,1.3340387128,3.3618232883,2.5202221046,5.1966037327,3.5391733968-1.5527194614,2.787201661-3.8053892401,5.1807588134-6.4934160891,6.8994695362"/><path class="cls-2" d="m120.1903349771,70.0412881271c-.6826734855,1.914578456-2.0848649706,3.1640465979-3.1318791571,2.7907333891-1.0471096386-.3733132088-1.3424384647-2.2280431908-.6598604314-4.1426216468.6826734855-1.9146739081,2.0848649706-3.16414205,3.1319746092-2.7908288412,1.0470141865.3734086609,1.3424435131,2.2281386429.6597649793,4.1427170989Z"/><path class="cls-2" d="m142.9331363391,70.0412881271c-.682667897,1.914578456-2.0848594175,3.1640465979-3.1318791571,2.7907333891-1.0471096386-.3733132088-1.3425339168-2.2280431908-.6598604314-4.1426216468.6826790126-1.9146739081,2.0848705332-3.16414205,3.1318791571-2.7908288412,1.0471096386.3734086609,1.3425339168,2.2281386429.6598604314,4.1427170989Z"/><path class="cls-2" d="m109.8685256895,62.9367874549c1.1142124715-2.5029452724,3.0683080523-4.623127577,5.4721739721-5.9374077026,2.4038659197-1.3143755778,5.2433752662-1.8151173556,7.9518288666-1.4023824248"/><path class="cls-2" d="m147.9083866304,62.9367874549c-1.1143079236-2.5029452724-3.0684035045-4.623127577-5.4722694242-5.9374077026-2.4038659197-1.3143755778-5.2433752662-1.8151173556-7.9518288666-1.4023824248"/><path class="cls-2" d="m120.6068879819,91.8271826441c1.9217373158,2.7730747484,4.9349695011,5.9478119828,8.6601842299,5.9478119828.1039420865,0,.2055985829-.0104042802.3083103207-.0156541463-1.9438874735-3.141901708-5.3237512105-5.3498045032-8.9684945506-5.9321578365Z"/><path class="cls-2" d="m140.2510275209,86.8485914033s-4.370561179,5.4632016118-10.0062446143,5.5207592352c-5.6357737446.0575576233-11.9615810726-4.6006008786-11.9615810726-4.6006008786,0,0,.8338696266,1.9084695209,2.323686148,4.0584328843,3.6447433402.5823533333,7.0246070772,2.7902561285,8.9684945506,5.9321578365,6.4395758312-.3326506092,10.6756449883-10.9107490773,10.6756449883-10.9107490773Z"/><path class="cls-2" d="m94.5637344899,45.2948509142c-3.918881798-1.4006642867-7.44287822-3.8883372213-10.0747792288-7.1119459368"/><path class="cls-2" d="m145.1116398289,16.9099701085c2.6305646793.1693320461,4.8993658644,2.140227248,6.0394458575,4.5168893767,1.1401754452,2.3765666765,1.3178118205,5.1004835875,1.2026965767,7.7339118965-.1527233748,3.4947881648-.9803886143,7.3027547081-3.751172442,9.4381138984"/><path class="cls-2" d="m76.4691644927,66.7380723504c-.002577207-1.53506086,1.0739316813-3.0115141234,2.5362579953-3.4784658537,1.462326314-.4668562782,3.1953548098.1125380397,4.0827730696,1.3650606491.5429315975.7663850047.7695349049,1.7115518145.8938135512,2.6424962597.2493209094,1.8663751396.1333507165,3.759858679.0168991402,5.6391198537-.486714422-.4323026138-1.0218189466-.8354923335-1.6454075764-1.0221012118-.6235886298-.1867043304-1.3539881699-.1228468677-1.8472846706.3018195771-.5217412293.4490067333-.6798099222,1.2156780943-.554672207,1.8925290182.1251377152.676946376.4902420332,1.2831627373.8759640067,1.8532982003.6366655688.941062369,1.4048641442,1.8734385959,2.4728777947,2.2612605256"/><path class="cls-2" d="m148.7963776029,254.8676937222c.5199276392-1.429968085,1.0398552783-2.8600316222,1.5596874654-4.2900951593"/><path class="cls-2" d="m87.661687921,82.2516177049c0,1.9772904934-1.602923102,3.5803132569-3.5802177143,3.5803132569-1.9773858955,0-3.5803131664-1.6030227635-3.5803131664-3.5803132569,0-1.9773859455,1.6029272709-3.5803132569,3.5803131664-3.5803132569,1.9772946124,0,3.5802177143,1.6029273114,3.5802177143,3.5803132569Z"/><path class="cls-4" d="m152.0102738409,62.098651786s.1819770689,62.2221743365-40.9630644965,49.9481671309c0,0,39.7767332857-1.5361395317,40.9630644965-49.9481671309Z"/><path class="cls-5" d="m82.6805862397,121.7180114158s32.4009029054,25.1331840979,33.3504341236,24.4606357578,0-22.1150910176,0-22.1150910176c0,0-.6569666095-6.231947549-2.245073397-6.4172454681l-1.5881067875-.185297919s3.4900113984,24.4675259123,2.7912647205,24.5749351384-33.3173411696-24.9383962184-32.3085186595-20.3179364916Z"/><path class="cls-4" d="m105.6456026773,71.3161305568c.0103082195-.0187738243.0225656565-.0367199509.0370097175-.0536674159.0997541646-.1170433722.2680561082-.1416565565.420922609-.1584460456,3.2558051668-.3575907807,15.9449358933-2.988338407,17.1402237175,1.7349372953.617523839,2.4461994686-1.1725070134,5.0707289424-3.1026373798,6.3997953464-3.1901209714,2.1964537813-7.6272218883.3824419488-10.4203661204-1.6683426507-1.1421429921-.8385851506-5.0367001877-4.5029691744-4.0751525439-6.2542765294Z"/><path class="cls-3" d="m118.2832018339,117.4610127689c.5019504571.2196405833,16.0865900216,1.4095378392,17.6483320701,3.2939901713s11.818104234,25.2650706417,8.4553625338,40.1404209183c0,0-7.2298946554-30.5216626758-18.326942266-34.0525414609-11.0970476106-3.5308787852-12.2740072056-9.1965717096-12.2740072056-9.1965717096,0,0,2.269026335-1.1603132973,4.4972548677-.185297919Z"/><path class="cls-4" d="m138.3743083742,121.7180114158s14.7413811727,3.4700219325,20.6753810749,24.4738966582c0,0-15.9423342788-17.8776601455-17.8533519642-18.3402031663l-2.8220291108-6.1336934919Z"/><path class="cls-2" d="m210.1483376909,315.8113735674s.9743727212,9.517337683.6033686671,13.0482164682c-.3710040542,3.5308787852-1.1276209367,10.340430728-3.3974715843,12.6102813757-2.2698506476,2.2698506476-6.5573463153,5.5485238053-6.5573463153,5.5485238053,0,0-4.7679220898.1979700589,2.5220562751-8.3227857079,0,0,1.9503084716-6.4666875907,1.7317711183-8.1513535319-.2185373533-1.6846659412-2.9927992559-6.6947094509-2.4883880009-8.9815946188s5.5882058346-8.2068679031,7.58600984-5.7512877905Z"/><path class="cls-2" d="m204.3630884679,319.0900467251s.9743727212,9.517337683.603368667,13.0482164682c-.3710040542,3.5308787852-1.1276209367,10.340430728-3.3974715843,12.6102813756-2.2698506476,2.2698506476-6.5573463153,5.5485238053-6.5573463153,5.5485238053,0,0-4.7679220898.1979700589,2.5220562751-8.3227857079,0,0,1.9503084716-6.4666875907,1.7317711184-8.1513535319-.2185373533-1.6846659411-2.9927992559-6.6947094509-2.4883880009-8.9815946188s5.5882058346-8.2068679031,7.58600984-5.7512877905Z"/><path class="cls-2" d="m192.1186804027,327.394824301l2.1062176627,9.0320628015s-6.6264744562,13.8705716185-3.9143203801,13.8705716185,7.6304910974-13.2678707127,8.2331920032-13.8705716185c.6027009058-.6027009058-1.9048324924-12.4222553966-1.9048324924-12.4222553966l-4.5202567934,3.3901925951Z"/><path class="cls-2" d="m186.42116769,327.8507675255v7.1563346807c0,1.6708622823-3.7830844127,13.7775130965-1.00882251,12.0116833571,2.7742619026-1.7658297394,4.2462561838-9.4962900834,4.2462561838-9.4962900834,0,0,.4631717711-10.428344837,0-10.932756092-.4631717711-.504411255-3.2374336738,1.2610281376-3.2374336738,1.2610281376Z"/></g></svg>