<?xml version="1.0" encoding="UTF-8"?><svg id="Capa_2" xmlns="http://www.w3.org/2000/svg" viewBox="0 0 66.916821768 65.8665150754"><defs><style>.cls-1{fill:#f6ebc6;}.cls-1,.cls-2,.cls-3,.cls-4,.cls-5{stroke-width:0px;}.cls-2{fill:#231f20;}.cls-3{fill:#f2a12c;}.cls-4{fill:#fff;}.cls-5{fill:#fcca24;}</style></defs><g id="Capa_1-2"><rect class="cls-3" x="60.84454427" y="43.8804981262" width="2.1591412735" height="2.0172986131" transform="translate(-13.3605833416 31.4041270813) rotate(-25.7834254978)"/><rect class="cls-3" x="60.1572982299" y="37.4946487237" width="2.1594412793" height="2.0157985844" transform="translate(-10.6510042185 30.4694402586) rotate(-25.783425498)"/><rect class="cls-1" x="12.4957746017" y="38.1252452588" width="2.1591412735" height="2.0172986131" transform="translate(-15.6705966383 9.8008656399) rotate(-25.7834254978)"/><polygon class="cls-3" points="56.2046706163 10.7034404803 54.2575659392 11.6440128678 52.3133247307 12.5832020223 50.3691375499 13.522365078 51.2465771145 15.3387767681 52.1234164081 17.1539458208 53.000229603 18.9690608458 53.8776952663 20.7855265637 54.7545084611 22.6006415887 55.631321656 24.4157566137 56.5087873193 26.2322223315 57.3856005142 28.0473373565 58.2629356838 29.8635329358 59.1397488787 31.6786479608 60.0165620736 33.4937629858 58.0721047542 34.4330565353 58.9495704175 36.2495222531 59.8263836124 38.0646372781 61.7708409317 37.1253437287 62.6476541266 38.9404587537 60.7031968073 39.8797523031 59.8263836124 38.0646372781 57.8821964316 39.0038003338 58.7590096265 40.8189153588 56.8144982795 41.758235007 57.6919639428 43.5747007248 55.7477810001 44.5138617333 56.624594195 46.3289767583 57.5020598583 48.1454424761 55.5551670539 49.085912516 53.6134111201 50.0239011285 54.490224315 51.8390161535 52.5433398394 52.7794821701 53.420179133 54.5946512228 51.4759878615 55.5338162546 49.5314765144 56.4731359027 50.408916079 58.2895475929 52.3534274261 57.3502279447 54.2976186975 56.4110629129 56.2445031731 55.4705968964 58.1862591069 54.5326082838 57.3088195423 52.7161965937 59.2557123468 51.7757265538 61.1998952894 50.8365655454 60.3230559958 49.0213964927 62.2675673429 48.0820768445 61.390754148 46.2669618195 60.5132884847 44.4504961017 62.4574756655 43.5113330459 63.3349413288 45.3277987638 65.2793986481 44.3885052144 64.4019329848 42.5720394965 63.5251197899 40.7569244715 65.4693069707 39.8177614158 64.5918413074 38.001295698 66.5360825159 37.0621065435 65.659269321 35.2469915185 64.7824561261 33.4318764935 66.7295608033 32.4913041059 65.85209514 30.6748383881 64.9752819451 28.8597233631 66.916821768 27.9218391455 66.0400085732 26.1067241205 65.1626734035 24.2905285412 64.2858602087 22.4754135162 63.4083945454 20.6589477984 62.5315813505 18.8438327734 61.6547681556 17.0287177483 60.7773024923 15.2122520305 59.9004892975 13.3971370055 59.0236500038 11.5819679528 58.1462104393 9.7655562627 56.2046706163 10.7034404803"/><polygon class="cls-2" points="53.3987259705 54.5502404432 53.420179133 54.5946512228 49.5314765144 56.4731359027 50.408916079 58.2895475929 58.1862591069 54.5326082838 57.3088195423 52.7161965937 61.1998952894 50.8365655454 61.178442127 50.7921547658 53.3987259705 54.5502404432"/><rect class="cls-4" x="44.1806306833" y="9.3840739121" width="2.1591412735" height="2.0172986131" transform="translate(-.0146336797 20.721509942) rotate(-25.783425498)"/><path class="cls-5" d="m46.4804930498,15.4008216831l-.8768392936-1.8151690527-.8768131949-1.815115025-.8774656633-1.8164657178-1.944511347.9393196482-.8768131949-1.815115025-1.9441829426.9391610085-.8768131949-1.815115025-1.9468928044.9404700399-.8774656633-1.8164657178-1.9417559338.9379886126-.8768131949-1.815115025-1.9468844756.9404660165-.8774656633-1.8164657178-1.9441912715.9391650318-1.944511347.9393196482-.8768131949-1.815115025-1.9441871808.9391630557-1.9441871808.9391630557-1.9444573193.9392935494-1.9442412085.9391891545-1.9444573193.9392935494-1.9441871808.9391630557-1.9468885663.9404679926-1.9444573193.9392935494.8768131949,1.815115025-1.9441871808.9391630557-1.9442412085.9391891545.8774656633,1.8164657178-1.9444573193.9392935494.8768131949,1.815115025-1.9441871808.9391630557.8774656633,1.8164657178-1.9441871808.9391630557.8768131949,1.815115025-1.944511347.9393196482.8768131949,1.815115025.8774656633,1.8164657178-1.9441871808.9391630557.8768131949,1.815115025.8768392936,1.8151690527-1.9468885663.9404679926.8774395646,1.8164116901.8768392936,1.8151690527.8768131949,1.815115025.8774656633,1.8164657178.8768131949,1.815115025.8768131949,1.815115025.8774656633,1.8164657178.8768131949,1.815115025.8773351696,1.8161955793.8768131949,1.815115025,1.9468885663-.9404679926.8768131949,1.815115025.8774656633,1.8164657178,1.9441871808-.9391630557.8768131949,1.815115025.8768131949,1.815115025,1.944511347-.9393196481.8774656633,1.8164657178,1.9441871808-.9391630557.8768131949,1.815115025,1.9441871808-.9391630557.8774656633,1.8164657178,1.9444573193-.9392935494.8768131949,1.815115025,1.9442412085-.9391891545,1.9441871808-.9391630557.8768392936,1.8151690527,1.9444573193-.9392935494,1.9468885663-.9404679926,1.9441871808-.9391630557,1.9444573193-.9392935494,1.9442412085-.9391891545,1.9444573193-.9392935494,1.9441871808-.9391630557,1.9441871808-.9391630557-.8768392936-1.8151690527,1.944511347-.9393196482,1.9441912715-.9391650318-.8768131949-1.815115025,1.9468844756-.9404660165-.8774656633-1.8164657178,1.9417559338-.9379886126-.8768131949-1.815115025,1.9468928044-.9404700399-.8774656633-1.8164657178,1.9441829426-.9391610084-.8768131949-1.815115025,1.944511347-.9393196482-.8768131949-1.815115025-.8774656633-1.8164657178,1.9441871808-.9391630557-.8768131949-1.815115025-.8768131949-1.815115025-.8773351696-1.8161955793-.8768131949-1.815115025-.8774656633-1.8164657178-.8768131949-1.815115025-.8768131949-1.815115025-.8774656633-1.8164657178-.8768131949-1.815115025-.8768392936-1.8151690527-.8774395646-1.8164116901-1.9441871808.9391630557ZM10.4108663279,35.0649591565l-.8774395646-1.8164116901-.8768392936-1.8151690527,1.9441871808-.9391630557-.8768131949-1.815115025,1.9444573193-.9392935494-.8774656633-1.8164657178,1.9442412085-.9391891545-.8768131949-1.815115025,1.9441871808-.9391630557-.8768131949-1.815115025,1.9444573193-.9392935494,1.9468885663-.9404679926,1.9441871808-.9391630557,1.9444573193-.9392935494,1.9442412085-.9391891545,1.9444573193-.9392935494,1.9441871808-.9391630557,1.9441871808-.9391630557.8768131949,1.815115025,1.944511347-.9393196481.8768131949,1.815115025,1.9441912715-.9391650318.8774656633,1.8164657178,1.9468844756-.9404660165.8768131949,1.815115025,1.9417559338-.9379886126.8768392936,1.8151690527.8774395646,1.8164116901,1.9468928045-.9404700399.8768392936,1.8151690527.8768131949,1.815115025.8774656633,1.8164657178.8768131949,1.815115025.8768131949,1.815115025.8774656633,1.8164657178.8768131949,1.815115025.8773351696,1.8161955793-1.9468928045.9404700399.8768131949,1.815115025.8768131949,1.815115025-1.9417559338.9379886126.8774656633,1.8164657178-1.9468844756.9404660165.8768131949,1.815115025-1.9441912715.9391650318.8768131949,1.815115025-1.944511347.9393196482.8774656633,1.8164657178-1.9441871808.9391630557-1.9441871808.9391630557-1.9444573193.9392935494-1.9442412085.9391891545-1.9444573193.9392935494-1.9441871808.9391630557-1.9468885663.9404679926-1.9444573193.9392935494-.8774656633-1.8164657178-1.9441871808.9391630557-.8768131949-1.815115025-1.9442412085.9391891545-.8768131949-1.815115025-1.9444573193.9392935494-.8774656633-1.8164657178-1.9441871808.9391630557-.8768131949-1.815115025-.8768131949-1.815115025-1.9441871808.9391630557-.8773351696-1.8161955793-.8768131949-1.815115025-.8774656633-1.8164657178-.8768131949-1.815115025-.8768131949-1.815115025-.8774656633-1.8164657178-.8768131949-1.815115025-.8768392936-1.8151690527,1.9441871808-.9391630557Z"/><polygon class="cls-5" points="13.4220712635 31.3700908613 11.4776139441 32.3093844107 12.3550535087 34.1257961008 13.2318928023 35.9409651535 14.1087059972 37.7560801786 14.9861716605 39.5725458964 15.8629848554 41.3876609214 16.7397980502 43.2027759464 17.6172637135 45.0192416642 18.4940769084 46.8343566892 20.4385342277 45.8950631398 21.3158693974 47.7112587191 22.1926825922 49.5263737441 24.1369238007 48.5871845896 25.0137369956 50.4022996147 26.9579241763 49.4631365589 27.8353898397 51.2796022768 29.779847159 50.3403087274 31.7267357253 49.3998407348 32.6035489202 51.2149557598 34.5477361009 50.2757927041 36.4921934203 49.3364991546 38.4364346287 48.3973100002 40.3808919481 47.4580164508 42.3250791288 46.518853395 41.448265934 44.70373837 43.3924531147 43.7645753143 45.3369644618 42.8252556661 44.4594987985 41.0087899483 46.40369007 40.0696249165 45.5268768751 38.2545098915 47.4737613507 37.314043875 46.5969481558 35.49892885 45.7196129862 33.6827332707 47.66136892 32.7447446581 46.7845557251 30.9296296331 45.9070900618 29.1131639153 45.0302768669 27.2980488903 44.1534636721 25.4829338653 43.2759980087 23.6664681475 42.3991848139 21.8513531224 40.4574288801 22.789341735 39.5805895865 20.9741726823 38.7031500219 19.1577609922 37.8263107283 17.3425919394 35.8794262527 18.2830579559 35.0026130578 16.4679429309 33.0584217864 17.4071079627 32.1809561231 15.5906422449 30.236444776 16.529961893 28.2922575952 17.4691249488 27.4154444004 15.6540099238 25.4712572196 16.5931729795 23.5267999003 17.5324665289 21.5825586918 18.4716556834 19.6381013725 19.4109492328 17.6939141917 20.3501122885 15.7470256254 21.2905802811 16.6238388203 23.1056953061 14.6793815009 24.0449888555 12.7351943202 24.9841519113 13.6126599835 26.8006176291 11.668418775 27.7398067835 12.5452319699 29.5549218085 13.4220712635 31.3700908613"/><polygon class="cls-3" points="51.6264477874 6.1972630722 50.7496345925 4.3821480472 49.8728213977 2.5670330222 47.9285801892 3.5062221767 48.805393384 5.3213372017 46.8612062033 6.2605002574 44.9167488839 7.1997938068 45.7935620788 9.0149088318 46.6710277421 10.8313745497 47.547840937 12.6464895747 49.4922982563 11.7071960253 48.6154850615 9.8920810003 50.5596722422 8.9529179445 52.5039134507 8.0137287901 53.3807266456 9.8288438151 54.2575659392 11.6440128678 56.2046706163 10.7034404803 55.3278313227 8.8882714275 54.4510181279 7.0731564025 53.5735524646 5.2566906847 51.6264477874 6.1972630722"/><polygon class="cls-3" points="45.1069273451 2.6289195146 44.2301141502 .8138044895 42.2856568309 1.753098039 40.3414696501 2.6922610947 39.4640039868 .8757953769 37.5194926398 1.815115025 36.6426794449 0 34.6984965023 .9391610085 32.7516036978 1.8796310483 31.8747905029 .0645160233 29.9330345692 1.0025046359 27.9861500936 1.9429706524 26.0419588221 2.8821356842 24.097447475 3.8214553323 24.9742606699 5.6365703573 26.918772017 4.6972507092 28.8629632884 3.7580856774 29.7397764833 5.5732007024 31.6866609589 4.6327346859 32.5641266222 6.4492004037 34.505882556 5.5112117912 35.3826957509 7.3263268162 37.3295885553 6.3858567763 38.2070542186 8.2023224941 40.1512371613 7.2631614857 42.0957485083 6.3238418375 44.0399356891 5.3846787818 45.9843930084 4.4453852324 47.9285801892 3.5062221767 47.0511145259 1.6897564588 45.1069273451 2.6289195146"/><polygon class="cls-3" points="51.6264477874 6.1972630722 50.7496345925 4.3821480472 49.8728213977 2.5670330222 47.9285801892 3.5062221767 48.805393384 5.3213372017 46.8612062033 6.2605002574 44.9167488839 7.1997938068 45.7935620788 9.0149088318 46.6710277421 10.8313745497 47.547840937 12.6464895747 49.4922982563 11.7071960253 48.6154850615 9.8920810003 50.5596722422 8.9529179445 52.5039134507 8.0137287901 53.3807266456 9.8288438151 54.2575659392 11.6440128678 56.2046706163 10.7034404803 55.3278313227 8.8882714275 54.4510181279 7.0731564025 53.5735524646 5.2566906847 51.6264477874 6.1972630722"/><polygon class="cls-2" points="46.8612062033 6.2605002574 46.8612062033 6.2605002574 46.8612062033 6.2605002574 44.9167488839 7.1997938068 44.9167488839 7.1997938068 46.8612062033 6.2605002574"/><polygon class="cls-2" points="51.6264477874 6.1972630722 50.7496345925 4.3821480472 49.8728213977 2.5670330222 47.9285801892 3.5062221767 47.9285801892 3.5062221767 47.9285801892 3.5062221767 48.805393384 5.3213372017 49.6822065789 7.1364522267 51.6264477874 6.1972630722 52.5039134507 8.0137287901 52.5039134507 8.0137287901 53.3807266456 9.8288438151 54.2575659392 11.6440128678 56.2046706163 10.7034404803 55.3278313227 8.8882714275 54.4510181279 7.0731564025 53.5735524646 5.2566906847 51.6264477874 6.1972630722"/><rect class="cls-2" x="37.851056739" y="1.2464641141" width="2.1595012804" height="2.0157985844" transform="translate(2.8951887643 17.1581920621) rotate(-25.7834254976)"/><polygon class="cls-2" points="41.218282845 4.5073761197 43.1624700258 3.568213064 45.1069273451 2.6289195146 44.2301141502 .8138044895 42.2856568309 1.753098039 40.3414696501 2.6922610947 41.218282845 4.5073761197"/><polygon class="cls-2" points="35.5753096972 2.7542760335 37.5194926398 1.815115025 36.6426794449 0 34.6984965023 .9391610085 32.7543050834 1.8783261115 33.6311182782 3.6934411365 35.5753096972 2.7542760335"/><rect class="cls-2" x="45.4381831304" y="2.0589215391" width="2.1591412735" height="2.0172986131" transform="translate(3.2967886062 20.5392501293) rotate(-25.7834254978)"/><polygon class="cls-2" points="26.918772017 4.6972507092 26.918772017 4.6972507092 28.8629632884 3.7580856774 28.8629632884 3.7580856774 30.8098477641 2.8176196609 32.7516036978 1.8796310483 31.8747905029 .0645160233 29.9330345692 1.0025046359 27.9861500936 1.9429706524 26.0419588221 2.8821356842 24.097447475 3.8214553323 24.9742606699 5.6365703573 24.9742606699 5.6365703573 26.918772017 4.6972507092"/><rect class="cls-2" x="29.7401027175" y="5.5731260344" height=".0015000287"/><polygon class="cls-2" points="55.5551670539 49.085912516 55.5551670539 49.085912516 53.6134111201 50.0239011285 53.6134111201 50.0239011285 53.6134111201 50.0239011285 55.5551670539 49.085912516"/><polygon class="cls-2" points="49.5314765144 56.4731359027 51.4759878615 55.5338162546 51.4759878615 55.5338162546 51.4759878615 55.5338162546 49.5314765144 56.4731359027 49.5314765144 56.4731359027"/><polygon class="cls-2" points="59.8263836124 38.0646372781 57.8821964316 39.0038003338 58.7590096265 40.8189153588 58.7590096265 40.8189153588 58.7590096265 40.8189153588 60.7031968073 39.8797523031 59.8263836124 38.0646372781"/><polygon class="cls-2" points="52.3133247307 12.5832020223 52.3133247307 12.5832020223 52.3133247307 12.5832020223 50.3691375499 13.522365078 50.3691375499 13.522365078 50.3691375499 13.522365078 52.3133247307 12.5832020223"/><polygon class="cls-2" points="56.2046706163 10.7034404803 54.2575659392 11.6440128678 54.2575659392 11.6440128678 54.2575659392 11.6440128678 56.2046706163 10.7034404803 57.0821101809 12.5198521704 57.9589494745 14.3350212231 58.8357626694 16.1501362481 59.7132283327 17.966601966 60.5900415276 19.781716991 61.4668547224 21.596832016 62.3443203858 23.4132977338 63.2211335806 25.2284127588 64.0984687502 27.0446083381 64.9752819451 28.8597233631 66.916821768 27.9218391455 66.0400085732 26.1067241205 65.1626734035 24.2905285412 64.2858602087 22.4754135162 63.4083945454 20.6589477984 62.5315813505 18.8438327734 61.6547681556 17.0287177483 60.7773024923 15.2122520305 59.9004892975 13.3971370055 59.0236500038 11.5819679528 58.1462104393 9.7655562627 56.2046706163 10.7034404803"/><polygon class="cls-2" points="61.5806624706 41.6962180209 62.4574756655 43.5113330459 62.4574756655 43.5113330459 63.3349413288 45.3277987638 65.2793986481 44.3885052144 64.4019329848 42.5720394965 63.5251197899 40.7569244715 61.5806624706 41.6962180209"/><rect class="cls-2" x="62.9789099119" y="38.3704607782" width="2.1591412735" height="2.0172986131" transform="translate(-10.7513913391 31.7839596974) rotate(-25.7834254976)"/><polygon class="cls-2" points="63.0281772679 29.8002957506 63.9049904628 31.6154107757 64.7824561261 33.4318764935 62.8382149176 34.3710656479 63.7150281125 36.186180673 64.5918413074 38.001295698 66.5360825159 37.0621065435 65.659269321 35.2469915185 64.7824561261 33.4318764935 66.7295608033 32.4913041059 65.85209514 30.6748383881 64.9752819451 28.8597233631 63.0281772679 29.8002957506"/><polygon class="cls-2" points="57.3088195423 52.7161965937 55.3670636086 53.6541852063 56.2445031731 55.4705968964 58.1862591069 54.5326082838 57.3088195423 52.7161965937 57.3088195423 52.7161965937"/><polygon class="cls-2" points="61.390754148 46.2669618195 60.5132884847 44.4504961017 58.5687771376 45.3898157498 59.446242801 47.2062814677 60.3230559958 49.0213964927 62.2675673429 48.0820768445 61.390754148 46.2669618195 61.390754148 46.2669618195"/><rect class="cls-2" x="58.7098158879" y="49.3906322305" width="2.1591365668" height="2.0158585855" transform="translate(-15.9695405924 31.0240736113) rotate(-25.7834254977)"/><polygon class="cls-2" points="48.6546372208 54.65796685 49.5314765144 56.4731359027 47.5872893337 57.4122989585 45.6431021529 58.3514620142 43.6986448336 59.2907555636 41.7544036251 60.2299447181 39.8099463058 61.1692382675 37.865759125 62.1084013232 35.9188705587 63.0488693158 33.9744132394 63.9881628652 34.8518528039 65.8045745553 36.7963101233 64.8652810059 38.7431986896 63.9248130133 40.6873858704 62.9856499576 42.6318431897 62.0463564082 44.5760843982 61.1071672537 46.5205417175 60.1678737043 48.4647288983 59.2287106486 50.408916079 58.2895475929 49.5314765144 56.4731359027 51.4759878615 55.5338162546 53.420179133 54.5946512228 52.5433398394 52.7794821701 50.5991485679 53.7186472018 48.6546372208 54.65796685"/><rect class="cls-2" x="51.9973070858" y="50.3937923571" width="2.1621367879" height="2.0157985844" transform="translate(-17.0739896476 28.204848868) rotate(-25.7834254981)"/><polygon class="cls-2" points="54.6777013906 47.2694467981 52.7359454568 48.2074354107 53.6134111201 50.0239011285 55.5551670539 49.085912516 57.5020598583 48.1454424761 56.624594195 46.3289767583 55.7477810001 44.5138617333 53.8008881957 45.4543317731 54.6777013906 47.2694467981"/><rect class="cls-2" x="55.2015713564" y="42.1273990636" width="2.1591365668" height="2.0172986131" transform="translate(-13.159825175 28.7750681202) rotate(-25.7834254978)"/><rect class="cls-2" x="56.2685967153" y="39.3731183782" width="2.1595012804" height="2.0157985844" transform="translate(-11.8552214645 28.9649940596) rotate(-25.7834254977)"/><polygon class="cls-2" points="57.0053832368 37.1886853088 57.8821964316 39.0038003338 59.8263836124 38.0646372781 58.9495704175 36.2495222531 58.0721047542 34.4330565353 56.1279175735 35.372219591 57.0053832368 37.1886853088"/><polygon class="cls-2" points="49.3021197952 16.2780703175 50.1789590888 18.0932393702 51.0557722837 19.9083543953 51.933237947 21.7248201131 52.8100511418 23.5399351381 53.6868643367 25.3550501631 54.56433 27.1715158809 55.4411431949 28.986630906 56.3184783645 30.8028264852 57.1952915594 32.6179415102 58.0721047542 34.4330565353 60.0165620736 33.4937629858 59.1397488787 31.6786479608 58.2629356838 29.8635329358 57.3856005142 28.0473373565 56.5087873193 26.2322223315 55.631321656 24.4157566137 54.7545084611 22.6006415887 53.8776952663 20.7855265637 53.000229603 18.9690608458 52.1234164081 17.1539458208 51.2465771145 15.3387767681 49.3021197952 16.2780703175"/><polygon class="cls-2" points="45.6036537562 13.5856526304 46.4804930498 15.4008216831 48.4246802306 14.4616586274 47.547840937 12.6464895747 46.6710277421 10.8313745497 44.7268405614 11.7705376054 45.6036537562 13.5856526304"/><rect class="cls-2" x="41.3589619869" y="8.5082749069" width="2.1595012804" height="2.0157985844" transform="translate(.0857450755 19.4069800514) rotate(-25.7834254979)"/><rect class="cls-2" x="45.6678937867" y="42.2553313706" width="2.1591458165" height="2.0157985844" transform="translate(-14.1642740065 24.6408620032) rotate(-25.7834254979)"/><polygon class="cls-2" points="39.5805895865 20.9741726823 40.4574288801 22.789341735 42.3991848139 21.8513531224 42.3991848139 21.8513531224 43.2759980087 23.6664681475 44.1534636721 25.4829338653 45.0302768669 27.2980488903 45.9070900618 29.1131639153 46.7845557251 30.9296296331 47.66136892 32.7447446581 47.66136892 32.7447446581 45.7196129862 33.6827332707 46.5969481558 35.49892885 47.4737613507 37.314043875 45.5268768751 38.2545098915 46.40369007 40.0696249165 47.2811557333 41.8860906343 49.2280402089 40.9456246178 48.3505745456 39.1291589 50.2923304793 38.1911702874 49.4155172845 36.3760552624 48.5387040896 34.5609402374 50.4855968941 33.6204701976 49.6082617244 31.8042746183 48.7314485296 29.9891595933 47.8539828663 28.1726938754 46.9771696714 26.3575788504 46.1003564765 24.5424638254 45.2228908132 22.7259981076 44.3460776183 20.9108830826 43.4692383247 19.0957140298 41.5223455203 20.0361840697 41.5223455203 20.0361840697 40.6449059557 18.2197723796 39.7680666621 16.4046033269 37.8263107283 17.3425919394 38.7031500219 19.1577609922 39.5805895865 20.9741726823"/><rect class="cls-2" x="35.3333934991" y="15.897368143" width="2.1621367879" height="2.0157985844" transform="translate(-3.7280399856 17.5222317282) rotate(-25.7834254978)"/><rect class="cls-2" x="32.5122116822" y="15.0206432814" width="2.1591458165" height="2.0172986131" transform="translate(-3.6280293109 16.2072419893) rotate(-25.7834254978)"/><rect class="cls-2" x="38.537984004" y="7.6324002102" width="2.1591365668" height="2.0157985844" transform="translate(.1858632094 18.0926601173) rotate(-25.7834254977)"/><rect class="cls-2" x="35.713801966" y="6.7556753486" width="2.1621460376" height="2.0172986131" transform="translate(.2858738841 16.7776703786) rotate(-25.783425498)"/><rect class="cls-2" x="32.8951905756" y="5.8798643178" width="2.1564412219" height="2.0157985844" transform="translate(.3862603486 15.4631501193) rotate(-25.7834254978)"/><rect class="cls-2" x="30.071209393" y="5.0039766073" width="2.1621367879" height="2.0157985844" transform="translate(.4863868252 14.1488406079) rotate(-25.7834254979)"/><polygon class="cls-2" points="25.8517263332 7.4530360752 27.7962376803 6.513716427 29.7404289518 5.5745513952 28.8629632884 3.7580856774 26.918772017 4.6972507092 24.9742606699 5.6365703573 25.8517263332 7.4530360752"/><polygon class="cls-2" points="31.153386765 63.1121568682 29.2091455565 64.0513460227 30.0859848501 65.8665150754 32.0302260586 64.9273259209 33.9744132394 63.9881628652 33.0975739457 62.1729938125 31.153386765 63.1121568682"/><rect class="cls-2" x="26.7187896598" y="62.6055359927" width="2.1594412793" height="2.0157985844" transform="translate(-24.9024857076 18.4245943672) rotate(-25.7834254974)"/><polygon class="cls-2" points="23.5662221982 62.298221885 22.6894090034 60.48310686 20.7452218226 61.4222699157 21.6220350175 63.2373849407 22.4995006808 65.0538506585 24.4436878615 64.1146876028 26.3878750423 63.1755245471 25.510409379 61.3590588292 23.5662221982 62.298221885"/><rect class="cls-2" x="18.2544826772" y="59.9750475743" width="2.1595012804" height="2.0172986131" transform="translate(-24.601290884 14.4810778538) rotate(-25.7834254978)"/><polygon class="cls-2" points="32.410939212 55.7870044952 34.3578277784 54.8465365026 36.3020149591 53.9073734469 38.2464722784 52.9680798975 40.1907134869 52.028890743 42.1351708063 51.0895971936 44.079357987 50.1504341379 46.0235451678 49.2112710822 45.1460795045 47.3948053643 47.0905908515 46.4554857162 46.2137776567 44.6403706912 44.2692663096 45.5796903393 42.3250791288 46.518853395 43.2018923237 48.33396842 41.2577051429 49.2731314758 39.3132478236 50.2124250252 37.3690066151 51.1516141797 35.4245492958 52.0909077291 33.480362115 53.0300707848 31.5334735487 53.9705387774 30.6566603538 52.1554237524 28.7122030345 53.0947173018 26.7680158537 54.0338803575 27.6448290486 55.8489953825 29.5890162294 54.9098323268 30.4664818927 56.7262980446 32.410939212 55.7870044952"/><rect class="cls-2" x="24.2778880147" y="52.58801813" width="2.1592012747" height="2.0157985844" transform="translate(-20.7881763749 16.3655240011) rotate(-25.7834254978)"/><polygon class="cls-2" points="16.1696184225 56.914893796 14.2254312417 57.8540568517 15.1022444366 59.6691718767 15.9790576315 61.4842869017 17.9232448122 60.545123846 17.0464316174 58.730008821 16.1696184225 56.914893796"/><polygon class="cls-2" points="12.4711523836 54.2224761089 10.5242638172 55.1629441015 11.4010770121 56.9780591265 12.2785426754 58.7945248443 14.2254312417 57.8540568517 13.3479655784 56.0375911339 12.4711523836 54.2224761089"/><polygon class="cls-2" points="8.7701154527 51.5316334972 7.8933022579 49.7165184722 7.0158365946 47.9000527543 6.1390233997 46.0849377293 5.2622102048 44.2698227043 4.3847445415 42.4533569865 3.5079313467 40.6382419615 2.631092053 38.8230729087 .6866347337 39.7623664581 1.5634740273 41.5775355109 2.4402872222 43.3926505359 3.3177528855 45.2091162537 4.1945660804 47.0242312787 5.0713792752 48.8393463037 5.9488449385 50.6558120216 6.8256581334 52.4709270466 7.702993303 54.2871226258 9.6474506224 53.3478290764 8.7701154527 51.5316334972"/><polygon class="cls-2" points="22.1926825922 49.5263737441 20.2482252729 50.4656672935 19.371412078 48.6505522685 18.4940769084 46.8343566892 16.5498897276 47.773519745 15.6730765328 45.95840472 14.7956108695 44.1419390021 13.9187976746 42.3268239771 13.0419844797 40.5117089521 12.1645188164 38.6952432343 11.2877056215 36.8801282093 13.2318928023 35.9409651535 12.3550535087 34.1257961008 11.4776139441 32.3093844107 13.4220712635 31.3700908613 12.5452319699 29.5549218085 11.668418775 27.7398067835 9.7239614557 28.679100333 10.6007746505 30.494215358 8.6565874698 31.4333784137 9.5334267634 33.2485474664 10.4108663279 35.0649591565 8.4666791472 36.0041222123 9.3435184408 37.819291265 10.2203316356 39.63440629 11.097797299 41.4508720078 11.9746104938 43.2659870329 12.8514236887 45.0811020579 13.728889352 46.8975677757 14.6057025469 48.7126828007 15.4830377165 50.52887838 17.4272248973 49.5897153242 18.3040380921 51.4048303493 19.180851287 53.2199453743 21.1250384678 52.2807823186 22.0025041311 54.0972480364 23.9469614504 53.157954487 23.0694957871 51.3414887691 22.1926825922 49.5263737441"/><polygon class="cls-2" points="2.8237017612 34.2510241733 1.9468885663 32.4359091483 0 33.3763771409 .8768131949 35.1914921659 1.7536524885 37.0066612186 3.7005410548 36.066193226 2.8237017612 34.2510241733"/><rect class="cls-2" x="11.1222059102" y="25.3533300409" width="2.1592012747" height="2.0172986131" transform="translate(-10.2519316792 7.9319039873) rotate(-25.7834254975)"/><polygon class="cls-2" points="3.0136100838 29.6802803747 2.1367968889 27.8651653497 .1926097081 28.8043284054 1.069422903 30.6194434305 1.9468885663 32.4359091483 3.8910757471 31.4967460926 3.0136100838 29.6802803747"/><polygon class="cls-2" points="16.6238388203 23.1056953061 15.7470256254 21.2905802811 17.6939141917 20.3501122885 19.6381013725 19.4109492328 21.5825586918 18.4716556834 23.5267999003 17.5324665289 25.4712572196 16.5931729795 27.4154444004 15.6540099238 28.2922575952 17.4691249488 30.236444776 16.529961893 32.1809561231 15.5906422449 31.3041429282 13.7755272199 29.3596315811 14.714846868 28.4828183863 12.899731843 26.5386312055 13.8388948987 24.5944440247 14.7780579545 22.6499867054 15.7173515039 20.7057454969 16.6565406584 18.7612881776 17.5958342078 16.8171009968 18.5349972635 14.8702124305 19.4754652561 12.9257551112 20.4147588055 13.8025683061 22.2298738305 11.8583811253 23.1690368862 12.7351943202 24.9841519113 14.6793815009 24.0449888555 16.6238388203 23.1056953061"/><rect class="cls-2" x="1.5908953248" y="25.480048721" width="2.1595012804" height="2.0157985844" transform="translate(-11.2556024997 3.798669851) rotate(-25.7834254979)"/><rect class="cls-2" x="2.658285163" y="22.7242669832" width="2.1591412735" height="2.0172986131" transform="translate(-9.9509981328 3.9885966102) rotate(-25.7834254975)"/><rect class="cls-2" x="3.7253329147" y="19.9700635705" width="2.1591412735" height="2.0157985844" transform="translate(-8.646443959 4.1784606629) rotate(-25.7834254977)"/><rect class="cls-2" x="4.792691967" y="17.2157202429" width="2.1594412793" height="2.0157985844" transform="translate(-7.3421092352 4.3685861078) rotate(-25.7834254977)"/><polygon class="cls-2" points="10.2946630581 14.9680630376 9.4171973948 13.1515973198 7.4730102141 14.0907603755 5.5287690056 15.02994953 6.4062346689 16.8464152478 8.3504758774 15.9072260934 10.2946630581 14.9680630376"/><polygon class="cls-2" points="13.3085432805 11.2718357778 15.2527304612 10.3326727221 17.1971877806 9.3933791727 19.1414289891 8.4541900182 21.0858863084 7.5148964688 23.0300734891 6.5757334131 24.9742606699 5.6365703573 24.097447475 3.8214553323 22.1532602943 4.760618388 20.2090731135 5.6997814438 18.2646157942 6.6390749932 16.3203745857 7.5782641477 14.3759172664 8.5175576971 12.4317300856 9.4567207528 10.4848415193 10.3971887454 8.5403842 11.3364822948 9.4171973948 13.1515973198 11.3616547142 12.2123037704 13.3085432805 11.2718357778"/><polygon class="cls-4" points="50.5596722422 8.9529179445 48.6154850615 9.8920810003 49.4922982563 11.7071960253 47.547840937 12.6464895747 48.4246802306 14.4616586274 49.3021197952 16.2780703175 51.2465771145 15.3387767681 50.3691375499 13.522365078 52.3133247307 12.5832020223 54.2575659392 11.6440128678 53.3807266456 9.8288438151 52.5039134507 8.0137287901 50.5596722422 8.9529179445"/><polygon class="cls-4" points="45.9843930084 4.4453852324 44.0399356891 5.3846787818 42.0957485083 6.3238418375 40.1512371613 7.2631614857 41.0280503561 9.0782765107 42.9725617032 8.1389568625 43.849374898 9.9540718876 45.7935620788 9.0149088318 44.9167488839 7.1997938068 46.8612062033 6.2605002574 48.805393384 5.3213372017 47.9285801892 3.5062221767 45.9843930084 4.4453852324"/><polygon class="cls-4" points="38.4364346287 48.3973100002 36.4921934203 49.3364991546 34.5477361009 50.2757927041 32.6035489202 51.2149557598 31.7267357253 49.3998407348 29.779847159 50.3403087274 27.8353898397 51.2796022768 26.9579241763 49.4631365589 25.0137369956 50.4022996147 24.1369238007 48.5871845896 22.1926825922 49.5263737441 23.0694957871 51.3414887691 23.9469614504 53.157954487 25.8912026589 52.2187653325 26.7680158537 54.0338803575 28.7122030345 53.0947173018 30.6566603538 52.1554237524 31.5334735487 53.9705387774 33.480362115 53.0300707848 35.4245492958 52.0909077291 37.3690066151 51.1516141797 39.3132478236 50.2124250252 41.2577051429 49.2731314758 43.2018923237 48.33396842 42.3250791288 46.518853395 40.3808919481 47.4580164508 38.4364346287 48.3973100002"/><polygon class="cls-4" points="41.448265934 44.70373837 42.3250791288 46.518853395 44.2692663096 45.5796903393 46.2137776567 44.6403706912 45.3369644618 42.8252556661 43.3924531147 43.7645753143 41.448265934 44.70373837"/><rect class="cls-4" x="44.7907543576" y="40.4387909848" width="2.1591458165" height="2.0172986131" transform="translate(-13.4617824454 24.0785604371) rotate(-25.7834254975)"/><polygon class="cls-4" points="20.4385342277 45.8950631398 18.4940769084 46.8343566892 19.371412078 48.6505522685 20.2482252729 50.4656672935 22.1926825922 49.5263737441 21.3158693974 47.7112587191 20.4385342277 45.8950631398"/><polygon class="cls-4" points="16.7397980502 43.2027759464 15.8629848554 41.3876609214 14.9861716605 39.5725458964 13.0419844797 40.5117089521 13.9187976746 42.3268239771 14.7956108695 44.1419390021 15.6730765328 45.95840472 16.5498897276 47.773519745 18.4940769084 46.8343566892 17.6172637135 45.0192416642 16.7397980502 43.2027759464"/><rect class="cls-4" x="11.6186351726" y="36.3102049017" width="2.1591412735" height="2.0157985844" transform="translate(-14.9681050773 9.2385640743) rotate(-25.7834254977)"/></g></svg>