<?xml version="1.0" encoding="UTF-8"?>
<svg id="Capa_1" data-name="Capa 1" xmlns="http://www.w3.org/2000/svg" xmlns:xlink="http://www.w3.org/1999/xlink" viewBox="0 0 578.25 666.19">
  <defs>
    <style>
      .cls-1 {
        fill: #fff;
      }

      .cls-2 {
        stroke-width: 2.34px;
      }

      .cls-2, .cls-3, .cls-4, .cls-5, .cls-6, .cls-7, .cls-8, .cls-9, .cls-10, .cls-11 {
        stroke-linecap: round;
        stroke-linejoin: round;
      }

      .cls-2, .cls-3, .cls-4, .cls-5, .cls-6, .cls-7, .cls-8, .cls-10, .cls-11 {
        stroke: #373151;
      }

      .cls-2, .cls-5, .cls-7, .cls-12, .cls-9 {
        fill: none;
      }

      .cls-13 {
        fill: #373151;
      }

      .cls-3 {
        fill: #b390f1;
      }

      .cls-3, .cls-5 {
        stroke-width: 1.92px;
      }

      .cls-14 {
        clip-path: url(#clippath-1);
      }

      .cls-4 {
        stroke-width: 1.67px;
      }

      .cls-4, .cls-10 {
        fill: #4aa4a9;
      }

      .cls-15 {
        fill: #63332c;
      }

      .cls-16 {
        fill: #606060;
      }

      .cls-16, .cls-17 {
        isolation: isolate;
        opacity: .2;
      }

      .cls-18 {
        fill: #2b4579;
      }

      .cls-6 {
        fill: #544a00;
      }

      .cls-6, .cls-8, .cls-9, .cls-11 {
        stroke-width: 1.49px;
      }

      .cls-7 {
        stroke-width: 4.69px;
      }

      .cls-19 {
        clip-path: url(#clippath);
      }

      .cls-20 {
        fill: #6e3b31;
      }

      .cls-8 {
        fill: #9f7c3e;
      }

      .cls-9 {
        stroke: #e2cc6f;
      }

      .cls-21 {
        fill: #744339;
      }

      .cls-10 {
        stroke-width: 1.21px;
      }

      .cls-11 {
        fill: #88b73e;
      }

      .cls-22 {
        fill: #77633e;
      }
    </style>
    <clipPath id="clippath">
      <rect class="cls-12" x=".57" width="577.68" height="666.19"/>
    </clipPath>
    <clipPath id="clippath-1">
      <rect class="cls-12" x="143.87" y="44.66" width="317.01" height="151.24" rx="3.25" ry="3.25"/>
    </clipPath>
  </defs>
  <g id="Capa_2" data-name="Capa 2">
    <g id="Capa_1-2" data-name="Capa 1-2">
      <g class="cls-19">
        <g>
          <path class="cls-15" d="M452.89,218.95l-17.67,4.64s-2.88,5.67-3.5,8.24,11.23,13.95,8.14,22.17c-3.09,8.22-12.36,15.43-15.97,11.83s-19.61-29.36-19.59-36.57,.54-41.72,5.17-48.42c4.64-6.7,19.68-19.06,35.34-9.79s19.78,10.82,20.81,18.03-12.72,29.87-12.72,29.87h0Z"/>
          <path class="cls-20" d="M494.44,140.66s-79.02-34.47-84.47-30.9c-5.45,3.56-44.81,91.68-46.36,93.74s11,14.94,18.38,10.3c7.37-4.64,18.71-24.34,18.71-30.71s23.69-21.29,23.69-29.55,20.46,25.05,36.76,16.64,32.78-23.34,33.29-29.52h0Z"/>
          <path class="cls-20" d="M452.89,207.87c-2.52,.49-18.7-15.7-18.7-15.7l-8.24,25.75s8.24,37.08-5.67,36.05c-13.91-1.03-16.52-10.82-15.99-12.36s-3.07-26.81-3.07-26.81v-20.06s8.76-41.72,17-43.27c8.24-1.55,39.73,8.96,41.24,22.77s8.01,30.79-6.57,33.63h0Z"/>
          <path class="cls-5" d="M456.25,178.7c6.45,3.99,8.64,6.27,9.35,11.25,1.03,7.21-12.72,29.87-12.72,29.87l-17.67,4.64s-2.88,5.67-3.5,8.24,11.23,13.95,8.14,22.17-12.36,15.43-15.97,11.83c-1.23-1.23-3.9-5.03-6.89-9.8"/>
          <path class="cls-5" d="M494.44,141.54s-79.02-34.47-84.47-30.9c-5.45,3.56-44.81,91.68-46.36,93.74s11,14.94,18.38,10.3c7.37-4.64,18.71-24.34,18.71-30.71s23.69-21.29,23.69-29.55,20.46,25.05,36.76,16.64,32.78-23.34,33.29-29.52h0Z"/>
          <path class="cls-5" d="M452.89,208.75c-2.52,.49-18.7-15.7-18.7-15.7l-8.24,25.75s8.24,37.08-5.67,36.05c-13.91-1.03-16.52-10.82-15.99-12.36s-3.07-26.81-3.07-26.81v-20.06s8.76-41.72,17-43.27,39.73,8.96,41.24,22.77,8.01,30.79-6.57,33.63h0Z"/>
          <path class="cls-21" d="M516.33,122.63s-33.43-.51-41.72,17-30.6,69.72-29.8,76.7c.8,6.98-2.97,55.06,31.95,86.53,0,0,14.84,38.42,35.7,43.83l62.58,338.4s133.66-21.63,125.93-54.08-116.66-315.99-118.98-326.04-25.5-148.34-32.45-156.06-19.9-27.37-33.22-26.27h0Z"/>
          <path class="cls-21" d="M521.36,122.59l-46.74-42.45s-40.95-25.88-42.49-25.88-40.95-15.07-46.36-8.5-5.41,11.98,2.7,15.84c8.11,3.86,37.86,18.93,39.4,20.09s28.2,20.47,29.36,23.18c1.16,2.7,17.38,52.92,46.74,40.56,29.36-12.36,17.38-22.84,17.38-22.84h0Z"/>
          <path class="cls-3" d="M403.42,232.24s5.05-.8,5.05-.01,.72,14.82,.5,16.46c-.4,2.98-2.97,4.86-3.72,3.97s-1.83-20.42-1.83-20.42h0Z"/>
          <path class="cls-3" d="M420.17,257.07s7.29,12.35,6.84,12.5-2.83,.6-4.02-1.04-6.01-10.26-6.01-10.26c0,0-.39-3.87,3.18-1.19h0Z"/>
          <path class="cls-17" d="M364.75,201.3c4.99,2.67,21.14,9.12,21.14,9.12l7.43-9.12h-28.56Z"/>
          <path class="cls-16" d="M434.38,198.01l-33.85,3.29s23.5,14.86,25.29,15.01,20.73,6.87,20.73,6.87c0,0-3.03-10.29-2.29-11.18s3.02-6.14,3.02-6.14l-13.12-12.81,.2,4.96h0Z"/>
          <path class="cls-2" d="M450.68,65.18c3.95-.48,30,20.48,30,20.48l38.79,36.94c11.4,3.03,21.96,14.77,28.26,24.33,6.45,9.79,6.91,22.22,9.16,33.38,2.78,13.79,5.56,27.57,8.33,41.36,5.59,27.77,11.19,55.54,16.78,83.31l110.26,298.82"/>
          <path class="cls-5" d="M449.26,97.76l7.97,7.1s4.81,21.81,21.33,35.71"/>
          <path class="cls-5" d="M457.74,105.52s-.45-6.62,3.57-9.78"/>
          <line class="cls-5" x1="468.7" y1="129.76" x2="449.26" y2="121.89"/>
          <path class="cls-5" d="M497.91,168.16s-9.37,8.86-4.61,18.26"/>
          <path class="cls-5" d="M541.8,153.63s3.38,2.02,3.38,8.52"/>
          <path class="cls-5" d="M476.77,302.86s11.23,33.56,34.41,43.45"/>
          <line class="cls-2" x1="558.5" y1="595.6" x2="511.18" y2="334.48"/>
          <path class="cls-6" d="M-42.83,385.25s-3.19,6.41,40.64,2.84c0,0,77.41,1.36,73.24-6.17,0,0,1.85-5.92-6-6.86-17.96-2.14-105.52,4.93-106.51,7-.99,2.07-2.54,2.92-1.37,3.19h0Z"/>
          <path class="cls-15" d="M125.37,219.51l17.67,4.64s2.88,5.67,3.5,8.24-11.23,13.95-8.14,22.17,12.36,15.43,15.97,11.83c3.61-3.61,19.61-29.36,19.59-36.57s-.54-41.72-5.17-48.42c-4.64-6.7-19.68-19.06-35.34-9.79-15.66,9.27-19.78,10.82-20.81,18.03s12.72,29.87,12.72,29.87h0Z"/>
          <path class="cls-20" d="M83.81,141.22s79.02-34.47,84.47-30.9,44.81,91.68,46.36,93.74-11,14.94-18.38,10.3-18.71-24.34-18.71-30.71-23.69-21.29-23.69-29.55-20.46,25.05-36.76,16.64c-16.3-8.4-32.78-23.34-33.29-29.52Z"/>
          <path class="cls-20" d="M125.37,208.43c2.52,.49,18.7-15.7,18.7-15.7l8.24,25.75s-8.24,37.08,5.67,36.05c13.91-1.03,16.52-10.82,15.99-12.36s3.07-26.81,3.07-26.81v-20.06s-8.76-41.72-17-43.27-39.73,8.96-41.24,22.77-8.01,30.79,6.57,33.63h0Z"/>
          <path class="cls-5" d="M122,179.27c-6.45,3.99-8.64,6.27-9.35,11.25-1.03,7.21,12.72,29.87,12.72,29.87l17.67,4.64s2.88,5.67,3.5,8.24-11.23,13.95-8.14,22.17c3.09,8.22,12.36,15.43,15.97,11.83,1.23-1.23,3.9-5.03,6.89-9.8"/>
          <path class="cls-5" d="M83.81,142.1s79.02-34.47,84.47-30.9,44.81,91.68,46.36,93.74-11,14.94-18.38,10.3-18.71-24.34-18.71-30.71-23.69-21.29-23.69-29.55-20.46,25.05-36.76,16.64c-16.3-8.4-32.78-23.34-33.29-29.52Z"/>
          <path class="cls-5" d="M125.37,209.31c2.52,.49,18.7-15.7,18.7-15.7l8.24,25.75s-8.24,37.08,5.67,36.05c13.91-1.03,16.52-10.82,15.99-12.36s3.07-26.81,3.07-26.81v-20.06s-8.76-41.72-17-43.27-39.73,8.96-41.24,22.77-8.01,30.79,6.57,33.63h0Z"/>
          <path class="cls-21" d="M61.92,123.2s33.43-.51,41.72,17c8.29,17.51,30.6,69.72,29.8,76.7s2.97,55.06-31.95,86.53c0,0-14.84,38.42-35.7,43.83L3.2,685.65s-133.66-21.63-125.93-54.08C-115.01,599.12-6.07,315.57-3.76,305.53c2.32-10.04,25.5-148.34,32.45-156.06,6.95-7.73,19.9-27.37,33.22-26.27Z"/>
          <path class="cls-21" d="M56.89,123.15l46.74-42.45s40.95-25.88,42.49-25.88,40.95-15.07,46.36-8.5,5.41,11.98-2.7,15.84c-8.11,3.86-37.86,18.93-39.4,20.09s-28.2,20.47-29.36,23.18c-1.16,2.7-17.38,52.92-46.74,40.56s-17.38-22.84-17.38-22.84h0Z"/>
          <path class="cls-3" d="M174.83,232.8s-5.05-.8-5.05-.01-.72,14.82-.5,16.46c.4,2.98,2.97,4.86,3.72,3.97s1.83-20.42,1.83-20.42h0Z"/>
          <path class="cls-3" d="M158.08,257.63s-7.29,12.35-6.84,12.5,2.83,.6,4.02-1.04,6.01-10.26,6.01-10.26c0,0,.39-3.87-3.18-1.19Z"/>
          <path class="cls-17" d="M213.5,201.86c-4.99,2.67-21.14,9.12-21.14,9.12l-7.43-9.12h28.56Z"/>
          <path class="cls-16" d="M143.87,198.57l33.85,3.29s-23.5,14.86-25.29,15.01-20.73,6.87-20.73,6.87c0,0,3.03-10.29,2.29-11.18-.74-.89-3.02-6.14-3.02-6.14l13.12-12.81-.2,4.96h0Z"/>
          <rect class="cls-10" x="153.68" y="36.28" width="34.96" height="16.76" rx="1.22" ry="1.22"/>
          <rect class="cls-10" x="191.91" y="36.28" width="34.96" height="16.76" rx="1.22" ry="1.22"/>
          <rect class="cls-10" x="246.06" y="36.28" width="34.96" height="16.76" rx="1.22" ry="1.22"/>
          <rect class="cls-4" x="128.99" y="39.41" width="339.18" height="162.45" rx="6.35" ry="6.35"/>
          <rect class="cls-13" x="143.87" y="44.66" width="317.01" height="151.24" rx="3.25" ry="3.25"/>
          <path class="cls-13" d="M136.89,88.84h0c1.23,0,2.23,1,2.23,2.23v52.76c0,1.23-1,2.23-2.23,2.23h0c-1.23,0-2.23-1-2.23-2.23v-52.76c0-1.23,1-2.23,2.23-2.23Z"/>
          <circle class="cls-13" cx="136.43" cy="72.01" r="2.81"/>
          <g class="cls-14">
            <path class="cls-18" d="M201.94,76.25v7.09h-.05s-.03,0-.05,0h-.05s-.03,0-.05,0h-.1s-.03,0-.05,0h-.1s-.03,0-.05,0h-.1s-.03,0-.05,0h-.15s-.03,0-.05,0h-.1s-.03,0-.05,0h-.15s-.03,0-.05,0h-.2s-.03,0-.05,0h-.15s-.03,0-.05,0h-.2s-.03,0-.05,0h-.26s-.03,0-.05,0h-.26s-.03,0-.05,0h-.36s-.03,0-.05,0h-.52s-.04,0-.05,0h-.8s-.04,0-.05,0h-2.43v21h-7.06v-13.68h-14.04v20.57h-6.89v-13.58h-7.02v13.46h-7.02v-13.48h-6.88v6.51h-4.66V485.39h4.19v-13.54h6.89v6.87h35.11s0,.04,0,.05c0,.02,0,.04,0,.05,0,.02,0,.04,0,.05,0,.02,0,.04,0,.05,0,.02,0,.04,0,.05,0,.02,0,.04,0,.05s0,.04,0,.05,0,.04,0,.05c0,.02,0,.04,0,.05,0,.02,0,.04,0,.05,0,.02,0,.04,0,.05,0,.02,0,.04,0,.05,0,.02,0,.04,0,.05,0,.02,0,.04,0,.05,0,.02,0,.04,0,.05,0,.02,0,.04,0,.05s0,.04,0,.05,0,.04,0,.05c0,.02,0,.04,0,.05,0,.02,0,.04,0,.05,0,.02,0,.04,0,.05,0,.02,0,.04,0,.05,0,.02,0,.04,0,.05,0,.02,0,.04,0,.05,0,.02,0,.04,0,.05,0,.02,0,.04,0,.05,0,.02,0,.04,0,.05,0,.02,0,.04,0,.05,0,.02,0,.04,0,.05,0,.02,0,.04,0,.05,0,.02,0,.04,0,.05s0,.04,0,.05c0,.02,0,.04,0,.05s0,.04,0,.05c0,.02,0,.04,0,.05,0,.02,0,.04,0,.05s0,.04,0,.05c0,.02,0,.04,0,.05s0,.04,0,.05c0,.02,0,.04,0,.05,0,.02,0,.04,0,.05,0,.02,0,.04,0,.05,0,.02,0,.04,0,.05,0,.02,0,.04,0,.05s0,.04,0,.05c0,.02,0,.04,0,.05,0,.02,0,.04,0,.05,0,.02,0,.04,0,.05,0,.02,0,.04,0,.05,0,.02,0,.04,0,.05,0,.02,0,.04,0,.05s0,.04,0,.05,0,.04,0,.05,0,.04,0,.05c0,.02,0,.04,0,.05s0,.04,0,.05,0,.04,0,.05,0,.04,0,.05,0,.04,0,.05,0,.04,0,.05v.05s0,.04,0,.05,0,.04,0,.05,0,.04,0,.05,0,.04,0,.05v.05s0,.04,0,.05,0,.04,0,.05c0,.02,0,.04,0,.05s0,.04,0,.05v.05s0,.04,0,.05c0,.02,0,.04,0,.05s0,.04,0,.05c0,.02,0,.04,0,.05s0,.04,0,.05,0,.04,0,.05,0,.04,0,.05c0,.02,0,.04,0,.05,0,.02,0,.04,0,.05v.05s0,.04,0,.05c0,.02,0,.04,0,.05,0,.02,0,.04,0,.05,0,.02,0,.04,0,.05,0,.02,0,.04,0,.05,0,.02,0,.04,0,.05,0,.02,0,.04,0,.05,0,.02,0,.04,0,.05,0,.02,0,.04,0,.05s0,.04,0,.05,0,.04,0,.05c0,.02,0,.04,0,.05s0,.04,0,.05,0,.04,0,.05c0,.02,0,.04,0,.05s0,.04,0,.05,0,.04,0,.05c0,.02,0,.04,0,.05s0,.04,0,.05,0,.04,0,.05c0,.02,0,.04,0,.05s0,.04,0,.05,0,.04,0,.05c0,.02,0,.04,0,.05s0,.04,0,.05c0,.02,0,.04,0,.05,0,.02,0,.04,0,.05,0,.02,0,.04,0,.05,0,.02,0,.04,0,.05,0,.02,0,.04,0,.05,0,.02,0,.04,0,.05,0,.02,0,.04,0,.05,0,.02,0,.04,0,.05s0,.04,0,.05c0,.02,0,.04,0,.05,0,.02,0,.04,0,.05,0,.02,0,.04,0,.05s0,.04,0,.05c0,.02,0,.04,0,.05,0,.02,0,.04,0,.05,0,.02,0,.04,0,.05,0,.02,0,.04,0,.05s0,.04,0,.05v.05s0,.04,0,.05c0,.02,0,.04,0,.05,0,.02,0,.04,0,.05h.05s.04,0,.05,0h.05s.04,0,.05,0,.04,0,.05,0c.02,0,.04,0,.05,0h.05s.04,0,.05,0,.04,0,.05,0h.05s.04,0,.05,0c.02,0,.04,0,.05,0,.02,0,.04,0,.05,0,.02,0,.04,0,.05,0s.04,0,.05,0,.04,0,.05,0c.02,0,.04,0,.05,0,.02,0,.04,0,.05,0h.05s.04,0,.05,0h.05s.04,0,.05,0c.02,0,.04,0,.05,0,.02,0,.04,0,.05,0,.02,0,.04,0,.05,0h.05s.04,0,.05,0,.04,0,.05,0,.04,0,.05,0,.04,0,.05,0c.02,0,.04,0,.05,0s.04,0,.05,0c.02,0,.04,0,.05,0s.04,0,.05,0c.02,0,.04,0,.05,0,.02,0,.04,0,.05,0,.02,0,.04,0,.05,0s.04,0,.05,0c.02,0,.04,0,.05,0s.04,0,.05,0c.02,0,.04,0,.05,0,.02,0,.04,0,.05,0,.02,0,.04,0,.05,0s.04,0,.05,0,.04,0,.05,0,.04,0,.05,0c.02,0,.04,0,.05,0s.04,0,.05,0,.04,0,.06,0,.04,0,.06,0c.02,0,.04,0,.06,0,.02,0,.04,0,.06,0s.04,0,.06,0,.04,0,.06,0c.02,0,.04,0,.06,0s.04,0,.06,0c.02,0,.04,0,.06,0s.04,0,.06,0c.02,0,.04,0,.06,0s.04,0,.06,0c.02,0,.04,0,.06,0,.02,0,.04,0,.06,0s.04,0,.06,0,.04,0,.06,0c.02,0,.04,0,.06,0,.02,0,.04,0,.06,0s.04,0,.06,0c.02,0,.04,0,.06,0,.02,0,.04,0,.06,0,.02,0,.04,0,.06,0s.04,0,.06,0c.02,0,.04,0,.06,0,.02,0,.04,0,.06,0,.02,0,.04,0,.06,0h.06s.04,0,.06,0,.04,0,.06,0,.04,0,.06,0h.06s.04,0,.06,0,.04,0,.06,0h.06s.04,0,.06,0,.04,0,.06,0h.06s.04,0,.06,0h.06s.04,0,.06,0h.06s.04,0,.06,0h.11s.04,0,.06,0h.11s.04,0,.06,0h.11s.04,0,.06,0h.23s.04,0,.06,0h.34s.04,0,.06,0h.99v-6.77h13.77s0-.04,0-.06,0-.04,0-.06,0-.04,0-.06,0-.04,0-.06,0-.04,0-.06c0-.02,0-.04,0-.06,0-.02,0-.04,0-.06,0-.02,0-.04,0-.06,0-.02,0-.04,0-.06,0-.02,0-.04,0-.06,0-.02,0-.04,0-.06s0-.04,0-.06c0-.02,0-.04,0-.06,0-.02,0-.04,0-.06s0-.04,0-.06c0-.02,0-.04,0-.06,0-.02,0-.04,0-.06s0-.04,0-.05,0-.04,0-.05v-.05s0-.04,0-.05,0-.04,0-.05c0-.02,0-.04,0-.05,0-.02,0-.04,0-.05,0-.02,0-.04,0-.05,0-.02,0-.04,0-.05,0-.02,0-.04,0-.05,0-.02,0-.04,0-.05,0-.02,0-.04,0-.05,0-.02,0-.04,0-.05s0-.04,0-.05,0-.04,0-.05,0-.04,0-.05c0-.02,0-.04,0-.05s0-.04,0-.05v-.05s0-.04,0-.05c0-.02,0-.04,0-.05,0-.02,0-.04,0-.05,0-.02,0-.04,0-.05,0-.02,0-.04,0-.05v-.05s0-.04,0-.05v-.05s0-.04,0-.05c0-.02,0-.04,0-.05v-.05s0-.04,0-.05,0-.04,0-.05v-.05s0-.04,0-.05c0-.02,0-.04,0-.05s0-.04,0-.05v-.05s0-.04,0-.05,0-.04,0-.05c0-.02,0-.04,0-.05v-.05s0-.04,0-.05c0-.02,0-.04,0-.05,0-.02,0-.04,0-.05,0-.02,0-.04,0-.05,0-.02,0-.04,0-.05,0-.02,0-.04,0-.05,0-.02,0-.04,0-.05,0-.02,0-.04,0-.05,0-.02,0-.04,0-.05v-.05s0-.04,0-.05v-.05s0-.04,0-.05c0-.02,0-.04,0-.05,0-.02,0-.04,0-.05,0-.02,0-.04,0-.05,0-.02,0-.04,0-.05,0-.02,0-.04,0-.05,0-.02,0-.04,0-.05,0-.02,0-.04,0-.05v-.05s0-.04,0-.05c0-.02,0-.04,0-.05s0-.04,0-.05,0-.04,0-.05c0-.02,0-.04,0-.05,0-.02,0-.04,0-.05,0-.02,0-.04,0-.05v-.05s0-.04,0-.05c0-.02,0-.04,0-.05v-.05s0-.04,0-.05c0-.02,0-.04,0-.05v-.05s0-.04,0-.05c0-.02,0-.04,0-.05s0-.04,0-.05c0-.02,0-.04,0-.05,0-.02,0-.04,0-.05,0-.02,0-.04,0-.05,0-.02,0-.04,0-.05v-.05s0-.05,0-.05c0-.02,0-.04,0-.05,0-.02,0-.04,0-.05s0-.04,0-.05c0-.02,0-.04,0-.05s0-.04,0-.05c0-.02,0-.04,0-.05,0-.02,0-.04,0-.05s0-.04,0-.05c0-.02,0-.04,0-.05,0-.02,0-.04,0-.05,0-.02,0-.04,0-.05,0-.02,0-.04,0-.05,0-.02,0-.04,0-.05v-.05s0-.04,0-.05,0-.04,0-.05,0-.04,0-.05,0-.04,0-.06,0-.04,0-.06c0-.02,0-.04,0-.06s0-.04,0-.06,0-.04,0-.06,0-.04,0-.06c0-.02,0-.04,0-.06s0-.04,0-.06c0-.02,0-.04,0-.06h6.69v-13.89h7.04v6.56h7.08v7.13h-6.68v7.11h6.68v6.88h13.99s0-.07,0-.11c0-.04,0-.07,0-.11s0-.07,0-.11c0-.04,0-.07,0-.11s0-.07,0-.11c0-.04,0-.07,0-.11s0-.07,0-.11c0-.04,0-.07,0-.11s0-.07,0-.11c0-.04,0-.07,0-.11s0-.07,0-.11c0-.04,0-.07,0-.11,0-.04,0-.07,0-.11s0-.07,0-.11c0-.04,0-.07,0-.11s0-.07,0-.11c0-.04,0-.07,0-.11,0-.04,0-.07,0-.11,0-.04,0-.07,0-.11v-.11s0-.07,0-.11,0-.07,0-.11c0-.04,0-.07,0-.11s0-.07,0-.11c0-.04,0-.07,0-.11,0-.04,0-.07,0-.11,0-.04,0-.07,0-.11s0-.07,0-.11c0-.04,0-.07,0-.11s0-.07,0-.11c0-.04,0-.07,0-.11s0-.07,0-.11c0-.04,0-.07,0-.11s0-.07,0-.11c0-.04,0-.07,0-.11s0-.07,0-.11c0-.04,0-.07,0-.11,0-.04,0-.07,0-.11,0-.04,0-.07,0-.11,0-.04,0-.07,0-.11,0-.04,0-.07,0-.11,0-.04,0-.07,0-.11v-.11s0-.07,0-.11,0-.07,0-.11c0-.04,0-.07,0-.11,0-.04,0-.07,0-.11,0-.04,0-.07,0-.11s0-.07,0-.11c0-.04,0-.07,0-.11s0-.07,0-.11c0-.04,0-.07,0-.11s0-.07,0-.11c0-.04,0-.07,0-.11s0-.07,0-.11c0-.04,0-.07,0-.11s0-.07,0-.11c0-.04,0-.07,0-.11s0-.07,0-.11c0-.04,0-.07,0-.11,0-.04,0-.07,0-.11,0-.04,0-.07,0-.11v-.11s0-.07,0-.11,0-.07,0-.11c0-.04,0-.07,0-.11v-.11s0-.07,0-.11c0-.04,0-.07,0-.11s0-.07,0-.11c0-.04,0-.07,0-.11s0-.07,0-.11c0-.04,0-.07,0-.11s0-.07,0-.11c0-.04,0-.07,0-.11,0-.04,0-.07,0-.11,0-.04,0-.07,0-.11,0-.04,0-.07,0-.11,0-.04,0-.07,0-.11v-.11s0-.07,0-.11c0-.04,0-.07,0-.11,0-.04,0-.07,0-.11,0-.04,0-.07,0-.11s0-.07,0-.11c0-.04,0-.07,0-.11s0-.07,0-.11c0-.04,0-.07,0-.11,0-.04,0-.07,0-.11,0-.04,0-.07,0-.11,0-.04,0-.07,0-.11,0-.04,0-.07,0-.11,0-.04,0-.07,0-.11,0-.04,0-.07,0-.11s0-.07,0-.11c0-.04,0-.07,0-.11,0-.04,0-.07,0-.11,0-.04,0-.07,0-.11,0-.04,0-.07,0-.11s0-.07,0-.11c0-.04,0-.07,0-.11v-.11s0-.07,0-.11c0-.04,0-.07,0-.11v-.11s0-.07,0-.11c0-.04,0-.07,0-.11s0-.07,0-.11c0-.04,0-.07,0-.11,0-.04,0-.07,0-.11,0-.04,0-.07,0-.11s0-.07,0-.11c0-.04,0-.07,0-.11,0-.04,0-.07,0-.11s0-.07,0-.11c0-.04,0-.07,0-.11v-.11s0-.07,0-.11c0-.04,0-.07,0-.11,0-.04,0-.07,0-.11s0-.07,0-.11c0-.04,0-.07,0-.11,0-.04,0-.07,0-.11v-.11s0-.07,0-.11c0-.04,0-.07,0-.11,0-.04,0-.07,0-.11v-.11h6.9v6.68h7.11v-6.68h7v-7h6.86v13.74h6.89v-6.7h21.18v-14.18h6.81s0,.07,0,.11,0,.07,0,.11c0,.04,0,.07,0,.11v.11s0,.07,0,.11c0,.04,0,.07,0,.11,0,.04,0,.07,0,.11s0,.07,0,.11v.11s0,.07,0,.11v.11s0,.07,0,.11c0,.04,0,.07,0,.11s0,.07,0,.11,0,.07,0,.11v.11s0,.07,0,.11c0,.04,0,.07,0,.11,0,.04,0,.07,0,.11v.11s0,.07,0,.11c0,.04,0,.07,0,.11,0,.04,0,.07,0,.11,0,.04,0,.07,0,.11,0,.04,0,.07,0,.11s0,.07,0,.11v.11s0,.07,0,.11c0,.04,0,.07,0,.11,0,.04,0,.07,0,.11v.11s0,.07,0,.11c0,.04,0,.07,0,.11v.11s0,.07,0,.11,0,.07,0,.11v.11s0,.07,0,.11,0,.07,0,.11c0,.04,0,.07,0,.11,0,.04,0,.07,0,.11,0,.04,0,.07,0,.11,0,.04,0,.07,0,.11s0,.07,0,.11c0,.04,0,.07,0,.11,0,.04,0,.07,0,.11,0,.04,0,.07,0,.11,0,.04,0,.07,0,.11,0,.04,0,.07,0,.11,0,.04,0,.07,0,.11,0,.04,0,.07,0,.11s0,.07,0,.11,0,.07,0,.11,0,.07,0,.11c0,.04,0,.07,0,.11,0,.04,0,.07,0,.11,0,.04,0,.07,0,.11s0,.07,0,.11c0,.04,0,.07,0,.11,0,.04,0,.07,0,.11s0,.07,0,.11c0,.04,0,.07,0,.11s0,.07,0,.11c0,.04,0,.07,0,.11s0,.07,0,.11c0,.04,0,.07,0,.11,0,.04,0,.07,0,.11s0,.07,0,.11c0,.04,0,.07,0,.11s0,.07,0,.11c0,.04,0,.07,0,.11,0,.04,0,.07,0,.11,0,.04,0,.07,0,.11,0,.04,0,.07,0,.11,0,.04,0,.07,0,.11,0,.04,0,.07,0,.11,0,.04,0,.07,0,.11,0,.04,0,.07,0,.11s0,.07,0,.11,0,.07,0,.11v.11s0,.07,0,.11,0,.07,0,.11,0,.07,0,.11v.11s0,.07,0,.11v.11s0,.07,0,.11v.11s0,.07,0,.11v.11s0,.07,0,.11v.11s0,.07,0,.11v.22s0,.07,0,.11v.22s0,.07,0,.11v.33s0,.07,0,.11v.56s0,.07,0,.11v2.04h14.08v6.98h7.03v-6.59h7.19v-7.11h6.83v6.9h21.33v14.11s.07,0,.11,0,.07,0,.11,0c.04,0,.07,0,.11,0,.04,0,.07,0,.11,0s.07,0,.11,0c.04,0,.07,0,.11,0,.04,0,.07,0,.11,0s.07,0,.11,0,.07,0,.11,0c.04,0,.07,0,.11,0s.07,0,.11,0,.07,0,.11,0c.04,0,.07,0,.11,0,.04,0,.07,0,.11,0,.04,0,.07,0,.11,0h.11s.07,0,.11,0,.07,0,.11,0c.04,0,.07,0,.11,0,.04,0,.07,0,.11,0,.04,0,.07,0,.11,0s.07,0,.11,0c.04,0,.07,0,.11,0s.07,0,.11,0,.07,0,.11,0c.04,0,.07,0,.11,0s.07,0,.11,0c.04,0,.07,0,.11,0s.07,0,.11,0,.07,0,.11,0,.07,0,.11,0,.07,0,.11,0,.07,0,.11,0,.07,0,.11,0,.07,0,.11,0,.07,0,.11,0h.11s.07,0,.11,0,.07,0,.11,0c.04,0,.07,0,.11,0,.04,0,.07,0,.11,0,.04,0,.07,0,.11,0,.04,0,.07,0,.11,0h.11s.07,0,.11,0c.04,0,.07,0,.11,0s.07,0,.11,0c.04,0,.07,0,.11,0h.11s.07,0,.11,0h.11s.07,0,.11,0h.11s.07,0,.11,0,.07,0,.11,0h.11s.07,0,.11,0,.07,0,.11,0c.04,0,.07,0,.11,0s.07,0,.11,0c.04,0,.07,0,.11,0s.07,0,.11,0,.07,0,.11,0,.07,0,.11,0,.07,0,.11,0,.07,0,.11,0c.04,0,.07,0,.11,0,.04,0,.07,0,.11,0s.07,0,.11,0,.07,0,.11,0,.07,0,.11,0c.04,0,.07,0,.11,0,.04,0,.07,0,.11,0,.04,0,.07,0,.11,0,.04,0,.07,0,.11,0,.04,0,.07,0,.11,0,.04,0,.07,0,.11,0,.04,0,.07,0,.11,0,.04,0,.07,0,.11,0s.07,0,.11,0,.07,0,.11,0c.04,0,.07,0,.11,0,.04,0,.07,0,.11,0,.04,0,.07,0,.11,0,.04,0,.07,0,.11,0,.04,0,.07,0,.11,0s.07,0,.11,0,.07,0,.11,0c.04,0,.07,0,.11,0,.04,0,.07,0,.11,0,.04,0,.07,0,.11,0s.07,0,.11,0,.07,0,.11,0,.07,0,.11,0,.07,0,.11,0,.07,0,.11,0,.07,0,.11,0,.07,0,.11,0,.07,0,.11,0,.07,0,.11,0c.04,0,.07,0,.11,0,.04,0,.07,0,.11,0s.07,0,.11,0,.07,0,.11,0,.07,0,.11,0c.04,0,.07,0,.11,0,.04,0,.07,0,.11,0s.07,0,.11,0,.07,0,.11,0c.04,0,.07,0,.11,0,.04,0,.07,0,.11,0s.07,0,.11,0c.04,0,.07,0,.11,0s.07,0,.11,0,.07,0,.11,0c.04,0,.07,0,.11,0s.07,0,.11,0c.04,0,.07,0,.11,0s.07,0,.11,0,.07,0,.11,0c.04,0,.07,0,.11,0,.04,0,.07,0,.11,0,.04,0,.07,0,.11,0s.07,0,.11,0c.04,0,.07,0,.11,0s.07,0,.11,0c.04,0,.07,0,.11,0s.07,0,.11,0c0,.02,0,.04,0,.05v.05s0,.04,0,.05c0,.02,0,.04,0,.05s0,.04,0,.05v.05s0,.04,0,.05c0,.02,0,.04,0,.05s0,.04,0,.05c0,.02,0,.04,0,.05,0,.02,0,.04,0,.05s0,.04,0,.05v.05s0,.04,0,.05,0,.04,0,.05,0,.04,0,.05c0,.02,0,.04,0,.05,0,.02,0,.04,0,.05s0,.04,0,.05v.05s0,.04,0,.05c0,.02,0,.04,0,.05v.05s0,.04,0,.05,0,.04,0,.05c0,.02,0,.04,0,.05,0,.02,0,.04,0,.05s0,.04,0,.05v.05s0,.04,0,.05c0,.02,0,.04,0,.05v.05s0,.04,0,.05,0,.04,0,.05c0,.02,0,.04,0,.05s0,.04,0,.05,0,.04,0,.05v.05s0,.04,0,.05v.05s0,.04,0,.05c0,.02,0,.04,0,.05s0,.04,0,.05c0,.02,0,.04,0,.05s0,.04,0,.05c0,.02,0,.04,0,.05s0,.04,0,.05,0,.04,0,.05v.05s0,.04,0,.05v.05s0,.04,0,.05c0,.02,0,.04,0,.05,0,.02,0,.04,0,.05,0,.02,0,.04,0,.05s0,.04,0,.05v.05s0,.04,0,.05v.05s0,.04,0,.05c0,.02,0,.04,0,.05,0,.02,0,.04,0,.05,0,.02,0,.04,0,.05s0,.04,0,.05c0,.02,0,.04,0,.05s0,.04,0,.05v.05s0,.04,0,.05,0,.04,0,.05c0,.02,0,.04,0,.05,0,.02,0,.04,0,.05s0,.04,0,.05c0,.02,0,.04,0,.05s0,.04,0,.05v.05s0,.04,0,.05c0,.02,0,.04,0,.05,0,.02,0,.04,0,.05,0,.02,0,.04,0,.05s0,.04,0,.05c0,.02,0,.04,0,.05s0,.04,0,.05v.05s0,.04,0,.05,0,.04,0,.05c0,.02,0,.04,0,.05,0,.02,0,.04,0,.05s0,.04,0,.05v.05s0,.04,0,.05v.05s0,.04,0,.05c0,.02,0,.04,0,.05s0,.04,0,.05c0,.02,0,.04,0,.05s0,.04,0,.05v.05s0,.04,0,.05c0,.02,0,.04,0,.05,0,.02,0,.04,0,.05,0,.02,0,.04,0,.05s0,.04,0,.05v.05s0,.04,0,.05,0,.04,0,.05c0,.02,0,.04,0,.05,0,.02,0,.04,0,.05s0,.04,0,.05v.05s0,.04,0,.05,0,.04,0,.05v.05s0,.04,0,.05c0,.02,0,.04,0,.05s0,.04,0,.05v.05s0,.04,0,.05,0,.04,0,.05c0,.02,0,.04,0,.05,0,.02,0,.04,0,.05s0,.04,0,.05c0,.02,0,.04,0,.05,0,.02,0,.04,0,.05,0,.02,0,.04,0,.05s0,.04,0,.05,0,.04,0,.05c0,.02,0,.04,0,.05,0,.02,0,.04,0,.05h6.99v-6.88h.11s.11,0,.11,0h.11s.11,0,.11,0h.11s.11,0,.11,0h.11s.11,0,.11,0h.11s.11,0,.11,0h.11s.11,0,.11,0h.11s.11,0,.11,0h.11s.11,0,.11,0h.11s.11,0,.11,0h.11s.11,0,.11,0h.11s.11,0,.11,0h.11s.11,0,.11,0h.11s.11,0,.11,0h.11s.11,0,.11,0h.11s.11,0,.11,0h.11s.11,0,.11,0h.11s.11,0,.11,0h.11s.11,0,.11,0h.11s.11,0,.11,0h.11s.11,0,.11,0h.11s.11,0,.11,0h.11s.11,0,.11,0h.11s.11,0,.11,0h.11s.11,0,.11,0h.11s.11,0,.11,0h.11s.11,0,.11,0h.11s.11,0,.11,0h.11s.11,0,.11,0h.11s.11,0,.11,0h.11s.11,0,.11,0h.11s.11,0,.11,0h.11s.11,0,.11,0h.11s.11,0,.11,0h.11s.11,0,.11,0h.11s.11,0,.11,0h.11s.11,0,.11,0h.11s.11,0,.11,0h.11s.11,0,.11,0h.11s.11,0,.11,0h.11s.11,0,.11,0h.11s.11,0,.11,0h.11s.11,0,.11,0h.11s.11,0,.11,0h.11s.11,0,.11,0h.11s.11,0,.11,0h.11s.11,0,.11,0h.11s.11,0,.11,0h.11s.11,0,.11,0h.11s.11,0,.11,0h.11s.11,0,.11,0h.11s.11,0,.11,0h.11s.11,0,.11,0h.11s.11,0,.11,0h.11s.11,0,.11,0h.11s.11,0,.11,0h.11s.11,0,.11,0h.11s.11,0,.11,0h.11s.11,0,.11,0h.11s.11,0,.11,0h.11s.11,0,.11,0h.11s.11,0,.11,0h.11s.11,0,.11,0h.11s.11,0,.11,0h.11s.11,0,.11,0v-6.83h6.85v-7.01h-6.49v-7.01h6.53s0-.04,0-.06,0-.04,0-.06,0-.04,0-.06,0-.04,0-.06c0-.02,0-.04,0-.06s0-.04,0-.06,0-.04,0-.06,0-.04,0-.06c0-.02,0-.04,0-.06,0-.02,0-.04,0-.06s0-.04,0-.06,0-.04,0-.06c0-.02,0-.04,0-.06,0-.02,0-.04,0-.06,0-.02,0-.04,0-.06s0-.04,0-.06c0-.02,0-.04,0-.06,0-.02,0-.04,0-.06s0-.04,0-.06c0-.02,0-.04,0-.06s0-.04,0-.06c0-.02,0-.04,0-.06,0-.02,0-.04,0-.06,0-.02,0-.04,0-.06,0-.02,0-.04,0-.06s0-.04,0-.06,0-.04,0-.06c0-.02,0-.04,0-.06,0-.02,0-.04,0-.06s0-.04,0-.06,0-.04,0-.06c0-.02,0-.04,0-.06s0-.04,0-.06c0-.02,0-.04,0-.05s0-.04,0-.05c0-.02,0-.04,0-.05s0-.04,0-.05,0-.04,0-.05,0-.04,0-.05,0-.04,0-.05,0-.04,0-.05c0-.02,0-.04,0-.05,0-.02,0-.04,0-.05,0-.02,0-.04,0-.05s0-.04,0-.05,0-.04,0-.05c0-.02,0-.04,0-.05v-.05s0-.04,0-.05c0-.02,0-.04,0-.05,0-.02,0-.04,0-.05s0-.04,0-.05c0-.02,0-.04,0-.05,0-.02,0-.04,0-.05,0-.02,0-.04,0-.05,0-.02,0-.04,0-.05,0-.02,0-.04,0-.05s0-.04,0-.05,0-.04,0-.05c0-.02,0-.04,0-.05s0-.04,0-.05c0-.02,0-.04,0-.05,0-.02,0-.04,0-.05,0-.02,0-.04,0-.05,0-.02,0-.04,0-.05,0-.02,0-.04,0-.05s0-.04,0-.05c0-.02,0-.04,0-.05s0-.04,0-.05c0-.02,0-.04,0-.05,0-.02,0-.04,0-.05,0-.02,0-.04,0-.05,0-.02,0-.04,0-.05v-.05s0-.04,0-.05c0-.02,0-.04,0-.05,0-.02,0-.04,0-.05,0-.02,0-.04,0-.05s0-.04,0-.05c0-.02,0-.04,0-.05,0-.02,0-.04,0-.05,0-.02,0-.04,0-.05,0-.02,0-.04,0-.05v-.05s0-.05,0-.05c0-.02,0-.04,0-.05,0-.02,0-.04,0-.05,0-.02,0-.03,0-.05,0-.02,0-.03,0-.05,0-.02,0-.03,0-.05,0-.02,0-.03,0-.05v-.05s0-.03,0-.05v-.05s0-.03,0-.05v-.05s0-.04,0-.05v-.05s0-.04,0-.05c0-.02,0-.04,0-.05v-.05s0-.05,0-.05c0-.02,0-.04,0-.05v-.05s0-.05,0-.05c0-.02,0-.04,0-.05,0-.02,0-.04,0-.05s0-.04,0-.05v-.05s0-.04,0-.05c0-.02,0-.04,0-.05s0-.04,0-.05v-.05s0-.04,0-.05c0-.02,0-.04,0-.05s0-.04,0-.05,0-.04,0-.05c0-.02,0-.04,0-.05,0-.02,0-.04,0-.05,0-.02,0-.04,0-.05,0-.02,0-.04,0-.05,0-.02,0-.04,0-.05,0-.02,0-.04,0-.05,0-.02,0-.04,0-.05,0-.02,0-.04,0-.05,0-.02,0-.04,0-.05,0-.02,0-.04,0-.05,0-.02,0-.04,0-.05h6.69v13.76h7.09v-6.83h6.87s0-.04,0-.06c0-.02,0-.04,0-.06,0-.02,0-.04,0-.06s0-.04,0-.06c0-.02,0-.04,0-.06,0-.02,0-.04,0-.06s0-.04,0-.06c0-.02,0-.04,0-.06,0-.02,0-.04,0-.06s0-.04,0-.06,0-.04,0-.06c0-.02,0-.04,0-.06s0-.04,0-.06,0-.04,0-.06c0-.02,0-.04,0-.06s0-.04,0-.06c0-.02,0-.04,0-.06,0-.02,0-.04,0-.06,0-.02,0-.04,0-.06,0-.02,0-.04,0-.06,0-.02,0-.04,0-.06,0-.02,0-.04,0-.06,0-.02,0-.04,0-.06,0-.02,0-.04,0-.06s0-.04,0-.06c0-.02,0-.04,0-.06,0-.02,0-.04,0-.06,0-.02,0-.04,0-.06,0-.02,0-.04,0-.06,0-.02,0-.04,0-.06,0-.02,0-.04,0-.06,0-.02,0-.04,0-.06,0-.02,0-.04,0-.06,0-.02,0-.04,0-.05,0-.02,0-.04,0-.05,0-.02,0-.04,0-.05s0-.04,0-.05c0-.02,0-.04,0-.05s0-.04,0-.05c0-.02,0-.04,0-.05s0-.04,0-.05v-.05s0-.04,0-.05,0-.04,0-.05c0-.02,0-.04,0-.05s0-.04,0-.05c0-.02,0-.04,0-.05s0-.04,0-.05v-.05s0-.04,0-.05v-.05s0-.05,0-.05c0-.02,0-.04,0-.05s0-.04,0-.05,0-.04,0-.05,0-.04,0-.05,0-.04,0-.05,0-.04,0-.05c0-.02,0-.04,0-.05,0-.02,0-.04,0-.05,0-.02,0-.04,0-.05,0-.02,0-.04,0-.05,0-.02,0-.04,0-.05s0-.04,0-.05c0-.02,0-.04,0-.05s0-.04,0-.05c0-.02,0-.04,0-.05,0-.02,0-.04,0-.05,0-.02,0-.04,0-.05,0-.02,0-.04,0-.05s0-.04,0-.05c0-.02,0-.04,0-.05,0-.02,0-.04,0-.05,0-.02,0-.04,0-.05s0-.04,0-.05,0-.04,0-.05c0-.02,0-.04,0-.05v-.05s0-.04,0-.05,0-.04,0-.05c0-.02,0-.04,0-.05v-.05s0-.04,0-.05c0-.02,0-.04,0-.05s0-.04,0-.05,0-.04,0-.05c0-.02,0-.04,0-.05,0-.02,0-.04,0-.05s0-.04,0-.05,0-.04,0-.05c0-.02,0-.04,0-.05,0-.02,0-.04,0-.05s0-.04,0-.05c0-.02,0-.04,0-.05v-.05s0-.05,0-.05c0-.02,0-.04,0-.05s0-.04,0-.05c0-.02,0-.04,0-.05s0-.04,0-.05,0-.04,0-.05,0-.04,0-.05v-.05s0-.04,0-.05c0-.02,0-.04,0-.05s0-.04,0-.05,0-.04,0-.05,0-.04,0-.05c0-.02,0-.04,0-.05,0-.02,0-.04,0-.05,0-.02,0-.04,0-.05,0-.02,0-.04,0-.05,0-.02,0-.04,0-.05,0-.02,0-.04,0-.05,0-.02,0-.04,0-.05,0-.02,0-.04,0-.05,0-.02,0-.04,0-.05s0-.04,0-.05c0-.02,0-.04,0-.05s0-.04,0-.05c0-.02,0-.04,0-.05s0-.04,0-.05v-.05s0-.04,0-.05,0-.04,0-.05c0-.02,0-.04,0-.05v-.05s0-.04,0-.05h6.65v6.7h6.98s0,.04,0,.06c0,.02,0,.04,0,.06,0,.02,0,.04,0,.06,0,.02,0,.04,0,.06,0,.02,0,.04,0,.06,0,.02,0,.04,0,.06,0,.02,0,.04,0,.06,0,.02,0,.04,0,.06s0,.04,0,.06c0,.02,0,.04,0,.06,0,.02,0,.04,0,.06s0,.04,0,.06c0,.02,0,.04,0,.06,0,.02,0,.04,0,.06s0,.04,0,.06v.06s0,.04,0,.06,0,.04,0,.06c0,.02,0,.04,0,.06,0,.02,0,.04,0,.06s0,.04,0,.06,0,.04,0,.06,0,.04,0,.06,0,.04,0,.06,0,.04,0,.06c0,.02,0,.04,0,.06s0,.04,0,.06c0,.02,0,.04,0,.06,0,.02,0,.04,0,.06,0,.02,0,.04,0,.06,0,.02,0,.04,0,.06s0,.04,0,.06c0,.02,0,.04,0,.06,0,.02,0,.04,0,.05,0,.02,0,.04,0,.05s0,.04,0,.05c0,.02,0,.04,0,.05,0,.02,0,.04,0,.05,0,.02,0,.04,0,.05,0,.02,0,.04,0,.05s0,.04,0,.05c0,.02,0,.04,0,.05,0,.02,0,.04,0,.05,0,.02,0,.04,0,.05,0,.02,0,.04,0,.05s0,.04,0,.05c0,.02,0,.04,0,.05s0,.04,0,.05c0,.02,0,.04,0,.05,0,.02,0,.04,0,.05s0,.04,0,.05c0,.02,0,.04,0,.05v.05s0,.04,0,.05c0,.02,0,.04,0,.05s0,.04,0,.05,0,.04,0,.05c0,.02,0,.04,0,.05s0,.04,0,.05c0,.02,0,.04,0,.05s0,.04,0,.05c0,.02,0,.04,0,.05s0,.04,0,.05c0,.02,0,.04,0,.05s0,.04,0,.05c0,.02,0,.04,0,.05,0,.02,0,.04,0,.05s0,.04,0,.05,0,.04,0,.05,0,.04,0,.05,0,.04,0,.05c0,.02,0,.04,0,.05,0,.02,0,.04,0,.05s0,.04,0,.05c0,.02,0,.04,0,.05s0,.04,0,.05,0,.04,0,.05c0,.02,0,.04,0,.05s0,.04,0,.05,0,.04,0,.05v.05s0,.04,0,.05c0,.02,0,.04,0,.05v.05s0,.04,0,.05v.05s0,.05,0,.05c0,.02,0,.04,0,.05v.05s0,.05,0,.05c0,.02,0,.04,0,.05v.05s0,.04,0,.05,0,.04,0,.05,0,.04,0,.05c0,.02,0,.04,0,.05,0,.02,0,.04,0,.05v.05s0,.04,0,.05c0,.02,0,.04,0,.05v.05s0,.04,0,.05,0,.04,0,.05c0,.02,0,.04,0,.05s0,.04,0,.05,0,.04,0,.05,0,.04,0,.05c0,.02,0,.04,0,.05,0,.02,0,.04,0,.05s0,.04,0,.05,0,.04,0,.05c0,.02,0,.04,0,.05s0,.04,0,.05c0,.02,0,.04,0,.05,0,.02,0,.04,0,.05,0,.02,0,.04,0,.05s0,.04,0,.05,0,.04,0,.05c0,.02,0,.04,0,.05,0,.02,0,.04,0,.05v.05s0,.04,0,.05c0,.02,0,.04,0,.05,0,.02,0,.04,0,.05s0,.04,0,.05v.05s0,.04,0,.05,0,.04,0,.05h6.65v-6.81h14.18v-166.58h-.08V104.34h-6.65v-6.85h6.73v-6.9h-6.86v-7.12h-6.82v-6.84h-6.91v13.71h6.53v7.01h-13.68v-7h-7v-13.67h-7.11v13.67h-6.85v6.91h-6.79v7.03h6.46v6.94h-13.62v-13.62s-.04,0-.06,0-.04,0-.06,0-.04,0-.06,0c-.02,0-.04,0-.06,0-.02,0-.04,0-.06,0-.02,0-.04,0-.06,0-.02,0-.04,0-.06,0-.02,0-.04,0-.06,0-.02,0-.04,0-.06,0s-.04,0-.06,0-.04,0-.06,0c-.02,0-.04,0-.06,0-.02,0-.04,0-.06,0-.02,0-.04,0-.06,0-.02,0-.04,0-.06,0s-.04,0-.06,0-.04,0-.06,0c-.02,0-.04,0-.06,0-.02,0-.04,0-.06,0-.02,0-.04,0-.06,0-.02,0-.04,0-.06,0-.02,0-.04,0-.06,0s-.04,0-.06,0c-.02,0-.04,0-.06,0s-.04,0-.06,0c-.02,0-.04,0-.06,0s-.04,0-.06,0c-.02,0-.04,0-.06,0-.02,0-.04,0-.06,0-.02,0-.04,0-.06,0-.02,0-.04,0-.06,0-.02,0-.04,0-.06,0s-.04,0-.06,0h-.06s-.04,0-.06,0c-.02,0-.04,0-.06,0-.02,0-.04,0-.06,0h-.05s-.04,0-.05,0c-.02,0-.04,0-.05,0-.02,0-.04,0-.05,0s-.04,0-.05,0-.04,0-.05,0-.04,0-.05,0c-.02,0-.04,0-.05,0-.02,0-.04,0-.05,0-.02,0-.04,0-.05,0-.02,0-.04,0-.05,0-.02,0-.04,0-.05,0-.02,0-.04,0-.05,0s-.04,0-.05,0c-.02,0-.04,0-.05,0-.02,0-.04,0-.05,0h-.05s-.04,0-.05,0c-.02,0-.04,0-.05,0s-.04,0-.05,0c-.02,0-.04,0-.05,0s-.04,0-.05,0h-.05s-.04,0-.05,0c-.02,0-.04,0-.05,0s-.04,0-.05,0-.04,0-.05,0c-.02,0-.04,0-.05,0-.02,0-.04,0-.05,0h-.05s-.04,0-.05,0c-.02,0-.04,0-.05,0-.02,0-.04,0-.05,0-.02,0-.04,0-.05,0-.02,0-.04,0-.05,0s-.04,0-.05,0-.04,0-.05,0c-.02,0-.04,0-.05,0-.02,0-.04,0-.05,0-.02,0-.04,0-.05,0h-.05s-.04,0-.05,0c-.02,0-.04,0-.05,0-.02,0-.04,0-.05,0s-.04,0-.05,0-.04,0-.05,0-.04,0-.05,0h-.05s-.04,0-.05,0c-.02,0-.04,0-.05,0-.02,0-.04,0-.05,0h-.05s-.04,0-.05,0-.04,0-.05,0c-.02,0-.04,0-.05,0s-.04,0-.05,0h-.05s-.04,0-.05,0c-.02,0-.04,0-.05,0s-.04,0-.05,0c-.02,0-.04,0-.05,0s-.04,0-.05,0c-.02,0-.04,0-.05,0s-.04,0-.05,0-.04,0-.05,0c-.02,0-.04,0-.05,0-.02,0-.04,0-.05,0-.02,0-.04,0-.05,0-.02,0-.04,0-.05,0-.02,0-.04,0-.05,0-.02,0-.04,0-.05,0-.02,0-.04,0-.05,0-.02,0-.04,0-.05,0-.02,0-.04,0-.05,0-.02,0-.04,0-.05,0s-.04,0-.05,0-.04,0-.05,0-.04,0-.05,0c-.02,0-.04,0-.05,0s-.04,0-.05,0-.04,0-.05,0c-.02,0-.04,0-.06,0h-.06s-.04,0-.06,0-.04,0-.06,0c-.02,0-.04,0-.06,0-.02,0-.04,0-.06,0-.02,0-.04,0-.06,0s-.04,0-.06,0c-.02,0-.04,0-.06,0-.02,0-.04,0-.06,0v-6.66h-7.19v-7.12h-6.84v13.9h-14v6.89h-13.92s0,.04,0,.06c0,.02,0,.04,0,.06s0,.04,0,.06c0,.02,0,.04,0,.06,0,.02,0,.04,0,.06,0,.02,0,.04,0,.06,0,.02,0,.04,0,.06s0,.04,0,.06c0,.02,0,.04,0,.06,0,.02,0,.04,0,.06,0,.02,0,.04,0,.06,0,.02,0,.04,0,.06,0,.02,0,.04,0,.06,0,.02,0,.04,0,.06,0,.02,0,.04,0,.06,0,.02,0,.04,0,.06,0,.02,0,.04,0,.06,0,.02,0,.04,0,.06,0,.02,0,.04,0,.06,0,.02,0,.04,0,.06,0,.02,0,.04,0,.06,0,.02,0,.04,0,.06,0,.02,0,.04,0,.06s0,.04,0,.06c0,.02,0,.04,0,.06v.06s0,.04,0,.06c0,.02,0,.04,0,.06,0,.02,0,.04,0,.06,0,.02,0,.04,0,.06,0,.02,0,.04,0,.06,0,.02,0,.04,0,.06,0,.02,0,.04,0,.06,0,.02,0,.04,0,.05,0,.02,0,.04,0,.05s0,.04,0,.05c0,.02,0,.04,0,.05,0,.02,0,.04,0,.05,0,.02,0,.04,0,.05,0,.02,0,.04,0,.05s0,.04,0,.05,0,.04,0,.05c0,.02,0,.04,0,.05,0,.02,0,.04,0,.05,0,.02,0,.04,0,.05,0,.02,0,.04,0,.05s0,.04,0,.05c0,.02,0,.04,0,.05,0,.02,0,.04,0,.05,0,.02,0,.04,0,.05,0,.02,0,.04,0,.05s0,.04,0,.05c0,.02,0,.04,0,.05,0,.02,0,.04,0,.05,0,.02,0,.04,0,.05,0,.02,0,.04,0,.05s0,.04,0,.05c0,.02,0,.04,0,.05s0,.04,0,.05c0,.02,0,.04,0,.05,0,.02,0,.04,0,.05s0,.04,0,.05,0,.04,0,.05,0,.04,0,.05c0,.02,0,.04,0,.05,0,.02,0,.04,0,.05,0,.02,0,.04,0,.05,0,.02,0,.04,0,.05,0,.02,0,.04,0,.05,0,.02,0,.04,0,.05,0,.02,0,.04,0,.05,0,.02,0,.04,0,.05,0,.02,0,.04,0,.05,0,.02,0,.04,0,.05,0,.02,0,.04,0,.05,0,.02,0,.04,0,.05,0,.02,0,.04,0,.05,0,.02,0,.04,0,.05,0,.02,0,.04,0,.05,0,.02,0,.04,0,.05,0,.02,0,.04,0,.05,0,.02,0,.04,0,.05,0,.02,0,.04,0,.05,0,.02,0,.04,0,.05,0,.02,0,.04,0,.05,0,.02,0,.04,0,.05,0,.02,0,.04,0,.05,0,.02,0,.04,0,.05,0,.02,0,.04,0,.05,0,.02,0,.04,0,.05,0,.02,0,.04,0,.05,0,.02,0,.04,0,.05s0,.04,0,.05c0,.02,0,.04,0,.05,0,.02,0,.04,0,.05,0,.02,0,.04,0,.05s0,.04,0,.05c0,.02,0,.04,0,.05,0,.02,0,.04,0,.05,0,.02,0,.04,0,.05,0,.02,0,.04,0,.05,0,.02,0,.04,0,.05,0,.02,0,.04,0,.05,0,.02,0,.04,0,.05s0,.04,0,.05c0,.02,0,.04,0,.05,0,.02,0,.04,0,.05,0,.02,0,.04,0,.05,0,.02,0,.04,0,.05s0,.04,0,.05v.05s0,.04,0,.05c0,.02,0,.04,0,.05,0,.02,0,.04,0,.05v.05s0,.05,0,.05c0,.02,0,.04,0,.05s0,.04,0,.05,0,.04,0,.05c0,.02,0,.04,0,.05,0,.02,0,.04,0,.05,0,.02,0,.04,0,.05s0,.04,0,.05,0,.04,0,.05c0,.02,0,.04,0,.05,0,.02,0,.04,0,.05s0,.04,0,.05,0,.04,0,.05h-6.66v-13.52h-7.02s0,.03,0,.05c0,.02,0,.03,0,.05,0,.02,0,.03,0,.05,0,.02,0,.03,0,.05,0,.02,0,.03,0,.05,0,.02,0,.03,0,.05,0,.02,0,.03,0,.05,0,.02,0,.03,0,.05,0,.02,0,.03,0,.05v.05s0,.03,0,.05,0,.03,0,.05c0,.02,0,.03,0,.05,0,.02,0,.03,0,.05,0,.02,0,.03,0,.05,0,.02,0,.03,0,.05,0,.02,0,.03,0,.05,0,.02,0,.03,0,.05,0,.02,0,.03,0,.05,0,.02,0,.03,0,.05s0,.03,0,.05c0,.02,0,.03,0,.05,0,.02,0,.03,0,.05s0,.03,0,.05v.05s0,.03,0,.05,0,.03,0,.05c0,.02,0,.03,0,.05,0,.02,0,.03,0,.05,0,.02,0,.03,0,.05,0,.02,0,.03,0,.05,0,.02,0,.03,0,.05,0,.02,0,.03,0,.05,0,.02,0,.03,0,.05,0,.02,0,.03,0,.05,0,.02,0,.03,0,.05,0,.02,0,.03,0,.05,0,.02,0,.03,0,.05,0,.02,0,.03,0,.05,0,.02,0,.03,0,.05v.05s0,.03,0,.05c0,.02,0,.03,0,.05,0,.02,0,.03,0,.05,0,.02,0,.03,0,.05,0,.02,0,.03,0,.05s0,.03,0,.05c0,.02,0,.03,0,.05s0,.03,0,.05c0,.02,0,.03,0,.05,0,.02,0,.03,0,.05s0,.03,0,.05c0,.02,0,.03,0,.05,0,.02,0,.03,0,.05s0,.03,0,.05c0,.02,0,.03,0,.05s0,.03,0,.05c0,.02,0,.03,0,.05,0,.02,0,.03,0,.05s0,.03,0,.05,0,.03,0,.05v.05s0,.03,0,.05c0,.02,0,.03,0,.05v.05s0,.03,0,.05c0,.02,0,.03,0,.05,0,.02,0,.03,0,.05s0,.03,0,.05c0,.02,0,.03,0,.05,0,.02,0,.03,0,.05,0,.02,0,.03,0,.05,0,.02,0,.03,0,.05,0,.02,0,.03,0,.05,0,.02,0,.03,0,.05,0,.02,0,.03,0,.05,0,.02,0,.03,0,.05,0,.02,0,.03,0,.05,0,.02,0,.03,0,.05,0,.02,0,.03,0,.05,0,.02,0,.03,0,.05,0,.02,0,.03,0,.05s0,.03,0,.05c0,.02,0,.03,0,.05v.05s0,.03,0,.05c0,.02,0,.03,0,.05,0,.02,0,.03,0,.05v.05s0,.03,0,.05,0,.03,0,.05,0,.03,0,.05c0,.02,0,.03,0,.05,0,.02,0,.03,0,.05,0,.02,0,.03,0,.05,0,.02,0,.03,0,.05s0,.03,0,.05,0,.03,0,.05c0,.02,0,.03,0,.05,0,.02,0,.03,0,.05,0,.02,0,.03,0,.05s0,.03,0,.05c0,.02,0,.03,0,.05s0,.03,0,.05c0,.02,0,.04,0,.05v.05s0,.04,0,.05c0,.02,0,.04,0,.05,0,.02,0,.04,0,.05,0,.02,0,.04,0,.05s0,.04,0,.05c0,.02,0,.04,0,.05,0,.02,0,.04,0,.05,0,.02,0,.04,0,.05s0,.04,0,.05c0,.02,0,.04,0,.05,0,.02,0,.04,0,.05,0,.02,0,.04,0,.05,0,.02,0,.04,0,.05,0,.02,0,.04,0,.05,0,.02,0,.04,0,.05,0,.02,0,.04,0,.05,0,.02,0,.04,0,.05,0,.02,0,.04,0,.05s0,.04,0,.05c0,.02,0,.04,0,.05s0,.04,0,.05c0,.02,0,.04,0,.05h-6.66v-6.88h-7.11v-6.68h-13.89v.05s0,.03,0,.05c0,.02,0,.03,0,.05,0,.02,0,.03,0,.05,0,.02,0,.03,0,.05,0,.02,0,.03,0,.05v.05s0,.03,0,.05c0,.02,0,.03,0,.05,0,.02,0,.03,0,.05v.05s0,.03,0,.05c0,.02,0,.03,0,.05,0,.02,0,.03,0,.05,0,.02,0,.03,0,.05,0,.02,0,.03,0,.05,0,.02,0,.03,0,.05s0,.03,0,.05,0,.03,0,.05c0,.02,0,.03,0,.05,0,.02,0,.03,0,.05,0,.02,0,.03,0,.05,0,.02,0,.03,0,.05,0,.02,0,.03,0,.05,0,.02,0,.03,0,.05v.05s0,.03,0,.05c0,.02,0,.03,0,.05,0,.02,0,.03,0,.05s0,.03,0,.05c0,.02,0,.03,0,.05,0,.02,0,.03,0,.05v.05s0,.03,0,.05,0,.03,0,.05v.05s0,.03,0,.05,0,.03,0,.05c0,.02,0,.03,0,.05s0,.03,0,.05,0,.03,0,.05c0,.02,0,.03,0,.05,0,.02,0,.03,0,.05,0,.02,0,.03,0,.05,0,.02,0,.03,0,.05,0,.02,0,.03,0,.05,0,.02,0,.03,0,.05,0,.02,0,.03,0,.05,0,.02,0,.03,0,.05,0,.02,0,.03,0,.05,0,.02,0,.03,0,.05s0,.03,0,.05c0,.02,0,.03,0,.05,0,.02,0,.03,0,.05,0,.02,0,.03,0,.05s0,.03,0,.05c0,.02,0,.03,0,.05,0,.02,0,.03,0,.05,0,.02,0,.03,0,.05,0,.02,0,.03,0,.05,0,.02,0,.03,0,.05s0,.03,0,.05c0,.02,0,.03,0,.05s0,.03,0,.05c0,.02,0,.03,0,.05,0,.02,0,.03,0,.05,0,.02,0,.03,0,.05,0,.02,0,.03,0,.05s0,.03,0,.05c0,.02,0,.03,0,.05,0,.02,0,.03,0,.05,0,.02,0,.03,0,.05,0,.02,0,.03,0,.05s0,.03,0,.05c0,.02,0,.03,0,.05,0,.02,0,.03,0,.05s0,.03,0,.05v.05s0,.03,0,.05c0,.02,0,.03,0,.05,0,.02,0,.03,0,.05,0,.02,0,.03,0,.05s0,.03,0,.05c0,.02,0,.03,0,.05,0,.02,0,.03,0,.05,0,.02,0,.03,0,.05,0,.02,0,.03,0,.05,0,.02,0,.03,0,.05,0,.02,0,.03,0,.05,0,.02,0,.03,0,.05s0,.03,0,.05c0,.02,0,.03,0,.05,0,.02,0,.03,0,.05,0,.02,0,.03,0,.05,0,.02,0,.03,0,.05,0,.02,0,.03,0,.05s0,.03,0,.05c0,.02,0,.03,0,.05,0,.02,0,.03,0,.05,0,.02,0,.03,0,.05,0,.02,0,.03,0,.05,0,.02,0,.03,0,.05,0,.02,0,.03,0,.05,0,.02,0,.04,0,.05s0,.04,0,.05c0,.02,0,.04,0,.05,0,.02,0,.04,0,.05,0,.02,0,.04,0,.05,0,.02,0,.04,0,.05v.05s0,.04,0,.05c0,.02,0,.04,0,.05,0,.02,0,.04,0,.05,0,.02,0,.04,0,.05,0,.02,0,.04,0,.05v.05s0,.04,0,.05c0,.02,0,.04,0,.05,0,.02,0,.04,0,.05s0,.04,0,.05c0,.02,0,.04,0,.05,0,.02,0,.04,0,.05,0,.02,0,.04,0,.05,0,.02,0,.04,0,.05,0,.02,0,.04,0,.05,0,.02,0,.04,0,.05,0,.02,0,.04,0,.05,0,.02,0,.04,0,.05h-6.63v-6.53h-7.27v13.67s-.04,0-.05,0c-.02,0-.04,0-.05,0-.02,0-.04,0-.05,0-.02,0-.04,0-.05,0-.02,0-.04,0-.05,0-.02,0-.04,0-.05,0-.02,0-.04,0-.05,0-.02,0-.04,0-.05,0-.02,0-.04,0-.05,0-.02,0-.04,0-.05,0-.02,0-.04,0-.05,0s-.04,0-.05,0c-.02,0-.04,0-.05,0-.02,0-.04,0-.05,0-.02,0-.04,0-.05,0s-.04,0-.05,0c-.02,0-.04,0-.05,0-.02,0-.04,0-.05,0-.02,0-.04,0-.05,0s-.04,0-.05,0c-.02,0-.04,0-.05,0-.02,0-.04,0-.05,0-.02,0-.04,0-.05,0-.02,0-.04,0-.05,0-.02,0-.04,0-.05,0-.02,0-.04,0-.05,0s-.04,0-.05,0c-.02,0-.04,0-.05,0-.02,0-.04,0-.05,0-.02,0-.04,0-.05,0-.02,0-.04,0-.05,0-.02,0-.04,0-.05,0-.02,0-.04,0-.05,0s-.04,0-.05,0c-.02,0-.04,0-.05,0-.02,0-.04,0-.05,0s-.04,0-.05,0c-.02,0-.04,0-.05,0-.02,0-.04,0-.05,0-.02,0-.04,0-.05,0-.02,0-.04,0-.05,0-.02,0-.04,0-.05,0-.02,0-.04,0-.05,0-.02,0-.04,0-.05,0-.02,0-.04,0-.05,0-.02,0-.04,0-.05,0s-.04,0-.05,0c-.02,0-.04,0-.05,0-.02,0-.04,0-.05,0-.02,0-.04,0-.05,0-.02,0-.04,0-.05,0-.02,0-.04,0-.05,0-.02,0-.04,0-.05,0-.02,0-.04,0-.05,0-.02,0-.04,0-.05,0-.02,0-.04,0-.05,0-.02,0-.04,0-.05,0-.02,0-.04,0-.05,0-.02,0-.04,0-.05,0-.02,0-.04,0-.05,0-.02,0-.04,0-.05,0-.02,0-.04,0-.05,0-.02,0-.04,0-.05,0-.02,0-.04,0-.05,0-.02,0-.04,0-.05,0-.02,0-.04,0-.05,0-.02,0-.04,0-.05,0-.02,0-.04,0-.05,0-.02,0-.04,0-.05,0-.02,0-.04,0-.05,0-.02,0-.04,0-.05,0-.02,0-.04,0-.05,0-.02,0-.04,0-.05,0-.02,0-.04,0-.05,0-.02,0-.04,0-.05,0-.02,0-.04,0-.05,0-.02,0-.04,0-.05,0-.02,0-.04,0-.05,0-.02,0-.04,0-.05,0-.02,0-.04,0-.05,0-.02,0-.04,0-.05,0-.02,0-.04,0-.05,0-.02,0-.04,0-.05,0-.02,0-.04,0-.05,0-.02,0-.04,0-.05,0-.02,0-.04,0-.05,0-.02,0-.04,0-.05,0-.02,0-.04,0-.05,0-.02,0-.04,0-.05,0-.02,0-.04,0-.05,0-.02,0-.04,0-.05,0s-.04,0-.05,0c-.02,0-.04,0-.05,0-.02,0-.04,0-.05,0s-.04,0-.05,0c-.02,0-.04,0-.05,0-.02,0-.04,0-.05,0-.02,0-.04,0-.05,0-.02,0-.04,0-.05,0-.02,0-.04,0-.05,0-.02,0-.04,0-.05,0-.02,0-.04,0-.05,0-.02,0-.04,0-.05,0-.02,0-.04,0-.05,0-.02,0-.04,0-.05,0-.02,0-.04,0-.05,0-.02,0-.04,0-.05,0-.02,0-.04,0-.05,0s-.04,0-.05,0c-.02,0-.04,0-.05,0-.02,0-.04,0-.05,0-.02,0-.04,0-.05,0-.02,0-.04,0-.05,0-.02,0-.04,0-.05,0-.02,0-.04,0-.05,0-.02,0-.04,0-.05,0-.02,0-.04,0-.05,0-.02,0-.04,0-.05,0-.02,0-.04,0-.05,0-.02,0-.04,0-.05,0-.02,0-.04,0-.05,0-.02,0-.04,0-.05,0s-.04,0-.05,0c-.02,0-.04,0-.05,0-.02,0-.04,0-.05,0-.02,0-.04,0-.05,0-.02,0-.04,0-.05,0-.02,0-.04,0-.05,0v-6.78h-13.93v-7.09h-7.07v20.66h-6.99v-13.5h-13.98v6.86h-13.91s0-.03,0-.05c0-.02,0-.03,0-.05,0-.02,0-.03,0-.05,0-.02,0-.03,0-.05,0-.02,0-.03,0-.05,0-.02,0-.03,0-.05,0-.02,0-.03,0-.05,0-.02,0-.03,0-.05,0-.02,0-.03,0-.05,0-.02,0-.03,0-.05,0-.02,0-.03,0-.05,0-.02,0-.03,0-.05,0-.02,0-.03,0-.05,0-.02,0-.03,0-.05,0-.02,0-.03,0-.05,0-.02,0-.03,0-.05,0-.02,0-.03,0-.05,0-.02,0-.03,0-.05,0-.02,0-.03,0-.05,0-.02,0-.03,0-.05,0-.02,0-.03,0-.05s0-.03,0-.05c0-.02,0-.03,0-.05,0-.02,0-.03,0-.05,0-.02,0-.03,0-.05v-.05s0-.03,0-.05v-.05s0-.05,0-.05c0-.02,0-.03,0-.05,0-.02,0-.03,0-.05,0-.02,0-.03,0-.05,0-.02,0-.03,0-.05,0-.02,0-.03,0-.05,0-.02,0-.03,0-.05,0-.02,0-.04,0-.05s0-.04,0-.05c0-.02,0-.04,0-.05,0-.02,0-.04,0-.05,0-.02,0-.04,0-.05s0-.04,0-.05c0-.02,0-.04,0-.05,0-.02,0-.04,0-.05,0-.02,0-.04,0-.05s0-.04,0-.05c0-.02,0-.04,0-.05s0-.04,0-.05c0-.02,0-.04,0-.05,0-.02,0-.04,0-.05,0-.02,0-.04,0-.05,0-.02,0-.04,0-.05,0-.02,0-.04,0-.05,0-.02,0-.04,0-.05s0-.04,0-.05c0-.02,0-.04,0-.05,0-.02,0-.04,0-.05,0-.02,0-.04,0-.05,0-.02,0-.04,0-.05,0-.02,0-.04,0-.05,0-.02,0-.04,0-.05,0-.02,0-.04,0-.05,0-.02,0-.04,0-.05,0-.02,0-.04,0-.05,0-.02,0-.04,0-.05s0-.04,0-.05c0-.02,0-.04,0-.05,0-.02,0-.04,0-.05,0-.02,0-.04,0-.05,0-.02,0-.04,0-.05,0-.02,0-.04,0-.05v-.05s0-.04,0-.05,0-.04,0-.05,0-.04,0-.05,0-.04,0-.05c0-.02,0-.04,0-.05,0-.02,0-.04,0-.05,0-.02,0-.04,0-.05,0-.02,0-.04,0-.05,0-.02,0-.04,0-.05,0-.02,0-.04,0-.05s0-.04,0-.05,0-.04,0-.05,0-.04,0-.05c0-.02,0-.04,0-.05,0-.02,0-.04,0-.05,0-.02,0-.04,0-.05s0-.04,0-.05,0-.04,0-.05c0-.02,0-.04,0-.05,0-.02,0-.04,0-.05,0-.02,0-.04,0-.06s0-.04,0-.06c0-.02,0-.04,0-.06,0-.02,0-.04,0-.06,0-.02,0-.04,0-.06,0-.02,0-.04,0-.06,0-.02,0-.04,0-.06,0-.02,0-.04,0-.06,0-.02,0-.04,0-.06,0-.02,0-.04,0-.06,0-.02,0-.04,0-.06,0-.02,0-.04,0-.06,0-.02,0-.04,0-.06,0-.02,0-.04,0-.06,0-.02,0-.04,0-.06,0-.02,0-.04,0-.06s0-.04,0-.06c0-.02,0-.04,0-.06,0-.02,0-.04,0-.06s0-.04,0-.06c0-.02,0-.04,0-.06,0-.02,0-.04,0-.06,0-.02,0-.04,0-.06s0-.04,0-.06c0-.02,0-.04,0-.06s0-.04,0-.06,0-.04,0-.06c0-.02,0-.04,0-.06,0-.02,0-.04,0-.06,0-.02,0-.04,0-.06,0-.02,0-.04,0-.06,0-.02,0-.04,0-.06s0-.04,0-.06c0-.02,0-.04,0-.06,0-.02,0-.04,0-.06,0-.02,0-.04,0-.06,0-.02,0-.04,0-.06-.02,0-.03,0-.05,0-.02,0-.03,0-.05,0-.02,0-.03,0-.05,0s-.03,0-.05,0c-.02,0-.03,0-.05,0-.02,0-.03,0-.05,0s-.03,0-.05,0c-.02,0-.03,0-.05,0-.02,0-.03,0-.05,0-.02,0-.03,0-.05,0-.02,0-.03,0-.05,0-.02,0-.03,0-.05,0h-.05s-.03,0-.05,0c-.02,0-.03,0-.05,0s-.03,0-.05,0c-.02,0-.03,0-.05,0-.02,0-.03,0-.05,0s-.03,0-.05,0-.03,0-.05,0-.03,0-.05,0c-.02,0-.03,0-.05,0s-.03,0-.05,0c-.02,0-.03,0-.05,0s-.03,0-.05,0c-.02,0-.03,0-.05,0-.02,0-.03,0-.05,0s-.03,0-.05,0c-.02,0-.03,0-.05,0s-.03,0-.05,0h-.05s-.03,0-.05,0c-.02,0-.03,0-.05,0-.02,0-.03,0-.05,0-.02,0-.03,0-.05,0s-.03,0-.05,0c-.02,0-.03,0-.05,0h-.05s-.05,0-.05,0c-.02,0-.03,0-.05,0-.02,0-.03,0-.05,0-.02,0-.03,0-.05,0h-.05s-.03,0-.05,0-.03,0-.05,0c-.02,0-.03,0-.05,0s-.03,0-.05,0-.03,0-.05,0c-.02,0-.03,0-.05,0s-.03,0-.05,0-.03,0-.05,0c-.02,0-.03,0-.05,0-.02,0-.03,0-.05,0s-.03,0-.05,0c-.02,0-.03,0-.05,0s-.03,0-.05,0-.03,0-.05,0c-.02,0-.03,0-.05,0-.02,0-.03,0-.05,0-.02,0-.03,0-.05,0s-.03,0-.05,0c-.02,0-.03,0-.05,0-.02,0-.03,0-.05,0-.02,0-.03,0-.05,0-.02,0-.03,0-.05,0-.02,0-.03,0-.05,0-.02,0-.03,0-.05,0-.02,0-.03,0-.05,0-.02,0-.03,0-.05,0-.02,0-.03,0-.05,0s-.03,0-.05,0-.03,0-.05,0-.03,0-.05,0c-.02,0-.03,0-.05,0-.02,0-.03,0-.05,0s-.03,0-.05,0c-.02,0-.04,0-.05,0s-.04,0-.05,0c-.02,0-.04,0-.05,0-.02,0-.04,0-.05,0-.02,0-.04,0-.05,0s-.04,0-.05,0c-.02,0-.04,0-.05,0-.02,0-.04,0-.05,0-.02,0-.04,0-.05,0-.02,0-.04,0-.05,0-.02,0-.04,0-.05,0-.02,0-.04,0-.05,0-.02,0-.04,0-.05,0-.02,0-.04,0-.05,0-.02,0-.04,0-.05,0-.02,0-.04,0-.05,0-.02,0-.04,0-.05,0-.02,0-.04,0-.05,0s-.04,0-.05,0-.04,0-.05,0c-.02,0-.04,0-.05,0s-.04,0-.05,0-.04,0-.05,0c-.02,0-.04,0-.05,0-.02,0-.04,0-.05,0-.02,0-.04,0-.05,0-.02,0-.04,0-.05,0-.02,0-.04,0-.05,0-.02,0-.04,0-.05,0-.02,0-.04,0-.05,0s-.04,0-.05,0c-.02,0-.04,0-.05,0s-.04,0-.06,0c-.02,0-.04,0-.06,0s-.04,0-.06,0-.04,0-.06,0c-.02,0-.04,0-.06,0-.02,0-.04,0-.06,0-.02,0-.04,0-.06,0-.02,0-.04,0-.06,0-.02,0-.04,0-.06,0-.02,0-.04,0-.06,0-.02,0-.04,0-.06,0s-.04,0-.06,0c-.02,0-.04,0-.06,0-.02,0-.04,0-.06,0-.02,0-.04,0-.06,0-.02,0-.04,0-.06,0s-.04,0-.06,0c-.02,0-.04,0-.06,0-.02,0-.04,0-.06,0-.02,0-.04,0-.06,0v-6.79h6.68v-7.11h-6.68v-6.82h-6.87s0-.04,0-.06c0-.02,0-.04,0-.06,0-.02,0-.04,0-.06,0-.02,0-.04,0-.06,0-.02,0-.04,0-.06,0-.02,0-.04,0-.06,0-.02,0-.04,0-.06s0-.04,0-.06,0-.04,0-.06,0-.04,0-.06,0-.04,0-.06c0-.02,0-.04,0-.06,0-.02,0-.04,0-.06,0-.02,0-.04,0-.06,0-.02,0-.04,0-.06,0-.02,0-.04,0-.06,0-.02,0-.04,0-.06s0-.04,0-.06,0-.04,0-.06c0-.02,0-.04,0-.06,0-.02,0-.04,0-.06s0-.04,0-.06c0-.02,0-.04,0-.06,0-.02,0-.04,0-.06s0-.04,0-.06c0-.02,0-.04,0-.06v-.06s0-.04,0-.06c0-.02,0-.04,0-.06,0-.02,0-.04,0-.06v-.06s0-.04,0-.06c0-.02,0-.04,0-.05,0-.02,0-.04,0-.05,0-.02,0-.04,0-.05,0-.02,0-.04,0-.05,0-.02,0-.04,0-.05,0-.02,0-.04,0-.05,0-.02,0-.04,0-.05,0-.02,0-.04,0-.05,0-.02,0-.04,0-.05,0-.02,0-.04,0-.05,0-.02,0-.04,0-.05,0-.02,0-.04,0-.05,0-.02,0-.04,0-.05,0-.02,0-.04,0-.05,0-.02,0-.04,0-.05s0-.04,0-.05c0-.02,0-.04,0-.05,0-.02,0-.04,0-.05s0-.04,0-.05c0-.02,0-.04,0-.05,0-.02,0-.04,0-.05,0-.02,0-.04,0-.05,0-.02,0-.04,0-.05,0-.02,0-.04,0-.05,0-.02,0-.04,0-.05,0-.02,0-.04,0-.05,0-.02,0-.04,0-.05,0-.02,0-.04,0-.05,0-.02,0-.04,0-.05,0-.02,0-.04,0-.05,0-.02,0-.04,0-.05,0-.02,0-.04,0-.05,0-.02,0-.04,0-.05,0-.02,0-.04,0-.05,0-.02,0-.04,0-.05,0-.02,0-.04,0-.05,0-.02,0-.04,0-.05,0-.02,0-.04,0-.05v-.05s0-.04,0-.05c0-.02,0-.04,0-.05v-.05s0-.04,0-.05c0-.02,0-.04,0-.05v-.05s0-.04,0-.05c0-.02,0-.04,0-.05,0-.02,0-.04,0-.05,0-.02,0-.04,0-.05,0-.02,0-.04,0-.05v-.05s0-.04,0-.05c0-.02,0-.04,0-.05s0-.04,0-.05,0-.04,0-.05c0-.02,0-.04,0-.05,0-.02,0-.04,0-.05,0-.02,0-.04,0-.05v-.05s0-.05,0-.05c0-.02,0-.04,0-.05,0-.02,0-.04,0-.05,0-.02,0-.04,0-.05s0-.04,0-.05c0-.02,0-.04,0-.05,0-.02,0-.04,0-.05,0-.02,0-.04,0-.05,0-.02,0-.04,0-.05,0-.02,0-.04,0-.05,0-.02,0-.04,0-.05s0-.04,0-.05c0-.02,0-.04,0-.05s0-.04,0-.05c0-.02,0-.04,0-.05s0-.04,0-.05c0-.02,0-.04,0-.05,0-.02,0-.04,0-.05,0-.02,0-.04,0-.05,0-.02,0-.04,0-.05,0-.02,0-.04,0-.05,0-.02,0-.04,0-.05,0-.02,0-.04,0-.05,0-.02,0-.04,0-.05,0-.02,0-.04,0-.05,0-.02,0-.04,0-.05s0-.04,0-.05c0-.02,0-.04,0-.05,0-.02,0-.04,0-.05s0-.04,0-.05v-.05s0-.04,0-.05c0-.02,0-.04,0-.05s0-.04,0-.05v-.05s0-.04,0-.05c0-.02,0-.04,0-.05h-6.63v6.65h-7.28Zm34.82,395.47v6.89h-6.89v-6.89h6.89Zm147.05,7.01v6.88h-6.9v-.03s0-.03,0-.03v-.03s0-.03,0-.03v-.03s0-.03,0-.03v-.03s0-.03,0-.03v-.03s0-.03,0-.03v-.03s0-.03,0-.03v-.03s0-.03,0-.03v-.03s0-.03,0-.03v-.03s0-.03,0-.03v-.03s0-.03,0-.03v-.03s0-.03,0-.03v-.03s0-.03,0-.03v-.03s0-.03,0-.03v-.03s0-.03,0-.03v-.03s0-.03,0-.03v-.03s0-.03,0-.03v-.03s0-.03,0-.03v-.03s0-.03,0-.03v-.03s0-.03,0-.03v-.03s0-.03,0-.03v-.03s0-.03,0-.03v-.03s0-.03,0-.03v-.03s0-.03,0-.03v-.03s0-.03,0-.03v-.03s0-.03,0-.03v-.03s0-.03,0-.03v-.03s0-.03,0-.03v-.03s0-.03,0-.03v-.03s0-.03,0-.03v-.03s0-.03,0-.03v-.03s0-.03,0-.03v-.03s0-.03,0-.03v-.03s0-.03,0-.03v-.03s0-.03,0-.03v-.03s0-.03,0-.03v-.03s0-.03,0-.03v-.03s0-.03,0-.03v-.03s0-.03,0-.03v-.03s0-.03,0-.03v-.03s0-.03,0-.03v-.03s0-.03,0-.03v-.03s0-.03,0-.03v-.03s0-.03,0-.03v-.03s0-.03,0-.03v-.03s0-.03,0-.03v-.03s0-.03,0-.03v-.03s0-.03,0-.03v-.03s0-.03,0-.03v-.03s0-.03,0-.03v-.03s0-.03,0-.03v-.03s0-.03,0-.03v-.03s0-.03,0-.03v-.03s0-.03,0-.03v-.03s0-.03,0-.03v-.03s0-.03,0-.03v-.03s0-.03,0-.03v-.03s0-.03,0-.03v-.03s0-.03,0-.03v-.03s0-.03,0-.03v-.03s0-.03,0-.03v-.03s0-.03,0-.03v-.03s0-.03,0-.03v-.03s0-.03,0-.03v-.03s0-.03,0-.03v-.03s0-.03,0-.03v-.03s0-.03,0-.03v-.03s0-.03,0-.03v-.03s0-.03,0-.03v-.03s0-.03,0-.03v-.03s0-.03,0-.03v-.03s0-.03,0-.03v-.03s0-.03,0-.03v-.03s0-.03,0-.03v-.03s0-.03,0-.03v-.03s0-.03,0-.03v-.03s0-.03,0-.03v-.03s0-.03,0-.03v-.03s0-.03,0-.03v-.03s0-.03,0-.03v-.03s0-.03,0-.03v-.03s0-.03,0-.03v-.03s0-.03,0-.03v-.03s0-.03,0-.03v-.03s0-.03,0-.03v-.03s0-.03,0-.03v-.03s0-.03,0-.03v-.03s0-.03,0-.03v-.03s0-.03,0-.03v-.03s0-.03,0-.03v-.03s0-.03,0-.03v-.03s0-.03,0-.03v-.03s0-.03,0-.03v-.03s0-.03,0-.03v-.03s0-.03,0-.03v-.03s0-.03,0-.03v-.03s0-.03,0-.03v-.03s0-.03,0-.03v-.03s0-.03,0-.03v-.03s0-.03,0-.03v-.03s0-.03,0-.03v-.03s0-.03,0-.03v-.03s0-.03,0-.03v-.03s0-.03,0-.03v-.03s0-.03,0-.03v-.03s0-.03,0-.03v-.03s0-.03,0-.03v-.03s0-.03,0-.03v-.03s0-.03,0-.03v-.03s0-.03,0-.03v-.03s0-.03,0-.03v-.03s0-.03,0-.03v-.03s0-.03,0-.03v-.03s0-.03,0-.03v-.03s0-.03,0-.03v-.03s0-.03,0-.03v-.03s0-.03,0-.03v-.03s0-.03,0-.03v-.03s0-.03,0-.03v-.03s0-.03,0-.03v-.03s0-.03,0-.03v-.03s0-.03,0-.03v-.03s0-.03,0-.03v-.03s0-.03,0-.03v-.03s0-.03,0-.03v-.03s0-.03,0-.03v-.03s0-.03,0-.03v-.03s0-.03,0-.03v-.03s0-.03,0-.03h.08s.02,0,.03,0h.2s.02,0,.03,0h.2s.02,0,.03,0h.2s.02,0,.03,0h.25s.02,0,.03,0h.25s.02,0,.03,0h.31s.02,0,.03,0h.38s.02,0,.03,0h.44s.02,0,.03,0h.63s.02,0,.03,0h1.05s.02,0,.03,0h2.61Zm-7.01-7s0,.02,0,.03c0,0,0,.02,0,.03,0,0,0,.02,0,.03v.03s0,.02,0,.03c0,0,0,.02,0,.03v.03s0,.02,0,.03c0,0,0,.02,0,.03s0,.02,0,.03,0,.02,0,.03v.03s0,.02,0,.03c0,0,0,.02,0,.03,0,0,0,.02,0,.03s0,.02,0,.03v.03s0,.02,0,.03c0,0,0,.02,0,.03,0,0,0,.02,0,.03,0,0,0,.02,0,.03v.03s0,.02,0,.03c0,0,0,.02,0,.03v.03s0,.02,0,.03c0,0,0,.02,0,.03s0,.02,0,.03c0,0,0,.02,0,.03v.03s0,.02,0,.03c0,0,0,.02,0,.03,0,0,0,.02,0,.03,0,0,0,.02,0,.03v.03s0,.02,0,.03v.03s0,.02,0,.03c0,0,0,.02,0,.03,0,0,0,.02,0,.03s0,.02,0,.03v.03s0,.02,0,.03,0,.02,0,.03c0,0,0,.02,0,.03,0,0,0,.02,0,.03v.03s0,.02,0,.03,0,.02,0,.03c0,0,0,.02,0,.03,0,0,0,.02,0,.03,0,0,0,.02,0,.03s0,.02,0,.03,0,.02,0,.03v.03s0,.02,0,.03c0,0,0,.02,0,.03,0,0,0,.02,0,.03,0,0,0,.02,0,.03v.03s0,.02,0,.03c0,0,0,.02,0,.03,0,0,0,.02,0,.03,0,0,0,.02,0,.03,0,0,0,.02,0,.03s0,.02,0,.03c0,0,0,.02,0,.03v.03s0,.02,0,.03c0,0,0,.02,0,.03,0,0,0,.02,0,.03,0,0,0,.02,0,.03v.03s0,.02,0,.03v.03s0,.02,0,.03c0,0,0,.02,0,.03,0,0,0,.02,0,.03,0,0,0,.02,0,.03v.03s0,.02,0,.03,0,.02,0,.03v.03s0,.02,0,.03c0,0,0,.02,0,.03,0,0,0,.02,0,.03s0,.02,0,.03v.03s0,.02,0,.03v.03s0,.02,0,.03c0,0,0,.02,0,.03,0,0,0,.02,0,.03s0,.02,0,.03c0,0,0,.02,0,.03v.03s0,.02,0,.03c0,0,0,.02,0,.03,0,0,0,.02,0,.03,0,0,0,.02,0,.03,0,0,0,.02,0,.03s0,.02,0,.03v.03s0,.02,0,.03c0,0,0,.02,0,.03,0,0,0,.02,0,.03,0,0,0,.02,0,.03,0,0,0,.02,0,.03,0,0,0,.02,0,.03,0,0,0,.02,0,.03v.03s0,.02,0,.03v.03s0,.02,0,.03c0,0,0,.02,0,.03,0,0,0,.02,0,.03,0,0,0,.02,0,.03v.03s0,.02,0,.03,0,.02,0,.03v.03s0,.02,0,.03c0,0,0,.02,0,.03,0,0,0,.02,0,.03,0,0,0,.02,0,.03,0,0,0,.02,0,.03s0,.02,0,.03v.03s0,.02,0,.03,0,.02,0,.03v.03s0,.02,0,.03c0,0,0,.02,0,.03,0,0,0,.02,0,.03,0,0,0,.02,0,.03,0,0,0,.02,0,.03s0,.02,0,.03c0,0,0,.02,0,.03v.03s0,.02,0,.03v.03s0,.02,0,.03c0,0,0,.02,0,.03,0,0,0,.02,0,.03,0,0,0,.02,0,.03,0,0,0,.02,0,.03,0,0,0,.02,0,.03,0,0,0,.02,0,.03v.03s0,.02,0,.03v.03s0,.02,0,.03c0,0,0,.02,0,.03v.03s0,.02,0,.03c0,0,0,.02,0,.03,0,0,0,.02,0,.03,0,0,0,.02,0,.03,0,0,0,.02,0,.03,0,0,0,.02,0,.03v.03s0,.02,0,.03,0,.02,0,.03v.03s0,.02,0,.03c0,0,0,.02,0,.03v.03s0,.02,0,.03v.03s0,.02,0,.03c0,0,0,.02,0,.03,0,0,0,.02,0,.03,0,0,0,.02,0,.03,0,0,0,.02,0,.03,0,0,0,.02,0,.03,0,0,0,.02,0,.03,0,0,0,.02,0,.03,0,0,0,.02,0,.03v.03s0,.02,0,.03c0,0,0,.02,0,.03v.03s0,.02,0,.03v.03s0,.02,0,.03c0,0,0,.02,0,.03v.03s0,.02,0,.03v.03s0,.02,0,.03,0,.02,0,.03v.03s0,.02,0,.03v.03s0,.02,0,.03,0,.02,0,.03v.03s0,.02,0,.03v.03s0,.02,0,.03,0,.02,0,.03v.03s0,.02,0,.03c0,0,0,.02,0,.03v.03s0,.02,0,.03v.03s0,.02,0,.03c0,0,0,.02,0,.03v.03s0,.02,0,.03v.03s0,.02,0,.03c0,0,0,.02,0,.03v.03s0,.02,0,.03v.03s0,.02,0,.03c0,0,0,.02,0,.03v.03s0,.02,0,.03v.03s0,.02,0,.03,0,.02,0,.03v.03s0,.02,0,.03v.03s0,.02,0,.03,0,.02,0,.03v.03s0,.02,0,.03v.03s0,.02,0,.03,0,.02,0,.03v.03s0,.02,0,.03c0,0,0,.02,0,.03,0,0,0,.02,0,.03,0,0,0,.02,0,.03,0,0,0,.02,0,.03,0,0,0,.02,0,.03,0,0,0,.02,0,.03v.03s0,.02,0,.03v.03s0,.02,0,.03c0,0,0,.02,0,.03v.03s0,.02,0,.03v.03s0,.02,0,.03c0,0,0,.02,0,.03,0,0,0,.02,0,.03,0,0,0,.02,0,.03v.03s0,.02,0,.03h-6.69v-6.89h6.67Zm7-7v.18s0,.02,0,.03v.38s0,.02,0,.03v.45s0,.02,0,.03v.53s0,.02,0,.03v.75s0,.02,0,.03v1.29s0,.02,0,.03v3.16h-2.59s-.02,0-.03,0h-1.1s-.02,0-.03,0h-.64s-.02,0-.03,0h-.48s-.02,0-.03,0h-.4s-.02,0-.03,0h-.32s-.02,0-.03,0h-.29s-.02,0-.03,0h-.26s-.02,0-.03,0h-.24s-.02,0-.03,0h-.21s-.02,0-.03,0h-.11v-6.89h6.89Zm-230.77-.22v-13.66h6.61v6.62s.02,0,.03,0c0,0,.02,0,.03,0,0,0,.02,0,.03,0h.03s.02,0,.03,0h.03s.02,0,.03,0h.03s.02,0,.03,0,.02,0,.03,0h.03s.02,0,.03,0h.03s.02,0,.03,0h.03s.02,0,.03,0,.02,0,.03,0c0,0,.02,0,.03,0,0,0,.02,0,.03,0s.02,0,.03,0,.02,0,.03,0c0,0,.02,0,.03,0s.02,0,.03,0,.02,0,.03,0c0,0,.02,0,.03,0,0,0,.02,0,.03,0,0,0,.02,0,.03,0,0,0,.02,0,.03,0,0,0,.02,0,.03,0,0,0,.02,0,.03,0,0,0,.02,0,.03,0,0,0,.02,0,.03,0,0,0,.02,0,.03,0,0,0,.02,0,.03,0,0,0,.02,0,.03,0,0,0,.02,0,.03,0s.02,0,.03,0c0,0,.02,0,.03,0,0,0,.02,0,.03,0,0,0,.02,0,.03,0s.02,0,.03,0,.02,0,.03,0,.02,0,.03,0c0,0,.02,0,.03,0,0,0,.02,0,.03,0s.02,0,.03,0h.03s.02,0,.03,0c0,0,.02,0,.03,0,0,0,.02,0,.03,0,0,0,.02,0,.03,0h.03s.02,0,.03,0c0,0,.02,0,.03,0s.02,0,.03,0,.02,0,.03,0c0,0,.02,0,.03,0h.03s.02,0,.03,0,.02,0,.03,0c0,0,.02,0,.03,0h.03s.02,0,.03,0c0,0,.02,0,.03,0h.03s.02,0,.03,0,.02,0,.03,0c0,0,.02,0,.03,0s.02,0,.03,0c0,0,.02,0,.03,0,0,0,.02,0,.03,0,0,0,.02,0,.03,0s.02,0,.03,0h.03s.02,0,.03,0c0,0,.02,0,.03,0s.02,0,.03,0h.03s.02,0,.03,0c0,0,.02,0,.03,0,0,0,.02,0,.03,0,0,0,.02,0,.03,0,0,0,.02,0,.03,0s.02,0,.03,0c0,0,.02,0,.03,0s.02,0,.03,0c0,0,.02,0,.03,0s.02,0,.03,0,.02,0,.03,0,.02,0,.03,0c0,0,.02,0,.03,0s.02,0,.03,0c0,0,.02,0,.03,0s.02,0,.03,0c0,0,.02,0,.03,0h.03s.02,0,.03,0c0,0,.02,0,.03,0,0,0,.02,0,.03,0s.02,0,.03,0c0,0,.02,0,.03,0,0,0,.02,0,.03,0h.03s.03,0,.03,0c0,0,.02,0,.03,0s.02,0,.03,0,.02,0,.03,0h.03s.02,0,.03,0,.02,0,.03,0,.02,0,.03,0h.03s.02,0,.03,0,.02,0,.03,0c0,0,.02,0,.03,0h.03s.03,0,.03,0c0,0,.02,0,.03,0s.02,0,.03,0c0,0,.02,0,.03,0h.03s.03,0,.03,0c0,0,.02,0,.03,0,0,0,.02,0,.03,0s.02,0,.03,0c0,0,.02,0,.03,0,0,0,.02,0,.03,0h.03s.02,0,.03,0c0,0,.02,0,.03,0,0,0,.02,0,.03,0,0,0,.02,0,.03,0,0,0,.02,0,.03,0h.03s.02,0,.03,0,.02,0,.03,0,.02,0,.03,0c0,0,.02,0,.03,0s.02,0,.03,0,.02,0,.03,0h.03s.02,0,.03,0c0,0,.02,0,.03,0,0,0,.02,0,.03,0s.02,0,.03,0c0,0,.02,0,.03,0,0,0,.02,0,.03,0,0,0,.02,0,.03,0,0,0,.02,0,.03,0,0,0,.02,0,.03,0s.02,0,.03,0,.02,0,.03,0,.02,0,.03,0,.02,0,.03,0,.02,0,.03,0c0,0,.02,0,.03,0,0,0,.02,0,.03,0s.02,0,.03,0,.02,0,.03,0,.02,0,.03,0c0,0,.02,0,.03,0,0,0,.02,0,.03,0,0,0,.02,0,.03,0,0,0,.02,0,.03,0s.02,0,.03,0,.02,0,.03,0c0,0,.02,0,.03,0,0,0,.02,0,.03,0,0,0,.02,0,.03,0,0,0,.02,0,.03,0,0,0,.02,0,.03,0,0,0,.02,0,.03,0,0,0,.02,0,.03,0,0,0,.02,0,.03,0,0,0,.02,0,.03,0,0,0,.02,0,.03,0s.02,0,.03,0,.02,0,.03,0,.02,0,.03,0c0,0,.02,0,.03,0,0,0,.02,0,.03,0,0,0,.02,0,.03,0,0,0,.02,0,.03,0,0,0,.02,0,.03,0,0,0,.02,0,.03,0,0,0,.02,0,.03,0,0,0,.02,0,.03,0,0,0,.02,0,.03,0,0,0,.02,0,.03,0,0,0,.02,0,.03,0,0,0,.02,0,.03,0,0,0,.02,0,.03,0,0,0,.02,0,.03,0s.02,0,.03,0c0,0,.02,0,.03,0s.02,0,.03,0c0,0,.02,0,.03,0,0,0,.02,0,.03,0,0,0,.02,0,.03,0,0,0,.02,0,.03,0,0,0,.02,0,.03,0h.03s.02,0,.03,0c0,0,.02,0,.03,0,0,0,.02,0,.03,0,0,0,.02,0,.03,0,0,0,.02,0,.03,0,0,0,.02,0,.03,0,0,0,.02,0,.03,0,0,0,.02,0,.03,0,0,0,.02,0,.03,0s.02,0,.03,0c0,0,.02,0,.03,0,0,0,.02,0,.03,0,0,0,.02,0,.03,0s.02,0,.03,0c0,0,.02,0,.03,0s.02,0,.03,0h.03s.02,0,.03,0,.02,0,.03,0c0,0,.02,0,.03,0,0,0,.02,0,.03,0,0,0,.02,0,.03,0s.02,0,.03,0h.03s.02,0,.03,0c0,0,.02,0,.03,0,0,0,.02,0,.03,0s.02,0,.03,0h.03s.03,0,.03,0c0,0,.02,0,.03,0s.02,0,.03,0,.02,0,.03,0,.02,0,.03,0c0,0,.02,0,.03,0h.03s.02,0,.03,0c0,0,.02,0,.03,0s.02,0,.03,0,.02,0,.03,0,.02,0,.03,0,.02,0,.03,0h.03s.02,0,.03,0h.03s.02,0,.03,0c0,0,.02,0,.03,0h.03s.02,0,.03,0c0,0,.02,0,.03,0,0,0,.02,0,.03,0s.02,0,.03,0,.02,0,.03,0,.02,0,.03,0v6.69h-13.57Zm27.97,6.94v-13.62h6.88v13.62h-.03s-.02,0-.03,0c0,0-.02,0-.03,0,0,0-.02,0-.03,0h-.03s-.02,0-.03,0h-.03s-.02,0-.03,0c0,0-.02,0-.03,0,0,0-.02,0-.03,0s-.02,0-.03,0h-.03s-.02,0-.03,0c0,0-.02,0-.03,0,0,0-.02,0-.03,0,0,0-.02,0-.03,0s-.02,0-.03,0c0,0-.02,0-.03,0,0,0-.02,0-.03,0s-.02,0-.03,0c0,0-.02,0-.03,0s-.02,0-.03,0-.02,0-.03,0c0,0-.02,0-.03,0,0,0-.02,0-.03,0,0,0-.02,0-.03,0,0,0-.02,0-.03,0,0,0-.02,0-.03,0,0,0-.02,0-.03,0,0,0-.02,0-.03,0,0,0-.02,0-.03,0,0,0-.02,0-.03,0,0,0-.02,0-.03,0s-.02,0-.03,0-.02,0-.03,0c0,0-.02,0-.03,0,0,0-.02,0-.03,0,0,0-.02,0-.03,0s-.02,0-.03,0c0,0-.02,0-.03,0,0,0-.02,0-.03,0,0,0-.02,0-.03,0,0,0-.02,0-.03,0,0,0-.02,0-.03,0s-.02,0-.03,0-.02,0-.03,0-.02,0-.03,0c0,0-.02,0-.03,0,0,0-.02,0-.03,0,0,0-.02,0-.03,0,0,0-.02,0-.03,0s-.02,0-.03,0-.02,0-.03,0c0,0-.02,0-.03,0s-.02,0-.03,0-.02,0-.03,0-.02,0-.03,0c0,0-.02,0-.03,0s-.02,0-.03,0-.02,0-.03,0c0,0-.02,0-.03,0s-.02,0-.03,0c0,0-.02,0-.03,0,0,0-.02,0-.03,0s-.02,0-.03,0c0,0-.02,0-.03,0s-.02,0-.03,0c0,0-.02,0-.03,0s-.02,0-.03,0c0,0-.02,0-.03,0s-.02,0-.03,0c0,0-.02,0-.03,0s-.02,0-.03,0c0,0-.02,0-.03,0,0,0-.02,0-.03,0s-.02,0-.03,0c0,0-.02,0-.03,0s-.02,0-.03,0-.02,0-.03,0c0,0-.02,0-.03,0s-.02,0-.03,0-.02,0-.03,0c0,0-.02,0-.03,0s-.02,0-.03,0c0,0-.02,0-.03,0s-.02,0-.03,0c0,0-.02,0-.03,0s-.02,0-.03,0c0,0-.02,0-.03,0s-.02,0-.03,0c0,0-.02,0-.03,0,0,0-.02,0-.03,0,0,0-.02,0-.03,0s-.02,0-.03,0c0,0-.02,0-.03,0,0,0-.02,0-.03,0s-.02,0-.03,0-.02,0-.03,0-.02,0-.03,0-.02,0-.03,0-.02,0-.03,0c0,0-.02,0-.03,0,0,0-.02,0-.03,0,0,0-.02,0-.03,0,0,0-.02,0-.03,0s-.02,0-.03,0-.02,0-.03,0-.02,0-.03,0-.02,0-.03,0-.02,0-.03,0-.02,0-.03,0c0,0-.02,0-.03,0,0,0-.02,0-.03,0h-.03s-.02,0-.03,0c0,0-.02,0-.03,0s-.02,0-.03,0-.02,0-.03,0c0,0-.02,0-.03,0h-.03s-.02,0-.03,0-.02,0-.03,0-.02,0-.03,0h-.03s-.02,0-.03,0-.02,0-.03,0-.02,0-.03,0h-.03s-.02,0-.03,0-.02,0-.03,0h-.03s-.02,0-.03,0-.02,0-.03,0h-.03s-.02,0-.03,0h-.03s-.02,0-.03,0-.02,0-.03,0h-.03s-.02,0-.03,0h-.03s-.02,0-.03,0-.02,0-.03,0h-.03s-.02,0-.03,0h-.03s-.02,0-.03,0h-.03s-.02,0-.03,0h-.03s-.02,0-.03,0h-.05s-.02,0-.03,0h-.03s-.02,0-.03,0h-.03s-.02,0-.03,0h-.05s-.02,0-.03,0h-.03s-.02,0-.03,0h-.05s-.02,0-.03,0h-.05s-.02,0-.03,0h-.05s-.02,0-.03,0h-.08s-.02,0-.03,0h-.05s-.02,0-.03,0h-.11s-.02,0-.03,0h-.08s-.02,0-.03,0h-.14s-.02,0-.03,0h-.14s-.02,0-.03,0h-.22s-.02,0-.03,0h-.39s-.02,0-.03,0h-.89Zm13.75,7.16h-6.9s0-.02,0-.03,0-.02,0-.03,0-.02,0-.03c0,0,0-.02,0-.03s0-.02,0-.03c0,0,0-.02,0-.03,0,0,0-.02,0-.03s0-.02,0-.03c0,0,0-.02,0-.03,0,0,0-.02,0-.03s0-.02,0-.03,0-.02,0-.03,0-.02,0-.03c0,0,0-.02,0-.03,0,0,0-.02,0-.03s0-.02,0-.03c0,0,0-.02,0-.03,0,0,0-.02,0-.03,0,0,0-.02,0-.03,0,0,0-.02,0-.03,0,0,0-.02,0-.03s0-.02,0-.03c0,0,0-.02,0-.03,0,0,0-.02,0-.03s0-.02,0-.03,0-.02,0-.03,0-.02,0-.03c0,0,0-.02,0-.03s0-.02,0-.03c0,0,0-.02,0-.03s0-.02,0-.03c0,0,0-.02,0-.03s0-.02,0-.03c0,0,0-.02,0-.03,0,0,0-.02,0-.03,0,0,0-.02,0-.03,0,0,0-.02,0-.03,0,0,0-.02,0-.03,0,0,0-.02,0-.03,0,0,0-.02,0-.03s0-.02,0-.03c0,0,0-.02,0-.03s0-.02,0-.03c0,0,0-.02,0-.03s0-.02,0-.03c0,0,0-.02,0-.03s0-.02,0-.03,0-.02,0-.03,0-.02,0-.03,0-.02,0-.03,0-.02,0-.03c0,0,0-.02,0-.03,0,0,0-.02,0-.03,0,0,0-.02,0-.03,0,0,0-.02,0-.03s0-.02,0-.03,0-.02,0-.03,0-.02,0-.03,0-.02,0-.03,0-.02,0-.03c0,0,0-.02,0-.03,0,0,0-.02,0-.03s0-.02,0-.03,0-.02,0-.03c0,0,0-.02,0-.03,0,0,0-.02,0-.03,0,0,0-.02,0-.03,0,0,0-.02,0-.03,0,0,0-.02,0-.03,0,0,0-.02,0-.03s0-.02,0-.03,0-.02,0-.03,0-.02,0-.03,0-.02,0-.03,0-.02,0-.03c0,0,0-.02,0-.03,0,0,0-.02,0-.03,0,0,0-.02,0-.03s0-.02,0-.03,0-.02,0-.03c0,0,0-.02,0-.03,0,0,0-.02,0-.03,0,0,0-.02,0-.03,0,0,0-.02,0-.03s0-.02,0-.03,0-.02,0-.03,0-.02,0-.03c0,0,0-.02,0-.03,0,0,0-.02,0-.03s0-.02,0-.03,0-.02,0-.03c0,0,0-.02,0-.03,0,0,0-.02,0-.03,0,0,0-.02,0-.03s0-.02,0-.03,0-.02,0-.03c0,0,0-.02,0-.03v-.03s0-.02,0-.03,0-.02,0-.03c0,0,0-.02,0-.03s0-.02,0-.03c0,0,0-.02,0-.03,0,0,0-.02,0-.03,0,0,0-.02,0-.03s0-.02,0-.03c0,0,0-.02,0-.03,0,0,0-.02,0-.03s0-.02,0-.03,0-.02,0-.03,0-.02,0-.03,0-.02,0-.03c0,0,0-.02,0-.03s0-.02,0-.03c0,0,0-.02,0-.03,0,0,0-.02,0-.03,0,0,0-.02,0-.03,0,0,0-.02,0-.03,0,0,0-.02,0-.03,0,0,0-.02,0-.03,0,0,0-.02,0-.03s0-.02,0-.03,0-.02,0-.03,0-.02,0-.03,0-.02,0-.03,0-.02,0-.03c0,0,0-.02,0-.03,0,0,0-.02,0-.03,0,0,0-.02,0-.03,0,0,0-.02,0-.03,0,0,0-.02,0-.03,0,0,0-.02,0-.03s0-.02,0-.03,0-.02,0-.03c0,0,0-.02,0-.03,0,0,0-.02,0-.03,0,0,0-.02,0-.03,0,0,0-.02,0-.03s0-.02,0-.03c0,0,0-.02,0-.03,0,0,0-.02,0-.03,0,0,0-.02,0-.03s0-.02,0-.03c0,0,0-.02,0-.03,0,0,0-.02,0-.03,0,0,0-.02,0-.03,0,0,0-.02,0-.03,0,0,0-.02,0-.03,0,0,0-.02,0-.03,0,0,0-.02,0-.03,0,0,0-.02,0-.03,0,0,0-.02,0-.03,0,0,0-.02,0-.03,0,0,0-.02,0-.03,0,0,0-.02,0-.03,0,0,0-.02,0-.03,0,0,0-.02,0-.03,0,0,0-.02,0-.03,0,0,0-.02,0-.03,0,0,0-.02,0-.03,0,0,0-.02,0-.03,0,0,0-.02,0-.03,0,0,0-.02,0-.03,0,0,0-.02,0-.03,0,0,0-.02,0-.03,0,0,0-.02,0-.03,0,0,0-.02,0-.03,0,0,0-.02,0-.03,0,0,0-.02,0-.03,0,0,0-.02,0-.03,0,0,0-.02,0-.03,0,0,0-.02,0-.03,0,0,0-.02,0-.03,0,0,0-.02,0-.03,0,0,0-.02,0-.03,0,0,0-.02,0-.03,0,0,0-.02,0-.03,0,0,0-.02,0-.03,0,0,0-.02,0-.03,0,0,0-.02,0-.03s0-.02,0-.03c0,0,0-.02,0-.03,0,0,0-.02,0-.03,0,0,0-.02,0-.03,0,0,0-.02,0-.03s0-.02,0-.03,0-.02,0-.03c0,0,0-.02,0-.03,0,0,0-.02,0-.03,0,0,0-.02,0-.03,0,0,0-.02,0-.03,0,0,0-.02,0-.03,0,0,0-.02,0-.03,0,0,0-.02,0-.03,0,0,0-.02,0-.03s0-.02,0-.03c0,0,0-.02,0-.03s0-.02,0-.03c0,0,0-.02,0-.03,0,0,0-.02,0-.03,0,0,0-.02,0-.03,0,0,0-.02,0-.03v-.03s0-.02,0-.03c0,0,0-.02,0-.03,0,0,0-.02,0-.03s0-.02,0-.03,0-.02,0-.03c0,0,0-.02,0-.03,0,0,0-.02,0-.03s0-.02,0-.03c0,0,0-.02,0-.03,0,0,0-.02,0-.03,0,0,0-.02,0-.03s0-.02,0-.03v-.03s0-.02,0-.03c0,0,0-.02,0-.03v-.03s0-.02,0-.03c0,0,0-.02,0-.03,0,0,0-.02,0-.03,0,0,0-.02,0-.03,0,0,0-.02,0-.03,0,0,0-.02,0-.03,0,0,0-.02,0-.03,0,0,0-.02,0-.03v-.03s0-.02,0-.03c0,0,0-.02,0-.03,0,0,0-.02,0-.03,0,0,0-.02,0-.03v-.03s0-.02,0-.03c0,0,0-.02,0-.03,0,0,0-.02,0-.03,0,0,0-.02,0-.03,0,0,0-.02,0-.03,0,0,0-.02,0-.03,0,0,0-.02,0-.03,0,0,0-.02,0-.03,0,0,0-.02,0-.03,0,0,0-.02,0-.03,0,0,0-.02,0-.03,0,0,0-.02,0-.03,0,0,0-.02,0-.03,0,0,0-.02,0-.03,0,0,0-.02,0-.03,0,0,0-.02,0-.03,0,0,0-.02,0-.03,0,0,0-.02,0-.03s0-.02,0-.03,0-.02,0-.03,0-.02,0-.03c0,0,0-.02,0-.03,0,0,0-.02,0-.03,0,0,.02,0,.03,0,0,0,.02,0,.03,0,0,0,.02,0,.03,0,0,0,.02,0,.03,0,0,0,.02,0,.03,0,0,0,.02,0,.03,0,0,0,.02,0,.03,0,0,0,.02,0,.03,0,0,0,.02,0,.03,0,0,0,.02,0,.03,0,0,0,.02,0,.03,0,0,0,.02,0,.03,0,0,0,.02,0,.03,0,0,0,.02,0,.03,0,0,0,.02,0,.03,0,0,0,.02,0,.03,0,0,0,.02,0,.03,0,0,0,.02,0,.03,0,0,0,.02,0,.03,0,0,0,.02,0,.03,0,0,0,.02,0,.03,0s.02,0,.03,0c0,0,.02,0,.03,0,0,0,.02,0,.03,0s.02,0,.03,0c0,0,.02,0,.03,0,0,0,.02,0,.03,0s.02,0,.03,0c0,0,.02,0,.03,0,0,0,.02,0,.03,0s.02,0,.03,0c0,0,.02,0,.03,0,0,0,.02,0,.03,0s.02,0,.03,0c0,0,.02,0,.03,0,0,0,.02,0,.03,0s.02,0,.03,0c0,0,.02,0,.03,0,0,0,.02,0,.03,0s.02,0,.03,0c0,0,.02,0,.03,0,0,0,.02,0,.03,0s.02,0,.03,0c0,0,.02,0,.03,0,0,0,.02,0,.03,0,0,0,.02,0,.03,0,0,0,.02,0,.03,0s.02,0,.03,0c0,0,.02,0,.03,0,0,0,.02,0,.03,0s.02,0,.03,0c0,0,.02,0,.03,0,0,0,.02,0,.03,0s.02,0,.03,0c0,0,.02,0,.03,0,0,0,.02,0,.03,0s.02,0,.03,0c0,0,.02,0,.03,0,0,0,.02,0,.03,0s.02,0,.03,0c0,0,.02,0,.03,0,0,0,.02,0,.03,0,0,0,.02,0,.03,0,0,0,.02,0,.03,0,0,0,.02,0,.03,0,0,0,.02,0,.03,0,0,0,.02,0,.03,0,0,0,.02,0,.03,0,0,0,.02,0,.03,0,0,0,.02,0,.03,0,0,0,.02,0,.03,0,0,0,.02,0,.03,0,0,0,.02,0,.03,0,0,0,.02,0,.03,0,0,0,.02,0,.03,0,0,0,.02,0,.03,0s.02,0,.03,0c0,0,.02,0,.03,0s.02,0,.03,0,.02,0,.03,0c0,0,.02,0,.03,0s.02,0,.03,0,.02,0,.03,0c0,0,.02,0,.03,0s.02,0,.03,0,.02,0,.03,0c0,0,.02,0,.03,0s.02,0,.03,0c0,0,.02,0,.03,0,0,0,.02,0,.03,0s.02,0,.03,0,.02,0,.03,0c0,0,.02,0,.03,0s.02,0,.03,0c0,0,.02,0,.03,0,0,0,.02,0,.03,0,0,0,.02,0,.03,0s.02,0,.03,0c0,0,.02,0,.03,0,0,0,.02,0,.03,0,0,0,.02,0,.03,0,0,0,.02,0,.03,0,0,0,.02,0,.03,0,0,0,.02,0,.03,0,0,0,.02,0,.03,0,0,0,.02,0,.03,0,0,0,.02,0,.03,0,0,0,.02,0,.03,0,0,0,.02,0,.03,0,0,0,.02,0,.03,0,0,0,.02,0,.03,0,0,0,.02,0,.03,0,0,0,.02,0,.03,0,0,0,.02,0,.03,0,0,0,.02,0,.03,0,0,0,.02,0,.03,0s.02,0,.03,0c0,0,.02,0,.03,0,0,0,.02,0,.03,0s.02,0,.03,0,.02,0,.03,0c0,0,.02,0,.03,0s.02,0,.03,0,.02,0,.03,0c0,0,.02,0,.03,0s.02,0,.03,0,.02,0,.03,0c0,0,.02,0,.03,0s.02,0,.03,0c0,0,.02,0,.03,0,0,0,.02,0,.03,0s.02,0,.03,0c0,0,.02,0,.03,0,0,0,.02,0,.03,0,0,0,.02,0,.03,0s.02,0,.03,0c0,0,.02,0,.03,0,0,0,.02,0,.03,0s.02,0,.03,0c0,0,.02,0,.03,0,0,0,.02,0,.03,0s.02,0,.03,0c0,0,.02,0,.03,0,0,0,.02,0,.03,0s.02,0,.03,0c0,0,.02,0,.03,0,0,0,.02,0,.03,0s.02,0,.03,0c0,0,.02,0,.03,0,0,0,.02,0,.03,0s.02,0,.03,0c0,0,.02,0,.03,0,0,0,.02,0,.03,0,0,0,.02,0,.03,0s.02,0,.03,0c0,0,.02,0,.03,0,0,0,.02,0,.03,0s.02,0,.03,0c0,0,.02,0,.03,0,0,0,.02,0,.03,0s.02,0,.03,0c0,0,.02,0,.03,0,0,0,.02,0,.03,0s.02,0,.03,0c0,0,.02,0,.03,0,0,0,.02,0,.03,0s.02,0,.03,0c0,0,.02,0,.03,0,0,0,.02,0,.03,0s.02,0,.03,0,.02,0,.03,0c0,0,.02,0,.03,0s.02,0,.03,0c0,0,.02,0,.03,0,0,0,.02,0,.03,0,0,0,.02,0,.03,0,0,0,.02,0,.03,0,0,0,.02,0,.03,0,0,0,.02,0,.03,0s.02,0,.03,0c0,0,.02,0,.03,0,0,0,.02,0,.03,0,0,0,.02,0,.03,0,0,0,.02,0,.03,0,0,0,.02,0,.03,0,0,0,.02,0,.03,0,0,0,.02,0,.03,0,0,0,.02,0,.03,0,0,0,.02,0,.03,0,0,0,.02,0,.03,0s.02,0,.03,0c0,0,.02,0,.03,0,0,0,.02,0,.03,0s.02,0,.03,0c0,0,.02,0,.03,0,0,0,.02,0,.03,0s.02,0,.03,0c0,0,.02,0,.03,0,0,0,.02,0,.03,0s.02,0,.03,0c0,0,.02,0,.03,0,0,0,.02,0,.03,0,0,0,.02,0,.03,0,0,0,.02,0,.03,0,0,0,.02,0,.03,0,0,0,.02,0,.03,0,0,0,.02,0,.03,0,0,0,.02,0,.03,0h.03s.02,0,.03,0c0,0,.02,0,.03,0s.02,0,.03,0c0,0,.02,0,.03,0,0,0,.02,0,.03,0s.02,0,.03,0,.02,0,.03,0c0,0,.02,0,.03,0,0,0,.02,0,.03,0,0,0,.02,0,.03,0,0,0,.02,0,.03,0,0,0,.02,0,.03,0,0,0,.02,0,.03,0,0,0,.02,0,.03,0s.02,0,.03,0c0,0,.02,0,.03,0,0,0,.02,0,.03,0,0,0,.02,0,.03,0,0,0,.02,0,.03,0,0,0,.02,0,.03,0,0,0,.02,0,.03,0,0,0,.02,0,.03,0s.02,0,.03,0c0,0,.02,0,.03,0,0,0,.02,0,.03,0s.02,0,.03,0c0,0,.02,0,.03,0,0,0,.02,0,.03,0,0,0,.02,0,.03,0,0,0,.02,0,.03,0s.02,0,.03,0c0,0,.02,0,.03,0,0,0,.02,0,.03,0s.02,0,.03,0c0,0,.02,0,.03,0,0,0,.02,0,.03,0,0,0,.02,0,.03,0,0,0,.02,0,.03,0s.02,0,.03,0c0,0,.02,0,.03,0,0,0,.02,0,.03,0,0,0,.02,0,.03,0s.02,0,.03,0c0,0,.02,0,.03,0,0,0,.02,0,.03,0,0,0,.02,0,.03,0s.02,0,.03,0c0,0,0,.02,0,.03,0,0,0,.02,0,.03s0,.02,0,.03,0,.02,0,.03c0,0,0,.02,0,.03s0,.02,0,.03c0,0,0,.02,0,.03,0,0,0,.02,0,.03,0,0,0,.02,0,.03s0,.02,0,.03,0,.02,0,.03c0,0,0,.02,0,.03s0,.02,0,.03c0,0,0,.02,0,.03,0,0,0,.02,0,.03s0,.02,0,.03c0,0,0,.02,0,.03,0,0,0,.02,0,.03,0,0,0,.02,0,.03s0,.02,0,.03,0,.02,0,.03c0,0,0,.02,0,.03s0,.02,0,.03c0,0,0,.02,0,.03,0,0,0,.02,0,.03,0,0,0,.02,0,.03s0,.02,0,.03,0,.02,0,.03c0,0,0,.02,0,.03s0,.02,0,.03c0,0,0,.02,0,.03,0,0,0,.02,0,.03,0,0,0,.02,0,.03s0,.02,0,.03,0,.02,0,.03c0,0,0,.02,0,.03s0,.02,0,.03c0,0,0,.02,0,.03,0,0,0,.02,0,.03,0,0,0,.02,0,.03s0,.02,0,.03,0,.02,0,.03c0,0,0,.02,0,.03s0,.02,0,.03c0,0,0,.02,0,.03,0,0,0,.02,0,.03,0,0,0,.02,0,.03s0,.02,0,.03,0,.02,0,.03c0,0,0,.02,0,.03s0,.02,0,.03c0,0,0,.02,0,.03s0,.02,0,.03c0,0,0,.02,0,.03s0,.02,0,.03c0,0,0,.02,0,.03,0,0,0,.02,0,.03,0,0,0,.02,0,.03s0,.02,0,.03,0,.02,0,.03c0,0,0,.02,0,.03s0,.02,0,.03c0,0,0,.02,0,.03,0,0,0,.02,0,.03,0,0,0,.02,0,.03s0,.02,0,.03c0,0,0,.02,0,.03,0,0,0,.02,0,.03,0,0,0,.02,0,.03s0,.02,0,.03,0,.02,0,.03c0,0,0,.02,0,.03s0,.02,0,.03c0,0,0,.02,0,.03,0,0,0,.02,0,.03,0,0,0,.02,0,.03s0,.02,0,.03c0,0,0,.02,0,.03,0,0,0,.02,0,.03,0,0,0,.02,0,.03s0,.02,0,.03,0,.02,0,.03c0,0,0,.02,0,.03s0,.02,0,.03c0,0,0,.02,0,.03,0,0,0,.02,0,.03,0,0,0,.02,0,.03s0,.02,0,.03c0,0,0,.02,0,.03,0,0,0,.02,0,.03,0,0,0,.02,0,.03s0,.02,0,.03,0,.02,0,.03c0,0,0,.02,0,.03s0,.02,0,.03c0,0,0,.02,0,.03s0,.02,0,.03c0,0,0,.02,0,.03s0,.02,0,.03c0,0,0,.02,0,.03,0,0,0,.02,0,.03,0,0,0,.02,0,.03s0,.02,0,.03c0,0,0,.02,0,.03,0,0,0,.02,0,.03,0,0,0,.02,0,.03s0,.02,0,.03,0,.02,0,.03c0,0,0,.02,0,.03s0,.02,0,.03c0,0,0,.02,0,.03s0,.02,0,.03c0,0,0,.02,0,.03s0,.02,0,.03c0,0,0,.02,0,.03,0,0,0,.02,0,.03,0,0,0,.02,0,.03s0,.02,0,.03c0,0,0,.02,0,.03,0,0,0,.02,0,.03,0,0,0,.02,0,.03s0,.02,0,.03,0,.02,0,.03c0,0,0,.02,0,.03,0,0,0,.02,0,.03s0,.02,0,.03,0,.02,0,.03c0,0,0,.02,0,.03s0,.02,0,.03c0,0,0,.02,0,.03,0,0,0,.02,0,.03,0,0,0,.02,0,.03s0,.02,0,.03c0,0,0,.02,0,.03,0,0,0,.02,0,.03,0,0,0,.02,0,.03s0,.02,0,.03,0,.02,0,.03c0,0,0,.02,0,.03,0,0,0,.02,0,.03s0,.02,0,.03,0,.02,0,.03c0,0,0,.02,0,.03s0,.02,0,.03c0,0,0,.02,0,.03,0,0,0,.02,0,.03,0,0,0,.02,0,.03s0,.02,0,.03c0,0,0,.02,0,.03,0,0,0,.02,0,.03,0,0,0,.02,0,.03s0,.02,0,.03,0,.02,0,.03c0,0,0,.02,0,.03,0,0,0,.02,0,.03s0,.02,0,.03,0,.02,0,.03c0,0,0,.02,0,.03s0,.02,0,.03c0,0,0,.02,0,.03,0,0,0,.02,0,.03,0,0,0,.02,0,.03s0,.02,0,.03c0,0,0,.02,0,.03,0,0,0,.02,0,.03,0,0,0,.02,0,.03s0,.02,0,.03,0,.02,0,.03c0,0,0,.02,0,.03,0,0,0,.02,0,.03s0,.02,0,.03,0,.02,0,.03c0,0,0,.02,0,.03s0,.02,0,.03c0,0,0,.02,0,.03,0,0,0,.02,0,.03,0,0,0,.02,0,.03s0,.02,0,.03,0,.02,0,.03c0,0,0,.02,0,.03,0,0,0,.02,0,.03s0,.02,0,.03,0,.02,0,.03c0,0,0,.02,0,.03s0,.02,0,.03c0,0,0,.02,0,.03,0,0,0,.02,0,.03,0,0,0,.02,0,.03s0,.02,0,.03,0,.02,0,.03c0,0,0,.02,0,.03,0,0,0,.02,0,.03s0,.02,0,.03,0,.02,0,.03c0,0,0,.02,0,.03s0,.02,0,.03c0,0,0,.02,0,.03,0,0,0,.02,0,.03,0,0,0,.02,0,.03s0,.02,0,.03,0,.02,0,.03c0,0,0,.02,0,.03s0,.02,0,.03c0,0,0,.02,0,.03s0,.02,0,.03c0,0,0,.02,0,.03s0,.02,0,.03c0,0,0,.02,0,.03,0,0,0,.02,0,.03,0,0,0,.02,0,.03s0,.02,0,.03,0,.02,0,.03c0,0,0,.02,0,.03s0,.02,0,.03c0,0,0,.02,0,.03,0,0,0,.02,0,.03,0,0,0,.02,0,.03s0,.02,0,.03,0,.02,0,.03c0,0,0,.02,0,.03s0,.02,0,.03c0,0,0,.02,0,.03,0,0,0,.02,0,.03,0,0,0,.02,0,.03s0,.02,0,.03,0,.02,0,.03c0,0,0,.02,0,.03s0,.02,0,.03c0,0,0,.02,0,.03,0,0,0,.02,0,.03,0,0,0,.02,0,.03s0,.02,0,.03,0,.02,0,.03c0,0,0,.02,0,.03s0,.02,0,.03c0,0,0,.02,0,.03,0,0,0,.02,0,.03,0,0,0,.02,0,.03s0,.02,0,.03,0,.02,0,.03c0,0,0,.02,0,.03s0,.02,0,.03c0,0,0,.02,0,.03,0,0,0,.02,0,.03,0,0,0,.02,0,.03s0,.02,0,.03c0,0,0,.02,0,.03,0,0,0,.02,0,.03s0,.02,0,.03,0,.02,0,.03c0,0,0,.02,0,.03s0,.02,0,.03c0,0,0,.02,0,.03,0,0,0,.02,0,.03,0,0,0,.02,0,.03s0,.02,0,.03h0Zm13.8-14.09h-6.56v7.07h-7.13v-.32s0-.05,0-.08v-.72s0-.05,0-.08v-.72s0-.05,0-.08v-.72s0-.05,0-.08v-.96s0-.05,0-.08v-.96s0-.05,0-.08v-1.2s0-.05,0-.08v-1.52s0-.05,0-.08v-1.93s0-.05,0-.08v-3.47s0-.05,0-.08v-7.37h6.81v6.57h6.88v7.04h0Zm28.32,7.09v-6.9h6.89v6.9h-6.89Zm27.89-13.88s0,.02,0,.03c0,0,0,.02,0,.03v.03s0,.02,0,.03,0,.02,0,.03c0,0,0,.02,0,.03,0,0,0,.02,0,.03v.03s0,.02,0,.03c0,0,0,.02,0,.03,0,0,0,.02,0,.03v.03s0,.02,0,.03,0,.02,0,.03c0,0,0,.02,0,.03,0,0,0,.02,0,.03,0,0,0,.02,0,.03,0,0,0,.02,0,.03,0,0,0,.02,0,.03,0,0,0,.02,0,.03,0,0,0,.02,0,.03v.03s0,.02,0,.03c0,0,0,.02,0,.03,0,0,0,.02,0,.03v.03s0,.02,0,.03c0,0,0,.02,0,.03,0,0,0,.02,0,.03,0,0,0,.02,0,.03v.03s0,.02,0,.03c0,0,0,.02,0,.03,0,0,0,.02,0,.03,0,0,0,.02,0,.03v.03s0,.02,0,.03c0,0,0,.02,0,.03,0,0,0,.02,0,.03v.03s0,.02,0,.03,0,.02,0,.03c0,0,0,.02,0,.03,0,0,0,.02,0,.03v.03s0,.02,0,.03,0,.02,0,.03c0,0,0,.02,0,.03,0,0,0,.02,0,.03v.03s0,.02,0,.03c0,0,0,.02,0,.03,0,0,0,.02,0,.03,0,0,0,.02,0,.03,0,0,0,.02,0,.03,0,0,0,.02,0,.03,0,0,0,.02,0,.03,0,0,0,.02,0,.03,0,0,0,.02,0,.03,0,0,0,.02,0,.03,0,0,0,.02,0,.03,0,0,0,.02,0,.03,0,0,0,.02,0,.03,0,0,0,.02,0,.03,0,0,0,.02,0,.03,0,0,0,.02,0,.03,0,0,0,.02,0,.03,0,0,0,.02,0,.03,0,0,0,.02,0,.03,0,0,0,.02,0,.03,0,0,0,.02,0,.03,0,0,0,.02,0,.03,0,0,0,.02,0,.03,0,0,0,.02,0,.03v.03s0,.02,0,.03c0,0,0,.02,0,.03,0,0,0,.02,0,.03,0,0,0,.02,0,.03v.03s0,.02,0,.03c0,0,0,.02,0,.03,0,0,0,.02,0,.03,0,0,0,.02,0,.03v.03s0,.02,0,.03,0,.02,0,.03c0,0,0,.02,0,.03,0,0,0,.02,0,.03v.03s0,.02,0,.03,0,.02,0,.03c0,0,0,.02,0,.03,0,0,0,.02,0,.03v.03s0,.02,0,.03,0,.02,0,.03c0,0,0,.02,0,.03,0,0,0,.02,0,.03,0,0,0,.02,0,.03,0,0,0,.02,0,.03,0,0,0,.02,0,.03,0,0,0,.02,0,.03,0,0,0,.02,0,.03,0,0,0,.02,0,.03,0,0,0,.02,0,.03,0,0,0,.02,0,.03,0,0,0,.02,0,.03,0,0,0,.02,0,.03,0,0,0,.02,0,.03,0,0,0,.02,0,.03,0,0,0,.02,0,.03,0,0,0,.02,0,.03,0,0,0,.02,0,.03,0,0,0,.02,0,.03v.03s0,.02,0,.03,0,.02,0,.03c0,0,0,.02,0,.03,0,0,0,.02,0,.03v.03s0,.02,0,.03,0,.02,0,.03c0,0,0,.02,0,.03,0,0,0,.02,0,.03,0,0,0,.02,0,.03v.03s0,.02,0,.03c0,0,0,.02,0,.03,0,0,0,.02,0,.03,0,0,0,.02,0,.03v.03s0,.02,0,.03c0,0,0,.02,0,.03,0,0,0,.02,0,.03,0,0,0,.02,0,.03,0,0,0,.02,0,.03,0,0,0,.02,0,.03s0,.02,0,.03c0,0,0,.02,0,.03,0,0,0,.02,0,.03,0,0,0,.02,0,.03,0,0,0,.02,0,.03s0,.02,0,.03c0,0,0,.02,0,.03,0,0,0,.02,0,.03,0,0,0,.02,0,.03v.03s0,.02,0,.03c0,0,0,.02,0,.03,0,0,0,.02,0,.03,0,0,0,.02,0,.03v.03s0,.02,0,.03c0,0,0,.02,0,.03,0,0,0,.02,0,.03,0,0,0,.02,0,.03,0,0,0,.02,0,.03,0,0,0,.02,0,.03,0,0,0,.02,0,.03,0,0,0,.02,0,.03,0,0,0,.02,0,.03v.03s0,.02,0,.03c0,0,0,.02,0,.03,0,0,0,.02,0,.03,0,0,0,.02,0,.03v.03s0,.02,0,.03,0,.02,0,.03c0,0,0,.02,0,.03,0,0,0,.02,0,.03v.03s0,.02,0,.03,0,.02,0,.03c0,0,0,.02,0,.03,0,0,0,.02,0,.03,0,0,0,.02,0,.03,0,0,0,.02,0,.03s0,.02,0,.03c0,0,0,.02,0,.03,0,0,0,.02,0,.03,0,0,0,.02,0,.03,0,0,0,.02,0,.03,0,0,0,.02,0,.03,0,0,0,.02,0,.03s0,.02,0,.03c0,0,0,.02,0,.03v.03s0,.02,0,.03c0,0,0,.02,0,.03,0,0,0,.02,0,.03,0,0,0,.02,0,.03v.03s0,.02,0,.03c0,0,0,.02,0,.03,0,0,0,.02,0,.03,0,0,0,.02,0,.03v.03s0,.02,0,.03c0,0,0,.02,0,.03,0,0,0,.02,0,.03v.03s0,.02,0,.03,0,.02,0,.03c0,0,0,.02,0,.03,0,0,0,.02,0,.03v.03s0,.02,0,.03,0,.02,0,.03c0,0,0,.02,0,.03,0,0,0,.02,0,.03v.03s0,.02,0,.03c0,0,0,.02,0,.03,0,0,0,.02,0,.03,0,0,0,.02,0,.03v.03s0,.02,0,.03c0,0,0,.02,0,.03,0,0,0,.02,0,.03,0,0,0,.02,0,.03,0,0,0,.02,0,.03,0,0,0,.02,0,.03,0,0,0,.02,0,.03,0,0,0,.02,0,.03,0,0,0,.02,0,.03,0,0,0,.02,0,.03,0,0,0,.02,0,.03,0,0,0,.02,0,.03,0,0,0,.02,0,.03,0,0,0,.02,0,.03,0,0,0,.02,0,.03,0,0,0,.02,0,.03,0,0,0,.02,0,.03,0,0,0,.02,0,.03,0,0,0,.02,0,.03,0,0,0,.02,0,.03,0,0,0,.02,0,.03,0,0,0,.02,0,.03v.03s0,.02,0,.03,0,.02,0,.03c0,0,0,.02,0,.03,0,0,0,.02,0,.03,0,0,0,.02,0,.03,0,0,0,.02,0,.03,0,0,0,.02,0,.03,0,0,0,.02,0,.03v.03s0,.02,0,.03,0,.02,0,.03c0,0,0,.02,0,.03,0,0,0,.02,0,.03,0,0,0,.02,0,.03,0,0,0,.02,0,.03h-7v7h-6.89v-7h-7v-6.88h20.88Zm6.81-.11h-2.39s-.02,0-.03,0h-1.02s-.02,0-.03,0h-.63s-.02,0-.03,0h-.44s-.02,0-.03,0h-.39s-.02,0-.03,0h-.31s-.02,0-.03,0h-.26s-.02,0-.03,0h-.26s-.02,0-.03,0h-.21s-.02,0-.03,0h-.21s-.02,0-.03,0h-.21s-.02,0-.03,0h-.08v-6.68h6.7v6.68h0Zm119.04,.32v6.68h-2.39s-.02,0-.03,0h-1.02s-.02,0-.03,0h-.63s-.02,0-.03,0h-.44s-.02,0-.03,0h-.39s-.02,0-.03,0h-.31s-.02,0-.03,0h-.26s-.02,0-.03,0h-.26s-.02,0-.03,0h-.21s-.02,0-.03,0h-.21s-.02,0-.03,0h-.21s-.02,0-.03,0h-.08v-6.68h6.7Zm-34.99-.01v6.67h-6.47v-6.67h6.47Zm-20.82-.01v3.54s0,.02,0,.03v1.12s0,.02,0,.03v.76s0,.02,0,.03v.58s0,.02,0,.03v.47s0,.02,0,.03v.1h-6.68v-6.7h6.68Zm-14.23-.19v6.69h-6.66v-6.69h.07s.02,0,.02,0h.2s.02,0,.02,0h.2s.02,0,.02,0h.2s.02,0,.03,0h.25s.02,0,.03,0h.25s.02,0,.03,0h.3s.02,0,.03,0h.38s.02,0,.03,0h.43s.02,0,.03,0h.61s.02,0,.03,0h1.01s.02,0,.03,0h2.47Zm126.06-6.79v6.51h-6.58v-6.51h6.58Zm-77.05,6.55h-6.53v-6.53h6.53v6.53Zm-55.79-6.6v2.67s0,.02,0,.03v.89s0,.02,0,.03v.58s0,.02,0,.03v.44s0,.02,0,.03v.34s0,.02,0,.03v.31s0,.02,0,.03v.26s0,.02,0,.03v.23s0,.02,0,.03v.23s0,.02,0,.03v.21s0,.02,0,.03v.18s0,.02,0,.03v.08s-.02,0-.03,0-.02,0-.03,0h-.03s-.02,0-.03,0-.02,0-.03,0c0,0-.02,0-.03,0s-.02,0-.03,0h-.03s-.02,0-.03,0-.02,0-.03,0-.02,0-.03,0-.02,0-.03,0h-.03s-.02,0-.03,0c0,0-.02,0-.03,0s-.02,0-.03,0-.02,0-.03,0h-.03s-.02,0-.03,0-.02,0-.03,0-.02,0-.03,0c0,0-.02,0-.03,0h-.03s-.02,0-.03,0-.02,0-.03,0-.02,0-.03,0-.02,0-.03,0-.02,0-.03,0c0,0-.02,0-.03,0s-.02,0-.03,0-.02,0-.03,0c0,0-.02,0-.03,0h-.03s-.02,0-.03,0h-.03s-.03,0-.03,0h-.03s-.03,0-.03,0h-.03s-.02,0-.03,0h-.03s-.03,0-.03,0h-.03s-.03,0-.03,0c0,0-.02,0-.03,0,0,0-.02,0-.03,0h-.03s-.02,0-.03,0-.02,0-.03,0c0,0-.02,0-.03,0s-.02,0-.03,0h-.03s-.02,0-.03,0c0,0-.02,0-.03,0h-.03s-.03,0-.03,0c0,0-.02,0-.03,0h-.03s-.02,0-.03,0-.02,0-.03,0-.02,0-.03,0c0,0-.02,0-.03,0s-.02,0-.03,0-.02,0-.03,0c0,0-.02,0-.03,0h-.03s-.03,0-.03,0c0,0-.02,0-.03,0s-.02,0-.03,0h-.03s-.02,0-.03,0c0,0-.02,0-.03,0s-.02,0-.03,0-.02,0-.03,0h-.03s-.03,0-.03,0c0,0-.02,0-.03,0,0,0-.02,0-.03,0h-.03s-.02,0-.03,0h-.03s-.02,0-.03,0h-.03s-.02,0-.03,0-.02,0-.03,0c0,0-.02,0-.03,0,0,0-.02,0-.03,0h-.03s-.02,0-.03,0c0,0-.02,0-.03,0,0,0-.02,0-.03,0s-.02,0-.03,0h-.03s-.02,0-.03,0c0,0-.02,0-.03,0s-.02,0-.03,0c0,0-.02,0-.03,0s-.02,0-.03,0c0,0-.02,0-.03,0s-.02,0-.03,0c0,0-.02,0-.03,0s-.02,0-.03,0c0,0-.02,0-.03,0s-.02,0-.03,0c0,0-.02,0-.03,0s-.02,0-.03,0c0,0-.02,0-.03,0,0,0-.02,0-.03,0,0,0-.02,0-.03,0,0,0-.02,0-.03,0,0,0-.02,0-.03,0h-.03s-.02,0-.03,0c0,0-.02,0-.03,0,0,0-.02,0-.03,0,0,0-.02,0-.03,0h-.03s-.02,0-.03,0-.02,0-.03,0h-.03s-.02,0-.03,0c0,0-.02,0-.03,0h-.03s-.02,0-.03,0c0,0-.02,0-.03,0h-.03s-.02,0-.03,0c0,0-.02,0-.03,0s-.02,0-.03,0c0,0-.02,0-.03,0,0,0-.02,0-.03,0,0,0-.02,0-.03,0,0,0-.02,0-.03,0,0,0-.02,0-.03,0s-.02,0-.03,0-.02,0-.03,0c0,0-.02,0-.03,0,0,0-.02,0-.03,0,0,0-.02,0-.03,0s-.02,0-.03,0c0,0-.02,0-.03,0,0,0-.02,0-.03,0,0,0-.02,0-.03,0,0,0-.02,0-.03,0,0,0-.02,0-.03,0,0,0-.02,0-.03,0s-.02,0-.03,0c0,0-.02,0-.03,0,0,0-.02,0-.03,0,0,0-.02,0-.03,0,0,0-.02,0-.03,0,0,0-.02,0-.03,0,0,0-.02,0-.03,0,0,0-.02,0-.03,0,0,0-.02,0-.03,0,0,0-.02,0-.03,0,0,0-.02,0-.03,0,0,0-.02,0-.03,0,0,0-.02,0-.03,0,0,0-.02,0-.03,0,0,0-.02,0-.03,0,0,0-.02,0-.03,0,0,0-.02,0-.03,0,0,0-.02,0-.03,0,0,0-.02,0-.03,0,0,0-.02,0-.03,0,0,0-.02,0-.03,0,0,0-.02,0-.03,0s-.02,0-.03,0c0,0-.02,0-.03,0,0,0-.02,0-.03,0,0,0-.02,0-.03,0,0,0-.02,0-.03,0,0,0-.02,0-.03,0,0,0-.02,0-.03,0,0,0-.02,0-.03,0,0,0-.02,0-.03,0,0,0-.02,0-.03,0,0,0-.02,0-.03,0,0,0-.02,0-.03,0,0,0-.02,0-.03,0,0,0-.02,0-.03,0,0,0-.02,0-.03,0,0,0-.02,0-.03,0,0,0-.02,0-.03,0,0,0-.02,0-.03,0,0,0-.02,0-.03,0,0,0-.02,0-.03,0s-.02,0-.03,0c0,0-.02,0-.03,0,0,0-.02,0-.03,0,0,0-.02,0-.03,0,0,0-.02,0-.03,0,0,0-.02,0-.03,0,0,0-.02,0-.03,0,0,0-.02,0-.03,0,0,0-.02,0-.03,0,0,0-.02,0-.03,0,0,0-.02,0-.03,0,0,0-.02,0-.03,0,0,0-.02,0-.03,0,0,0-.02,0-.03,0,0,0-.02,0-.03,0,0,0-.02,0-.03,0s-.02,0-.03,0c0,0-.02,0-.03,0,0,0-.02,0-.03,0s-.02,0-.03,0c0,0-.02,0-.03,0s-.02,0-.03,0c0,0-.02,0-.03,0,0,0-.02,0-.03,0,0,0-.02,0-.03,0,0,0-.02,0-.03,0,0,0-.02,0-.03,0,0,0-.02,0-.03,0,0,0-.02,0-.03,0,0,0-.02,0-.03,0,0,0-.02,0-.03,0,0,0-.02,0-.03,0,0,0-.02,0-.03,0,0,0-.02,0-.03,0,0,0-.02,0-.03,0,0,0-.02,0-.03,0s-.02,0-.03,0c0,0-.02,0-.03,0,0,0-.02,0-.03,0s-.02,0-.03,0-.02,0-.03,0c0,0-.02,0-.03,0,0,0-.02,0-.03,0,0,0-.02,0-.03,0,0,0-.02,0-.03,0,0,0-.02,0-.03,0,0,0-.02,0-.03,0,0,0-.02,0-.03,0,0,0-.02,0-.03,0,0,0-.02,0-.03,0,0,0-.02,0-.03,0,0,0-.02,0-.03,0,0,0-.02,0-.03,0s-.02,0-.03,0c0,0-.02,0-.03,0,0,0-.02,0-.03,0,0,0-.02,0-.03,0,0,0-.02,0-.03,0,0,0-.02,0-.03,0,0,0-.02,0-.03,0s-.02,0-.03,0-.02,0-.03,0h-.03s-.02,0-.03,0-.02,0-.03,0-.02,0-.03,0c0,0-.02,0-.03,0,0,0-.02,0-.03,0v-6.59h7.06Zm-21.24-.06v6.58h-6.51v-6.58h6.51Zm49.04-6.89v6.53h-6.57v-6.53h6.57Zm42.65-332.74v-6.51h6.58v6.51h-6.58Zm-70.13-6.86v-6.89h1.8s.02,0,.03,0h.98s.02,0,.03,0h.54s.02,0,.03,0h.37s.02,0,.03,0h.32s.02,0,.03,0h.27s.02,0,.03,0h.21s.02,0,.03,0h.21s.02,0,.03,0h.19s.02,0,.03,0h.16s.02,0,.03,0h.16s.02,0,.03,0h.13s.02,0,.03,0h.13s.02,0,.03,0h.13s.02,0,.03,0h.11s.02,0,.03,0h.11s.02,0,.03,0h.11s.02,0,.03,0h.11s.02,0,.03,0h.08s.02,0,.03,0h.11s.02,0,.03,0h.08s.02,0,.03,0h.05v6.89h-6.89Zm-35.12,7.11v6.68h-6.7v-6.68h1.68s.02,0,.03,0h.97s.02,0,.03,0h.52s.02,0,.03,0h.37s.02,0,.03,0h.31s.02,0,.03,0h.26s.02,0,.03,0h.21s.02,0,.03,0h.21s.02,0,.03,0h.18s.02,0,.03,0h.16s.02,0,.03,0h.16s.02,0,.03,0h.13s.02,0,.03,0h.13s.02,0,.03,0h.13s.02,0,.03,0h.1s.02,0,.03,0h.1s.02,0,.03,0h.1s.02,0,.03,0h.1s.02,0,.03,0h.08s.02,0,.03,0h.1s.02,0,.03,0h.08s.02,0,.03,0h.05Zm62.93,21.27v6.45h-6.66v-6.45h6.66Zm-35.08-.07v6.45h-6.66v-6.45h6.66Zm-139.63-.41v-6.53h6.53v6.53h-6.53Zm125.58-6.54v6.39h-6.67v-6.39s6.67,0,6.67,0Zm-97.51-.45v-6.63h13.56v6.63h-13.56Zm21-.13v-13.65h6.69v.16s0,.03,0,.05v.37s0,.03,0,.05v.42s0,.03,0,.05v.42s0,.03,0,.05v.52s0,.03,0,.05v.52s0,.03,0,.05v.63s0,.03,0,.05v.73s0,.04,0,.05v.89s0,.04,0,.05v1.22s0,.04,0,.05v1.97s0,.04,0,.05v5.23h-6.69Zm209.95-13.97v-6.56h-7.09v-14.14h6.9v7h7v13.69h-6.81Zm20.71-6.7h1.59s.02,0,.03,0h.86s.02,0,.03,0h.48s.02,0,.03,0h.31s.02,0,.03,0h.28s.02,0,.03,0h.22s.02,0,.03,0h.19s.02,0,.03,0h.16s.02,0,.03,0h.14s.02,0,.03,0h.13s.02,0,.03,0h.13s.02,0,.03,0h.11s.02,0,.03,0h.11s.02,0,.03,0h.11s.02,0,.03,0h.08s.02,0,.03,0h.08s.02,0,.03,0h.08s.02,0,.03,0h.08s.02,0,.03,0h.08s.02,0,.03,0h.08s.02,0,.03,0h.05s.02,0,.03,0h.08s.02,0,.03,0h.05s.02,0,.03,0h.05s.02,0,.03,0h.05s.02,0,.03,0h.05s.02,0,.03,0h.05s.02,0,.03,0h.05s.02,0,.03,0h.05s.02,0,.03,0h.03s.02,0,.03,0h.05s.02,0,.03,0h.05s.02,0,.03,0h.03s.02,0,.03,0h.05s.02,0,.03,0h.03s.02,0,.03,0h.05s.02,0,.03,0h.03s.02,0,.03,0h.03v13.69h-13.73v-6.63h6.61v-7.06h0Zm-132.93,6.68h-6.7v-6.68h1.86s.02,0,.03,0h1.05s.02,0,.03,0h.58s.02,0,.03,0h.39s.02,0,.03,0h.34s.02,0,.03,0h.29s.02,0,.03,0h.26s.02,0,.03,0h.21s.02,0,.03,0h.21s.02,0,.03,0h.18s.02,0,.03,0h.16s.02,0,.03,0h.16s.02,0,.03,0h.13s.02,0,.03,0h.13s.02,0,.03,0h.13s.02,0,.03,0h.13s.02,0,.03,0h.08v6.68h0Zm-14.23,.02h-6.68v-2.05s0-.02,0-.03v-1.23s0-.02,0-.03v-.65s0-.02,0-.03v-.47s0-.02,0-.03v-.39s0-.02,0-.03v-.31s0-.02,0-.03v-.29s0-.02,0-.03v-.26s0-.02,0-.03v-.24s0-.02,0-.03v-.21s0-.02,0-.03v-.18s0-.02,0-.03v-.13h6.68v6.7h0Zm-20.67-6.71h1.96s.02,0,.03,0h1.08s.02,0,.03,0h.59s.02,0,.03,0h.4s.02,0,.03,0h.35s.02,0,.03,0h.29s.02,0,.03,0h.26s.02,0,.03,0h.21s.02,0,.03,0h.21s.02,0,.03,0h.18s.02,0,.03,0h.16s.02,0,.03,0h.16s.02,0,.03,0h.13s.02,0,.03,0h.13s.02,0,.03,0h.13s.02,0,.03,0h.13s.02,0,.03,0h.08v6.89h-6.89v-6.89h0Zm-48.98,.14v6.78h-7.05v-6.78h1.07s.02,0,.03,0h.36s.02,0,.03,0h.22s.02,0,.03,0h.17s.02,0,.03,0h.14s.02,0,.03,0h.11s.02,0,.03,0h.08s.02,0,.03,0h.08s.02,0,.03,0h.08s.02,0,.03,0h.06s.02,0,.03,0h.06s.02,0,.03,0h.06s.02,0,.03,0h.06s.02,0,.03,0h.06s.02,0,.03,0h.03s.02,0,.03,0h.06s.02,0,.03,0h.03s.02,0,.03,0h.03s.02,0,.03,0h.06s.02,0,.03,0h.03s.02,0,.03,0h.03s.02,0,.03,0h.03s.02,0,.03,0,.02,0,.03,0h.03s.02,0,.03,0h.03s.02,0,.03,0h.03s.02,0,.03,0h.03s.02,0,.03,0,.02,0,.03,0h.03s.02,0,.03,0,.02,0,.03,0h.03s.02,0,.03,0,.02,0,.03,0h.03s.02,0,.03,0,.02,0,.03,0h.03s.02,0,.03,0,.02,0,.03,0,.02,0,.03,0h.03s.02,0,.03,0,.02,0,.03,0,.02,0,.03,0h.03s.02,0,.03,0,.02,0,.03,0,.02,0,.03,0,.02,0,.03,0c0,0,.02,0,.03,0h.03s.02,0,.03,0c0,0,.02,0,.03,0s.02,0,.03,0,.02,0,.03,0,.02,0,.03,0c0,0,.02,0,.03,0,0,0,.02,0,.03,0,0,0,.02,0,.03,0,0,0,.02,0,.03,0,0,0,.02,0,.03,0h.03s.02,0,.03,0c0,0,.02,0,.03,0,0,0,.02,0,.03,0,0,0,.02,0,.03,0,0,0,.02,0,.03,0,0,0,.02,0,.03,0,0,0,.02,0,.03,0,0,0,.02,0,.03,0,0,0,.02,0,.03,0,0,0,.02,0,.03,0s.02,0,.03,0,.02,0,.03,0,.02,0,.03,0c0,0,.02,0,.03,0,0,0,.02,0,.03,0,0,0,.02,0,.03,0,0,0,.02,0,.03,0s.02,0,.03,0,.02,0,.03,0c0,0,.02,0,.03,0,0,0,.02,0,.03,0,0,0,.02,0,.03,0s.02,0,.03,0c0,0,.02,0,.03,0,0,0,.02,0,.03,0,0,0,.02,0,.03,0,0,0,.02,0,.03,0,0,0,.02,0,.03,0,0,0,.02,0,.03,0,0,0,.02,0,.03,0,0,0,.02,0,.03,0,0,0,.02,0,.03,0,0,0,.02,0,.03,0,0,0,.02,0,.03,0s.02,0,.03,0c0,0,.02,0,.03,0,0,0,.02,0,.03,0,0,0,.02,0,.03,0,0,0,.02,0,.03,0,0,0,.02,0,.03,0,0,0,.02,0,.03,0,0,0,.02,0,.03,0,0,0,.02,0,.03,0,0,0,.02,0,.03,0,0,0,.02,0,.03,0,0,0,.02,0,.03,0s.02,0,.03,0c0,0,.02,0,.03,0,0,0,.02,0,.03,0,0,0,.02,0,.03,0,0,0,.02,0,.03,0,0,0,.02,0,.03,0,0,0,.02,0,.03,0,0,0,.02,0,.03,0,0,0,.02,0,.03,0,0,0,.02,0,.03,0,0,0,.02,0,.03,0,0,0,.02,0,.03,0,0,0,.02,0,.03,0,0,0,.02,0,.03,0,0,0,.02,0,.03,0,0,0,.02,0,.03,0,0,0,.02,0,.03,0s.02,0,.03,0c0,0,.02,0,.03,0,0,0,.02,0,.03,0,0,0,.02,0,.03,0,0,0,.02,0,.03,0,0,0,.02,0,.03,0,0,0,.02,0,.03,0,0,0,.02,0,.03,0,0,0,.02,0,.03,0,0,0,.02,0,.03,0,0,0,.02,0,.03,0,0,0,.02,0,.03,0,0,0,.02,0,.03,0,0,0,.02,0,.03,0,0,0,.02,0,.03,0,0,0,.02,0,.03,0,0,0,.02,0,.03,0,0,0,.02,0,.03,0,0,0,.02,0,.03,0,0,0,.02,0,.03,0,0,0,.02,0,.03,0,0,0,.02,0,.03,0,0,0,.02,0,.03,0h0Zm-42.16,6.55h-6.7v-6.68h1.86s.02,0,.03,0h1.05s.02,0,.03,0h.58s.02,0,.03,0h.39s.02,0,.03,0h.34s.02,0,.03,0h.29s.02,0,.03,0h.26s.02,0,.03,0h.21s.02,0,.03,0h.21s.02,0,.03,0h.18s.02,0,.03,0h.16s.02,0,.03,0h.16s.02,0,.03,0h.13s.02,0,.03,0h.13s.02,0,.03,0h.13s.02,0,.03,0h.13s.02,0,.03,0h.08v6.68h0Zm35-27.68v6.9h-6.68v-6.9h6.68Zm-14.21,0v20.7h-6.7v-7.21s0-.05,0-.08v-3.48s0-.05,0-.08v-2.02s0-.05,0-.08v-1.53s0-.05,0-.08v-1.21s0-.05,0-.08v-.97s0-.05,0-.08v-.89s0-.05,0-.08v-.81s0-.05,0-.08v-.73s0-.05,0-.08v-.73s0-.05,0-.08v-.32h6.7Z"/>
          </g>
          <rect class="cls-1" x="363.49" y="112.91" width="3.8" height="3.8"/>
          <rect class="cls-1" x="367.35" y="116.57" width="3.8" height="3.8"/>
          <rect class="cls-1" x="367.28" y="109.11" width="3.8" height="3.8"/>
          <rect class="cls-1" x="370.95" y="112.91" width="3.8" height="3.8"/>
          <rect class="cls-1" x="441.66" y="166.82" width="3.8" height="3.8"/>
          <rect class="cls-1" x="445.53" y="170.49" width="3.8" height="3.8"/>
          <rect class="cls-1" x="445.46" y="163.02" width="3.8" height="3.8"/>
          <rect class="cls-1" x="449.13" y="166.82" width="3.8" height="3.8"/>
          <rect class="cls-1" x="165.54" y="146.53" width="3.8" height="3.8"/>
          <rect class="cls-1" x="169.4" y="150.2" width="3.8" height="3.8"/>
          <rect class="cls-1" x="169.33" y="142.73" width="3.8" height="3.8"/>
          <rect class="cls-1" x="173" y="146.53" width="3.8" height="3.8"/>
          <path class="cls-21" d="M76.08,203.55s21.63-21.12,23.69-25.24,30.9-52.54,38.11-59.75c7.21-7.21,15.97-24.21,24.21-20.6s14.42,14.42,10.82,25.75-9.27,26.78-14.94,33.99c-5.67,7.21-20.09,20.09-22.15,33.48s-3.09,97.35-40.18,115.89c0,0-30.39,19.06-35.02,9.79s-18.54-91.17,15.45-113.31h0Z"/>
          <path class="cls-5" d="M90.97,187.51c3.86-4.08,7.1-7.73,7.84-9.2,2.06-4.12,30.9-52.54,38.11-59.75,7.21-7.21,15.97-24.21,24.21-20.6s14.42,14.42,10.82,25.75-9.27,26.78-14.94,33.99c-5.67,7.21-20.09,20.09-22.15,33.48-2.06,13.39-3.09,97.35-40.18,115.89,0,0-5.71,3.58-12.55,6.88"/>
          <path class="cls-3" d="M139.12,118.24s13.07,14.17,19.77,9.41,12.65-24.55,12.28-26.33c-.37-1.79-8.27-14.68-18.08-3.7,0,0-14.84,18.05-13.96,20.62Z"/>
          <path class="cls-5" d="M134.66,126.78s12.28,3.52,16.25,9.88"/>
          <path class="cls-2" d="M127.57,65.74c-3.95-.48-30,20.48-30,20.48l-38.79,36.94c-11.4,3.03-21.96,14.77-28.26,24.33-6.45,9.79-6.91,22.22-9.16,33.38-2.78,13.79-5.56,27.57-8.33,41.36-5.59,27.77-11.19,55.54-16.78,83.31l-110.26,298.82"/>
          <path class="cls-5" d="M128.99,98.32l-7.97,7.1s-4.81,21.81-21.33,35.71"/>
          <path class="cls-5" d="M120.51,106.09s.45-6.62-3.57-9.78"/>
          <line class="cls-5" x1="109.55" y1="130.32" x2="128.99" y2="122.45"/>
          <path class="cls-5" d="M80.34,168.72s9.37,8.86,4.61,18.26"/>
          <path class="cls-5" d="M36.45,154.19s-3.38,2.02-3.38,8.52"/>
          <path class="cls-5" d="M101.48,303.42s-11.23,33.56-34.41,43.45"/>
          <line class="cls-2" x1="19.75" y1="596.16" x2="67.07" y2="335.04"/>
          <path class="cls-11" d="M-35.33,364.76c4.5-.52,10.69,.34,12.42,.35,16.44,.16,32.88,.36,49.32,.57,8.22,.1,16.44,.21,24.66,.32,4.11,.05,8.22,.11,12.33,.16,2.8,.04,6.29-.39,8.16,2.2,1.23,1.69,.88,3.63,1.14,5.55,.26,2.7,1.29,9.07-2.65,9.14-32.57,.63-65.14,1.21-97.71,2.11-4.27,.12-8.54,.24-12.81,.37-.8,.02-1.63,.04-2.36-.27-3.35-1.44,.11-7.18,.54-9.43,.47-2.5,1.94-5.56,2.01-8.03,.05-1.87,2.18-2.71,4.95-3.02h0Z"/>
          <path class="cls-8" d="M-42.06,395.93s95.51,10.31,101.76,12.99c0,0,3.92,12.45-1.44,14.68s-96.92-12.5-101.35-13.83-2.89-9.37,1.03-13.83h0Z"/>
          <path class="cls-9" d="M58.46,419.2c-.87,.06-1.76,.26-2.61,.23-1.7-.06-3.41-.4-4.76-1.49-1.1-.89-1.81-2.15-2.69-3.25s-2.08-2.11-3.49-2.13c-.82-.01-1.6,.31-2.32,.69-1.65,.88-3.1,2.09-4.75,2.98-7.73,4.2-11.26-5.65-17.94-7.02-3.18-.65-5.97,.91-8.77,2.14-3.34,1.47-6.53,1.51-9.64-.51-1.65-1.08-3.13-2.42-4.87-3.36-4.45-2.42-8.42,.5-12.87,1.2-5.13,.81-9.59-1.47-13.6-4.43-1.15-.85-2.36-1.68-3.74-2.09-2.22-.66-3.96,.22-5.69,1.53-1.31,.98-3.34,2.71-5,1.47"/>
          <path class="cls-22" d="M6.09,408.65h.1c.28,.01,.53-.05,.77-.17,.25-.08,.46-.22,.65-.42,.2-.18,.33-.4,.42-.65,.13-.24,.18-.5,.17-.77l-.07-.53c-.1-.34-.27-.64-.52-.89l-.41-.31c-.31-.18-.65-.27-1.01-.27h-.1c-.28-.01-.53,.05-.77,.17-.25,.08-.46,.22-.65,.42-.2,.18-.33,.4-.42,.65-.13,.24-.18,.5-.17,.77l.07,.53c.1,.34,.27,.64,.52,.89l.41,.31c.31,.18,.65,.27,1.01,.27h0Z"/>
          <path class="cls-22" d="M17.7,416.87l.84,.11c.28,.01,.53-.05,.77-.17,.25-.08,.46-.22,.65-.42,.35-.35,.61-.92,.59-1.42-.02-.52-.19-1.06-.59-1.42l-.41-.31c-.31-.18-.65-.27-1.01-.27l-.84-.11c-.28-.01-.53,.05-.77,.17-.25,.08-.46,.22-.65,.42-.35,.35-.61,.92-.59,1.42,.02,.52,.19,1.06,.59,1.42l.41,.31c.31,.18,.65,.27,1.01,.27h0Z"/>
          <path class="cls-22" d="M33.82,412.47l1.04,.2c.54,.1,1.06,.08,1.55-.2,.42-.24,.81-.72,.92-1.2,.12-.51,.09-1.09-.2-1.55-.27-.42-.69-.83-1.2-.92-.35-.07-.69-.13-1.04-.2-.54-.1-1.06-.08-1.55,.2-.42,.24-.81,.72-.92,1.2-.12,.51-.09,1.09,.2,1.55,.27,.42,.69,.83,1.2,.92h0Z"/>
          <path class="cls-22" d="M42.74,420.7h.4c.28,.01,.53-.05,.77-.17,.25-.08,.46-.22,.65-.42,.2-.18,.33-.4,.42-.65,.13-.24,.18-.5,.17-.77l-.07-.53c-.1-.34-.27-.64-.52-.89l-.41-.31c-.31-.18-.65-.27-1.01-.27h-.4c-.28-.01-.53,.05-.77,.17-.25,.08-.46,.22-.65,.42-.2,.18-.33,.4-.42,.65-.13,.24-.18,.5-.17,.77l.07,.53c.1,.34,.27,.64,.52,.89l.41,.31c.31,.18,.65,.27,1.01,.27h0Z"/>
          <path class="cls-22" d="M53.11,414.17l1.83,.45c1.02,.25,2.23-.33,2.47-1.4,.24-1.04-.31-2.2-1.4-2.47-.61-.15-1.22-.3-1.83-.45-1.02-.25-2.23,.33-2.47,1.4-.24,1.04,.31,2.2,1.4,2.47h0Z"/>
          <path class="cls-7" d="M51.66,430.94c2.27,0,11.03-.95,10.88-4.32-.18-4.16-17.82-6.21-20.99-6.65-15.51-2.15-31.21-2.35-46.82-2.92-9.8-.36-19.59-1.41-29.4-1.03-5.15,.2-10.37,.65-15.39,1.84-3.15,.74-15.87,6.16-6.99,9.77,1.68,.68,5.94,1.43,7.75,1.33"/>
          <path class="cls-7" d="M-45.78,399.45c-3.16-.98-4.91-2.05-4.91-3.18,0-4.49,27.69-8.14,61.85-8.14s61.85,3.64,61.85,8.14c0,2.08-5.92,3.97-15.65,5.41"/>
          <path class="cls-21" d="M506.65,208.77s-24.86-17.21-27.58-20.93-39.25-46.64-47.56-52.54-19.79-21.2-27.31-16.27c-7.52,4.93-11.81,16.63-6.36,27.2s13.62,24.86,20.41,31.02c6.79,6.16,23.16,16.45,27.43,29.31s19.31,95.46,58.97,107.55c0,0,33.15,13.71,36.17,3.8,3.02-9.92,3.05-92.98-34.16-109.14h0Z"/>
          <path class="cls-5" d="M489.28,195.45c-4.49-3.38-8.29-6.43-9.26-7.76-2.72-3.72-39.25-46.64-47.56-52.54s-19.79-21.2-27.31-16.27c-7.52,4.93-11.81,16.63-6.36,27.2s13.62,24.86,20.41,31.02c6.79,6.16,23.16,16.45,27.43,29.31s19.31,95.46,58.97,107.55c0,0,6.23,2.58,13.53,4.69"/>
          <path class="cls-3" d="M430.24,135.2s-10.52,16.16-17.92,12.58-16.57-22.09-16.5-23.91,5.7-15.86,17.21-6.67c0,0,17.64,15.32,17.21,18Z"/>
          <path class="cls-5" d="M436.07,142.87s-11.52,5.52-14.37,12.46"/>
        </g>
      </g>
    </g>
  </g>
</svg>