<?xml version="1.0" encoding="UTF-8"?>
<svg id="Capa_2" data-name="Capa 2" xmlns="http://www.w3.org/2000/svg" viewBox="0 0 108.39 102.99">
  <defs>
    <style>
      .cls-1 {
        fill: #fff;
      }

      .cls-1, .cls-2, .cls-3, .cls-4, .cls-5 {
        stroke-width: 0px;
      }

      .cls-2 {
        fill: #231f20;
      }

      .cls-3 {
        fill: #e8a331;
      }

      .cls-4 {
        fill: #e58e31;
      }

      .cls-5 {
        fill: #f4c529;
      }
    </style>
  </defs>
  <g id="Capa_1-2" data-name="Capa 1">
    <g>
      <rect class="cls-5" x="91.05" y="41.22" width="4.34" height="4.12"/>
      <g>
        <polygon class="cls-5" points="65.04 41.2 69.37 41.2 73.71 41.2 78.04 41.2 82.38 41.2 86.71 41.2 91.05 41.2 91.05 37.08 86.71 37.08 82.38 37.08 78.04 37.08 73.71 37.08 69.37 37.08 69.37 32.96 65.04 32.96 65.04 37.08 65.04 41.2"/>
        <rect class="cls-2" x="78.16" y="37.08" width="12.89" height="4.12"/>
        <polygon class="cls-5" points="65.04 24.72 60.7 24.72 60.7 28.84 60.7 32.96 65.04 32.96 65.04 28.84 65.04 24.72"/>
        <polygon class="cls-5" points="60.7 16.48 56.37 16.48 56.37 12.36 56.37 8.24 52.03 8.24 52.03 12.36 52.03 16.48 52.03 20.6 47.69 20.6 47.69 24.72 47.69 28.84 47.69 32.96 43.36 32.96 43.36 37.08 43.36 41.2 39.02 41.2 34.68 41.2 30.35 41.2 26.01 41.2 21.68 41.2 21.68 45.32 21.68 49.44 26.01 49.44 26.01 53.56 30.35 53.56 30.35 57.68 34.68 57.68 34.68 61.8 34.68 65.92 34.68 70.04 34.68 74.16 34.68 78.28 34.68 82.4 39.02 82.4 43.36 82.4 43.36 78.28 47.69 78.28 52.03 78.28 52.03 74.16 56.37 74.16 60.7 74.16 60.7 78.28 65.04 78.28 65.04 82.4 69.37 82.4 69.37 86.52 73.71 86.52 73.71 90.64 78.04 90.64 78.04 94.76 82.38 94.76 82.38 90.64 82.38 86.52 82.38 82.4 78.04 82.4 78.04 78.28 78.04 74.16 78.04 70.04 78.04 65.92 73.71 65.92 73.71 61.8 73.71 57.68 78.04 57.68 82.38 57.68 82.38 53.56 86.71 53.56 86.71 49.44 91.05 49.44 91.05 45.32 86.71 45.32 82.38 45.32 78.04 45.32 73.71 45.32 73.71 49.44 69.37 49.44 65.04 49.44 60.7 49.44 60.7 45.32 60.7 41.2 60.7 37.08 56.37 37.08 56.37 32.96 56.37 28.84 56.37 24.72 60.7 24.72 60.7 20.6 60.7 16.48"/>
      </g>
      <g>
        <polygon class="cls-2" points="26.01 94.76 26.01 90.64 26.01 86.52 26.01 82.4 21.68 82.4 21.68 86.52 21.68 90.64 21.68 94.76 21.68 98.87 21.68 102.99 26.01 102.99 26.01 98.87 30.35 98.87 34.68 98.87 34.68 94.76 30.35 94.76 26.01 94.76"/>
        <rect class="cls-2" x="69.37" y="90.64" width="4.34" height="4.12"/>
        <rect class="cls-2" x="34.68" y="90.64" width="4.34" height="4.12"/>
        <polygon class="cls-2" points="82.38 90.64 82.38 94.76 78.04 94.76 73.71 94.76 73.71 98.87 78.04 98.87 82.38 98.87 82.38 102.99 86.71 102.99 86.71 98.87 86.71 94.76 86.71 90.64 86.71 86.52 82.38 86.52 82.38 90.64"/>
        <polygon class="cls-2" points="65.04 86.52 60.7 86.52 60.7 90.64 65.04 90.64 69.37 90.64 69.37 86.52 65.04 86.52"/>
        <polygon class="cls-2" points="39.02 86.52 39.02 90.64 43.36 90.64 47.69 90.64 47.69 86.52 43.36 86.52 39.02 86.52"/>
        <polygon class="cls-2" points="56.37 82.4 52.03 82.4 47.69 82.4 47.69 86.52 52.03 86.52 56.37 86.52 60.7 86.52 60.7 82.4 56.37 82.4"/>
        <polygon class="cls-2" points="30.35 78.28 30.35 74.16 30.35 70.04 30.35 65.92 30.35 61.8 26.01 61.8 26.01 65.92 26.01 70.04 26.01 74.16 26.01 78.28 26.01 82.4 30.35 82.4 30.35 78.28"/>
        <polygon class="cls-2" points="78.04 65.92 78.04 70.04 78.04 74.16 82.38 74.16 82.38 70.04 82.38 65.92 82.38 61.8 78.04 61.8 78.04 65.92"/>
        <rect class="cls-2" x="82.38" y="57.68" width="4.34" height="4.12"/>
        <rect class="cls-2" x="21.68" y="57.68" width="4.33" height="4.12"/>
        <rect class="cls-2" x="86.71" y="53.56" width="4.34" height="4.12"/>
        <rect class="cls-2" x="17.34" y="53.56" width="4.33" height="4.12"/>
        <rect class="cls-2" x="91.05" y="49.44" width="4.34" height="4.12"/>
        <rect class="cls-2" x="13.01" y="49.44" width="4.34" height="4.12"/>
        <rect class="cls-2" x="95.39" y="45.32" width="4.33" height="4.12"/>
        <rect class="cls-2" x="8.67" y="45.32" width="4.34" height="4.12"/>
        <polygon class="cls-2" points="104.06 37.08 99.72 37.08 95.39 37.08 91.05 37.08 91.05 41.2 95.39 41.2 99.72 41.2 99.72 45.32 104.06 45.32 104.06 41.2 108.39 41.2 108.39 37.08 104.06 37.08"/>
        <polygon class="cls-2" points="13.01 41.2 17.34 41.2 21.68 41.2 26.01 41.2 30.35 41.2 30.35 37.08 26.01 37.08 21.68 37.08 17.34 37.08 13.01 37.08 8.67 37.08 4.34 37.08 0 37.08 0 41.2 4.34 41.2 4.34 45.32 8.67 45.32 8.67 41.2 13.01 41.2"/>
        <polygon class="cls-2" points="73.71 37.08 78.04 37.08 78.04 32.96 73.71 32.96 69.37 32.96 69.37 37.08 73.71 37.08"/>
        <polygon class="cls-2" points="39.02 37.08 39.02 32.96 34.68 32.96 30.35 32.96 30.35 37.08 34.68 37.08 39.02 37.08"/>
        <polygon class="cls-2" points="43.36 28.84 43.36 24.72 39.02 24.72 39.02 28.84 39.02 32.96 43.36 32.96 43.36 28.84"/>
        <polygon class="cls-2" points="69.37 24.72 65.04 24.72 65.04 28.84 65.04 32.96 69.37 32.96 69.37 28.84 69.37 24.72"/>
        <polygon class="cls-2" points="47.69 20.6 47.69 16.48 43.36 16.48 43.36 20.6 43.36 24.72 47.69 24.72 47.69 20.6"/>
        <rect class="cls-2" x="60.7" y="16.48" width="4.34" height="4.12"/>
        <polygon class="cls-2" points="60.7 8.24 56.37 8.24 56.37 12.36 56.37 16.48 60.7 16.48 60.7 12.36 60.7 8.24"/>
        <rect class="cls-2" x="47.69" y="8.24" width="4.33" height="4.12"/>
        <rect class="cls-2" x="52.03" width="4.34" height="4.12"/>
      </g>
      <polygon class="cls-1" points="91.05 41.2 86.71 41.2 82.38 41.2 78.04 41.2 73.71 41.2 69.37 41.2 65.04 41.2 65.04 37.08 65.04 32.96 60.7 32.96 60.7 28.84 60.7 24.72 56.37 24.72 56.37 28.84 56.37 32.96 56.37 37.08 60.7 37.08 60.7 41.2 60.7 45.32 60.7 49.44 65.04 49.44 69.37 49.44 69.37 49.44 73.71 49.44 73.71 45.32 73.71 45.32 78.04 45.32 82.38 45.32 86.71 45.32 91.05 45.32 95.39 45.32 95.39 41.2 91.05 41.2"/>
      <g>
        <rect class="cls-3" x="73.71" y="90.64" width="4.34" height="4.12"/>
        <rect class="cls-3" x="69.37" y="86.52" width="4.34" height="4.12"/>
        <rect class="cls-2" x="82.38" y="82.4" width="4.34" height="4.12"/>
        <polygon class="cls-4" points="65.04 82.4 65.04 78.28 60.7 78.28 60.7 74.16 56.37 74.16 52.03 74.16 52.03 78.28 47.69 78.28 43.36 78.28 43.36 82.4 39.02 82.4 34.68 82.4 34.68 78.28 34.68 74.16 34.68 70.04 34.68 65.92 34.68 61.8 34.68 57.68 30.35 57.68 30.35 53.56 26.01 53.56 26.01 49.44 21.68 49.44 21.68 45.32 21.68 41.2 17.34 41.2 13.01 41.2 8.67 41.2 8.67 45.32 13.01 45.32 13.01 49.44 17.34 49.44 17.34 53.56 21.68 53.56 21.68 57.68 26.01 57.68 26.01 61.8 30.35 61.8 30.35 65.92 30.35 70.04 30.35 74.16 30.35 78.28 30.35 82.4 26.01 82.4 26.01 86.52 26.01 90.64 26.01 94.76 30.35 94.76 34.68 94.76 34.68 90.64 39.02 90.64 39.02 86.52 43.36 86.52 47.69 86.52 47.69 82.4 52.03 82.4 56.37 82.4 60.7 82.4 60.7 86.52 65.04 86.52 69.37 86.52 69.37 82.4 65.04 82.4"/>
        <polygon class="cls-2" points="82.38 74.16 78.04 74.16 78.04 78.28 78.04 82.4 82.38 82.4 82.38 78.28 82.38 74.16"/>
        <polygon class="cls-3" points="73.71 57.68 73.71 61.8 73.71 65.92 78.04 65.92 78.04 61.8 82.38 61.8 82.38 57.68 78.04 57.68 73.71 57.68"/>
        <rect class="cls-3" x="82.38" y="53.56" width="4.34" height="4.12"/>
        <rect class="cls-3" x="86.71" y="49.44" width="4.34" height="4.12"/>
        <polygon class="cls-3" points="95.39 41.2 91.05 41.2 91.05 45.32 91.05 49.44 95.39 49.44 95.39 45.32 99.72 45.32 99.72 41.2 95.39 41.2"/>
        <polygon class="cls-3" points="39.02 41.2 43.36 41.2 43.36 37.08 43.36 32.96 39.02 32.96 39.02 37.08 34.68 37.08 30.35 37.08 30.35 41.2 34.68 41.2 39.02 41.2"/>
        <polygon class="cls-3" points="47.69 28.84 47.69 24.72 43.36 24.72 43.36 28.84 43.36 32.96 47.69 32.96 47.69 28.84"/>
        <rect class="cls-2" x="60.7" y="20.6" width="4.34" height="4.12"/>
        <polygon class="cls-2" points="52.03 16.48 52.03 12.36 47.69 12.36 47.69 16.48 47.69 20.6 52.03 20.6 52.03 16.48"/>
        <rect class="cls-2" x="52.03" y="4.12" width="4.34" height="4.12"/>
      </g>
    </g>
  </g>
</svg>