<?xml version="1.0" encoding="UTF-8"?>
<svg id="Capa_2" data-name="Capa 2" xmlns="http://www.w3.org/2000/svg" viewBox="0 0 702.21 59.99">
  <defs>
    <style>
      .cls-1 {
        fill: #ffda25;
        stroke-width: 0px;
      }
    </style>
  </defs>
  <g id="Capa_1-2" data-name="Capa 1">
    <g>
      <path class="cls-1" d="M18.79,45.65c.6,3.67,1.33,7.83,1.33,9.76,0,3.61-1.45,4.58-5.48,4.58H5.48c-4.04,0-5.48-.96-5.48-4.58,0-1.93.72-6.08,1.33-9.76l2.77-15.24h11.93l2.77,15.24ZM17.77,22.58c0,3.55-1.38,4.58-5.96,4.58h-3.31c-4.64,0-6.02-1.02-6.02-4.58v-2.11c0-3.55,1.39-4.58,6.02-4.58h3.31c4.58,0,5.96,1.02,5.96,4.58v2.11Z"/>
      <path class="cls-1" d="M29.15,9.46h20.66l6.57,22.1h.12l6.99-22.1h20.18v43h-14.76l.6-25.9h-.12l-8.67,25.9h-8.61l-8.67-25.9h-.12l.6,25.9h-14.76V9.46Z"/>
      <path class="cls-1" d="M92.62,9.46h16.56v43h-16.56V9.46Z"/>
      <path class="cls-1" d="M118.46,41.31c1.99.36,5.72.96,14.94.96,3.43,0,5.06-.48,5.06-2.89s-.78-2.95-4.34-2.95h-3.79c-7.77,0-13.55-1.39-13.55-14.15s9.39-13.91,19.03-13.91c6.32,0,13.73.9,17.47,1.45v12.77c-4.04-.3-8.43-.9-13.97-.9-5,0-6.38.78-6.38,3.01,0,1.63.84,2.59,4.52,2.59,13.01,0,17.16,1.63,17.16,12.29,0,12.35-7.41,13.97-18.07,13.97-5.96,0-12.11-.48-18.07-1.2v-11.02Z"/>
      <path class="cls-1" d="M162.18,9.46h16.56v43h-16.56V9.46Z"/>
      <path class="cls-1" d="M209.16,8.37c16.08,0,22.4,5.24,22.4,21.08s-5.84,24.09-22.4,24.09-22.4-8.07-22.4-24.09,6.32-21.08,22.4-21.08ZM205.3,0h14.51l-4.52,6.69h-12.89l2.89-6.69ZM215.84,31.86c0-5.3-.9-8.85-6.69-8.85s-6.68,3.55-6.68,8.85c0,6.38,2.17,9.15,6.68,9.15s6.69-2.77,6.69-9.15Z"/>
      <path class="cls-1" d="M237.94,9.46h18.79l9.64,23.79h.12l-1.08-23.79h15.42v43h-17.16l-11.26-26.32h-.12l1.08,26.32h-15.42V9.46Z"/>
      <path class="cls-1" d="M344.96,25.29c-2.17-.3-5.48-1.08-11.08-1.08s-9.39,1.63-9.39,7.77,3.97,7.35,9.27,7.35c3.61,0,7.29-.66,11.2-1.39v13.07c-5.3,1.45-10.42,2.53-15.6,2.53-16.08,0-22.28-7.41-22.28-23.13,0-14.15,5.9-22.04,21.92-22.04,5.9,0,13.01,1.99,15.96,2.83v14.09Z"/>
      <path class="cls-1" d="M394.7,38.67c0,11.68-7.77,14.88-21.44,14.88s-21.44-3.19-21.44-14.88V9.46h16.56v28.61c0,3.61,2.35,4.22,4.88,4.22s4.88-.6,4.88-4.22V9.46h16.56v29.21Z"/>
      <path class="cls-1" d="M402.05,9.46h20.66l6.57,22.1h.12l6.99-22.1h20.18v43h-14.76l.6-25.9h-.12l-8.67,25.9h-8.61l-8.67-25.9h-.12l.6,25.9h-14.76V9.46Z"/>
      <path class="cls-1" d="M463.9,9.46h27.82c9.88,0,15.54,2.53,15.54,15.18,0,10-4.82,15.84-15.96,15.84h-10.84v11.98h-16.56V9.46ZM480.46,30.41h4.82c3.98,0,5.84-1.39,5.84-4.94s-1.63-4.76-4.88-4.76h-5.78v9.7Z"/>
      <path class="cls-1" d="M514.13,9.46h16.56v29.21h16.8v13.79h-33.37V9.46Z"/>
      <path class="cls-1" d="M554.42,9.46h16.56v43h-16.56V9.46Z"/>
      <path class="cls-1" d="M579.95,9.46h20.9c13.85,0,22.95,3.01,22.95,20.48,0,14.15-5.96,22.52-19.21,22.52h-24.63V9.46ZM595.67,40.41h4.46c6.32,0,7.53-3.43,7.53-9.27s-1.26-7.89-8.01-7.89h-3.98v17.16Z"/>
      <path class="cls-1" d="M657.7,45.83h-12.41l-1.39,6.62h-16.56l12.05-43h24.75l11.74,43h-16.8l-1.38-6.62ZM651.56,16.56h-.12l-3.92,18.43h7.95l-3.92-18.43Z"/>
      <path class="cls-1" d="M683.42,22.71c-.6-3.67-1.33-7.83-1.33-9.76,0-3.61,1.45-4.58,5.48-4.58h9.15c4.04,0,5.48.96,5.48,4.58,0,1.93-.72,6.08-1.33,9.76l-2.77,15.24h-11.93l-2.77-15.24ZM684.5,45.77c0-3.55,1.38-4.58,5.96-4.58h3.31c4.64,0,6.02,1.02,6.02,4.58v2.11c0,3.55-1.38,4.58-6.02,4.58h-3.31c-4.58,0-5.96-1.02-5.96-4.58v-2.11Z"/>
    </g>
  </g>
</svg>