<?xml version="1.0" encoding="UTF-8"?>
<svg xmlns="http://www.w3.org/2000/svg" xmlns:xlink="http://www.w3.org/1999/xlink" viewBox="0 0 381.95 1198.91">
  <defs>
    <style>
      .cls-1 {
        fill: #ccff9a;
      }

      .cls-1, .cls-2, .cls-3, .cls-4, .cls-5, .cls-6, .cls-7, .cls-8, .cls-9, .cls-10, .cls-11, .cls-12, .cls-13, .cls-14, .cls-15, .cls-16, .cls-17, .cls-18, .cls-19, .cls-20, .cls-21, .cls-22, .cls-23, .cls-24, .cls-25, .cls-26 {
        stroke-width: 0px;
      }

      .cls-2 {
        fill: url(#linear-gradient-12);
      }

      .cls-3 {
        fill: url(#linear-gradient-17);
      }

      .cls-4 {
        fill: url(#linear-gradient-19);
      }

      .cls-5 {
        fill: url(#linear-gradient);
      }

      .cls-27 {
        font-size: 15.29px;
      }

      .cls-27, .cls-28, .cls-13, .cls-29 {
        fill: #fff;
      }

      .cls-27, .cls-28, .cls-29 {
        font-family: OpenSans-Semibold, 'Open Sans';
        font-weight: 600;
      }

      .cls-28 {
        font-size: 14.24px;
      }

      .cls-6 {
        fill: url(#linear-gradient-6);
      }

      .cls-30 {
        mask: url(#mask-2);
      }

      .cls-31 {
        isolation: isolate;
      }

      .cls-7 {
        fill: #f9b333;
      }

      .cls-8 {
        fill: url(#linear-gradient-15);
      }

      .cls-9 {
        fill: url(#linear-gradient-11);
      }

      .cls-32 {
        mask: url(#mask-3);
      }

      .cls-33 {
        stroke-width: 3.05px;
      }

      .cls-33, .cls-34 {
        fill: #d33054;
        stroke: #373151;
        stroke-miterlimit: 10;
      }

      .cls-10 {
        fill: url(#linear-gradient-5);
      }

      .cls-35 {
        mask: url(#mask-9);
      }

      .cls-36 {
        mask: url(#mask-5);
      }

      .cls-11 {
        fill: url(#linear-gradient-13);
      }

      .cls-37 {
        font-size: 21.46px;
      }

      .cls-37, .cls-38 {
        fill: #063244;
        font-family: OpenSans, 'Open Sans';
      }

      .cls-34 {
        stroke-width: 1.84px;
      }

      .cls-12 {
        fill: url(#linear-gradient-16);
      }

      .cls-14 {
        fill: url(#linear-gradient-20);
      }

      .cls-15 {
        fill: url(#linear-gradient-14);
      }

      .cls-16 {
        fill: url(#linear-gradient-2);
      }

      .cls-38 {
        font-size: 19.99px;
      }

      .cls-39 {
        mask: url(#mask-8);
      }

      .cls-17 {
        fill: url(#linear-gradient-7);
      }

      .cls-40 {
        mask: url(#mask-4);
      }

      .cls-18 {
        fill: url(#linear-gradient-3);
      }

      .cls-19 {
        fill: #ffc82c;
      }

      .cls-20 {
        fill: url(#linear-gradient-9);
      }

      .cls-41 {
        mask: url(#mask-6);
      }

      .cls-21 {
        fill: #ffe9a9;
        mix-blend-mode: screen;
        opacity: .68;
      }

      .cls-29 {
        font-size: 14.27px;
      }

      .cls-22 {
        fill: url(#linear-gradient-8);
      }

      .cls-23 {
        fill: url(#linear-gradient-18);
      }

      .cls-42 {
        mask: url(#mask-1);
      }

      .cls-43 {
        mask: url(#mask);
      }

      .cls-44 {
        mask: url(#mask-7);
      }

      .cls-24 {
        fill: #ffbf2c;
      }

      .cls-25 {
        fill: url(#linear-gradient-10);
      }

      .cls-26 {
        fill: url(#linear-gradient-4);
      }
    </style>
    <linearGradient id="linear-gradient" x1="-575.23" y1="5425.1" x2="-553.56" y2="5425.1" gradientTransform="translate(813.22 5611.6) scale(1 -1)" gradientUnits="userSpaceOnUse">
      <stop offset="0" stop-color="#fff"/>
      <stop offset="1" stop-color="#000"/>
    </linearGradient>
    <mask id="mask" x="251.43" y="184.52" width="11.7" height="3.96" maskUnits="userSpaceOnUse">
      <path class="cls-5" d="M255.61,188.19c-1.28-.08-2.66-.17-3.18-.4-.33-.14-1.03-.61-1-1.71.03-1.05.28-1.46.59-1.55.31-.09,1.55.23,3.07.36,3.84.31,8.04.26,8.04.26l-.16,3.32s-5.71-.17-7.36-.28Z"/>
    </mask>
    <linearGradient id="linear-gradient-2" x1="-561.85" y1="5425.1" x2="-550.15" y2="5425.1" gradientTransform="translate(813.22 5611.6) scale(1 -1)" gradientUnits="userSpaceOnUse">
      <stop offset="0" stop-color="#fde67f"/>
      <stop offset="1" stop-color="#fde266"/>
    </linearGradient>
    <linearGradient id="linear-gradient-3" x1="-575.01" y1="5421.06" x2="-554.18" y2="5421.06" xlink:href="#linear-gradient"/>
    <mask id="mask-1" x="251.94" y="188.81" width="9.23" height="3.44" maskUnits="userSpaceOnUse">
      <path class="cls-18" d="M253.07,191.86c-.41-.07-1.09-.39-1.13-1.52-.04-1.22.32-1.4.58-1.49.25-.09,1.1.03,2.77.17,1.67.14,5.82.29,5.88.27.06-.02-.19,2.96-.19,2.96,0,0-4.07-.04-5.27-.14-.86-.08-1.78-.1-2.63-.26Z"/>
    </mask>
    <linearGradient id="linear-gradient-4" x1="-561.33" y1="5421.06" x2="-552.1" y2="5421.06" xlink:href="#linear-gradient-2"/>
    <linearGradient id="linear-gradient-5" x1="-567.87" y1="5417.07" x2="-554.6" y2="5417.07" xlink:href="#linear-gradient"/>
    <mask id="mask-2" x="253.12" y="192.71" width="8.45" height="3.62" maskUnits="userSpaceOnUse">
      <path class="cls-10" d="M256.19,196.1c-1.88-.4-2.66-1-2.89-1.57-.18-.45-.24-1.3-.07-1.65.18-.36,1.35-.03,3.58.06,2.23.09,4.76-.02,4.76-.02l-.29,3.23s-1.48.17-3.17.19c-.62,0-1.42-.13-1.93-.23Z"/>
    </mask>
    <linearGradient id="linear-gradient-6" x1="-560.14" y1="5417.07" x2="-551.69" y2="5417.07" gradientTransform="translate(813.22 5611.6) scale(1 -1)" xlink:href="#linear-gradient-2"/>
    <linearGradient id="linear-gradient-7" x1="5589.36" y1="-1762.79" x2="5591.21" y2="-1747.75" gradientTransform="translate(1420.31 6259.43) rotate(-82.2) scale(1.05 1.13)" xlink:href="#linear-gradient"/>
    <mask id="mask-3" x="237.08" y="178.74" width="18.05" height="4.38" maskUnits="userSpaceOnUse">
      <path class="cls-17" d="M237.08,180.95c-.01,1.6,1.21,1.96,2.95,1.98,4.08.06,8.6.21,11.86.18,1.73-.01,3.3-.61,3.24-2.43-.04-1.34-1.43-1.94-2.63-1.95-1.2,0-9.89-.01-13,.12-1.34.06-2.4.61-2.41,2.09Z"/>
    </mask>
    <linearGradient id="linear-gradient-8" x1="5588.02" y1="-1762.16" x2="5589.26" y2="-1757.92" gradientTransform="translate(1420.31 6259.43) rotate(-82.2) scale(1.05 1.13)" xlink:href="#linear-gradient-2"/>
    <linearGradient id="linear-gradient-9" x1="5717.07" y1="-833.68" x2="5710.26" y2="-822.54" gradientTransform="translate(1088.96 5887.34) rotate(-90)" xlink:href="#linear-gradient"/>
    <mask id="mask-4" x="257.08" y="170.35" width="13.04" height="7.37" maskUnits="userSpaceOnUse">
      <path class="cls-20" d="M257.75,173.62c.93,1.42,2.82,2.21,4.48,3.31.45.3,1.38.1,2.2-.06.92-.19,2.09,1.29,2.83.72,1.25-.97,2.71-.1,2.86-.37.05-.09-1.71-1.35-2.6-1.88-.89-.53-1.54-.89-3.67-1.51-1.48-.43-2.07-.95-2.72-1.57-.49-.47-1.18-.94-1.6-1.15-1.71-.84-1.82-.98-2.26-.44-.23.28-.41,1.57.48,2.95Z"/>
    </mask>
    <linearGradient id="linear-gradient-10" x1="9413.52" y1="2189.8" x2="9413.52" y2="2192.03" gradientTransform="translate(6773.07 7319.05) rotate(-145.45)" xlink:href="#linear-gradient-2"/>
    <linearGradient id="linear-gradient-11" x1="-1028.19" y1="5425.36" x2="-1006.52" y2="5425.36" gradientTransform="translate(-799.88 5611.6) rotate(-180)" xlink:href="#linear-gradient"/>
    <mask id="mask-5" x="203.16" y="184.26" width="11.7" height="3.96" maskUnits="userSpaceOnUse">
      <path class="cls-9" d="M210.68,187.94c1.28-.08,2.66-.17,3.18-.4.33-.14,1.03-.61,1-1.71-.03-1.05-.28-1.46-.59-1.55-.31-.09-1.55.23-3.07.36-3.84.31-8.04.26-8.04.26l.16,3.32s5.71-.17,7.36-.28Z"/>
    </mask>
    <linearGradient id="linear-gradient-12" x1="-1014.8" y1="5425.36" x2="-1003.1" y2="5425.36" gradientTransform="translate(-799.88 5611.6) rotate(-180)" xlink:href="#linear-gradient-2"/>
    <linearGradient id="linear-gradient-13" x1="-1027.96" y1="5421.32" x2="-1007.14" y2="5421.32" gradientTransform="translate(-799.88 5611.6) rotate(-180)" xlink:href="#linear-gradient"/>
    <mask id="mask-6" x="205.13" y="188.56" width="9.23" height="3.44" maskUnits="userSpaceOnUse">
      <path class="cls-11" d="M213.22,191.6c.41-.07,1.09-.39,1.13-1.52.04-1.22-.32-1.4-.58-1.49-.25-.09-1.1.03-2.77.17-1.67.14-5.82.29-5.88.27-.06-.02.19,2.96.19,2.96,0,0,4.07-.04,5.27-.14.86-.08,1.78-.1,2.63-.26Z"/>
    </mask>
    <linearGradient id="linear-gradient-14" x1="-1014.28" y1="5421.32" x2="-1005.06" y2="5421.32" gradientTransform="translate(-799.88 5611.6) rotate(-180)" xlink:href="#linear-gradient-2"/>
    <linearGradient id="linear-gradient-15" x1="-1020.82" y1="5417.33" x2="-1007.56" y2="5417.33" gradientTransform="translate(-799.88 5611.6) rotate(-180)" xlink:href="#linear-gradient"/>
    <mask id="mask-7" x="204.72" y="192.46" width="8.45" height="3.62" maskUnits="userSpaceOnUse">
      <path class="cls-8" d="M210.11,195.85c1.88-.4,2.66-1,2.89-1.57.18-.45.24-1.3.07-1.65-.18-.36-1.35-.03-3.58.06-2.23.09-4.76-.02-4.76-.02l.29,3.23s1.48.17,3.17.19c.62,0,1.42-.13,1.93-.23Z"/>
    </mask>
    <linearGradient id="linear-gradient-16" x1="-1013.1" y1="5417.33" x2="-1004.65" y2="5417.33" gradientTransform="translate(-799.88 5611.6) rotate(-180)" xlink:href="#linear-gradient-2"/>
    <linearGradient id="linear-gradient-17" x1="5530.92" y1="-2158.72" x2="5532.77" y2="-2143.68" gradientTransform="translate(-1406.97 6259.43) rotate(-97.8) scale(1.05 -1.13)" xlink:href="#linear-gradient"/>
    <mask id="mask-8" x="211.17" y="178.48" width="18.05" height="4.38" maskUnits="userSpaceOnUse">
      <path class="cls-3" d="M229.22,180.69c.01,1.6-1.21,1.96-2.95,1.98-4.08.06-8.6.21-11.86.18-1.73-.01-3.3-.61-3.24-2.43.04-1.34,1.43-1.94,2.63-1.95,1.2,0,9.89-.01,13,.12,1.34.06,2.4.61,2.41,2.09Z"/>
    </mask>
    <linearGradient id="linear-gradient-18" x1="5529.58" y1="-2158.09" x2="5530.82" y2="-2153.85" gradientTransform="translate(-1406.97 6259.43) rotate(-97.8) scale(1.05 -1.13)" xlink:href="#linear-gradient-2"/>
    <linearGradient id="linear-gradient-19" x1="5717.33" y1="-1286.64" x2="5710.51" y2="-1275.5" gradientTransform="translate(-1075.62 5887.34) rotate(-90) scale(1 -1)" xlink:href="#linear-gradient"/>
    <mask id="mask-9" x="196.18" y="170.09" width="13.04" height="7.37" maskUnits="userSpaceOnUse">
      <path class="cls-4" d="M208.55,173.36c-.93,1.42-2.82,2.21-4.48,3.31-.45.3-1.38.1-2.2-.06-.92-.19-2.09,1.29-2.83.72-1.25-.97-2.71-.1-2.86-.37-.05-.09,1.71-1.35,2.6-1.88.89-.53,1.54-.89,3.67-1.51,1.48-.43,2.07-.95,2.72-1.57.49-.47,1.18-.94,1.6-1.15,1.71-.84,1.82-.98,2.26-.44.23.28.41,1.57-.48,2.95Z"/>
    </mask>
    <linearGradient id="linear-gradient-20" x1="9786.71" y1="1933.11" x2="9786.71" y2="1935.34" gradientTransform="translate(-6759.73 7319.05) rotate(-34.55) scale(1 -1)" xlink:href="#linear-gradient-2"/>
  </defs>
  <g class="cls-31">
    <g id="Capa_2" data-name="Capa 2">
      <g id="Capa_1-2" data-name="Capa 1">
        <g>
          <g>
            <g>
              <polygon class="cls-13" points="363.93 21.98 337.64 0 381.95 0 363.93 21.98"/>
              <text class="cls-27" transform="translate(130.55 84.17)"><tspan x="0" y="0">1:06 am</tspan></text>
              <rect class="cls-13" x="190.6" y=".03" width="174.44" height="90.42" rx="28.7" ry="28.7"/>
            </g>
            <g>
              <polygon class="cls-13" points="349.26 335.23 322.98 313.25 367.28 313.25 349.26 335.23"/>
              <text class="cls-27" transform="translate(131.43 384.2)"><tspan x="0" y="0">1:07 am</tspan></text>
              <rect class="cls-13" x="193.29" y="313.28" width="157.08" height="72.61" rx="27.23" ry="27.23"/>
              <text class="cls-37" transform="translate(224.8 357.45)"><tspan x="0" y="0">Dime</tspan></text>
            </g>
            <text class="cls-37" transform="translate(220.27 53.22)"><tspan x="0" y="0">Jajaja sip</tspan></text>
            <g>
              <g>
                <g>
                  <polygon class="cls-1" points="16.5 165.62 40.57 145.5 0 145.5 16.5 165.62"/>
                  <text class="cls-27" transform="translate(297.62 218.93)"><tspan x="0" y="0">1:07 am</tspan></text>
                  <rect class="cls-1" x="16.8" y="145.56" width="275.83" height="72.24" rx="18.05" ry="18.05"/>
                </g>
                <text class="cls-37" transform="translate(42.59 189.9)"><tspan x="0" y="0">Te digo algo?</tspan></text>
              </g>
              <g>
                <path class="cls-19" d="M260.26,187.05c.44-.54.91-2.82-.24-2.99,0,0-.02,0-.03,0,.2-.1.11-.23.26-.4.77-.84.44-2.84-.46-3.16-1.29-.47-1.13.41-1.13.41l-7.54-.75s-.43.71-.35,2.06c.04.76.32,1.18.64,1.41-.12.25-.51,1.12-.53,2.51-.02,1.35.45,1.79.92,1.97-.12.29-.38,1.09-.34,2.28.06,1.61.82,1.78,1.31,1.84h0c-.09.36-.17.87-.15,1.51.06,1.65.96,1.56,1.35,1.63,1.39.27,3.6.21,4.95-.15.9-.25.48-.53,1.01-1.25.33-.45.67-2.28-.26-2.37-.08,0,.37-.01.11-.01.45-.22-.07-.51.24-.94.37-.52.73-2.62-.34-2.72-.05,0,.15,0,.01-.01.44-.2.24-.48.56-.87ZM252.95,192.25s.03,0,.05,0c-.02,0-.03,0-.05,0ZM252.84,192.23s.03,0,.05,0c-.02,0-.03,0-.05,0ZM252.9,192.24s.04,0,.05,0c-.02,0-.03,0-.05,0ZM258.87,192.03s0,0,0,0c0,0,0,0,0,0Z"/>
                <path class="cls-19" d="M267.09,177.19c-1.5-.28-2.91-.46-4.37-.41-.19.2-.42.36-.67.48-1.34.6-6.73.67-8.29,1.1-1.9.53-2.64,1.83-2.64,1.83,0,0,3.28,4.02,3.35,7.03.07,3.01-1.24,7.96-1.24,7.96,0,0,1.33,1.49,4.54,1.63,2.61.11,2.73-.16,4-.06,1.64.12,2.86.42,3.87.36,1.39-.09,2.92-.36,4.46-1.19,1.95-1.05,1.89-2.03,2.84-3.06.8-.87,1.19-.98,1.51-1.35.37-.43,1.02-2.02,1.08-4.75.07-3.23-.7-5.55-.84-5.97-.36-1.07-1.18-1.54-1.9-2.39-.2-.23-.42-.55-.65-.92-1.65.11-3.32,0-5.04-.27Z"/>
                <path class="cls-19" d="M256.87,173.02c.72,2.48,3.39,3.31,4.43,3.96,2.02,1.27,3.12,2.3,3.32,3.35.7-1.07,1.52-2,2.45-2.95,1.04-1.1,2.46.6,3.2-.65-2.36-1.27-3.46-3.13-4.93-3.44-1.99-.41-3.08-1.16-3.83-1.56-.49-.26-1.16-.41-1.94-.82-1.23-.64-1.59-.74-1.74-.76-.15-.03-1.56.78-.95,2.86Z"/>
                <path class="cls-19" d="M256.87,173.02c.72,2.48,3.39,3.31,4.43,3.96.19.12.37.24.54.35-1.61.54-6.6.61-8.09,1.03-1.9.53-2.64,1.83-2.64,1.83,0,0,3.28,4.02,3.35,7.03.07,3.01-1.24,7.96-1.24,7.96,0,0,1.33,1.49,4.54,1.63,2.61.11,2.73-.16,4-.06,1.64.12,2.86.42,3.87.36,1.39-.09,2.92-.36,4.46-1.19,1.95-1.05,1.89-2.03,2.84-3.06.8-.87,1.19-.98,1.51-1.35.37-.43,1.02-2.02,1.08-4.75.07-3.23-.7-5.55-.84-5.97-.36-1.07-1.18-1.54-1.9-2.39-.2-.23-.35-.6-.88-1.14-.99-1.02-5.08-3.64-6.55-3.95-1.99-.41-3.08-1.16-3.83-1.56-.49-.26-1.16-.41-1.94-.82-1.23-.64-1.59-.74-1.74-.76-.15-.03-1.56.78-.95,2.86Z"/>
                <path class="cls-19" d="M259.66,191.6c-.08,0,.37-.01.11-.01-.43.21-.59.35-1.09.49-1.54.42-4.08.48-5.68.17-.07-.01-.15-.02-.23-.03-.09.36-.17.87-.15,1.51.06,1.65.96,1.56,1.35,1.63,1.39.27,3.6.21,4.95-.15.9-.25.48-.53,1.01-1.25.33-.45.67-2.28-.26-2.37Z"/>
                <path class="cls-7" d="M274.68,180.77s-.03-.08-.04-.12c0-.01,0-.02-.01-.03-.01-.03-.02-.06-.04-.08,0-.01,0-.02-.01-.03-.02-.04-.03-.07-.05-.11,0,0,0,0,0,0-.02-.03-.03-.07-.05-.1,0,0-.01-.02-.02-.03-.01-.03-.03-.05-.04-.08,0,0-.01-.02-.02-.03-.02-.03-.04-.06-.06-.1,0,0,0,0,0,0-.02-.03-.04-.06-.06-.08,0,0-.01-.02-.02-.03-.02-.02-.03-.05-.05-.07,0,0-.01-.01-.02-.02-.02-.03-.05-.06-.07-.09,0,0,0,0,0-.01-.02-.03-.04-.05-.06-.07,0,0-.01-.02-.02-.02-.02-.02-.04-.04-.06-.07,0,0-.01-.01-.02-.02-.03-.03-.05-.05-.08-.08,0,0,0,0-.01-.01-.02-.02-.04-.05-.07-.07,0,0-.02-.02-.02-.02-.02-.02-.04-.04-.07-.06,0,0-.01-.01-.02-.02-.03-.03-.05-.05-.08-.08,0,0-.01,0-.02-.02-.02-.02-.05-.05-.07-.07,0,0,0,0,0,0,.01.01.99.99,1.37,3.81.19,1.42.12,3.64-.18,5.21-.29,1.57-.77,2.34-1.65,3.07-.83.68-1.05,1.96-1.78,2.67-.91.9-1.72,1.8-3.63,2.23-2.3.53-4.93.06-6.79.16-1.53.08-2.58.25-3.99.03-2.23-.35-3.25-1-3.63-1.18,0,.02,0,.03,0,.03,0,0,1.33,1.49,4.54,1.63,2.61.11,2.73-.16,4-.06,1.64.12,2.86.42,3.87.36,1.39-.09,2.92-.36,4.46-1.19,1.95-1.05,1.89-2.03,2.84-3.06.8-.87,1.19-.98,1.51-1.35.37-.43,1.02-2.02,1.08-4.75.07-3.23-.7-5.55-.84-5.97Z"/>
                <path class="cls-19" d="M259.8,180.49c-1.29-.47-1.13.41-1.13.41l-.37-.04c.12.25.33.83.36,1.68.03.83-.12,1.48-.22,1.84.06,0,.11,0,.15,0,.62,0,.9.11,1.67-.73.77-.84.44-2.84-.46-3.16Z"/>
                <path class="cls-19" d="M251.85,187.98s-.45.88-.4,2.4c.07,1.9,1.11,1.79,1.55,1.87,1.6.31,4.14.24,5.68-.17,1.04-.28.74-.6,1.34-1.43.37-.52.73-2.62-.34-2.72-.7-.06-7.83.05-7.83.05Z"/>
                <path class="cls-19" d="M251.45,183.56s-.54.93-.57,2.58c-.04,2.06,1.1,2.01,1.57,2.13,1.72.43,4.47.53,6.17.17,1.14-.24.94-.53,1.64-1.39.44-.54.91-2.82-.24-2.99-.76-.11-8.57-.5-8.57-.5Z"/>
                <path class="cls-19" d="M251.13,180.16s-.43.71-.35,2.06c.07,1.35.89,1.62,1.37,1.71,1.76.33,5.72.46,6.44.46.62,0,.9.11,1.67-.73.77-.84.44-2.84-.46-3.16-1.29-.47-1.13.41-1.13.41l-7.54-.75Z"/>
                <path class="cls-7" d="M256.87,173.02c.72,2.48,3.39,3.31,4.43,3.96.32.2.62.4.9.59.11-.11.24-.21.37-.3-1.86-1.21-4.2-2.33-4.94-3.71-1-1.87-.47-2.91-.47-2.91-.35.45-.63,1.21-.3,2.37Z"/>
                <path class="cls-7" d="M263.28,177.16c-.56.09-.75.04-1.2.11-.29.04-.71.2-1.22.29-.47.08-1.02.16-1.6.21-1.94.17-4.27.23-5.51.58-1.79.51-2.32,1.16-2.64,1.83-.11.23-.41.83-.34,2.03.04.76.32,1.18.64,1.41,0,0,0,0,0,0-.12.25-.51,1.12-.53,2.51-.02,1.35.45,1.79.92,1.97-.12.29-.38,1.09-.34,2.28.06,1.61.82,1.78,1.31,1.84h0,0c-.09.36-.15.87-.15,1.51,0,1.48.99,1.82,1.57,2.14.38.06,1.35.17,1.35.17,0,0-2.29-.49-2.45-1.96-.07-.68-.1-1.14.14-1.37.23-.22,1.19-.05,1.49-.01.31.03.42-.12.43-.27,0-.1-.1-.24-.49-.3-.39-.05-1.03-.09-1.29-.13-.9-.13-1.35-.67-1.43-1.23-.12-.77-.05-1.35.2-1.86.14-.28.7-.17,1.04-.15.14,0,.39.04.77.08.34-.04.42-.25.42-.42,0-.08-.18-.23-.51-.28-.44-.04-.78-.08-1.01-.13-.97-.2-1.42-.81-1.48-1.43-.08-.85.03-1.46.33-2.01.17-.3.77-.14,1.14-.1.16.02.44.08.88.14.4.07.78.06.8-.25.02-.33-.27-.41-.64-.47-.54-.08-.91-.15-1.15-.2-.97-.19-1.44-.75-1.48-1.4-.22-3.07,1.9-3.93,6.57-4.07,2.4-.07,3.57-.29,4.54-.61.58-.19,1.87-.3,2.21-.68,0-.03-.49.13-1.29.2Z"/>
                <path class="cls-24" d="M257.8,170.16s-.01,0-.02,0c0,0,0,0-.01,0,0,0-.01,0-.02,0,0,0-.01,0-.02,0,0,0,0,0,0,0,.11.07.69.45,1.13.67.48.24,1.04.44,1.51.68.54.28,1.18,1.17,1.99,1.6.81.43,2.01.78,3.4,1.19,1.4.41,4.54,2.85,5.03,3.27.49.42,1.35,1.06,2.05,1.74.31.3,1.14.79,1.56,1.84.56,1.44.95,3.24,1.1,4.02-.14-2.4-.69-4.07-.81-4.42-.36-1.07-1.18-1.54-1.9-2.39-.2-.23-.35-.6-.88-1.14-.99-1.02-5.08-3.64-6.55-3.95-1.99-.41-3.08-1.16-3.83-1.56-.49-.26-1.16-.41-1.94-.82-1.23-.64-1.59-.74-1.74-.76,0,0-.01,0-.02,0,0,0,0,0,0,0Z"/>
                <path class="cls-21" d="M260.76,171.42c-.35-.13-.75-.28-1.19-.51-1.17-.61-1.55-.73-1.72-.76,0,0-.07.23.2.53.27.29,1,.74,1.48.84.56.11,1.22-.1,1.22-.1h0Z"/>
                <g class="cls-43">
                  <path class="cls-16" d="M255.61,188.19c-1.28-.08-2.66-.17-3.18-.4-.33-.14-1.03-.61-1-1.71.03-1.05.28-1.46.59-1.55.31-.09,1.55.23,3.07.36,3.84.31,8.04.26,8.04.26l-.16,3.32s-5.71-.17-7.36-.28Z"/>
                </g>
                <g class="cls-42">
                  <path class="cls-26" d="M253.07,191.86c-.41-.07-1.09-.39-1.13-1.52-.04-1.22.32-1.4.58-1.49.25-.09,1.1.03,2.77.17,1.67.14,5.82.29,5.88.27.06-.02-.19,2.96-.19,2.96,0,0-4.07-.04-5.27-.14-.86-.08-1.78-.1-2.63-.26Z"/>
                </g>
                <g class="cls-30">
                  <path class="cls-6" d="M256.19,196.1c-1.88-.4-2.66-1-2.89-1.57-.18-.45-.24-1.3-.07-1.65.18-.36,1.35-.03,3.58.06,2.23.09,4.76-.02,4.76-.02l-.29,3.23s-1.48.17-3.17.19c-.62,0-1.42-.13-1.93-.23Z"/>
                </g>
                <path class="cls-19" d="M236.98,181.07c.03,1.86,1.26,2.49,2.25,2.53,1.11.05,15.18-.05,15.97.51.33-.08.66-.15,1-.24.16-2.02.25-5.39.25-5.39,0,0-5.48.17-9.69.15-3.44-.01-6.88.12-7.55.17-1,.07-2.25.5-2.22,2.28Z"/>
                <g class="cls-32">
                  <path class="cls-22" d="M237.08,180.95c-.01,1.6,1.21,1.96,2.95,1.98,4.08.06,8.6.21,11.86.18,1.73-.01,3.3-.61,3.24-2.43-.04-1.34-1.43-1.94-2.63-1.95-1.2,0-9.89-.01-13,.12-1.34.06-2.4.61-2.41,2.09Z"/>
                </g>
                <path class="cls-7" d="M254.46,184.16c-.17-.27-.78-.72-1.91-.8-2.4-.17-11.44-.15-13.75-.41-2.14-.24-1.77-2.48-1.77-2.48h0c-.03.18-.05.38-.05.6.03,1.86,1.26,2.49,2.25,2.53.76.03,7.64,0,12.13.15,1.22.04,2.41.34,3.11.41Z"/>
                <g class="cls-40">
                  <path class="cls-25" d="M257.75,173.62c.93,1.42,2.82,2.21,4.48,3.31.45.3,1.38.1,2.2-.06.92-.19,2.09,1.29,2.83.72,1.25-.97,2.71-.1,2.86-.37.05-.09-1.71-1.35-2.6-1.88-.89-.53-1.54-.89-3.67-1.51-1.48-.43-2.07-.95-2.72-1.57-.49-.47-1.18-.94-1.6-1.15-1.71-.84-1.82-.98-2.26-.44-.23.28-.41,1.57.48,2.95Z"/>
                </g>
              </g>
              <g>
                <path class="cls-19" d="M206.6,187.67c-.14,0,.07,0,.01.01-1.07.1-.71,2.2-.34,2.72.31.43-.21.72.24.94-.26,0,.19,0,.11.01-.93.08-.59,1.92-.26,2.37.52.72.1,1,1.01,1.25,1.34.37,3.55.42,4.95.15.39-.07,1.29.02,1.35-1.63.02-.64-.06-1.16-.15-1.51h0c.5-.07,1.26-.23,1.31-1.84.04-1.18-.22-1.98-.34-2.28.47-.18.94-.63.92-1.97-.02-1.38-.41-2.26-.53-2.51.32-.24.6-.65.64-1.41.07-1.35-.35-2.06-.35-2.06l-7.54.75s.16-.88-1.13-.41c-.9.33-1.22,2.33-.46,3.16.16.17.06.3.26.4,0,0-.02,0-.03,0-1.15.17-.67,2.45-.24,2.99.32.4.12.67.56.87ZM213.29,192s.03,0,.05,0c-.02,0-.03,0-.05,0ZM213.4,191.98s.03,0,.05,0c-.02,0-.03,0-.05,0ZM213.34,191.99s.03,0,.05,0c-.02,0-.04,0-.05,0ZM207.42,191.77s0,0,0,0c0,0,0,0,0,0Z"/>
                <path class="cls-19" d="M199.21,176.93c1.5-.28,2.91-.46,4.37-.41.19.2.42.36.67.48,1.34.6,6.73.67,8.29,1.1,1.9.53,2.64,1.83,2.64,1.83,0,0-3.28,4.02-3.35,7.03-.07,3.01,1.24,7.96,1.24,7.96,0,0-1.33,1.49-4.54,1.63-2.61.11-2.73-.16-4-.06-1.64.12-2.86.42-3.87.36-1.39-.09-2.92-.36-4.46-1.19-1.95-1.05-1.89-2.03-2.84-3.06-.8-.87-1.19-.98-1.51-1.35-.37-.43-1.02-2.02-1.08-4.75-.07-3.23.7-5.55.84-5.97.36-1.07,1.18-1.54,1.9-2.39.2-.23.42-.55.65-.92,1.65.11,3.32,0,5.04-.27Z"/>
                <path class="cls-19" d="M209.42,172.76c-.72,2.48-3.39,3.31-4.43,3.96-2.02,1.27-3.12,2.3-3.32,3.35-.7-1.07-1.52-2-2.45-2.95-1.04-1.1-2.46.6-3.2-.65,2.36-1.27,3.46-3.13,4.93-3.44,1.99-.41,3.08-1.16,3.83-1.56.49-.26,1.16-.41,1.94-.82,1.23-.64,1.59-.74,1.74-.76.15-.03,1.56.78.95,2.86Z"/>
                <path class="cls-19" d="M209.42,172.76c-.72,2.48-3.39,3.31-4.43,3.96-.19.12-.37.24-.54.35,1.61.54,6.6.61,8.09,1.03,1.9.53,2.64,1.83,2.64,1.83,0,0-3.28,4.02-3.35,7.03-.07,3.01,1.24,7.96,1.24,7.96,0,0-1.33,1.49-4.54,1.63-2.61.11-2.73-.16-4-.06-1.64.12-2.86.42-3.87.36-1.39-.09-2.92-.36-4.46-1.19-1.95-1.05-1.89-2.03-2.84-3.06-.8-.87-1.19-.98-1.51-1.35-.37-.43-1.02-2.02-1.08-4.75-.07-3.23.7-5.55.84-5.97.36-1.07,1.18-1.54,1.9-2.39.2-.23.35-.6.88-1.14.99-1.02,5.08-3.64,6.55-3.95,1.99-.41,3.08-1.16,3.83-1.56.49-.26,1.16-.41,1.94-.82,1.23-.64,1.59-.74,1.74-.76.15-.03,1.56.78.95,2.86Z"/>
                <path class="cls-19" d="M206.63,191.35c.08,0-.37-.01-.11-.01.43.21.59.35,1.09.49,1.54.42,4.08.48,5.68.17.07-.01.15-.02.23-.03.09.36.17.87.15,1.51-.06,1.65-.96,1.56-1.35,1.63-1.39.27-3.6.21-4.95-.15-.9-.25-.48-.53-1.01-1.25-.33-.45-.67-2.28.26-2.37Z"/>
                <path class="cls-7" d="M191.62,180.52s.03-.08.04-.12c0-.01,0-.02.01-.03.01-.03.02-.06.04-.08,0-.01,0-.02.01-.03.02-.04.03-.07.05-.11,0,0,0,0,0,0,.02-.03.03-.07.05-.1,0,0,.01-.02.02-.03.01-.03.03-.05.04-.08,0,0,.01-.02.02-.03.02-.03.04-.06.06-.1,0,0,0,0,0,0,.02-.03.04-.06.06-.08,0,0,.01-.02.02-.03.02-.02.03-.05.05-.07,0,0,.01-.01.02-.02.02-.03.05-.06.07-.09,0,0,0,0,0-.01.02-.03.04-.05.06-.07,0,0,.01-.02.02-.02.02-.02.04-.04.06-.07,0,0,.01-.01.02-.02.03-.03.05-.05.08-.08,0,0,0,0,.01-.01.02-.02.04-.05.07-.07,0,0,.02-.02.02-.02.02-.02.04-.04.07-.06,0,0,.01-.01.02-.02.03-.03.05-.05.08-.08,0,0,.01,0,.02-.02.02-.02.05-.05.07-.07,0,0,0,0,0,0-.01.01-.99.99-1.37,3.81-.19,1.42-.12,3.64.18,5.21.29,1.57.77,2.34,1.65,3.07.83.68,1.05,1.96,1.78,2.67.91.9,1.72,1.8,3.63,2.23,2.3.53,4.93.06,6.79.16,1.53.08,2.58.25,3.99.03,2.23-.35,3.25-1,3.63-1.18,0,.02,0,.03,0,.03,0,0-1.33,1.49-4.54,1.63-2.61.11-2.73-.16-4-.06-1.64.12-2.86.42-3.87.36-1.39-.09-2.92-.36-4.46-1.19-1.95-1.05-1.89-2.03-2.84-3.06-.8-.87-1.19-.98-1.51-1.35-.37-.43-1.02-2.02-1.08-4.75-.07-3.23.7-5.55.84-5.97Z"/>
                <path class="cls-19" d="M206.5,180.24c1.29-.47,1.13.41,1.13.41l.37-.04c-.12.25-.33.83-.36,1.68-.03.83.12,1.48.22,1.84-.06,0-.11,0-.15,0-.62,0-.9.11-1.67-.73-.77-.84-.44-2.84.46-3.16Z"/>
                <path class="cls-19" d="M214.44,187.72s.45.88.4,2.4c-.07,1.9-1.11,1.79-1.55,1.87-1.6.31-4.14.24-5.68-.17-1.04-.28-.74-.6-1.34-1.43-.37-.52-.73-2.62.34-2.72.7-.06,7.83.05,7.83.05Z"/>
                <path class="cls-19" d="M214.84,183.3s.54.93.57,2.58c.04,2.06-1.1,2.01-1.57,2.13-1.72.43-4.47.53-6.17.17-1.14-.24-.94-.53-1.64-1.39-.44-.54-.91-2.82.24-2.99.76-.11,8.57-.5,8.57-.5Z"/>
                <path class="cls-19" d="M215.17,179.9s.43.71.35,2.06c-.07,1.35-.89,1.62-1.37,1.71-1.76.33-5.72.46-6.44.46-.62,0-.9.11-1.67-.73-.77-.84-.44-2.84.46-3.16,1.29-.47,1.13.41,1.13.41l7.54-.75Z"/>
                <path class="cls-7" d="M209.42,172.76c-.72,2.48-3.39,3.31-4.43,3.96-.32.2-.62.4-.9.59-.11-.11-.24-.21-.37-.3,1.86-1.21,4.2-2.33,4.94-3.71,1-1.87.47-2.91.47-2.91.35.45.63,1.21.3,2.37Z"/>
                <path class="cls-7" d="M203.01,176.9c.56.09.75.04,1.2.11.29.04.71.2,1.22.29.47.08,1.02.16,1.6.21,1.94.17,4.27.23,5.51.58,1.79.51,2.32,1.16,2.64,1.83.11.23.41.83.34,2.03-.04.76-.32,1.18-.64,1.41,0,0,0,0,0,0,.12.25.51,1.12.53,2.51.02,1.35-.45,1.79-.92,1.97.12.29.38,1.09.34,2.28-.06,1.61-.82,1.78-1.31,1.84h0,0c.09.36.15.87.15,1.51,0,1.48-.99,1.82-1.57,2.14-.38.06-1.35.17-1.35.17,0,0,2.29-.49,2.45-1.96.07-.68.1-1.14-.14-1.37-.23-.22-1.19-.05-1.49-.01-.31.03-.42-.12-.43-.27,0-.1.1-.24.49-.3.39-.05,1.03-.09,1.29-.13.9-.13,1.35-.67,1.43-1.23.12-.77.05-1.35-.2-1.86-.14-.28-.7-.17-1.04-.15-.14,0-.39.04-.77.08-.34-.04-.42-.25-.42-.42,0-.08.18-.23.51-.28.44-.04.78-.08,1.01-.13.97-.2,1.42-.81,1.48-1.43.08-.85-.03-1.46-.33-2.01-.17-.3-.77-.14-1.14-.1-.16.02-.44.08-.88.14-.4.07-.78.06-.8-.25-.02-.33.27-.41.64-.47.54-.08.91-.15,1.15-.2.97-.19,1.44-.75,1.48-1.4.22-3.07-1.9-3.93-6.57-4.07-2.4-.07-3.57-.29-4.54-.61-.58-.19-1.87-.3-2.21-.68,0-.03.49.13,1.29.2Z"/>
                <path class="cls-24" d="M208.49,169.9s.01,0,.02,0c0,0,0,0,.01,0,0,0,.01,0,.02,0,0,0,.01,0,.02,0,0,0,0,0,0,0-.11.07-.69.45-1.13.67-.48.24-1.04.44-1.51.68-.54.28-1.18,1.17-1.99,1.6-.81.43-2.01.78-3.4,1.19-1.4.41-4.54,2.85-5.03,3.27-.49.42-1.35,1.06-2.05,1.74-.31.3-1.14.79-1.56,1.84-.56,1.44-.95,3.24-1.1,4.02.14-2.4.69-4.07.81-4.42.36-1.07,1.18-1.54,1.9-2.39.2-.23.35-.6.88-1.14.99-1.02,5.08-3.64,6.55-3.95,1.99-.41,3.08-1.16,3.83-1.56.49-.26,1.16-.41,1.94-.82,1.23-.64,1.59-.74,1.74-.76,0,0,.01,0,.02,0,0,0,0,0,0,0Z"/>
                <path class="cls-21" d="M205.53,171.17c.35-.13.75-.28,1.19-.51,1.17-.61,1.55-.73,1.72-.76,0,0,.07.23-.2.53-.27.29-1,.74-1.48.84-.56.11-1.22-.1-1.22-.1h0Z"/>
                <g class="cls-36">
                  <path class="cls-2" d="M210.68,187.94c1.28-.08,2.66-.17,3.18-.4.33-.14,1.03-.61,1-1.71-.03-1.05-.28-1.46-.59-1.55-.31-.09-1.55.23-3.07.36-3.84.31-8.04.26-8.04.26l.16,3.32s5.71-.17,7.36-.28Z"/>
                </g>
                <g class="cls-41">
                  <path class="cls-15" d="M213.22,191.6c.41-.07,1.09-.39,1.13-1.52.04-1.22-.32-1.4-.58-1.49-.25-.09-1.1.03-2.77.17-1.67.14-5.82.29-5.88.27-.06-.02.19,2.96.19,2.96,0,0,4.07-.04,5.27-.14.86-.08,1.78-.1,2.63-.26Z"/>
                </g>
                <g class="cls-44">
                  <path class="cls-12" d="M210.11,195.85c1.88-.4,2.66-1,2.89-1.57.18-.45.24-1.3.07-1.65-.18-.36-1.35-.03-3.58.06-2.23.09-4.76-.02-4.76-.02l.29,3.23s1.48.17,3.17.19c.62,0,1.42-.13,1.93-.23Z"/>
                </g>
                <path class="cls-19" d="M229.31,180.82c-.03,1.86-1.26,2.49-2.25,2.53-1.11.05-15.18-.05-15.97.51-.33-.08-.66-.15-1-.24-.16-2.02-.25-5.39-.25-5.39,0,0,5.48.17,9.69.15,3.44-.01,6.88.12,7.55.17,1,.07,2.25.5,2.22,2.28Z"/>
                <g class="cls-39">
                  <path class="cls-23" d="M229.22,180.69c.01,1.6-1.21,1.96-2.95,1.98-4.08.06-8.6.21-11.86.18-1.73-.01-3.3-.61-3.24-2.43.04-1.34,1.43-1.94,2.63-1.95,1.2,0,9.89-.01,13,.12,1.34.06,2.4.61,2.41,2.09Z"/>
                </g>
                <path class="cls-7" d="M211.83,183.91c.17-.27.78-.72,1.91-.8,2.4-.17,11.44-.15,13.75-.41,2.14-.24,1.77-2.48,1.77-2.48h0c.03.18.05.38.05.6-.03,1.86-1.26,2.49-2.25,2.53-.76.03-7.64,0-12.13.15-1.22.04-2.41.34-3.11.41Z"/>
                <g class="cls-35">
                  <path class="cls-14" d="M208.55,173.36c-.93,1.42-2.82,2.21-4.48,3.31-.45.3-1.38.1-2.2-.06-.92-.19-2.09,1.29-2.83.72-1.25-.97-2.71-.1-2.86-.37-.05-.09,1.71-1.35,2.6-1.88.89-.53,1.54-.89,3.67-1.51,1.48-.43,2.07-.95,2.72-1.57.49-.47,1.18-.94,1.6-1.15,1.71-.84,1.82-.98,2.26-.44.23.28.41,1.57-.48,2.95Z"/>
                </g>
              </g>
            </g>
            <g>
              <g>
                <polygon class="cls-1" points="17.83 468.85 41.9 448.73 1.33 448.73 17.83 468.85"/>
                <text class="cls-27" transform="translate(317.34 513.77)"><tspan x="0" y="0">1:10 am</tspan></text>
                <rect class="cls-1" x="18.13" y="448.79" width="289.82" height="71.09" rx="22.24" ry="22.24"/>
                <text class="cls-37" transform="translate(48.97 493.13)"><tspan x="0" y="0">Me gustás mucho!</tspan></text>
              </g>
              <path class="cls-34" d="M284.55,487.73c1.28-1.86,2.2-3.89,2.42-6.16.36-3.84-1.03-7.72-3.76-10.45-4.61-4.61-14.69-3.43-16.88,4.06-2.97-6.71-12-8.22-16.48-3.75-4.44,4.44-5.08,11.72-1.37,16.82,2.3,3.17,5.65,5.87,8.42,8.65,3.11,3.12,6.23,6.25,9.34,9.37.5.49,9.65-9.27,10.32-9.98,2.54-2.66,5.79-5.37,7.99-8.56Z"/>
            </g>
          </g>
          <g>
            <polygon class="cls-1" points="20.89 626.76 43.31 608.01 5.53 608.01 20.89 626.76"/>
            <text class="cls-28" transform="translate(321.68 772.6)"><tspan x="0" y="0">1:11 am</tspan></text>
            <text class="cls-29" transform="translate(169.47 938.65)"><tspan x="0" y="0">1:12 am</tspan></text>
            <rect class="cls-1" x="21.17" y="608.07" width="286.56" height="172.86" rx="16.81" ry="16.81"/>
            <text class="cls-38" transform="translate(45.19 649.36)"><tspan x="0" y="0">Es que vos sos </tspan><tspan x="0" y="23.99">demasiado madura para </tspan><tspan x="0" y="47.97">tu edad, y me encanta </tspan><tspan x="0" y="71.96">que compartimos los </tspan><tspan x="0" y="95.94">mismos gustos.</tspan></text>
            <g>
              <g>
                <polygon class="cls-1" points="20.89 1039.57 43.31 1020.82 5.53 1020.82 20.89 1039.57"/>
                <text class="cls-28" transform="translate(312.72 1106.43)"><tspan x="0" y="0">1:14 am</tspan></text>
                <rect class="cls-1" x="21.17" y="1020.82" width="286.56" height="91.35" rx="16.33" ry="16.33"/>
              </g>
              <text class="cls-38" transform="translate(45.19 1062.18)"><tspan x="0" y="0">No puedo esperar para </tspan><tspan x="0" y="23.99">conocerte en persona</tspan></text>
            </g>
            <polygon class="cls-13" points="352.5 881.28 331.85 864.02 366.65 864.02 352.5 881.28"/>
            <rect class="cls-13" x="230.1" y="863.87" width="123.6" height="92.03" rx="21.43" ry="21.43"/>
            <path class="cls-33" d="M314.54,915.99c2.12-3.09,3.65-6.45,4.01-10.22.6-6.37-1.7-12.8-6.23-17.32-7.64-7.64-24.36-5.69-27.98,6.74-4.92-11.13-19.9-13.63-27.31-6.22-7.37,7.37-8.41,19.43-2.28,27.89,3.81,5.25,9.36,9.73,13.95,14.34,5.16,5.18,10.32,10.36,15.49,15.54.82.81,15.99-15.37,17.11-16.54,4.22-4.4,9.6-8.9,13.24-14.2Z"/>
          </g>
        </g>
      </g>
    </g>
  </g>
</svg>