<?xml version="1.0" encoding="utf-8"?>
<!-- Generator: Adobe Illustrator 26.3.0, SVG Export Plug-In . SVG Version: 6.00 Build 0)  -->
<svg version="1.1" id="Capa_1" xmlns="http://www.w3.org/2000/svg" xmlns:xlink="http://www.w3.org/1999/xlink" x="0px" y="0px"
	 viewBox="0 0 1841 1021" style="enable-background:new 0 0 1841 1021;" xml:space="preserve">
<style type="text/css">
	.st0{fill:#FCEE21;}
	.st1{fill:#93278F;}
	.st2{fill:#FFFFFF;}
</style>
<g>
	<g>
		<g id="Capa_2_00000095312296550870495660000017904678862274179478_">
			<g id="Capa_1-2_00000161603097926042169830000008620338392129591973_">
				<g>
					<rect x="1791" y="311" class="st0" width="21" height="58"/>
					<rect x="1663" y="113" class="st1" width="11" height="11"/>
					<rect x="671" y="141" class="st0" width="11" height="11"/>
					<rect x="110" y="8" class="st0" width="11" height="11"/>
					<rect y="751" class="st0" width="3" height="270"/>
					<rect x="1270" y="138" class="st0" width="5" height="5"/>
					<rect x="220" y="403" class="st0" width="5" height="5"/>
					<rect x="428" y="241" class="st2" width="5" height="5"/>
					<rect x="1623" class="st0" width="5" height="5"/>
					<rect x="1193" y="83" class="st1" width="5" height="5"/>
					<rect x="277" y="239" class="st1" width="5" height="5"/>
					<rect x="1227" y="623" class="st1" width="5" height="5"/>
					<rect x="285" y="667" class="st1" width="5" height="5"/>
					
						<rect x="339.27" y="849.8" transform="matrix(0.17 -0.9854 0.9854 0.17 -557.08 1054.0132)" class="st1" width="15.84" height="15.84"/>
					<g>
						<g>
							<polygon class="st1" points="120.4,338.46 124.64,330.2 115.27,325.39 102.78,329.4 							"/>
							<polygon class="st1" points="110.98,300.61 98.49,304.62 93.55,314.24 83.94,309.3 71.45,313.31 81.24,318.34 105.96,310.4 
															"/>
							<polygon class="st1" points="101.81,318.47 102.6,316.92 87.77,321.69 89.32,322.49 85.75,329.42 108.74,322.04 							"/>
							<polygon class="st1" points="105.28,291.4 101.85,298.09 111.97,294.84 							"/>
							<polygon class="st1" points="70.72,302.51 67.28,309.2 77.41,305.94 							"/>
							<polygon class="st1" points="77.59,345.32 85.84,349.56 94.89,331.94 82.4,335.95 							"/>
							<polygon class="st1" points="64.44,310.11 63.64,311.67 68.6,314.22 81.09,310.21 74.57,306.86 							"/>
							<polygon class="st1" points="99,299.01 95.65,305.53 108.14,301.52 110.69,296.56 109.13,295.75 							"/>
							<polygon class="st1" points="89.55,321.12 104.38,316.35 107.74,309.83 83.02,317.77 							"/>
							<polygon class="st1" points="82.42,330.49 79.07,337.02 91.56,333.01 94.23,327.8 99.44,330.47 111.94,326.46 105.41,323.11 
															"/>
						</g>
						<g>
							<polygon class="st0" points="125.07,336.96 129.31,328.7 119.94,323.89 107.44,327.9 							"/>
							<polygon class="st0" points="115.65,299.11 103.16,303.12 98.22,312.74 88.61,307.8 76.11,311.81 85.91,316.84 110.62,308.9 
															"/>
							<polygon class="st0" points="106.47,316.98 107.27,315.43 92.43,320.19 93.98,320.99 90.42,327.92 113.41,320.54 							"/>
							<polygon class="st0" points="109.95,289.9 106.51,296.59 116.64,293.34 							"/>
							<polygon class="st0" points="75.39,301.01 71.95,307.7 82.08,304.44 							"/>
							<polygon class="st0" points="82.25,343.82 90.51,348.06 99.56,330.44 87.07,334.45 							"/>
							<polygon class="st0" points="69.1,308.61 68.3,310.17 73.27,312.72 85.76,308.71 79.23,305.36 							"/>
							<polygon class="st0" points="103.67,297.51 100.31,304.04 112.8,300.02 115.36,295.06 113.79,294.25 							"/>
							<polygon class="st0" points="94.21,319.62 109.05,314.85 112.4,308.33 87.69,316.27 							"/>
							<polygon class="st0" points="87.09,329 83.73,335.52 96.22,331.51 98.9,326.3 104.11,328.98 116.6,324.96 110.07,321.61 
															"/>
						</g>
						<g>
							<polygon class="st2" points="122.85,337.67 127.08,329.42 117.71,324.61 105.22,328.62 							"/>
							<polygon class="st2" points="113.43,299.82 100.94,303.83 96,313.45 86.38,308.51 73.89,312.52 83.68,317.55 108.4,309.61 
															"/>
							<polygon class="st2" points="104.25,317.69 105.05,316.14 90.21,320.91 91.76,321.7 88.2,328.64 111.19,321.25 							"/>
							<polygon class="st2" points="107.73,290.62 104.29,297.31 114.42,294.05 							"/>
							<polygon class="st2" points="73.16,301.72 69.73,308.41 79.86,305.16 							"/>
							<polygon class="st2" points="80.03,344.54 88.28,348.78 97.34,331.15 84.84,335.17 							"/>
							<polygon class="st2" points="66.88,309.33 66.08,310.89 71.05,313.44 83.54,309.43 77.01,306.07 							"/>
							<polygon class="st2" points="101.44,298.22 98.09,304.75 110.58,300.74 113.13,295.77 111.57,294.97 							"/>
							<polygon class="st2" points="91.99,320.33 106.83,315.57 110.18,309.04 85.46,316.98 							"/>
							<polygon class="st2" points="84.86,329.71 81.51,336.24 94,332.22 96.68,327.01 101.89,329.69 114.38,325.68 107.85,322.32 
															"/>
						</g>
					</g>
					<g>
						<g>
							<polygon class="st1" points="1377.02,712.13 1372.09,704.27 1363.16,709.86 1360.23,722.65 							"/>
							<polygon class="st1" points="1339.67,700.88 1336.74,713.67 1342.48,722.83 1333.32,728.57 1330.39,741.36 1339.72,735.51 
								1345.52,710.21 							"/>
							<polygon class="st1" points="1350.34,717.9 1349.42,716.43 1345.93,731.62 1347.41,730.69 1351.55,737.3 1356.95,713.76 
															"/>
							<polygon class="st1" points="1328.85,701.08 1332.84,707.46 1335.22,697.09 							"/>
							<polygon class="st1" points="1320.73,736.47 1324.73,742.84 1327.11,732.47 							"/>
							<polygon class="st1" points="1361.05,752.44 1368.91,747.51 1358.38,730.73 1355.45,743.51 							"/>
							<polygon class="st1" points="1324.06,745.75 1324.99,747.24 1329.72,744.28 1332.65,731.49 1326.44,735.39 							"/>
							<polygon class="st1" points="1332.17,710.37 1336.07,716.59 1339,703.8 1336.04,699.07 1334.55,700 							"/>
							<polygon class="st1" points="1346.35,729.79 1349.83,714.6 1345.94,708.39 1340.13,733.69 							"/>
							<polygon class="st1" points="1350.77,740.71 1354.67,746.93 1357.6,734.14 1354.49,729.18 1359.45,726.06 1362.38,713.28 
								1356.16,717.17 							"/>
						</g>
						<g>
							<polygon class="st0" points="1378.11,707.35 1373.19,699.49 1364.26,705.09 1361.33,717.87 							"/>
							<polygon class="st0" points="1340.77,696.11 1337.83,708.89 1343.58,718.05 1334.42,723.8 1331.49,736.58 1340.81,730.74 
								1346.61,705.43 							"/>
							<polygon class="st0" points="1351.44,713.13 1350.51,711.65 1347.03,726.84 1348.51,725.91 1352.65,732.52 1358.04,708.98 
															"/>
							<polygon class="st0" points="1329.94,696.3 1333.94,702.68 1336.31,692.31 							"/>
							<polygon class="st0" points="1321.83,731.69 1325.82,738.06 1328.2,727.69 							"/>
							<polygon class="st0" points="1362.14,747.66 1370,742.73 1359.48,725.95 1356.54,738.74 							"/>
							<polygon class="st0" points="1325.16,740.98 1326.09,742.46 1330.82,739.5 1333.75,726.71 1327.53,730.61 							"/>
							<polygon class="st0" points="1333.27,705.59 1337.17,711.81 1340.1,699.02 1337.13,694.29 1335.65,695.22 							"/>
							<polygon class="st0" points="1347.45,725.01 1350.93,709.82 1347.03,703.61 1341.23,728.91 							"/>
							<polygon class="st0" points="1351.86,735.93 1355.76,742.15 1358.69,729.36 1355.58,724.4 1360.55,721.29 1363.48,708.5 
								1357.26,712.4 							"/>
						</g>
						<g>
							<polygon class="st2" points="1377.59,709.62 1372.66,701.77 1363.74,707.36 1360.81,720.15 							"/>
							<polygon class="st2" points="1340.24,698.38 1337.31,711.17 1343.05,720.33 1333.9,726.07 1330.96,738.86 1340.29,733.01 
								1346.09,707.71 							"/>
							<polygon class="st2" points="1350.91,715.4 1349.99,713.92 1346.51,729.11 1347.98,728.19 1352.13,734.79 1357.52,711.26 
															"/>
							<polygon class="st2" points="1329.42,698.58 1333.41,704.95 1335.79,694.58 							"/>
							<polygon class="st2" points="1321.31,733.97 1325.3,740.34 1327.68,729.97 							"/>
							<polygon class="st2" points="1361.62,749.94 1369.48,745.01 1358.95,728.22 1356.02,741.01 							"/>
							<polygon class="st2" points="1324.63,743.25 1325.57,744.74 1330.3,741.77 1333.23,728.99 1327.01,732.88 							"/>
							<polygon class="st2" points="1332.75,707.87 1336.64,714.08 1339.58,701.3 1336.61,696.57 1335.12,697.5 							"/>
							<polygon class="st2" points="1346.92,727.29 1350.41,712.1 1346.51,705.88 1340.71,731.19 							"/>
							<polygon class="st2" points="1351.34,738.21 1355.24,744.43 1358.17,731.64 1355.06,726.67 1360.02,723.56 1362.96,710.77 
								1356.74,714.67 							"/>
						</g>
					</g>
					<g>
						<g>
							<path class="st1" d="M1716.05,806.75l-5.43-3.01c-0.12,0.26-0.24,0.52-0.38,0.77c-0.8,1.44-1.82,2.68-2.98,3.71l5.64,3.13
								c1.04-1.15,1.99-2.42,2.77-3.83C1715.81,807.27,1715.92,807.01,1716.05,806.75z"/>
							<path class="st1" d="M1707.69,779.66c-4.33-2.4-9.16-3.06-13.68-2.21l22.8,12.64
								C1715.13,785.81,1712.01,782.06,1707.69,779.66z"/>
							<path class="st1" d="M1712,799.56l5.68,3.15c0.6-2.32,0.8-4.68,0.58-7l-7.46-4.14c1.14,2.47,1.58,5.24,1.2,7.98V799.56z"/>
							<path class="st1" d="M1688.6,786.65c2.12-1.77,4.7-2.88,7.4-3.22l-7.46-4.14c-2.08,1.05-3.98,2.47-5.63,4.2L1688.6,786.65
								L1688.6,786.65z"/>
							<path class="st1" d="M1685.72,789.93l-5.43-3.01c-0.15,0.24-0.31,0.47-0.45,0.73c-0.78,1.41-1.36,2.89-1.78,4.38l5.64,3.13
								c0.26-1.54,0.77-3.06,1.57-4.5C1685.41,790.41,1685.57,790.17,1685.72,789.93L1685.72,789.93z"/>
							<path class="st1" d="M1690.83,810.07c-3.92-2.17-6.41-5.93-7.13-10.03l-6.38-3.54c-0.39,7.57,3.43,15.08,10.5,19
								s15.46,3.18,21.68-1.16l-6.38-3.54C1699.26,812.36,1694.75,812.24,1690.83,810.07L1690.83,810.07z"/>
							<path class="st1" d="M1714.67,788.9l-22.8-12.64c-1.9,0.35-3.74,0.98-5.47,1.85l7.46,4.14c2.9-0.36,5.93,0.14,8.68,1.66
								c2.75,1.52,4.78,3.83,6.01,6.48l7.46,4.14c-0.18-1.93-0.63-3.82-1.33-5.62L1714.67,788.9z"/>
							<path class="st1" d="M1713.23,800c-0.2,1.42-0.62,2.83-1.26,4.18l5.43,3.01c0.66-1.31,1.16-2.67,1.52-4.04l-5.68-3.15
								H1713.23z"/>
							<path class="st1" d="M1681.64,788l5.43,3.01c0.8-1.27,1.78-2.37,2.88-3.29l-5.68-3.15c-0.98,1.03-1.86,2.17-2.62,3.43
								H1681.64z"/>
							<path class="st1" d="M1700.6,809l6.38,3.54c1.23-0.86,2.37-1.86,3.41-2.99l-5.64-3.13c-1.24,1.1-2.64,1.97-4.14,2.58H1700.6z
								"/>
							<path class="st1" d="M1675.54,791c-0.42,1.48-0.66,2.98-0.73,4.47l6.38,3.54c-0.28-1.6-0.28-3.25,0-4.88l-5.64-3.13
								L1675.54,791z"/>
						</g>
						<g>
							<path class="st0" d="M1719.58,808.7l-5.43-3.01c-0.12,0.26-0.24,0.52-0.38,0.77c-0.8,1.44-1.82,2.68-2.98,3.71l5.64,3.13
								c1.04-1.15,1.99-2.42,2.77-3.83C1719.34,809.22,1719.45,808.96,1719.58,808.7z"/>
							<path class="st0" d="M1711.22,781.62c-4.33-2.4-9.16-3.06-13.68-2.21l22.8,12.64
								C1718.66,787.77,1715.54,784.02,1711.22,781.62z"/>
							<path class="st0" d="M1715,801.51l5.68,3.15c0.6-2.32,0.8-4.68,0.58-7l-7.46-4.14c1.14,2.47,1.58,5.24,1.2,7.98V801.51z"/>
							<path class="st0" d="M1692.12,788.6c2.12-1.77,4.7-2.88,7.4-3.22l-7.46-4.14c-2.08,1.05-3.98,2.47-5.63,4.2L1692.12,788.6
								L1692.12,788.6z"/>
							<path class="st0" d="M1689.25,791.89l-5.43-3.01c-0.15,0.24-0.31,0.47-0.45,0.73c-0.78,1.41-1.36,2.89-1.78,4.38l5.64,3.13
								c0.26-1.54,0.77-3.06,1.57-4.5C1688.94,792.37,1689.1,792.13,1689.25,791.89L1689.25,791.89z"/>
							<path class="st0" d="M1694.36,812.02c-3.92-2.17-6.41-5.93-7.13-10.03l-6.38-3.54c-0.39,7.57,3.43,15.08,10.5,19
								s15.46,3.18,21.68-1.16l-6.38-3.54C1702.79,814.31,1698.28,814.19,1694.36,812.02L1694.36,812.02z"/>
							<path class="st0" d="M1718.19,790.85l-22.8-12.64c-1.9,0.35-3.74,0.98-5.47,1.85l7.46,4.14c2.9-0.36,5.93,0.14,8.68,1.66
								c2.75,1.52,4.78,3.83,6.01,6.48l7.46,4.14c-0.18-1.93-0.63-3.82-1.33-5.62L1718.19,790.85z"/>
							<path class="st0" d="M1716.76,802c-0.2,1.42-0.62,2.83-1.26,4.18l5.43,3.01c0.66-1.31,1.16-2.67,1.52-4.04l-5.68-3.15
								H1716.76z"/>
							<path class="st0" d="M1685.16,790l5.43,3.01c0.8-1.27,1.78-2.37,2.88-3.29l-5.68-3.15c-0.98,1.03-1.86,2.17-2.62,3.43
								H1685.16z"/>
							<path class="st0" d="M1704.13,811l6.38,3.54c1.23-0.86,2.37-1.86,3.41-2.99l-5.64-3.13c-1.24,1.1-2.64,1.97-4.14,2.58
								H1704.13z"/>
							<path class="st0" d="M1679.06,793c-0.42,1.48-0.66,2.98-0.73,4.47l6.38,3.54c-0.28-1.6-0.28-3.25,0-4.88l-5.64-3.13
								L1679.06,793z"/>
						</g>
						<g>
							<path class="st2" d="M1717.9,807.77l-5.43-3.01c-0.12,0.26-0.24,0.52-0.38,0.77c-0.8,1.44-1.82,2.68-2.98,3.71l5.64,3.13
								c1.04-1.15,1.99-2.42,2.77-3.83C1717.66,808.29,1717.77,808.03,1717.9,807.77z"/>
							<path class="st2" d="M1709.54,780.69c-4.33-2.4-9.16-3.06-13.68-2.21l22.8,12.64
								C1716.98,786.84,1713.86,783.09,1709.54,780.69z"/>
							<path class="st2" d="M1714,800.58l5.68,3.15c0.6-2.32,0.8-4.68,0.58-7l-7.46-4.14c1.14,2.47,1.58,5.24,1.2,7.98V800.58z"/>
							<path class="st2" d="M1690.44,787.67c2.12-1.77,4.7-2.88,7.4-3.22l-7.46-4.14c-2.08,1.05-3.98,2.47-5.63,4.2L1690.44,787.67
								L1690.44,787.67z"/>
							<path class="st2" d="M1687.57,790.95l-5.43-3.01c-0.15,0.24-0.31,0.47-0.45,0.73c-0.78,1.41-1.36,2.89-1.78,4.38l5.64,3.13
								c0.26-1.54,0.77-3.06,1.57-4.5C1687.26,791.43,1687.42,791.19,1687.57,790.95L1687.57,790.95z"/>
							<path class="st2" d="M1692.68,811.09c-3.92-2.17-6.41-5.93-7.13-10.03l-6.38-3.54c-0.39,7.57,3.43,15.08,10.5,19
								s15.46,3.18,21.68-1.16l-6.38-3.54C1701.11,813.38,1696.6,813.26,1692.68,811.09L1692.68,811.09z"/>
							<path class="st2" d="M1716.51,789.92l-22.8-12.64c-1.9,0.35-3.74,0.98-5.47,1.85l7.46,4.14c2.9-0.36,5.93,0.14,8.68,1.66
								c2.75,1.52,4.78,3.83,6.01,6.48l7.46,4.14c-0.18-1.93-0.63-3.82-1.33-5.62L1716.51,789.92z"/>
							<path class="st2" d="M1715.08,801c-0.2,1.42-0.62,2.83-1.26,4.18l5.43,3.01c0.66-1.31,1.16-2.67,1.52-4.04l-5.68-3.15
								H1715.08z"/>
							<path class="st2" d="M1683.48,789l5.43,3.01c0.8-1.27,1.78-2.37,2.88-3.29l-5.68-3.15c-0.98,1.03-1.86,2.17-2.62,3.43
								H1683.48z"/>
							<path class="st2" d="M1702.45,810l6.38,3.54c1.23-0.86,2.37-1.86,3.41-2.99l-5.64-3.13c-1.24,1.1-2.64,1.97-4.14,2.58
								H1702.45z"/>
							<path class="st2" d="M1677.38,792c-0.42,1.48-0.66,2.98-0.73,4.47l6.38,3.54c-0.28-1.6-0.28-3.25,0-4.88l-5.64-3.13
								L1677.38,792z"/>
						</g>
					</g>
					<g>
						<g>
							<path class="st1" d="M1245,107.55l-4.72-2.61c-0.11,0.22-0.21,0.45-0.33,0.67c-0.69,1.25-1.58,2.32-2.59,3.23l4.9,2.72
								c0.91-1,1.72-2.1,2.41-3.33c0.12-0.22,0.22-0.44,0.33-0.67L1245,107.55z"/>
							<path class="st1" d="M1237.78,84.02c-3.76-2.08-7.95-2.66-11.88-1.92l19.8,10.98C1244.24,89.36,1241.53,86.11,1237.78,84.02z
								"/>
							<path class="st1" d="M1241.42,101.3l4.94,2.74c0.52-2.01,0.69-4.06,0.5-6.08l-6.48-3.59
								C1241.37,96.52,1241.75,98.92,1241.42,101.3z"/>
							<path class="st1" d="M1221,90.09c1.84-1.54,4.08-2.5,6.43-2.79l-6.48-3.59c-1.81,0.91-3.46,2.14-4.89,3.65l4.94,2.74V90.09z"
								/>
							<path class="st1" d="M1218.7,93l-4.72-2.61c-0.13,0.21-0.27,0.41-0.39,0.63c-0.68,1.23-1.18,2.51-1.55,3.8l4.9,2.72
								c0.23-1.34,0.67-2.66,1.36-3.91c0.12-0.22,0.26-0.42,0.39-0.63H1218.7z"/>
							<path class="st1" d="M1223.14,110.43c-3.4-1.89-5.57-5.15-6.19-8.71l-5.54-3.07c-0.34,6.58,2.98,13.1,9.12,16.5
								s13.42,2.76,18.82-1.01l-5.54-3.07C1230.46,112.43,1226.54,112.32,1223.14,110.43L1223.14,110.43z"/>
							<path class="st1" d="M1243.84,92.04l-19.8-10.98c-1.65,0.31-3.25,0.85-4.75,1.6l6.48,3.59c2.52-0.32,5.15,0.12,7.54,1.44
								s4.15,3.33,5.22,5.63l6.48,3.59c-0.16-1.67-0.54-3.32-1.16-4.88L1243.84,92.04z"/>
							<path class="st1" d="M1243,101.95c-0.17,1.23-0.53,2.46-1.1,3.63l4.72,2.61c0.57-1.14,1.01-2.31,1.32-3.51l-4.94-2.74V101.95
								z"/>
							<path class="st1" d="M1215.15,90.98l4.72,2.61c0.7-1.1,1.54-2.05,2.5-2.85l-4.94-2.74
								C1216.58,88.89,1215.82,89.89,1215.15,90.98z"/>
							<path class="st1" d="M1232,109.85l5.54,3.07c1.07-0.75,2.06-1.61,2.96-2.6l-4.9-2.72c-1.07,0.96-2.29,1.72-3.6,2.24V109.85z"
								/>
							<path class="st1" d="M1209.85,93.55c-0.36,1.28-0.57,2.58-0.64,3.89l5.54,3.07c-0.24-1.39-0.25-2.82,0-4.24L1209.85,93.55z"
								/>
						</g>
						<g>
							<path class="st0" d="M1248,109.24l-4.72-2.61c-0.11,0.22-0.21,0.45-0.33,0.67c-0.69,1.25-1.58,2.32-2.59,3.23l4.9,2.72
								c0.91-1,1.72-2.1,2.41-3.33c0.12-0.22,0.22-0.45,0.33-0.67L1248,109.24z"/>
							<path class="st0" d="M1240.84,85.72c-3.76-2.08-7.95-2.66-11.88-1.92l19.8,10.98C1247.3,91.06,1244.59,87.81,1240.84,85.72z"
								/>
							<path class="st0" d="M1244.48,103l4.94,2.74c0.52-2.01,0.69-4.06,0.5-6.08l-6.48-3.59
								C1244.43,98.22,1244.81,100.62,1244.48,103z"/>
							<path class="st0" d="M1224,91.79c1.84-1.54,4.08-2.5,6.43-2.79l-6.48-3.59c-1.81,0.91-3.46,2.14-4.89,3.65l4.94,2.74V91.79z"
								/>
							<path class="st0" d="M1221.76,95l-4.72-2.61c-0.13,0.21-0.27,0.41-0.39,0.63c-0.68,1.23-1.18,2.51-1.55,3.8l4.9,2.72
								c0.23-1.34,0.67-2.66,1.36-3.91c0.12-0.22,0.26-0.42,0.39-0.63H1221.76z"/>
							<path class="st0" d="M1226.2,112.13c-3.4-1.89-5.57-5.15-6.19-8.71l-5.54-3.07c-0.34,6.58,2.98,13.1,9.12,16.5
								s13.42,2.76,18.82-1.01l-5.54-3.07C1233.52,114.13,1229.6,114.02,1226.2,112.13L1226.2,112.13z"/>
							<path class="st0" d="M1246.9,93.74l-19.8-10.98c-1.65,0.31-3.25,0.85-4.75,1.6l6.48,3.59c2.52-0.32,5.15,0.12,7.54,1.44
								c2.38,1.32,4.15,3.33,5.22,5.63l6.48,3.59c-0.16-1.67-0.54-3.32-1.16-4.88L1246.9,93.74z"/>
							<path class="st0" d="M1246,103.65c-0.17,1.23-0.53,2.46-1.1,3.63l4.72,2.61c0.57-1.14,1.01-2.31,1.32-3.51l-4.94-2.74V103.65
								z"/>
							<path class="st0" d="M1218.21,92.67l4.72,2.61c0.7-1.1,1.54-2.05,2.5-2.85l-4.94-2.74
								C1219.64,90.58,1218.88,91.58,1218.21,92.67z"/>
							<path class="st0" d="M1235,111.55l5.54,3.07c1.07-0.75,2.06-1.61,2.96-2.6l-4.9-2.72c-1.07,0.96-2.29,1.72-3.6,2.24V111.55z"
								/>
							<path class="st0" d="M1212.92,95.25c-0.36,1.28-0.57,2.58-0.64,3.89l5.54,3.07c-0.24-1.39-0.25-2.82,0-4.24L1212.92,95.25z"
								/>
						</g>
						<g>
							<path class="st2" d="M1247,108.44l-4.72-2.61c-0.11,0.22-0.21,0.45-0.33,0.67c-0.69,1.25-1.58,2.32-2.59,3.23l4.9,2.72
								c0.91-1,1.72-2.1,2.41-3.33c0.12-0.22,0.22-0.45,0.33-0.67L1247,108.44z"/>
							<path class="st2" d="M1239.38,84.91c-3.76-2.08-7.95-2.66-11.88-1.92l19.8,10.98C1245.84,90.25,1243.13,87,1239.38,84.91z"/>
							<path class="st2" d="M1243.02,102.19l4.94,2.74c0.52-2.01,0.69-4.06,0.5-6.08l-6.48-3.59
								C1242.97,97.41,1243.35,99.81,1243.02,102.19z"/>
							<path class="st2" d="M1223,90.98c1.84-1.54,4.08-2.5,6.43-2.79l-6.48-3.59c-1.81,0.91-3.46,2.14-4.89,3.65l4.94,2.74V90.98z"
								/>
							<path class="st2" d="M1220.3,94l-4.72-2.61c-0.13,0.21-0.27,0.41-0.39,0.63c-0.68,1.23-1.18,2.51-1.55,3.8l4.9,2.72
								c0.23-1.34,0.67-2.66,1.36-3.91c0.12-0.22,0.26-0.42,0.39-0.63H1220.3z"/>
							<path class="st2" d="M1224.74,111.32c-3.4-1.89-5.57-5.15-6.19-8.71l-5.54-3.07c-0.34,6.58,2.98,13.1,9.12,16.5
								s13.42,2.76,18.82-1.01l-5.54-3.07C1232.06,113.32,1228.14,113.21,1224.74,111.32L1224.74,111.32z"/>
							<path class="st2" d="M1245.44,92.93l-19.8-10.98c-1.65,0.31-3.25,0.85-4.75,1.6l6.48,3.59c2.52-0.32,5.15,0.12,7.54,1.44
								s4.15,3.33,5.22,5.63l6.48,3.59c-0.16-1.67-0.54-3.32-1.16-4.88L1245.44,92.93z"/>
							<path class="st2" d="M1244,102.84c-0.17,1.23-0.53,2.46-1.1,3.63l4.72,2.61c0.57-1.14,1.01-2.31,1.32-3.51l-4.94-2.74V102.84
								z"/>
							<path class="st2" d="M1216.76,91.86l4.72,2.61c0.7-1.1,1.54-2.05,2.5-2.85l-4.94-2.74
								C1218.19,89.77,1217.43,90.77,1216.76,91.86z"/>
							<path class="st2" d="M1233,110.74l5.54,3.07c1.07-0.75,2.06-1.61,2.96-2.6l-4.9-2.72c-1.07,0.96-2.29,1.72-3.6,2.24V110.74z"
								/>
							<path class="st2" d="M1211.46,94.44c-0.36,1.28-0.57,2.58-0.64,3.89l5.54,3.07c-0.24-1.39-0.25-2.82,0-4.24L1211.46,94.44z"
								/>
						</g>
					</g>
					<g>
						<g>
							
								<rect x="1586.52" y="25.55" transform="matrix(0.5563 -0.831 0.831 0.5563 681.1691 1333.7393)" class="st1" width="6" height="6.92"/>
							<polygon class="st1" points="1610.15,58.59 1585.17,41.87 1588.23,37.31 1582.48,33.46 1575.57,43.77 1612.05,68.19 
								1618.95,57.88 1613.2,54.03 							"/>
							
								<rect x="1622.93" y="36.92" transform="matrix(0.5563 -0.831 0.831 0.5563 688.0837 1369.4255)" class="st1" width="6.92" height="6.92"/>
							
								<rect x="1617.26" y="46.14" transform="matrix(0.5563 -0.831 0.831 0.5563 677.704 1368.4197)" class="st1" width="6" height="6.92"/>
							
								<rect x="1614.5" y="-0.51" transform="matrix(0.5563 -0.831 0.831 0.5563 699.5943 1353.0996)" class="st1" width="4.73" height="43.9"/>
							
								<rect x="1592.22" y="16.35" transform="matrix(0.5563 -0.831 0.831 0.5563 691.5455 1334.7788)" class="st1" width="6.92" height="6.92"/>
							<polygon class="st1" points="1595.15,9.75 1592.59,13.58 1598.34,17.43 1599.69,15.42 1624.66,32.14 1623.31,34.15 
								1629.06,38 1631.63,34.17 							"/>
							
								<rect x="1622.3" y="42.66" transform="matrix(0.5563 -0.831 0.831 0.5563 682.5198 1370.4825)" class="st1" width="4.61" height="6.92"/>
							
								<rect x="1591.56" y="22.09" transform="matrix(0.5563 -0.831 0.831 0.5563 685.9718 1335.814)" class="st1" width="4.61" height="6.92"/>
							
								<rect x="1581.7" y="28.25" transform="matrix(0.5563 -0.831 0.831 0.5563 676.4784 1330.3516)" class="st1" width="4.61" height="6.92"/>
							
								<rect x="1612.39" y="48.79" transform="matrix(0.5563 -0.831 0.831 0.5563 673.0291 1364.9653)" class="st1" width="4.61" height="6.92"/>
						</g>
						<g>
							
								<rect x="1590.14" y="27.97" transform="matrix(0.5563 -0.831 0.831 0.5563 680.7628 1337.8253)" class="st0" width="6" height="6.92"/>
							<polygon class="st0" points="1613.77,61.02 1588.79,44.3 1591.85,39.74 1586.1,35.89 1579.19,46.2 1615.67,70.62 
								1622.57,60.31 1616.82,56.46 							"/>
							
								<rect x="1626.59" y="39.36" transform="matrix(0.5563 -0.831 0.831 0.5563 687.6738 1373.5454)" class="st0" width="6.92" height="6.92"/>
							
								<rect x="1620.87" y="48.54" transform="matrix(0.5563 -0.831 0.831 0.5563 677.3062 1372.4856)" class="st0" width="6" height="6.92"/>
							
								<rect x="1618.11" y="1.92" transform="matrix(0.5563 -0.831 0.831 0.5563 699.1805 1357.1807)" class="st0" width="4.73" height="43.9"/>
							
								<rect x="1595.85" y="18.78" transform="matrix(0.5563 -0.831 0.831 0.5563 691.1392 1338.865)" class="st0" width="6.92" height="6.92"/>
							<polygon class="st0" points="1598.78,12.17 1596.21,16.01 1601.96,19.86 1603.31,17.84 1628.28,34.57 1626.93,36.58 
								1632.68,40.43 1635.25,36.59 							"/>
							
								<rect x="1625.87" y="45.06" transform="matrix(0.5563 -0.831 0.831 0.5563 682.1131 1374.5172)" class="st0" width="4.61" height="6.92"/>
							
								<rect x="1595.17" y="24.49" transform="matrix(0.5563 -0.831 0.831 0.5563 685.5795 1339.8789)" class="st0" width="4.61" height="6.92"/>
							
								<rect x="1585.29" y="30.66" transform="matrix(0.5563 -0.831 0.831 0.5563 676.0724 1334.4072)" class="st0" width="4.61" height="6.92"/>
							
								<rect x="1616" y="51.21" transform="matrix(0.5563 -0.831 0.831 0.5563 672.6154 1369.0465)" class="st0" width="4.61" height="6.92"/>
						</g>
						<g>
							
								<rect x="1588.42" y="26.83" transform="matrix(0.5563 -0.831 0.831 0.5563 680.9504 1335.8815)" class="st2" width="6" height="6.92"/>
							<polygon class="st2" points="1612.05,59.86 1587.07,43.14 1590.12,38.58 1584.37,34.73 1577.47,45.04 1613.95,69.46 
								1620.85,59.15 1615.1,55.3 							"/>
							
								<rect x="1624.86" y="38.21" transform="matrix(0.5563 -0.831 0.831 0.5563 687.8666 1371.5942)" class="st2" width="6.92" height="6.92"/>
							
								<rect x="1619.14" y="47.39" transform="matrix(0.5563 -0.831 0.831 0.5563 677.4896 1370.5334)" class="st2" width="6" height="6.92"/>
							
								<rect x="1616.4" y="0.76" transform="matrix(0.5563 -0.831 0.831 0.5563 699.3849 1355.2428)" class="st2" width="4.73" height="43.9"/>
							
								<rect x="1594.11" y="17.63" transform="matrix(0.5563 -0.831 0.831 0.5563 691.3225 1336.9128)" class="st2" width="6.92" height="6.92"/>
							<polygon class="st2" points="1597.05,11.02 1594.48,14.85 1600.23,18.7 1601.58,16.69 1626.56,33.41 1625.21,35.42 
								1630.96,39.27 1633.53,35.44 							"/>
							
								<rect x="1624.16" y="43.9" transform="matrix(0.5563 -0.831 0.831 0.5563 682.3177 1372.5792)" class="st2" width="4.61" height="6.92"/>
							
								<rect x="1593.44" y="23.35" transform="matrix(0.5563 -0.831 0.831 0.5563 685.762 1337.9362)" class="st2" width="4.61" height="6.92"/>
							
								<rect x="1583.57" y="29.5" transform="matrix(0.5563 -0.831 0.831 0.5563 676.2724 1332.4609)" class="st2" width="4.61" height="6.92"/>
							
								<rect x="1614.28" y="50.06" transform="matrix(0.5563 -0.831 0.831 0.5563 672.8104 1367.1077)" class="st2" width="4.61" height="6.92"/>
						</g>
					</g>
					<g>
						<g>
							
								<rect x="268.87" y="888.02" transform="matrix(0.9698 -0.2438 0.2438 0.9698 -208.9994 93.2726)" class="st1" width="6.92" height="6"/>
							<polygon class="st1" points="308.07,895.52 278.93,902.85 277.59,897.52 270.88,899.21 273.9,911.25 316.47,900.54 
								313.45,888.51 306.74,890.19 							"/>
							
								<rect x="302.02" y="867.8" transform="matrix(0.9698 -0.2438 0.2438 0.9698 -203.1826 100.7585)" class="st1" width="6.92" height="6.92"/>
							
								<rect x="304.85" y="878.93" transform="matrix(0.9698 -0.244 0.244 0.9698 -205.8342 101.8583)" class="st1" width="6.92" height="6"/>
							
								<rect x="263.06" y="863.28" transform="matrix(0.9698 -0.2438 0.2438 0.9698 -202.4319 95.5986)" class="st1" width="43.9" height="4.73"/>
							
								<rect x="266.16" y="876.82" transform="matrix(0.9698 -0.2438 0.2438 0.9698 -206.4634 92.2887)" class="st1" width="6.92" height="6.92"/>
							<polygon class="st1" points="261.77,873.91 262.9,878.38 269.61,876.7 269.02,874.35 298.17,867.02 298.76,869.37 
								305.47,867.68 304.34,863.21 							"/>
							
								<rect x="305.07" y="874.13" transform="matrix(0.9698 -0.2438 0.2438 0.9698 -204.3517 101.6564)" class="st1" width="6.92" height="4.61"/>
							
								<rect x="269.19" y="883.17" transform="matrix(0.9698 -0.2438 0.2438 0.9698 -207.638 93.1823)" class="st1" width="6.92" height="4.61"/>
							
								<rect x="267.13" y="894.61" transform="matrix(0.9698 -0.2438 0.2438 0.9698 -210.49 93.0262)" class="st1" width="6.92" height="4.61"/>
							
								<rect x="302.99" y="885.61" transform="matrix(0.9698 -0.2438 0.2438 0.9698 -207.2139 101.4971)" class="st1" width="6.92" height="4.61"/>
						</g>
						<g>
							
								<rect x="273.08" y="886.95" transform="matrix(0.9698 -0.2438 0.2438 0.9698 -208.6123 94.2672)" class="st0" width="6.92" height="6"/>
							<polygon class="st0" points="312.3,894.45 283.15,901.78 281.81,896.46 275.1,898.15 278.13,910.18 320.7,899.48 
								317.67,887.44 310.96,889.13 							"/>
							
								<rect x="306.25" y="866.74" transform="matrix(0.9698 -0.2438 0.2438 0.9698 -202.7975 101.7564)" class="st0" width="6.92" height="6.92"/>
							
								<rect x="309.06" y="877.87" transform="matrix(0.9698 -0.244 0.244 0.9698 -205.449 102.8543)" class="st0" width="6.92" height="6"/>
							
								<rect x="267.29" y="862.22" transform="matrix(0.9698 -0.2438 0.2438 0.9698 -202.0462 96.5964)" class="st0" width="43.9" height="4.73"/>
							
								<rect x="270.39" y="875.75" transform="matrix(0.9698 -0.2438 0.2438 0.9698 -206.076 93.2858)" class="st0" width="6.92" height="6.92"/>
							<polygon class="st0" points="266,872.85 267.13,877.32 273.84,875.63 273.25,873.28 302.39,865.95 302.98,868.3 
								309.7,866.62 308.57,862.14 							"/>
							
								<rect x="309.29" y="873.07" transform="matrix(0.9698 -0.2438 0.2438 0.9698 -203.9666 102.6543)" class="st0" width="6.92" height="4.61"/>
							
								<rect x="273.41" y="882.09" transform="matrix(0.9698 -0.2438 0.2438 0.9698 -207.2482 94.1791)" class="st0" width="6.92" height="4.61"/>
							
								<rect x="271.36" y="893.55" transform="matrix(0.9698 -0.2438 0.2438 0.9698 -210.104 94.0264)" class="st0" width="6.92" height="4.61"/>
							
								<rect x="307.21" y="884.54" transform="matrix(0.9698 -0.2438 0.2438 0.9698 -206.8259 102.494)" class="st0" width="6.92" height="4.61"/>
						</g>
						<g>
							
								<rect x="271.08" y="887.46" transform="matrix(0.9698 -0.2438 0.2438 0.9698 -208.7983 93.7939)" class="st2" width="6.92" height="6"/>
							<polygon class="st2" points="310.29,894.96 281.14,902.29 279.8,896.97 273.09,898.65 276.12,910.69 318.69,899.98 
								315.66,887.95 308.95,889.64 							"/>
							
								<rect x="304.24" y="867.25" transform="matrix(0.9698 -0.2438 0.2438 0.9698 -202.9812 101.2823)" class="st2" width="6.92" height="6.92"/>
							
								<rect x="306.94" y="878.44" transform="matrix(0.9698 -0.2438 0.2438 0.9698 -205.5175 102.2637)" class="st2" width="6.92" height="6"/>
							
								<rect x="265.28" y="862.73" transform="matrix(0.9698 -0.2438 0.2438 0.9698 -202.2298 96.1223)" class="st2" width="43.9" height="4.73"/>
							
								<rect x="268.38" y="876.27" transform="matrix(0.9698 -0.2438 0.2438 0.9698 -206.262 92.8125)" class="st2" width="6.92" height="6.92"/>
							<polygon class="st2" points="263.99,873.35 265.11,877.83 271.82,876.14 271.23,873.79 300.38,866.46 300.97,868.81 
								307.68,867.12 306.56,862.65 							"/>
							
								<rect x="307.24" y="873.59" transform="matrix(0.9698 -0.2438 0.2438 0.9698 -204.1564 102.171)" class="st2" width="6.92" height="4.61"/>
							
								<rect x="271.39" y="882.6" transform="matrix(0.9698 -0.2438 0.2438 0.9698 -207.4344 93.7034)" class="st2" width="6.92" height="4.61"/>
							
								<rect x="269.35" y="894.07" transform="matrix(0.9698 -0.2438 0.2438 0.9698 -210.2909 93.5508)" class="st2" width="6.92" height="4.61"/>
							
								<rect x="305.2" y="885.05" transform="matrix(0.9698 -0.2438 0.2438 0.9698 -207.0103 102.0182)" class="st2" width="6.92" height="4.61"/>
						</g>
					</g>
					<g>
						<g>
							
								<rect x="334.84" y="20.2" transform="matrix(0.6353 -0.7723 0.7723 0.6353 105.1733 269.0309)" class="st1" width="5.15" height="5.94"/>
							<polygon class="st1" points="352.5,50.15 332.56,33.75 335.55,30.11 330.96,26.34 324.19,34.57 353.31,58.52 360.08,50.29 
								355.49,46.51 							"/>
							
								<rect x="365" y="33.03" transform="matrix(0.6353 -0.7723 0.7723 0.6353 106.4052 297.3101)" class="st1" width="5.94" height="5.94"/>
							
								<rect x="359.37" y="40.39" transform="matrix(0.6353 -0.7723 0.7723 0.6353 98.5258 295.3415)" class="st1" width="5.15" height="5.94"/>
							
								<rect x="359.38" y="0.15" transform="matrix(0.6353 -0.7723 0.7723 0.6353 117.1429 286.0424)" class="st1" width="4.06" height="37.7"/>
							
								<rect x="340.49" y="12.86" transform="matrix(0.6353 -0.7723 0.7723 0.6353 113.042 271.0247)" class="st1" width="5.94" height="5.94"/>
							<polygon class="st1" points="343.8,7.13 341.28,10.2 345.87,13.97 347.2,12.36 367.13,28.77 365.81,30.37 370.4,34.15 
								372.92,31.09 							"/>
							
								<rect x="363.95" y="37.76" transform="matrix(0.6353 -0.7723 0.7723 0.6353 102.0125 297.4622)" class="st1" width="3.96" height="5.94"/>
							
								<rect x="339.44" y="17.59" transform="matrix(0.6353 -0.7723 0.7723 0.6353 108.6436 271.1722)" class="st1" width="3.96" height="5.94"/>
							
								<rect x="330.46" y="22.02" transform="matrix(0.6353 -0.7723 0.7723 0.6353 101.9551 265.8577)" class="st1" width="3.96" height="5.94"/>
							
								<rect x="355" y="42.2" transform="matrix(0.6353 -0.7723 0.7723 0.6353 95.3158 292.1704)" class="st1" width="3.96" height="5.94"/>
						</g>
						<g>
							
								<rect x="337.72" y="22.58" transform="matrix(0.6353 -0.7723 0.7723 0.6353 104.3872 272.1262)" class="st0" width="5.15" height="5.94"/>
							<polygon class="st0" points="355.39,52.53 335.45,36.13 338.44,32.49 333.85,28.71 327.08,36.95 356.2,60.9 362.97,52.67 
								358.38,48.89 							"/>
							
								<rect x="367.89" y="35.41" transform="matrix(0.6353 -0.7723 0.7723 0.6353 105.6226 300.4131)" class="st0" width="5.94" height="5.94"/>
							
								<rect x="362.26" y="42.75" transform="matrix(0.6353 -0.7723 0.7723 0.6353 97.7556 298.4352)" class="st0" width="5.15" height="5.94"/>
							
								<rect x="362.27" y="2.52" transform="matrix(0.6353 -0.7723 0.7723 0.6353 116.368 289.1418)" class="st0" width="4.06" height="37.7"/>
							
								<rect x="343.37" y="15.24" transform="matrix(0.6353 -0.7723 0.7723 0.6353 112.2558 274.1201)" class="st0" width="5.94" height="5.94"/>
							<polygon class="st0" points="346.69,9.51 344.17,12.57 348.76,16.35 350.09,14.74 370.02,31.14 368.7,32.75 373.29,36.53 
								375.81,33.47 							"/>
							
								<rect x="366.86" y="40.15" transform="matrix(0.6353 -0.7723 0.7723 0.6353 101.2259 300.5766)" class="st0" width="3.96" height="5.94"/>
							
								<rect x="342.32" y="19.97" transform="matrix(0.6353 -0.7723 0.7723 0.6353 107.8574 274.2675)" class="st0" width="3.96" height="5.94"/>
							
								<rect x="333.36" y="24.41" transform="matrix(0.6353 -0.7723 0.7723 0.6353 101.1648 268.9644)" class="st0" width="3.96" height="5.94"/>
							
								<rect x="357.9" y="44.58" transform="matrix(0.6353 -0.7723 0.7723 0.6353 94.5333 295.2735)" class="st0" width="3.96" height="5.94"/>
						</g>
						<g>
							
								<rect x="336.35" y="21.45" transform="matrix(0.6353 -0.7723 0.7723 0.6353 104.7543 270.6594)" class="st2" width="5.15" height="5.94"/>
							<polygon class="st2" points="354.01,51.4 334.07,35 337.07,31.36 332.48,27.58 325.71,35.81 354.82,59.77 361.6,51.53 
								357.01,47.76 							"/>
							
								<rect x="366.52" y="34.29" transform="matrix(0.6353 -0.7723 0.7723 0.6353 105.9897 298.9463)" class="st2" width="5.94" height="5.94"/>
							
								<rect x="360.87" y="41.62" transform="matrix(0.6353 -0.7723 0.7723 0.6353 98.1212 296.9524)" class="st2" width="5.15" height="5.94"/>
							
								<rect x="360.9" y="1.39" transform="matrix(0.6353 -0.7723 0.7723 0.6353 116.7398 287.6694)" class="st2" width="4.06" height="37.7"/>
							
								<rect x="341.99" y="14.1" transform="matrix(0.6353 -0.7723 0.7723 0.6353 112.6373 272.6357)" class="st2" width="5.94" height="5.94"/>
							<polygon class="st2" points="345.31,8.38 342.8,11.44 347.39,15.22 348.71,13.61 368.65,30.01 367.33,31.62 371.92,35.39 
								374.43,32.33 							"/>
							
								<rect x="365.47" y="39.02" transform="matrix(0.6353 -0.7723 0.7723 0.6353 101.5914 299.0938)" class="st2" width="3.96" height="5.94"/>
							
								<rect x="340.94" y="18.84" transform="matrix(0.6353 -0.7723 0.7723 0.6353 108.2286 272.7894)" class="st2" width="3.96" height="5.94"/>
							
								<rect x="331.98" y="23.28" transform="matrix(0.6353 -0.7723 0.7723 0.6353 101.5361 267.4862)" class="st2" width="3.96" height="5.94"/>
							
								<rect x="356.51" y="43.44" transform="matrix(0.6353 -0.7723 0.7723 0.6353 94.9066 293.787)" class="st2" width="3.96" height="5.94"/>
						</g>
					</g>
					<rect x="1786" y="299" class="st2" width="21" height="58"/>
					<rect x="1778" y="329" class="st1" width="11" height="11"/>
					<rect x="1830" y="383" class="st1" width="11" height="11"/>
					<rect x="1715" y="700" class="st2" width="11" height="11"/>
					<rect x="370" y="311" class="st0" width="50" height="5"/>
					<rect x="1258" y="602" class="st1" width="50" height="5"/>
					<rect x="26" y="643" class="st1" width="5" height="5"/>
					<rect x="57" y="622" class="st1" width="50" height="5"/>
					<rect x="1551" y="574" class="st0" width="35" height="5"/>
					<rect x="1566" y="712" class="st0" width="50" height="5"/>
					<rect x="1326" y="328" class="st1" width="50" height="5"/>
					<rect x="399" y="551" class="st1" width="50" height="5"/>
					<rect x="1378" y="903" class="st1" width="50" height="5"/>
					<rect x="1299" y="835" class="st0" width="50" height="5"/>
					<rect x="1155" y="403" class="st1" width="28" height="5"/>
					<rect x="1240" y="299" class="st0" width="28" height="5"/>
					<rect x="1623" y="712" class="st0" width="12" height="5"/>
					<rect x="353" y="311" class="st0" width="12" height="5"/>
					<rect x="1580" y="749" class="st0" width="12" height="5"/>
					<rect x="383" y="551" class="st1" width="12" height="5"/>
					<rect x="1309" y="843" class="st1" width="12" height="5"/>
					<rect x="1580" y="781" class="st1" width="12" height="5"/>
					<rect x="1324" y="793" class="st1" width="12" height="5"/>
					<rect x="406" y="615" class="st1" width="12" height="5"/>
				</g>
			</g>
		</g>
	</g>
</g>
<g>
	<g>
		<g id="Capa_2_00000088106772948099936200000010005948331756892347_">
			<g id="Capa_1-2_00000009548480971050119060000013501900125503285166_">
				<g>
					<rect x="528.92" y="322.65" class="st0" width="15.21" height="56.69"/>
					<rect x="629.7" y="129.38" class="st1" width="7.61" height="10.31"/>
					<rect x="1348.49" y="155.15" class="st0" width="7.61" height="10.31"/>
					<rect x="1755.43" y="26.31" class="st0" width="7.61" height="10.31"/>
					<rect x="1839.1" y="755.58" class="st0" width="1.9" height="265.42"/>
					<rect x="918.74" y="152.58" class="st0" width="3.8" height="5.15"/>
					<rect x="1679.37" y="412.85" class="st0" width="3.8" height="5.15"/>
					<rect x="1527.24" y="253.08" class="st2" width="3.8" height="5.15"/>
					<rect x="662.03" y="16" class="st0" width="3.8" height="5.15"/>
					<rect x="973.88" y="98.46" class="st1" width="3.8" height="5.15"/>
					<rect x="1637.53" y="250.5" class="st1" width="3.8" height="5.15"/>
					<rect x="949.16" y="629.31" class="st1" width="3.8" height="5.15"/>
					<rect x="1631.83" y="670.54" class="st1" width="3.8" height="5.15"/>
					<polygon class="st1" points="1585.51,868.15 1596.81,865.51 1594.86,850.19 1583.56,852.83 					"/>
					<g>
						<g>
							<polygon class="st1" points="1754.45,349.5 1751.37,341.39 1758.16,336.67 1767.21,340.6 							"/>
							<polygon class="st1" points="1761.27,312.35 1770.31,316.28 1773.89,325.72 1780.85,320.87 1789.9,324.81 1782.81,329.75 
								1764.9,321.95 							"/>
							<polygon class="st1" points="1767.91,329.88 1767.34,328.35 1778.08,333.04 1776.96,333.82 1779.54,340.62 1762.89,333.38 
															"/>
							<polygon class="st1" points="1765.4,303.31 1767.88,309.87 1760.55,306.68 							"/>
							<polygon class="st1" points="1790.43,314.21 1792.92,320.78 1785.58,317.58 							"/>
							<polygon class="st1" points="1785.45,356.23 1779.48,360.39 1772.92,343.1 1781.97,347.03 							"/>
							<polygon class="st1" points="1794.98,321.67 1795.56,323.2 1791.96,325.7 1782.92,321.77 1787.64,318.48 							"/>
							<polygon class="st1" points="1769.94,310.77 1772.37,317.17 1763.32,313.24 1761.48,308.37 1762.61,307.58 							"/>
							<polygon class="st1" points="1776.79,332.48 1766.05,327.79 1763.61,321.39 1781.52,329.19 							"/>
							<polygon class="st1" points="1781.95,341.67 1784.38,348.08 1775.33,344.15 1773.4,339.03 1769.63,341.65 1760.57,337.72 
								1765.3,334.43 							"/>
						</g>
						<g>
							<polygon class="st0" points="1751.06,348.02 1747.99,339.92 1754.78,335.2 1763.83,339.13 							"/>
							<polygon class="st0" points="1757.89,310.87 1766.93,314.81 1770.51,324.25 1777.47,319.4 1786.52,323.34 1779.43,328.28 
								1761.53,320.48 							"/>
							<polygon class="st0" points="1764.53,328.41 1763.96,326.89 1774.7,331.56 1773.58,332.35 1776.16,339.15 1759.51,331.91 
															"/>
							<polygon class="st0" points="1762.01,301.83 1764.51,308.4 1757.17,305.21 							"/>
							<polygon class="st0" points="1787.05,312.74 1789.54,319.3 1782.2,316.1 							"/>
							<polygon class="st0" points="1782.08,354.76 1776.09,358.92 1769.54,341.62 1778.59,345.56 							"/>
							<polygon class="st0" points="1791.6,320.2 1792.18,321.73 1788.58,324.23 1779.53,320.3 1784.26,317.01 							"/>
							<polygon class="st0" points="1766.56,309.3 1769,315.71 1759.95,311.77 1758.1,306.9 1759.23,306.1 							"/>
							<polygon class="st0" points="1773.41,331 1762.67,326.32 1760.24,319.92 1778.14,327.72 							"/>
							<polygon class="st0" points="1778.57,340.21 1781,346.61 1771.96,342.67 1770.02,337.56 1766.24,340.19 1757.2,336.25 
								1761.93,332.96 							"/>
						</g>
						<g>
							<polygon class="st2" points="1752.67,348.72 1749.61,340.62 1756.39,335.9 1765.44,339.84 							"/>
							<polygon class="st2" points="1759.49,311.57 1768.54,315.51 1772.12,324.95 1779.09,320.1 1788.13,324.04 1781.04,328.97 
								1763.14,321.18 							"/>
							<polygon class="st2" points="1766.14,329.11 1765.56,327.59 1776.31,332.27 1775.19,333.05 1777.77,339.86 1761.12,332.6 
															"/>
							<polygon class="st2" points="1763.62,302.54 1766.11,309.11 1758.78,305.91 							"/>
							<polygon class="st2" points="1788.66,313.43 1791.15,320 1783.81,316.81 							"/>
							<polygon class="st2" points="1783.68,355.46 1777.71,359.63 1771.15,342.32 1780.2,346.27 							"/>
							<polygon class="st2" points="1793.21,320.9 1793.79,322.44 1790.19,324.94 1781.14,321 1785.87,317.7 							"/>
							<polygon class="st2" points="1768.18,310 1770.6,316.41 1761.56,312.47 1759.71,307.59 1760.84,306.81 							"/>
							<polygon class="st2" points="1775.02,331.7 1764.27,327.03 1761.85,320.62 1779.75,328.41 							"/>
							<polygon class="st2" points="1780.19,340.91 1782.61,347.32 1773.57,343.37 1771.63,338.26 1767.85,340.89 1758.81,336.95 
								1763.54,333.65 							"/>
						</g>
					</g>
					<g>
						<g>
							<polygon class="st1" points="844.29,716.26 847.86,708.55 854.33,714.04 856.45,726.59 							"/>
							<polygon class="st1" points="871.34,705.22 873.46,717.77 869.3,726.77 875.94,732.4 878.06,744.95 871.3,739.21 
								867.1,714.38 							"/>
							<polygon class="st1" points="863.61,721.93 864.28,720.48 866.81,735.39 865.73,734.48 862.74,740.97 858.82,717.86 							
								"/>
							<polygon class="st1" points="879.18,705.42 876.29,711.68 874.56,701.5 							"/>
							<polygon class="st1" points="885.06,740.15 882.16,746.41 880.44,736.23 							"/>
							<polygon class="st1" points="855.85,755.83 850.16,750.99 857.79,734.52 859.91,747.06 							"/>
							<polygon class="st1" points="882.65,749.26 881.97,750.72 878.55,747.82 876.42,735.27 880.92,739.09 							"/>
							<polygon class="st1" points="876.77,714.54 873.95,720.64 871.83,708.09 873.97,703.44 875.05,704.36 							"/>
							<polygon class="st1" points="866.5,733.6 863.98,718.69 866.8,712.59 871.01,737.42 							"/>
							<polygon class="st1" points="863.3,744.32 860.48,750.42 858.35,737.87 860.61,733 857.01,729.94 854.89,717.39 
								859.4,721.21 							"/>
						</g>
						<g>
							<polygon class="st0" points="843.5,711.57 847.06,703.86 853.53,709.35 855.65,721.9 							"/>
							<polygon class="st0" points="870.54,700.54 872.67,713.08 868.51,722.07 875.14,727.72 877.26,740.26 870.51,734.53 
								866.31,709.69 							"/>
							<polygon class="st0" points="862.81,717.24 863.49,715.79 866.01,730.7 864.94,729.79 861.94,736.28 858.03,713.17 							
								"/>
							<polygon class="st0" points="878.39,700.73 875.49,706.99 873.77,696.81 							"/>
							<polygon class="st0" points="884.26,735.46 881.37,741.71 879.65,731.54 							"/>
							<polygon class="st0" points="855.06,751.14 849.37,746.3 856.99,729.83 859.12,742.38 							"/>
							<polygon class="st0" points="881.85,744.58 881.18,746.03 877.75,743.13 875.63,730.57 880.13,734.4 							"/>
							<polygon class="st0" points="875.98,709.84 873.15,715.95 871.03,703.4 873.18,698.75 874.25,699.67 							"/>
							<polygon class="st0" points="865.7,728.91 863.18,714 866.01,707.9 870.21,732.73 							"/>
							<polygon class="st0" points="862.51,739.62 859.69,745.73 857.56,733.17 859.82,728.31 856.22,725.25 854.09,712.7 
								858.6,716.53 							"/>
						</g>
						<g>
							<polygon class="st2" points="843.87,713.8 847.45,706.09 853.91,711.58 856.03,724.14 							"/>
							<polygon class="st2" points="870.93,702.77 873.05,715.32 868.89,724.31 875.52,729.95 877.65,742.5 870.89,736.76 
								866.69,711.92 							"/>
							<polygon class="st2" points="863.2,719.47 863.87,718.02 866.39,732.93 865.32,732.03 862.32,738.5 858.41,715.41 							"/>
							<polygon class="st2" points="878.76,702.96 875.87,709.22 874.15,699.04 							"/>
							<polygon class="st2" points="884.64,737.7 881.75,743.95 880.02,733.77 							"/>
							<polygon class="st2" points="855.44,753.37 849.75,748.54 857.38,732.06 859.5,744.61 							"/>
							<polygon class="st2" points="882.23,746.81 881.55,748.27 878.13,745.36 876,732.81 880.51,736.63 							"/>
							<polygon class="st2" points="876.35,712.08 873.53,718.18 871.4,705.63 873.56,700.99 874.64,701.9 							"/>
							<polygon class="st2" points="866.09,731.14 863.56,716.23 866.39,710.13 870.59,734.97 							"/>
							<polygon class="st2" points="862.89,741.86 860.06,747.97 857.94,735.41 860.19,730.53 856.6,727.48 854.47,714.93 
								858.98,718.76 							"/>
						</g>
					</g>
					<g>
						<g>
							<path class="st1" d="M598.73,809.14l3.93-2.95c0.09,0.26,0.17,0.51,0.28,0.76c0.58,1.41,1.32,2.63,2.16,3.64l-4.08,3.07
								c-0.75-1.13-1.44-2.38-2.01-3.76C598.91,809.65,598.83,809.39,598.73,809.14z"/>
							<path class="st1" d="M604.79,782.55c3.14-2.36,6.63-3,9.91-2.17l-16.51,12.41C599.4,788.58,601.66,784.9,604.79,782.55z"/>
							<path class="st1" d="M601.18,802.08l-4.11,3.09c-0.43-2.28-0.58-4.59-0.42-6.87l5.4-4.06
								C601.22,796.66,600.9,799.38,601.18,802.08L601.18,802.08z"/>
							<path class="st1" d="M618.61,789.41c-1.54-1.74-3.4-2.83-5.36-3.16l5.4-4.06c1.51,1.03,2.88,2.42,4.08,4.12L618.61,789.41
								L618.61,789.41z"/>
							<path class="st1" d="M620.7,792.63l3.93-2.95c0.11,0.24,0.22,0.46,0.33,0.72c0.56,1.38,0.99,2.84,1.29,4.3l-4.09,3.07
								c-0.19-1.51-0.56-3-1.14-4.42C620.92,793.1,620.81,792.86,620.7,792.63L620.7,792.63z"/>
							<path class="st1" d="M617,812.39c2.84-2.13,4.64-5.82,5.16-9.84l4.62-3.47c0.28,7.43-2.48,14.8-7.61,18.65
								c-5.12,3.85-11.2,3.12-15.7-1.14l4.62-3.47C610.89,814.64,614.16,814.52,617,812.39L617,812.39z"/>
							<path class="st1" d="M599.73,791.61l16.51-12.41c1.38,0.34,2.71,0.96,3.96,1.82l-5.4,4.06c-2.1-0.35-4.3,0.14-6.29,1.63
								c-1.99,1.49-3.46,3.76-4.35,6.36l-5.4,4.06C598.89,795.25,599.22,793.39,599.73,791.61L599.73,791.61z"/>
							<path class="st1" d="M600.77,801.96c0.14,1.39,0.45,2.78,0.91,4.1l-3.93,2.95c-0.48-1.29-0.84-2.62-1.1-3.97L600.77,801.96
								L600.77,801.96z"/>
							<path class="st1" d="M623.65,791.65l-3.93,2.95c-0.58-1.25-1.29-2.33-2.09-3.23l4.11-3.09
								C622.46,789.3,623.1,790.42,623.65,791.65L623.65,791.65z"/>
							<path class="st1" d="M609.92,812.27l-4.62,3.47c-0.89-0.84-1.72-1.83-2.47-2.93l4.09-3.07
								C607.81,810.82,608.83,811.67,609.92,812.27L609.92,812.27z"/>
							<path class="st1" d="M628.07,794.23c0.3,1.45,0.48,2.92,0.53,4.39l-4.62,3.47c0.2-1.57,0.2-3.19,0-4.79L628.07,794.23
								L628.07,794.23z"/>
						</g>
						<g>
							<path class="st0" d="M596.17,811.05l3.93-2.95c0.09,0.26,0.17,0.51,0.28,0.76c0.58,1.41,1.32,2.63,2.16,3.64l-4.09,3.07
								c-0.75-1.13-1.44-2.38-2.01-3.76C596.35,811.56,596.27,811.3,596.17,811.05z"/>
							<path class="st0" d="M602.23,784.47c3.14-2.36,6.63-3,9.91-2.17l-16.51,12.41C596.84,790.51,599.1,786.83,602.23,784.47z"/>
							<path class="st0" d="M599.28,803.99l-4.11,3.09c-0.43-2.28-0.58-4.59-0.42-6.87l5.4-4.06
								C599.32,798.57,599,801.29,599.28,803.99L599.28,803.99z"/>
							<path class="st0" d="M616.06,791.32c-1.54-1.74-3.4-2.83-5.36-3.16l5.4-4.06c1.51,1.03,2.88,2.42,4.08,4.12L616.06,791.32
								L616.06,791.32z"/>
							<path class="st0" d="M618.14,794.55l3.93-2.95c0.11,0.24,0.22,0.46,0.33,0.72c0.56,1.38,0.98,2.84,1.29,4.3l-4.09,3.07
								c-0.19-1.51-0.56-3-1.14-4.42C618.37,795.02,618.25,794.79,618.14,794.55L618.14,794.55z"/>
							<path class="st0" d="M614.44,814.31c2.84-2.13,4.64-5.82,5.16-9.84l4.62-3.47c0.28,7.43-2.48,14.8-7.61,18.65
								c-5.12,3.85-11.2,3.12-15.7-1.14l4.62-3.47C608.34,816.56,611.6,816.44,614.44,814.31L614.44,814.31z"/>
							<path class="st0" d="M597.18,793.53l16.51-12.41c1.38,0.34,2.71,0.96,3.96,1.82l-5.4,4.06c-2.1-0.35-4.3,0.14-6.29,1.63
								c-1.99,1.49-3.46,3.76-4.35,6.36l-5.4,4.06C596.34,797.16,596.67,795.31,597.18,793.53L597.18,793.53z"/>
							<path class="st0" d="M598.22,804.54c0.14,1.39,0.45,2.78,0.91,4.1l-3.93,2.95c-0.48-1.29-0.84-2.62-1.1-3.97L598.22,804.54
								L598.22,804.54z"/>
							<path class="st0" d="M621.1,791.65l-3.93,2.95c-0.58-1.25-1.29-2.33-2.09-3.23l4.11-3.09
								C619.91,789.3,620.55,790.42,621.1,791.65L621.1,791.65z"/>
							<path class="st0" d="M607.36,814.85l-4.62,3.47c-0.89-0.84-1.72-1.83-2.47-2.93l4.09-3.07
								C605.26,813.39,606.27,814.25,607.36,814.85L607.36,814.85z"/>
							<path class="st0" d="M625.52,794.23c0.3,1.45,0.48,2.92,0.53,4.39l-4.62,3.47c0.2-1.57,0.2-3.19,0-4.79L625.52,794.23
								L625.52,794.23z"/>
						</g>
						<g>
							<path class="st2" d="M597.39,810.14l3.93-2.95c0.09,0.26,0.17,0.51,0.28,0.76c0.58,1.41,1.32,2.63,2.16,3.64l-4.09,3.07
								c-0.75-1.13-1.44-2.38-2.01-3.76C597.57,810.65,597.49,810.39,597.39,810.14z"/>
							<path class="st2" d="M603.45,783.56c3.14-2.36,6.63-3,9.91-2.17l-16.51,12.41C598.06,789.59,600.32,785.91,603.45,783.56z"/>
							<path class="st2" d="M601.18,803.08l-4.11,3.09c-0.43-2.28-0.58-4.59-0.42-6.87l5.4-4.06
								C601.22,797.66,600.9,800.38,601.18,803.08L601.18,803.08z"/>
							<path class="st2" d="M617.28,790.41c-1.54-1.74-3.4-2.83-5.36-3.16l5.4-4.06c1.51,1.03,2.88,2.42,4.08,4.12L617.28,790.41
								L617.28,790.41z"/>
							<path class="st2" d="M619.36,793.63l3.93-2.95c0.11,0.24,0.22,0.46,0.33,0.72c0.56,1.38,0.98,2.84,1.29,4.3l-4.09,3.07
								c-0.19-1.51-0.56-3-1.14-4.42C619.58,794.1,619.47,793.86,619.36,793.63L619.36,793.63z"/>
							<path class="st2" d="M615.66,813.4c2.84-2.13,4.64-5.82,5.16-9.84l4.62-3.47c0.28,7.43-2.48,14.8-7.61,18.65
								c-5.12,3.85-11.2,3.12-15.7-1.14l4.62-3.47C609.55,815.64,612.82,815.52,615.66,813.4L615.66,813.4z"/>
							<path class="st2" d="M598.4,792.62l16.51-12.41c1.38,0.34,2.71,0.96,3.96,1.82l-5.4,4.06c-2.1-0.35-4.3,0.14-6.29,1.63
								c-1.99,1.49-3.46,3.76-4.35,6.36l-5.4,4.06C597.56,796.25,597.88,794.39,598.4,792.62L598.4,792.62z"/>
							<path class="st2" d="M599.43,804.54c0.14,1.39,0.45,2.78,0.91,4.1l-3.93,2.95c-0.48-1.29-0.84-2.62-1.1-3.97L599.43,804.54
								L599.43,804.54z"/>
							<path class="st2" d="M622.32,791.65l-3.93,2.95c-0.58-1.25-1.29-2.33-2.09-3.23l4.11-3.09
								C621.13,789.3,621.76,790.42,622.32,791.65L622.32,791.65z"/>
							<path class="st2" d="M608.58,812.27l-4.62,3.47c-0.89-0.84-1.72-1.83-2.47-2.93l4.09-3.07
								C606.47,810.82,607.49,811.67,608.58,812.27L608.58,812.27z"/>
							<path class="st2" d="M626.74,794.23c0.3,1.45,0.48,2.92,0.53,4.39l-4.62,3.47c0.2-1.57,0.2-3.19,0-4.79L626.74,794.23
								L626.74,794.23z"/>
						</g>
					</g>
					<g>
						<g>
							<path class="st1" d="M939.66,122.85l3.42-2.56c0.08,0.22,0.15,0.44,0.24,0.66c0.5,1.23,1.14,2.28,1.88,3.17l-3.55,2.67
								c-0.66-0.98-1.25-2.06-1.75-3.27C939.81,123.3,939.74,123.09,939.66,122.85L939.66,122.85z"/>
							<path class="st1" d="M945.14,99.76c2.72-2.04,5.76-2.61,8.6-1.88l-14.34,10.78C940.46,105,942.42,101.81,945.14,99.76z"/>
							<path class="st1" d="M942.5,116.72l-3.58,2.69c-0.38-1.97-0.5-3.98-0.36-5.97l4.69-3.52
								C942.54,112.03,942.26,114.38,942.5,116.72z"/>
							<path class="st1" d="M956.77,105.71c-1.33-1.51-2.96-2.45-4.66-2.74l4.69-3.52c1.31,0.89,2.51,2.1,3.54,3.58L956.77,105.71
								L956.77,105.71z"/>
							<path class="st1" d="M958.96,108.77l3.42-2.56c0.01,0,0.01,0,0.02,0.01c0.63,1.39,1.07,2.86,1.39,4.34l-3.55,2.67
								c-0.17-1.32-0.49-2.61-0.99-3.84C959.16,109.17,959.06,108.98,958.96,108.77L958.96,108.77z"/>
							<path class="st1" d="M955.74,125.68c2.46-1.86,4.03-5.05,4.48-8.55l4.01-3.01c0.25,6.46-2.16,12.86-6.61,16.2
								s-9.72,2.71-13.63-0.99l4.01-3.01C950.44,127.64,953.28,127.53,955.74,125.68L955.74,125.68z"/>
							<path class="st1" d="M940.75,107.63l14.34-10.78c1.2,0.3,2.35,0.83,3.44,1.57l-4.69,3.52c-1.83-0.31-3.73,0.12-5.46,1.41
								c-1.73,1.3-3.01,3.27-3.78,5.53l-4.69,3.52C940.02,110.77,940.29,109.15,940.75,107.63L940.75,107.63z"/>
							<path class="st1" d="M941.56,117.36c0.12,1.21,0.38,2.41,0.8,3.56l-3.42,2.56c-0.41-1.12-0.73-2.27-0.96-3.45L941.56,117.36
								L941.56,117.36z"/>
							<path class="st1" d="M961.53,106.59l-3.42,2.56c-0.51-1.08-1.12-2.01-1.81-2.8l3.58-2.69
								C960.49,104.54,961.04,105.52,961.53,106.59z"/>
							<path class="st1" d="M949.16,125.11l-4.01,3.01c-0.77-0.74-1.49-1.58-2.14-2.55l3.55-2.67
								C947.33,123.84,948.22,124.59,949.16,125.11L949.16,125.11z"/>
							<path class="st1" d="M965.37,109.11c0.26,1.26,0.41,2.53,0.46,3.82l-4.01,3.01c0.17-1.36,0.18-2.77,0-4.16L965.37,109.11z"/>
						</g>
						<g>
							<path class="st0" d="M937.75,124.51l3.42-2.56c0.08,0.22,0.15,0.44,0.24,0.66c0.5,1.23,1.14,2.28,1.88,3.17l-3.55,2.67
								c-0.66-0.98-1.25-2.06-1.75-3.27C937.91,124.96,937.83,124.74,937.75,124.51L937.75,124.51z"/>
							<path class="st0" d="M942.92,101.43c2.72-2.04,5.76-2.61,8.6-1.88l-14.34,10.78C938.24,106.67,940.21,103.48,942.92,101.43z"
								/>
							<path class="st0" d="M940.28,118.39l-3.58,2.69c-0.38-1.97-0.5-3.98-0.36-5.97l4.69-3.52
								C940.32,113.69,940.05,116.05,940.28,118.39z"/>
							<path class="st0" d="M954.87,107.38c-1.33-1.51-2.96-2.45-4.66-2.74l4.69-3.52c1.31,0.89,2.51,2.1,3.54,3.58L954.87,107.38
								L954.87,107.38z"/>
							<path class="st0" d="M956.74,111.35l3.42-2.56c0.01,0,0.01,0,0.02,0.01c0.63,1.39,1.07,2.86,1.39,4.34l-3.55,2.67
								c-0.17-1.32-0.49-2.61-0.99-3.84C956.94,111.75,956.84,111.55,956.74,111.35L956.74,111.35z"/>
							<path class="st0" d="M953.53,127.35c2.46-1.86,4.03-5.05,4.48-8.55l4.01-3.01c0.25,6.46-2.16,12.86-6.61,16.2
								s-9.72,2.71-13.63-0.99l4.01-3.01C948.22,129.31,951.06,129.2,953.53,127.35L953.53,127.35z"/>
							<path class="st0" d="M938.53,109.3l14.34-10.78c1.2,0.3,2.35,0.83,3.44,1.57l-4.69,3.52c-1.83-0.31-3.73,0.12-5.46,1.41
								c-1.72,1.3-3.01,3.27-3.78,5.53l-4.69,3.52C937.8,112.44,938.08,110.82,938.53,109.3L938.53,109.3z"/>
							<path class="st0" d="M939.66,119.02c0.12,1.21,0.38,2.41,0.8,3.56l-3.42,2.56c-0.41-1.12-0.73-2.27-0.96-3.45L939.66,119.02
								L939.66,119.02z"/>
							<path class="st0" d="M959.31,108.25l-3.42,2.56c-0.51-1.08-1.12-2.01-1.81-2.8l3.58-2.69
								C958.28,106.2,958.83,107.18,959.31,108.25z"/>
							<path class="st0" d="M947.26,126.78l-4.01,3.01c-0.77-0.74-1.49-1.58-2.14-2.55l3.55-2.67
								C945.43,125.51,946.31,126.26,947.26,126.78L947.26,126.78z"/>
							<path class="st0" d="M963.14,110.78c0.26,1.26,0.41,2.53,0.46,3.82l-4.01,3.01c0.17-1.36,0.18-2.77,0-4.16L963.14,110.78z"/>
						</g>
						<g>
							<path class="st2" d="M939.66,123.73l3.42-2.56c0.08,0.22,0.15,0.44,0.24,0.66c0.5,1.23,1.14,2.28,1.88,3.17l-3.55,2.67
								c-0.66-0.98-1.25-2.06-1.75-3.27C939.81,124.18,939.74,123.95,939.66,123.73L939.66,123.73z"/>
							<path class="st2" d="M943.98,100.63c2.72-2.04,5.76-2.61,8.6-1.88l-14.34,10.78C939.3,105.87,941.26,102.68,943.98,100.63z"
								/>
							<path class="st2" d="M941.34,117.59l-3.58,2.69c-0.38-1.97-0.5-3.98-0.36-5.97l4.69-3.52
								C941.38,112.9,941.1,115.25,941.34,117.59z"/>
							<path class="st2" d="M956.77,106.59c-1.33-1.51-2.96-2.45-4.66-2.74l4.69-3.52c1.31,0.89,2.51,2.1,3.54,3.58L956.77,106.59
								L956.77,106.59z"/>
							<path class="st2" d="M957.8,108.77l3.42-2.56c0.01,0,0.01,0,0.02,0.01c0.63,1.39,1.07,2.86,1.39,4.34l-3.55,2.67
								c-0.17-1.32-0.49-2.61-0.99-3.84C958,109.17,957.9,108.98,957.8,108.77L957.8,108.77z"/>
							<path class="st2" d="M954.58,126.55c2.46-1.86,4.03-5.05,4.48-8.55l4.01-3.01c0.25,6.46-2.16,12.86-6.61,16.2
								c-4.45,3.34-9.72,2.71-13.63-0.99l4.01-3.01C949.28,128.52,952.12,128.41,954.58,126.55L954.58,126.55z"/>
							<path class="st2" d="M939.59,108.5l14.34-10.78c1.2,0.3,2.35,0.83,3.44,1.57l-4.69,3.52c-1.83-0.31-3.73,0.12-5.46,1.41
								c-1.73,1.3-3.01,3.27-3.78,5.53l-4.69,3.52C938.86,111.64,939.13,110.02,939.59,108.5L939.59,108.5z"/>
							<path class="st2" d="M939.66,118.23c0.12,1.21,0.38,2.41,0.8,3.56l-3.42,2.56c-0.41-1.12-0.73-2.27-0.96-3.45L939.66,118.23
								L939.66,118.23z"/>
							<path class="st2" d="M960.36,107.45l-3.42,2.56c-0.51-1.08-1.12-2.01-1.81-2.8l3.58-2.69
								C959.33,105.4,959.88,106.38,960.36,107.45z"/>
							<path class="st2" d="M949.16,125.98l-4.01,3.01c-0.77-0.74-1.49-1.58-2.14-2.55l3.55-2.67
								C947.33,124.72,948.22,125.46,949.16,125.98L949.16,125.98z"/>
							<path class="st2" d="M964.2,109.98c0.26,1.26,0.41,2.53,0.46,3.82l-4.01,3.01c0.17-1.36,0.18-2.77,0-4.16L964.2,109.98z"/>
						</g>
					</g>
					<g>
						<g>
							<polygon class="st1" points="693.67,46.32 691.25,41.43 687.08,45.21 689.5,50.1 							"/>
							<polygon class="st1" points="675.43,74.8 693.53,58.39 691.31,53.91 695.47,50.13 700.48,60.25 674.06,84.22 669.06,74.1 
								673.22,70.32 							"/>
							<polygon class="st1" points="667.14,57.86 664.36,52.21 660.19,55.99 662.98,61.63 							"/>
							<polygon class="st1" points="671.4,66.53 668.98,61.63 664.82,65.41 667.24,70.3 							"/>
							<polygon class="st1" points="684.74,28.27 682.83,24.42 656.41,48.39 658.31,52.24 							"/>
							<polygon class="st1" points="689.39,37.67 686.6,32.03 682.44,35.8 685.22,41.45 							"/>
							<polygon class="st1" points="686.3,26.86 688.15,30.62 683.99,34.4 683.01,32.42 664.92,48.83 665.9,50.81 661.74,54.59 
								659.88,50.83 							"/>
							<polygon class="st1" points="667.98,62.55 666.12,58.79 661.95,62.56 663.81,66.32 							"/>
							<polygon class="st1" points="690.24,42.36 688.38,38.6 684.22,42.38 686.08,46.14 							"/>
							<polygon class="st1" points="697.38,48.4 695.53,44.64 691.36,48.42 693.22,52.18 							"/>
							<polygon class="st1" points="675.16,68.56 673.3,64.8 669.13,68.58 670.99,72.34 							"/>
						</g>
						<g>
							<polygon class="st0" points="691.04,48.7 688.63,43.81 684.46,47.59 686.88,52.48 							"/>
							<polygon class="st0" points="672.81,77.18 690.9,60.77 688.69,56.29 692.85,52.52 697.86,62.64 671.44,86.6 666.44,76.48 
								670.6,72.71 							"/>
							<polygon class="st0" points="664.5,60.25 661.71,54.61 657.55,58.39 660.33,64.03 							"/>
							<polygon class="st0" points="668.79,68.89 666.37,63.99 662.2,67.77 664.62,72.67 							"/>
							<polygon class="st0" points="682.12,30.66 680.21,26.8 653.79,50.77 655.7,54.63 							"/>
							<polygon class="st0" points="686.77,40.05 683.98,34.4 679.81,38.18 682.6,43.83 							"/>
							<polygon class="st0" points="683.67,29.23 685.53,33 681.37,36.78 680.39,34.8 662.3,51.22 663.28,53.19 659.12,56.97 
								657.25,53.2 							"/>
							<polygon class="st0" points="665.39,64.9 663.53,61.14 659.37,64.92 661.22,68.68 							"/>
							<polygon class="st0" points="687.63,44.71 685.77,40.95 681.6,44.73 683.46,48.49 							"/>
							<polygon class="st0" points="694.78,50.77 692.92,47.01 688.76,50.79 690.61,54.55 							"/>
							<polygon class="st0" points="672.54,70.94 670.68,67.18 666.52,70.96 668.37,74.72 							"/>
						</g>
						<g>
							<polygon class="st2" points="692.29,47.57 689.88,42.68 685.71,46.46 688.13,51.35 							"/>
							<polygon class="st2" points="674.06,76.04 692.15,59.63 689.94,55.16 694.11,51.38 699.1,61.5 672.68,85.47 667.68,75.35 
								671.85,71.57 							"/>
							<polygon class="st2" points="665.75,59.12 662.96,53.47 658.8,57.25 661.59,62.9 							"/>
							<polygon class="st2" points="670.04,67.76 667.63,62.87 663.46,66.65 665.88,71.54 							"/>
							<polygon class="st2" points="683.36,29.52 681.45,25.66 655.03,49.63 656.94,53.49 							"/>
							<polygon class="st2" points="688.02,38.92 685.23,33.28 681.07,37.06 683.86,42.7 							"/>
							<polygon class="st2" points="684.92,28.11 686.78,31.86 682.62,35.64 681.64,33.67 663.55,50.08 664.53,52.05 660.36,55.83 
								658.5,52.07 							"/>
							<polygon class="st2" points="666.63,63.76 664.77,60 660.61,63.78 662.46,67.54 							"/>
							<polygon class="st2" points="688.88,43.59 687.02,39.83 682.85,43.61 684.71,47.37 							"/>
							<polygon class="st2" points="696.03,49.63 694.17,45.87 690,49.65 691.86,53.41 							"/>
							<polygon class="st2" points="673.78,69.81 671.92,66.05 667.76,69.83 669.62,73.59 							"/>
						</g>
					</g>
					<g>
						<g>
							<polygon class="st1" points="1647.36,889.82 1642.5,888.16 1641.44,893.87 1646.3,895.53 							"/>
							<polygon class="st1" points="1618.52,896.27 1639.62,903.46 1640.59,898.23 1645.45,899.89 1643.27,911.7 1612.43,901.19 
								1614.62,889.38 1619.48,891.03 							"/>
							<polygon class="st1" points="1623.43,869.99 1618.57,868.33 1617.35,874.92 1622.21,876.57 							"/>
							<polygon class="st1" points="1621.31,880.9 1616.45,879.24 1615.39,884.95 1620.25,886.61 							"/>
							<polygon class="st1" points="1651.05,869.94 1620.22,859.44 1619.38,863.94 1650.22,874.45 							"/>
							<polygon class="st1" points="1649.4,878.84 1644.54,877.18 1643.32,883.77 1648.18,885.43 							"/>
							<polygon class="st1" points="1652.05,875.05 1651.23,879.44 1646.37,877.79 1646.8,875.49 1625.69,868.29 1625.26,870.6 
								1620.4,868.94 1621.22,864.55 							"/>
							<polygon class="st1" points="1621.02,876.16 1616.16,874.51 1615.35,878.9 1620.21,880.55 							"/>
							<polygon class="st1" points="1647.01,885.04 1642.15,883.38 1641.34,887.77 1646.2,889.42 							"/>
							<polygon class="st1" points="1648.5,896.27 1643.64,894.61 1642.83,899 1647.69,900.66 							"/>
							<polygon class="st1" points="1622.53,887.43 1617.67,885.78 1616.85,890.17 1621.71,891.82 							"/>
						</g>
						<g>
							<polygon class="st0" points="1644.31,888.77 1639.45,887.11 1638.39,892.83 1643.25,894.48 							"/>
							<polygon class="st0" points="1615.45,895.22 1636.57,902.41 1637.54,897.19 1642.4,898.85 1640.2,910.65 1609.37,900.15 
								1611.56,888.33 1616.42,889.99 							"/>
							<polygon class="st0" points="1620.37,868.95 1615.51,867.29 1614.29,873.88 1619.15,875.54 							"/>
							<polygon class="st0" points="1618.25,879.86 1613.39,878.2 1612.33,883.91 1617.19,885.57 							"/>
							<polygon class="st0" points="1647.99,868.9 1617.16,858.4 1616.32,862.9 1647.16,873.41 							"/>
							<polygon class="st0" points="1646.35,877.79 1641.49,876.14 1640.26,882.72 1645.12,884.38 							"/>
							<polygon class="st0" points="1648.99,874.01 1648.17,878.4 1643.31,876.74 1643.74,874.44 1622.63,867.24 1622.2,869.55 
								1617.34,867.9 1618.16,863.5 							"/>
							<polygon class="st0" points="1617.96,875.13 1613.1,873.47 1612.29,877.86 1617.15,879.51 							"/>
							<polygon class="st0" points="1643.95,883.98 1639.09,882.32 1638.28,886.71 1643.14,888.37 							"/>
							<polygon class="st0" points="1645.43,895.23 1640.57,893.57 1639.76,897.96 1644.62,899.62 							"/>
							<polygon class="st0" points="1619.47,886.39 1614.61,884.73 1613.79,889.12 1618.66,890.77 							"/>
						</g>
						<g>
							<polygon class="st2" points="1645.76,889.28 1640.9,887.62 1639.84,893.33 1644.7,894.99 							"/>
							<polygon class="st2" points="1616.91,895.72 1638.02,902.91 1638.99,897.69 1643.85,899.34 1641.66,911.16 1610.83,900.64 
								1613.02,888.84 1617.88,890.49 							"/>
							<polygon class="st2" points="1621.83,869.44 1616.97,867.79 1615.74,874.38 1620.6,876.03 							"/>
							<polygon class="st2" points="1619.79,880.42 1614.93,878.77 1613.87,884.48 1618.73,886.13 							"/>
							<polygon class="st2" points="1649.45,869.4 1618.61,858.9 1617.78,863.4 1648.61,873.9 							"/>
							<polygon class="st2" points="1647.8,878.3 1642.94,876.64 1641.72,883.23 1646.58,884.89 							"/>
							<polygon class="st2" points="1650.44,874.5 1649.63,878.9 1644.77,877.24 1645.2,874.94 1624.09,867.74 1623.66,870.05 
								1618.8,868.39 1619.61,864 							"/>
							<polygon class="st2" points="1619.45,875.64 1614.59,873.98 1613.77,878.37 1618.63,880.03 							"/>
							<polygon class="st2" points="1645.41,884.48 1640.55,882.83 1639.74,887.22 1644.6,888.87 							"/>
							<polygon class="st2" points="1646.89,895.74 1642.03,894.08 1641.22,898.47 1646.08,900.12 							"/>
							<polygon class="st2" points="1620.93,886.88 1616.07,885.23 1615.25,889.62 1620.11,891.27 							"/>
						</g>
					</g>
					<g>
						<g>
							<polygon class="st1" points="1600.11,40.13 1597.74,36.22 1594.42,39.93 1596.79,43.83 							"/>
							<polygon class="st1" points="1586.34,66.51 1600.78,50.42 1598.61,46.84 1601.94,43.14 1606.84,51.22 1585.75,74.73 
								1580.85,66.65 1584.17,62.94 							"/>
							<polygon class="st1" points="1578.16,53.03 1575.43,48.52 1572.11,52.23 1574.84,56.73 							"/>
							<polygon class="st1" points="1582.34,59.95 1579.97,56.04 1576.65,59.75 1579.02,63.65 							"/>
							<polygon class="st1" points="1591.36,25.72 1589.49,22.65 1568.41,46.15 1570.28,49.23 							"/>
							<polygon class="st1" points="1595.91,33.23 1593.18,28.73 1589.86,32.43 1592.59,36.93 							"/>
							<polygon class="st1" points="1592.64,24.29 1594.46,27.3 1591.14,31 1590.18,29.42 1575.74,45.53 1576.7,47.1 1573.37,50.81 
								1571.55,47.8 							"/>
							<polygon class="st1" points="1579.18,56.91 1577.36,53.91 1574.04,57.62 1575.86,60.62 							"/>
							<polygon class="st1" points="1596.94,37.12 1595.12,34.12 1591.79,37.82 1593.62,40.83 							"/>
							<polygon class="st1" points="1603.44,41.46 1601.61,38.46 1598.29,42.17 1600.11,45.17 							"/>
							<polygon class="st1" points="1585.66,61.28 1583.84,58.27 1580.52,61.98 1582.34,64.98 							"/>
						</g>
						<g>
							<polygon class="st0" points="1598.02,42.46 1595.65,38.56 1592.33,42.26 1594.7,46.17 							"/>
							<polygon class="st0" points="1584.24,68.85 1598.69,52.75 1596.52,49.18 1599.85,45.47 1604.75,53.56 1583.66,77.06 
								1578.75,68.99 1582.08,65.28 							"/>
							<polygon class="st0" points="1576.07,55.36 1573.33,50.86 1570.01,54.56 1572.74,59.07 							"/>
							<polygon class="st0" points="1580.25,62.27 1577.88,58.36 1574.56,62.07 1576.93,65.97 							"/>
							<polygon class="st0" points="1589.27,28.05 1587.4,24.97 1566.31,48.48 1568.18,51.56 							"/>
							<polygon class="st0" points="1593.82,35.56 1591.09,31.06 1587.77,34.77 1590.5,39.27 							"/>
							<polygon class="st0" points="1590.55,26.62 1592.37,29.63 1589.05,33.34 1588.08,31.76 1573.65,47.85 1574.6,49.43 
								1571.28,53.14 1569.45,50.14 							"/>
							<polygon class="st0" points="1577.08,59.26 1575.25,56.26 1571.93,59.96 1573.75,62.96 							"/>
							<polygon class="st0" points="1594.85,39.46 1593.03,36.46 1589.7,40.16 1591.53,43.16 							"/>
							<polygon class="st0" points="1601.34,43.81 1599.52,40.81 1596.19,44.51 1598.02,47.51 							"/>
							<polygon class="st0" points="1583.57,63.61 1581.74,60.61 1578.42,64.31 1580.24,67.32 							"/>
						</g>
						<g>
							<polygon class="st2" points="1599.01,41.36 1596.64,37.46 1593.32,41.16 1595.69,45.07 							"/>
							<polygon class="st2" points="1585.24,67.74 1599.69,51.64 1597.51,48.07 1600.84,44.36 1605.74,52.44 1584.66,75.95 
								1579.75,67.87 1583.07,64.17 							"/>
							<polygon class="st2" points="1577.06,54.26 1574.32,49.76 1571,53.46 1573.73,57.96 							"/>
							<polygon class="st2" points="1581.25,61.16 1578.88,57.25 1575.56,60.96 1577.93,64.86 							"/>
							<polygon class="st2" points="1590.26,26.94 1588.39,23.86 1567.31,47.37 1569.17,50.45 							"/>
							<polygon class="st2" points="1594.82,34.44 1592.09,29.94 1588.77,33.64 1591.5,38.14 							"/>
							<polygon class="st2" points="1591.55,25.51 1593.36,28.52 1590.04,32.23 1589.08,30.65 1574.64,46.74 1575.6,48.32 
								1572.27,52.02 1570.45,49.02 							"/>
							<polygon class="st2" points="1578.08,58.15 1576.26,55.15 1572.94,58.85 1574.76,61.86 							"/>
							<polygon class="st2" points="1595.85,38.35 1594.03,35.34 1590.7,39.05 1592.53,42.05 							"/>
							<polygon class="st2" points="1602.34,42.7 1600.52,39.7 1597.19,43.4 1599.02,46.4 							"/>
							<polygon class="st2" points="1584.57,62.49 1582.75,59.49 1579.43,63.2 1581.25,66.2 							"/>
						</g>
					</g>
					<rect x="532.72" y="309.77" class="st2" width="15.21" height="56.69"/>
					<rect x="546.03" y="340.69" class="st1" width="7.61" height="10.31"/>
					<rect x="508" y="392.23" class="st1" width="7.61" height="10.31"/>
					<rect x="591.67" y="704.04" class="st2" width="7.61" height="10.31"/>
					<rect x="1536.75" y="322.65" class="st0" width="36.13" height="5.15"/>
					<rect x="894.02" y="608.69" class="st1" width="36.13" height="5.15"/>
					<rect x="1818.18" y="647.35" class="st1" width="3.8" height="5.15"/>
					<rect x="1764.94" y="626.73" class="st1" width="36.13" height="5.15"/>
					<rect x="692.45" y="580.35" class="st0" width="24.72" height="5.15"/>
					<rect x="671.53" y="716.92" class="st0" width="36.13" height="5.15"/>
					<rect x="844.58" y="338.12" class="st1" width="36.13" height="5.15"/>
					<rect x="1515.83" y="557.15" class="st1" width="36.13" height="5.15"/>
					<rect x="808.45" y="902.46" class="st1" width="36.13" height="5.15"/>
					<rect x="863.59" y="835.46" class="st0" width="36.13" height="5.15"/>
					<rect x="983.39" y="412.85" class="st1" width="20.92" height="5.15"/>
					<rect x="922.54" y="309.77" class="st0" width="20.92" height="5.15"/>
					<rect x="658.22" y="716.92" class="st0" width="7.61" height="5.15"/>
					<rect x="1578.58" y="322.65" class="st0" width="7.61" height="5.15"/>
					<rect x="688.65" y="753" class="st0" width="7.61" height="5.15"/>
					<rect x="1555.76" y="557.15" class="st1" width="7.61" height="5.15"/>
					<rect x="884.51" y="845.77" class="st1" width="7.61" height="5.15"/>
					<rect x="688.65" y="783.92" class="st1" width="7.61" height="5.15"/>
					<rect x="875" y="796.81" class="st1" width="7.61" height="5.15"/>
					<rect x="1538.65" y="621.58" class="st1" width="7.61" height="5.15"/>
				</g>
			</g>
		</g>
	</g>
</g>
</svg>
